# Blender 5.0.1
# www.blender.org
mtllib pine_medium.mtl
o pine_medium
v 0.145082 0.061344 -0.722287
v 0.119942 4.332819 -0.600790
v 0.525051 0.000000 -0.562160
v 0.437522 4.305322 -0.418644
v 0.662113 0.008631 -0.154176
v 0.485996 4.391022 -0.169838
v 0.396028 0.093876 0.241634
v 0.273555 4.325212 0.051300
v -0.098496 0.027098 0.269523
v 0.038113 4.354411 0.119074
v -0.330373 0.051025 -0.108731
v -0.231997 4.316846 -0.113054
v -0.225814 0.027665 -0.554176
v -0.110205 4.326227 -0.456977
v 0.314045 3.566142 -0.385347
v 1.140539 2.861763 -3.792745
v 1.119832 3.965803 -3.167239
v 0.850934 4.947709 -2.073064
v 0.526988 6.111604 -1.042737
v 0.228431 7.531720 -0.351758
v -1.907744 3.245097 -3.255376
v -1.499590 3.990974 -2.554255
v -1.101763 5.171223 -1.804943
v -0.207356 6.414166 -1.233761
v -3.835629 3.158374 -0.570954
v -2.928789 3.992540 -0.602706
v -1.698894 5.207686 -0.551943
v -0.827930 6.040462 -0.383013
v -2.702641 3.193134 2.279741
v -2.022816 3.817839 1.794744
v -1.482606 5.120008 1.275100
v -0.750583 6.054404 0.453372
v 0.656761 3.205266 3.792745
v 0.674286 3.719877 2.867070
v 0.168038 5.212797 1.857887
v 0.150737 6.084588 1.000847
v 3.591926 3.136453 1.671775
v 2.615576 3.832495 1.528176
v 1.623650 4.978665 0.916531
v 1.250619 6.130711 0.272340
v 3.835629 3.236671 -1.699769
v 2.806521 3.795793 -1.398523
v 1.872967 4.785224 -0.979122
v 1.394619 6.093881 -0.544988
v 0.091662 5.929008 -0.193555
v 1.459498 5.799644 -3.433516
v 1.272824 6.205422 -2.423213
v 0.977275 7.487797 -1.597487
v 0.402258 8.634171 -1.072114
v 0.257423 9.850442 -0.130102
v -1.457429 5.483243 -2.990000
v -1.195858 6.354898 -2.433440
v -0.713032 7.476938 -1.979441
v -0.169478 8.433168 -0.902563
v -2.998520 5.525513 -0.962994
v -2.353473 6.337582 -0.540030
v -1.478254 7.332852 -0.376006
v -0.743152 8.557912 -0.385316
v -2.200146 5.446136 1.770104
v -1.711254 6.409088 1.515822
v -1.073099 7.254390 0.891483
v -0.539080 8.580430 0.241165
v 0.156068 5.422753 2.890675
v 0.191181 6.458087 2.418881
v 0.207040 7.337470 1.454179
v 0.012769 8.721026 0.706294
v 2.775303 5.459248 1.730494
v 2.310532 6.428602 1.303508
v 1.491441 7.555634 0.867486
v 0.848393 8.461337 0.373821
v 3.185349 5.601571 -1.100922
v 2.731618 6.361557 -1.020016
v 1.826626 7.480058 -0.710316
v 1.186343 8.501966 -0.311421
v 0.041564 8.578121 -0.230860
v 2.347597 7.937650 -0.854585
v 1.952402 8.704482 -0.785968
v 1.434614 9.572807 -0.647687
v 0.745050 10.687416 -0.436879
v 0.065421 11.871893 -0.299304
v 1.173674 7.921896 -2.276160
v 0.747899 8.608774 -1.839266
v 0.614479 9.714084 -1.257777
v 0.464185 10.633394 -0.802920
v -1.052310 8.085112 -2.368870
v -0.648896 8.802880 -1.738336
v -0.451068 9.593813 -1.156193
v -0.203456 10.535963 -0.892092
v -2.227311 7.845204 -0.600502
v -1.568751 8.780961 -0.566996
v -0.885088 9.696107 -0.412298
v -0.508338 10.517332 -0.472905
v -1.625813 7.849224 1.161069
v -1.233734 8.638712 1.016596
v -0.588073 9.706325 0.601267
v -0.414998 10.536026 0.106455
v 0.125292 7.837391 1.973654
v 0.304952 8.698901 1.634382
v 0.159581 9.665825 0.944955
v 0.287085 10.725513 0.492691
v 1.958721 8.058494 1.115770
v 1.693976 8.676412 0.794184
v 1.015938 9.642748 0.393368
v 0.725230 10.689718 -0.001674
v 0.153362 10.559124 -0.200153
v 0.486153 10.123058 -1.639645
v 0.478596 10.691750 -1.324367
v 0.282154 11.522442 -0.938159
v 0.264877 12.529888 -0.602645
v 0.100046 13.723804 -0.240477
v -0.427549 10.190351 -1.531671
v -0.318492 10.811054 -1.305836
v -0.232163 11.557764 -0.993817
v -0.079988 12.480930 -0.564465
v -1.095577 10.170771 -0.759334
v -0.826002 10.779030 -0.630669
v -0.591295 11.532248 -0.479539
v -0.127026 12.458660 -0.463800
v -1.270702 10.123034 0.166907
v -0.867134 10.821472 0.056824
v -0.555503 11.657402 0.029036
v -0.155660 12.558670 -0.086730
v -0.638827 10.098059 1.040186
v -0.400351 10.832926 0.718966
v -0.248641 11.570145 0.334473
v -0.025260 12.504641 0.129130
v 0.281711 10.055079 1.191474
v 0.239314 10.765434 0.794348
v 0.317705 11.555954 0.518656
v 0.255252 12.559299 0.257791
v 1.164884 10.173577 0.802733
v 0.945829 10.775024 0.547350
v 0.696867 11.629740 0.257433
v 0.358400 12.469589 0.079873
v 1.634991 10.180392 -0.074353
v 1.225350 10.695974 -0.267160
v 0.865641 11.537100 -0.180876
v 0.552035 12.481222 -0.199771
v 1.322438 10.061833 -1.060667
v 1.091301 10.702236 -0.971882
v 0.790555 11.628399 -0.677256
v 0.493253 12.446009 -0.399081
vn 0.3933 0.0386 -0.9186
vn 0.9473 0.0299 -0.3189
vn 0.8338 0.0489 0.5500
vn 0.0518 0.0331 0.9981
vn -0.8518 0.0202 0.5235
vn 0.0565 0.9731 -0.2232
vn -0.9727 0.0314 -0.2300
vn -0.4150 0.0317 -0.9093
vn 0.1248 -0.9824 -0.1387
vn -0.0914 -0.9794 0.1803
vn -0.1954 0.4807 -0.8549
vn -0.1524 0.7167 -0.6806
vn 0.4321 0.6622 -0.6122
vn 0.3980 0.4677 -0.7892
vn 0.0961 -0.9947 0.0369
vn -0.5710 0.7061 -0.4188
vn -0.7738 0.5042 -0.3834
vn -0.7277 0.6386 -0.2503
vn -0.7702 0.5522 -0.3192
vn 0.0990 -0.9947 -0.0272
vn -0.6508 0.7170 0.2499
vn -0.7005 0.7041 0.1167
vn -0.6954 0.7167 0.0524
vn -0.8149 0.5759 0.0658
vn 0.0439 -0.9950 -0.0895
vn -0.2708 0.7567 0.5951
vn -0.3182 0.4623 0.8277
vn -0.3565 0.7587 0.5452
vn -0.4175 0.6323 0.6525
vn -0.0805 -0.9936 -0.0792
vn 0.2762 0.8378 0.4710
vn 0.5018 0.5947 0.6281
vn 0.4960 0.6137 0.6143
vn 0.4209 0.6073 0.6739
vn -0.1069 -0.9936 -0.0373
vn 0.5776 0.8159 0.0275
vn 0.7477 0.6634 0.0306
vn 0.9150 0.3769 0.1442
vn 0.7791 0.6172 0.1095
vn -0.0177 -0.9800 0.1983
vn 0.2878 0.8073 -0.5152
vn 0.5638 0.7105 -0.4212
vn 0.4567 0.4260 -0.7810
vn 0.4475 0.4656 -0.7635
vn 0.1210 -0.9885 0.0905
vn -0.1580 0.9059 -0.3930
vn 0.1790 0.5615 -0.8079
vn -0.3522 0.2382 -0.9051
vn -0.4068 0.5286 -0.7450
vn 0.1043 -0.9895 0.0999
vn -0.6685 0.5323 -0.5194
vn -0.8056 0.4846 -0.3409
vn -0.6807 0.6836 -0.2634
vn -0.5039 0.5254 -0.6856
vn 0.1466 -0.9866 -0.0715
vn -0.8174 0.5171 0.2538
vn -0.7439 0.6088 0.2755
vn -0.8289 0.4993 0.2521
vn -0.7903 0.5650 0.2371
vn 0.0677 -0.9843 -0.1630
vn -0.3875 0.4142 0.8235
vn -0.3181 0.7068 0.6318
vn -0.6208 0.5323 0.5756
vn -0.6155 0.5508 0.5637
vn -0.0574 -0.9854 -0.1605
vn 0.3711 0.3746 0.8497
vn 0.3441 0.6911 0.6356
vn 0.4487 0.4729 0.7583
vn 0.4484 0.4672 0.7620
vn -0.1247 -0.9899 -0.0678
vn 0.8644 0.4802 0.1493
vn 0.7759 0.6162 0.1353
vn 0.6552 0.6628 0.3625
vn 0.7756 0.4791 0.4109
vn -0.1068 -0.9943 -0.0054
vn 0.6013 0.4306 -0.6730
vn 0.5729 0.6139 -0.5431
vn 0.5879 0.5860 -0.5577
vn 0.6394 0.5170 -0.5692
vn -0.2152 -0.9582 0.1883
vn 0.7000 0.4129 -0.5826
vn 0.5679 0.4485 -0.6902
vn 0.5751 0.4810 -0.6618
vn 0.6732 0.4541 -0.5836
vn -0.0814 -0.9613 0.2633
vn 0.0758 0.5682 -0.8194
vn 0.0008 0.4657 -0.8850
vn 0.0534 0.4498 -0.8915
vn 0.0650 0.3938 -0.9169
vn 0.2967 -0.9526 0.0679
vn -0.5681 0.6998 -0.4331
vn -0.6652 0.5433 -0.5122
vn -0.7643 0.3523 -0.5402
vn -0.7537 0.3873 -0.5310
vn 0.3214 -0.9408 -0.1076
vn -0.7921 0.5478 0.2692
vn -0.7990 0.5598 0.2193
vn -0.8974 0.4214 0.1310
vn -0.9184 0.3716 0.1360
vn 0.1422 -0.9366 -0.3201
vn -0.3923 0.3505 0.8505
vn -0.3360 0.5110 0.7912
vn -0.3293 0.5334 0.7792
vn -0.5220 0.4142 0.7456
vn -0.0341 -0.9478 -0.3172
vn 0.3814 0.2688 0.8845
vn 0.4591 0.5605 0.6893
vn 0.5252 0.2798 0.8037
vn 0.6624 0.5083 0.5503
vn -0.2659 -0.9640 0.0066
vn 0.8796 0.4528 0.1458
vn 0.7386 0.6240 0.2551
vn 0.9585 0.2820 0.0422
vn 0.8686 0.4941 0.0369
vn -0.0373 -0.9587 0.2818
vn -0.0676 0.4831 -0.8730
vn 0.0433 0.4296 -0.9020
vn -0.1480 0.3102 -0.9391
vn -0.1436 0.2691 -0.9524
vn 0.2231 -0.9601 0.1686
vn -0.7137 0.3468 -0.6085
vn -0.7641 0.3219 -0.5591
vn -0.8864 0.3072 -0.3463
vn -0.9006 0.2271 -0.3706
vn 0.2943 -0.9557 0.0064
vn -0.9049 0.4180 -0.0799
vn -0.9475 0.3105 -0.0759
vn -0.8927 0.4482 -0.0475
vn -0.9723 0.1968 -0.1260
vn 0.2393 -0.9501 -0.2003
vn -0.7009 0.4871 0.5211
vn -0.6419 0.2633 0.7201
vn -0.7380 0.3975 0.5453
vn -0.8006 0.2477 0.5456
vn 0.0122 -0.9398 -0.3415
vn -0.0629 0.4168 0.9068
vn -0.2589 0.4880 0.8336
vn -0.2915 0.2712 0.9173
vn -0.4454 0.3014 0.8431
vn -0.0228 -0.9407 -0.3386
vn 0.2989 0.4792 0.8252
vn 0.3129 0.2850 0.9060
vn 0.8872 0.1671 0.4301
vn 0.8852 0.2777 0.3732
vn -0.2348 -0.9629 -0.1333
vn 0.7797 0.4630 0.4215
vn 0.8958 0.3527 0.2704
vn 0.7414 0.4110 0.5305
vn 0.7781 0.3011 0.5513
vn -0.2584 -0.9460 0.1956
vn 0.7970 0.5156 -0.3145
vn 0.9151 0.3980 -0.0652
vn 0.9017 0.2932 -0.3177
vn 0.8939 0.3147 -0.3192
vn -0.2304 -0.9448 0.2329
vn 0.5567 0.3079 -0.7715
vn 0.3561 0.3863 -0.8508
vn 0.3464 0.4126 -0.8425
vn 0.6939 0.2951 -0.6569
vn 0.4991 0.0276 -0.8661
vn 0.9782 0.0386 -0.2039
vn 0.7161 0.0313 0.6973
vn 0.2821 0.0513 0.9580
vn -0.6548 0.0469 0.7543
vn -0.4757 0.8561 -0.2022
vn 0.0313 0.9949 0.0957
vn 0.0401 0.9988 -0.0283
vn -0.0228 0.9996 0.0192
vn -0.9426 0.0214 -0.3332
vn -0.5302 0.0210 -0.8476
vn 0.1267 -0.9886 0.0816
vn -0.1149 -0.9877 -0.1057
vn -0.0411 -0.9985 0.0349
vn -0.0333 -0.9814 0.1890
vn -0.0390 0.6956 -0.7173
vn -0.0520 0.5477 -0.8351
vn -0.0694 0.4573 -0.8866
vn -0.6209 0.6589 -0.4247
vn -0.6172 0.6436 -0.4525
vn -0.6224 0.7154 -0.3175
vn -0.5440 0.7966 0.2636
vn -0.8121 0.4732 0.3414
vn -0.7283 0.6749 0.1186
vn -0.1584 0.8642 0.4775
vn -0.3144 0.4561 0.8325
vn -0.2803 0.6701 0.6873
vn 0.4233 0.7099 0.5628
vn 0.3926 0.6738 0.6259
vn 0.4480 0.5424 0.7107
vn 0.4903 0.8694 0.0613
vn 0.7351 0.6768 0.0395
vn 0.9447 0.3147 0.0921
vn 0.6907 0.3662 -0.6235
vn 0.5626 0.6792 -0.4713
vn 0.6229 0.6085 -0.4916
vn 0.0356 0.5302 -0.8471
vn 0.0260 0.3653 -0.9305
vn 0.1533 0.6992 -0.6983
vn -0.6216 0.6884 -0.3737
vn -0.6564 0.6424 -0.3955
vn -0.5857 0.3459 -0.7330
vn -0.8370 0.4895 0.2444
vn -0.7069 0.6793 0.1972
vn -0.8278 0.4777 0.2942
vn -0.4029 0.3908 0.8276
vn -0.3244 0.7017 0.6343
vn -0.3911 0.3945 0.8315
vn 0.4024 0.5237 0.7509
vn 0.2814 0.5172 0.8083
vn 0.2487 0.5937 0.7653
vn 0.8566 0.4964 0.1409
vn 0.7880 0.6028 0.1254
vn 0.8634 0.4783 0.1605
vn 0.4496 0.8545 -0.2601
vn 0.5542 0.5372 -0.6359
vn 0.6229 0.5619 -0.5444
vn 0.4629 0.6619 -0.5895
vn 0.5851 0.4318 -0.6865
vn 0.6947 0.4070 -0.5931
vn 0.0351 0.6483 -0.7605
vn -0.1431 0.6096 -0.7796
vn -0.1239 0.2979 -0.9465
vn -0.7362 0.5331 -0.4169
vn -0.6677 0.5781 -0.4691
vn -0.7958 0.3275 -0.5093
vn -0.8562 0.4660 0.2230
vn -0.7920 0.5670 0.2264
vn -0.9021 0.3438 0.2609
vn -0.3542 0.4057 0.8426
vn -0.3371 0.5124 0.7898
vn -0.5224 0.3871 0.7597
vn 0.4370 0.5554 0.7075
vn 0.4266 0.5853 0.6895
vn 0.6957 0.4145 0.5866
vn 0.8840 0.4419 0.1524
vn 0.8595 0.4888 0.1493
vn 0.8347 0.4587 0.3049
vn 0.0286 0.3373 -0.9410
vn 0.1250 0.3702 -0.9205
vn 0.1257 0.4012 -0.9073
vn -0.7296 0.4350 -0.5278
vn -0.7768 0.3474 -0.5252
vn -0.7635 0.3913 -0.5137
vn -0.8668 0.4789 -0.1392
vn -0.9370 0.3487 -0.0199
vn -0.9087 0.3813 -0.1701
vn -0.7301 0.4584 0.5068
vn -0.7441 0.4229 0.5172
vn -0.6261 0.3071 0.7167
vn -0.1205 0.4789 0.8695
vn -0.0753 0.3350 0.9392
vn -0.4404 0.2001 0.8752
vn 0.2873 0.4611 0.8396
vn 0.4648 0.4028 0.7885
vn 0.4799 0.3623 0.7990
vn 0.7334 0.6532 0.1883
vn 0.8944 0.3546 0.2725
vn 0.9080 0.3073 0.2847
vn 0.9188 0.3554 -0.1716
vn 0.9196 0.3533 -0.1718
vn 0.9289 0.3629 -0.0738
vn 0.4423 0.4393 -0.7819
vn 0.4363 0.4621 -0.7721
vn 0.6935 0.2383 -0.6799
vt 0.587500 0.357143
vt 0.550000 0.381886
vt 0.550000 0.332399
vt 0.462500 0.357143
vt 0.425000 0.381886
vt 0.425000 0.332399
vt 0.462500 0.500000
vt 0.425000 0.524744
vt 0.425000 0.475256
vt 0.337500 0.357143
vt 0.300000 0.381886
vt 0.300000 0.332399
s 0
usemtl Palette
f 1/1/1 4/2/1 3/3/1
f 4/1/2 5/2/2 3/3/2
f 5/1/3 8/2/3 7/3/3
f 7/1/4 10/2/4 9/3/4
f 9/1/5 12/2/5 11/3/5
f 12/1/6 10/2/6 8/3/6
f 11/1/7 14/2/7 13/3/7
f 14/1/8 1/2/8 13/3/8
f 7/1/9 9/2/9 11/3/9
f 15/4/10 21/5/10 16/6/10
f 16/7/11 22/8/11 17/9/11
f 22/10/12 18/11/12 17/12/12
f 18/7/13 24/8/13 19/9/13
f 19/7/14 24/8/14 20/9/14
f 15/4/15 25/5/15 21/6/15
f 21/7/16 26/8/16 22/9/16
f 22/10/17 27/11/17 23/12/17
f 23/7/18 28/8/18 24/9/18
f 24/7/19 28/8/19 20/9/19
f 15/4/20 29/5/20 25/6/20
f 29/7/21 26/8/21 25/9/21
f 26/10/22 31/11/22 27/12/22
f 27/7/23 32/8/23 28/9/23
f 28/7/24 32/8/24 20/9/24
f 15/4/25 33/5/25 29/6/25
f 33/7/26 30/8/26 29/9/26
f 30/10/27 35/11/27 31/12/27
f 31/7/28 36/8/28 32/9/28
f 32/7/29 36/8/29 20/9/29
f 15/4/30 37/5/30 33/6/30
f 33/7/31 38/8/31 34/9/31
f 34/10/32 39/11/32 35/12/32
f 39/7/33 36/8/33 35/9/33
f 36/7/34 40/8/34 20/9/34
f 15/4/35 41/5/35 37/6/35
f 37/7/36 42/8/36 38/9/36
f 38/10/37 43/11/37 39/12/37
f 39/7/38 44/8/38 40/9/38
f 40/7/39 44/8/39 20/9/39
f 15/4/40 16/5/40 41/6/40
f 16/7/41 42/8/41 41/9/41
f 42/10/42 18/11/42 43/12/42
f 43/7/43 19/8/43 44/9/43
f 44/7/44 19/8/44 20/9/44
f 45/4/45 51/5/45 46/6/45
f 51/7/46 47/8/46 46/9/46
f 47/10/47 53/11/47 48/12/47
f 48/7/48 54/8/48 49/9/48
f 49/7/49 54/8/49 50/9/49
f 45/4/50 55/5/50 51/6/50
f 55/7/51 52/8/51 51/9/51
f 52/10/52 57/11/52 53/12/52
f 57/7/53 54/8/53 53/9/53
f 54/7/54 58/8/54 50/9/54
f 45/4/55 59/5/55 55/6/55
f 59/7/56 56/8/56 55/9/56
f 56/10/57 61/11/57 57/12/57
f 57/7/58 62/8/58 58/9/58
f 58/7/59 62/8/59 50/9/59
f 45/4/60 63/5/60 59/6/60
f 63/10/61 60/11/61 59/12/61
f 64/10/62 61/11/62 60/12/62
f 61/7/63 66/8/63 62/9/63
f 62/7/64 66/8/64 50/9/64
f 45/4/65 67/5/65 63/6/65
f 67/10/66 64/11/66 63/12/66
f 68/10/67 65/11/67 64/12/67
f 65/7/68 70/8/68 66/9/68
f 66/7/69 70/8/69 50/9/69
f 45/4/70 71/5/70 67/6/70
f 71/10/71 68/11/71 67/12/71
f 68/10/72 73/11/72 69/12/72
f 69/7/73 74/8/73 70/9/73
f 70/7/74 74/8/74 50/9/74
f 45/4/75 46/5/75 71/6/75
f 71/7/76 47/8/76 72/9/76
f 72/10/77 48/11/77 73/12/77
f 48/7/78 74/8/78 73/9/78
f 74/7/79 49/8/79 50/9/79
f 75/4/80 81/5/80 76/6/80
f 81/7/81 77/8/81 76/9/81
f 82/10/82 78/11/82 77/12/82
f 83/7/83 79/8/83 78/9/83
f 79/7/84 84/8/84 80/9/84
f 75/4/85 85/5/85 81/6/85
f 85/7/86 82/8/86 81/9/86
f 86/10/87 83/11/87 82/12/87
f 83/7/88 88/8/88 84/9/88
f 84/7/89 88/8/89 80/9/89
f 75/4/90 89/5/90 85/6/90
f 85/7/91 90/8/91 86/9/91
f 90/10/92 87/11/92 86/12/92
f 87/10/93 92/11/93 88/12/93
f 88/7/94 92/8/94 80/9/94
f 75/4/95 93/5/95 89/6/95
f 93/7/96 90/8/96 89/9/96
f 94/10/97 91/11/97 90/12/97
f 91/7/98 96/8/98 92/9/98
f 92/7/99 96/8/99 80/9/99
f 75/4/100 97/5/100 93/6/100
f 97/10/101 94/11/101 93/12/101
f 94/10/102 99/11/102 95/12/102
f 99/7/103 96/8/103 95/9/103
f 96/7/104 100/8/104 80/9/104
f 75/4/105 101/5/105 97/6/105
f 101/10/106 98/11/106 97/12/106
f 98/10/107 103/11/107 99/12/107
f 103/7/108 100/8/108 99/9/108
f 100/7/109 104/8/109 80/9/109
f 75/4/110 76/5/110 101/6/110
f 76/10/111 102/11/111 101/12/111
f 102/10/112 78/11/112 103/12/112
f 103/7/113 79/8/113 104/9/113
f 104/7/114 79/8/114 80/9/114
f 105/4/115 111/5/115 106/6/115
f 111/10/116 107/11/116 106/12/116
f 112/10/117 108/11/117 107/12/117
f 108/10/118 114/11/118 109/12/118
f 109/7/119 114/8/119 110/9/119
f 105/4/120 115/5/120 111/6/120
f 115/10/121 112/11/121 111/12/121
f 116/10/122 113/11/122 112/12/122
f 113/10/123 118/11/123 114/12/123
f 114/7/124 118/8/124 110/9/124
f 105/4/125 119/5/125 115/6/125
f 115/10/126 120/11/126 116/12/126
f 120/10/127 117/11/127 116/12/127
f 121/10/128 118/11/128 117/12/128
f 118/7/129 122/8/129 110/9/129
f 105/4/130 123/5/130 119/6/130
f 123/10/131 120/11/131 119/12/131
f 120/10/132 125/11/132 121/12/132
f 121/10/133 126/11/133 122/12/133
f 122/7/134 126/8/134 110/9/134
f 105/4/135 127/5/135 123/6/135
f 123/10/136 128/11/136 124/12/136
f 124/10/137 129/11/137 125/12/137
f 129/10/138 126/11/138 125/12/138
f 126/7/139 130/8/139 110/9/139
f 105/4/140 131/5/140 127/6/140
f 131/10/141 128/11/141 127/12/141
f 132/10/142 129/11/142 128/12/142
f 129/10/143 134/11/143 130/12/143
f 130/7/144 134/8/144 110/9/144
f 105/4/145 135/5/145 131/6/145
f 135/7/146 132/8/146 131/9/146
f 132/10/147 137/11/147 133/12/147
f 133/10/148 138/11/148 134/12/148
f 134/7/149 138/8/149 110/9/149
f 105/4/150 139/5/150 135/6/150
f 139/10/151 136/11/151 135/12/151
f 136/10/152 141/11/152 137/12/152
f 137/10/153 142/11/153 138/12/153
f 138/7/154 142/8/154 110/9/154
f 105/4/155 106/5/155 139/6/155
f 106/10/156 140/11/156 139/12/156
f 140/10/157 108/11/157 141/12/157
f 108/10/158 142/11/158 141/12/158
f 142/7/159 109/8/159 110/9/159
f 1/1/160 2/2/160 4/3/160
f 4/1/161 6/2/161 5/3/161
f 5/1/162 6/2/162 8/3/162
f 7/1/163 8/2/163 10/3/163
f 9/1/164 10/2/164 12/3/164
f 6/1/165 4/2/165 8/3/165
f 4/1/166 2/2/166 14/3/166
f 8/1/167 4/2/167 14/3/167
f 14/1/168 12/2/168 8/3/168
f 11/1/169 12/2/169 14/3/169
f 14/1/170 2/2/170 1/3/170
f 13/1/171 1/2/171 11/3/171
f 1/1/172 3/2/172 11/3/172
f 3/1/173 5/2/173 11/3/173
f 5/1/174 7/2/174 11/3/174
f 16/7/175 21/8/175 22/9/175
f 22/10/176 23/11/176 18/12/176
f 18/7/177 23/8/177 24/9/177
f 21/7/178 25/8/178 26/9/178
f 22/10/179 26/11/179 27/12/179
f 23/7/180 27/8/180 28/9/180
f 29/7/181 30/8/181 26/9/181
f 26/10/182 30/11/182 31/12/182
f 27/7/183 31/8/183 32/9/183
f 33/7/184 34/8/184 30/9/184
f 30/10/185 34/11/185 35/12/185
f 31/7/186 35/8/186 36/9/186
f 33/7/187 37/8/187 38/9/187
f 34/10/188 38/11/188 39/12/188
f 39/7/189 40/8/189 36/9/189
f 37/7/190 41/8/190 42/9/190
f 38/10/191 42/11/191 43/12/191
f 39/7/192 43/8/192 44/9/192
f 16/7/193 17/8/193 42/9/193
f 42/10/194 17/11/194 18/12/194
f 43/7/195 18/8/195 19/9/195
f 51/7/196 52/8/196 47/9/196
f 47/10/197 52/11/197 53/12/197
f 48/7/198 53/8/198 54/9/198
f 55/7/199 56/8/199 52/9/199
f 52/10/200 56/11/200 57/12/200
f 57/7/201 58/8/201 54/9/201
f 59/7/202 60/8/202 56/9/202
f 56/10/203 60/11/203 61/12/203
f 57/7/204 61/8/204 62/9/204
f 63/10/205 64/11/205 60/12/205
f 64/10/206 65/11/206 61/12/206
f 61/7/207 65/8/207 66/9/207
f 67/10/208 68/11/208 64/12/208
f 68/10/209 69/11/209 65/12/209
f 65/7/210 69/8/210 70/9/210
f 71/10/211 72/11/211 68/12/211
f 68/10/212 72/11/212 73/12/212
f 69/7/213 73/8/213 74/9/213
f 71/7/214 46/8/214 47/9/214
f 72/10/215 47/11/215 48/12/215
f 48/7/216 49/8/216 74/9/216
f 81/7/217 82/8/217 77/9/217
f 82/10/218 83/11/218 78/12/218
f 83/7/219 84/8/219 79/9/219
f 85/7/220 86/8/220 82/9/220
f 86/10/221 87/11/221 83/12/221
f 83/7/222 87/8/222 88/9/222
f 85/7/223 89/8/223 90/9/223
f 90/10/224 91/11/224 87/12/224
f 87/10/225 91/11/225 92/12/225
f 93/7/226 94/8/226 90/9/226
f 94/10/227 95/11/227 91/12/227
f 91/7/228 95/8/228 96/9/228
f 97/10/229 98/11/229 94/12/229
f 94/10/230 98/11/230 99/12/230
f 99/7/231 100/8/231 96/9/231
f 101/10/232 102/11/232 98/12/232
f 98/10/233 102/11/233 103/12/233
f 103/7/234 104/8/234 100/9/234
f 76/10/235 77/11/235 102/12/235
f 102/10/236 77/11/236 78/12/236
f 103/7/237 78/8/237 79/9/237
f 111/10/238 112/11/238 107/12/238
f 112/10/239 113/11/239 108/12/239
f 108/10/240 113/11/240 114/12/240
f 115/10/241 116/11/241 112/12/241
f 116/10/242 117/11/242 113/12/242
f 113/10/243 117/11/243 118/12/243
f 115/10/244 119/11/244 120/12/244
f 120/10/245 121/11/245 117/12/245
f 121/10/246 122/11/246 118/12/246
f 123/10/247 124/11/247 120/12/247
f 120/10/248 124/11/248 125/12/248
f 121/10/249 125/11/249 126/12/249
f 123/10/250 127/11/250 128/12/250
f 124/10/251 128/11/251 129/12/251
f 129/10/252 130/11/252 126/12/252
f 131/10/253 132/11/253 128/12/253
f 132/10/254 133/11/254 129/12/254
f 129/10/255 133/11/255 134/12/255
f 135/7/256 136/8/256 132/9/256
f 132/10/257 136/11/257 137/12/257
f 133/10/258 137/11/258 138/12/258
f 139/10/259 140/11/259 136/12/259
f 136/10/260 140/11/260 141/12/260
f 137/10/261 141/11/261 142/12/261
f 106/10/262 107/11/262 140/12/262
f 140/10/263 107/11/263 108/12/263
f 108/10/264 109/11/264 142/12/264
