# Blender 5.0.1
# www.blender.org
mtllib rock_cluster.mtl
o rock_cluster
v -1.390458 0.000000 1.021906
v 1.548651 1.707353 3.065339
v -2.621180 1.774917 4.264505
v -5.173482 1.692579 1.115762
v -2.546975 2.076046 -1.427949
v 1.792848 1.649649 -1.002721
v -0.450208 4.526115 3.964177
v -4.609575 4.733951 3.006825
v -4.689086 4.916868 -0.969132
v -0.378500 4.607335 -1.715637
v 2.122946 4.776603 1.229555
v -1.379657 7.029123 1.091883
v -2.340745 1.225900 3.507854
v -1.997195 1.001104 2.568757
v -1.831896 0.507881 1.745374
v -0.782765 0.254083 1.571194
v 0.087296 0.800213 2.097163
v 0.998638 1.354725 2.605893
v 0.700998 1.594020 3.587657
v -0.486078 1.784450 3.755083
v -1.578178 1.667542 3.978305
v 1.859067 1.469346 0.044293
v 1.820086 1.842198 1.181386
v 1.694961 1.728229 2.023273
v -0.695329 0.235638 0.631703
v 0.214325 0.491597 0.136016
v 1.059755 0.947696 -0.609184
v -4.822748 1.003433 1.054528
v -3.626100 0.322467 1.215551
v -2.610548 0.315893 1.086786
v -3.679970 1.384004 3.714588
v -4.282673 1.510552 2.764901
v -4.907848 1.654126 1.852327
v -2.281162 1.413719 -0.819006
v -2.188866 0.686227 -0.425424
v -1.676425 0.428185 0.500765
v -4.989130 1.731568 0.369649
v -4.312366 1.683212 -0.451455
v -3.435448 1.885064 -1.074463
v -1.703371 1.670201 -1.636416
v -0.358096 1.322198 -1.938089
v 0.670985 1.552139 -1.240109
v 2.444201 4.205079 1.588918
v 2.599706 3.330933 2.186908
v 2.307518 2.404095 2.925083
v 2.110099 2.434469 -0.384651
v 2.499057 3.312273 0.146375
v 2.624814 4.099733 0.562452
v -0.749765 4.150390 4.561573
v -1.536931 3.282233 5.122787
v -2.266005 2.246877 4.791782
v 1.454823 2.472141 4.031451
v 0.981052 3.442995 4.033547
v 0.334379 4.036675 4.064401
v -4.992177 4.111832 2.606851
v -5.098493 3.219428 2.081421
v -5.427607 2.336022 1.649870
v -3.462626 2.358356 4.273539
v -3.711654 3.171594 3.820454
v -4.359776 4.020981 3.552235
v -4.630644 4.141564 -1.684662
v -3.920905 3.348015 -1.741577
v -3.079165 2.553332 -1.693577
v -5.620628 2.290205 0.546516
v -5.676811 3.233166 -0.071097
v -5.369435 4.157542 -0.572613
v 0.323445 4.167589 -2.092595
v 0.965896 3.232864 -1.999747
v 1.299781 2.321698 -1.465748
v -2.121414 2.615654 -1.978480
v -1.632098 3.258395 -2.272968
v -0.866931 4.185408 -2.327606
v 1.450268 4.650397 1.896701
v 1.047563 4.763999 2.743983
v 0.149603 4.649433 3.284575
v -1.407245 4.739209 3.822390
v -2.548263 4.509997 3.467838
v -3.458667 4.815009 3.151046
v -4.741194 4.955114 2.273473
v -4.689199 4.850808 1.081816
v -4.885482 5.049494 0.136132
v -3.769946 5.085675 -1.397950
v -2.406085 4.943050 -1.492559
v -1.300277 4.806324 -1.730021
v 0.352258 4.771495 -1.125308
v 1.238940 4.935313 -0.620663
v 2.009193 4.962591 0.369909
v -1.049703 6.505785 2.105423
v -0.986332 6.003888 2.878425
v -0.494723 5.183799 3.401934
v 1.373190 5.340042 1.187773
v 0.504195 5.757558 1.152196
v -0.453766 6.782528 1.112973
v -2.339162 6.614564 1.797927
v -3.146946 6.092666 2.243990
v -4.034264 5.483428 2.680850
v -2.347713 6.878226 0.395747
v -3.336494 5.949213 0.070664
v -3.998974 5.446928 -0.523419
v -1.111454 6.755041 0.098853
v -0.811152 6.023151 -0.648493
v -0.647893 5.143404 -1.219525
v 0.014133 6.230423 0.195489
v 1.040440 5.474250 0.348481
v 0.139901 5.504141 -0.514379
v -2.010879 6.057523 -0.117320
v -1.653561 5.272486 -0.951338
v -2.866202 5.486282 -0.550550
v -3.274537 6.306437 1.113713
v -4.100373 5.689360 0.685795
v -4.084524 5.615346 1.760734
v -1.998506 5.906141 2.465012
v -2.946301 5.243334 2.713371
v -1.672135 5.248073 3.122066
v -0.135313 6.036038 1.910943
v -0.010444 5.457170 2.685099
v 0.860048 5.336822 1.830068
v 2.009256 4.118425 -0.288000
v 1.866527 3.203477 -0.845915
v 1.341990 4.314771 -1.227205
v -1.945489 4.145139 -1.908932
v -2.591588 3.222554 -1.766747
v -3.383199 4.170671 -1.785845
v -5.404510 4.208734 0.712099
v -5.573574 3.311945 1.206351
v -5.195342 4.207871 1.671557
v -3.227150 3.991820 3.712350
v -2.852904 3.240169 4.491571
v -1.981161 4.215147 4.431570
v 1.160702 4.040410 3.335299
v 2.039683 3.415335 3.428934
v 1.732545 4.076035 2.453780
v -0.079392 3.150460 -2.655002
v 0.306158 2.231352 -1.981010
v -1.080393 2.125446 -2.691276
v -5.094347 3.091394 -1.196272
v -4.311793 2.294614 -1.217202
v -5.295683 2.152909 -0.452284
v -4.494138 3.270525 2.904359
v -4.649853 2.424662 2.303899
v -4.115257 2.345109 3.404488
v -0.148292 3.241658 4.624240
v -0.890607 2.506262 4.392506
v 0.349395 2.399292 4.259262
v 2.749042 3.354388 1.041630
v 2.315637 2.493124 1.640847
v 2.279740 2.523913 0.524985
v 0.122572 0.778869 -1.107275
v -1.016615 0.340005 -0.383681
v -1.335204 0.870417 -1.188015
v -3.120124 1.136861 -0.459199
v -2.825205 0.712478 0.401887
v -4.170616 0.902738 0.346583
v -4.360806 0.688400 2.132015
v -2.887699 0.441547 2.042887
v -3.422844 0.624737 3.022907
v 1.064788 0.952868 0.547831
v 0.936660 1.126294 1.524316
v 0.101797 0.523888 1.189652
v -1.315018 1.005219 3.473283
v -1.027001 0.688413 2.542475
v -0.120165 1.118861 3.124599
v 7.710491 2.075675 -1.298267
v 9.613401 2.790962 -0.046461
v 6.981872 2.934657 0.545269
v 5.613030 2.801933 -1.321180
v 6.996871 2.774242 -3.192547
v 9.470400 2.762407 -2.373854
v 8.346777 4.523689 0.622952
v 5.824277 4.453070 -0.084219
v 6.104403 4.259362 -2.262573
v 8.434143 4.448982 -3.175090
v 9.764389 4.312514 -1.317077
v 7.759256 5.457970 -1.269098
v 7.124679 2.588735 0.138884
v 7.398414 2.228874 -0.313987
v 7.497522 2.018276 -0.727196
v 8.116615 2.032819 -0.922680
v 8.673773 1.979683 -0.583922
v 9.233454 2.277020 -0.251780
v 9.007996 2.664047 0.377724
v 8.271952 2.572199 0.507946
v 7.665988 2.695292 0.541808
v 9.690184 2.735608 -1.895584
v 9.666340 2.638364 -1.198167
v 9.790339 2.710793 -0.554982
v 8.222776 2.096267 -1.650580
v 8.630430 2.366625 -1.896364
v 9.047701 2.599463 -2.231613
v 5.981373 2.562668 -1.196725
v 6.411823 2.195049 -1.240517
v 7.165315 2.093364 -1.250893
v 6.590273 2.797453 0.231857
v 6.094665 2.743029 -0.196453
v 5.814893 2.758337 -0.843269
v 7.063409 2.429164 -2.928857
v 7.296978 2.170159 -2.300066
v 7.551464 2.038315 -1.773157
v 5.596034 2.630077 -1.858627
v 5.968103 2.559711 -2.472479
v 6.509948 2.677034 -2.989134
v 7.666307 2.676733 -3.168967
v 8.274113 2.654751 -3.095657
v 8.958241 2.785413 -2.829146
v 9.965048 4.043286 -0.942257
v 9.991566 3.601809 -0.585966
v 9.819345 3.148996 -0.200845
v 9.911983 3.171329 -2.348271
v 9.958622 3.572814 -1.914687
v 9.807684 4.075756 -1.618637
v 8.033844 4.098594 0.695297
v 7.717226 3.664165 0.798799
v 7.304477 3.159655 0.776210
v 9.405510 3.195139 0.276795
v 9.066059 3.653581 0.439841
v 8.752028 4.092352 0.710684
v 5.504590 4.104452 -0.270628
v 5.454891 3.675605 -0.604541
v 5.437263 3.242450 -0.971005
v 6.667911 3.202447 0.714772
v 6.219338 3.707615 0.655887
v 5.991700 4.152517 0.367364
v 6.071294 4.102437 -2.740062
v 6.266657 3.665631 -3.087774
v 6.630753 3.199293 -3.220134
v 5.430040 3.176466 -1.609693
v 5.489825 3.653238 -1.961540
v 5.782820 3.977354 -2.084778
v 8.796106 4.080906 -3.313858
v 9.253990 3.552153 -3.231092
v 9.439714 3.054561 -2.833158
v 7.255569 3.103968 -3.494153
v 7.656711 3.641534 -3.572710
v 8.062159 4.143564 -3.512103
v 9.620543 4.445757 -0.801357
v 9.452236 4.685832 -0.039590
v 8.900705 4.664909 0.446444
v 7.697220 4.491518 0.642040
v 7.061069 4.609303 0.563070
v 6.441972 4.599484 0.263963
v 5.750239 4.550915 -0.624729
v 5.668169 4.533082 -1.275197
v 5.968506 4.442756 -1.899003
v 6.455233 4.410891 -2.755158
v 6.987604 4.635484 -3.102556
v 7.708715 4.670290 -3.276867
v 8.870781 4.545091 -2.873644
v 9.264490 4.513437 -2.395221
v 9.581903 4.441773 -1.811158
v 7.854734 5.536417 -0.772954
v 8.115334 5.486010 0.010862
v 8.282328 4.993935 0.522998
v 9.344568 4.723888 -1.271103
v 8.895573 5.158386 -1.304021
v 8.221725 5.329240 -1.267256
v 7.257913 5.381042 -0.974791
v 6.629861 5.256110 -0.527051
v 6.168521 4.867818 -0.281926
v 7.236860 5.344443 -1.593089
v 6.651430 5.036725 -1.953466
v 6.342804 4.675481 -2.138374
v 7.881639 5.310406 -1.774934
v 8.122326 5.129109 -2.391118
v 8.234482 4.953498 -2.889220
v 8.593580 5.098545 -1.833500
v 9.180189 4.847112 -1.805329
v 8.803173 4.945223 -2.444034
v 7.417259 5.245758 -2.188667
v 7.604321 5.014256 -2.804602
v 6.870162 4.986703 -2.495738
v 6.682152 5.120166 -1.244902
v 6.229723 4.749924 -1.631833
v 6.099757 4.905327 -0.911784
v 7.299226 5.383568 -0.218675
v 6.853886 4.942187 0.122929
v 7.587542 5.048532 0.297266
v 8.579397 5.487340 -0.696217
v 9.001455 5.156108 -0.010540
v 9.349957 5.041569 -0.649679
v 9.747744 4.034531 -2.199873
v 9.707783 3.604862 -2.678526
v 9.382412 4.125406 -2.814164
v 7.349643 4.111540 -3.397280
v 6.892523 3.579687 -3.395342
v 6.635187 4.181185 -3.163030
v 5.466310 4.052292 -1.577651
v 5.364180 3.694918 -1.259307
v 5.386261 4.164164 -0.841818
v 6.528462 4.186040 0.730196
v 6.999048 3.645061 0.927838
v 7.326513 4.090042 0.804799
v 9.414682 4.092737 0.327841
v 9.637838 3.669926 0.078638
v 9.726572 4.156284 -0.354505
v 8.426189 3.544278 -3.562306
v 8.760542 3.020427 -3.272697
v 8.102213 3.035638 -3.501023
v 5.824094 3.660093 -2.467337
v 5.948451 3.178529 -2.793555
v 5.589949 3.065317 -2.186900
v 5.725928 3.661780 0.065555
v 5.611268 3.140100 -0.363457
v 6.026014 3.132333 0.292018
v 8.374958 3.572873 0.677420
v 8.059504 3.200362 0.690295
v 8.746157 3.142314 0.520366
v 10.044367 3.659358 -1.272885
v 9.974337 3.061692 -0.845873
v 9.948582 3.183144 -1.557680
v 8.482771 2.427378 -2.512282
v 7.972267 2.248046 -2.202509
v 7.794267 2.355292 -2.731280
v 6.549347 2.251884 -2.398351
v 6.811893 1.992945 -1.894131
v 6.111053 2.256250 -1.812805
v 6.252280 2.473131 -0.697462
v 6.811812 2.215574 -0.790702
v 6.786518 2.578039 -0.257989
v 9.250763 2.361348 -1.659294
v 9.347057 2.326476 -0.877937
v 8.771196 2.088938 -1.189906
v 7.746782 2.239026 0.311225
v 8.009159 1.982129 -0.390077
v 8.572433 2.098164 0.161106
v -8.324140 2.844041 -3.629931
v -7.278415 3.304709 -3.003487
v -8.767941 3.252607 -2.556895
v -9.766129 3.192733 -3.622156
v -8.750016 3.224164 -4.862480
v -7.218922 3.323999 -4.376258
v -7.847260 4.387128 -2.426541
v -9.559933 4.341064 -2.919381
v -9.587889 4.373215 -4.436062
v -7.802227 4.396241 -4.937061
v -6.879512 4.313044 -3.651200
v -8.349182 5.054815 -3.621172
v -8.625099 3.089603 -2.782615
v -8.520288 2.927007 -3.090982
v -8.387970 2.836116 -3.403433
v -7.944423 2.927453 -3.482627
v -7.653634 3.054930 -3.253664
v -7.456309 3.172589 -3.109241
v -7.561542 3.217840 -2.772196
v -7.905466 3.227633 -2.644797
v -8.308350 3.274291 -2.525562
v -7.071317 3.235826 -4.049399
v -7.021264 3.236854 -3.695559
v -7.087689 3.301723 -3.259159
v -7.977272 2.905224 -3.959744
v -7.690753 2.990438 -4.045045
v -7.446223 3.072284 -4.234408
v -9.511696 3.065917 -3.621110
v -9.114430 2.883817 -3.639221
v -8.658989 2.824754 -3.654889
v -9.046488 3.280767 -2.779563
v -9.326799 3.194210 -2.988724
v -9.635204 3.237819 -3.372352
v -8.697283 3.025002 -4.579913
v -8.570656 2.898060 -4.285705
v -8.457205 2.826015 -3.949866
v -9.647795 3.224944 -4.003682
v -9.368431 3.184757 -4.347200
v -9.048944 3.243201 -4.595447
v -8.323494 3.241524 -4.864791
v -7.912233 3.160739 -4.723115
v -7.480085 3.188598 -4.529737
v -6.854585 4.051333 -3.432919
v -6.910947 3.745762 -3.210944
v -7.054621 3.483689 -3.075453
v -6.920046 3.461731 -4.279576
v -6.831063 3.770316 -4.073037
v -6.829969 4.125902 -3.901181
v -8.054996 4.060229 -2.262295
v -8.346403 3.758490 -2.211905
v -8.519367 3.450478 -2.320910
v -7.220334 3.489491 -2.763069
v -7.382264 3.787765 -2.513645
v -7.558167 4.105666 -2.478466
v -9.792082 4.077015 -2.986072
v -9.898930 3.802489 -3.203211
v -9.925882 3.481296 -3.419583
v -8.945213 3.527680 -2.519085
v -9.223294 3.756240 -2.543809
v -9.434525 4.051394 -2.654006
v -9.516476 4.081585 -4.680261
v -9.256823 3.773211 -4.887900
v -8.966525 3.521181 -4.928982
v -9.929317 3.430558 -3.863415
v -9.958014 3.801501 -4.108734
v -9.749922 4.117833 -4.365384
v -7.567553 4.055758 -4.953712
v -7.356383 3.810285 -4.827955
v -7.203891 3.463319 -4.593885
v -8.529169 3.506193 -4.996102
v -8.261623 3.773830 -5.110567
v -8.009529 4.075459 -5.122787
v -7.054941 4.394635 -3.307765
v -7.218183 4.404887 -2.960546
v -7.494787 4.361383 -2.685963
v -8.257544 4.383614 -2.359259
v -8.699013 4.452445 -2.497706
v -9.138233 4.452722 -2.667728
v -9.660423 4.439350 -3.200330
v -9.797607 4.509950 -3.650552
v -9.728188 4.442883 -4.103440
v -9.169375 4.483602 -4.714631
v -8.744940 4.519055 -4.992101
v -8.215450 4.502389 -5.018785
v -7.473611 4.451313 -4.689957
v -7.186422 4.488891 -4.349611
v -6.991513 4.419921 -3.999359
v -8.171640 5.011259 -3.292225
v -8.035895 4.802002 -2.969834
v -7.920002 4.578388 -2.612343
v -7.073338 4.580174 -3.664023
v -7.420393 4.842420 -3.703050
v -7.870805 5.034718 -3.667818
v -8.629789 5.006261 -3.442378
v -9.002335 4.852161 -3.262990
v -9.272153 4.597849 -3.061718
v -8.649509 5.077606 -3.936270
v -9.069842 4.901358 -4.098124
v -9.386105 4.647865 -4.307753
v -8.151033 5.117783 -4.077294
v -8.049814 4.977564 -4.488989
v -7.928962 4.758806 -4.815663
v -7.697939 4.955388 -4.105376
v -7.246647 4.737883 -4.095143
v -7.553623 4.765534 -4.454990
v -8.579048 4.988225 -4.321173
v -8.405171 4.827519 -4.707406
v -8.951333 4.781404 -4.530624
v -9.038784 4.868988 -3.660049
v -9.388812 4.788757 -3.920016
v -9.458257 4.679364 -3.397942
v -8.508188 4.862506 -3.024007
v -8.902290 4.709690 -2.861317
v -8.417784 4.739107 -2.630622
v -7.708914 4.848020 -3.303665
v -7.638997 4.636308 -2.950755
v -7.340438 4.648216 -3.344908
v -6.883444 4.153419 -4.227169
v -7.061299 3.778849 -4.515497
v -7.221030 4.163281 -4.661352
v -8.583588 4.134382 -5.102415
v -8.851856 3.744398 -5.029047
v -9.122707 4.121074 -4.943712
v -9.989317 4.131810 -3.922155
v -10.044367 3.771752 -3.623580
v -10.006121 4.117953 -3.379452
v -9.018641 4.097064 -2.432441
v -8.811163 3.742846 -2.348511
v -8.508467 4.132444 -2.258185
v -7.239924 4.092946 -2.732391
v -7.066034 3.777171 -2.943068
v -6.968193 4.101894 -3.129235
v -7.818055 3.738408 -4.991452
v -7.643479 3.491439 -4.780696
v -8.113375 3.421396 -4.943042
v -9.616112 3.787585 -4.563919
v -9.403790 3.429397 -4.604885
v -9.717897 3.427664 -4.245624
v -9.652611 3.823150 -2.857764
v -9.695190 3.486197 -3.033470
v -9.380556 3.420320 -2.710818
v -7.815143 3.781190 -2.304309
v -8.117071 3.416700 -2.354270
v -7.633070 3.461953 -2.465894
v -6.803416 3.761589 -3.620768
v -6.894681 3.493042 -3.468637
v -6.821283 3.499483 -3.899597
v -7.755949 3.010460 -4.410172
v -8.070901 2.928620 -4.199989
v -8.218784 3.052674 -4.520097
v -8.958719 3.012159 -4.358821
v -8.837719 2.873099 -3.973822
v -9.293079 3.021437 -4.046125
v -9.229201 3.051231 -3.325593
v -8.841787 2.886504 -3.339834
v -9.023820 3.048443 -2.973639
v -7.385931 3.068693 -3.860625
v -7.352000 3.098682 -3.499406
v -7.669935 2.992757 -3.626827
v -8.170811 3.061697 -2.838601
v -8.068882 2.981231 -3.085607
v -7.805741 3.067780 -2.883584
vn -0.1179 -0.8451 0.5214
vn 0.5066 -0.8605 0.0539
vn -0.1958 -0.8548 0.4806
vn -0.2383 -0.8105 -0.5351
vn -0.0738 -0.7900 -0.6086
vn 0.6822 -0.7267 0.0812
vn 0.0930 -0.7722 0.6285
vn -0.8035 -0.5347 0.2618
vn -0.1721 -0.6185 -0.7667
vn 0.2224 -0.4372 -0.8714
vn 0.6280 -0.5794 0.5196
vn -0.3743 -0.5513 0.7456
vn -0.8599 -0.4811 0.1704
vn -0.1844 -0.6269 -0.7570
vn 0.7821 0.1585 -0.6027
vn 0.5708 0.5555 0.6046
vn -0.1423 0.4846 0.8631
vn -0.5168 0.8343 -0.1919
vn 0.1646 0.7132 -0.6813
vn 0.5947 0.7984 0.0940
vn 0.2567 0.9472 -0.1921
vn 0.7308 0.6816 -0.0375
vn 0.4338 0.9006 -0.0280
vn 0.4241 0.8551 -0.2982
vn 0.3890 0.7315 -0.5600
vn 0.5801 0.8081 0.1022
vn 0.5472 0.6316 -0.5492
vn 0.4468 0.6637 -0.5999
vn 0.4032 0.5497 -0.7316
vn 0.4673 0.8830 -0.0441
vn 0.4410 0.8197 -0.3655
vn 0.3950 0.8349 -0.3834
vn 0.2749 0.6615 -0.6977
vn 0.3100 0.6603 -0.6841
vn 0.3267 0.7252 -0.6061
vn 0.0345 0.9657 -0.2572
vn -0.3038 0.6168 -0.7261
vn -0.1580 0.5168 -0.8414
vn -0.1605 0.4750 -0.8652
vn -0.1615 0.4746 -0.8652
vn -0.3003 0.6270 -0.7188
vn -0.1099 0.6998 -0.7058
vn -0.1539 0.7329 -0.6627
vn -0.0421 0.7856 -0.6173
vn -0.0303 0.8515 -0.5235
vn -0.0047 0.8571 -0.5152
vn -0.0147 0.8631 -0.5049
vn 0.0586 0.8769 -0.4771
vn -0.0413 0.9196 -0.3907
vn -0.3549 0.8276 -0.4348
vn -0.2761 0.9443 0.1792
vn -0.6292 0.7460 -0.2181
vn -0.4630 0.8608 -0.2114
vn -0.4185 0.8921 0.1703
vn -0.4436 0.8701 0.2146
vn -0.4898 0.8333 -0.2563
vn -0.6181 0.7835 0.0631
vn -0.5288 0.8211 0.2150
vn -0.5087 0.8479 0.1494
vn -0.5255 0.8246 -0.2094
vn -0.7171 0.6371 0.2827
vn -0.8054 0.5904 0.0525
vn -0.7404 0.6660 -0.0906
vn -0.6440 0.7515 0.1429
vn -0.6787 0.6606 0.3210
vn -0.0371 0.8830 0.4680
vn -0.0315 0.6771 0.7352
vn 0.0839 0.4971 0.8636
vn -0.1246 0.6478 0.7516
vn -0.2957 0.7900 0.5372
vn -0.0940 0.4644 0.8806
vn -0.2409 0.6233 0.7439
vn -0.3582 0.5647 0.7435
vn -0.1835 0.4484 0.8748
vn 0.1179 0.6372 0.7616
vn -0.0028 0.7163 0.6978
vn -0.2393 0.6301 0.7387
vn -0.3368 0.6966 0.6335
vn -0.1020 0.7860 0.6097
vn 0.0325 0.6507 0.7586
vn 0.2291 0.8933 0.3867
vn 0.4820 0.7524 0.4490
vn 0.4831 0.6582 0.5774
vn 0.4785 0.7284 0.4904
vn 0.6817 0.6500 0.3360
vn 0.5010 0.7299 0.4650
vn 0.5382 0.7143 0.4473
vn 0.5745 0.7956 0.1922
vn 0.3991 0.8581 0.3231
vn 0.5726 0.5587 0.5999
vn 0.3543 0.6016 0.7160
vn 0.4897 0.7805 0.3887
vn 0.7205 0.6444 0.2561
vn 0.6293 0.5902 0.5057
vn 0.4630 0.6600 0.5917
vn 0.8119 0.5835 0.0188
vn 0.7993 0.1760 -0.5746
vn 0.8447 -0.0520 -0.5327
vn 0.7425 0.4118 -0.5283
vn 0.7045 0.4363 -0.5598
vn 0.8154 0.2033 -0.5421
vn 0.8179 0.2011 -0.5390
vn 0.7402 0.5288 -0.4153
vn 0.2528 0.6974 -0.6706
vn 0.8011 -0.1002 -0.5900
vn 0.7853 -0.0726 -0.6148
vn 0.7800 0.1607 -0.6048
vn 0.5838 0.3275 -0.7429
vn 0.3169 0.8003 -0.5091
vn 0.2354 0.8213 -0.5197
vn 0.1704 0.7424 -0.6479
vn -0.3589 0.2431 -0.9012
vn -0.4645 -0.0514 -0.8841
vn -0.3242 0.5287 -0.7845
vn -0.1471 0.3895 -0.9092
vn -0.4636 0.1913 -0.8651
vn -0.0866 -0.0923 -0.9920
vn -0.0694 0.4297 -0.9003
vn -0.0242 0.3815 -0.9241
vn -0.2899 0.1072 -0.9510
vn -0.0273 -0.0890 -0.9957
vn -0.0226 -0.0390 -0.9990
vn -0.0808 -0.0008 -0.9967
vn -0.0838 0.3587 -0.9297
vn -0.4268 0.5957 -0.6804
vn -0.7801 0.5896 -0.2094
vn -0.9542 0.2967 -0.0379
vn -0.9967 -0.0064 0.0809
vn -0.8632 0.5030 -0.0436
vn -0.7175 0.6366 0.2827
vn -0.9735 0.2194 0.0651
vn -0.9353 0.2889 0.2042
vn -0.7029 0.6945 0.1539
vn -0.8194 0.5668 -0.0854
vn -0.9823 -0.0676 0.1747
vn -0.8714 0.0889 0.4825
vn -0.8678 0.1154 0.4833
vn -0.9774 -0.0081 0.2115
vn -0.9030 0.3609 0.2332
vn -0.8879 0.3715 0.2714
vn -0.1416 0.5697 0.8096
vn -0.1318 0.2057 0.9697
vn -0.6101 0.2348 0.7567
vn -0.1041 0.5401 0.8351
vn -0.1102 0.5386 0.8353
vn -0.5765 0.4320 0.6936
vn -0.4999 0.4909 0.7136
vn -0.4159 0.7718 0.4809
vn -0.3060 0.8450 0.4386
vn -0.3935 0.0450 0.9182
vn -0.4329 0.0167 0.9013
vn -0.4047 0.4121 0.8163
vn -0.0557 0.5772 0.8147
vn -0.0268 0.7701 0.6373
vn 0.0987 0.8193 0.5648
vn 0.4111 0.7616 0.5010
vn 0.5457 0.5622 0.6214
vn 0.4866 0.2356 0.8412
vn 0.4309 0.7563 0.4922
vn 0.3420 0.6261 0.7007
vn 0.3907 0.6474 0.6544
vn 0.5136 0.7768 0.3645
vn 0.7138 0.5067 0.4835
vn 0.7369 0.6211 0.2670
vn 0.7855 -0.0965 0.6113
vn 0.9119 0.0379 0.4086
vn 0.6741 0.6925 0.2569
vn 0.6231 0.5141 0.5894
vn 0.4783 0.7212 0.5012
vn 0.4744 0.6440 0.6002
vn 0.1365 0.7613 -0.6339
vn 0.4980 0.2601 -0.8272
vn 0.4591 -0.3179 -0.8295
vn 0.1818 0.4197 -0.8893
vn -0.2282 0.1315 -0.9647
vn 0.5165 -0.3548 -0.7793
vn 0.4415 -0.4028 -0.8018
vn -0.2157 0.2441 -0.9455
vn -0.5521 0.0387 -0.8329
vn 0.4221 -0.5551 -0.7167
vn 0.5683 -0.4478 -0.6903
vn 0.4464 -0.3647 -0.8171
vn -0.3218 -0.7853 -0.5289
vn -0.6374 -0.4954 -0.5902
vn -0.4172 -0.4666 -0.7799
vn -0.7562 0.4121 -0.5083
vn -0.3602 -0.2579 -0.8965
vn -0.2745 -0.3450 -0.8976
vn -0.8273 0.1090 -0.5512
vn -0.8850 0.0428 -0.4635
vn -0.3429 -0.3135 -0.8855
vn -0.4984 -0.4704 -0.7282
vn -0.8849 -0.1576 -0.4382
vn -0.9336 -0.2335 -0.2716
vn -0.1656 -0.6213 -0.7659
vn -0.2548 -0.7556 -0.6035
vn -0.3492 -0.7321 -0.5848
vn -0.4124 -0.8639 -0.2890
vn -0.6764 -0.7266 -0.1202
vn -0.6801 -0.7039 -0.2048
vn -0.8164 0.1422 0.5598
vn -0.7726 -0.2512 0.5830
vn -0.6279 -0.1401 0.7656
vn -0.8067 -0.2968 0.5111
vn -0.7256 -0.3706 0.5798
vn -0.7678 -0.2709 0.5807
vn -0.8949 -0.1368 0.4248
vn -0.7575 0.0420 0.6515
vn -0.7971 0.0887 0.5973
vn -0.6088 -0.2394 0.7564
vn -0.8276 -0.0505 0.5590
vn -0.8940 -0.1454 0.4238
vn -0.8370 -0.2170 0.5023
vn -0.7875 -0.1650 0.5939
vn -0.2873 -0.4276 0.8571
vn 0.3572 0.6994 0.6190
vn 0.3315 0.2815 0.9005
vn 0.3270 -0.4888 0.8088
vn 0.4214 0.3370 0.8419
vn 0.3785 0.3682 0.8492
vn 0.2731 -0.5288 0.8036
vn 0.0686 -0.3622 0.9296
vn 0.4749 -0.0983 0.8745
vn 0.1951 0.0931 0.9764
vn 0.3244 -0.6191 0.7152
vn 0.2226 -0.5723 0.7893
vn 0.0249 -0.6539 0.7562
vn 0.0060 -0.6389 0.7692
vn 0.2014 -0.5740 0.7937
vn 0.4488 -0.6789 0.5810
vn 0.8416 0.5319 0.0935
vn 0.9570 0.2592 0.1301
vn 0.9500 -0.3119 -0.0156
vn 0.9573 0.2513 0.1427
vn 0.9632 -0.0120 -0.2684
vn 0.9167 -0.3836 0.1117
vn 0.8807 -0.4719 -0.0414
vn 0.9016 -0.3635 -0.2346
vn 0.9340 -0.3280 -0.1419
vn 0.7661 -0.6415 -0.0396
vn 0.7840 -0.6199 0.0326
vn 0.8091 -0.5862 -0.0422
vn 0.8855 -0.4316 0.1719
vn 0.9400 -0.3089 -0.1449
vn 0.9487 -0.2961 -0.1110
vn 0.2122 -0.6370 -0.7410
vn 0.2922 -0.9268 -0.2357
vn 0.1864 -0.9696 -0.1586
vn 0.4791 -0.4674 -0.7430
vn 0.5583 -0.5085 -0.6555
vn 0.2159 -0.9477 -0.2349
vn -0.0225 -0.8387 -0.5441
vn -0.0231 -0.8428 -0.5378
vn -0.3175 -0.5707 -0.7573
vn -0.1871 -0.9815 -0.0417
vn -0.2778 -0.9541 -0.1121
vn -0.2348 -0.8516 -0.4686
vn -0.5376 -0.4530 -0.7112
vn -0.5636 -0.5859 -0.5823
vn -0.4687 -0.6924 -0.5485
vn -0.1297 -0.6988 -0.7035
vn -0.2042 -0.4857 -0.8499
vn -0.2261 -0.9635 -0.1433
vn -0.1032 -0.6574 -0.7465
vn -0.3152 -0.6785 -0.6635
vn -0.4088 -0.8663 -0.2870
vn -0.1113 -0.9060 -0.4084
vn -0.3267 -0.7041 -0.6305
vn -0.6297 -0.6084 -0.4831
vn -0.1777 -0.8747 -0.4508
vn -0.0670 -0.8724 -0.4842
vn -0.1000 -0.8553 -0.5084
vn -0.4440 -0.8484 -0.2883
vn -0.6266 -0.6051 -0.4911
vn -0.8740 -0.4236 -0.2381
vn -0.8450 -0.4550 0.2810
vn -0.4895 -0.8708 -0.0447
vn 0.0105 -0.9910 0.1333
vn -0.8717 -0.4212 0.2506
vn -0.8062 -0.3109 0.5034
vn -0.1437 -0.9534 0.2655
vn -0.1588 -0.9825 0.0970
vn -0.6365 -0.4316 0.6392
vn -0.7171 -0.5863 0.3770
vn 0.1067 -0.9813 0.1599
vn 0.2018 -0.8218 0.5328
vn 0.3417 -0.8724 0.3496
vn 0.3387 -0.8795 0.3344
vn 0.0363 -0.6662 0.7448
vn -0.0052 -0.8103 0.5860
vn 0.6323 -0.7558 -0.1701
vn 0.6368 -0.7259 0.2599
vn 0.6267 -0.7792 -0.0123
vn 0.5457 -0.8380 0.0014
vn 0.4761 -0.8794 0.0019
vn 0.6638 -0.7165 0.2144
vn 0.5133 -0.8308 0.2149
vn 0.4471 -0.8913 0.0751
vn 0.3012 -0.9516 0.0613
vn 0.5570 -0.8185 0.1409
vn 0.4462 -0.8805 0.1604
vn 0.4941 -0.8295 0.2605
vn 0.3868 -0.8804 0.2743
vn 0.3101 -0.9495 0.0475
vn 0.3460 -0.9369 0.0506
vn 0.0847 -0.7913 0.6055
vn -0.2026 -0.9665 0.1572
vn -0.2617 -0.8502 0.4568
vn -0.1096 -0.6299 0.7689
vn 0.2238 -0.5332 0.8159
vn -0.2933 -0.9291 0.2254
vn 0.1942 -0.9087 0.3694
vn 0.2791 -0.5750 0.7690
vn -0.0087 -0.6902 0.7236
vn -0.1602 -0.9155 0.3691
vn 0.2648 -0.8537 0.4484
vn 0.2238 -0.9172 0.3296
vn 0.3425 -0.8755 0.3407
vn 0.3343 -0.8873 0.3176
vn 0.3130 -0.8966 0.3134
vn -0.0093 -0.9946 -0.1034
vn 0.6861 -0.6431 0.3401
vn -0.0422 -0.9924 -0.1155
vn -0.0248 -0.9959 0.0867
vn 0.0763 -0.9957 0.0528
vn 0.8680 -0.3456 0.3565
vn -0.1907 -0.5566 0.8086
vn -0.7909 -0.5418 0.2846
vn -0.3089 -0.3241 -0.8942
vn 0.4172 -0.7539 -0.5074
vn 0.7411 -0.1434 0.6559
vn -0.1165 -0.6251 0.7718
vn -0.9125 -0.4056 0.0522
vn -0.4179 -0.4125 -0.8094
vn 0.6207 -0.6421 -0.4499
vn 0.2407 0.2333 0.9421
vn -0.4790 0.6687 0.5687
vn -0.6655 0.5362 -0.5192
vn 0.2792 0.5546 -0.7839
vn 0.6943 0.7163 -0.0691
vn 0.2629 0.9415 -0.2110
vn 0.2267 0.9449 -0.2361
vn 0.6964 0.7159 -0.0492
vn 0.2628 0.9415 -0.2110
vn 0.2677 0.9476 -0.1743
vn 0.3864 0.8657 -0.3182
vn 0.3960 0.9135 -0.0934
vn 0.2463 0.9566 -0.1557
vn 0.2304 0.9328 -0.2770
vn 0.7088 0.7032 -0.0559
vn 0.6786 0.6766 -0.2858
vn 0.6701 0.6830 -0.2906
vn 0.6274 0.6166 -0.4755
vn 0.4544 0.6864 -0.5678
vn 0.3808 0.5653 -0.7317
vn -0.0303 0.9575 -0.2867
vn 0.0879 0.9644 -0.2494
vn 0.0478 0.9454 -0.3225
vn 0.0065 0.9868 -0.1615
vn -0.3256 0.9119 -0.2497
vn 0.0592 0.9402 -0.3354
vn -0.2008 0.8953 -0.3975
vn -0.3177 0.9239 -0.2134
vn -0.6330 0.7048 -0.3203
vn -0.0012 0.8082 -0.5889
vn -0.1836 0.7748 -0.6049
vn -0.2497 0.8163 -0.5208
vn -0.5896 0.6443 -0.4870
vn -0.6508 0.6476 -0.3964
vn -0.7541 0.5425 -0.3702
vn -0.1812 0.9821 -0.0520
vn -0.4204 0.9030 -0.0881
vn -0.6683 0.6999 -0.2520
vn -0.3964 0.9172 -0.0408
vn -0.3256 0.9244 -0.1988
vn -0.5962 0.7999 -0.0684
vn -0.4639 0.8450 -0.2661
vn -0.4369 0.8774 -0.1980
vn -0.6040 0.7889 0.1129
vn -0.6209 0.7436 -0.2479
vn -0.5280 0.7667 -0.3652
vn -0.4902 0.8295 -0.2675
vn -0.6831 0.7273 0.0662
vn -0.6585 0.7435 0.1162
vn -0.6969 0.6829 0.2191
vn -0.2147 0.9702 -0.1121
vn -0.1902 0.9817 0.0071
vn -0.3825 0.7735 0.5054
vn -0.2553 0.9668 0.0107
vn -0.1554 0.9812 0.1148
vn -0.3803 0.7747 0.5052
vn -0.2552 0.7395 0.6229
vn -0.2679 0.7327 0.6255
vn -0.1777 0.6800 0.7113
vn -0.4086 0.7213 0.5592
vn -0.3311 0.6710 0.6634
vn -0.2588 0.7079 0.6572
vn -0.0084 0.5251 0.8510
vn -0.2374 0.4770 0.8462
vn 0.0183 0.2103 0.9775
vn 0.2635 0.9437 -0.1999
vn 0.0630 0.9971 0.0432
vn 0.2887 0.7357 0.6127
vn 0.0979 0.9417 -0.3220
vn 0.2078 0.9014 -0.3798
vn 0.3446 0.9107 0.2278
vn 0.4923 0.8629 0.1138
vn 0.4999 0.8435 -0.1965
vn 0.6658 0.6620 -0.3442
vn 0.3968 0.5803 0.7112
vn 0.5625 0.4984 0.6597
vn 0.7041 0.6585 0.2659
vn 0.9150 0.3959 0.0774
vn 0.8601 0.4512 -0.2381
vn 0.7005 0.7136 0.0110
vn 0.8776 0.4301 -0.2116
vn 0.9290 0.3498 -0.1206
vn 0.9310 0.2124 -0.2968
vn 0.8723 0.4731 -0.1235
vn 0.7289 0.6042 -0.3220
vn 0.9250 0.2411 -0.2936
vn 0.8133 0.3976 -0.4248
vn 0.7274 0.5933 -0.3448
vn 0.5976 0.6651 -0.4478
vn 0.7261 -0.1662 -0.6672
vn 0.7662 -0.2018 -0.6100
vn 0.7255 0.2910 -0.6236
vn 0.5799 0.3902 -0.7152
vn 0.5210 0.5417 -0.6596
vn 0.3528 0.6134 -0.7066
vn 0.2764 0.5404 -0.7947
vn -0.1650 0.2485 -0.9545
vn -0.2282 0.0280 -0.9732
vn -0.1648 0.3079 -0.9370
vn -0.2361 0.3473 -0.9075
vn -0.2369 0.2001 -0.9507
vn -0.2815 0.2385 -0.9294
vn -0.2655 0.3267 -0.9070
vn -0.6069 0.5475 -0.5761
vn -0.4147 -0.1294 -0.9007
vn -0.4498 -0.0993 -0.8876
vn -0.4163 0.1671 -0.8938
vn -0.5968 0.3191 -0.7362
vn -0.5232 0.6228 -0.5816
vn -0.6177 0.7588 -0.2065
vn -0.7090 0.4866 -0.5105
vn -0.7230 0.4564 -0.5187
vn -0.9844 -0.0063 -0.1758
vn -0.7069 0.4869 -0.5131
vn -0.7092 0.5639 -0.4231
vn -0.9764 0.1172 -0.1816
vn -0.9779 0.1627 -0.1311
vn -0.8678 0.4685 -0.1656
vn -0.7471 0.6603 0.0762
vn -0.9893 -0.1432 0.0260
vn -0.9881 -0.0738 0.1347
vn -0.9882 -0.0734 0.1347
vn -0.9792 -0.0411 0.1986
vn -0.7692 0.5993 0.2220
vn -0.7743 0.5956 0.2139
vn -0.4889 0.6317 0.6017
vn -0.5544 0.2342 0.7986
vn -0.3369 -0.1917 0.9218
vn -0.4668 0.6169 0.6336
vn -0.3295 0.6752 0.6599
vn -0.3242 0.0629 0.9439
vn -0.0527 0.3019 0.9519
vn -0.0365 0.4064 0.9130
vn -0.0383 0.4056 0.9133
vn -0.1136 -0.3607 0.9258
vn 0.1785 -0.1893 0.9656
vn 0.1713 0.1434 0.9747
vn 0.1503 0.1241 0.9808
vn 0.1450 0.2538 0.9563
vn 0.0215 0.1523 0.9881
vn 0.1956 0.3686 0.9088
vn 0.4927 -0.1737 0.8527
vn 0.5299 0.0925 0.8430
vn 0.4829 0.2605 0.8361
vn 0.5993 0.3938 0.6970
vn 0.5267 -0.2079 0.8243
vn 0.8803 0.2156 0.4225
vn 0.8826 0.2059 0.4226
vn 0.9011 0.4288 0.0640
vn 0.7482 -0.0919 0.6571
vn 0.8837 0.0588 0.4643
vn 0.8683 0.2320 0.4384
vn 0.9020 0.3026 0.3078
vn 0.7778 0.5954 0.2011
vn 0.7672 0.6396 0.0487
vn 0.2608 0.5544 -0.7903
vn 0.3645 0.1724 -0.9151
vn 0.5092 -0.4135 -0.7548
vn 0.2722 0.2434 -0.9310
vn 0.0260 0.0991 -0.9947
vn 0.3604 -0.2645 -0.8945
vn 0.3059 -0.3036 -0.9023
vn -0.0016 -0.1186 -0.9929
vn -0.0186 -0.1310 -0.9912
vn 0.4000 -0.7240 -0.5619
vn 0.3599 -0.7485 -0.5570
vn 0.2333 -0.6573 -0.7166
vn 0.0582 -0.7151 -0.6966
vn -0.0578 -0.6392 -0.7668
vn -0.0670 -0.6443 -0.7618
vn -0.7025 0.6891 -0.1777
vn -0.8107 0.0970 -0.5774
vn -0.5190 -0.1673 -0.8383
vn -0.8948 0.2915 -0.3383
vn -0.7341 0.4816 -0.4786
vn -0.8017 0.1793 -0.5702
vn -0.8646 0.1091 -0.4906
vn -0.8327 0.0688 -0.5494
vn -0.9648 -0.0668 -0.2544
vn -0.5082 -0.2473 -0.8249
vn -0.5914 -0.3861 -0.7079
vn -0.7963 -0.2983 -0.5262
vn -0.8171 -0.3543 -0.4547
vn -0.9555 -0.1860 -0.2289
vn -0.9279 -0.3456 0.1399
vn -0.7444 0.3946 0.5386
vn -0.9134 -0.1789 0.3657
vn -0.9548 -0.1685 0.2451
vn -0.7956 0.0601 0.6029
vn -0.7679 0.0222 0.6401
vn -0.9229 -0.1024 0.3712
vn -0.8207 -0.2443 0.5164
vn -0.7525 -0.1524 0.6408
vn -0.4905 -0.3421 0.8015
vn -0.7981 -0.5884 0.1295
vn -0.6652 -0.6957 0.2712
vn -0.6594 -0.6304 0.4097
vn -0.3857 -0.7472 0.5413
vn -0.3429 -0.6919 0.6354
vn -0.2642 -0.7176 0.6443
vn -0.0195 0.1817 0.9832
vn 0.1930 0.0920 0.9769
vn 0.1195 -0.1417 0.9827
vn -0.0218 -0.0481 0.9986
vn 0.3413 -0.3047 0.8892
vn 0.1661 -0.1068 0.9803
vn 0.2247 -0.1571 0.9617
vn 0.3306 -0.0585 0.9419
vn 0.3507 -0.0724 0.9337
vn 0.1247 -0.3680 0.9214
vn -0.0032 -0.2798 0.9601
vn 0.2190 -0.2030 0.9544
vn 0.1933 -0.1818 0.9642
vn 0.3513 -0.0857 0.9323
vn 0.5889 -0.2980 0.7513
vn 0.8950 0.4042 -0.1888
vn 0.9878 0.1294 0.0868
vn 0.9564 -0.1509 0.2502
vn 0.9135 0.3570 -0.1954
vn 0.9110 0.3748 -0.1722
vn 0.9953 -0.0659 0.0710
vn 0.9850 -0.1604 -0.0630
vn 0.9849 -0.1299 -0.1141
vn 0.9967 -0.0670 -0.0451
vn 0.9270 -0.2710 0.2594
vn 0.8432 -0.5276 -0.1031
vn 0.8474 -0.5175 -0.1190
vn 0.8772 -0.4787 -0.0368
vn 0.8762 -0.4807 -0.0334
vn 0.6502 -0.6810 -0.3369
vn 0.2445 -0.9149 -0.3213
vn 0.3666 -0.9132 -0.1780
vn 0.3352 -0.8584 -0.3882
vn 0.4201 -0.8467 -0.3264
vn 0.3317 -0.8328 -0.4432
vn 0.2437 -0.9577 -0.1529
vn 0.1801 -0.9504 -0.2534
vn 0.2264 -0.8774 -0.4230
vn 0.0434 -0.7991 -0.5996
vn 0.1395 -0.9368 -0.3209
vn 0.1529 -0.9388 -0.3087
vn 0.1458 -0.9589 -0.2436
vn 0.0105 -0.9232 -0.3842
vn 0.0837 -0.7913 -0.6056
vn -0.0616 -0.6135 -0.7873
vn -0.1943 -0.6190 -0.7610
vn -0.0539 -0.9302 -0.3631
vn 0.1057 -0.9514 -0.2891
vn -0.2923 -0.7854 -0.5457
vn -0.3416 -0.7735 -0.5339
vn -0.0403 -0.8972 -0.4398
vn -0.3659 -0.8914 -0.2673
vn -0.4152 -0.8573 -0.3044
vn -0.5551 -0.7948 -0.2453
vn 0.0390 -0.9903 0.1332
vn -0.1274 -0.9669 0.2210
vn -0.3424 -0.9361 0.0799
vn -0.6155 -0.7497 0.2433
vn -0.5822 -0.7702 0.2605
vn -0.5865 -0.7659 0.2635
vn -0.5767 -0.7990 0.1707
vn -0.6238 -0.7547 0.2032
vn -0.1298 -0.9785 0.1601
vn -0.5774 -0.7985 0.1701
vn -0.5846 -0.7767 0.2345
vn -0.3442 -0.8729 0.3459
vn -0.2797 -0.7999 0.5310
vn -0.1742 -0.8888 0.4240
vn -0.1899 -0.9222 0.3370
vn -0.2797 -0.9593 0.0399
vn -0.2881 -0.8794 0.3791
vn -0.3926 -0.7689 0.5046
vn -0.4297 -0.8153 0.3881
vn -0.3054 -0.9087 0.2847
vn -0.2014 -0.7797 0.5929
vn 0.2972 -0.9359 -0.1890
vn 0.6181 -0.7812 -0.0878
vn 0.6736 -0.7376 -0.0468
vn 0.4116 -0.7804 -0.4707
vn 0.1552 -0.8914 -0.4259
vn 0.6344 -0.7648 -0.1123
vn 0.4220 -0.9019 -0.0923
vn 0.1399 -0.9117 -0.3862
vn 0.3257 -0.8560 -0.4014
vn 0.6316 -0.7735 0.0535
vn 0.4627 -0.8864 0.0139
vn 0.4229 -0.9012 -0.0945
vn 0.0128 -0.9844 -0.1754
vn 0.0531 -0.9955 -0.0790
vn -0.0219 -0.9957 -0.0900
vn -0.2693 -0.7780 0.5676
vn -0.5296 -0.7904 0.3079
vn -0.3073 -0.8756 0.3726
vn -0.4687 -0.4631 0.7522
vn -0.0431 -0.4567 0.8886
vn -0.3443 -0.9158 0.2067
vn -0.1056 -0.9458 0.3070
vn 0.0525 -0.5678 0.8215
vn 0.2107 -0.4867 0.8478
vn -0.0070 -0.9953 -0.0961
vn -0.0332 -0.9943 -0.1013
vn 0.0438 -0.9857 0.1627
vn 0.3676 -0.9094 0.1946
vn 0.5279 -0.6260 0.5740
vn 0.5324 -0.6227 0.5735
vn 0.2057 -0.9783 0.0237
vn 0.4287 -0.8411 0.3296
vn 0.0589 -0.9981 -0.0183
vn 0.0550 -0.9979 0.0334
vn 0.1626 -0.9866 -0.0120
vn 0.6365 -0.6022 0.4819
vn -0.0082 -0.7620 0.6475
vn -0.6173 -0.6514 0.4411
vn -0.5741 -0.5536 -0.6032
vn 0.5966 -0.6940 -0.4030
vn 0.6507 -0.6698 0.3576
vn -0.4454 -0.3973 0.8023
vn -0.8527 -0.5183 0.0658
vn -0.1544 -0.3217 -0.9342
vn 0.4896 -0.7493 -0.4459
vn 0.4538 0.7037 0.5467
vn -0.4662 0.7669 0.4410
vn -0.6358 0.6566 -0.4057
vn 0.2741 0.3901 -0.8790
vn 0.8086 0.5828 -0.0812
vn 0.0571 0.9853 0.1608
vn 0.3918 0.9200 -0.0120
vn 0.5983 0.7996 0.0520
vn 0.3350 0.9414 -0.0383
vn 0.3149 0.9194 -0.2357
vn 0.4345 0.8994 -0.0472
vn 0.4205 0.8588 -0.2927
vn 0.3915 0.8667 -0.3090
vn 0.3817 0.8271 -0.4126
vn 0.7903 0.6051 -0.0963
vn 0.7821 0.5278 -0.3313
vn 0.6126 0.6326 -0.4740
vn 0.5939 0.5733 -0.5644
vn 0.5572 0.5836 -0.5907
vn 0.4968 0.4267 -0.7557
vn -0.0470 0.9921 0.1165
vn -0.0892 0.9359 -0.3407
vn -0.0072 0.8296 -0.5582
vn -0.1477 0.9571 -0.2493
vn -0.2839 0.9212 -0.2659
vn -0.1170 0.8971 -0.4260
vn -0.2209 0.8612 -0.4578
vn -0.3086 0.8915 -0.3318
vn -0.4341 0.8304 -0.3493
vn -0.0721 0.6676 -0.7410
vn -0.0150 0.6870 -0.7265
vn -0.2481 0.7903 -0.5602
vn -0.4390 0.6825 -0.5843
vn -0.4870 0.6886 -0.5374
vn -0.5335 0.6466 -0.5452
vn -0.0779 0.9863 0.1456
vn -0.4162 0.9042 0.0963
vn -0.4641 0.8315 -0.3054
vn -0.3842 0.9115 0.1470
vn -0.3515 0.9334 0.0718
vn -0.2861 0.9539 0.0908
vn -0.3267 0.9328 0.1520
vn -0.3724 0.9252 0.0734
vn -0.4285 0.7948 0.4298
vn -0.6096 0.7437 -0.2745
vn -0.6409 0.7390 -0.2077
vn -0.5089 0.8536 0.1112
vn -0.5947 0.7465 0.2983
vn -0.4700 0.7623 0.4450
vn -0.4692 0.7677 0.4364
vn -0.0649 0.9841 0.1653
vn -0.1977 0.9080 0.3694
vn -0.4557 0.7971 0.3962
vn -0.1265 0.9263 0.3550
vn 0.0477 0.8469 0.5296
vn -0.1985 0.9071 0.3712
vn -0.2161 0.9163 0.3371
vn 0.0905 0.9560 0.2791
vn 0.2593 0.8544 0.4504
vn -0.4702 0.7643 0.4414
vn -0.2506 0.7187 0.6486
vn -0.3561 0.6573 0.6641
vn -0.1714 0.5478 0.8189
vn 0.1817 0.6471 0.7404
vn 0.1074 0.7135 0.6924
vn 0.0518 0.9933 0.1035
vn 0.3109 0.8517 0.4219
vn 0.3323 0.8443 0.4204
vn 0.3227 0.8928 0.3143
vn 0.3957 0.8767 0.2736
vn 0.3285 0.8372 0.4372
vn 0.4732 0.7937 0.3824
vn 0.4779 0.8125 0.3339
vn 0.5540 0.7774 0.2979
vn 0.4599 0.7292 0.5067
vn 0.4164 0.7345 0.5358
vn 0.4545 0.8108 0.3688
vn 0.6197 0.7371 0.2696
vn 0.5975 0.7234 0.3459
vn 0.7757 0.5753 0.2596
vn 0.8868 0.4367 -0.1512
vn 0.9852 0.0721 -0.1555
vn 0.8863 0.0524 -0.4602
vn 0.8861 0.4510 -0.1073
vn 0.7591 0.5726 -0.3097
vn 0.8847 -0.0648 -0.4616
vn 0.7869 0.0956 -0.6096
vn 0.7120 0.4447 -0.5435
vn 0.6349 0.4981 -0.5907
vn 0.7314 -0.1662 -0.6614
vn 0.7111 -0.1508 -0.6867
vn 0.7285 0.0433 -0.6837
vn 0.6152 0.1310 -0.7774
vn 0.5232 0.3833 -0.7611
vn 0.5109 0.3896 -0.7663
vn 0.2671 0.3478 -0.8987
vn -0.0365 -0.0100 -0.9993
vn -0.1168 -0.2896 -0.9500
vn -0.0107 0.2318 -0.9727
vn -0.0404 0.2597 -0.9648
vn -0.1315 -0.0952 -0.9867
vn -0.2827 0.0140 -0.9591
vn -0.2825 0.1531 -0.9470
vn -0.5236 0.4059 -0.7491
vn -0.1541 -0.3372 -0.9287
vn -0.3347 -0.2369 -0.9120
vn -0.3305 -0.0239 -0.9435
vn -0.5599 0.0836 -0.8243
vn -0.5370 0.4001 -0.7426
vn -0.5754 0.4377 -0.6909
vn -0.8126 0.3977 -0.4261
vn -0.8623 0.1846 -0.4716
vn -0.9633 -0.1959 -0.1835
vn -0.7968 0.4105 -0.4433
vn -0.8053 0.5561 -0.2058
vn -0.9846 0.0055 -0.1749
vn -0.9913 0.1288 -0.0274
vn -0.8872 0.4611 -0.0157
vn -0.7287 0.6070 0.3172
vn -0.9360 -0.3487 0.0471
vn -0.9315 -0.1461 0.3330
vn -0.9338 -0.1314 0.3327
vn -0.8794 -0.0334 0.4750
vn -0.7222 0.5272 0.4478
vn -0.7257 0.5260 0.4436
vn -0.5441 0.4264 0.7226
vn -0.4696 -0.0065 0.8828
vn -0.4029 -0.4012 0.8227
vn -0.4679 0.3728 0.8013
vn -0.3232 0.4441 0.8356
vn -0.4289 -0.0374 0.9026
vn -0.3251 0.0335 0.9451
vn -0.3174 0.4398 0.8401
vn -0.1815 0.5177 0.8361
vn -0.4463 -0.3684 0.8155
vn -0.2717 -0.1819 0.9450
vn -0.2819 -0.0034 0.9594
vn 0.0306 0.1358 0.9903
vn 0.0597 0.3208 0.9453
vn 0.1474 0.3677 0.9182
vn 0.5535 0.4378 0.7085
vn 0.6094 0.2541 0.7510
vn 0.8031 -0.0598 0.5929
vn 0.5749 0.4249 0.6992
vn 0.5935 0.4478 0.6688
vn 0.8048 0.0486 0.5915
vn 0.8219 0.0760 0.5645
vn 0.7728 0.3387 0.5368
vn 0.8075 0.4625 0.3660
vn 0.8683 -0.1755 0.4639
vn 0.8383 -0.1967 0.5084
vn 0.8664 0.0249 0.4987
vn 0.9380 0.0731 0.3388
vn 0.8725 0.4154 0.2572
vn 0.8590 0.3737 0.3500
vn 0.3534 0.2871 -0.8903
vn 0.3523 -0.1686 -0.9206
vn 0.3313 -0.4233 -0.8433
vn 0.3461 -0.1634 -0.9239
vn 0.2346 -0.2343 -0.9434
vn 0.3597 -0.4454 -0.8199
vn 0.3507 -0.4520 -0.8202
vn 0.2180 -0.3427 -0.9138
vn 0.0305 -0.4186 -0.9076
vn 0.3111 -0.5013 -0.8074
vn 0.3880 -0.4549 -0.8016
vn 0.3514 -0.4304 -0.8314
vn 0.1716 -0.5546 -0.8142
vn 0.0284 -0.4265 -0.9041
vn 0.0129 -0.4364 -0.8997
vn -0.7462 0.3104 -0.5889
vn -0.6697 -0.0658 -0.7397
vn -0.4790 -0.4267 -0.7671
vn -0.8009 0.0349 -0.5978
vn -0.7984 0.0377 -0.6009
vn -0.6450 -0.3021 -0.7019
vn -0.7051 -0.3473 -0.6182
vn -0.7703 -0.2861 -0.5699
vn -0.8174 -0.3604 -0.4494
vn -0.3393 -0.6797 -0.6503
vn -0.3521 -0.7024 -0.6185
vn -0.5852 -0.6267 -0.5146
vn -0.5982 -0.6910 -0.4057
vn -0.6606 -0.6586 -0.3604
vn -0.6509 -0.7125 -0.2620
vn -0.6184 0.3683 0.6942
vn -0.8012 -0.1470 0.5801
vn -0.8262 -0.2655 0.4970
vn -0.6806 -0.0037 0.7326
vn -0.5985 -0.1334 0.7900
vn -0.7919 -0.2006 0.5767
vn -0.7184 -0.2481 0.6499
vn -0.5980 -0.1145 0.7933
vn -0.3230 -0.2957 0.8990
vn -0.6287 -0.6761 0.3842
vn -0.5982 -0.6931 0.4021
vn -0.5906 -0.6781 0.4375
vn -0.2029 -0.7784 0.5941
vn -0.1423 -0.6902 0.7095
vn -0.5807 -0.4660 0.6675
vn 0.3728 0.2164 0.9023
vn 0.1714 -0.0010 0.9852
vn 0.0474 -0.3568 0.9330
vn 0.3774 0.1878 0.9068
vn 0.4294 0.1389 0.8924
vn 0.1761 -0.2754 0.9450
vn 0.2413 -0.3252 0.9143
vn 0.4289 -0.2011 0.8807
vn 0.5667 -0.3253 0.7570
vn -0.0105 -0.7631 0.6462
vn 0.0791 -0.8082 0.5836
vn 0.2163 -0.7388 0.6383
vn 0.2156 -0.7385 0.6389
vn 0.4825 -0.6266 0.6120
vn 0.5596 -0.7169 0.4158
vn 0.9845 0.1579 0.0769
vn 0.9672 0.0061 0.2540
vn 0.8853 -0.3029 0.3529
vn 0.9892 0.1278 0.0723
vn 0.9978 0.0262 -0.0605
vn 0.9521 -0.1861 0.2426
vn 0.9587 -0.2353 0.1598
vn 0.9981 -0.0031 -0.0611
vn 0.9639 -0.1181 -0.2388
vn 0.8195 -0.4741 0.3221
vn 0.7925 -0.5740 0.2060
vn 0.8359 -0.5321 0.1344
vn 0.7506 -0.6525 -0.1043
vn 0.7557 -0.6413 -0.1327
vn 0.4887 -0.7614 -0.4261
vn 0.5860 -0.7288 -0.3542
vn 0.2475 -0.9640 -0.0971
vn 0.2299 -0.9559 -0.1827
vn 0.3820 -0.8441 -0.3762
vn 0.2876 -0.7994 -0.5275
vn 0.1949 -0.9768 -0.0884
vn 0.0009 -0.9323 -0.3617
vn 0.0232 -0.8966 -0.4422
vn -0.0075 -0.8779 -0.4787
vn 0.1577 -0.9750 -0.1564
vn 0.1004 -0.9653 -0.2410
vn 0.1253 -0.9042 -0.4083
vn 0.1058 -0.8957 -0.4320
vn 0.1125 -0.8566 -0.5035
vn 0.0300 -0.8144 -0.5796
vn -0.4550 -0.7656 -0.4547
vn -0.2146 -0.9270 -0.3076
vn -0.1102 -0.9788 -0.1727
vn -0.4248 -0.7234 -0.5443
vn -0.3267 -0.7355 -0.5936
vn -0.2250 -0.9369 -0.2677
vn -0.2630 -0.9309 -0.2536
vn -0.3696 -0.8524 -0.3699
vn -0.5006 -0.8073 -0.3126
vn -0.1171 -0.9895 -0.0844
vn -0.1308 -0.9884 -0.0765
vn -0.2752 -0.9409 -0.1974
vn -0.4182 -0.9003 -0.1209
vn -0.5056 -0.8455 -0.1716
vn -0.4355 -0.8756 -0.2090
vn -0.4160 -0.8315 0.3681
vn -0.3823 -0.8660 0.3224
vn -0.1235 -0.9849 0.1214
vn -0.4233 -0.8299 0.3634
vn -0.4280 -0.8699 0.2452
vn -0.3584 -0.8717 0.3342
vn -0.3758 -0.9021 0.2121
vn -0.4303 -0.8690 0.2442
vn -0.3350 -0.6231 0.7068
vn -0.0897 -0.9859 0.1412
vn -0.0721 -0.9655 0.2503
vn -0.1452 -0.9296 0.3389
vn -0.1149 -0.8943 0.4325
vn -0.2811 -0.6313 0.7228
vn -0.3816 -0.8470 0.3702
vn 0.5318 -0.7260 -0.4360
vn 0.4402 -0.8959 -0.0597
vn 0.4762 -0.8563 0.1998
vn 0.4308 -0.8991 -0.0781
vn 0.2789 -0.9588 -0.0542
vn 0.4043 -0.9139 0.0379
vn 0.2971 -0.9535 0.0512
vn 0.2527 -0.9675 -0.0072
vn 0.2827 -0.9592 -0.0088
vn 0.4156 -0.8669 0.2753
vn 0.3449 -0.9011 0.2629
vn 0.2588 -0.9546 0.1477
vn 0.3000 -0.9430 0.1440
vn 0.2454 -0.9690 0.0283
vn 0.2027 -0.9787 0.0316
vn -0.0016 -0.8112 0.5848
vn 0.0033 -0.8841 0.4673
vn 0.1092 -0.9411 0.3200
vn 0.0194 -0.8231 0.5675
vn 0.1077 -0.9313 0.3479
vn 0.0564 -0.9422 0.3302
vn 0.0848 -0.8113 0.5785
vn 0.2008 -0.7732 0.6015
vn 0.2320 -0.9516 0.2016
vn 0.2515 -0.9455 0.2069
vn 0.2222 -0.9670 0.1249
vn 0.3943 -0.8984 0.1932
vn 0.4222 -0.8717 0.2488
vn 0.4712 -0.8428 0.2603
vt 0.087500 0.357143
vt 0.050000 0.381886
vt 0.050000 0.332399
vt 0.212500 0.357143
vt 0.175000 0.381886
vt 0.175000 0.332399
vt 0.962500 0.500000
vt 0.925000 0.524744
vt 0.925000 0.475256
vt 0.462500 0.500000
vt 0.425000 0.524744
vt 0.425000 0.475256
s 0
usemtl Palette
f 1/1/1 16/2/1 15/3/1
f 2/1/2 18/2/2 24/3/2
f 1/1/3 15/2/3 30/3/3
f 1/1/4 30/2/4 36/3/4
f 1/1/5 36/2/5 25/3/5
f 2/1/6 24/2/6 45/3/6
f 3/1/7 21/2/7 51/3/7
f 4/1/8 33/2/8 57/3/8
f 5/1/9 39/2/9 63/3/9
f 6/1/10 42/2/10 69/3/10
f 2/1/11 45/2/11 52/3/11
f 3/1/12 51/2/12 58/3/12
f 4/1/13 57/2/13 64/3/13
f 5/1/14 63/2/14 70/3/14
f 6/4/15 69/5/15 46/6/15
f 7/7/16 75/8/16 90/9/16
f 8/7/17 78/8/17 96/9/17
f 9/10/18 81/11/18 99/12/18
f 10/10/19 84/11/19 102/12/19
f 11/10/20 87/11/20 91/12/20
f 93/10/21 100/11/21 12/12/21
f 92/10/22 103/11/22 93/12/22
f 91/10/23 104/11/23 92/12/23
f 93/10/24 103/11/24 100/12/24
f 103/10/25 101/11/25 100/12/25
f 92/10/26 104/11/26 103/12/26
f 104/10/27 105/11/27 103/12/27
f 103/10/28 105/11/28 101/12/28
f 105/7/29 102/8/29 101/9/29
f 91/10/30 87/11/30 104/12/30
f 87/10/31 86/11/31 104/12/31
f 104/10/32 86/11/32 105/12/32
f 86/10/33 85/11/33 105/12/33
f 105/10/34 85/11/34 102/12/34
f 85/10/35 10/11/35 102/12/35
f 100/10/36 97/11/36 12/12/36
f 101/7/37 106/8/37 100/9/37
f 102/7/38 107/8/38 101/9/38
f 100/7/39 106/8/39 97/9/39
f 106/7/40 98/8/40 97/9/40
f 101/10/41 107/11/41 106/12/41
f 107/10/42 108/11/42 106/12/42
f 106/10/43 108/11/43 98/12/43
f 108/10/44 99/11/44 98/12/44
f 102/10/45 84/11/45 107/12/45
f 84/10/46 83/11/46 107/12/46
f 107/10/47 83/11/47 108/12/47
f 83/10/48 82/11/48 108/12/48
f 108/10/49 82/11/49 99/12/49
f 82/10/50 9/11/50 99/12/50
f 97/10/51 94/11/51 12/12/51
f 98/10/52 109/11/52 97/12/52
f 99/10/53 110/11/53 98/12/53
f 97/10/54 109/11/54 94/12/54
f 109/10/55 95/11/55 94/12/55
f 98/10/56 110/11/56 109/12/56
f 110/10/57 111/11/57 109/12/57
f 109/10/58 111/11/58 95/12/58
f 111/10/59 96/11/59 95/12/59
f 99/10/60 81/11/60 110/12/60
f 81/10/61 80/11/61 110/12/61
f 110/7/62 80/8/62 111/9/62
f 80/10/63 79/11/63 111/12/63
f 111/10/64 79/11/64 96/12/64
f 79/10/65 8/11/65 96/12/65
f 94/10/66 88/11/66 12/12/66
f 95/10/67 112/11/67 94/12/67
f 96/7/68 113/8/68 95/9/68
f 94/10/69 112/11/69 88/12/69
f 112/10/70 89/11/70 88/12/70
f 95/7/71 113/8/71 112/9/71
f 113/10/72 114/11/72 112/12/72
f 112/7/73 114/8/73 89/9/73
f 114/4/74 90/5/74 89/6/74
f 96/10/75 78/11/75 113/12/75
f 78/10/76 77/11/76 113/12/76
f 113/10/77 77/11/77 114/12/77
f 77/10/78 76/11/78 114/12/78
f 114/10/79 76/11/79 90/12/79
f 76/10/80 7/11/80 90/12/80
f 88/10/81 93/11/81 12/12/81
f 89/10/82 115/11/82 88/12/82
f 90/10/83 116/11/83 89/12/83
f 88/10/84 115/11/84 93/12/84
f 115/10/85 92/11/85 93/12/85
f 89/10/86 116/11/86 115/12/86
f 116/10/87 117/11/87 115/12/87
f 115/10/88 117/11/88 92/12/88
f 117/10/89 91/11/89 92/12/89
f 90/7/90 75/8/90 116/9/90
f 75/7/91 74/8/91 116/9/91
f 116/10/92 74/11/92 117/12/92
f 74/10/93 73/11/93 117/12/93
f 117/7/94 73/8/94 91/9/94
f 73/10/95 11/11/95 91/12/95
f 48/7/96 87/8/96 11/9/96
f 47/4/97 118/5/97 48/6/97
f 46/7/98 119/8/98 47/9/98
f 48/4/99 118/5/99 87/6/99
f 118/4/100 86/5/100 87/6/100
f 47/4/101 119/5/101 118/6/101
f 119/4/102 120/5/102 118/6/102
f 118/7/103 120/8/103 86/9/103
f 120/10/104 85/11/104 86/12/104
f 46/1/105 69/2/105 119/3/105
f 69/7/106 68/8/106 119/9/106
f 119/4/107 68/5/107 120/6/107
f 68/4/108 67/5/108 120/6/108
f 120/10/109 67/11/109 85/12/109
f 67/10/110 10/11/110 85/12/110
f 72/10/111 84/11/111 10/12/111
f 71/4/112 121/5/112 72/6/112
f 70/7/113 122/8/113 71/9/113
f 72/7/114 121/8/114 84/9/114
f 121/4/115 83/5/115 84/6/115
f 71/4/116 122/5/116 121/6/116
f 122/7/117 123/8/117 121/9/117
f 121/4/118 123/5/118 83/6/118
f 123/4/119 82/5/119 83/6/119
f 70/4/120 63/5/120 122/6/120
f 63/7/121 62/8/121 122/9/121
f 122/7/122 62/8/122 123/9/122
f 62/7/123 61/8/123 123/9/123
f 123/4/124 61/5/124 82/6/124
f 61/7/125 9/8/125 82/9/125
f 66/7/126 81/8/126 9/9/126
f 65/4/127 124/5/127 66/6/127
f 64/7/128 125/8/128 65/9/128
f 66/7/129 124/8/129 81/9/129
f 124/10/130 80/11/130 81/12/130
f 65/4/131 125/5/131 124/6/131
f 125/4/132 126/5/132 124/6/132
f 124/10/133 126/11/133 80/12/133
f 126/7/134 79/8/134 80/9/134
f 64/7/135 57/8/135 125/9/135
f 57/7/136 56/8/136 125/9/136
f 125/4/137 56/5/137 126/6/137
f 56/7/138 55/8/138 126/9/138
f 126/4/139 55/5/139 79/6/139
f 55/4/140 8/5/140 79/6/140
f 60/7/141 78/8/141 8/9/141
f 59/4/142 127/5/142 60/6/142
f 58/4/143 128/5/143 59/6/143
f 60/7/144 127/8/144 78/9/144
f 127/7/145 77/8/145 78/9/145
f 59/4/146 128/5/146 127/6/146
f 128/7/147 129/8/147 127/9/147
f 127/10/148 129/11/148 77/12/148
f 129/10/149 76/11/149 77/12/149
f 58/7/150 51/8/150 128/9/150
f 51/7/151 50/8/151 128/9/151
f 128/4/152 50/5/152 129/6/152
f 50/7/153 49/8/153 129/9/153
f 129/10/154 49/11/154 76/12/154
f 49/10/155 7/11/155 76/12/155
f 54/10/156 75/11/156 7/12/156
f 53/7/157 130/8/157 54/9/157
f 52/4/158 131/5/158 53/6/158
f 54/10/159 130/11/159 75/12/159
f 130/10/160 74/11/160 75/12/160
f 53/10/161 131/11/161 130/12/161
f 131/10/162 132/11/162 130/12/162
f 130/7/163 132/8/163 74/9/163
f 132/10/164 73/11/164 74/12/164
f 52/7/165 45/8/165 131/9/165
f 45/7/166 44/8/166 131/9/166
f 131/10/167 44/11/167 132/12/167
f 44/7/168 43/8/168 132/9/168
f 132/10/169 43/11/169 73/12/169
f 43/10/170 11/11/170 73/12/170
f 67/10/171 72/11/171 10/12/171
f 68/4/172 133/5/172 67/6/172
f 69/1/173 134/2/173 68/3/173
f 67/4/174 133/5/174 72/6/174
f 133/4/175 71/5/175 72/6/175
f 68/1/176 134/2/176 133/3/176
f 134/1/177 135/2/177 133/3/177
f 133/4/178 135/5/178 71/6/178
f 135/7/179 70/8/179 71/9/179
f 69/1/180 42/2/180 134/3/180
f 42/1/181 41/2/181 134/3/181
f 134/1/182 41/2/182 135/3/182
f 41/1/183 40/2/183 135/3/183
f 135/1/184 40/2/184 70/3/184
f 40/1/185 5/2/185 70/3/185
f 61/4/186 66/5/186 9/6/186
f 62/1/187 136/2/187 61/3/187
f 63/1/188 137/2/188 62/3/188
f 61/4/189 136/5/189 66/6/189
f 136/7/190 65/8/190 66/9/190
f 62/1/191 137/2/191 136/3/191
f 137/1/192 138/2/192 136/3/192
f 136/1/193 138/2/193 65/3/193
f 138/1/194 64/2/194 65/3/194
f 63/1/195 39/2/195 137/3/195
f 39/1/196 38/2/196 137/3/196
f 137/1/197 38/2/197 138/3/197
f 38/1/198 37/2/198 138/3/198
f 138/1/199 37/2/199 64/3/199
f 37/1/200 4/2/200 64/3/200
f 55/4/201 60/5/201 8/6/201
f 56/1/202 139/2/202 55/3/202
f 57/1/203 140/2/203 56/3/203
f 55/1/204 139/2/204 60/3/204
f 139/1/205 59/2/205 60/3/205
f 56/1/206 140/2/206 139/3/206
f 140/1/207 141/2/207 139/3/207
f 139/7/208 141/8/208 59/9/208
f 141/7/209 58/8/209 59/9/209
f 57/1/210 33/2/210 140/3/210
f 33/7/211 32/8/211 140/9/211
f 140/1/212 32/2/212 141/3/212
f 32/1/213 31/2/213 141/3/213
f 141/1/214 31/2/214 58/3/214
f 31/1/215 3/2/215 58/3/215
f 49/10/216 54/11/216 7/12/216
f 50/4/217 142/5/217 49/6/217
f 51/1/218 143/2/218 50/3/218
f 49/4/219 142/5/219 54/6/219
f 142/4/220 53/5/220 54/6/220
f 50/1/221 143/2/221 142/3/221
f 143/1/222 144/2/222 142/3/222
f 142/7/223 144/8/223 53/9/223
f 144/7/224 52/8/224 53/9/224
f 51/1/225 21/2/225 143/3/225
f 21/1/226 20/2/226 143/3/226
f 143/1/227 20/2/227 144/3/227
f 20/1/228 19/2/228 144/3/228
f 144/1/229 19/2/229 52/3/229
f 19/1/230 2/2/230 52/3/230
f 43/7/231 48/8/231 11/9/231
f 44/4/232 145/5/232 43/6/232
f 45/1/233 146/2/233 44/3/233
f 43/4/234 145/5/234 48/6/234
f 145/7/235 47/8/235 48/9/235
f 44/1/236 146/2/236 145/3/236
f 146/1/237 147/2/237 145/3/237
f 145/1/238 147/2/238 47/3/238
f 147/1/239 46/2/239 47/3/239
f 45/1/240 24/2/240 146/3/240
f 24/1/241 23/2/241 146/3/241
f 146/1/242 23/2/242 147/3/242
f 23/1/243 22/2/243 147/3/243
f 147/1/244 22/2/244 46/3/244
f 22/1/245 6/2/245 46/3/245
f 27/1/246 42/2/246 6/3/246
f 26/1/247 148/2/247 27/3/247
f 25/1/248 149/2/248 26/3/248
f 27/1/249 148/2/249 42/3/249
f 148/1/250 41/2/250 42/3/250
f 26/1/251 149/2/251 148/3/251
f 149/1/252 150/2/252 148/3/252
f 148/1/253 150/2/253 41/3/253
f 150/1/254 40/2/254 41/3/254
f 25/1/255 36/2/255 149/3/255
f 36/1/256 35/2/256 149/3/256
f 149/1/257 35/2/257 150/3/257
f 35/1/258 34/2/258 150/3/258
f 150/1/259 34/2/259 40/3/259
f 34/1/260 5/2/260 40/3/260
f 34/1/261 39/2/261 5/3/261
f 35/1/262 151/2/262 34/3/262
f 36/1/263 152/2/263 35/3/263
f 34/1/264 151/2/264 39/3/264
f 151/1/265 38/2/265 39/3/265
f 35/1/266 152/2/266 151/3/266
f 152/1/267 153/2/267 151/3/267
f 151/1/268 153/2/268 38/3/268
f 153/1/269 37/2/269 38/3/269
f 36/1/270 30/2/270 152/3/270
f 30/1/271 29/2/271 152/3/271
f 152/1/272 29/2/272 153/3/272
f 29/1/273 28/2/273 153/3/273
f 153/1/274 28/2/274 37/3/274
f 28/1/275 4/2/275 37/3/275
f 28/1/276 33/2/276 4/3/276
f 29/1/277 154/2/277 28/3/277
f 30/1/278 155/2/278 29/3/278
f 28/1/279 154/2/279 33/3/279
f 154/1/280 32/2/280 33/3/280
f 29/1/281 155/2/281 154/3/281
f 155/1/282 156/2/282 154/3/282
f 154/1/283 156/2/283 32/3/283
f 156/1/284 31/2/284 32/3/284
f 30/1/285 15/2/285 155/3/285
f 15/1/286 14/2/286 155/3/286
f 155/1/287 14/2/287 156/3/287
f 14/1/288 13/2/288 156/3/288
f 156/1/289 13/2/289 31/3/289
f 13/1/290 3/2/290 31/3/290
f 22/1/291 27/2/291 6/3/291
f 23/1/292 157/2/292 22/3/292
f 24/1/293 158/2/293 23/3/293
f 22/1/294 157/2/294 27/3/294
f 157/1/295 26/2/295 27/3/295
f 23/1/296 158/2/296 157/3/296
f 158/1/297 159/2/297 157/3/297
f 157/1/298 159/2/298 26/3/298
f 159/1/299 25/2/299 26/3/299
f 24/1/300 18/2/300 158/3/300
f 18/1/301 17/2/301 158/3/301
f 158/1/302 17/2/302 159/3/302
f 17/1/303 16/2/303 159/3/303
f 159/1/304 16/2/304 25/3/304
f 16/1/305 1/2/305 25/3/305
f 13/1/306 21/2/306 3/3/306
f 14/1/307 160/2/307 13/3/307
f 15/1/308 161/2/308 14/3/308
f 13/1/309 160/2/309 21/3/309
f 160/1/310 20/2/310 21/3/310
f 14/1/311 161/2/311 160/3/311
f 161/1/312 162/2/312 160/3/312
f 160/1/313 162/2/313 20/3/313
f 162/1/314 19/2/314 20/3/314
f 15/1/315 16/2/315 161/3/315
f 16/1/316 17/2/316 161/3/316
f 161/1/317 17/2/317 162/3/317
f 17/1/318 18/2/318 162/3/318
f 162/1/319 18/2/319 19/3/319
f 18/1/320 2/2/320 19/3/320
f 163/1/321 178/2/321 177/3/321
f 164/1/322 180/2/322 186/3/322
f 163/1/323 177/2/323 192/3/323
f 163/1/324 192/2/324 198/3/324
f 163/1/325 198/2/325 187/3/325
f 164/1/326 186/2/326 207/3/326
f 165/1/327 183/2/327 213/3/327
f 166/1/328 195/2/328 219/3/328
f 167/1/329 201/2/329 225/3/329
f 168/1/330 204/2/330 231/3/330
f 164/1/331 207/2/331 214/3/331
f 165/1/332 213/2/332 220/3/332
f 166/1/333 219/2/333 226/3/333
f 167/1/334 225/2/334 232/3/334
f 168/1/335 231/2/335 208/3/335
f 169/4/336 237/5/336 252/6/336
f 170/10/337 240/11/337 258/12/337
f 171/7/338 243/8/338 261/9/338
f 172/7/339 246/8/339 264/9/339
f 173/10/340 249/11/340 253/12/340
f 255/10/341 262/11/341 174/12/341
f 254/10/342 265/11/342 255/12/342
f 253/10/343 266/11/343 254/12/343
f 255/10/344 265/11/344 262/12/344
f 265/10/345 263/11/345 262/12/345
f 254/10/346 266/11/346 265/12/346
f 266/10/347 267/11/347 265/12/347
f 265/10/348 267/11/348 263/12/348
f 267/10/349 264/11/349 263/12/349
f 253/10/350 249/11/350 266/12/350
f 249/10/351 248/11/351 266/12/351
f 266/10/352 248/11/352 267/12/352
f 248/7/353 247/8/353 267/9/353
f 267/10/354 247/11/354 264/12/354
f 247/7/355 172/8/355 264/9/355
f 262/10/356 259/11/356 174/12/356
f 263/10/357 268/11/357 262/12/357
f 264/10/358 269/11/358 263/12/358
f 262/10/359 268/11/359 259/12/359
f 268/10/360 260/11/360 259/12/360
f 263/10/361 269/11/361 268/12/361
f 269/10/362 270/11/362 268/12/362
f 268/10/363 270/11/363 260/12/363
f 270/10/364 261/11/364 260/12/364
f 264/10/365 246/11/365 269/12/365
f 246/10/366 245/11/366 269/12/366
f 269/10/367 245/11/367 270/12/367
f 245/10/368 244/11/368 270/12/368
f 270/10/369 244/11/369 261/12/369
f 244/7/370 171/8/370 261/9/370
f 259/10/371 256/11/371 174/12/371
f 260/10/372 271/11/372 259/12/372
f 261/10/373 272/11/373 260/12/373
f 259/10/374 271/11/374 256/12/374
f 271/10/375 257/11/375 256/12/375
f 260/10/376 272/11/376 271/12/376
f 272/10/377 273/11/377 271/12/377
f 271/10/378 273/11/378 257/12/378
f 273/10/379 258/11/379 257/12/379
f 261/10/380 243/11/380 272/12/380
f 243/10/381 242/11/381 272/12/381
f 272/10/382 242/11/382 273/12/382
f 242/10/383 241/11/383 273/12/383
f 273/10/384 241/11/384 258/12/384
f 241/10/385 170/11/385 258/12/385
f 256/10/386 250/11/386 174/12/386
f 257/10/387 274/11/387 256/12/387
f 258/10/388 275/11/388 257/12/388
f 256/10/389 274/11/389 250/12/389
f 274/10/390 251/11/390 250/12/390
f 257/10/391 275/11/391 274/12/391
f 275/10/392 276/11/392 274/12/392
f 274/10/393 276/11/393 251/12/393
f 276/10/394 252/11/394 251/12/394
f 258/10/395 240/11/395 275/12/395
f 240/10/396 239/11/396 275/12/396
f 275/10/397 239/11/397 276/12/397
f 239/7/398 238/8/398 276/9/398
f 276/7/399 238/8/399 252/9/399
f 238/4/400 169/5/400 252/6/400
f 250/10/401 255/11/401 174/12/401
f 251/10/402 277/11/402 250/12/402
f 252/10/403 278/11/403 251/12/403
f 250/10/404 277/11/404 255/12/404
f 277/10/405 254/11/405 255/12/405
f 251/10/406 278/11/406 277/12/406
f 278/10/407 279/11/407 277/12/407
f 277/10/408 279/11/408 254/12/408
f 279/10/409 253/11/409 254/12/409
f 252/7/410 237/8/410 278/9/410
f 237/7/411 236/8/411 278/9/411
f 278/10/412 236/11/412 279/12/412
f 236/4/413 235/5/413 279/6/413
f 279/7/414 235/8/414 253/9/414
f 235/10/415 173/11/415 253/12/415
f 210/4/416 249/5/416 173/6/416
f 209/4/417 280/5/417 210/6/417
f 208/4/418 281/5/418 209/6/418
f 210/7/419 280/8/419 249/9/419
f 280/7/420 248/8/420 249/9/420
f 209/4/421 281/5/421 280/6/421
f 281/4/422 282/5/422 280/6/422
f 280/7/423 282/8/423 248/9/423
f 282/10/424 247/11/424 248/12/424
f 208/1/425 231/2/425 281/3/425
f 231/1/426 230/2/426 281/3/426
f 281/4/427 230/5/427 282/6/427
f 230/4/428 229/5/428 282/6/428
f 282/7/429 229/8/429 247/9/429
f 229/7/430 172/8/430 247/9/430
f 234/7/431 246/8/431 172/9/431
f 233/4/432 283/5/432 234/6/432
f 232/7/433 284/8/433 233/9/433
f 234/4/434 283/5/434 246/6/434
f 283/4/435 245/5/435 246/6/435
f 233/4/436 284/5/436 283/6/436
f 284/4/437 285/5/437 283/6/437
f 283/4/438 285/5/438 245/6/438
f 285/7/439 244/8/439 245/9/439
f 232/1/440 225/2/440 284/3/440
f 225/7/441 224/8/441 284/9/441
f 284/4/442 224/5/442 285/6/442
f 224/4/443 223/5/443 285/6/443
f 285/10/444 223/11/444 244/12/444
f 223/10/445 171/11/445 244/12/445
f 228/7/446 243/8/446 171/9/446
f 227/7/447 286/8/447 228/9/447
f 226/7/448 287/8/448 227/9/448
f 228/7/449 286/8/449 243/9/449
f 286/7/450 242/8/450 243/9/450
f 227/4/451 287/5/451 286/6/451
f 287/4/452 288/5/452 286/6/452
f 286/7/453 288/8/453 242/9/453
f 288/10/454 241/11/454 242/12/454
f 226/1/455 219/2/455 287/3/455
f 219/7/456 218/8/456 287/9/456
f 287/7/457 218/8/457 288/9/457
f 218/7/458 217/8/458 288/9/458
f 288/7/459 217/8/459 241/9/459
f 217/7/460 170/8/460 241/9/460
f 222/10/461 240/11/461 170/12/461
f 221/4/462 289/5/462 222/6/462
f 220/1/463 290/2/463 221/3/463
f 222/7/464 289/8/464 240/9/464
f 289/10/465 239/11/465 240/12/465
f 221/7/466 290/8/466 289/9/466
f 290/4/467 291/5/467 289/6/467
f 289/4/468 291/5/468 239/6/468
f 291/4/469 238/5/469 239/6/469
f 220/1/470 213/2/470 290/3/470
f 213/1/471 212/2/471 290/3/471
f 290/4/472 212/5/472 291/6/472
f 212/4/473 211/5/473 291/6/473
f 291/4/474 211/5/474 238/6/474
f 211/4/475 169/5/475 238/6/475
f 216/4/476 237/5/476 169/6/476
f 215/1/477 292/2/477 216/3/477
f 214/7/478 293/8/478 215/9/478
f 216/4/479 292/5/479 237/6/479
f 292/4/480 236/5/480 237/6/480
f 215/1/481 293/2/481 292/3/481
f 293/4/482 294/5/482 292/6/482
f 292/4/483 294/5/483 236/6/483
f 294/4/484 235/5/484 236/6/484
f 214/7/485 207/8/485 293/9/485
f 207/7/486 206/8/486 293/9/486
f 293/4/487 206/5/487 294/6/487
f 206/4/488 205/5/488 294/6/488
f 294/7/489 205/8/489 235/9/489
f 205/10/490 173/11/490 235/12/490
f 229/7/491 234/8/491 172/9/491
f 230/4/492 295/5/492 229/6/492
f 231/1/493 296/2/493 230/3/493
f 229/4/494 295/5/494 234/6/494
f 295/7/495 233/8/495 234/9/495
f 230/1/496 296/2/496 295/3/496
f 296/1/497 297/2/497 295/3/497
f 295/1/498 297/2/498 233/3/498
f 297/1/499 232/2/499 233/3/499
f 231/1/500 204/2/500 296/3/500
f 204/1/501 203/2/501 296/3/501
f 296/1/502 203/2/502 297/3/502
f 203/1/503 202/2/503 297/3/503
f 297/1/504 202/2/504 232/3/504
f 202/1/505 167/2/505 232/3/505
f 223/10/506 228/11/506 171/12/506
f 224/7/507 298/8/507 223/9/507
f 225/1/508 299/2/508 224/3/508
f 223/4/509 298/5/509 228/6/509
f 298/7/510 227/8/510 228/9/510
f 224/4/511 299/5/511 298/6/511
f 299/4/512 300/5/512 298/6/512
f 298/7/513 300/8/513 227/9/513
f 300/7/514 226/8/514 227/9/514
f 225/1/515 201/2/515 299/3/515
f 201/1/516 200/2/516 299/3/516
f 299/1/517 200/2/517 300/3/517
f 200/1/518 199/2/518 300/3/518
f 300/1/519 199/2/519 226/3/519
f 199/1/520 166/2/520 226/3/520
f 217/4/521 222/5/521 170/6/521
f 218/1/522 301/2/522 217/3/522
f 219/1/523 302/2/523 218/3/523
f 217/7/524 301/8/524 222/9/524
f 301/7/525 221/8/525 222/9/525
f 218/1/526 302/2/526 301/3/526
f 302/1/527 303/2/527 301/3/527
f 301/1/528 303/2/528 221/3/528
f 303/1/529 220/2/529 221/3/529
f 219/1/530 195/2/530 302/3/530
f 195/1/531 194/2/531 302/3/531
f 302/1/532 194/2/532 303/3/532
f 194/1/533 193/2/533 303/3/533
f 303/1/534 193/2/534 220/3/534
f 193/1/535 165/2/535 220/3/535
f 211/4/536 216/5/536 169/6/536
f 212/7/537 304/8/537 211/9/537
f 213/1/538 305/2/538 212/3/538
f 211/7/539 304/8/539 216/9/539
f 304/1/540 215/2/540 216/3/540
f 212/1/541 305/2/541 304/3/541
f 305/1/542 306/2/542 304/3/542
f 304/7/543 306/8/543 215/9/543
f 306/7/544 214/8/544 215/9/544
f 213/1/545 183/2/545 305/3/545
f 183/1/546 182/2/546 305/3/546
f 305/1/547 182/2/547 306/3/547
f 182/1/548 181/2/548 306/3/548
f 306/7/549 181/8/549 214/9/549
f 181/1/550 164/2/550 214/3/550
f 205/4/551 210/5/551 173/6/551
f 206/4/552 307/5/552 205/6/552
f 207/1/553 308/2/553 206/3/553
f 205/4/554 307/5/554 210/6/554
f 307/4/555 209/5/555 210/6/555
f 206/7/556 308/8/556 307/9/556
f 308/1/557 309/2/557 307/3/557
f 307/1/558 309/2/558 209/3/558
f 309/7/559 208/8/559 209/9/559
f 207/1/560 186/2/560 308/3/560
f 186/1/561 185/2/561 308/3/561
f 308/1/562 185/2/562 309/3/562
f 185/1/563 184/2/563 309/3/563
f 309/1/564 184/2/564 208/3/564
f 184/1/565 168/2/565 208/3/565
f 189/1/566 204/2/566 168/3/566
f 188/1/567 310/2/567 189/3/567
f 187/1/568 311/2/568 188/3/568
f 189/1/569 310/2/569 204/3/569
f 310/1/570 203/2/570 204/3/570
f 188/1/571 311/2/571 310/3/571
f 311/1/572 312/2/572 310/3/572
f 310/1/573 312/2/573 203/3/573
f 312/1/574 202/2/574 203/3/574
f 187/1/575 198/2/575 311/3/575
f 198/1/576 197/2/576 311/3/576
f 311/1/577 197/2/577 312/3/577
f 197/1/578 196/2/578 312/3/578
f 312/1/579 196/2/579 202/3/579
f 196/1/580 167/2/580 202/3/580
f 196/1/581 201/2/581 167/3/581
f 197/1/582 313/2/582 196/3/582
f 198/1/583 314/2/583 197/3/583
f 196/1/584 313/2/584 201/3/584
f 313/1/585 200/2/585 201/3/585
f 197/1/586 314/2/586 313/3/586
f 314/1/587 315/2/587 313/3/587
f 313/1/588 315/2/588 200/3/588
f 315/1/589 199/2/589 200/3/589
f 198/1/590 192/2/590 314/3/590
f 192/1/591 191/2/591 314/3/591
f 314/1/592 191/2/592 315/3/592
f 191/1/593 190/2/593 315/3/593
f 315/1/594 190/2/594 199/3/594
f 190/1/595 166/2/595 199/3/595
f 190/1/596 195/2/596 166/3/596
f 191/1/597 316/2/597 190/3/597
f 192/1/598 317/2/598 191/3/598
f 190/1/599 316/2/599 195/3/599
f 316/1/600 194/2/600 195/3/600
f 191/1/601 317/2/601 316/3/601
f 317/1/602 318/2/602 316/3/602
f 316/1/603 318/2/603 194/3/603
f 318/1/604 193/2/604 194/3/604
f 192/1/605 177/2/605 317/3/605
f 177/1/606 176/2/606 317/3/606
f 317/1/607 176/2/607 318/3/607
f 176/1/608 175/2/608 318/3/608
f 318/1/609 175/2/609 193/3/609
f 175/1/610 165/2/610 193/3/610
f 184/1/611 189/2/611 168/3/611
f 185/1/612 319/2/612 184/3/612
f 186/1/613 320/2/613 185/3/613
f 184/1/614 319/2/614 189/3/614
f 319/1/615 188/2/615 189/3/615
f 185/1/616 320/2/616 319/3/616
f 320/1/617 321/2/617 319/3/617
f 319/1/618 321/2/618 188/3/618
f 321/1/619 187/2/619 188/3/619
f 186/1/620 180/2/620 320/3/620
f 180/1/621 179/2/621 320/3/621
f 320/1/622 179/2/622 321/3/622
f 179/1/623 178/2/623 321/3/623
f 321/1/624 178/2/624 187/3/624
f 178/1/625 163/2/625 187/3/625
f 175/1/626 183/2/626 165/3/626
f 176/1/627 322/2/627 175/3/627
f 177/1/628 323/2/628 176/3/628
f 175/1/629 322/2/629 183/3/629
f 322/1/630 182/2/630 183/3/630
f 176/1/631 323/2/631 322/3/631
f 323/1/632 324/2/632 322/3/632
f 322/1/633 324/2/633 182/3/633
f 324/1/634 181/2/634 182/3/634
f 177/1/635 178/2/635 323/3/635
f 178/1/636 179/2/636 323/3/636
f 323/1/637 179/2/637 324/3/637
f 179/1/638 180/2/638 324/3/638
f 324/1/639 180/2/639 181/3/639
f 180/1/640 164/2/640 181/3/640
f 325/1/641 340/2/641 339/3/641
f 326/1/642 342/2/642 348/3/642
f 325/1/643 339/2/643 354/3/643
f 325/1/644 354/2/644 360/3/644
f 325/1/645 360/2/645 349/3/645
f 326/1/646 348/2/646 369/3/646
f 327/1/647 345/2/647 375/3/647
f 328/1/648 357/2/648 381/3/648
f 329/1/649 363/2/649 387/3/649
f 330/1/650 366/2/650 393/3/650
f 326/1/651 369/2/651 376/3/651
f 327/1/652 375/2/652 382/3/652
f 328/1/653 381/2/653 388/3/653
f 329/1/654 387/2/654 394/3/654
f 330/1/655 393/2/655 370/3/655
f 331/10/656 399/11/656 414/12/656
f 332/10/657 402/11/657 420/12/657
f 333/10/658 405/11/658 423/12/658
f 334/4/659 408/5/659 426/6/659
f 335/7/660 411/8/660 415/9/660
f 417/10/661 424/11/661 336/12/661
f 416/10/662 427/11/662 417/12/662
f 415/10/663 428/11/663 416/12/663
f 417/10/664 427/11/664 424/12/664
f 427/10/665 425/11/665 424/12/665
f 416/10/666 428/11/666 427/12/666
f 428/10/667 429/11/667 427/12/667
f 427/10/668 429/11/668 425/12/668
f 429/10/669 426/11/669 425/12/669
f 415/7/670 411/8/670 428/9/670
f 411/7/671 410/8/671 428/9/671
f 428/10/672 410/11/672 429/12/672
f 410/7/673 409/8/673 429/9/673
f 429/7/674 409/8/674 426/9/674
f 409/4/675 334/5/675 426/6/675
f 424/10/676 421/11/676 336/12/676
f 425/10/677 430/11/677 424/12/677
f 426/10/678 431/11/678 425/12/678
f 424/10/679 430/11/679 421/12/679
f 430/10/680 422/11/680 421/12/680
f 425/10/681 431/11/681 430/12/681
f 431/10/682 432/11/682 430/12/682
f 430/10/683 432/11/683 422/12/683
f 432/10/684 423/11/684 422/12/684
f 426/10/685 408/11/685 431/12/685
f 408/10/686 407/11/686 431/12/686
f 431/10/687 407/11/687 432/12/687
f 407/10/688 406/11/688 432/12/688
f 432/10/689 406/11/689 423/12/689
f 406/10/690 333/11/690 423/12/690
f 421/10/691 418/11/691 336/12/691
f 422/10/692 433/11/692 421/12/692
f 423/10/693 434/11/693 422/12/693
f 421/10/694 433/11/694 418/12/694
f 433/10/695 419/11/695 418/12/695
f 422/10/696 434/11/696 433/12/696
f 434/10/697 435/11/697 433/12/697
f 433/10/698 435/11/698 419/12/698
f 435/10/699 420/11/699 419/12/699
f 423/10/700 405/11/700 434/12/700
f 405/10/701 404/11/701 434/12/701
f 434/10/702 404/11/702 435/12/702
f 404/10/703 403/11/703 435/12/703
f 435/10/704 403/11/704 420/12/704
f 403/10/705 332/11/705 420/12/705
f 418/10/706 412/11/706 336/12/706
f 419/10/707 436/11/707 418/12/707
f 420/10/708 437/11/708 419/12/708
f 418/10/709 436/11/709 412/12/709
f 436/10/710 413/11/710 412/12/710
f 419/10/711 437/11/711 436/12/711
f 437/10/712 438/11/712 436/12/712
f 436/10/713 438/11/713 413/12/713
f 438/10/714 414/11/714 413/12/714
f 420/10/715 402/11/715 437/12/715
f 402/10/716 401/11/716 437/12/716
f 437/10/717 401/11/717 438/12/717
f 401/7/718 400/8/718 438/9/718
f 438/10/719 400/11/719 414/12/719
f 400/10/720 331/11/720 414/12/720
f 412/10/721 417/11/721 336/12/721
f 413/10/722 439/11/722 412/12/722
f 414/10/723 440/11/723 413/12/723
f 412/10/724 439/11/724 417/12/724
f 439/10/725 416/11/725 417/12/725
f 413/10/726 440/11/726 439/12/726
f 440/10/727 441/11/727 439/12/727
f 439/10/728 441/11/728 416/12/728
f 441/10/729 415/11/729 416/12/729
f 414/10/730 399/11/730 440/12/730
f 399/10/731 398/11/731 440/12/731
f 440/10/732 398/11/732 441/12/732
f 398/10/733 397/11/733 441/12/733
f 441/10/734 397/11/734 415/12/734
f 397/7/735 335/8/735 415/9/735
f 372/4/736 411/5/736 335/6/736
f 371/7/737 442/8/737 372/9/737
f 370/7/738 443/8/738 371/9/738
f 372/7/739 442/8/739 411/9/739
f 442/7/740 410/8/740 411/9/740
f 371/7/741 443/8/741 442/9/741
f 443/7/742 444/8/742 442/9/742
f 442/4/743 444/5/743 410/6/743
f 444/7/744 409/8/744 410/9/744
f 370/1/745 393/2/745 443/3/745
f 393/1/746 392/2/746 443/3/746
f 443/7/747 392/8/747 444/9/747
f 392/4/748 391/5/748 444/6/748
f 444/4/749 391/5/749 409/6/749
f 391/4/750 334/5/750 409/6/750
f 396/4/751 408/5/751 334/6/751
f 395/7/752 445/8/752 396/9/752
f 394/1/753 446/2/753 395/3/753
f 396/4/754 445/5/754 408/6/754
f 445/4/755 407/5/755 408/6/755
f 395/7/756 446/8/756 445/9/756
f 446/7/757 447/8/757 445/9/757
f 445/4/758 447/5/758 407/6/758
f 447/4/759 406/5/759 407/6/759
f 394/1/760 387/2/760 446/3/760
f 387/1/761 386/2/761 446/3/761
f 446/7/762 386/8/762 447/9/762
f 386/7/763 385/8/763 447/9/763
f 447/4/764 385/5/764 406/6/764
f 385/4/765 333/5/765 406/6/765
f 390/4/766 405/5/766 333/6/766
f 389/4/767 448/5/767 390/6/767
f 388/1/768 449/2/768 389/3/768
f 390/4/769 448/5/769 405/6/769
f 448/7/770 404/8/770 405/9/770
f 389/7/771 449/8/771 448/9/771
f 449/4/772 450/5/772 448/6/772
f 448/7/773 450/8/773 404/9/773
f 450/7/774 403/8/774 404/9/774
f 388/1/775 381/2/775 449/3/775
f 381/1/776 380/2/776 449/3/776
f 449/1/777 380/2/777 450/3/777
f 380/7/778 379/8/778 450/9/778
f 450/7/779 379/8/779 403/9/779
f 379/7/780 332/8/780 403/9/780
f 384/4/781 402/5/781 332/6/781
f 383/7/782 451/8/782 384/9/782
f 382/1/783 452/2/783 383/3/783
f 384/4/784 451/5/784 402/6/784
f 451/4/785 401/5/785 402/6/785
f 383/7/786 452/8/786 451/9/786
f 452/7/787 453/8/787 451/9/787
f 451/4/788 453/5/788 401/6/788
f 453/7/789 400/8/789 401/9/789
f 382/1/790 375/2/790 452/3/790
f 375/1/791 374/2/791 452/3/791
f 452/7/792 374/8/792 453/9/792
f 374/4/793 373/5/793 453/6/793
f 453/4/794 373/5/794 400/6/794
f 373/4/795 331/5/795 400/6/795
f 378/4/796 399/5/796 331/6/796
f 377/4/797 454/5/797 378/6/797
f 376/7/798 455/8/798 377/9/798
f 378/4/799 454/5/799 399/6/799
f 454/4/800 398/5/800 399/6/800
f 377/7/801 455/8/801 454/9/801
f 455/7/802 456/8/802 454/9/802
f 454/4/803 456/5/803 398/6/803
f 456/7/804 397/8/804 398/9/804
f 376/1/805 369/2/805 455/3/805
f 369/1/806 368/2/806 455/3/806
f 455/7/807 368/8/807 456/9/807
f 368/7/808 367/8/808 456/9/808
f 456/4/809 367/5/809 397/6/809
f 367/4/810 335/5/810 397/6/810
f 391/4/811 396/5/811 334/6/811
f 392/1/812 457/2/812 391/3/812
f 393/1/813 458/2/813 392/3/813
f 391/1/814 457/2/814 396/3/814
f 457/1/815 395/2/815 396/3/815
f 392/1/816 458/2/816 457/3/816
f 458/1/817 459/2/817 457/3/817
f 457/1/818 459/2/818 395/3/818
f 459/1/819 394/2/819 395/3/819
f 393/1/820 366/2/820 458/3/820
f 366/1/821 365/2/821 458/3/821
f 458/1/822 365/2/822 459/3/822
f 365/1/823 364/2/823 459/3/823
f 459/1/824 364/2/824 394/3/824
f 364/1/825 329/2/825 394/3/825
f 385/4/826 390/5/826 333/6/826
f 386/7/827 460/8/827 385/9/827
f 387/1/828 461/2/828 386/3/828
f 385/7/829 460/8/829 390/9/829
f 460/7/830 389/8/830 390/9/830
f 386/1/831 461/2/831 460/3/831
f 461/1/832 462/2/832 460/3/832
f 460/1/833 462/2/833 389/3/833
f 462/1/834 388/2/834 389/3/834
f 387/1/835 363/2/835 461/3/835
f 363/1/836 362/2/836 461/3/836
f 461/1/837 362/2/837 462/3/837
f 362/1/838 361/2/838 462/3/838
f 462/1/839 361/2/839 388/3/839
f 361/1/840 328/2/840 388/3/840
f 379/4/841 384/5/841 332/6/841
f 380/1/842 463/2/842 379/3/842
f 381/1/843 464/2/843 380/3/843
f 379/7/844 463/8/844 384/9/844
f 463/1/845 383/2/845 384/3/845
f 380/1/846 464/2/846 463/3/846
f 464/1/847 465/2/847 463/3/847
f 463/1/848 465/2/848 383/3/848
f 465/1/849 382/2/849 383/3/849
f 381/1/850 357/2/850 464/3/850
f 357/1/851 356/2/851 464/3/851
f 464/1/852 356/2/852 465/3/852
f 356/1/853 355/2/853 465/3/853
f 465/1/854 355/2/854 382/3/854
f 355/1/855 327/2/855 382/3/855
f 373/4/856 378/5/856 331/6/856
f 374/7/857 466/8/857 373/9/857
f 375/1/858 467/2/858 374/3/858
f 373/4/859 466/5/859 378/6/859
f 466/4/860 377/5/860 378/6/860
f 374/1/861 467/2/861 466/3/861
f 467/1/862 468/2/862 466/3/862
f 466/1/863 468/2/863 377/3/863
f 468/1/864 376/2/864 377/3/864
f 375/1/865 345/2/865 467/3/865
f 345/1/866 344/2/866 467/3/866
f 467/1/867 344/2/867 468/3/867
f 344/1/868 343/2/868 468/3/868
f 468/1/869 343/2/869 376/3/869
f 343/1/870 326/2/870 376/3/870
f 367/4/871 372/5/871 335/6/871
f 368/7/872 469/8/872 367/9/872
f 369/1/873 470/2/873 368/3/873
f 367/4/874 469/5/874 372/6/874
f 469/7/875 371/8/875 372/9/875
f 368/1/876 470/2/876 469/3/876
f 470/1/877 471/2/877 469/3/877
f 469/7/878 471/8/878 371/9/878
f 471/1/879 370/2/879 371/3/879
f 369/1/880 348/2/880 470/3/880
f 348/1/881 347/2/881 470/3/881
f 470/1/882 347/2/882 471/3/882
f 347/1/883 346/2/883 471/3/883
f 471/1/884 346/2/884 370/3/884
f 346/1/885 330/2/885 370/3/885
f 351/1/886 366/2/886 330/3/886
f 350/1/887 472/2/887 351/3/887
f 349/1/888 473/2/888 350/3/888
f 351/1/889 472/2/889 366/3/889
f 472/1/890 365/2/890 366/3/890
f 350/1/891 473/2/891 472/3/891
f 473/1/892 474/2/892 472/3/892
f 472/1/893 474/2/893 365/3/893
f 474/1/894 364/2/894 365/3/894
f 349/1/895 360/2/895 473/3/895
f 360/1/896 359/2/896 473/3/896
f 473/1/897 359/2/897 474/3/897
f 359/1/898 358/2/898 474/3/898
f 474/1/899 358/2/899 364/3/899
f 358/1/900 329/2/900 364/3/900
f 358/1/901 363/2/901 329/3/901
f 359/1/902 475/2/902 358/3/902
f 360/1/903 476/2/903 359/3/903
f 358/1/904 475/2/904 363/3/904
f 475/1/905 362/2/905 363/3/905
f 359/1/906 476/2/906 475/3/906
f 476/1/907 477/2/907 475/3/907
f 475/1/908 477/2/908 362/3/908
f 477/1/909 361/2/909 362/3/909
f 360/1/910 354/2/910 476/3/910
f 354/1/911 353/2/911 476/3/911
f 476/1/912 353/2/912 477/3/912
f 353/1/913 352/2/913 477/3/913
f 477/1/914 352/2/914 361/3/914
f 352/1/915 328/2/915 361/3/915
f 352/1/916 357/2/916 328/3/916
f 353/1/917 478/2/917 352/3/917
f 354/1/918 479/2/918 353/3/918
f 352/1/919 478/2/919 357/3/919
f 478/1/920 356/2/920 357/3/920
f 353/1/921 479/2/921 478/3/921
f 479/1/922 480/2/922 478/3/922
f 478/1/923 480/2/923 356/3/923
f 480/1/924 355/2/924 356/3/924
f 354/1/925 339/2/925 479/3/925
f 339/1/926 338/2/926 479/3/926
f 479/1/927 338/2/927 480/3/927
f 338/1/928 337/2/928 480/3/928
f 480/1/929 337/2/929 355/3/929
f 337/1/930 327/2/930 355/3/930
f 346/1/931 351/2/931 330/3/931
f 347/1/932 481/2/932 346/3/932
f 348/1/933 482/2/933 347/3/933
f 346/1/934 481/2/934 351/3/934
f 481/1/935 350/2/935 351/3/935
f 347/1/936 482/2/936 481/3/936
f 482/1/937 483/2/937 481/3/937
f 481/1/938 483/2/938 350/3/938
f 483/1/939 349/2/939 350/3/939
f 348/1/940 342/2/940 482/3/940
f 342/1/941 341/2/941 482/3/941
f 482/1/942 341/2/942 483/3/942
f 341/1/943 340/2/943 483/3/943
f 483/1/944 340/2/944 349/3/944
f 340/1/945 325/2/945 349/3/945
f 337/1/946 345/2/946 327/3/946
f 338/1/947 484/2/947 337/3/947
f 339/1/948 485/2/948 338/3/948
f 337/1/949 484/2/949 345/3/949
f 484/1/866 344/2/866 345/3/866
f 338/1/950 485/2/950 484/3/950
f 485/1/951 486/2/951 484/3/951
f 484/1/952 486/2/952 344/3/952
f 486/1/953 343/2/953 344/3/953
f 339/1/954 340/2/954 485/3/954
f 340/1/955 341/2/955 485/3/955
f 485/1/956 341/2/956 486/3/956
f 341/1/957 342/2/957 486/3/957
f 486/1/958 342/2/958 343/3/958
f 342/1/959 326/2/959 343/3/959
