# Blender 5.0.1
# www.blender.org
mtllib pine_small.mtl
o pine_small
v -0.053328 0.089413 -0.362770
v -0.052001 2.815730 -0.253577
v 0.184159 0.059980 -0.230724
v 0.163680 2.787332 -0.124102
v 0.240027 0.066336 0.025455
v 0.133755 2.853467 -0.014943
v 0.113479 0.012741 0.274178
v 0.004463 2.762947 0.189195
v -0.226198 0.000000 0.311540
v -0.153701 2.841234 0.197980
v -0.376179 0.046969 0.042390
v -0.260454 2.784808 0.037544
v -0.263059 0.081013 -0.279102
v -0.210733 2.779958 -0.146217
v -0.153138 2.366017 -0.107233
v -2.268720 1.797859 -1.096452
v -1.791393 2.442767 -1.004103
v -1.128713 3.366177 -0.696096
v -0.757321 4.178591 -0.479414
v -0.046501 5.234504 -0.043203
v -2.530127 1.825067 0.524465
v -2.040148 2.599752 0.604115
v -1.401917 3.394599 0.258254
v -0.921882 4.044847 0.198350
v -1.475250 1.852172 1.983156
v -1.305486 2.416100 1.543461
v -0.682033 3.368382 1.000556
v -0.640942 3.986687 0.606346
v 0.251027 1.855865 2.451204
v 0.181769 2.453277 1.996932
v 0.011088 3.270461 1.287503
v 0.070473 4.115925 0.873980
v 1.648404 1.741954 1.706959
v 1.202030 2.367116 1.336309
v 0.690349 3.150854 0.985584
v 0.373538 4.024907 0.330444
v 2.530127 1.899416 0.386837
v 1.884690 2.405365 0.227930
v 1.444656 3.189484 0.056696
v 0.693450 3.999168 -0.075937
v 2.202480 1.731522 -1.545433
v 1.742872 2.417299 -1.191720
v 0.926976 3.119205 -0.763594
v 0.680312 4.125805 -0.407596
v 0.650257 1.934637 -2.451204
v 0.487095 2.398448 -2.016467
v 0.172304 3.396954 -1.351507
v -0.013993 4.176810 -0.675925
v -1.131330 1.777274 -2.429085
v -0.791942 2.370963 -1.900075
v -0.441930 3.122061 -1.262948
v -0.272166 4.000389 -0.555568
v 0.042464 4.147932 -0.007456
v 1.415036 3.728678 -0.986713
v 1.063099 4.213532 -0.695742
v 0.639465 4.913792 -0.529478
v 0.364155 5.632461 -0.242484
v -0.058536 6.594936 -0.114552
v 0.505156 3.758861 -1.711583
v 0.271079 4.210540 -1.317554
v 0.234030 4.848803 -0.986719
v 0.020330 5.631300 -0.437417
v -0.866930 3.796839 -1.668169
v -0.637145 4.256793 -1.127781
v -0.390554 4.972101 -0.972416
v -0.206184 5.689137 -0.492650
v -1.520495 3.742414 -0.757318
v -1.202421 4.287020 -0.581231
v -0.983657 4.987065 -0.458776
v -0.508753 5.791144 -0.242325
v -1.739055 3.743924 0.478724
v -1.265397 4.285702 0.328999
v -0.975338 4.926645 0.185421
v -0.455700 5.789610 0.035080
v -0.951481 3.796302 1.414940
v -0.762807 4.246434 1.123311
v -0.569101 4.838203 0.827508
v -0.404457 5.601244 0.330870
v 0.050265 3.675139 1.657199
v 0.078346 4.285124 1.304957
v -0.042181 4.910192 0.810086
v -0.018031 5.640094 0.571556
v 1.056381 3.626692 1.208736
v 0.933302 4.223627 0.875952
v 0.544720 5.023254 0.741013
v 0.245790 5.612230 0.294921
v 1.635871 3.672494 0.237149
v 1.245959 4.246329 0.130418
v 0.892068 4.912676 0.098790
v 0.393980 5.667798 0.049271
v -0.058535 5.625916 -0.002084
v -0.867426 5.340680 -0.582950
v -0.599819 5.757005 -0.479011
v -0.472474 6.390092 -0.273589
v -0.251341 6.983030 -0.194781
v -0.087965 7.777642 0.013230
v -1.002160 5.324114 0.016487
v -0.750944 5.782812 -0.005629
v -0.544912 6.410883 0.032517
v -0.356521 7.049992 0.026599
v -0.702660 5.330260 0.646707
v -0.567401 5.799692 0.450330
v -0.428349 6.365962 0.306908
v -0.221099 6.973103 0.193370
v -0.217560 5.278335 0.972860
v -0.127823 5.806038 0.755338
v -0.074035 6.375715 0.494851
v -0.021459 7.043615 0.234370
v 0.459033 5.316687 0.796016
v 0.398771 5.760767 0.643873
v 0.246610 6.313190 0.373287
v 0.083033 7.034266 0.226701
v 0.846387 5.298687 0.226388
v 0.689346 5.781991 0.218184
v 0.428139 6.372248 0.067507
v 0.168483 7.006717 0.066117
v 0.898339 5.322576 -0.379941
v 0.643395 5.741919 -0.357000
v 0.460526 6.418466 -0.245891
v 0.219801 7.069395 -0.118774
v 0.385584 5.362704 -0.921824
v 0.263326 5.755527 -0.708314
v 0.120493 6.383337 -0.452747
v 0.066252 7.033286 -0.213133
v -0.324552 5.333711 -0.966052
v -0.247919 5.774664 -0.790168
v -0.178471 6.320324 -0.533877
v -0.141454 7.009624 -0.303482
vn 0.4892 0.0377 -0.8714
vn 0.9768 0.0157 -0.2134
vn 0.8858 0.0494 0.4613
vn 0.1080 0.0350 0.9935
vn -0.8701 0.0376 0.4914
vn -0.1173 0.9333 0.3395
vn -0.9439 0.0393 -0.3279
vn -0.3718 0.0528 -0.9268
vn 0.0287 -0.9950 -0.0953
vn 0.2353 -0.9704 0.0542
vn -0.7867 0.6019 -0.1370
vn -0.7514 0.6171 -0.2335
vn -0.8885 0.4405 -0.1288
vn -0.8106 0.5797 -0.0824
vn 0.1901 -0.9745 -0.1193
vn -0.6932 0.3751 0.6155
vn -0.5260 0.6572 0.5398
vn -0.6584 0.5348 0.5296
vn -0.6349 0.5725 0.5188
vn 0.0574 -0.9773 -0.2039
vn -0.2385 0.6408 0.7297
vn -0.2351 0.5930 0.7702
vn -0.3822 0.5147 0.7675
vn -0.3787 0.5628 0.7347
vn -0.1682 -0.9715 -0.1671
vn 0.4815 0.5652 0.6699
vn 0.4020 0.6467 0.6482
vn 0.4309 0.3719 0.8222
vn 0.8249 0.4075 0.3917
vn -0.1313 -0.9703 -0.2034
vn 0.6153 0.6779 0.4024
vn 0.5972 0.6185 0.5107
vn 0.6510 0.5920 0.4750
vn 0.7257 0.4203 0.5447
vn -0.1910 -0.9746 0.1171
vn 0.6244 0.7791 -0.0558
vn 0.8767 0.4737 -0.0836
vn 0.6817 0.5542 -0.4777
vn 0.8488 0.5042 0.1589
vn -0.1935 -0.9746 0.1130
vn 0.4516 0.6290 -0.6328
vn 0.3543 0.7514 -0.5567
vn 0.6509 0.3899 -0.6514
vn 0.3454 0.4896 -0.8006
vn 0.0886 -0.9738 0.2096
vn -0.0818 0.6661 -0.7414
vn -0.3223 0.4522 -0.8316
vn -0.6066 0.4328 -0.6669
vn -0.5969 0.3983 -0.6965
vn 0.1810 -0.9688 0.1694
vn -0.4301 0.7251 -0.5378
vn -0.4552 0.6897 -0.5631
vn -0.3506 0.6276 -0.6951
vn -0.0039 0.3840 -0.9233
vn -0.1714 -0.9696 0.1748
vn 0.4708 0.6795 -0.5627
vn 0.6057 0.5112 -0.6097
vn 0.4335 0.4725 -0.7674
vn 0.4673 0.3150 -0.8261
vn -0.0201 -0.9759 0.2173
vn -0.0057 0.6557 -0.7550
vn -0.1611 0.4468 -0.8800
vn 0.0980 0.5896 -0.8017
vn 0.3015 0.3250 -0.8964
vn 0.2087 -0.9737 0.0916
vn -0.5786 0.7259 -0.3718
vn -0.6049 0.3625 -0.7090
vn -0.5339 0.5607 -0.6329
vn -0.4995 0.4018 -0.7675
vn 0.2319 -0.9718 0.0422
vn -0.8537 0.5175 -0.0583
vn -0.9557 0.2917 0.0397
vn -0.8663 0.4961 0.0577
vn -0.8711 0.4610 0.1692
vn 0.1920 -0.9755 -0.1070
vn -0.6201 0.6595 0.4249
vn -0.7273 0.4460 0.5216
vn -0.7259 0.5163 0.4545
vn -0.7760 0.4624 0.4289
vn -0.0503 -0.9608 -0.2726
vn -0.1257 0.5760 0.8077
vn -0.2054 0.4906 0.8468
vn -0.0479 0.5521 0.8324
vn -0.4951 0.4930 0.7154
vn -0.1655 -0.9489 -0.2687
vn 0.3817 0.4490 0.8079
vn -0.0264 0.6174 0.7862
vn 0.0523 0.3086 0.9497
vn 0.6675 0.4530 0.5910
vn -0.2527 -0.9476 -0.1954
vn 0.7684 0.4251 0.4784
vn 0.8132 0.4562 0.3613
vn 0.7414 0.6016 0.2974
vn 0.7186 0.4452 0.5342
vn -0.2870 -0.9579 0.0078
vn 0.8270 0.5240 -0.2038
vn 0.8676 0.4508 -0.2099
vn 0.8298 0.5375 -0.1499
vn 0.8992 0.4138 -0.1420
vn 0.3051 -0.9514 0.0423
vn -0.7749 0.5676 -0.2783
vn -0.9094 0.2821 -0.3057
vn -0.8993 0.3670 -0.2377
vn -0.8251 0.2957 -0.4814
vn 0.2995 -0.9447 -0.1331
vn -0.8259 0.4675 0.3152
vn -0.8724 0.2611 0.4133
vn -0.7074 0.2148 0.6734
vn -0.6850 0.2653 0.6785
vn 0.1126 -0.9416 -0.3173
vn -0.5127 0.4529 0.7294
vn -0.4506 0.3216 0.8328
vn -0.4521 0.3107 0.8361
vn -0.2797 0.2536 0.9260
vn -0.0358 -0.9395 -0.3408
vn 0.2198 0.3396 0.9145
vn 0.3910 0.3519 0.8504
vn 0.1000 0.3547 0.9296
vn 0.0962 0.2951 0.9506
vn -0.2963 -0.9395 -0.1718
vn 0.7956 0.2902 0.5318
vn 0.7254 0.4534 0.5178
vn 0.8665 0.2805 0.4129
vn 0.8595 0.3136 0.4036
vn -0.3248 -0.9436 -0.0650
vn 0.9471 0.3061 -0.0970
vn 0.9191 0.3812 -0.1000
vn 0.9149 0.3748 0.1498
vn 0.8807 0.3171 0.3519
vn -0.2414 -0.9576 0.1575
vn 0.6685 0.4393 -0.6001
vn 0.4806 0.2671 -0.8353
vn 0.4382 0.3257 -0.8378
vn 0.4319 0.3431 -0.8341
vn 0.0214 -0.9584 0.2846
vn 0.0346 0.4855 -0.8735
vn 0.1596 0.4031 -0.9011
vn 0.3398 0.3502 -0.8729
vn 0.3429 0.3376 -0.8766
vn 0.1609 -0.9560 0.2454
vn -0.6232 0.3808 -0.6831
vn -0.6191 0.3970 -0.6776
vn -0.5973 0.2829 -0.7505
vn -0.7053 0.3117 -0.6367
vn 0.5177 0.0340 -0.8549
vn 0.9696 0.0405 0.2413
vn 0.8361 0.0398 0.5472
vn 0.0741 0.0379 0.9965
vn -0.8387 0.0431 0.5429
vn 0.3569 0.8391 -0.4105
vn -0.2127 0.9771 0.0111
vn -0.1808 0.9807 -0.0748
vn 0.3579 0.7805 -0.5126
vn -0.9646 0.0316 -0.2618
vn -0.5651 0.0333 -0.8244
vn -0.0280 -0.9852 -0.1692
vn -0.0508 -0.9981 0.0358
vn 0.0253 -0.9798 -0.1982
vn 0.0170 -0.9833 -0.1811
vn -0.8229 0.5390 -0.1799
vn -0.8037 0.5672 -0.1797
vn -0.7909 0.5615 -0.2431
vn -0.6701 0.5713 0.4740
vn -0.5311 0.6545 0.5381
vn -0.6350 0.4449 0.6316
vn -0.2152 0.5752 0.7892
vn -0.2459 0.6056 0.7568
vn -0.2907 0.4368 0.8513
vn 0.3942 0.6604 0.6391
vn 0.4707 0.5977 0.6490
vn 0.7725 0.5356 0.3410
vn 0.4934 0.7615 0.4204
vn 0.7253 0.5084 0.4642
vn 0.5898 0.6300 0.5052
vn 0.7701 0.6109 -0.1837
vn 0.4845 0.7910 -0.3735
vn 0.9739 0.2223 0.0463
vn 0.3849 0.6996 -0.6020
vn 0.6278 0.5588 -0.5419
vn 0.3116 0.6636 -0.6801
vn -0.0695 0.6855 -0.7247
vn -0.0817 0.6666 -0.7409
vn -0.3779 0.6239 -0.6840
vn -0.6327 0.5468 -0.5484
vn -0.4128 0.5407 -0.7330
vn -0.0485 0.2780 -0.9593
vn 0.4336 0.7094 -0.5557
vn 0.5635 0.4057 -0.7196
vn 0.5729 0.5699 -0.5890
vn -0.0906 0.7771 -0.6229
vn 0.0183 0.2062 -0.9783
vn 0.3204 0.4685 -0.8233
vn -0.5722 0.5351 -0.6214
vn -0.6488 0.3233 -0.6889
vn -0.4608 0.4741 -0.7502
vn -0.7642 0.6305 -0.1359
vn -0.9145 0.3998 -0.0627
vn -0.8326 0.5296 0.1622
vn -0.6339 0.5898 0.5003
vn -0.7297 0.4815 0.4855
vn -0.7063 0.4869 0.5139
vn -0.2050 0.4965 0.8435
vn -0.0577 0.6128 0.7881
vn -0.5277 0.2796 0.8021
vn 0.4155 0.5068 0.7554
vn 0.4398 0.3531 0.8258
vn 0.5765 0.6587 0.4834
vn 0.7503 0.5716 0.3321
vn 0.8179 0.4513 0.3568
vn 0.6922 0.4913 0.5287
vn 0.7716 0.6264 -0.1105
vn 0.7783 0.5449 -0.3120
vn 0.8287 0.4502 -0.3324
vn -0.8661 0.4656 -0.1818
vn -0.9183 0.3157 -0.2388
vn -0.8450 0.2447 -0.4755
vn -0.8286 0.4018 0.3899
vn -0.8872 0.3054 0.3458
vn -0.8350 0.3625 0.4140
vn -0.4806 0.4028 0.7789
vn -0.5278 0.3939 0.7525
vn -0.3096 0.3665 0.8774
vn 0.2227 0.3429 0.9126
vn 0.2211 0.4774 0.8504
vn 0.3867 0.2672 0.8826
vn 0.7899 0.2661 0.5525
vn 0.7253 0.4532 0.5181
vn 0.7853 0.3225 0.5285
vn 0.8530 0.5135 0.0933
vn 0.9619 0.2379 0.1345
vn 0.9015 0.2669 0.3407
vn 0.5899 0.5196 -0.6181
vn 0.6264 0.4119 -0.6618
vn 0.4628 0.3404 -0.8185
vn 0.1610 0.3414 -0.9260
vn 0.1594 0.4030 -0.9012
vn 0.1898 0.3021 -0.9342
vn -0.4962 0.4967 -0.7121
vn -0.5710 0.3550 -0.7402
vn -0.7010 0.3444 -0.6244
vt 0.587500 0.357143
vt 0.550000 0.381886
vt 0.550000 0.332399
vt 0.462500 0.357143
vt 0.425000 0.381886
vt 0.425000 0.332399
vt 0.462500 0.500000
vt 0.425000 0.524744
vt 0.425000 0.475256
vt 0.337500 0.357143
vt 0.300000 0.381886
vt 0.300000 0.332399
s 0
usemtl Palette
f 1/1/1 4/2/1 3/3/1
f 4/1/2 5/2/2 3/3/2
f 5/1/3 8/2/3 7/3/3
f 8/1/4 9/2/4 7/3/4
f 9/1/5 12/2/5 11/3/5
f 8/1/6 6/2/6 12/3/6
f 12/1/7 13/2/7 11/3/7
f 14/1/8 1/2/8 13/3/8
f 11/1/9 13/2/9 5/3/9
f 15/4/10 21/5/10 16/6/10
f 21/7/11 17/8/11 16/9/11
f 17/10/12 23/11/12 18/12/12
f 18/7/13 24/8/13 19/9/13
f 19/7/14 24/8/14 20/9/14
f 15/4/15 25/5/15 21/6/15
f 21/10/16 26/11/16 22/12/16
f 26/10/17 23/11/17 22/12/17
f 23/7/18 28/8/18 24/9/18
f 24/7/19 28/8/19 20/9/19
f 15/4/20 29/5/20 25/6/20
f 25/7/21 30/8/21 26/9/21
f 26/10/22 31/11/22 27/12/22
f 27/7/23 32/8/23 28/9/23
f 28/7/24 32/8/24 20/9/24
f 15/4/25 33/5/25 29/6/25
f 29/7/26 34/8/26 30/9/26
f 30/10/27 35/11/27 31/12/27
f 35/7/28 32/8/28 31/9/28
f 32/7/29 36/8/29 20/9/29
f 15/4/30 37/5/30 33/6/30
f 33/7/31 38/8/31 34/9/31
f 34/10/32 39/11/32 35/12/32
f 35/10/33 40/11/33 36/12/33
f 36/7/34 40/8/34 20/9/34
f 15/4/35 41/5/35 37/6/35
f 37/7/36 42/8/36 38/9/36
f 42/10/37 39/11/37 38/12/37
f 43/10/38 40/11/38 39/12/38
f 40/7/39 44/8/39 20/9/39
f 15/4/40 45/5/40 41/6/40
f 45/7/41 42/8/41 41/9/41
f 46/10/42 43/11/42 42/12/42
f 47/7/43 44/8/43 43/9/43
f 44/7/44 48/8/44 20/9/44
f 15/4/45 49/5/45 45/6/45
f 45/7/46 50/8/46 46/9/46
f 46/10/47 51/11/47 47/12/47
f 47/7/48 52/8/48 48/9/48
f 48/7/49 52/8/49 20/9/49
f 15/4/50 16/5/50 49/6/50
f 49/7/51 17/8/51 50/9/51
f 17/10/52 51/11/52 50/12/52
f 18/7/53 52/8/53 51/9/53
f 52/7/54 19/8/54 20/9/54
f 53/4/55 59/5/55 54/6/55
f 59/7/56 55/8/56 54/9/56
f 55/10/57 61/11/57 56/12/57
f 56/7/58 62/8/58 57/9/58
f 57/7/59 62/8/59 58/9/59
f 53/4/60 63/5/60 59/6/60
f 63/7/61 60/8/61 59/9/61
f 64/10/62 61/11/62 60/12/62
f 65/7/63 62/8/63 61/9/63
f 62/7/64 66/8/64 58/9/64
f 53/4/65 67/5/65 63/6/65
f 67/7/66 64/8/66 63/9/66
f 64/10/67 69/11/67 65/12/67
f 69/7/68 66/8/68 65/9/68
f 66/7/69 70/8/69 58/9/69
f 53/4/70 71/5/70 67/6/70
f 67/7/71 72/8/71 68/9/71
f 68/10/72 73/11/72 69/12/72
f 73/7/73 70/8/73 69/9/73
f 70/7/74 74/8/74 58/9/74
f 53/4/75 75/5/75 71/6/75
f 71/7/76 76/8/76 72/9/76
f 72/10/77 77/11/77 73/12/77
f 73/7/78 78/8/78 74/9/78
f 74/7/79 78/8/79 58/9/79
f 53/4/80 79/5/80 75/6/80
f 79/7/81 76/8/81 75/9/81
f 80/10/82 77/11/82 76/12/82
f 81/7/83 78/8/83 77/9/83
f 78/7/84 82/8/84 58/9/84
f 53/4/85 83/5/85 79/6/85
f 83/10/86 80/11/86 79/12/86
f 80/10/87 85/11/87 81/12/87
f 85/7/88 82/8/88 81/9/88
f 82/7/89 86/8/89 58/9/89
f 53/4/90 87/5/90 83/6/90
f 87/10/91 84/11/91 83/12/91
f 84/10/92 89/11/92 85/12/92
f 89/7/93 86/8/93 85/9/93
f 86/7/94 90/8/94 58/9/94
f 53/4/95 54/5/95 87/6/95
f 87/7/96 55/8/96 88/9/96
f 55/10/97 89/11/97 88/12/97
f 89/7/98 57/8/98 90/9/98
f 90/7/99 57/8/99 58/9/99
f 91/4/100 97/5/100 92/6/100
f 92/7/101 98/8/101 93/9/101
f 98/10/102 94/11/102 93/12/102
f 99/7/103 95/8/103 94/9/103
f 95/7/104 100/8/104 96/9/104
f 91/4/105 101/5/105 97/6/105
f 97/10/106 102/11/106 98/12/106
f 98/10/107 103/11/107 99/12/107
f 99/7/108 104/8/108 100/9/108
f 100/7/109 104/8/109 96/9/109
f 91/4/110 105/5/110 101/6/110
f 101/10/111 106/11/111 102/12/111
f 102/10/112 107/11/112 103/12/112
f 107/7/113 104/8/113 103/9/113
f 104/7/114 108/8/114 96/9/114
f 91/4/115 109/5/115 105/6/115
f 109/10/116 106/11/116 105/12/116
f 106/10/117 111/11/117 107/12/117
f 107/7/118 112/8/118 108/9/118
f 108/7/119 112/8/119 96/9/119
f 91/4/120 113/5/120 109/6/120
f 113/10/121 110/11/121 109/12/121
f 114/10/122 111/11/122 110/12/122
f 111/7/123 116/8/123 112/9/123
f 112/7/124 116/8/124 96/9/124
f 91/4/125 117/5/125 113/6/125
f 113/10/126 118/11/126 114/12/126
f 118/10/127 115/11/127 114/12/127
f 119/7/128 116/8/128 115/9/128
f 116/7/129 120/8/129 96/9/129
f 91/4/130 121/5/130 117/6/130
f 121/10/131 118/11/131 117/12/131
f 118/10/132 123/11/132 119/12/132
f 119/7/133 124/8/133 120/9/133
f 120/7/134 124/8/134 96/9/134
f 91/4/135 125/5/135 121/6/135
f 125/10/136 122/11/136 121/12/136
f 122/10/137 127/11/137 123/12/137
f 123/7/138 128/8/138 124/9/138
f 124/7/139 128/8/139 96/9/139
f 91/4/140 92/5/140 125/6/140
f 125/10/141 93/11/141 126/12/141
f 93/10/142 127/11/142 126/12/142
f 94/7/143 128/8/143 127/9/143
f 128/7/144 95/8/144 96/9/144
f 1/1/145 2/2/145 4/3/145
f 4/1/146 6/2/146 5/3/146
f 5/1/147 6/2/147 8/3/147
f 8/1/148 10/2/148 9/3/148
f 9/1/149 10/2/149 12/3/149
f 6/1/150 4/2/150 2/3/150
f 2/1/151 14/2/151 6/3/151
f 14/1/152 12/2/152 6/3/152
f 12/1/153 10/2/153 8/3/153
f 12/1/154 14/2/154 13/3/154
f 14/1/155 2/2/155 1/3/155
f 13/1/156 1/2/156 3/3/156
f 3/1/157 5/2/157 13/3/157
f 5/1/158 7/2/158 11/3/158
f 7/1/159 9/2/159 11/3/159
f 21/7/160 22/8/160 17/9/160
f 17/10/161 22/11/161 23/12/161
f 18/7/162 23/8/162 24/9/162
f 21/10/163 25/11/163 26/12/163
f 26/10/164 27/11/164 23/12/164
f 23/7/165 27/8/165 28/9/165
f 25/7/166 29/8/166 30/9/166
f 26/10/167 30/11/167 31/12/167
f 27/7/168 31/8/168 32/9/168
f 29/7/169 33/8/169 34/9/169
f 30/10/170 34/11/170 35/12/170
f 35/7/171 36/8/171 32/9/171
f 33/7/172 37/8/172 38/9/172
f 34/10/173 38/11/173 39/12/173
f 35/10/174 39/11/174 40/12/174
f 37/7/175 41/8/175 42/9/175
f 42/10/176 43/11/176 39/12/176
f 43/10/177 44/11/177 40/12/177
f 45/7/178 46/8/178 42/9/178
f 46/10/179 47/11/179 43/12/179
f 47/7/180 48/8/180 44/9/180
f 45/7/181 49/8/181 50/9/181
f 46/10/182 50/11/182 51/12/182
f 47/7/183 51/8/183 52/9/183
f 49/7/184 16/8/184 17/9/184
f 17/10/185 18/11/185 51/12/185
f 18/7/186 19/8/186 52/9/186
f 59/7/187 60/8/187 55/9/187
f 55/10/188 60/11/188 61/12/188
f 56/7/189 61/8/189 62/9/189
f 63/7/190 64/8/190 60/9/190
f 64/10/191 65/11/191 61/12/191
f 65/7/192 66/8/192 62/9/192
f 67/7/193 68/8/193 64/9/193
f 64/10/194 68/11/194 69/12/194
f 69/7/195 70/8/195 66/9/195
f 67/7/196 71/8/196 72/9/196
f 68/10/197 72/11/197 73/12/197
f 73/7/198 74/8/198 70/9/198
f 71/7/199 75/8/199 76/9/199
f 72/10/200 76/11/200 77/12/200
f 73/7/201 77/8/201 78/9/201
f 79/7/202 80/8/202 76/9/202
f 80/10/203 81/11/203 77/12/203
f 81/7/204 82/8/204 78/9/204
f 83/10/205 84/11/205 80/12/205
f 80/10/206 84/11/206 85/12/206
f 85/7/207 86/8/207 82/9/207
f 87/10/208 88/11/208 84/12/208
f 84/10/209 88/11/209 89/12/209
f 89/7/210 90/8/210 86/9/210
f 87/7/211 54/8/211 55/9/211
f 55/10/212 56/11/212 89/12/212
f 89/7/213 56/8/213 57/9/213
f 92/7/214 97/8/214 98/9/214
f 98/10/215 99/11/215 94/12/215
f 99/7/216 100/8/216 95/9/216
f 97/10/217 101/11/217 102/12/217
f 98/10/218 102/11/218 103/12/218
f 99/7/219 103/8/219 104/9/219
f 101/10/220 105/11/220 106/12/220
f 102/10/221 106/11/221 107/12/221
f 107/7/222 108/8/222 104/9/222
f 109/10/223 110/11/223 106/12/223
f 106/10/224 110/11/224 111/12/224
f 107/7/225 111/8/225 112/9/225
f 113/10/226 114/11/226 110/12/226
f 114/10/227 115/11/227 111/12/227
f 111/7/228 115/8/228 116/9/228
f 113/10/229 117/11/229 118/12/229
f 118/10/230 119/11/230 115/12/230
f 119/7/231 120/8/231 116/9/231
f 121/10/232 122/11/232 118/12/232
f 118/10/233 122/11/233 123/12/233
f 119/7/234 123/8/234 124/9/234
f 125/10/235 126/11/235 122/12/235
f 122/10/236 126/11/236 127/12/236
f 123/7/237 127/8/237 128/9/237
f 125/10/238 92/11/238 93/12/238
f 93/10/239 94/11/239 127/12/239
f 94/7/240 95/8/240 128/9/240
