# Blender 5.0.1
# www.blender.org
mtllib campfire.mtl
o campfire_Main
v 1.962366 0.021377 -0.011970
v 2.342975 0.251547 0.209144
v 1.808061 0.262913 0.351395
v 1.471403 0.260547 -0.034507
v 1.802176 0.234419 -0.383102
v 2.352026 0.270267 -0.243069
v 2.128000 0.600970 0.358244
v 1.538363 0.618823 0.242463
v 1.556584 0.612043 -0.274018
v 2.120498 0.616763 -0.412483
v 2.427022 0.585548 -0.018538
v 1.971648 0.839109 -0.030782
v 1.860071 0.087270 0.208190
v 2.194971 0.111182 0.115433
v 2.094235 0.213815 0.328390
v 2.406716 0.244960 -0.019751
v 2.200230 0.088095 -0.152353
v 1.690017 0.089347 -0.033073
v 1.585851 0.207088 0.189215
v 1.865281 0.097315 -0.244684
v 1.591781 0.214842 -0.251443
v 2.099498 0.211036 -0.362346
v 2.450969 0.430929 0.111848
v 2.461385 0.419145 -0.149449
v 1.965098 0.431202 0.428553
v 2.276796 0.418702 0.320902
v 1.433165 0.435924 0.115247
v 1.637168 0.427398 0.353802
v 1.622658 0.406298 -0.382485
v 1.434266 0.417841 -0.151880
v 2.286030 0.407403 -0.376009
v 1.959307 0.431776 -0.453967
v 2.333312 0.618989 0.190047
v 1.824378 0.650677 0.367182
v 1.473662 0.657862 -0.005018
v 1.823452 0.645064 -0.388096
v 2.336268 0.627140 -0.230243
v 2.067955 0.783044 0.217486
v 2.262304 0.772080 -0.027394
v 1.731074 0.784497 0.132858
v 1.716205 0.786724 -0.153848
v 2.062359 0.769097 -0.255979
v 1.477589 0.047036 -1.291887
v 1.885858 0.239100 -1.065747
v 1.340784 0.248391 -0.959445
v 1.043691 0.253143 -1.309480
v 1.349289 0.254327 -1.660138
v 1.899009 0.233648 -1.520947
v 1.655273 0.582283 -0.933033
v 1.110764 0.598251 -1.081318
v 1.115507 0.579582 -1.506544
v 1.641076 0.599338 -1.681001
v 1.969858 0.604303 -1.294814
v 1.508872 0.804706 -1.289263
v 1.420535 0.104581 -1.101956
v 1.729379 0.092837 -1.179778
v 1.636978 0.214079 -0.953166
v 1.946700 0.215316 -1.299194
v 1.726121 0.110978 -1.449916
v 1.236093 0.125786 -1.321450
v 1.131954 0.241521 -1.088289
v 1.409136 0.091698 -1.523225
v 1.128334 0.240025 -1.523953
v 1.640643 0.218608 -1.641591
v 2.019118 0.437408 -1.173858
v 1.995516 0.431249 -1.437959
v 1.491348 0.424784 -0.888405
v 1.795379 0.437460 -0.942631
v 0.992997 0.418254 -1.169374
v 1.194654 0.422266 -0.978101
v 1.193212 0.415374 -1.642776
v 1.006336 0.427545 -1.430595
v 1.792681 0.409958 -1.641113
v 1.500816 0.437316 -1.733261
v 1.871974 0.632605 -1.078697
v 1.369823 0.604355 -0.954279
v 1.055443 0.599156 -1.296486
v 1.343528 0.625253 -1.626315
v 1.846519 0.612360 -1.523345
v 1.570550 0.739510 -1.098250
v 1.765063 0.752735 -1.303048
v 1.271105 0.732509 -1.186198
v 1.274989 0.728019 -1.439003
v 1.587021 0.727967 -1.516094
v 0.294892 0.024248 -1.979167
v 0.709036 0.257717 -1.760334
v 0.150735 0.268462 -1.631721
v -0.153473 0.273538 -2.002561
v 0.155947 0.258430 -2.341799
v 0.687837 0.255219 -2.203555
v 0.463885 0.599133 -1.643649
v -0.071660 0.566396 -1.761835
v -0.050527 0.570580 -2.192182
v 0.437942 0.570651 -2.330760
v 0.767941 0.576551 -1.977555
v 0.322162 0.792339 -1.977690
v 0.229416 0.100717 -1.775366
v 0.548594 0.078946 -1.854264
v 0.443765 0.219366 -1.631325
v 0.783679 0.203903 -1.986094
v 0.540522 0.082179 -2.136533
v 0.036163 0.088001 -1.975669
v -0.043158 0.227820 -1.766963
v 0.216890 0.075510 -2.198746
v -0.071290 0.232041 -2.216289
v 0.465544 0.231002 -2.344851
v 0.819623 0.422042 -1.861407
v 0.810266 0.417184 -2.111696
v 0.315151 0.433285 -1.559609
v 0.618868 0.431811 -1.650025
v -0.170510 0.414743 -1.853840
v -0.008078 0.436997 -1.642280
v 0.002887 0.430480 -2.345049
v -0.187510 0.435831 -2.130119
v 0.619563 0.415354 -2.321798
v 0.297513 0.407941 -2.412531
v 0.672414 0.604029 -1.796749
v 0.181850 0.612918 -1.657472
v -0.111691 0.619218 -1.984909
v 0.157022 0.603871 -2.339316
v 0.650165 0.620476 -2.208014
v 0.398697 0.726808 -1.789638
v 0.568399 0.742378 -1.983787
v 0.103696 0.725574 -1.853920
v 0.088147 0.710508 -2.129409
v 0.403531 0.729337 -2.187867
v -1.036630 0.038657 -1.754998
v -0.644377 0.252190 -1.515934
v -1.173174 0.257133 -1.374793
v -1.524464 0.259163 -1.750875
v -1.196961 0.242178 -2.157170
v -0.612872 0.217650 -2.001232
v -0.886636 0.604536 -1.352376
v -1.426724 0.609388 -1.514041
v -1.445450 0.623876 -2.008176
v -0.886238 0.642659 -2.166168
v -0.525162 0.631380 -1.741594
v -1.030896 0.840865 -1.738708
v -1.133890 0.082110 -1.527821
v -0.805210 0.080818 -1.606420
v -0.906290 0.202346 -1.382575
v -0.542863 0.200398 -1.757905
v -0.812885 0.055883 -1.882444
v -1.329595 0.083459 -1.736792
v -1.415645 0.227969 -1.526141
v -1.130923 0.067646 -1.979106
v -1.424587 0.197102 -1.991367
v -0.900640 0.188320 -2.142667
v -0.487597 0.433143 -1.591355
v -0.493623 0.420476 -1.906743
v -1.044685 0.428341 -1.324107
v -0.724851 0.425048 -1.383870
v -1.572336 0.424808 -1.600287
v -1.346421 0.419649 -1.399204
v -1.380925 0.433651 -2.138460
v -1.564253 0.405714 -1.894311
v -0.691903 0.417067 -2.168827
v -1.053785 0.428799 -2.239254
v -0.646891 0.646010 -1.509635
v -1.173957 0.639655 -1.405691
v -1.520277 0.654526 -1.759795
v -1.182659 0.665476 -2.158837
v -0.630966 0.669117 -2.010429
v -0.941151 0.758179 -1.511640
v -0.744776 0.793464 -1.752639
v -1.285588 0.783794 -1.598970
v -1.296865 0.799266 -1.911190
v -0.942078 0.808402 -2.010536
v -1.917319 0.000000 -0.705500
v -1.493472 0.227081 -0.466396
v -2.058486 0.230993 -0.308177
v -2.435957 0.223363 -0.703129
v -2.089020 0.227316 -1.130978
v -1.478078 0.201418 -0.955267
v -1.771050 0.617545 -0.310599
v -2.311477 0.607050 -0.475916
v -2.331089 0.609677 -0.949105
v -1.761843 0.632697 -1.136910
v -1.389285 0.620102 -0.699299
v -1.926327 0.852741 -0.712842
v -2.002339 0.057113 -0.478075
v -1.686877 0.070548 -0.549026
v -1.761436 0.212777 -0.324272
v -1.426012 0.176314 -0.713662
v -1.664001 0.038989 -0.871297
v -2.219500 0.052368 -0.691371
v -2.313055 0.190378 -0.464428
v -2.020089 0.044840 -0.935081
v -2.319852 0.208808 -0.934647
v -1.766959 0.195717 -1.116056
v -1.358922 0.425400 -0.567028
v -1.338479 0.431160 -0.847064
v -1.923583 0.430206 -0.238729
v -1.579529 0.417521 -0.320616
v -2.456298 0.425345 -0.574636
v -2.252917 0.407422 -0.333701
v -2.270312 0.438558 -1.101644
v -2.448014 0.430271 -0.849045
v -1.571177 0.440961 -1.125494
v -1.932468 0.440072 -1.225670
v -1.529628 0.663451 -0.474061
v -2.075971 0.639638 -0.330949
v -2.387732 0.648913 -0.694799
v -2.067563 0.670416 -1.113137
v -1.497163 0.670201 -0.956353
v -1.827875 0.777483 -0.465630
v -1.615105 0.785023 -0.698801
v -2.160734 0.768421 -0.573666
v -2.146582 0.786988 -0.860011
v -1.833187 0.818193 -0.959385
v -1.916723 0.065711 0.657308
v -1.552883 0.292687 0.870886
v -2.059389 0.269051 1.008378
v -2.403359 0.233905 0.672553
v -2.060995 0.255460 0.288262
v -1.562845 0.257330 0.446864
v -1.771066 0.560236 1.008816
v -2.306500 0.588570 0.912707
v -2.330137 0.596199 0.432635
v -1.786165 0.573889 0.294265
v -1.491915 0.578468 0.678861
v -1.916784 0.815235 0.655005
v -2.003028 0.109588 0.876354
v -1.712239 0.147191 0.781674
v -1.787502 0.260244 0.980287
v -1.491980 0.258979 0.657193
v -1.719801 0.137318 0.540950
v -2.205604 0.082775 0.659206
v -2.287448 0.227889 0.892587
v -1.995845 0.105488 0.464635
v -2.312713 0.197642 0.423229
v -1.795146 0.237088 0.314653
v -1.478655 0.437528 0.783299
v -1.471158 0.419642 0.533510
v -1.922339 0.409496 1.070608
v -1.632370 0.430812 0.975416
v -2.445065 0.424882 0.816931
v -2.237653 0.409701 0.996865
v -2.235840 0.423347 0.309240
v -2.461385 0.427513 0.521902
v -1.612047 0.437306 0.354068
v -1.914717 0.428118 0.245165
v -1.571784 0.615188 0.860954
v -2.068336 0.608328 1.004697
v -2.384398 0.630796 0.671900
v -2.046447 0.629222 0.306138
v -1.568289 0.616930 0.476289
v -1.829459 0.739637 0.870017
v -1.641230 0.736503 0.675979
v -2.148794 0.758845 0.792142
v -2.137874 0.754994 0.517357
v -1.845006 0.734292 0.453742
v -1.044358 0.034250 1.697873
v -0.625097 0.252667 1.942695
v -1.208069 0.232012 2.096396
v -1.541964 0.232662 1.715499
v -1.192006 0.247857 1.319073
v -0.622840 0.250274 1.479441
v -0.872879 0.591505 2.105138
v -1.451375 0.612603 1.953781
v -1.466562 0.610327 1.453422
v -0.869165 0.614534 1.321736
v -0.534771 0.598914 1.697817
v -1.026729 0.847259 1.715971
v -1.138147 0.090944 1.940615
v -0.788338 0.083122 1.838858
v -0.902431 0.215174 2.078290
v -0.573709 0.194892 1.697752
v -0.813694 0.071259 1.584006
v -1.346442 0.067221 1.721623
v -1.411639 0.207153 1.944457
v -1.133560 0.079704 1.497024
v -1.421265 0.205224 1.491577
v -0.903037 0.205194 1.341288
v -0.518443 0.430684 1.867286
v -0.502076 0.434257 1.582530
v -1.046029 0.405552 2.172898
v -0.720706 0.434202 2.077572
v -1.590966 0.408459 1.860781
v -1.362197 0.417404 2.094422
v -1.380901 0.436714 1.319724
v -1.600368 0.409294 1.566069
v -0.700998 0.409321 1.325653
v -1.033053 0.419711 1.255409
v -0.650852 0.643938 1.948535
v -1.191540 0.634690 2.087855
v -1.532127 0.647115 1.725142
v -1.201199 0.644894 1.324750
v -0.648396 0.635747 1.463132
v -0.946009 0.782559 1.944006
v -0.730473 0.798609 1.717852
v -1.276453 0.789156 1.873672
v -1.282368 0.797930 1.550610
v -0.939762 0.795174 1.468116
v 0.314238 0.034844 1.963969
v 0.718630 0.242039 2.177870
v 0.159991 0.242204 2.340089
v -0.200401 0.243031 1.945046
v 0.152351 0.256256 1.582628
v 0.697948 0.262955 1.705310
v 0.471931 0.588165 2.349219
v -0.108478 0.616572 2.202308
v -0.089176 0.612817 1.703708
v 0.461150 0.597817 1.588913
v 0.795324 0.587287 1.953557
v 0.313397 0.820820 1.937773
v 0.221976 0.078931 2.189883
v 0.529898 0.092708 2.077073
v 0.465599 0.218407 2.323663
v 0.781778 0.225187 1.950572
v 0.541991 0.099398 1.822437
v 0.020700 0.089468 1.960071
v -0.087687 0.209869 2.180245
v 0.204927 0.080750 1.727910
v -0.062760 0.198740 1.733297
v 0.465177 0.210727 1.614832
v 0.837770 0.422397 2.100417
v 0.831209 0.422853 1.809182
v 0.301835 0.427692 2.412531
v 0.630796 0.434781 2.316526
v -0.245214 0.423394 2.102469
v -0.034214 0.418153 2.315538
v -0.021121 0.436376 1.595981
v -0.240288 0.427856 1.797220
v 0.638162 0.416830 1.590700
v 0.309827 0.407083 1.498617
v 0.700895 0.624833 2.172761
v 0.176947 0.621256 2.328764
v -0.184713 0.631367 1.950271
v 0.166025 0.628582 1.585443
v 0.693562 0.645159 1.723509
v 0.410680 0.782593 2.168146
v 0.611021 0.752560 1.951249
v 0.066581 0.794087 2.091594
v 0.073524 0.765157 1.803555
v 0.403242 0.754013 1.738594
v 1.497689 0.002708 1.269131
v 1.879338 0.236970 1.498834
v 1.336659 0.220872 1.689289
v 0.940683 0.215865 1.272317
v 1.326697 0.216687 0.819659
v 1.894074 0.234150 1.016642
v 1.639935 0.597712 1.671350
v 1.052004 0.637484 1.535793
v 1.061880 0.623343 0.985531
v 1.655853 0.632151 0.850564
v 2.014867 0.619994 1.280083
v 1.486569 0.868319 1.277009
v 1.397831 0.049511 1.511088
v 1.727933 0.063716 1.402121
v 1.637283 0.211133 1.650279
v 1.957107 0.192944 1.259263
v 1.744455 0.079608 1.124788
v 1.194664 0.023033 1.254765
v 1.091795 0.196702 1.520425
v 1.401654 0.056128 1.026670
v 1.089333 0.166073 1.014292
v 1.646065 0.181174 0.867459
v 2.026600 0.430904 1.407520
v 2.020593 0.422052 1.133172
v 1.501208 0.429950 1.743866
v 1.815568 0.427440 1.655673
v 0.913301 0.412157 1.442509
v 1.152849 0.413318 1.670775
v 1.126736 0.409515 0.842435
v 0.894299 0.411243 1.112974
v 1.835799 0.408350 0.860359
v 1.500298 0.417382 0.756745
v 1.887986 0.635871 1.492992
v 1.338448 0.658203 1.661031
v 0.966621 0.688039 1.271230
v 1.340508 0.668693 0.860461
v 1.881370 0.661831 1.020716
v 1.579869 0.780463 1.504633
v 1.786500 0.787162 1.263278
v 1.239869 0.813402 1.434000
v 1.241601 0.824636 1.117926
v 1.582552 0.793275 1.024343
v -1.370356 0.338845 -0.238715
v 1.292602 1.204092 -0.238715
v -1.317205 0.175260 -0.155883
v 1.345754 1.040508 -0.155883
v -1.304077 0.134858 0.030239
v 1.358881 1.000106 0.030239
v -1.340859 0.248062 0.179498
v 1.322099 1.113310 0.179498
v -1.399853 0.429627 0.179498
v 1.263105 1.294875 0.179498
v -1.436636 0.542831 0.030239
v 1.226323 1.408079 0.030239
v -1.423508 0.502429 -0.155883
v 1.239450 1.367677 -0.155883
v -1.135939 0.338845 0.767219
v 0.747057 1.204092 -1.115777
v -1.039783 0.175260 0.788206
v 0.843212 1.040508 -1.094790
v -0.898893 0.134858 0.910532
v 0.984103 1.000106 -0.972464
v -0.819360 0.248062 1.042083
v 1.063636 1.113310 -0.840913
v -0.861075 0.429627 1.083798
v 1.021921 1.294875 -0.799198
v -0.992625 0.542831 1.004265
v 0.890370 1.408079 -0.878731
v -1.114951 0.502429 0.863374
v 0.768044 1.367677 -1.019621
v -0.258877 0.338845 1.312764
v -0.258877 1.204092 -1.350195
v -0.176045 0.175260 1.259612
v -0.176045 1.040508 -1.403346
v 0.010077 0.134858 1.246485
v 0.010077 1.000106 -1.416474
v 0.159336 0.248062 1.283267
v 0.159336 1.113310 -1.379692
v 0.159336 0.429627 1.342261
v 0.159336 1.294875 -1.320698
v 0.010077 0.542831 1.379043
v 0.010077 1.408079 -1.283915
v -0.176045 0.502429 1.365916
v -0.176045 1.367677 -1.297043
v 0.747057 0.338845 1.078346
v -1.135939 1.204092 -0.804650
v 0.768044 0.175260 0.982191
v -1.114951 1.040508 -0.900805
v 0.890370 0.134858 0.841300
v -0.992625 1.000106 -1.041696
v 1.021921 0.248062 0.761767
v -0.861075 1.113310 -1.121229
v 1.063636 0.429627 0.803482
v -0.819360 1.294875 -1.079514
v 0.984103 0.542831 0.935033
v -0.898893 1.408079 -0.947963
v 0.843212 0.502429 1.057359
v -1.039783 1.367677 -0.825637
vn 0.1632 -0.9218 0.3517
vn 0.6088 -0.7699 0.1917
vn -0.2510 -0.9532 0.1687
vn -0.2203 -0.9507 -0.2183
vn 0.0663 -0.9401 -0.3344
vn 0.8832 -0.3922 0.2572
vn 0.0014 -0.4178 0.9085
vn -0.8329 -0.4530 0.3178
vn -0.4407 -0.4575 -0.7723
vn 0.4635 -0.4916 -0.7372
vn 0.7663 -0.1188 0.6315
vn -0.2134 -0.2356 0.9481
vn -0.9750 -0.2220 0.0110
vn -0.1896 -0.1946 -0.9624
vn 0.7798 -0.1998 -0.5932
vn 0.4563 0.6335 0.6248
vn -0.3302 0.7570 0.5638
vn -0.5870 0.7486 -0.3084
vn 0.0114 0.7187 -0.6953
vn 0.7403 0.6447 -0.1907
vn 0.2221 0.9528 -0.2067
vn 0.4505 0.7959 -0.4044
vn 0.4256 0.7224 -0.5450
vn -0.0439 0.9488 -0.3127
vn -0.1214 0.8238 -0.5538
vn -0.3446 0.7251 -0.5963
vn -0.2094 0.9777 0.0185
vn -0.4543 0.8903 0.0305
vn -0.5366 0.8006 0.2666
vn -0.0563 0.9690 0.2406
vn -0.1296 0.8380 0.5301
vn 0.1260 0.6324 0.7643
vn 0.2213 0.9662 0.1324
vn 0.5153 0.7709 0.3745
vn 0.7257 0.6514 0.2216
vn 0.8655 0.4076 -0.2910
vn 0.7647 0.2256 -0.6036
vn 0.5959 0.3448 -0.7252
vn -0.0540 0.2631 -0.9633
vn -0.2166 0.1595 -0.9631
vn -0.4056 0.3210 -0.8559
vn -0.8784 0.3459 -0.3297
vn -0.9851 0.1713 -0.0157
vn -0.9030 0.3201 0.2866
vn -0.4094 0.2915 0.8645
vn -0.2218 0.1281 0.9666
vn 0.0795 0.3154 0.9456
vn 0.5827 0.3229 0.7458
vn 0.7463 0.2034 0.6337
vn 0.8572 0.4030 0.3205
vn 0.2331 0.0149 -0.9723
vn 0.2056 -0.2609 -0.9432
vn 0.0364 -0.3633 -0.9310
vn -0.7694 0.0866 -0.6329
vn -0.7486 -0.2880 -0.5972
vn -0.8148 -0.4578 -0.3557
vn -0.7602 -0.0146 0.6496
vn -0.7325 -0.2896 0.6161
vn -0.4407 -0.4691 0.7653
vn 0.3282 0.0750 0.9416
vn 0.3082 -0.2410 0.9203
vn 0.4467 -0.3683 0.8154
vn 0.9834 0.1786 0.0311
vn 0.9630 -0.2648 0.0503
vn 0.8489 -0.4601 -0.2600
vn 0.4404 -0.6665 -0.6015
vn 0.1277 -0.8280 -0.5460
vn -0.0070 -0.7120 -0.7021
vn -0.3043 -0.7425 -0.5967
vn -0.3650 -0.8686 -0.3350
vn -0.6065 -0.7760 -0.1731
vn -0.6121 -0.7806 0.1266
vn -0.4009 -0.8739 0.2750
vn -0.3325 -0.6531 0.6803
vn 0.6813 -0.6897 -0.2450
vn 0.5691 -0.8182 0.0817
vn 0.3166 -0.9445 0.0876
vn -0.0481 -0.6397 0.7671
vn 0.1987 -0.8428 0.5002
vn 0.3733 -0.7543 0.5401
vn 0.0395 -0.9529 0.3006
vn 0.5704 -0.7888 0.2290
vn -0.3250 -0.9278 0.1835
vn -0.2981 -0.9498 -0.0952
vn 0.1098 -0.9694 -0.2196
vn 0.8609 -0.4322 0.2684
vn -0.0582 -0.3298 0.9422
vn -0.8121 -0.5019 0.2977
vn -0.4702 -0.3692 -0.8016
vn 0.4153 -0.3279 -0.8485
vn 0.7148 -0.1033 0.6917
vn -0.2855 -0.1382 0.9484
vn -0.9671 -0.2476 -0.0582
vn -0.2683 -0.1576 -0.9504
vn 0.7094 -0.0513 -0.7029
vn 0.2307 0.7612 0.6061
vn -0.2903 0.7799 0.5545
vn -0.6036 0.7592 -0.2433
vn -0.0467 0.7802 -0.6238
vn 0.5706 0.7717 -0.2808
vn 0.1786 0.9491 -0.2596
vn 0.3633 0.8408 -0.4014
vn 0.3389 0.7925 -0.5071
vn -0.0852 0.9345 -0.3455
vn -0.1264 0.8495 -0.5123
vn -0.4321 0.7146 -0.5502
vn -0.2990 0.9540 -0.0215
vn -0.5172 0.8556 -0.0231
vn -0.5746 0.8043 0.1511
vn -0.1264 0.9256 0.3567
vn -0.1757 0.8281 0.5324
vn 0.0049 0.7257 0.6880
vn 0.2054 0.9446 0.2561
vn 0.2951 0.8937 0.3379
vn 0.5756 0.8028 0.1556
vn 0.7897 0.4563 -0.4101
vn 0.6772 0.2271 -0.6999
vn 0.5699 0.2947 -0.7670
vn -0.1310 0.4052 -0.9048
vn -0.2893 0.2790 -0.9157
vn -0.4872 0.4094 -0.7714
vn -0.8404 0.4619 -0.2834
vn -0.9525 0.3022 -0.0379
vn -0.8621 0.4547 0.2236
vn -0.4259 0.2980 0.8543
vn -0.2872 0.1526 0.9457
vn -0.0461 0.3164 0.9475
vn 0.4520 0.3840 0.8051
vn 0.7043 0.1987 0.6815
vn 0.8255 0.4700 0.3123
vn 0.3045 0.0433 -0.9515
vn 0.2754 -0.2165 -0.9366
vn 0.0123 -0.3798 -0.9250
vn -0.7300 0.1974 -0.6543
vn -0.7451 -0.1627 -0.6469
vn -0.8596 -0.4026 -0.3146
vn -0.6860 0.0960 0.7212
vn -0.6720 -0.2014 0.7127
vn -0.4890 -0.3241 0.8098
vn 0.1707 0.1001 0.9802
vn 0.1799 -0.1733 0.9683
vn 0.4161 -0.3349 0.8454
vn 0.9712 0.2200 -0.0919
vn 0.9601 -0.2682 -0.0795
vn 0.9095 -0.3499 -0.2245
vn 0.3091 -0.7638 -0.5667
vn 0.1750 -0.8231 -0.5402
vn -0.0314 -0.6505 -0.7589
vn -0.3549 -0.6751 -0.6467
vn -0.4526 -0.8579 -0.2432
vn -0.5514 -0.8172 -0.1676
vn -0.5365 -0.8265 0.1706
vn -0.4046 -0.8782 0.2552
vn -0.3290 -0.7505 0.5732
vn 0.5187 -0.8357 -0.1806
vn 0.4626 -0.8842 -0.0650
vn 0.2078 -0.9758 -0.0680
vn -0.0987 -0.7275 0.6789
vn 0.0929 -0.8617 0.4989
vn 0.3245 -0.7726 0.5457
vn 0.0249 -0.9333 0.3582
vn 0.5885 -0.7207 0.3664
vn -0.2263 -0.9337 0.2776
vn -0.2387 -0.9610 -0.1396
vn 0.0679 -0.9660 -0.2496
vn 0.8603 -0.3523 0.3684
vn -0.0598 -0.3494 0.9350
vn -0.8463 -0.4313 0.3126
vn -0.4123 -0.3824 -0.8269
vn 0.5299 -0.3459 -0.7743
vn 0.7222 -0.0624 0.6888
vn -0.2460 -0.1720 0.9539
vn -0.9845 -0.1690 0.0477
vn -0.2339 -0.2259 -0.9457
vn 0.7296 -0.1768 -0.6607
vn 0.3615 0.7758 0.5171
vn -0.3690 0.7353 0.5685
vn -0.5848 0.7342 -0.3449
vn 0.1023 0.6778 -0.7281
vn 0.6321 0.7539 -0.1793
vn 0.1891 0.9583 -0.2140
vn 0.3557 0.8694 -0.3429
vn 0.2424 0.6777 -0.6942
vn -0.1165 0.9381 -0.3263
vn -0.1414 0.8631 -0.4849
vn -0.4804 0.7082 -0.5174
vn -0.3099 0.9501 -0.0345
vn -0.4303 0.9023 -0.0251
vn -0.5580 0.7795 0.2847
vn -0.0818 0.9303 0.3575
vn -0.1188 0.8402 0.5291
vn 0.0046 0.7538 0.6571
vn 0.1985 0.9478 0.2495
vn 0.3834 0.8316 0.4019
vn 0.6205 0.7547 0.2131
vn 0.8119 0.4868 -0.3222
vn 0.7150 0.2546 -0.6512
vn 0.3855 0.4029 -0.8301
vn 0.0747 0.3956 -0.9154
vn -0.2028 0.2119 -0.9560
vn -0.5502 0.5109 -0.6605
vn -0.7325 0.5822 -0.3528
vn -0.9424 0.3241 0.0827
vn -0.8735 0.4147 0.2549
vn -0.4062 0.5044 0.7620
vn -0.2305 0.3280 0.9161
vn -0.0205 0.4665 0.8843
vn 0.5203 0.4543 0.7231
vn 0.6917 0.3316 0.6416
vn 0.7869 0.5167 0.3372
vn 0.2575 0.2472 -0.9341
vn 0.2719 -0.1076 -0.9563
vn -0.0439 -0.3930 -0.9185
vn -0.6783 0.4081 -0.6110
vn -0.7422 -0.1468 -0.6539
vn -0.8817 -0.3916 -0.2630
vn -0.7912 0.1572 0.5910
vn -0.7589 -0.2348 0.6074
vn -0.4693 -0.3927 0.7909
vn 0.2791 0.2230 0.9340
vn 0.2815 -0.1486 0.9480
vn 0.4520 -0.2985 0.8406
vn 0.9565 0.2888 -0.0414
vn 0.9891 -0.1434 -0.0342
vn 0.8172 -0.3647 -0.4462
vn 0.4629 -0.6340 -0.6195
vn 0.1329 -0.7832 -0.6074
vn -0.0633 -0.6278 -0.7758
vn -0.3094 -0.6476 -0.6963
vn -0.4394 -0.8436 -0.3088
vn -0.6849 -0.7180 -0.1240
vn -0.6999 -0.6872 0.1944
vn -0.3742 -0.8299 0.4138
vn -0.3055 -0.6980 0.6477
vn 0.6015 -0.6766 -0.4248
vn 0.4590 -0.8881 -0.0233
vn 0.2189 -0.9756 -0.0174
vn -0.1143 -0.6766 0.7275
vn 0.0817 -0.8255 0.5584
vn 0.3977 -0.6804 0.6156
vn 0.0455 -0.9774 0.2064
vn 0.5590 -0.7311 0.3910
vn -0.1422 -0.9817 0.1269
vn -0.1547 -0.9860 -0.0625
vn 0.0026 -0.9916 -0.1294
vn 0.7644 -0.4853 0.4245
vn -0.0264 -0.2655 0.9637
vn -0.7969 -0.5160 0.3142
vn -0.4890 -0.3938 -0.7784
vn 0.4264 -0.4770 -0.7686
vn 0.6416 -0.2542 0.7237
vn -0.2372 -0.1078 0.9655
vn -0.9628 -0.2701 -0.0089
vn -0.2917 -0.1886 -0.9377
vn 0.7847 -0.1859 -0.5913
vn 0.2768 0.7372 0.6164
vn -0.3683 0.6307 0.6831
vn -0.6491 0.7062 -0.2827
vn 0.0353 0.6904 -0.7226
vn 0.5934 0.7957 -0.1218
vn 0.1600 0.9850 -0.0654
vn 0.3956 0.8833 -0.2515
vn 0.3154 0.7039 -0.6365
vn -0.0644 0.9882 -0.1391
vn -0.1692 0.8324 -0.5277
vn -0.4391 0.6901 -0.5753
vn -0.1893 0.9804 0.0554
vn -0.5133 0.8560 0.0610
vn -0.6286 0.6866 0.3654
vn -0.0187 0.9371 0.3486
vn -0.1032 0.7679 0.6322
vn -0.0431 0.7116 0.7013
vn 0.1702 0.9457 0.2771
vn 0.3255 0.8608 0.3912
vn 0.5671 0.7854 0.2481
vn 0.8829 0.3641 -0.2964
vn 0.7827 0.1844 -0.5945
vn 0.4481 0.3955 -0.8017
vn 0.0014 0.3224 -0.9466
vn -0.2883 0.1636 -0.9435
vn -0.5060 0.3640 -0.7820
vn -0.8936 0.3252 -0.3093
vn -0.9801 0.1946 -0.0396
vn -0.8030 0.4519 0.3887
vn -0.4045 0.3421 0.8481
vn -0.2416 0.2173 0.9457
vn -0.1420 0.2797 0.9495
vn 0.4877 0.2955 0.8215
vn 0.6418 0.1956 0.7415
vn 0.8023 0.4496 0.3927
vn 0.1935 0.1781 -0.9648
vn 0.1756 -0.2686 -0.9471
vn -0.0251 -0.3863 -0.9220
vn -0.8000 0.1299 -0.5858
vn -0.7648 -0.2325 -0.6009
vn -0.8547 -0.4626 -0.2356
vn -0.6530 0.1703 0.7380
vn -0.6479 -0.2439 0.7216
vn -0.4598 -0.3689 0.8078
vn 0.1836 -0.0070 0.9830
vn 0.1804 -0.1413 0.9734
vn 0.4760 -0.3832 0.7916
vn 0.9856 0.1674 -0.0256
vn 0.9744 -0.2245 -0.0096
vn 0.8788 -0.3862 -0.2802
vn 0.3334 -0.7900 -0.5145
vn 0.1140 -0.8693 -0.4809
vn -0.0993 -0.7288 -0.6775
vn -0.2984 -0.7346 -0.6094
vn -0.3812 -0.8888 -0.2545
vn -0.6639 -0.7431 -0.0840
vn -0.6618 -0.7163 0.2210
vn -0.4216 -0.8189 0.3895
vn -0.3383 -0.6613 0.6695
vn 0.5353 -0.8176 -0.2120
vn 0.4461 -0.8924 0.0682
vn 0.1250 -0.9884 0.0858
vn -0.1158 -0.6684 0.7347
vn 0.1198 -0.8488 0.5149
vn 0.4250 -0.7011 0.5726
vn 0.1033 -0.9549 0.2784
vn 0.5169 -0.7998 0.3052
vn -0.1595 -0.9699 0.1840
vn -0.1748 -0.9781 -0.1128
vn 0.0198 -0.9796 -0.2002
vn 0.8517 -0.4165 0.3179
vn 0.0295 -0.3468 0.9375
vn -0.8553 -0.3367 0.3938
vn -0.5765 -0.3954 -0.7151
vn 0.4532 -0.3926 -0.8003
vn 0.7371 -0.1680 0.6546
vn -0.2640 -0.1532 0.9523
vn -0.9963 -0.0803 -0.0315
vn -0.3394 -0.1626 -0.9265
vn 0.7548 -0.1589 -0.6364
vn 0.2921 0.7171 0.6328
vn -0.4303 0.7265 0.5357
vn -0.6048 0.7557 -0.2513
vn 0.0303 0.6972 -0.7163
vn 0.5873 0.8044 -0.0897
vn 0.2147 0.9751 -0.0555
vn 0.3951 0.8926 -0.2170
vn 0.3211 0.7163 -0.6195
vn -0.1583 0.9678 -0.1954
vn -0.2327 0.8537 -0.4658
vn -0.4721 0.7355 -0.4861
vn -0.3138 0.9484 0.0460
vn -0.4794 0.8770 0.0332
vn -0.5742 0.7437 0.3423
vn -0.1349 0.9317 0.3373
vn -0.1886 0.8387 0.5109
vn 0.0026 0.6965 0.7176
vn 0.1986 0.9568 0.2122
vn 0.3440 0.8744 0.3422
vn 0.5772 0.7897 0.2077
vn 0.8544 0.4427 -0.2723
vn 0.7530 0.2156 -0.6217
vn 0.4697 0.4209 -0.7760
vn -0.0170 0.4308 -0.9023
vn -0.3349 0.2477 -0.9091
vn -0.5453 0.4415 -0.7126
vn -0.8689 0.4220 -0.2587
vn -0.9593 0.2814 -0.0239
vn -0.8141 0.4482 0.3693
vn -0.5214 0.3883 0.7598
vn -0.2843 0.2055 0.9365
vn -0.0340 0.3820 0.9236
vn 0.4601 0.4009 0.7922
vn 0.7154 0.2596 0.6487
vn 0.8065 0.4131 0.4230
vn 0.2611 0.2035 -0.9436
vn 0.2597 -0.2433 -0.9345
vn 0.0023 -0.4080 -0.9130
vn -0.8025 0.2120 -0.5576
vn -0.7904 -0.2394 -0.5639
vn -0.8504 -0.3354 -0.4054
vn -0.7333 0.2385 0.6367
vn -0.7594 -0.1682 0.6285
vn -0.4426 -0.3695 0.8171
vn 0.2341 0.1762 0.9561
vn 0.2189 -0.2115 0.9525
vn 0.4445 -0.4091 0.7969
vn 0.9762 0.2035 0.0754
vn 0.9536 -0.2943 0.0636
vn 0.8759 -0.4227 -0.2327
vn 0.3509 -0.7146 -0.6052
vn 0.0873 -0.8218 -0.5630
vn -0.0412 -0.7383 -0.6732
vn -0.4034 -0.7360 -0.5437
vn -0.4511 -0.8237 -0.3436
vn -0.5921 -0.7666 -0.2487
vn -0.6130 -0.7615 0.2104
vn -0.3511 -0.8573 0.3766
vn -0.2788 -0.7157 0.6403
vn 0.5886 -0.7812 -0.2080
vn 0.4363 -0.8920 0.1183
vn 0.2215 -0.9689 0.1106
vn -0.0042 -0.6996 0.7146
vn 0.1616 -0.8088 0.5654
vn 0.3475 -0.7360 0.5810
vn 0.2097 -0.9395 0.2708
vn 0.5561 -0.7819 0.2818
vn -0.0569 -0.9830 0.1745
vn -0.0592 -0.9822 -0.1785
vn 0.1838 -0.9450 -0.2706
vn 0.9099 -0.2825 0.3039
vn 0.0761 -0.4650 0.8820
vn -0.7844 -0.4739 0.4002
vn -0.3952 -0.3033 -0.8671
vn 0.4925 -0.2887 -0.8211
vn 0.7810 -0.0229 0.6241
vn -0.2230 -0.2047 0.9531
vn -0.9669 -0.2499 0.0513
vn -0.1939 -0.0798 -0.9778
vn 0.7768 -0.1076 -0.6205
vn 0.3345 0.6424 0.6895
vn -0.3010 0.7208 0.6244
vn -0.5528 0.7978 -0.2407
vn 0.1224 0.7220 -0.6810
vn 0.7207 0.6783 -0.1429
vn 0.2835 0.9205 -0.2691
vn 0.3886 0.8462 -0.3647
vn 0.3545 0.7215 -0.5949
vn -0.0167 0.9256 -0.3782
vn -0.0549 0.8473 -0.5283
vn -0.3466 0.7324 -0.5861
vn -0.2492 0.9682 -0.0235
vn -0.4651 0.8847 -0.0309
vn -0.5728 0.7556 0.3178
vn -0.0267 0.9396 0.3412
vn -0.0985 0.7942 0.5997
vn 0.0908 0.6277 0.7731
vn 0.2513 0.9405 0.2286
vn 0.4121 0.8251 0.3864
vn 0.7139 0.6777 0.1765
vn 0.8929 0.3619 -0.2679
vn 0.7787 0.2121 -0.5905
vn 0.5499 0.3741 -0.7467
vn 0.0209 0.3026 -0.9529
vn -0.1953 0.1651 -0.9667
vn -0.4140 0.3684 -0.8324
vn -0.8239 0.5037 -0.2597
vn -0.9466 0.3178 0.0552
vn -0.8062 0.4806 0.3451
vn -0.3661 0.2771 0.8884
vn -0.2249 0.1538 0.9622
vn 0.0424 0.3423 0.9387
vn 0.5016 0.3313 0.7992
vn 0.7717 0.1326 0.6221
vn 0.8887 0.3240 0.3244
vn 0.3380 0.0189 -0.9410
vn 0.3392 -0.1267 -0.9321
vn 0.0737 -0.2998 -0.9511
vn -0.6773 0.1453 -0.7212
vn -0.6813 -0.1316 -0.7200
vn -0.8586 -0.4494 -0.2468
vn -0.6472 0.1061 0.7549
vn -0.6463 -0.2387 0.7248
vn -0.3607 -0.3877 0.8483
vn 0.3054 0.0824 0.9487
vn 0.3183 -0.2635 0.9106
vn 0.4341 -0.3713 0.8208
vn 0.9937 0.1098 0.0220
vn 0.9943 -0.1004 0.0370
vn 0.8905 -0.3443 -0.2973
vn 0.3394 -0.8138 -0.4718
vn 0.2251 -0.8617 -0.4548
vn 0.0121 -0.7596 -0.6503
vn -0.1472 -0.7797 -0.6086
vn -0.2204 -0.9127 -0.3442
vn -0.6083 -0.7865 -0.1068
vn -0.5710 -0.7718 0.2797
vn -0.3297 -0.8492 0.4124
vn -0.2376 -0.6679 0.7053
vn 0.5310 -0.8296 -0.1724
vn 0.4623 -0.8865 0.0218
vn 0.3557 -0.9342 0.0271
vn 0.0603 -0.6238 0.7792
vn 0.2815 -0.7842 0.5530
vn 0.3644 -0.7432 0.5611
vn 0.0497 -0.9682 0.2453
vn 0.5885 -0.7506 0.3005
vn -0.0915 -0.9770 0.1928
vn -0.1200 -0.9784 -0.1681
vn 0.0388 -0.9708 -0.2369
vn 0.8713 -0.4042 0.2781
vn 0.0301 -0.4266 0.9040
vn -0.7640 -0.5241 0.3765
vn -0.4730 -0.4705 -0.7449
vn 0.4465 -0.4988 -0.7428
vn 0.7129 -0.1357 0.6880
vn -0.2432 -0.1921 0.9508
vn -0.9562 -0.2911 0.0297
vn -0.1874 -0.1841 -0.9649
vn 0.7856 -0.1848 -0.5904
vn 0.3089 0.6795 0.6655
vn -0.3848 0.6695 0.6354
vn -0.6227 0.7412 -0.2506
vn 0.0516 0.6408 -0.7659
vn 0.6850 0.6936 -0.2228
vn 0.1612 0.9757 -0.1485
vn 0.4392 0.8144 -0.3792
vn 0.3545 0.6684 -0.6539
vn -0.0453 0.9743 -0.2206
vn -0.1353 0.7970 -0.5886
vn -0.3854 0.6937 -0.6085
vn -0.2083 0.9776 0.0304
vn -0.4998 0.8655 0.0327
vn -0.5957 0.7361 0.3215
vn -0.0419 0.9572 0.2864
vn -0.1143 0.7837 0.6105
vn 0.0478 0.6546 0.7545
vn 0.1568 0.9633 0.2178
vn 0.3803 0.8235 0.4209
vn 0.7090 0.6741 0.2072
vn 0.8448 0.4092 -0.3448
vn 0.7665 0.1937 -0.6124
vn 0.4745 0.3737 -0.7970
vn 0.0195 0.3075 -0.9514
vn -0.1710 0.1711 -0.9703
vn -0.4415 0.4005 -0.8029
vn -0.8645 0.4262 -0.2663
vn -0.9661 0.2561 0.0315
vn -0.8387 0.4103 0.3581
vn -0.4497 0.3777 0.8094
vn -0.2283 0.2080 0.9511
vn -0.0040 0.3457 0.9383
vn 0.4898 0.3326 0.8059
vn 0.7102 0.1819 0.6801
vn 0.8543 0.4076 0.3224
vn 0.2091 0.1529 -0.9659
vn 0.1919 -0.2623 -0.9457
vn 0.0182 -0.3621 -0.9320
vn -0.7474 0.1326 -0.6511
vn -0.6766 -0.3592 -0.6428
vn -0.7643 -0.5447 -0.3452
vn -0.7072 0.1711 0.6859
vn -0.6709 -0.3195 0.6692
vn -0.5106 -0.4165 0.7522
vn 0.2722 0.0955 0.9575
vn 0.2924 -0.2395 0.9258
vn 0.4480 -0.3690 0.8143
vn 0.9862 0.1548 0.0586
vn 0.9633 -0.2632 0.0521
vn 0.8661 -0.4021 -0.2969
vn 0.3903 -0.7378 -0.5508
vn 0.1169 -0.8507 -0.5125
vn -0.0565 -0.7349 -0.6758
vn -0.3114 -0.7396 -0.5966
vn -0.3620 -0.8466 -0.3901
vn -0.6219 -0.7441 -0.2441
vn -0.6260 -0.7297 0.2750
vn -0.3493 -0.8362 0.4229
vn -0.3191 -0.7693 0.5534
vn 0.5492 -0.7722 -0.3195
vn 0.4596 -0.8881 -0.0044
vn 0.1722 -0.9847 0.0287
vn -0.0011 -0.7415 0.6710
vn 0.1345 -0.8392 0.5269
vn 0.3806 -0.7210 0.5790
vn 0.1314 -0.9615 0.2413
vn 0.5355 -0.8182 0.2094
vn -0.1832 -0.9762 0.1157
vn -0.1805 -0.9778 -0.1065
vn 0.1215 -0.9623 -0.2434
vn 0.8527 -0.4473 0.2700
vn 0.0204 -0.3772 0.9259
vn -0.8141 -0.4833 0.3220
vn -0.4592 -0.3828 -0.8017
vn 0.4094 -0.4373 -0.8007
vn 0.7065 -0.1719 0.6865
vn -0.2692 -0.1647 0.9489
vn -0.9741 -0.2254 -0.0190
vn -0.2931 -0.2132 -0.9320
vn 0.7377 -0.1949 -0.6464
vn 0.3670 0.6933 0.6202
vn -0.2990 0.6996 0.6490
vn -0.5612 0.7803 -0.2761
vn 0.0818 0.7052 -0.7043
vn 0.6645 0.7395 -0.1079
vn 0.2276 0.9495 -0.2158
vn 0.3202 0.8964 -0.3067
vn 0.2345 0.7165 -0.6570
vn -0.0334 0.9429 -0.3313
vn -0.0810 0.8290 -0.5534
vn -0.3220 0.7350 -0.5968
vn -0.1701 0.9801 -0.1025
vn -0.5013 0.8597 -0.0984
vn -0.6170 0.7524 0.2308
vn -0.0038 0.9862 0.1653
vn -0.1117 0.7777 0.6187
vn 0.0265 0.6857 0.7274
vn 0.2201 0.9731 0.0685
vn 0.4517 0.8398 0.3010
vn 0.6582 0.7362 0.1574
vn 0.8614 0.4280 -0.2734
vn 0.7312 0.2016 -0.6517
vn 0.4024 0.3854 -0.8304
vn 0.0518 0.3934 -0.9179
vn -0.2600 0.2014 -0.9444
vn -0.4111 0.3543 -0.8399
vn -0.8045 0.4814 -0.3479
vn -0.9624 0.2715 -0.0116
vn -0.8458 0.4527 0.2824
vn -0.3850 0.3445 0.8562
vn -0.2760 0.2262 0.9342
vn -0.0207 0.3858 0.9223
vn 0.5251 0.3817 0.7606
vn 0.7077 0.2412 0.6640
vn 0.8386 0.4665 0.2814
vn 0.2555 0.2406 -0.9364
vn 0.2641 -0.3279 -0.9070
vn 0.0164 -0.4996 -0.8661
vn -0.6689 0.1821 -0.7207
vn -0.6394 -0.2976 -0.7089
vn -0.7748 -0.4883 -0.4015
vn -0.7023 0.1359 0.6988
vn -0.6889 -0.2621 0.6758
vn -0.4604 -0.3974 0.7938
vn 0.2775 0.0834 0.9571
vn 0.2791 -0.1820 0.9429
vn 0.4921 -0.3494 0.7974
vn 0.9727 0.2312 -0.0216
vn 0.9660 -0.2574 -0.0222
vn 0.8188 -0.4551 -0.3499
vn 0.3790 -0.7498 -0.5423
vn 0.1914 -0.8338 -0.5179
vn -0.0141 -0.6401 -0.7682
vn -0.3047 -0.6598 -0.6869
vn -0.3921 -0.8768 -0.2782
vn -0.5515 -0.8126 -0.1886
vn -0.5704 -0.8057 0.1598
vn -0.3801 -0.8774 0.2927
vn -0.3176 -0.7045 0.6347
vn 0.5665 -0.7630 -0.3111
vn 0.4650 -0.8853 -0.0012
vn 0.2653 -0.9641 -0.0127
vn -0.0135 -0.6798 0.7333
vn 0.2165 -0.8458 0.4876
vn 0.3599 -0.7899 0.4965
vn 0.1193 -0.9644 0.2358
vn 0.6115 -0.7189 0.3306
vn -0.0736 -0.9844 0.1600
vn -0.0565 -0.9795 -0.1934
vn 0.1415 -0.9535 -0.2661
vn 0.8181 -0.4567 0.3495
vn 0.1108 -0.3318 0.9368
vn -0.7656 -0.4790 0.4293
vn -0.5104 -0.4422 -0.7375
vn 0.5274 -0.4628 -0.7125
vn 0.7362 -0.2660 0.6223
vn -0.1999 -0.0972 0.9750
vn -0.9808 -0.1863 0.0571
vn -0.2199 -0.1136 -0.9689
vn 0.8139 -0.2128 -0.5406
vn 0.3485 0.6916 0.6326
vn -0.3249 0.7091 0.6258
vn -0.5676 0.7417 -0.3572
vn 0.0656 0.7454 -0.6634
vn 0.5898 0.7880 -0.1765
vn 0.2485 0.9502 -0.1878
vn 0.3807 0.8738 -0.3026
vn 0.3265 0.7578 -0.5649
vn 0.0112 0.9597 -0.2808
vn -0.0698 0.8411 -0.5363
vn -0.3783 0.7202 -0.5815
vn -0.1967 0.9799 0.0338
vn -0.4314 0.9017 0.0297
vn -0.5471 0.7718 0.3241
vn 0.0171 0.9351 0.3539
vn -0.0405 0.8166 0.5758
vn 0.1139 0.6897 0.7150
vn 0.2635 0.9313 0.2514
vn 0.4060 0.8353 0.3708
vn 0.5552 0.7859 0.2723
vn 0.8632 0.3168 -0.3932
vn 0.8052 0.2068 -0.5558
vn 0.5224 0.3868 -0.7599
vn 0.0163 0.3903 -0.9205
vn -0.2215 0.2483 -0.9430
vn -0.4283 0.4093 -0.8057
vn -0.8240 0.4278 -0.3716
vn -0.9733 0.2226 0.0555
vn -0.8556 0.3821 0.3492
vn -0.3977 0.3354 0.8540
vn -0.2103 0.1975 0.9575
vn 0.0418 0.3671 0.9293
vn 0.4832 0.4281 0.7637
vn 0.7386 0.2362 0.6314
vn 0.8133 0.3591 0.4579
vn 0.2942 0.1956 -0.9355
vn 0.2784 -0.2614 -0.9242
vn 0.0967 -0.3729 -0.9228
vn -0.7421 0.2025 -0.6389
vn -0.7186 -0.3240 -0.6153
vn -0.7947 -0.4856 -0.3641
vn -0.6848 0.1243 0.7180
vn -0.6584 -0.2950 0.6924
vn -0.4940 -0.3975 0.7733
vn 0.2667 0.1881 0.9453
vn 0.2606 -0.2381 0.9356
vn 0.5098 -0.4387 0.7400
vn 0.9987 0.0462 -0.0234
vn 0.9619 -0.2733 -0.0122
vn 0.8673 -0.4019 -0.2936
vn 0.4459 -0.7612 -0.4709
vn 0.1812 -0.8892 -0.4202
vn 0.0041 -0.7895 -0.6138
vn -0.2628 -0.8062 -0.5301
vn -0.2917 -0.8728 -0.3914
vn -0.6014 -0.7742 -0.1971
vn -0.5669 -0.7727 0.2856
vn -0.3886 -0.8329 0.3940
vn -0.3350 -0.7340 0.5908
vn 0.5837 -0.7618 -0.2810
vn 0.4808 -0.8766 -0.0216
vn 0.2767 -0.9602 -0.0385
vn 0.0684 -0.7073 0.7036
vn 0.2181 -0.8020 0.5561
vn 0.4323 -0.6971 0.5720
vn 0.1341 -0.4126 -0.9010
vn 0.3013 -0.9272 -0.2225
vn 0.2416 -0.7436 0.6235
vn -0.0000 -0.0000 1.0000
vn -0.2416 0.7436 0.6235
vn 0.9511 0.3090 -0.0000
vn -0.3013 0.9272 -0.2225
vn -0.1341 0.4126 -0.9010
vn -0.9511 -0.3090 -0.0000
vn -0.5423 -0.4126 -0.7319
vn 0.0557 -0.9272 -0.3704
vn 0.6117 -0.7436 0.2700
vn 0.7071 -0.0000 0.7071
vn 0.2700 0.7436 0.6117
vn 0.6725 0.3090 -0.6725
vn -0.3704 0.9272 0.0557
vn -0.7319 0.4126 -0.5423
vn -0.6725 -0.3090 0.6725
vn -0.9010 -0.4126 -0.1341
vn -0.2225 -0.9272 -0.3013
vn 0.6235 -0.7436 -0.2416
vn 1.0000 -0.0000 -0.0000
vn 0.6235 0.7436 0.2416
vn -0.0000 0.3090 -0.9511
vn -0.2225 0.9272 0.3013
vn -0.9010 0.4126 0.1341
vn -0.0000 -0.3090 0.9511
vn -0.7319 -0.4126 0.5423
vn -0.3704 -0.9272 -0.0557
vn 0.2700 -0.7436 -0.6117
vn 0.7071 -0.0000 -0.7071
vn 0.6117 0.7436 -0.2700
vn -0.6725 0.3090 -0.6725
vn 0.0557 0.9272 0.3704
vn -0.5423 0.4126 0.7319
vn 0.6725 -0.3090 0.6725
vt 0.087500 0.357143
vt 0.050000 0.381886
vt 0.050000 0.332399
vt 0.462500 0.500000
vt 0.425000 0.524744
vt 0.425000 0.475256
vt 0.212500 0.357143
vt 0.175000 0.381886
vt 0.175000 0.332399
vt 0.962500 0.500000
vt 0.925000 0.524744
vt 0.925000 0.475256
vt 0.587500 0.357143
vt 0.550000 0.381886
vt 0.550000 0.332399
s 0
usemtl Palette
f 1/1/1 14/2/1 13/3/1
f 2/1/2 14/2/2 16/3/2
f 1/1/3 13/2/3 18/3/3
f 1/1/4 18/2/4 20/3/4
f 1/1/5 20/2/5 17/3/5
f 2/1/6 16/2/6 23/3/6
f 3/1/7 15/2/7 25/3/7
f 4/1/8 19/2/8 27/3/8
f 5/1/9 21/2/9 29/3/9
f 6/1/10 22/2/10 31/3/10
f 2/1/11 23/2/11 26/3/11
f 3/1/12 25/2/12 28/3/12
f 4/1/13 27/2/13 30/3/13
f 5/1/14 29/2/14 32/3/14
f 6/1/15 31/2/15 24/3/15
f 7/4/16 33/5/16 38/6/16
f 8/4/17 34/5/17 40/6/17
f 9/4/18 35/5/18 41/6/18
f 10/4/19 36/5/19 42/6/19
f 11/4/20 37/5/20 39/6/20
f 39/4/21 42/5/21 12/6/21
f 39/4/22 37/5/22 42/6/22
f 37/4/23 10/5/23 42/6/23
f 42/4/24 41/5/24 12/6/24
f 42/4/25 36/5/25 41/6/25
f 36/4/26 9/5/26 41/6/26
f 41/4/27 40/5/27 12/6/27
f 41/4/28 35/5/28 40/6/28
f 35/4/29 8/5/29 40/6/29
f 40/4/30 38/5/30 12/6/30
f 40/4/31 34/5/31 38/6/31
f 34/4/32 7/5/32 38/6/32
f 38/4/33 39/5/33 12/6/33
f 38/4/34 33/5/34 39/6/34
f 33/4/35 11/5/35 39/6/35
f 24/7/36 37/8/36 11/9/36
f 24/7/37 31/8/37 37/9/37
f 31/7/38 10/8/38 37/9/38
f 32/7/39 36/8/39 10/9/39
f 32/7/40 29/8/40 36/9/40
f 29/7/41 9/8/41 36/9/41
f 30/7/42 35/8/42 9/9/42
f 30/7/43 27/8/43 35/9/43
f 27/7/44 8/8/44 35/9/44
f 28/7/45 34/8/45 8/9/45
f 28/7/46 25/8/46 34/9/46
f 25/7/47 7/8/47 34/9/47
f 26/7/48 33/8/48 7/9/48
f 26/7/49 23/8/49 33/9/49
f 23/7/50 11/8/50 33/9/50
f 31/10/51 32/11/51 10/12/51
f 31/1/52 22/2/52 32/3/52
f 22/1/53 5/2/53 32/3/53
f 29/10/54 30/11/54 9/12/54
f 29/1/55 21/2/55 30/3/55
f 21/1/56 4/2/56 30/3/56
f 27/10/57 28/11/57 8/12/57
f 27/1/58 19/2/58 28/3/58
f 19/1/59 3/2/59 28/3/59
f 25/10/60 26/11/60 7/12/60
f 25/1/61 15/2/61 26/3/61
f 15/1/62 2/2/62 26/3/62
f 23/7/63 24/8/63 11/9/63
f 23/1/64 16/2/64 24/3/64
f 16/1/65 6/2/65 24/3/65
f 17/1/66 22/2/66 6/3/66
f 17/1/67 20/2/67 22/3/67
f 20/1/68 5/2/68 22/3/68
f 20/1/69 21/2/69 5/3/69
f 20/1/70 18/2/70 21/3/70
f 18/1/71 4/2/71 21/3/71
f 18/1/72 19/2/72 4/3/72
f 18/1/73 13/2/73 19/3/73
f 13/1/74 3/2/74 19/3/74
f 16/1/75 17/2/75 6/3/75
f 16/1/76 14/2/76 17/3/76
f 14/1/77 1/2/77 17/3/77
f 13/1/78 15/2/78 3/3/78
f 13/1/79 14/2/79 15/3/79
f 14/1/80 2/2/80 15/3/80
f 43/1/81 56/2/81 55/3/81
f 44/1/82 56/2/82 58/3/82
f 43/1/83 55/2/83 60/3/83
f 43/1/84 60/2/84 62/3/84
f 43/1/85 62/2/85 59/3/85
f 44/1/86 58/2/86 65/3/86
f 45/1/87 57/2/87 67/3/87
f 46/1/88 61/2/88 69/3/88
f 47/1/89 63/2/89 71/3/89
f 48/1/90 64/2/90 73/3/90
f 44/1/91 65/2/91 68/3/91
f 45/1/92 67/2/92 70/3/92
f 46/1/93 69/2/93 72/3/93
f 47/1/94 71/2/94 74/3/94
f 48/10/95 73/11/95 66/12/95
f 49/10/96 75/11/96 80/12/96
f 50/10/97 76/11/97 82/12/97
f 51/10/98 77/11/98 83/12/98
f 52/10/99 78/11/99 84/12/99
f 53/10/100 79/11/100 81/12/100
f 81/10/101 84/11/101 54/12/101
f 81/10/102 79/11/102 84/12/102
f 79/10/103 52/11/103 84/12/103
f 84/10/104 83/11/104 54/12/104
f 84/10/105 78/11/105 83/12/105
f 78/10/106 51/11/106 83/12/106
f 83/10/107 82/11/107 54/12/107
f 83/10/108 77/11/108 82/12/108
f 77/10/109 50/11/109 82/12/109
f 82/10/110 80/11/110 54/12/110
f 82/10/111 76/11/111 80/12/111
f 76/10/112 49/11/112 80/12/112
f 80/10/113 81/11/113 54/12/113
f 80/10/114 75/11/114 81/12/114
f 75/10/115 53/11/115 81/12/115
f 66/10/116 79/11/116 53/12/116
f 66/7/117 73/8/117 79/9/117
f 73/7/118 52/8/118 79/9/118
f 74/7/119 78/8/119 52/9/119
f 74/7/120 71/8/120 78/9/120
f 71/7/121 51/8/121 78/9/121
f 72/10/122 77/11/122 51/12/122
f 72/7/123 69/8/123 77/9/123
f 69/10/124 50/11/124 77/12/124
f 70/7/125 76/8/125 50/9/125
f 70/7/126 67/8/126 76/9/126
f 67/7/127 49/8/127 76/9/127
f 68/7/128 75/8/128 49/9/128
f 68/7/129 65/8/129 75/9/129
f 65/10/130 53/11/130 75/12/130
f 73/10/131 74/11/131 52/12/131
f 73/1/132 64/2/132 74/3/132
f 64/1/133 47/2/133 74/3/133
f 71/7/134 72/8/134 51/9/134
f 71/1/135 63/2/135 72/3/135
f 63/1/136 46/2/136 72/3/136
f 69/10/137 70/11/137 50/12/137
f 69/1/138 61/2/138 70/3/138
f 61/1/139 45/2/139 70/3/139
f 67/7/140 68/8/140 49/9/140
f 67/1/141 57/2/141 68/3/141
f 57/1/142 44/2/142 68/3/142
f 65/7/143 66/8/143 53/9/143
f 65/1/144 58/2/144 66/3/144
f 58/1/145 48/2/145 66/3/145
f 59/1/146 64/2/146 48/3/146
f 59/1/147 62/2/147 64/3/147
f 62/1/148 47/2/148 64/3/148
f 62/1/149 63/2/149 47/3/149
f 62/1/150 60/2/150 63/3/150
f 60/1/151 46/2/151 63/3/151
f 60/1/152 61/2/152 46/3/152
f 60/1/153 55/2/153 61/3/153
f 55/1/154 45/2/154 61/3/154
f 58/1/155 59/2/155 48/3/155
f 58/1/156 56/2/156 59/3/156
f 56/1/157 43/2/157 59/3/157
f 55/1/158 57/2/158 45/3/158
f 55/1/159 56/2/159 57/3/159
f 56/1/160 44/2/160 57/3/160
f 85/1/161 98/2/161 97/3/161
f 86/1/162 98/2/162 100/3/162
f 85/1/163 97/2/163 102/3/163
f 85/1/164 102/2/164 104/3/164
f 85/1/165 104/2/165 101/3/165
f 86/1/166 100/2/166 107/3/166
f 87/1/167 99/2/167 109/3/167
f 88/1/168 103/2/168 111/3/168
f 89/1/169 105/2/169 113/3/169
f 90/1/170 106/2/170 115/3/170
f 86/10/171 107/11/171 110/12/171
f 87/1/172 109/2/172 112/3/172
f 88/1/173 111/2/173 114/3/173
f 89/1/174 113/2/174 116/3/174
f 90/1/175 115/2/175 108/3/175
f 91/10/176 117/11/176 122/12/176
f 92/10/177 118/11/177 124/12/177
f 93/10/178 119/11/178 125/12/178
f 94/10/179 120/11/179 126/12/179
f 95/10/180 121/11/180 123/12/180
f 123/10/181 126/11/181 96/12/181
f 123/10/182 121/11/182 126/12/182
f 121/10/183 94/11/183 126/12/183
f 126/10/184 125/11/184 96/12/184
f 126/10/185 120/11/185 125/12/185
f 120/10/186 93/11/186 125/12/186
f 125/10/187 124/11/187 96/12/187
f 125/10/188 119/11/188 124/12/188
f 119/10/189 92/11/189 124/12/189
f 124/10/190 122/11/190 96/12/190
f 124/10/191 118/11/191 122/12/191
f 118/10/192 91/11/192 122/12/192
f 122/10/193 123/11/193 96/12/193
f 122/10/194 117/11/194 123/12/194
f 117/10/195 95/11/195 123/12/195
f 108/10/196 121/11/196 95/12/196
f 108/7/197 115/8/197 121/9/197
f 115/7/198 94/8/198 121/9/198
f 116/7/199 120/8/199 94/9/199
f 116/7/200 113/8/200 120/9/200
f 113/10/201 93/11/201 120/12/201
f 114/10/202 119/11/202 93/12/202
f 114/7/203 111/8/203 119/9/203
f 111/7/204 92/8/204 119/9/204
f 112/10/205 118/11/205 92/12/205
f 112/7/206 109/8/206 118/9/206
f 109/10/207 91/11/207 118/12/207
f 110/10/208 117/11/208 91/12/208
f 110/7/209 107/8/209 117/9/209
f 107/10/210 95/11/210 117/12/210
f 115/7/211 116/8/211 94/9/211
f 115/1/212 106/2/212 116/3/212
f 106/1/213 89/2/213 116/3/213
f 113/7/214 114/8/214 93/9/214
f 113/1/215 105/2/215 114/3/215
f 105/1/216 88/2/216 114/3/216
f 111/7/217 112/8/217 92/9/217
f 111/1/218 103/2/218 112/3/218
f 103/1/219 87/2/219 112/3/219
f 109/7/220 110/8/220 91/9/220
f 109/1/221 99/2/221 110/3/221
f 99/1/222 86/2/222 110/3/222
f 107/7/223 108/8/223 95/9/223
f 107/1/224 100/2/224 108/3/224
f 100/1/225 90/2/225 108/3/225
f 101/1/226 106/2/226 90/3/226
f 101/1/227 104/2/227 106/3/227
f 104/1/228 89/2/228 106/3/228
f 104/1/229 105/2/229 89/3/229
f 104/1/230 102/2/230 105/3/230
f 102/1/231 88/2/231 105/3/231
f 102/1/232 103/2/232 88/3/232
f 102/1/233 97/2/233 103/3/233
f 97/1/234 87/2/234 103/3/234
f 100/1/235 101/2/235 90/3/235
f 100/1/236 98/2/236 101/3/236
f 98/1/237 85/2/237 101/3/237
f 97/1/238 99/2/238 87/3/238
f 97/1/239 98/2/239 99/3/239
f 98/1/240 86/2/240 99/3/240
f 127/1/241 140/2/241 139/3/241
f 128/1/242 140/2/242 142/3/242
f 127/1/243 139/2/243 144/3/243
f 127/1/244 144/2/244 146/3/244
f 127/1/245 146/2/245 143/3/245
f 128/1/246 142/2/246 149/3/246
f 129/1/247 141/2/247 151/3/247
f 130/1/248 145/2/248 153/3/248
f 131/1/249 147/2/249 155/3/249
f 132/1/250 148/2/250 157/3/250
f 128/1/251 149/2/251 152/3/251
f 129/1/252 151/2/252 154/3/252
f 130/1/253 153/2/253 156/3/253
f 131/1/254 155/2/254 158/3/254
f 132/1/255 157/2/255 150/3/255
f 133/4/256 159/5/256 164/6/256
f 134/4/257 160/5/257 166/6/257
f 135/4/258 161/5/258 167/6/258
f 136/4/259 162/5/259 168/6/259
f 137/4/260 163/5/260 165/6/260
f 165/4/261 168/5/261 138/6/261
f 165/4/262 163/5/262 168/6/262
f 163/4/263 136/5/263 168/6/263
f 168/4/264 167/5/264 138/6/264
f 168/4/265 162/5/265 167/6/265
f 162/4/266 135/5/266 167/6/266
f 167/4/267 166/5/267 138/6/267
f 167/4/268 161/5/268 166/6/268
f 161/4/269 134/5/269 166/6/269
f 166/4/270 164/5/270 138/6/270
f 166/4/271 160/5/271 164/6/271
f 160/4/272 133/5/272 164/6/272
f 164/4/273 165/5/273 138/6/273
f 164/4/274 159/5/274 165/6/274
f 159/4/275 137/5/275 165/6/275
f 150/7/276 163/8/276 137/9/276
f 150/7/277 157/8/277 163/9/277
f 157/7/278 136/8/278 163/9/278
f 158/7/279 162/8/279 136/9/279
f 158/7/280 155/8/280 162/9/280
f 155/7/281 135/8/281 162/9/281
f 156/7/282 161/8/282 135/9/282
f 156/7/283 153/8/283 161/9/283
f 153/10/284 134/11/284 161/12/284
f 154/7/285 160/8/285 134/9/285
f 154/7/286 151/8/286 160/9/286
f 151/7/287 133/8/287 160/9/287
f 152/7/288 159/8/288 133/9/288
f 152/7/289 149/8/289 159/9/289
f 149/7/290 137/8/290 159/9/290
f 157/7/291 158/8/291 136/9/291
f 157/1/292 148/2/292 158/3/292
f 148/1/293 131/2/293 158/3/293
f 155/7/294 156/8/294 135/9/294
f 155/1/295 147/2/295 156/3/295
f 147/1/296 130/2/296 156/3/296
f 153/7/297 154/8/297 134/9/297
f 153/1/298 145/2/298 154/3/298
f 145/1/299 129/2/299 154/3/299
f 151/10/300 152/11/300 133/12/300
f 151/1/301 141/2/301 152/3/301
f 141/1/302 128/2/302 152/3/302
f 149/7/303 150/8/303 137/9/303
f 149/1/304 142/2/304 150/3/304
f 142/1/305 132/2/305 150/3/305
f 143/1/306 148/2/306 132/3/306
f 143/1/307 146/2/307 148/3/307
f 146/1/308 131/2/308 148/3/308
f 146/1/309 147/2/309 131/3/309
f 146/1/310 144/2/310 147/3/310
f 144/1/311 130/2/311 147/3/311
f 144/1/312 145/2/312 130/3/312
f 144/1/313 139/2/313 145/3/313
f 139/1/314 129/2/314 145/3/314
f 142/1/315 143/2/315 132/3/315
f 142/1/316 140/2/316 143/3/316
f 140/1/317 127/2/317 143/3/317
f 139/1/318 141/2/318 129/3/318
f 139/1/319 140/2/319 141/3/319
f 140/1/320 128/2/320 141/3/320
f 169/1/321 182/2/321 181/3/321
f 170/1/322 182/2/322 184/3/322
f 169/1/323 181/2/323 186/3/323
f 169/1/324 186/2/324 188/3/324
f 169/1/325 188/2/325 185/3/325
f 170/1/326 184/2/326 191/3/326
f 171/1/327 183/2/327 193/3/327
f 172/1/328 187/2/328 195/3/328
f 173/1/329 189/2/329 197/3/329
f 174/1/330 190/2/330 199/3/330
f 170/1/331 191/2/331 194/3/331
f 171/1/332 193/2/332 196/3/332
f 172/10/333 195/11/333 198/12/333
f 173/1/334 197/2/334 200/3/334
f 174/1/335 199/2/335 192/3/335
f 175/10/336 201/11/336 206/12/336
f 176/10/337 202/11/337 208/12/337
f 177/10/338 203/11/338 209/12/338
f 178/10/339 204/11/339 210/12/339
f 179/10/340 205/11/340 207/12/340
f 207/10/341 210/11/341 180/12/341
f 207/10/342 205/11/342 210/12/342
f 205/10/343 178/11/343 210/12/343
f 210/10/344 209/11/344 180/12/344
f 210/10/345 204/11/345 209/12/345
f 204/10/346 177/11/346 209/12/346
f 209/10/347 208/11/347 180/12/347
f 209/10/348 203/11/348 208/12/348
f 203/10/349 176/11/349 208/12/349
f 208/10/350 206/11/350 180/12/350
f 208/10/351 202/11/351 206/12/351
f 202/10/352 175/11/352 206/12/352
f 206/10/353 207/11/353 180/12/353
f 206/10/354 201/11/354 207/12/354
f 201/10/355 179/11/355 207/12/355
f 192/7/356 205/8/356 179/9/356
f 192/7/357 199/8/357 205/9/357
f 199/7/358 178/8/358 205/9/358
f 200/7/359 204/8/359 178/9/359
f 200/7/360 197/8/360 204/9/360
f 197/7/361 177/8/361 204/9/361
f 198/7/362 203/8/362 177/9/362
f 198/7/363 195/8/363 203/9/363
f 195/7/364 176/8/364 203/9/364
f 196/7/365 202/8/365 176/9/365
f 196/7/366 193/8/366 202/9/366
f 193/7/367 175/8/367 202/9/367
f 194/7/368 201/8/368 175/9/368
f 194/7/369 191/8/369 201/9/369
f 191/7/370 179/8/370 201/9/370
f 199/7/371 200/8/371 178/9/371
f 199/1/372 190/2/372 200/3/372
f 190/1/373 173/2/373 200/3/373
f 197/7/374 198/8/374 177/9/374
f 197/1/375 189/2/375 198/3/375
f 189/1/376 172/2/376 198/3/376
f 195/7/377 196/8/377 176/9/377
f 195/1/378 187/2/378 196/3/378
f 187/1/379 171/2/379 196/3/379
f 193/7/380 194/8/380 175/9/380
f 193/1/381 183/2/381 194/3/381
f 183/1/382 170/2/382 194/3/382
f 191/7/383 192/8/383 179/9/383
f 191/1/384 184/2/384 192/3/384
f 184/1/385 174/2/385 192/3/385
f 185/1/386 190/2/386 174/3/386
f 185/1/387 188/2/387 190/3/387
f 188/1/388 173/2/388 190/3/388
f 188/1/389 189/2/389 173/3/389
f 188/1/390 186/2/390 189/3/390
f 186/1/391 172/2/391 189/3/391
f 186/1/392 187/2/392 172/3/392
f 186/1/393 181/2/393 187/3/393
f 181/1/394 171/2/394 187/3/394
f 184/1/395 185/2/395 174/3/395
f 184/1/396 182/2/396 185/3/396
f 182/1/397 169/2/397 185/3/397
f 181/1/398 183/2/398 171/3/398
f 181/1/399 182/2/399 183/3/399
f 182/1/400 170/2/400 183/3/400
f 211/1/401 224/2/401 223/3/401
f 212/1/402 224/2/402 226/3/402
f 211/1/403 223/2/403 228/3/403
f 211/1/404 228/2/404 230/3/404
f 211/1/405 230/2/405 227/3/405
f 212/1/406 226/2/406 233/3/406
f 213/1/407 225/2/407 235/3/407
f 214/1/408 229/2/408 237/3/408
f 215/1/409 231/2/409 239/3/409
f 216/1/410 232/2/410 241/3/410
f 212/10/411 233/11/411 236/12/411
f 213/1/412 235/2/412 238/3/412
f 214/1/413 237/2/413 240/3/413
f 215/10/414 239/11/414 242/12/414
f 216/1/415 241/2/415 234/3/415
f 217/10/416 243/11/416 248/12/416
f 218/10/417 244/11/417 250/12/417
f 219/10/418 245/11/418 251/12/418
f 220/10/419 246/11/419 252/12/419
f 221/10/420 247/11/420 249/12/420
f 249/10/421 252/11/421 222/12/421
f 249/10/422 247/11/422 252/12/422
f 247/10/423 220/11/423 252/12/423
f 252/10/424 251/11/424 222/12/424
f 252/10/425 246/11/425 251/12/425
f 246/10/426 219/11/426 251/12/426
f 251/10/427 250/11/427 222/12/427
f 251/10/428 245/11/428 250/12/428
f 245/10/429 218/11/429 250/12/429
f 250/10/430 248/11/430 222/12/430
f 250/10/431 244/11/431 248/12/431
f 244/10/432 217/11/432 248/12/432
f 248/10/433 249/11/433 222/12/433
f 248/10/434 243/11/434 249/12/434
f 243/10/435 221/11/435 249/12/435
f 234/7/436 247/8/436 221/9/436
f 234/7/437 241/8/437 247/9/437
f 241/7/438 220/8/438 247/9/438
f 242/7/439 246/8/439 220/9/439
f 242/7/440 239/8/440 246/9/440
f 239/7/441 219/8/441 246/9/441
f 240/10/442 245/11/442 219/12/442
f 240/7/443 237/8/443 245/9/443
f 237/10/444 218/11/444 245/12/444
f 238/7/445 244/8/445 218/9/445
f 238/7/446 235/8/446 244/9/446
f 235/7/447 217/8/447 244/9/447
f 236/7/448 243/8/448 217/9/448
f 236/7/449 233/8/449 243/9/449
f 233/7/450 221/8/450 243/9/450
f 241/10/451 242/11/451 220/12/451
f 241/1/452 232/2/452 242/3/452
f 232/1/453 215/2/453 242/3/453
f 239/7/454 240/8/454 219/9/454
f 239/1/455 231/2/455 240/3/455
f 231/1/456 214/2/456 240/3/456
f 237/7/457 238/8/457 218/9/457
f 237/1/458 229/2/458 238/3/458
f 229/1/459 213/2/459 238/3/459
f 235/10/460 236/11/460 217/12/460
f 235/1/461 225/2/461 236/3/461
f 225/1/462 212/2/462 236/3/462
f 233/7/463 234/8/463 221/9/463
f 233/1/464 226/2/464 234/3/464
f 226/1/465 216/2/465 234/3/465
f 227/1/466 232/2/466 216/3/466
f 227/1/467 230/2/467 232/3/467
f 230/1/468 215/2/468 232/3/468
f 230/1/469 231/2/469 215/3/469
f 230/1/470 228/2/470 231/3/470
f 228/1/471 214/2/471 231/3/471
f 228/1/472 229/2/472 214/3/472
f 228/1/473 223/2/473 229/3/473
f 223/1/474 213/2/474 229/3/474
f 226/1/475 227/2/475 216/3/475
f 226/1/476 224/2/476 227/3/476
f 224/1/477 211/2/477 227/3/477
f 223/1/478 225/2/478 213/3/478
f 223/1/479 224/2/479 225/3/479
f 224/1/480 212/2/480 225/3/480
f 253/1/481 266/2/481 265/3/481
f 254/1/482 266/2/482 268/3/482
f 253/1/483 265/2/483 270/3/483
f 253/1/484 270/2/484 272/3/484
f 253/1/485 272/2/485 269/3/485
f 254/1/486 268/2/486 275/3/486
f 255/1/487 267/2/487 277/3/487
f 256/1/488 271/2/488 279/3/488
f 257/1/489 273/2/489 281/3/489
f 258/1/490 274/2/490 283/3/490
f 254/1/491 275/2/491 278/3/491
f 255/1/492 277/2/492 280/3/492
f 256/1/493 279/2/493 282/3/493
f 257/1/494 281/2/494 284/3/494
f 258/1/495 283/2/495 276/3/495
f 259/4/496 285/5/496 290/6/496
f 260/4/497 286/5/497 292/6/497
f 261/4/498 287/5/498 293/6/498
f 262/4/499 288/5/499 294/6/499
f 263/4/500 289/5/500 291/6/500
f 291/4/501 294/5/501 264/6/501
f 291/4/502 289/5/502 294/6/502
f 289/4/503 262/5/503 294/6/503
f 294/4/504 293/5/504 264/6/504
f 294/4/505 288/5/505 293/6/505
f 288/4/506 261/5/506 293/6/506
f 293/4/507 292/5/507 264/6/507
f 293/4/508 287/5/508 292/6/508
f 287/4/509 260/5/509 292/6/509
f 292/4/510 290/5/510 264/6/510
f 292/4/511 286/5/511 290/6/511
f 286/4/512 259/5/512 290/6/512
f 290/4/513 291/5/513 264/6/513
f 290/4/514 285/5/514 291/6/514
f 285/4/515 263/5/515 291/6/515
f 276/7/516 289/8/516 263/9/516
f 276/7/517 283/8/517 289/9/517
f 283/7/518 262/8/518 289/9/518
f 284/7/519 288/8/519 262/9/519
f 284/7/520 281/8/520 288/9/520
f 281/7/521 261/8/521 288/9/521
f 282/7/522 287/8/522 261/9/522
f 282/7/523 279/8/523 287/9/523
f 279/7/524 260/8/524 287/9/524
f 280/7/525 286/8/525 260/9/525
f 280/7/526 277/8/526 286/9/526
f 277/7/527 259/8/527 286/9/527
f 278/7/528 285/8/528 259/9/528
f 278/7/529 275/8/529 285/9/529
f 275/7/530 263/8/530 285/9/530
f 283/7/531 284/8/531 262/9/531
f 283/1/532 274/2/532 284/3/532
f 274/1/533 257/2/533 284/3/533
f 281/7/534 282/8/534 261/9/534
f 281/1/535 273/2/535 282/3/535
f 273/1/536 256/2/536 282/3/536
f 279/7/537 280/8/537 260/9/537
f 279/1/538 271/2/538 280/3/538
f 271/1/539 255/2/539 280/3/539
f 277/10/540 278/11/540 259/12/540
f 277/1/541 267/2/541 278/3/541
f 267/1/542 254/2/542 278/3/542
f 275/7/543 276/8/543 263/9/543
f 275/1/544 268/2/544 276/3/544
f 268/1/545 258/2/545 276/3/545
f 269/1/546 274/2/546 258/3/546
f 269/1/547 272/2/547 274/3/547
f 272/1/548 257/2/548 274/3/548
f 272/1/549 273/2/549 257/3/549
f 272/1/550 270/2/550 273/3/550
f 270/1/551 256/2/551 273/3/551
f 270/1/552 271/2/552 256/3/552
f 270/1/553 265/2/553 271/3/553
f 265/1/554 255/2/554 271/3/554
f 268/1/555 269/2/555 258/3/555
f 268/1/556 266/2/556 269/3/556
f 266/1/557 253/2/557 269/3/557
f 265/1/558 267/2/558 255/3/558
f 265/1/559 266/2/559 267/3/559
f 266/1/560 254/2/560 267/3/560
f 295/1/561 308/2/561 307/3/561
f 296/1/562 308/2/562 310/3/562
f 295/1/563 307/2/563 312/3/563
f 295/1/564 312/2/564 314/3/564
f 295/1/565 314/2/565 311/3/565
f 296/1/566 310/2/566 317/3/566
f 297/1/567 309/2/567 319/3/567
f 298/1/568 313/2/568 321/3/568
f 299/1/569 315/2/569 323/3/569
f 300/1/570 316/2/570 325/3/570
f 296/1/571 317/2/571 320/3/571
f 297/1/572 319/2/572 322/3/572
f 298/1/573 321/2/573 324/3/573
f 299/1/574 323/2/574 326/3/574
f 300/1/575 325/2/575 318/3/575
f 301/10/576 327/11/576 332/12/576
f 302/10/577 328/11/577 334/12/577
f 303/10/578 329/11/578 335/12/578
f 304/10/579 330/11/579 336/12/579
f 305/10/580 331/11/580 333/12/580
f 333/10/581 336/11/581 306/12/581
f 333/10/582 331/11/582 336/12/582
f 331/10/583 304/11/583 336/12/583
f 336/10/584 335/11/584 306/12/584
f 336/10/585 330/11/585 335/12/585
f 330/10/586 303/11/586 335/12/586
f 335/10/587 334/11/587 306/12/587
f 335/10/588 329/11/588 334/12/588
f 329/10/589 302/11/589 334/12/589
f 334/10/590 332/11/590 306/12/590
f 334/10/591 328/11/591 332/12/591
f 328/10/592 301/11/592 332/12/592
f 332/10/593 333/11/593 306/12/593
f 332/10/594 327/11/594 333/12/594
f 327/10/595 305/11/595 333/12/595
f 318/7/596 331/8/596 305/9/596
f 318/7/597 325/8/597 331/9/597
f 325/7/598 304/8/598 331/9/598
f 326/7/599 330/8/599 304/9/599
f 326/7/600 323/8/600 330/9/600
f 323/7/601 303/8/601 330/9/601
f 324/10/602 329/11/602 303/12/602
f 324/7/603 321/8/603 329/9/603
f 321/10/604 302/11/604 329/12/604
f 322/7/605 328/8/605 302/9/605
f 322/7/606 319/8/606 328/9/606
f 319/7/607 301/8/607 328/9/607
f 320/7/608 327/8/608 301/9/608
f 320/7/609 317/8/609 327/9/609
f 317/10/610 305/11/610 327/12/610
f 325/7/611 326/8/611 304/9/611
f 325/1/612 316/2/612 326/3/612
f 316/1/613 299/2/613 326/3/613
f 323/7/614 324/8/614 303/9/614
f 323/1/615 315/2/615 324/3/615
f 315/1/616 298/2/616 324/3/616
f 321/7/617 322/8/617 302/9/617
f 321/1/618 313/2/618 322/3/618
f 313/1/619 297/2/619 322/3/619
f 319/10/620 320/11/620 301/12/620
f 319/1/621 309/2/621 320/3/621
f 309/1/622 296/2/622 320/3/622
f 317/7/623 318/8/623 305/9/623
f 317/1/624 310/2/624 318/3/624
f 310/1/625 300/2/625 318/3/625
f 311/1/626 316/2/626 300/3/626
f 311/1/627 314/2/627 316/3/627
f 314/1/628 299/2/628 316/3/628
f 314/1/629 315/2/629 299/3/629
f 314/1/630 312/2/630 315/3/630
f 312/1/631 298/2/631 315/3/631
f 312/1/632 313/2/632 298/3/632
f 312/1/633 307/2/633 313/3/633
f 307/1/634 297/2/634 313/3/634
f 310/1/635 311/2/635 300/3/635
f 310/1/636 308/2/636 311/3/636
f 308/1/637 295/2/637 311/3/637
f 307/1/638 309/2/638 297/3/638
f 307/1/639 308/2/639 309/3/639
f 308/1/640 296/2/640 309/3/640
f 337/1/641 350/2/641 349/3/641
f 338/1/642 350/2/642 352/3/642
f 337/1/643 349/2/643 354/3/643
f 337/1/644 354/2/644 356/3/644
f 337/1/645 356/2/645 353/3/645
f 338/1/646 352/2/646 359/3/646
f 339/1/647 351/2/647 361/3/647
f 340/1/648 355/2/648 363/3/648
f 341/1/649 357/2/649 365/3/649
f 342/1/650 358/2/650 367/3/650
f 338/1/651 359/2/651 362/3/651
f 339/10/652 361/11/652 364/12/652
f 340/1/653 363/2/653 366/3/653
f 341/1/654 365/2/654 368/3/654
f 342/1/655 367/2/655 360/3/655
f 343/10/656 369/11/656 374/12/656
f 344/10/657 370/11/657 376/12/657
f 345/10/658 371/11/658 377/12/658
f 346/10/659 372/11/659 378/12/659
f 347/10/660 373/11/660 375/12/660
f 375/10/661 378/11/661 348/12/661
f 375/10/662 373/11/662 378/12/662
f 373/10/663 346/11/663 378/12/663
f 378/10/664 377/11/664 348/12/664
f 378/10/665 372/11/665 377/12/665
f 372/10/666 345/11/666 377/12/666
f 377/10/667 376/11/667 348/12/667
f 377/10/668 371/11/668 376/12/668
f 371/10/669 344/11/669 376/12/669
f 376/10/670 374/11/670 348/12/670
f 376/10/671 370/11/671 374/12/671
f 370/10/672 343/11/672 374/12/672
f 374/10/673 375/11/673 348/12/673
f 374/10/674 369/11/674 375/12/674
f 369/10/675 347/11/675 375/12/675
f 360/7/676 373/8/676 347/9/676
f 360/7/677 367/8/677 373/9/677
f 367/7/678 346/8/678 373/9/678
f 368/7/679 372/8/679 346/9/679
f 368/7/680 365/8/680 372/9/680
f 365/7/681 345/8/681 372/9/681
f 366/7/682 371/8/682 345/9/682
f 366/7/683 363/8/683 371/9/683
f 363/7/684 344/8/684 371/9/684
f 364/7/685 370/8/685 344/9/685
f 364/7/686 361/8/686 370/9/686
f 361/7/687 343/8/687 370/9/687
f 362/7/688 369/8/688 343/9/688
f 362/7/689 359/8/689 369/9/689
f 359/7/690 347/8/690 369/9/690
f 367/7/691 368/8/691 346/9/691
f 367/1/692 358/2/692 368/3/692
f 358/1/693 341/2/693 368/3/693
f 365/7/694 366/8/694 345/9/694
f 365/1/695 357/2/695 366/3/695
f 357/1/696 340/2/696 366/3/696
f 363/7/697 364/8/697 344/9/697
f 363/1/698 355/2/698 364/3/698
f 355/1/699 339/2/699 364/3/699
f 361/7/700 362/8/700 343/9/700
f 361/1/701 351/2/701 362/3/701
f 351/1/702 338/2/702 362/3/702
f 359/10/703 360/11/703 347/12/703
f 359/1/704 352/2/704 360/3/704
f 352/1/705 342/2/705 360/3/705
f 353/1/706 358/2/706 342/3/706
f 353/1/707 356/2/707 358/3/707
f 356/1/708 341/2/708 358/3/708
f 356/1/709 357/2/709 341/3/709
f 356/1/710 354/2/710 357/3/710
f 354/1/711 340/2/711 357/3/711
f 354/1/712 355/2/712 340/3/712
f 354/1/713 349/2/713 355/3/713
f 349/1/714 339/2/714 355/3/714
f 352/1/715 353/2/715 342/3/715
f 352/1/716 350/2/716 353/3/716
f 350/1/717 337/2/717 353/3/717
f 349/1/718 351/2/718 339/3/718
f 349/1/719 350/2/719 351/3/719
f 350/1/720 338/2/720 351/3/720
f 379/13/721 382/14/721 381/15/721
f 381/13/722 384/14/722 383/15/722
f 384/13/723 385/14/723 383/15/723
f 386/13/724 387/14/724 385/15/724
f 387/13/725 390/14/725 389/15/725
f 390/13/726 388/14/726 386/15/726
f 389/13/727 392/14/727 391/15/727
f 392/13/728 379/14/728 391/15/728
f 381/13/729 385/14/729 389/15/729
f 394/13/730 395/14/730 393/15/730
f 395/13/731 398/14/731 397/15/731
f 398/13/732 399/14/732 397/15/732
f 400/13/733 401/14/733 399/15/733
f 402/13/734 403/14/734 401/15/734
f 402/13/735 400/14/735 394/15/735
f 404/13/736 405/14/736 403/15/736
f 406/13/737 393/14/737 405/15/737
f 395/13/738 399/14/738 403/15/738
f 407/13/739 410/14/739 409/15/739
f 409/13/740 412/14/740 411/15/740
f 411/13/741 414/14/741 413/15/741
f 414/13/742 415/14/742 413/15/742
f 415/13/743 418/14/743 417/15/743
f 414/13/744 412/14/744 408/15/744
f 417/13/745 420/14/745 419/15/745
f 420/13/746 407/14/746 419/15/746
f 417/13/747 419/14/747 409/15/747
f 422/13/748 423/14/748 421/15/748
f 423/13/749 426/14/749 425/15/749
f 426/13/750 427/14/750 425/15/750
f 428/13/751 429/14/751 427/15/751
f 429/13/752 432/14/752 431/15/752
f 430/13/753 428/14/753 422/15/753
f 431/13/754 434/14/754 433/15/754
f 434/13/755 421/14/755 433/15/755
f 423/13/756 427/14/756 431/15/756
f 379/13/721 380/14/721 382/15/721
f 381/13/722 382/14/722 384/15/722
f 384/13/723 386/14/723 385/15/723
f 386/13/724 388/14/724 387/15/724
f 387/13/725 388/14/725 390/15/725
f 384/13/726 382/14/726 386/15/726
f 382/13/726 380/14/726 386/15/726
f 380/13/726 392/14/726 386/15/726
f 392/13/726 390/14/726 386/15/726
f 389/13/727 390/14/727 392/15/727
f 392/13/728 380/14/728 379/15/728
f 391/13/729 379/14/729 389/15/729
f 379/13/729 381/14/729 389/15/729
f 381/13/729 383/14/729 385/15/729
f 385/13/729 387/14/729 389/15/729
f 394/13/730 396/14/730 395/15/730
f 395/13/731 396/14/731 398/15/731
f 398/13/732 400/14/732 399/15/732
f 400/13/733 402/14/733 401/15/733
f 402/13/734 404/14/734 403/15/734
f 398/13/735 396/14/735 400/15/735
f 396/13/735 394/14/735 400/15/735
f 394/13/735 406/14/735 404/15/735
f 404/13/735 402/14/735 394/15/735
f 404/13/736 406/14/736 405/15/736
f 406/13/737 394/14/737 393/15/737
f 405/13/738 393/14/738 403/15/738
f 393/13/738 395/14/738 403/15/738
f 395/13/738 397/14/738 399/15/738
f 399/13/738 401/14/738 403/15/738
f 407/13/739 408/14/739 410/15/739
f 409/13/740 410/14/740 412/15/740
f 411/13/741 412/14/741 414/15/741
f 414/13/742 416/14/742 415/15/742
f 415/13/743 416/14/743 418/15/743
f 412/13/744 410/14/744 408/15/744
f 408/13/744 420/14/744 418/15/744
f 418/13/744 416/14/744 408/15/744
f 416/13/744 414/14/744 408/15/744
f 417/13/745 418/14/745 420/15/745
f 420/13/746 408/14/746 407/15/746
f 419/13/747 407/14/747 409/15/747
f 409/13/747 411/14/747 413/15/747
f 413/13/747 415/14/747 409/15/747
f 415/13/747 417/14/747 409/15/747
f 422/13/748 424/14/748 423/15/748
f 423/13/749 424/14/749 426/15/749
f 426/13/750 428/14/750 427/15/750
f 428/13/751 430/14/751 429/15/751
f 429/13/752 430/14/752 432/15/752
f 426/13/753 424/14/753 428/15/753
f 424/13/753 422/14/753 428/15/753
f 422/13/753 434/14/753 432/15/753
f 432/13/753 430/14/753 422/15/753
f 431/13/754 432/14/754 434/15/754
f 434/13/755 422/14/755 421/15/755
f 433/13/756 421/14/756 431/15/756
f 421/13/756 423/14/756 431/15/756
f 423/13/756 425/14/756 427/15/756
f 427/13/756 429/14/756 431/15/756
o campfire_Neon_fire
v -0.038877 0.421468 -0.818715
v 0.653943 0.421468 -0.418715
v 0.653943 0.421468 0.381285
v -0.038877 0.421468 0.781285
v -0.731698 0.421468 0.381285
v -0.731698 0.421468 -0.418715
v -0.038877 2.221468 -0.018715
vn 0.4666 0.3592 -0.8082
vn 0.9333 0.3592 -0.0000
vn 0.4666 0.3592 0.8082
vn -0.4666 0.3592 0.8082
vn -0.0000 -1.0000 -0.0000
vn -0.9333 0.3592 -0.0000
vn -0.4666 0.3592 -0.8082
vt 0.337500 0.214286
vt 0.300000 0.239029
vt 0.300000 0.189542
s 0
usemtl Palette
f 435/16/757 441/17/757 436/18/757
f 436/16/758 441/17/758 437/18/758
f 437/16/759 441/17/759 438/18/759
f 438/16/760 441/17/760 439/18/760
f 436/16/761 438/17/761 440/18/761
f 439/16/762 441/17/762 440/18/762
f 440/16/763 441/17/763 435/18/763
f 440/16/761 435/17/761 436/18/761
f 436/16/761 437/17/761 438/18/761
f 438/16/761 439/17/761 440/18/761
o campfire_Neon_flame_yellow
v -0.113877 0.621468 -0.508427
v 0.412232 0.621468 -0.453131
v 0.522218 0.621468 0.064316
v 0.064085 0.621468 0.328819
v -0.329044 0.621468 -0.025155
v 0.111123 1.921468 -0.118715
vn 0.1007 0.2697 -0.9577
vn 0.9419 0.2697 -0.2002
vn 0.4815 0.2697 0.8339
vn -0.0000 -1.0000 -0.0000
vn -0.6443 0.2697 0.7156
vn -0.8797 0.2697 -0.3917
vt 0.337500 0.071429
vt 0.300000 0.096172
vt 0.300000 0.046685
s 0
usemtl Palette
f 442/19/764 447/20/764 443/21/764
f 443/19/765 447/20/765 444/21/765
f 444/19/766 447/20/766 445/21/766
f 443/19/767 445/20/767 446/21/767
f 445/19/768 447/20/768 446/21/768
f 446/19/769 447/20/769 442/21/769
f 446/19/767 442/20/767 443/21/767
f 443/19/767 444/20/767 445/21/767
o campfire_Neon_ember
v -0.038877 0.306468 -0.018715
v 0.612363 0.480596 0.454433
v -0.287624 0.480596 0.746861
v -0.843860 0.480596 -0.018715
v -0.287624 0.480596 -0.784291
v 0.612363 0.480596 -0.491863
v 0.209869 0.762341 0.746861
v -0.690117 0.762341 0.454433
v -0.690117 0.762341 -0.491863
v 0.209869 0.762341 -0.784291
v 0.766105 0.762341 -0.018715
v -0.038877 0.936468 -0.018715
vn 0.0798 -0.9661 0.2457
vn 0.2583 -0.9661 -0.0000
vn -0.2090 -0.9661 0.1518
vn -0.2090 -0.9661 -0.1518
vn 0.0798 -0.9661 -0.2457
vn 0.8778 -0.4790 -0.0000
vn 0.2713 -0.4790 0.8349
vn -0.7102 -0.4790 0.5160
vn -0.7102 -0.4790 -0.5160
vn 0.2713 -0.4790 -0.8349
vn 0.7102 0.4790 0.5160
vn -0.2713 0.4790 0.8349
vn -0.8778 0.4790 -0.0000
vn -0.2713 0.4790 -0.8349
vn 0.7102 0.4790 -0.5160
vn 0.2090 0.9661 0.1518
vn -0.0798 0.9661 0.2457
vn -0.2583 0.9661 -0.0000
vn -0.0798 0.9661 -0.2457
vn 0.2090 0.9661 -0.1518
vt 0.462500 0.214286
vt 0.425000 0.239029
vt 0.425000 0.189542
s 0
usemtl Palette
f 448/22/770 449/23/770 450/24/770
f 449/22/771 448/23/771 453/24/771
f 448/22/772 450/23/772 451/24/772
f 448/22/773 451/23/773 452/24/773
f 448/22/774 452/23/774 453/24/774
f 449/22/775 453/23/775 458/24/775
f 450/22/776 449/23/776 454/24/776
f 451/22/777 450/23/777 455/24/777
f 452/22/778 451/23/778 456/24/778
f 453/22/779 452/23/779 457/24/779
f 449/22/780 458/23/780 454/24/780
f 450/22/781 454/23/781 455/24/781
f 451/22/782 455/23/782 456/24/782
f 452/22/783 456/23/783 457/24/783
f 453/22/784 457/23/784 458/24/784
f 454/22/785 458/23/785 459/24/785
f 455/22/786 454/23/786 459/24/786
f 456/22/787 455/23/787 459/24/787
f 457/22/788 456/23/788 459/24/788
f 458/22/789 457/23/789 459/24/789
