# Blender 5.0.1
# www.blender.org
mtllib rock_boulder.mtl
o rock_boulder
v -0.119678 0.000000 0.038444
v 3.564962 2.246286 2.232916
v -1.342342 2.345243 3.381309
v -4.591553 2.289505 -0.086408
v -1.523211 2.261382 -3.377324
v 3.688126 2.446915 -2.265152
v 1.454663 5.582325 3.529305
v -3.444363 5.519968 1.797572
v -3.658770 5.691216 -2.155442
v 1.374298 5.448479 -3.429366
v 4.222736 5.560672 0.042424
v 0.061532 7.370163 -0.089564
v -1.119710 1.571115 2.883575
v -0.780583 0.668146 2.017726
v -0.415349 0.211094 0.943173
v 0.899203 0.408710 0.413056
v 2.015712 0.653704 1.181319
v 3.176488 1.308351 1.849815
v 2.797278 2.075512 2.817514
v 1.157350 2.086717 3.005226
v -0.204321 1.904011 3.631359
v 4.344727 1.778308 -1.508590
v 4.448009 1.840305 0.052262
v 4.117995 2.056380 1.212704
v 0.918812 0.171002 -0.684269
v 2.130867 1.050950 -1.418135
v 2.941386 1.698338 -1.827991
v -3.994144 1.524550 -0.210054
v -2.593408 1.195084 -0.203517
v -1.240371 0.298667 -0.019846
v -2.452275 2.150765 2.853807
v -3.485321 1.785908 2.096837
v -4.441206 2.151955 1.011649
v -1.264636 1.408776 -2.947497
v -0.704444 0.913951 -2.004474
v -0.596944 0.079206 -1.025555
v -4.099893 2.057611 -0.910374
v -3.193718 2.512312 -1.750219
v -2.481307 2.332601 -2.837800
v -0.218757 2.290493 -3.439534
v 1.102902 2.269332 -2.810681
v 2.376554 2.668200 -2.295674
v 4.376017 4.538990 0.444652
v 4.254887 3.824018 1.114010
v 3.934031 2.993961 1.461558
v 4.265708 3.040520 -2.064014
v 4.947522 4.080206 -1.319081
v 4.535162 4.825889 -0.751377
v 0.786061 4.911317 4.403491
v 0.044394 4.049112 4.071441
v -0.898138 3.107123 3.870157
v 3.755888 2.951159 2.918213
v 3.258223 3.977732 3.742483
v 2.336271 4.831712 3.429935
v -3.871081 4.747226 1.324741
v -4.458228 3.796246 0.817636
v -4.388188 2.975154 0.381972
v -2.245186 3.120573 3.192447
v -2.814169 3.888055 2.861109
v -3.143567 4.502359 2.064430
v -3.331179 4.937564 -2.639476
v -3.036123 3.979907 -3.644799
v -2.125787 3.093386 -3.474854
v -4.981972 3.096881 -0.791232
v -4.625535 3.818814 -1.243328
v -4.403425 4.841536 -1.830552
v 2.286292 4.797478 -3.675654
v 2.912664 3.964221 -3.482098
v 3.221083 3.179847 -2.853382
v -0.944191 3.000864 -3.970387
v 0.039782 3.885424 -4.107389
v 0.710240 4.701543 -3.887204
v 3.899842 5.820816 0.823344
v 3.362511 5.917749 1.911229
v 2.354863 5.736633 2.767189
v -0.020984 6.234811 3.863230
v -1.409384 5.811236 3.146487
v -2.241580 5.438717 2.351639
v -4.012977 5.717418 1.091823
v -3.858033 5.439740 -0.150793
v -4.169772 5.771643 -1.271450
v -2.553426 5.527363 -2.642816
v -1.501875 5.973364 -3.632876
v 0.191811 5.855284 -3.760211
v 2.526718 5.865187 -3.152257
v 3.534040 5.989579 -2.080357
v 4.095651 5.878570 -1.146258
v 0.353647 6.856212 0.803786
v 0.828093 6.861357 1.887416
v 1.044909 6.310967 2.965338
v 3.758748 6.388131 0.013920
v 2.421003 6.711698 -0.097731
v 1.193047 7.101232 0.006688
v -0.915991 7.017708 0.532409
v -2.169928 6.692300 1.169531
v -3.329436 6.552118 1.684207
v -1.011527 7.855866 -0.749865
v -2.449411 7.444736 -1.495341
v -3.255725 6.639309 -2.162801
v 0.506447 7.667048 -0.945904
v 0.803436 6.958867 -2.087923
v 1.215110 6.447754 -2.882457
v 1.669524 7.083816 -1.125654
v 3.238709 6.552505 -1.085740
v 2.189894 6.853725 -2.282657
v -0.622495 7.359384 -1.875909
v -0.223707 6.334637 -2.603318
v -1.953333 6.457671 -2.211798
v -2.279579 7.307982 -0.060865
v -3.228141 6.428088 -0.762142
v -3.571748 6.763807 0.444968
v -0.610761 7.059682 1.582438
v -1.892515 6.327005 2.217852
v -0.193198 6.723290 2.600970
v 1.590217 6.668289 0.984290
v 2.349189 6.719839 2.161526
v 3.250576 6.794524 0.982898
v 4.348173 4.921148 -1.866226
v 3.987874 3.907671 -2.395446
v 3.416677 5.212593 -2.962548
v -0.830676 5.110727 -4.403491
v -1.532037 4.089011 -3.958753
v -2.161021 4.965385 -3.524866
v -4.532785 4.885304 -0.751721
v -4.663153 4.055476 -0.019935
v -4.329818 4.727065 0.585358
v -2.060505 4.854682 3.261058
v -1.522204 3.909460 3.592264
v -0.937143 4.924588 4.201077
v 3.350918 5.028495 2.749452
v 3.944364 4.064809 2.392921
v 3.935208 4.829240 1.539010
v 1.504404 3.869908 -3.988805
v 2.212639 3.158361 -3.460572
v 0.781353 2.896176 -4.061114
v -3.654063 3.972866 -2.280099
v -3.328871 3.208214 -2.698391
v -4.155202 3.193703 -1.587470
v -3.636932 3.841970 2.068644
v -4.196276 3.009111 1.404428
v -3.374344 3.013711 2.471968
v 1.528881 4.006505 3.959189
v 0.735015 3.059816 3.505579
v 2.297838 2.821700 3.546107
v 4.936310 3.808782 -0.059292
v 4.520742 2.999466 0.491946
v 4.981972 2.836657 -0.666817
v 1.595951 1.539891 -2.424046
v 0.754776 0.595268 -1.839558
v 0.284643 1.364050 -2.616872
v -2.141873 1.451248 -2.168724
v -1.869592 0.886478 -1.111098
v -3.187066 1.412339 -0.978159
v -3.243619 1.185292 0.961941
v -1.803971 1.063581 0.953310
v -2.282522 1.833302 1.856098
v 3.342068 1.397816 -0.803077
v 3.434070 1.293968 0.499260
v 2.054349 0.907030 0.038592
v 0.369954 1.113519 2.688128
v 0.711102 0.834896 1.630452
v 1.851282 1.437473 2.286765
vn 0.2586 -0.9186 0.2988
vn 0.7213 -0.4962 0.4833
vn -0.2617 -0.9553 0.1374
vn -0.2594 -0.9647 0.0445
vn 0.0852 -0.9901 -0.1119
vn 0.8819 0.0485 0.4690
vn -0.3324 -0.3644 0.8699
vn -0.9710 0.1816 0.1557
vn -0.4672 -0.4290 -0.7731
vn -0.0938 -0.6588 -0.7464
vn 0.9301 -0.3525 0.1034
vn -0.4318 -0.2952 0.8523
vn -0.8932 -0.0410 0.4478
vn -0.3832 -0.3764 -0.8435
vn 0.5560 -0.2752 -0.7843
vn 0.3945 0.6908 0.6059
vn -0.4060 0.1443 0.9024
vn -0.8015 0.3369 -0.4940
vn 0.3870 0.4894 -0.7815
vn 0.8710 0.4897 0.0378
vn 0.1789 0.8971 0.4040
vn 0.3093 0.9439 0.1156
vn 0.2321 0.9720 0.0355
vn 0.4631 0.8675 0.1815
vn 0.3523 0.8336 -0.4253
vn 0.3163 0.9423 0.1099
vn 0.3214 0.9459 -0.0436
vn 0.0503 0.9836 -0.1730
vn -0.0131 0.8378 -0.5458
vn 0.6020 0.7806 -0.1680
vn 0.5854 0.7677 -0.2607
vn 0.5485 0.7870 -0.2826
vn 0.5077 0.6601 -0.5537
vn 0.1558 0.6818 -0.7147
vn 0.0352 0.4841 -0.8743
vn 0.1637 0.9027 0.3980
vn 0.1682 0.8567 -0.4876
vn -0.1772 0.7834 -0.5957
vn 0.0650 0.9212 -0.3837
vn -0.0442 0.9084 -0.4158
vn 0.0459 0.5900 -0.8061
vn -0.1506 0.5326 -0.8329
vn -0.1490 0.5307 -0.8343
vn 0.0544 0.6043 -0.7949
vn -0.1525 0.8925 -0.4246
vn 0.0368 0.9278 -0.3712
vn -0.0061 0.9459 -0.3243
vn -0.6605 0.6213 -0.4216
vn 0.0226 0.4082 -0.9126
vn -0.3794 0.1542 -0.9123
vn 0.0443 0.8377 0.5443
vn -0.3337 0.9339 0.1285
vn -0.7476 0.6544 0.1134
vn -0.0616 0.8333 0.5493
vn -0.0045 0.8941 0.4478
vn -0.7297 0.6671 0.1500
vn -0.4781 0.8016 -0.3590
vn -0.1896 0.8712 0.4528
vn -0.0408 0.9835 0.1760
vn -0.6133 0.7792 0.1296
vn -0.6581 0.6522 0.3762
vn -0.8736 0.3438 -0.3443
vn -0.9413 0.2850 -0.1811
vn -0.8283 0.5025 0.2478
vn -0.7479 0.1542 0.6457
vn 0.0039 0.8673 0.4977
vn -0.2368 0.9711 0.0300
vn 0.0286 0.9463 0.3222
vn 0.1428 0.9864 -0.0809
vn 0.1509 0.9860 -0.0708
vn -0.3070 0.8706 0.3846
vn -0.2934 0.8654 0.4061
vn 0.0710 0.9555 0.2865
vn 0.1731 0.8908 0.4201
vn -0.3009 0.2566 0.9185
vn -0.7228 0.3718 0.5825
vn -0.3067 0.7554 0.5791
vn -0.4423 0.8144 0.3755
vn 0.2103 0.9211 0.3278
vn 0.4360 0.6912 0.5763
vn 0.1703 0.8772 0.4490
vn 0.1605 0.9842 -0.0749
vn 0.0009 0.8907 0.4546
vn 0.0857 0.9234 0.3741
vn 0.3119 0.9092 0.2759
vn 0.1127 0.9869 -0.1159
vn -0.0758 0.9971 0.0052
vn -0.0758 0.9970 -0.0182
vn 0.2475 0.9329 -0.2615
vn 0.3381 0.4950 0.8004
vn 0.5313 0.4466 0.7199
vn 0.6090 0.6120 0.5046
vn 0.8038 0.4779 0.3544
vn 0.8281 0.5165 0.2177
vn 0.8533 0.4851 0.1912
vn 0.9221 0.3868 0.0049
vn 0.8388 0.5361 -0.0949
vn 0.7475 -0.0143 -0.6641
vn 0.9314 0.3412 -0.1271
vn 0.7657 0.5032 -0.4006
vn 0.7364 0.0884 -0.6707
vn 0.7685 0.0595 -0.6371
vn 0.7337 0.4585 -0.5015
vn 0.5555 0.5860 -0.5900
vn 0.5888 -0.1171 -0.7998
vn 0.6747 -0.2816 -0.6823
vn 0.7110 0.0056 -0.7032
vn 0.4829 0.1631 -0.8604
vn 0.4175 0.3224 -0.8495
vn 0.0620 0.4280 -0.9016
vn 0.3403 0.2526 -0.9057
vn 0.3167 -0.0042 -0.9485
vn -0.0996 -0.0432 -0.9941
vn 0.3687 0.2638 -0.8913
vn -0.0102 0.6617 -0.7497
vn -0.1301 -0.3193 -0.9387
vn -0.5523 0.0163 -0.8335
vn -0.5505 0.2756 -0.7880
vn -0.7120 0.4041 -0.5742
vn -0.3922 -0.2023 -0.8974
vn -0.1672 -0.3485 -0.9223
vn -0.2157 0.3045 -0.9278
vn -0.5162 0.5394 -0.6653
vn -0.4790 0.6281 -0.6133
vn -0.3159 0.4117 -0.8548
vn -0.7443 0.4714 -0.4731
vn -0.9821 0.1424 -0.1235
vn -0.9160 0.3877 -0.1032
vn -0.9417 0.3121 -0.1256
vn -0.7638 0.5294 0.3693
vn -0.9926 0.1102 -0.0518
vn -0.9359 0.3040 0.1780
vn -0.7182 0.6699 0.1883
vn -0.8992 0.3895 -0.1992
vn -0.8931 -0.0615 0.4456
vn -0.9671 -0.1787 0.1813
vn -0.9352 0.2017 0.2912
vn -0.8277 0.2407 0.5070
vn -0.8498 0.0023 0.5272
vn -0.7727 0.0391 0.6335
vn -0.4091 0.1164 0.9051
vn -0.7444 0.3435 0.5726
vn -0.4926 0.0105 0.8702
vn -0.7010 0.5284 0.4789
vn -0.6971 0.5321 0.4805
vn -0.4927 0.0242 0.8699
vn -0.6355 -0.0934 0.7664
vn -0.5819 0.4751 0.6600
vn -0.5109 0.5315 0.6756
vn -0.4494 -0.0404 0.8924
vn -0.2990 0.0963 0.9494
vn -0.2361 -0.3961 0.8873
vn -0.1144 -0.2698 0.9561
vn -0.1082 0.3185 0.9417
vn 0.4073 0.5469 0.7314
vn 0.5068 0.5026 0.7004
vn 0.3456 0.6282 0.6970
vn 0.8879 0.0646 0.4556
vn 0.3953 0.5374 0.7449
vn 0.4459 0.6109 0.6542
vn 0.8273 0.3456 0.4429
vn 0.8507 0.3961 0.3455
vn 0.8695 0.3327 0.3650
vn 0.8612 0.3173 0.3971
vn 0.9868 -0.1116 0.1174
vn 0.9304 -0.2457 0.2722
vn 0.9560 0.2237 0.1900
vn 0.9300 0.1547 0.3335
vn 0.9190 0.2518 0.3034
vn 0.9207 0.2546 0.2959
vn 0.0905 0.4608 -0.8829
vn 0.3363 0.0342 -0.9411
vn 0.4722 -0.4308 -0.7691
vn 0.1158 0.2287 -0.9666
vn 0.0812 0.1969 -0.9771
vn 0.3397 -0.3187 -0.8849
vn 0.4127 -0.2412 -0.8783
vn 0.0808 0.0140 -0.9966
vn -0.0577 -0.0898 -0.9943
vn 0.2627 -0.8756 -0.4054
vn 0.4177 -0.8150 -0.4017
vn 0.3518 -0.7975 -0.4902
vn 0.2154 -0.8497 -0.4813
vn -0.0791 -0.6473 -0.7581
vn -0.0239 -0.6140 -0.7889
vn -0.5990 0.2319 -0.7664
vn -0.9010 0.1499 -0.4072
vn -0.4712 -0.6066 -0.6404
vn -0.5937 -0.0988 -0.7986
vn -0.6898 -0.2420 -0.6823
vn -0.8990 -0.1592 -0.4079
vn -0.8022 -0.0146 -0.5969
vn -0.7093 -0.1551 -0.6877
vn -0.6820 -0.1155 -0.7222
vn -0.5256 -0.3882 -0.7570
vn -0.6992 -0.6202 -0.3555
vn -0.5689 -0.6996 -0.4323
vn -0.4610 -0.4708 -0.7523
vn -0.5992 -0.4312 -0.6746
vn -0.7481 -0.6032 -0.2766
vn -0.7175 -0.0296 0.6959
vn -0.8186 0.2232 0.5293
vn -0.9654 -0.1817 0.1872
vn -0.5688 0.4294 0.7015
vn -0.6254 0.4712 0.6219
vn -0.8313 0.1267 0.5411
vn -0.7916 0.0457 0.6093
vn -0.6918 0.1268 0.7109
vn -0.5354 -0.0326 0.8440
vn -0.9650 0.1957 0.1746
vn -0.7610 -0.0777 0.6441
vn -0.7869 -0.1141 0.6064
vn -0.5310 -0.2033 0.8226
vn -0.5166 -0.1818 0.8367
vn -0.3846 -0.2300 0.8940
vn 0.4858 0.4733 0.7348
vn 0.0576 -0.4015 0.9140
vn 0.1906 -0.3838 0.9035
vn 0.5325 0.0217 0.8461
vn 0.1183 0.4514 0.8844
vn 0.0533 -0.4675 0.8824
vn -0.0810 -0.3746 0.9236
vn 0.1158 -0.2591 0.9589
vn 0.3858 -0.4567 0.8017
vn 0.2154 -0.0691 0.9741
vn 0.4320 -0.2570 0.8645
vn -0.0969 -0.4881 0.8674
vn 0.0801 -0.6684 0.7395
vn 0.3790 -0.5041 0.7761
vn 0.5442 -0.6559 0.5230
vn 0.9601 0.2146 0.1792
vn 0.8252 0.3052 0.4753
vn 0.8503 -0.1135 0.5139
vn 0.8422 0.4881 0.2291
vn 0.9008 0.4227 0.0991
vn 0.8598 -0.1005 0.5007
vn 0.9005 -0.1992 0.3864
vn 0.9992 0.0365 0.0167
vn 0.8539 -0.2230 -0.4703
vn 0.8551 0.0304 0.5176
vn 0.9386 -0.1723 0.2990
vn 0.8996 -0.2031 0.3866
vn 0.8691 -0.4931 -0.0379
vn 0.8704 -0.1516 -0.4683
vn 0.5735 -0.2996 -0.7625
vn -0.0571 -0.4604 -0.8859
vn 0.3337 -0.7658 -0.5497
vn 0.3916 -0.8444 -0.3657
vn 0.4162 -0.1867 -0.8899
vn 0.4183 -0.1883 -0.8886
vn 0.4101 -0.7153 -0.5658
vn 0.1951 -0.6358 -0.7468
vn 0.1829 -0.3611 -0.9144
vn 0.3658 -0.4989 -0.7857
vn 0.1367 -0.9235 -0.3585
vn -0.0942 -0.7626 -0.6400
vn -0.0839 -0.7334 -0.6746
vn 0.0820 -0.8616 -0.5008
vn 0.1484 -0.6103 -0.7781
vn -0.0322 -0.4577 -0.8885
vn -0.4512 -0.5071 -0.7344
vn -0.3050 -0.9058 -0.2941
vn -0.4152 -0.7142 -0.5635
vn -0.5311 -0.6325 -0.5638
vn -0.7272 -0.5702 -0.3821
vn -0.2818 -0.8746 -0.3945
vn -0.3770 -0.8538 -0.3589
vn -0.6722 -0.4281 -0.6041
vn -0.4240 -0.5220 -0.7401
vn -0.5223 -0.8393 -0.1510
vn -0.5333 -0.8340 -0.1417
vn -0.3687 -0.9293 0.0219
vn -0.2274 -0.9689 -0.0974
vn -0.5353 -0.7091 -0.4589
vn -0.7738 -0.5549 -0.3055
vn -0.7854 -0.6182 0.0301
vn -0.2263 -0.9647 -0.1344
vn -0.5556 -0.7790 0.2906
vn -0.6146 -0.7702 0.1706
vn -0.5976 -0.7543 0.2719
vn -0.0844 -0.9949 -0.0555
vn -0.0618 -0.7754 0.6284
vn 0.1312 -0.8644 0.4854
vn 0.1006 -0.9430 0.3172
vn -0.4890 -0.8007 0.3461
vn -0.5135 -0.8386 0.1821
vn -0.6037 -0.7356 0.3072
vn -0.5707 -0.6698 0.4750
vn -0.3934 -0.8933 0.2173
vn -0.2671 -0.5743 0.7738
vn 0.2053 -0.6381 -0.7421
vn 0.3628 -0.9318 0.0130
vn 0.5519 -0.7774 0.3017
vn 0.1273 -0.9373 -0.3246
vn 0.4362 -0.8031 -0.4060
vn 0.4366 -0.8938 -0.1021
vn 0.2986 -0.9495 -0.0968
vn 0.3106 -0.9474 -0.0773
vn 0.5661 -0.8227 -0.0515
vn 0.6710 -0.7289 0.1357
vn 0.4471 -0.8895 0.0947
vn 0.3245 -0.9257 -0.1943
vn 0.3352 -0.9221 -0.1931
vn 0.4416 -0.8752 0.1975
vn 0.2976 -0.9319 0.2072
vn -0.3819 -0.5750 0.7235
vn -0.1277 -0.7110 0.6915
vn 0.2123 -0.8712 0.4427
vn -0.1724 -0.8041 0.5690
vn 0.4064 -0.5632 0.7195
vn 0.1837 -0.9343 0.3054
vn 0.2860 -0.8999 0.3293
vn 0.3275 -0.5217 0.7878
vn 0.0762 -0.7020 0.7080
vn 0.2775 -0.8926 0.3554
vn -0.0183 -0.9446 0.3278
vn 0.0894 -0.8062 0.5849
vn 0.1150 -0.8022 0.5859
vn 0.1409 -0.7482 0.6483
vn 0.5918 -0.5025 0.6303
vt 0.087500 0.357143
vt 0.050000 0.381886
vt 0.050000 0.332399
vt 0.962500 0.500000
vt 0.925000 0.524744
vt 0.925000 0.475256
vt 0.212500 0.357143
vt 0.175000 0.381886
vt 0.175000 0.332399
vt 0.462500 0.500000
vt 0.425000 0.524744
vt 0.425000 0.475256
s 0
usemtl Palette
f 1/1/1 16/2/1 15/3/1
f 2/1/2 18/2/2 24/3/2
f 1/1/3 15/2/3 30/3/3
f 1/1/4 30/2/4 36/3/4
f 1/1/5 36/2/5 25/3/5
f 2/4/6 24/5/6 45/6/6
f 3/1/7 21/2/7 51/3/7
f 4/7/8 33/8/8 57/9/8
f 5/1/9 39/2/9 63/3/9
f 6/1/10 42/2/10 69/3/10
f 2/1/11 45/2/11 52/3/11
f 3/1/12 51/2/12 58/3/12
f 4/4/13 57/5/13 64/6/13
f 5/1/14 63/2/14 70/3/14
f 6/1/15 69/2/15 46/3/15
f 7/10/16 75/11/16 90/12/16
f 8/7/17 78/8/17 96/9/17
f 9/7/18 81/8/18 99/9/18
f 10/4/19 84/5/19 102/6/19
f 11/4/20 87/5/20 91/6/20
f 93/10/21 100/11/21 12/12/21
f 92/10/22 103/11/22 93/12/22
f 91/10/23 104/11/23 92/12/23
f 93/10/24 103/11/24 100/12/24
f 103/10/25 101/11/25 100/12/25
f 92/10/26 104/11/26 103/12/26
f 104/10/27 105/11/27 103/12/27
f 103/10/28 105/11/28 101/12/28
f 105/10/29 102/11/29 101/12/29
f 91/10/30 87/11/30 104/12/30
f 87/10/31 86/11/31 104/12/31
f 104/10/32 86/11/32 105/12/32
f 86/10/33 85/11/33 105/12/33
f 105/10/34 85/11/34 102/12/34
f 85/4/35 10/5/35 102/6/35
f 100/10/36 97/11/36 12/12/36
f 101/10/37 106/11/37 100/12/37
f 102/10/38 107/11/38 101/12/38
f 100/10/39 106/11/39 97/12/39
f 106/10/40 98/11/40 97/12/40
f 101/4/41 107/5/41 106/6/41
f 107/4/42 108/5/42 106/6/42
f 106/4/43 108/5/43 98/6/43
f 108/4/44 99/5/44 98/6/44
f 102/10/45 84/11/45 107/12/45
f 84/10/46 83/11/46 107/12/46
f 107/10/47 83/11/47 108/12/47
f 83/10/48 82/11/48 108/12/48
f 108/7/49 82/8/49 99/9/49
f 82/7/50 9/8/50 99/9/50
f 97/10/51 94/11/51 12/12/51
f 98/10/52 109/11/52 97/12/52
f 99/10/53 110/11/53 98/12/53
f 97/10/54 109/11/54 94/12/54
f 109/10/55 95/11/55 94/12/55
f 98/10/56 110/11/56 109/12/56
f 110/10/57 111/11/57 109/12/57
f 109/10/58 111/11/58 95/12/58
f 111/10/59 96/11/59 95/12/59
f 99/10/60 81/11/60 110/12/60
f 81/10/61 80/11/61 110/12/61
f 110/7/62 80/8/62 111/9/62
f 80/7/63 79/8/63 111/9/63
f 111/4/64 79/5/64 96/6/64
f 79/7/65 8/8/65 96/9/65
f 94/10/66 88/11/66 12/12/66
f 95/10/67 112/11/67 94/12/67
f 96/10/68 113/11/68 95/12/68
f 94/10/69 112/11/69 88/12/69
f 112/10/70 89/11/70 88/12/70
f 95/10/71 113/11/71 112/12/71
f 113/10/72 114/11/72 112/12/72
f 112/10/73 114/11/73 89/12/73
f 114/10/74 90/11/74 89/12/74
f 96/7/75 78/8/75 113/9/75
f 78/7/76 77/8/76 113/9/76
f 113/10/77 77/11/77 114/12/77
f 77/10/78 76/11/78 114/12/78
f 114/10/79 76/11/79 90/12/79
f 76/10/80 7/11/80 90/12/80
f 88/10/81 93/11/81 12/12/81
f 89/10/82 115/11/82 88/12/82
f 90/10/83 116/11/83 89/12/83
f 88/10/84 115/11/84 93/12/84
f 115/10/85 92/11/85 93/12/85
f 89/10/86 116/11/86 115/12/86
f 116/10/87 117/11/87 115/12/87
f 115/10/88 117/11/88 92/12/88
f 117/10/89 91/11/89 92/12/89
f 90/4/90 75/5/90 116/6/90
f 75/7/91 74/8/91 116/9/91
f 116/4/92 74/5/92 117/6/92
f 74/4/93 73/5/93 117/6/93
f 117/4/94 73/5/94 91/6/94
f 73/4/95 11/5/95 91/6/95
f 48/7/96 87/8/96 11/9/96
f 47/4/97 118/5/97 48/6/97
f 46/4/98 119/5/98 47/6/98
f 48/7/99 118/8/99 87/9/99
f 118/4/100 86/5/100 87/6/100
f 47/4/101 119/5/101 118/6/101
f 119/4/102 120/5/102 118/6/102
f 118/4/103 120/5/103 86/6/103
f 120/4/104 85/5/104 86/6/104
f 46/1/105 69/2/105 119/3/105
f 69/1/106 68/2/106 119/3/106
f 119/4/107 68/5/107 120/6/107
f 68/7/108 67/8/108 120/9/108
f 120/7/109 67/8/109 85/9/109
f 67/7/110 10/8/110 85/9/110
f 72/7/111 84/8/111 10/9/111
f 71/4/112 121/5/112 72/6/112
f 70/4/113 122/5/113 71/6/113
f 72/7/114 121/8/114 84/9/114
f 121/10/115 83/11/115 84/12/115
f 71/1/116 122/2/116 121/3/116
f 122/4/117 123/5/117 121/6/117
f 121/7/118 123/8/118 83/9/118
f 123/7/119 82/8/119 83/9/119
f 70/1/120 63/2/120 122/3/120
f 63/1/121 62/2/121 122/3/121
f 122/7/122 62/8/122 123/9/122
f 62/4/123 61/5/123 123/6/123
f 123/10/124 61/11/124 82/12/124
f 61/7/125 9/8/125 82/9/125
f 66/4/126 81/5/126 9/6/126
f 65/7/127 124/8/127 66/9/127
f 64/7/128 125/8/128 65/9/128
f 66/7/129 124/8/129 81/9/129
f 124/4/130 80/5/130 81/6/130
f 65/7/131 125/8/131 124/9/131
f 125/7/132 126/8/132 124/9/132
f 124/10/133 126/11/133 80/12/133
f 126/7/134 79/8/134 80/9/134
f 64/4/135 57/5/135 125/6/135
f 57/1/136 56/2/136 125/3/136
f 125/7/137 56/8/137 126/9/137
f 56/7/138 55/8/138 126/9/138
f 126/4/139 55/5/139 79/6/139
f 55/4/140 8/5/140 79/6/140
f 60/7/141 78/8/141 8/9/141
f 59/7/142 127/8/142 60/9/142
f 58/4/143 128/5/143 59/6/143
f 60/4/144 127/5/144 78/6/144
f 127/4/145 77/5/145 78/6/145
f 59/4/146 128/5/146 127/6/146
f 128/4/147 129/5/147 127/6/147
f 127/4/148 129/5/148 77/6/148
f 129/4/149 76/5/149 77/6/149
f 58/4/150 51/5/150 128/6/150
f 51/4/151 50/5/151 128/6/151
f 128/1/152 50/2/152 129/3/152
f 50/1/153 49/2/153 129/3/153
f 129/7/154 49/8/154 76/9/154
f 49/4/155 7/5/155 76/6/155
f 54/4/156 75/5/156 7/6/156
f 53/10/157 130/11/157 54/12/157
f 52/4/158 131/5/158 53/6/158
f 54/4/159 130/5/159 75/6/159
f 130/4/160 74/5/160 75/6/160
f 53/7/161 131/8/161 130/9/161
f 131/7/162 132/8/162 130/9/162
f 130/7/163 132/8/163 74/9/163
f 132/7/164 73/8/164 74/9/164
f 52/1/165 45/2/165 131/3/165
f 45/1/166 44/2/166 131/3/166
f 131/7/167 44/8/167 132/9/167
f 44/7/168 43/8/168 132/9/168
f 132/7/169 43/8/169 73/9/169
f 43/7/170 11/8/170 73/9/170
f 67/4/171 72/5/171 10/6/171
f 68/4/172 133/5/172 67/6/172
f 69/1/173 134/2/173 68/3/173
f 67/7/174 133/8/174 72/9/174
f 133/7/175 71/8/175 72/9/175
f 68/1/176 134/2/176 133/3/176
f 134/1/177 135/2/177 133/3/177
f 133/4/178 135/5/178 71/6/178
f 135/4/179 70/5/179 71/6/179
f 69/1/180 42/2/180 134/3/180
f 42/1/181 41/2/181 134/3/181
f 134/1/182 41/2/182 135/3/182
f 41/1/183 40/2/183 135/3/183
f 135/1/184 40/2/184 70/3/184
f 40/1/185 5/2/185 70/3/185
f 61/7/186 66/8/186 9/9/186
f 62/7/187 136/8/187 61/9/187
f 63/1/188 137/2/188 62/3/188
f 61/4/189 136/5/189 66/6/189
f 136/1/190 65/2/190 66/3/190
f 62/1/191 137/2/191 136/3/191
f 137/4/192 138/5/192 136/6/192
f 136/1/193 138/2/193 65/3/193
f 138/1/194 64/2/194 65/3/194
f 63/1/195 39/2/195 137/3/195
f 39/1/196 38/2/196 137/3/196
f 137/1/197 38/2/197 138/3/197
f 38/1/198 37/2/198 138/3/198
f 138/1/199 37/2/199 64/3/199
f 37/1/200 4/2/200 64/3/200
f 55/4/201 60/5/201 8/6/201
f 56/7/202 139/8/202 55/9/202
f 57/1/203 140/2/203 56/3/203
f 55/7/204 139/8/204 60/9/204
f 139/4/205 59/5/205 60/6/205
f 56/7/206 140/8/206 139/9/206
f 140/4/207 141/5/207 139/6/207
f 139/7/208 141/8/208 59/9/208
f 141/4/209 58/5/209 59/6/209
f 57/7/210 33/8/210 140/9/210
f 33/4/211 32/5/211 140/6/211
f 140/1/212 32/2/212 141/3/212
f 32/1/213 31/2/213 141/3/213
f 141/1/214 31/2/214 58/3/214
f 31/1/215 3/2/215 58/3/215
f 49/4/216 54/5/216 7/6/216
f 50/1/217 142/2/217 49/3/217
f 51/1/218 143/2/218 50/3/218
f 49/4/219 142/5/219 54/6/219
f 142/4/220 53/5/220 54/6/220
f 50/1/221 143/2/221 142/3/221
f 143/1/222 144/2/222 142/3/222
f 142/1/223 144/2/223 53/3/223
f 144/1/224 52/2/224 53/3/224
f 51/4/225 21/5/225 143/6/225
f 21/1/226 20/2/226 143/3/226
f 143/1/227 20/2/227 144/3/227
f 20/1/228 19/2/228 144/3/228
f 144/1/229 19/2/229 52/3/229
f 19/1/230 2/2/230 52/3/230
f 43/7/231 48/8/231 11/9/231
f 44/7/232 145/8/232 43/9/232
f 45/1/233 146/2/233 44/3/233
f 43/4/234 145/5/234 48/6/234
f 145/7/235 47/8/235 48/9/235
f 44/1/236 146/2/236 145/3/236
f 146/1/237 147/2/237 145/3/237
f 145/4/238 147/5/238 47/6/238
f 147/1/239 46/2/239 47/3/239
f 45/4/240 24/5/240 146/6/240
f 24/1/241 23/2/241 146/3/241
f 146/1/242 23/2/242 147/3/242
f 23/1/243 22/2/243 147/3/243
f 147/1/244 22/2/244 46/3/244
f 22/1/245 6/2/245 46/3/245
f 27/1/246 42/2/246 6/3/246
f 26/1/247 148/2/247 27/3/247
f 25/1/248 149/2/248 26/3/248
f 27/1/249 148/2/249 42/3/249
f 148/1/250 41/2/250 42/3/250
f 26/1/251 149/2/251 148/3/251
f 149/1/252 150/2/252 148/3/252
f 148/1/253 150/2/253 41/3/253
f 150/1/254 40/2/254 41/3/254
f 25/1/255 36/2/255 149/3/255
f 36/1/256 35/2/256 149/3/256
f 149/1/257 35/2/257 150/3/257
f 35/1/258 34/2/258 150/3/258
f 150/1/259 34/2/259 40/3/259
f 34/1/260 5/2/260 40/3/260
f 34/1/261 39/2/261 5/3/261
f 35/1/262 151/2/262 34/3/262
f 36/1/263 152/2/263 35/3/263
f 34/1/264 151/2/264 39/3/264
f 151/1/265 38/2/265 39/3/265
f 35/1/266 152/2/266 151/3/266
f 152/1/267 153/2/267 151/3/267
f 151/1/268 153/2/268 38/3/268
f 153/1/269 37/2/269 38/3/269
f 36/1/270 30/2/270 152/3/270
f 30/1/271 29/2/271 152/3/271
f 152/1/272 29/2/272 153/3/272
f 29/1/273 28/2/273 153/3/273
f 153/1/274 28/2/274 37/3/274
f 28/1/275 4/2/275 37/3/275
f 28/1/276 33/2/276 4/3/276
f 29/1/277 154/2/277 28/3/277
f 30/1/278 155/2/278 29/3/278
f 28/1/279 154/2/279 33/3/279
f 154/1/280 32/2/280 33/3/280
f 29/1/281 155/2/281 154/3/281
f 155/1/282 156/2/282 154/3/282
f 154/1/283 156/2/283 32/3/283
f 156/1/284 31/2/284 32/3/284
f 30/1/285 15/2/285 155/3/285
f 15/1/286 14/2/286 155/3/286
f 155/1/287 14/2/287 156/3/287
f 14/1/288 13/2/288 156/3/288
f 156/1/289 13/2/289 31/3/289
f 13/1/290 3/2/290 31/3/290
f 22/1/291 27/2/291 6/3/291
f 23/1/292 157/2/292 22/3/292
f 24/1/293 158/2/293 23/3/293
f 22/1/294 157/2/294 27/3/294
f 157/1/295 26/2/295 27/3/295
f 23/1/296 158/2/296 157/3/296
f 158/1/297 159/2/297 157/3/297
f 157/1/298 159/2/298 26/3/298
f 159/1/299 25/2/299 26/3/299
f 24/1/300 18/2/300 158/3/300
f 18/1/301 17/2/301 158/3/301
f 158/1/302 17/2/302 159/3/302
f 17/1/303 16/2/303 159/3/303
f 159/1/304 16/2/304 25/3/304
f 16/1/305 1/2/305 25/3/305
f 13/1/306 21/2/306 3/3/306
f 14/1/307 160/2/307 13/3/307
f 15/1/308 161/2/308 14/3/308
f 13/1/309 160/2/309 21/3/309
f 160/1/310 20/2/310 21/3/310
f 14/1/311 161/2/311 160/3/311
f 161/1/312 162/2/312 160/3/312
f 160/1/313 162/2/313 20/3/313
f 162/1/314 19/2/314 20/3/314
f 15/1/315 16/2/315 161/3/315
f 16/1/316 17/2/316 161/3/316
f 161/1/317 17/2/317 162/3/317
f 17/1/318 18/2/318 162/3/318
f 162/1/319 18/2/319 19/3/319
f 18/1/320 2/2/320 19/3/320
