# Blender 5.0.1
# www.blender.org
mtllib tree.mtl
o tree
v -0.028796 0.118133 -0.949696
v -0.009483 8.067847 -0.488376
v 0.690357 0.010946 -0.676698
v 0.304259 8.065171 -0.397847
v 0.971671 0.067191 0.085557
v 0.560152 8.147172 0.049292
v 0.730330 0.000000 0.717395
v 0.386350 8.056921 0.285648
v -0.015638 0.000575 0.918355
v -0.014824 8.075258 0.510832
v -0.649397 0.030934 0.685351
v -0.326775 7.999367 0.389546
v -0.816282 0.098696 -0.003139
v -0.515549 8.133520 -0.072913
v -0.667348 0.111366 -0.603734
v -0.286521 8.063466 -0.413955
v 0.072547 6.242784 0.048560
v 2.458351 7.982090 1.710512
v -0.873207 7.800337 3.272093
v -3.293565 8.059638 0.155896
v -0.667357 8.004032 -2.783177
v 2.696607 7.658107 -1.815681
v 1.129681 10.475439 3.094132
v -2.478173 10.524624 2.118718
v -2.285833 10.431917 -2.168350
v 0.751259 10.144305 -2.758877
v 3.514241 10.283597 0.124177
v 0.268624 11.985318 0.117275
v -0.593516 6.676772 2.066880
v 1.767308 6.460624 1.324483
v 0.923756 7.559766 3.196181
v 3.282828 7.581900 -0.088841
v 1.773943 6.666386 -0.896360
v -1.938416 6.393802 -0.054889
v -2.282468 7.361627 2.047919
v -0.370664 6.585983 -2.062706
v -2.499327 7.426630 -1.641384
v 1.046385 7.333494 -2.713624
v 3.426955 9.165163 1.319376
v 3.646148 9.064009 -1.273059
v -0.061751 8.778934 3.645067
v 2.273278 8.967583 3.019360
v -3.646148 9.125638 1.149506
v -2.151970 9.179941 2.696627
v -2.241477 9.322248 -2.921779
v -3.382037 8.813593 -1.167815
v 2.139366 9.016607 -2.883431
v -0.018033 9.099129 -3.645067
v 2.501125 10.554857 2.006405
v -0.635415 10.311244 2.969231
v -3.330928 10.320392 -0.015357
v -1.160976 10.562500 -2.671802
v 2.802800 10.565233 -1.785128
v 0.576452 11.494066 1.805209
v 2.058062 11.644527 -0.232871
v -1.547469 11.771538 1.028617
v -1.709280 11.597281 -0.948953
v 0.726758 11.578930 -1.879649
v 0.801134 9.430455 -0.329970
v 2.979918 10.555033 1.278365
v -0.188662 10.580530 2.250696
v -1.677787 10.384652 -0.050580
v -0.245056 10.618664 -3.031841
v 2.725656 10.781456 -2.160598
v 1.751223 12.443753 2.188504
v -1.632116 12.384986 1.266041
v -1.526991 12.367305 -1.716448
v 1.637230 12.854712 -2.810373
v 3.524458 12.649110 -0.378281
v 0.927176 13.842827 -0.268504
v 0.640933 9.738487 0.908464
v 2.230360 9.372158 0.743761
v 1.491736 10.473930 2.390795
v 3.321889 10.246071 -0.502056
v 2.380499 9.234686 -1.429526
v -0.921653 9.516357 -0.540269
v -0.946647 10.057985 1.267430
v 0.420012 9.396223 -1.961199
v -1.482576 10.592607 -1.693649
v 1.773137 10.161991 -2.491936
v 3.443507 11.754142 0.896996
v 3.489486 11.544384 -1.256721
v 0.644116 11.354509 2.566757
v 2.679292 11.528381 2.363039
v -2.195749 11.858486 0.771055
v -0.751604 11.806848 2.250457
v -1.107225 11.788555 -2.657721
v -1.938367 11.869510 -0.981344
v 2.421009 11.739542 -2.576123
v 0.727079 11.319967 -3.171901
v 2.648344 12.683503 1.156244
v 0.101870 12.809625 2.209906
v -1.446757 12.882438 -0.284341
v 0.261015 12.630180 -2.530838
v 3.139328 12.687395 -1.984778
v 1.130953 13.881742 1.062225
v 2.224849 13.846807 -0.564188
v -0.384142 13.379803 0.680053
v -0.723044 13.460544 -1.498749
v 1.439820 13.811730 -1.648281
v -0.285552 12.015776 -0.688590
v 1.107202 12.813675 0.855973
v -1.013919 13.003178 1.091113
v -2.177158 12.985622 -0.629020
v -1.091166 12.686183 -2.429568
v 1.565226 13.080114 -1.485996
v 0.082525 14.365235 1.165155
v -1.919462 14.174198 0.357047
v -2.125760 14.468391 -1.999722
v 0.092346 14.731064 -2.757815
v 1.464960 14.244070 -0.548030
v -0.382770 15.234044 -0.666977
v -0.509596 11.981506 0.775071
v 0.854834 12.130082 0.145407
v 0.365600 12.681379 1.199658
v 1.319428 13.031109 -0.729903
v 0.951198 12.092585 -1.372089
v -1.509022 12.283046 -0.708175
v -2.016011 12.668627 0.664904
v -0.620886 12.178784 -1.880160
v -2.067425 12.708726 -1.887640
v 0.319416 12.706977 -2.207232
v 1.754981 13.437497 -0.077430
v 1.852016 13.793467 -1.080764
v -0.548187 13.582437 1.739965
v 1.104992 13.651486 1.454495
v -2.537346 13.661687 0.216584
v -1.288174 13.949464 1.197116
v -1.762885 13.594444 -2.628493
v -2.549083 13.923154 -1.423051
v 0.726839 13.838333 -2.234896
v -0.365220 13.381107 -2.639059
v 0.967736 14.891514 0.434441
v -0.549509 14.315573 1.183560
v -2.248246 14.800397 -0.766548
v -0.764959 14.617570 -2.211640
v 1.230155 14.458832 -1.770302
v 0.355114 14.970369 0.269292
v 0.761104 15.040059 -0.818008
v -0.939662 15.290664 0.076616
v -1.083187 15.044093 -1.102373
v -0.059927 15.289544 -1.804073
v 0.044898 0.599577 -0.494106
v -0.037677 0.131273 -0.148615
v -0.006136 0.310149 0.410402
v 0.095932 0.889004 0.410402
v 0.127473 1.067881 -0.148615
v 2.014513 0.252280 0.005894
v -0.410903 0.599577 0.242737
v -0.070411 0.131273 0.141503
v 0.397941 0.310149 -0.165321
v 0.346907 0.889004 -0.253714
v -0.152986 1.067881 -0.001521
v -0.962698 0.252280 -1.713000
v 0.455122 0.599577 0.269050
v 0.197205 0.131273 0.024793
v -0.302688 0.310149 -0.227400
v -0.353722 0.889004 -0.139007
v 0.114631 1.067881 0.167816
v -0.962698 0.252280 1.724788
vn 0.3364 0.0512 -0.9403
vn 0.9105 0.0512 -0.4103
vn 0.8969 0.0547 0.4388
vn 0.3485 0.0561 0.9356
vn -0.3524 0.0481 0.9346
vn -0.9523 0.0440 0.3020
vn -0.0259 0.9993 0.0281
vn -0.9263 0.0423 -0.3744
vn -0.4173 0.0477 -0.9075
vn -0.0332 -0.9983 -0.0472
vn -0.0262 -0.9791 0.2019
vn 0.7632 -0.4614 0.4523
vn -0.0830 -0.9796 0.1832
vn -0.0666 -0.9870 -0.1465
vn 0.1382 -0.9726 -0.1871
vn 0.7577 -0.4709 0.4519
vn -0.0074 -0.3508 0.9364
vn -0.8235 -0.5079 0.2527
vn -0.3428 -0.4934 -0.7994
vn 0.4975 -0.4007 -0.7694
vn 0.7559 -0.4672 0.4587
vn -0.4138 -0.0038 0.9104
vn -0.9657 -0.2479 -0.0767
vn -0.3158 -0.4641 -0.8276
vn 0.7144 -0.2271 -0.6618
vn 0.3409 0.8032 0.4885
vn -0.2155 0.7289 0.6498
vn -0.6909 0.6571 -0.3013
vn 0.0755 0.5220 -0.8496
vn 0.6946 0.7025 -0.1552
vn 0.1537 0.9746 -0.1631
vn 0.4208 0.8269 -0.3731
vn 0.2835 0.5046 -0.8155
vn -0.0749 0.9737 -0.2153
vn -0.2044 0.8091 -0.5510
vn -0.3389 0.7550 -0.5613
vn -0.1533 0.9854 -0.0743
vn -0.6248 0.7806 -0.0177
vn -0.6878 0.6954 0.2083
vn 0.0249 0.9611 0.2752
vn -0.1328 0.7610 0.6350
vn -0.1159 0.7545 0.6460
vn 0.2259 0.9456 0.2340
vn 0.3830 0.8582 0.3418
vn 0.6326 0.7383 0.2341
vn 0.8762 0.4010 -0.2673
vn 0.7168 0.1722 -0.6757
vn 0.3009 0.4625 -0.8340
vn 0.0955 0.6019 -0.7928
vn -0.2482 0.3946 -0.8847
vn -0.4010 0.5036 -0.7653
vn -0.8549 0.3332 -0.3977
vn -0.9826 0.1326 -0.1299
vn -0.8235 0.4922 0.2820
vn -0.3735 0.2883 0.8817
vn -0.3566 0.2620 0.8968
vn -0.0998 0.3700 0.9236
vn 0.5590 0.3876 0.7330
vn 0.7884 0.2465 0.5637
vn 0.8415 0.3625 0.4007
vn 0.3095 0.4721 -0.8254
vn 0.3085 -0.2917 -0.9054
vn -0.1784 -0.5411 -0.8218
vn -0.8397 0.2817 -0.4643
vn -0.7627 -0.2876 -0.5793
vn -0.8556 -0.4722 -0.2118
vn -0.7161 0.1217 0.6873
vn -0.7022 -0.1940 0.6850
vn -0.5959 -0.2316 0.7690
vn 0.2458 0.1389 0.9593
vn 0.2667 -0.1358 0.9542
vn 0.6508 -0.5594 0.5133
vn 0.9964 0.0118 0.0838
vn 0.9815 -0.1690 0.0896
vn 0.8397 -0.4494 -0.3049
vn 0.4030 -0.7951 -0.4532
vn 0.2628 -0.8670 -0.4235
vn -0.1497 -0.4726 -0.8685
vn -0.3493 -0.4815 -0.8039
vn -0.4040 -0.8253 -0.3945
vn -0.7773 -0.6163 -0.1264
vn -0.7540 -0.6348 0.1688
vn -0.3564 -0.8695 0.3419
vn -0.3033 -0.7311 0.6112
vn 0.5931 -0.7700 -0.2353
vn 0.5465 -0.8340 -0.0756
vn 0.1933 -0.9770 -0.0899
vn -0.0704 -0.7377 0.6714
vn 0.0912 -0.8402 0.5345
vn 0.6809 -0.4549 0.5740
vn -0.1985 -0.9568 0.2123
vn 0.7628 -0.5964 0.2500
vn -0.0766 -0.9699 0.2313
vn -0.0539 -0.9980 0.0335
vn -0.0935 -0.9947 0.0427
vn 0.9303 -0.2870 0.2285
vn -0.0976 -0.2845 0.9537
vn -0.8149 -0.4731 0.3348
vn -0.6962 -0.3053 -0.6497
vn 0.4502 -0.2309 -0.8625
vn 0.8806 -0.2045 0.4275
vn -0.2554 -0.1171 0.9597
vn -0.9560 -0.2568 -0.1420
vn -0.2355 0.1342 -0.9626
vn 0.7748 -0.0275 -0.6316
vn 0.4850 0.6592 0.5746
vn -0.4294 0.7931 0.4320
vn -0.7764 0.6057 -0.1744
vn -0.2486 0.7265 -0.6406
vn 0.6816 0.7169 -0.1463
vn -0.0090 0.9996 -0.0259
vn 0.4635 0.8089 -0.3618
vn 0.3837 0.7438 -0.5473
vn -0.1653 0.9827 -0.0836
vn -0.1607 0.6885 -0.7072
vn -0.4226 0.4656 -0.7776
vn -0.2806 0.9566 0.0791
vn -0.5014 0.8583 0.1098
vn -0.5544 0.8094 0.1934
vn -0.3192 0.9474 0.0212
vn -0.3796 0.8210 0.4266
vn 0.1537 0.6495 0.7446
vn -0.0094 0.9996 -0.0278
vn 0.5635 0.7421 0.3631
vn 0.6126 0.7165 0.3337
vn 0.9622 0.1501 -0.2271
vn 0.7525 -0.1740 -0.6352
vn 0.4891 0.1638 -0.8567
vn -0.2414 0.3558 -0.9028
vn -0.1551 0.3891 -0.9080
vn -0.3774 0.7042 -0.6013
vn -0.8521 0.5059 -0.1342
vn -0.8570 0.5004 -0.1227
vn -0.7341 0.6672 0.1263
vn -0.5086 0.4623 0.7264
vn -0.1624 0.1775 0.9706
vn 0.0707 0.2624 0.9624
vn 0.5090 0.6283 0.5883
vn 0.7341 0.4999 0.4596
vn 0.7455 0.5224 0.4139
vn 0.3250 0.0299 -0.9452
vn 0.3688 -0.1999 -0.9078
vn 0.1534 -0.3937 -0.9064
vn -0.8917 0.0784 -0.4459
vn -0.8949 -0.0739 -0.4401
vn -0.9547 -0.2592 -0.1462
vn -0.7098 0.1050 0.6965
vn -0.6888 -0.2953 0.6621
vn -0.6681 -0.3066 0.6780
vn 0.0743 0.2589 0.9630
vn 0.1072 -0.0946 0.9897
vn 0.5145 -0.5624 0.6473
vn 0.9983 -0.0526 0.0264
vn 0.9935 -0.1097 0.0319
vn 0.8401 -0.3496 -0.4148
vn 0.5417 -0.4549 -0.7068
vn 0.1295 -0.7092 -0.6930
vn 0.0607 -0.6388 -0.7670
vn -0.5128 -0.7064 -0.4880
vn -0.5229 -0.7351 -0.4316
vn -0.7885 -0.5916 -0.1685
vn -0.6793 -0.7055 0.2020
vn -0.1273 -0.9506 0.2831
vn -0.0595 -0.8617 0.5038
vn 0.8235 -0.3820 -0.4194
vn 0.6848 -0.7227 0.0930
vn -0.0835 -0.9949 0.0572
vn -0.0956 -0.8688 0.4859
vn -0.1439 -0.8511 0.5048
vn 0.5000 -0.5994 0.6251
vn 0.1050 -0.9945 -0.0072
vn 0.9116 -0.4056 0.0664
vn -0.2122 -0.9756 -0.0553
vn -0.2117 -0.9745 -0.0737
vn -0.0116 -0.9911 -0.1323
vn 0.6881 -0.7256 -0.0074
vn -0.2091 -0.6501 0.7305
vn -0.8846 -0.4662 -0.0041
vn -0.4327 -0.4863 -0.7592
vn 0.5365 -0.2132 -0.8165
vn 0.8661 -0.2891 0.4079
vn -0.6528 -0.2685 0.7083
vn -0.9098 -0.4109 -0.0590
vn -0.0447 -0.2452 -0.9684
vn 0.7141 0.1060 -0.6920
vn -0.0411 0.8337 0.5506
vn -0.4648 0.5767 0.6718
vn -0.2722 0.9220 -0.2753
vn -0.4226 0.7511 -0.5073
vn 0.7537 0.6565 -0.0294
vn 0.1790 0.9789 0.0986
vn 0.5305 0.8143 -0.2357
vn 0.5092 0.7757 -0.3729
vn -0.2482 0.9684 -0.0232
vn -0.4792 0.7644 -0.4314
vn -0.1606 0.9050 -0.3940
vn -0.1484 0.9715 -0.1851
vn -0.2483 0.9538 -0.1692
vn -0.5727 0.6333 0.5205
vn 0.2257 0.9695 0.0952
vn 0.0937 0.7632 0.6393
vn -0.0496 0.8346 0.5486
vn 0.1825 0.9745 0.1306
vn 0.1002 0.9898 0.1009
vn 0.7562 0.6526 -0.0474
vn 0.7433 0.6685 -0.0253
vn 0.7138 -0.0563 -0.6981
vn 0.6590 0.0282 -0.7516
vn -0.5444 0.1114 -0.8314
vn 0.0447 0.3393 -0.9396
vn -0.1868 0.5214 -0.8326
vn -0.8669 0.4530 -0.2081
vn -0.9561 0.2883 0.0528
vn -0.6139 0.5994 0.5137
vn -0.3788 0.7826 0.4940
vn -0.2740 0.5811 0.7663
vn -0.0243 0.6043 0.7964
vn 0.2330 0.6330 0.7382
vn 0.8755 0.3610 0.3211
vn 0.8903 0.4211 0.1731
vn 0.4181 -0.2193 -0.8816
vn 0.4030 -0.1671 -0.8998
vn 0.1472 -0.4232 -0.8940
vn -0.8293 0.0557 -0.5561
vn -0.8464 -0.1390 -0.5141
vn -0.9295 -0.3687 0.0001
vn -0.5904 0.5499 0.5908
vn -0.6211 0.0275 0.7832
vn -0.3268 -0.1982 0.9241
vn 0.1242 0.5204 0.8449
vn 0.1730 -0.3715 0.9122
vn 0.4334 -0.5231 0.7338
vn 0.8590 0.4506 0.2430
vn 0.7800 -0.6097 -0.1409
vn 0.8441 -0.4777 0.2435
vn 0.5456 -0.4227 -0.7237
vn 0.1755 -0.7249 -0.6661
vn 0.1248 -0.6734 -0.7287
vn -0.2958 -0.8145 -0.4990
vn -0.3380 -0.9250 -0.1738
vn -0.7167 -0.6916 0.0897
vn -0.7268 -0.6825 -0.0767
vn -0.4189 -0.9026 0.0988
vn -0.2448 -0.3948 0.8855
vn 0.8366 -0.4925 0.2400
vn 0.9121 -0.4043 0.0679
vn 0.0782 -0.9965 0.0296
vn -0.1567 -0.3616 0.9191
vn 0.3387 -0.7600 0.5546
vn 0.3906 -0.7288 0.5624
vn 0.0952 -0.6018 -0.7930
vn 0.0334 -0.9524 0.3029
vn 0.1952 -0.0344 0.9802
vn -0.9848 0.1736 -0.0000
vn 0.3571 0.8836 0.3029
vn 0.2953 0.5329 -0.7930
vn -0.7343 -0.6018 0.3140
vn 0.2456 -0.9524 -0.1803
vn 0.7512 -0.0344 -0.6591
vn 0.4924 0.1736 0.8529
vn 0.0838 0.8836 -0.4607
vn -0.8344 0.5329 0.1408
vn 0.6391 -0.6018 0.4789
vn -0.2790 -0.9524 -0.1226
vn -0.9465 -0.0344 -0.3210
vn 0.4924 0.1736 -0.8529
vn -0.4409 0.8836 0.1578
vn 0.5391 0.5329 0.6522
vt 0.087500 0.500000
vt 0.062500 0.700000
vt 0.037500 0.500000
vt 0.062500 0.300000
vt 0.080178 0.641421
vt 0.044822 0.641421
vt 0.044822 0.358579
vt 0.080178 0.358579
vt 0.212500 0.500000
vt 0.175000 0.673205
vt 0.175000 0.326795
vt 0.337500 0.500000
vt 0.300000 0.673205
vt 0.300000 0.326795
vt 0.462500 0.500000
vt 0.425000 0.673205
vt 0.425000 0.326795
vt 0.445225 0.690211
vt 0.417275 0.617557
vt 0.417275 0.382443
vt 0.445225 0.309789
s 0
usemtl Palette
f 1/1/1 2/2/1 4/3/1 3/4/1
f 3/1/2 4/2/2 6/3/2 5/4/2
f 5/1/3 6/2/3 8/3/3 7/4/3
f 7/1/4 8/2/4 10/3/4 9/4/4
f 9/1/5 10/2/5 12/3/5 11/4/5
f 11/1/6 12/2/6 14/3/6 13/4/6
f 4/1/7 2/5/7 16/2/7 14/6/7 12/3/7 10/7/7 8/4/7 6/8/7
f 13/1/8 14/2/8 16/3/8 15/4/8
f 15/1/9 16/2/9 2/3/9 1/4/9
f 1/1/10 3/5/10 5/2/10 7/6/10 9/3/10 11/7/10 13/4/10 15/8/10
f 17/9/11 30/10/11 29/11/11
f 18/9/12 30/10/12 32/11/12
f 17/9/13 29/10/13 34/11/13
f 17/9/14 34/10/14 36/11/14
f 17/9/15 36/10/15 33/11/15
f 18/9/16 32/10/16 39/11/16
f 19/9/17 31/10/17 41/11/17
f 20/9/18 35/10/18 43/11/18
f 21/9/19 37/10/19 45/11/19
f 22/9/20 38/10/20 47/11/20
f 18/9/21 39/10/21 42/11/21
f 19/9/22 41/10/22 44/11/22
f 20/9/23 43/10/23 46/11/23
f 21/9/24 45/10/24 48/11/24
f 22/9/25 47/10/25 40/11/25
f 23/9/26 49/10/26 54/11/26
f 24/9/27 50/10/27 56/11/27
f 25/9/28 51/10/28 57/11/28
f 26/9/29 52/10/29 58/11/29
f 27/9/30 53/10/30 55/11/30
f 55/9/31 58/10/31 28/11/31
f 55/9/32 53/10/32 58/11/32
f 53/9/33 26/10/33 58/11/33
f 58/9/34 57/10/34 28/11/34
f 58/9/35 52/10/35 57/11/35
f 52/9/36 25/10/36 57/11/36
f 57/9/37 56/10/37 28/11/37
f 57/9/38 51/10/38 56/11/38
f 51/9/39 24/10/39 56/11/39
f 56/9/40 54/10/40 28/11/40
f 56/9/41 50/10/41 54/11/41
f 50/9/42 23/10/42 54/11/42
f 54/9/43 55/10/43 28/11/43
f 54/9/44 49/10/44 55/11/44
f 49/9/45 27/10/45 55/11/45
f 40/9/46 53/10/46 27/11/46
f 40/9/47 47/10/47 53/11/47
f 47/9/48 26/10/48 53/11/48
f 48/9/49 52/10/49 26/11/49
f 48/9/50 45/10/50 52/11/50
f 45/9/51 25/10/51 52/11/51
f 46/9/52 51/10/52 25/11/52
f 46/9/53 43/10/53 51/11/53
f 43/9/54 24/10/54 51/11/54
f 44/9/55 50/10/55 24/11/55
f 44/9/56 41/10/56 50/11/56
f 41/9/57 23/10/57 50/11/57
f 42/9/58 49/10/58 23/11/58
f 42/9/59 39/10/59 49/11/59
f 39/9/60 27/10/60 49/11/60
f 47/9/61 48/10/61 26/11/61
f 47/9/62 38/10/62 48/11/62
f 38/9/63 21/10/63 48/11/63
f 45/9/64 46/10/64 25/11/64
f 45/9/65 37/10/65 46/11/65
f 37/9/66 20/10/66 46/11/66
f 43/9/67 44/10/67 24/11/67
f 43/9/68 35/10/68 44/11/68
f 35/9/69 19/10/69 44/11/69
f 41/9/70 42/10/70 23/11/70
f 41/9/71 31/10/71 42/11/71
f 31/9/72 18/10/72 42/11/72
f 39/9/73 40/10/73 27/11/73
f 39/9/74 32/10/74 40/11/74
f 32/9/75 22/10/75 40/11/75
f 33/9/76 38/10/76 22/11/76
f 33/9/77 36/10/77 38/11/77
f 36/9/78 21/10/78 38/11/78
f 36/9/79 37/10/79 21/11/79
f 36/9/80 34/10/80 37/11/80
f 34/9/81 20/10/81 37/11/81
f 34/9/82 35/10/82 20/11/82
f 34/9/83 29/10/83 35/11/83
f 29/9/84 19/10/84 35/11/84
f 32/9/85 33/10/85 22/11/85
f 32/9/86 30/10/86 33/11/86
f 30/9/87 17/10/87 33/11/87
f 29/9/88 31/10/88 19/11/88
f 29/9/89 30/10/89 31/11/89
f 30/9/90 18/10/90 31/11/90
f 59/12/91 72/13/91 71/14/91
f 60/12/92 72/13/92 74/14/92
f 59/12/93 71/13/93 76/14/93
f 59/12/94 76/13/94 78/14/94
f 59/12/95 78/13/95 75/14/95
f 60/12/96 74/13/96 81/14/96
f 61/12/97 73/13/97 83/14/97
f 62/12/98 77/13/98 85/14/98
f 63/12/99 79/13/99 87/14/99
f 64/12/100 80/13/100 89/14/100
f 60/12/101 81/13/101 84/14/101
f 61/12/102 83/13/102 86/14/102
f 62/12/103 85/13/103 88/14/103
f 63/12/104 87/13/104 90/14/104
f 64/12/105 89/13/105 82/14/105
f 65/12/106 91/13/106 96/14/106
f 66/12/107 92/13/107 98/14/107
f 67/12/108 93/13/108 99/14/108
f 68/12/109 94/13/109 100/14/109
f 69/12/110 95/13/110 97/14/110
f 97/12/111 100/13/111 70/14/111
f 97/12/112 95/13/112 100/14/112
f 95/12/113 68/13/113 100/14/113
f 100/12/114 99/13/114 70/14/114
f 100/12/115 94/13/115 99/14/115
f 94/12/116 67/13/116 99/14/116
f 99/12/117 98/13/117 70/14/117
f 99/12/118 93/13/118 98/14/118
f 93/12/119 66/13/119 98/14/119
f 98/12/120 96/13/120 70/14/120
f 98/12/121 92/13/121 96/14/121
f 92/12/122 65/13/122 96/14/122
f 96/12/123 97/13/123 70/14/123
f 96/12/124 91/13/124 97/14/124
f 91/12/125 69/13/125 97/14/125
f 82/12/126 95/13/126 69/14/126
f 82/12/127 89/13/127 95/14/127
f 89/12/128 68/13/128 95/14/128
f 90/12/129 94/13/129 68/14/129
f 90/12/130 87/13/130 94/14/130
f 87/12/131 67/13/131 94/14/131
f 88/12/132 93/13/132 67/14/132
f 88/12/133 85/13/133 93/14/133
f 85/12/134 66/13/134 93/14/134
f 86/12/135 92/13/135 66/14/135
f 86/12/136 83/13/136 92/14/136
f 83/12/137 65/13/137 92/14/137
f 84/12/138 91/13/138 65/14/138
f 84/12/139 81/13/139 91/14/139
f 81/12/140 69/13/140 91/14/140
f 89/12/141 90/13/141 68/14/141
f 89/12/142 80/13/142 90/14/142
f 80/12/143 63/13/143 90/14/143
f 87/12/144 88/13/144 67/14/144
f 87/12/145 79/13/145 88/14/145
f 79/12/146 62/13/146 88/14/146
f 85/12/147 86/13/147 66/14/147
f 85/12/148 77/13/148 86/14/148
f 77/12/149 61/13/149 86/14/149
f 83/12/150 84/13/150 65/14/150
f 83/12/151 73/13/151 84/14/151
f 73/12/152 60/13/152 84/14/152
f 81/12/153 82/13/153 69/14/153
f 81/12/154 74/13/154 82/14/154
f 74/12/155 64/13/155 82/14/155
f 75/12/156 80/13/156 64/14/156
f 75/12/157 78/13/157 80/14/157
f 78/12/158 63/13/158 80/14/158
f 78/12/159 79/13/159 63/14/159
f 78/12/160 76/13/160 79/14/160
f 76/12/161 62/13/161 79/14/161
f 76/12/162 77/13/162 62/14/162
f 76/12/163 71/13/163 77/14/163
f 71/12/164 61/13/164 77/14/164
f 74/12/165 75/13/165 64/14/165
f 74/12/166 72/13/166 75/14/166
f 72/12/167 59/13/167 75/14/167
f 71/12/168 73/13/168 61/14/168
f 71/12/169 72/13/169 73/14/169
f 72/12/170 60/13/170 73/14/170
f 101/9/171 114/10/171 113/11/171
f 102/9/172 114/10/172 116/11/172
f 101/9/173 113/10/173 118/11/173
f 101/9/174 118/10/174 120/11/174
f 101/9/175 120/10/175 117/11/175
f 102/9/176 116/10/176 123/11/176
f 103/9/177 115/10/177 125/11/177
f 104/9/178 119/10/178 127/11/178
f 105/9/179 121/10/179 129/11/179
f 106/9/180 122/10/180 131/11/180
f 102/9/181 123/10/181 126/11/181
f 103/9/182 125/10/182 128/11/182
f 104/9/183 127/10/183 130/11/183
f 105/9/184 129/10/184 132/11/184
f 106/9/185 131/10/185 124/11/185
f 107/9/186 133/10/186 138/11/186
f 108/9/187 134/10/187 140/11/187
f 109/9/188 135/10/188 141/11/188
f 110/9/189 136/10/189 142/11/189
f 111/9/190 137/10/190 139/11/190
f 139/9/191 142/10/191 112/11/191
f 139/9/192 137/10/192 142/11/192
f 137/9/193 110/10/193 142/11/193
f 142/9/194 141/10/194 112/11/194
f 142/9/195 136/10/195 141/11/195
f 136/9/196 109/10/196 141/11/196
f 141/9/197 140/10/197 112/11/197
f 141/9/198 135/10/198 140/11/198
f 135/9/199 108/10/199 140/11/199
f 140/9/200 138/10/200 112/11/200
f 140/9/201 134/10/201 138/11/201
f 134/9/202 107/10/202 138/11/202
f 138/9/203 139/10/203 112/11/203
f 138/9/204 133/10/204 139/11/204
f 133/9/205 111/10/205 139/11/205
f 124/9/206 137/10/206 111/11/206
f 124/9/207 131/10/207 137/11/207
f 131/9/208 110/10/208 137/11/208
f 132/9/209 136/10/209 110/11/209
f 132/9/210 129/10/210 136/11/210
f 129/9/211 109/10/211 136/11/211
f 130/9/212 135/10/212 109/11/212
f 130/9/213 127/10/213 135/11/213
f 127/9/214 108/10/214 135/11/214
f 128/9/215 134/10/215 108/11/215
f 128/9/216 125/10/216 134/11/216
f 125/9/217 107/10/217 134/11/217
f 126/9/218 133/10/218 107/11/218
f 126/9/219 123/10/219 133/11/219
f 123/9/220 111/10/220 133/11/220
f 131/9/221 132/10/221 110/11/221
f 131/9/222 122/10/222 132/11/222
f 122/9/223 105/10/223 132/11/223
f 129/9/224 130/10/224 109/11/224
f 129/9/225 121/10/225 130/11/225
f 121/9/226 104/10/226 130/11/226
f 127/9/227 128/10/227 108/11/227
f 127/9/228 119/10/228 128/11/228
f 119/9/229 103/10/229 128/11/229
f 125/9/230 126/10/230 107/11/230
f 125/9/231 115/10/231 126/11/231
f 115/9/232 102/10/232 126/11/232
f 123/9/233 124/10/233 111/11/233
f 123/9/234 116/10/234 124/11/234
f 116/9/235 106/10/235 124/11/235
f 117/9/236 122/10/236 106/11/236
f 117/9/237 120/10/237 122/11/237
f 120/9/238 105/10/238 122/11/238
f 120/9/239 121/10/239 105/11/239
f 120/9/240 118/10/240 121/11/240
f 118/9/241 104/10/241 121/11/241
f 118/9/242 119/10/242 104/11/242
f 118/9/243 113/10/243 119/11/243
f 113/9/244 103/10/244 119/11/244
f 116/9/245 117/10/245 106/11/245
f 116/9/246 114/10/246 117/11/246
f 114/9/247 101/10/247 117/11/247
f 113/9/248 115/10/248 103/11/248
f 113/9/249 114/10/249 115/11/249
f 114/9/250 102/10/250 115/11/250
f 143/15/251 148/16/251 144/17/251
f 144/15/252 148/16/252 145/17/252
f 145/15/253 148/16/253 146/17/253
f 143/15/254 144/18/254 145/19/254 146/20/254 147/21/254
f 146/15/255 148/16/255 147/17/255
f 147/15/256 148/16/256 143/17/256
f 149/15/257 154/16/257 150/17/257
f 150/15/258 154/16/258 151/17/258
f 151/15/259 154/16/259 152/17/259
f 149/15/260 150/18/260 151/19/260 152/20/260 153/21/260
f 152/15/261 154/16/261 153/17/261
f 153/15/262 154/16/262 149/17/262
f 155/15/263 160/16/263 156/17/263
f 156/15/264 160/16/264 157/17/264
f 157/15/265 160/16/265 158/17/265
f 155/15/266 156/18/266 157/19/266 158/20/266 159/21/266
f 158/15/267 160/16/267 159/17/267
f 159/15/268 160/16/268 155/17/268
