# Blender 5.0.1
# www.blender.org
mtllib snow_fence.mtl
o snow_fence
v -8.000000 0.000000 -0.140000
v -8.000000 4.600000 -0.140000
v -7.878757 0.000000 -0.070000
v -7.878757 4.600000 -0.070000
v -7.878757 0.000000 0.070000
v -7.878757 4.600000 0.070000
v -8.000000 0.000000 0.140000
v -8.000000 4.600000 0.140000
v -8.121243 0.000000 0.070000
v -8.121243 4.600000 0.070000
v -8.121243 0.000000 -0.070000
v -8.121243 4.600000 -0.070000
v -8.000000 4.550000 -0.180000
v -7.844115 4.550000 -0.090000
v -7.844115 4.550000 0.090000
v -8.000000 4.550000 0.180000
v -8.155885 4.550000 0.090000
v -8.155885 4.550000 -0.090000
v -8.000000 4.850000 0.000000
v -4.000000 0.000000 -0.140000
v -4.000000 4.600000 -0.140000
v -3.878757 0.000000 -0.070000
v -3.878757 4.600000 -0.070000
v -3.878757 0.000000 0.070000
v -3.878757 4.600000 0.070000
v -4.000000 0.000000 0.140000
v -4.000000 4.600000 0.140000
v -4.121243 0.000000 0.070000
v -4.121243 4.600000 0.070000
v -4.121243 0.000000 -0.070000
v -4.121243 4.600000 -0.070000
v -4.000000 4.550000 -0.180000
v -3.844115 4.550000 -0.090000
v -3.844115 4.550000 0.090000
v -4.000000 4.550000 0.180000
v -4.155885 4.550000 0.090000
v -4.155885 4.550000 -0.090000
v -4.000000 4.850000 0.000000
v 0.000000 0.000000 -0.140000
v 0.000000 4.600000 -0.140000
v 0.121243 0.000000 -0.070000
v 0.121243 4.600000 -0.070000
v 0.121243 0.000000 0.070000
v 0.121243 4.600000 0.070000
v 0.000000 0.000000 0.140000
v 0.000000 4.600000 0.140000
v -0.121243 0.000000 0.070000
v -0.121243 4.600000 0.070000
v -0.121243 0.000000 -0.070000
v -0.121243 4.600000 -0.070000
v 0.000000 4.550000 -0.180000
v 0.155885 4.550000 -0.090000
v 0.155885 4.550000 0.090000
v 0.000000 4.550000 0.180000
v -0.155885 4.550000 0.090000
v -0.155885 4.550000 -0.090000
v 0.000000 4.850000 0.000000
v 4.000000 0.000000 -0.140000
v 4.000000 4.600000 -0.140000
v 4.121243 0.000000 -0.070000
v 4.121243 4.600000 -0.070000
v 4.121243 0.000000 0.070000
v 4.121243 4.600000 0.070000
v 4.000000 0.000000 0.140000
v 4.000000 4.600000 0.140000
v 3.878757 0.000000 0.070000
v 3.878757 4.600000 0.070000
v 3.878757 0.000000 -0.070000
v 3.878757 4.600000 -0.070000
v 4.000000 4.550000 -0.180000
v 4.155885 4.550000 -0.090000
v 4.155885 4.550000 0.090000
v 4.000000 4.550000 0.180000
v 3.844115 4.550000 0.090000
v 3.844115 4.550000 -0.090000
v 4.000000 4.850000 0.000000
v 8.000000 0.000000 -0.140000
v 8.000000 4.600000 -0.140000
v 8.121244 0.000000 -0.070000
v 8.121244 4.600000 -0.070000
v 8.121244 0.000000 0.070000
v 8.121244 4.600000 0.070000
v 8.000000 0.000000 0.140000
v 8.000000 4.600000 0.140000
v 7.878757 0.000000 0.070000
v 7.878757 4.600000 0.070000
v 7.878757 0.000000 -0.070000
v 7.878757 4.600000 -0.070000
v 8.000000 4.550000 -0.180000
v 8.155884 4.550000 -0.090000
v 8.155884 4.550000 0.090000
v 8.000000 4.550000 0.180000
v 7.844115 4.550000 0.090000
v 7.844115 4.550000 -0.090000
v 8.000000 4.850000 0.000000
v -8.100000 1.230000 0.190000
v -8.100000 1.570000 0.190000
v -8.100000 1.230000 0.130000
v -8.100000 1.570000 0.130000
v 8.100000 1.230000 0.190000
v 8.100000 1.570000 0.190000
v 8.100000 1.230000 0.130000
v 8.100000 1.570000 0.130000
v -8.100000 2.030000 0.190000
v -8.100000 2.370000 0.190000
v -8.100000 2.030000 0.130000
v -8.100000 2.370000 0.130000
v 8.100000 2.030000 0.190000
v 8.100000 2.370000 0.190000
v 8.100000 2.030000 0.130000
v 8.100000 2.370000 0.130000
v -8.100000 2.830000 0.190000
v -8.100000 3.170000 0.190000
v -8.100000 2.830000 0.130000
v -8.100000 3.170000 0.130000
v 8.100000 2.830000 0.190000
v 8.100000 3.170000 0.190000
v 8.100000 2.830000 0.130000
v 8.100000 3.170000 0.130000
v -8.100000 3.630000 0.190000
v -8.100000 3.970000 0.190000
v -8.100000 3.630000 0.130000
v -8.100000 3.970000 0.130000
v 8.100000 3.630000 0.190000
v 8.100000 3.970000 0.190000
v 8.100000 3.630000 0.130000
v 8.100000 3.970000 0.130000
v -8.050000 1.250000 0.190000
v -8.050000 3.950000 0.190000
v -8.050000 1.250000 0.130000
v -8.050000 3.950000 0.130000
v -7.950000 1.250000 0.190000
v -7.950000 3.950000 0.190000
v -7.950000 1.250000 0.130000
v -7.950000 3.950000 0.130000
v -7.050000 1.250000 0.190000
v -7.050000 3.950000 0.190000
v -7.050000 1.250000 0.130000
v -7.050000 3.950000 0.130000
v -6.950000 1.250000 0.190000
v -6.950000 3.950000 0.190000
v -6.950000 1.250000 0.130000
v -6.950000 3.950000 0.130000
v -6.050000 1.250000 0.190000
v -6.050000 3.950000 0.190000
v -6.050000 1.250000 0.130000
v -6.050000 3.950000 0.130000
v -5.950000 1.250000 0.190000
v -5.950000 3.950000 0.190000
v -5.950000 1.250000 0.130000
v -5.950000 3.950000 0.130000
v -5.050000 1.250000 0.190000
v -5.050000 3.950000 0.190000
v -5.050000 1.250000 0.130000
v -5.050000 3.950000 0.130000
v -4.950000 1.250000 0.190000
v -4.950000 3.950000 0.190000
v -4.950000 1.250000 0.130000
v -4.950000 3.950000 0.130000
v -4.050000 1.250000 0.190000
v -4.050000 3.950000 0.190000
v -4.050000 1.250000 0.130000
v -4.050000 3.950000 0.130000
v -3.950000 1.250000 0.190000
v -3.950000 3.950000 0.190000
v -3.950000 1.250000 0.130000
v -3.950000 3.950000 0.130000
v -3.050000 1.250000 0.190000
v -3.050000 3.950000 0.190000
v -3.050000 1.250000 0.130000
v -3.050000 3.950000 0.130000
v -2.950000 1.250000 0.190000
v -2.950000 3.950000 0.190000
v -2.950000 1.250000 0.130000
v -2.950000 3.950000 0.130000
v -2.050000 1.250000 0.190000
v -2.050000 3.950000 0.190000
v -2.050000 1.250000 0.130000
v -2.050000 3.950000 0.130000
v -1.950000 1.250000 0.190000
v -1.950000 3.950000 0.190000
v -1.950000 1.250000 0.130000
v -1.950000 3.950000 0.130000
v -1.050000 1.250000 0.190000
v -1.050000 3.950000 0.190000
v -1.050000 1.250000 0.130000
v -1.050000 3.950000 0.130000
v -0.950000 1.250000 0.190000
v -0.950000 3.950000 0.190000
v -0.950000 1.250000 0.130000
v -0.950000 3.950000 0.130000
v -0.050000 1.250000 0.190000
v -0.050000 3.950000 0.190000
v -0.050000 1.250000 0.130000
v -0.050000 3.950000 0.130000
v 0.050000 1.250000 0.190000
v 0.050000 3.950000 0.190000
v 0.050000 1.250000 0.130000
v 0.050000 3.950000 0.130000
v 0.950000 1.250000 0.190000
v 0.950000 3.950000 0.190000
v 0.950000 1.250000 0.130000
v 0.950000 3.950000 0.130000
v 1.050000 1.250000 0.190000
v 1.050000 3.950000 0.190000
v 1.050000 1.250000 0.130000
v 1.050000 3.950000 0.130000
v 1.950000 1.250000 0.190000
v 1.950000 3.950000 0.190000
v 1.950000 1.250000 0.130000
v 1.950000 3.950000 0.130000
v 2.050000 1.250000 0.190000
v 2.050000 3.950000 0.190000
v 2.050000 1.250000 0.130000
v 2.050000 3.950000 0.130000
v 2.950000 1.250000 0.190000
v 2.950000 3.950000 0.190000
v 2.950000 1.250000 0.130000
v 2.950000 3.950000 0.130000
v 3.050000 1.250000 0.190000
v 3.050000 3.950000 0.190000
v 3.050000 1.250000 0.130000
v 3.050000 3.950000 0.130000
v 3.950000 1.250000 0.190000
v 3.950000 3.950000 0.190000
v 3.950000 1.250000 0.130000
v 3.950000 3.950000 0.130000
v 4.050000 1.250000 0.190000
v 4.050000 3.950000 0.190000
v 4.050000 1.250000 0.130000
v 4.050000 3.950000 0.130000
v 4.950000 1.250000 0.190000
v 4.950000 3.950000 0.190000
v 4.950000 1.250000 0.130000
v 4.950000 3.950000 0.130000
v 5.050000 1.250000 0.190000
v 5.050000 3.950000 0.190000
v 5.050000 1.250000 0.130000
v 5.050000 3.950000 0.130000
v 5.950000 1.250000 0.190000
v 5.950000 3.950000 0.190000
v 5.950000 1.250000 0.130000
v 5.950000 3.950000 0.130000
v 6.050000 1.250000 0.190000
v 6.050000 3.950000 0.190000
v 6.050000 1.250000 0.130000
v 6.050000 3.950000 0.130000
v 6.950000 1.250000 0.190000
v 6.950000 3.950000 0.190000
v 6.950000 1.250000 0.130000
v 6.950000 3.950000 0.130000
v 7.050000 1.250000 0.190000
v 7.050000 3.950000 0.190000
v 7.050000 1.250000 0.130000
v 7.050000 3.950000 0.130000
v 7.950000 1.250000 0.190000
v 7.950000 3.950000 0.190000
v 7.950000 1.250000 0.130000
v 7.950000 3.950000 0.130000
v 8.049999 1.250000 0.190000
v 8.049999 3.950000 0.190000
v 8.049999 1.250000 0.130000
v 8.049999 3.950000 0.130000
v -8.099999 0.125000 0.150000
v -8.099999 0.225000 0.250000
v -8.200000 0.225000 0.150000
v -8.099999 0.375000 0.250000
v -8.099999 0.475000 0.150000
v -8.200000 0.375000 0.150000
v -8.099999 0.125000 -0.150000
v -8.200000 0.225000 -0.150000
v -8.099999 0.225000 -0.250000
v -8.099999 0.475000 -0.150000
v -8.099999 0.375000 -0.250000
v -8.200000 0.375000 -0.150000
v 8.099998 0.125000 0.150000
v 8.200001 0.225000 0.150000
v 8.099998 0.225000 0.250000
v 8.099998 0.475000 0.150000
v 8.099998 0.375000 0.250000
v 8.200001 0.375000 0.150000
v 8.099998 0.125000 -0.150000
v 8.099998 0.225000 -0.250000
v 8.200001 0.225000 -0.150000
v 8.099998 0.475000 -0.150000
v 8.200001 0.375000 -0.150000
v 8.099998 0.375000 -0.250000
vn 0.5000 -0.0000 -0.8660
vn 1.0000 -0.0000 -0.0000
vn 0.5000 -0.0000 0.8660
vn -0.5000 -0.0000 0.8660
vn -0.0000 1.0000 -0.0000
vn -1.0000 -0.0000 -0.0000
vn -0.5000 -0.0000 -0.8660
vn -0.0000 -1.0000 -0.0000
vn 0.4437 0.4611 -0.7685
vn 0.8874 0.4611 -0.0000
vn 0.4437 0.4611 0.7685
vn -0.4437 0.4611 0.7685
vn -0.8874 0.4611 -0.0000
vn -0.4437 0.4611 -0.7685
vn -0.0000 -0.0000 -1.0000
vn -0.0000 -0.0000 1.0000
vn -0.5773 -0.5773 0.5774
vn -0.5773 0.5774 0.5773
vn -0.5773 -0.5773 -0.5774
vn -0.5773 0.5774 -0.5773
vn 0.5773 -0.5774 0.5774
vn 0.5773 0.5774 0.5774
vn 0.5773 -0.5774 -0.5774
vn 0.5773 0.5774 -0.5774
vn -0.7071 -0.7071 -0.0000
vn -0.7071 -0.0000 0.7071
vn -0.7071 0.7071 -0.0000
vn -0.7071 -0.0000 -0.7071
vn -0.0000 -0.7071 -0.7071
vn -0.0000 0.7071 -0.7071
vn 0.7071 -0.0000 -0.7071
vn 0.7071 -0.7071 -0.0000
vn 0.7071 0.7071 -0.0000
vn 0.7071 -0.0000 0.7071
vn -0.0000 -0.7071 0.7071
vn -0.0000 0.7071 0.7071
vt 0.587500 0.357143
vt 0.550000 0.381886
vt 0.550000 0.332399
vt 0.462500 0.500000
vt 0.425000 0.524744
vt 0.425000 0.475256
vt 0.712500 0.071429
vt 0.675000 0.096172
vt 0.675000 0.046685
s 0
usemtl Palette
f 2/1/1 3/2/1 1/3/1
f 4/1/2 5/2/2 3/3/2
f 6/1/3 7/2/3 5/3/3
f 8/1/4 9/2/4 7/3/4
f 10/1/5 8/2/5 6/3/5
f 10/1/6 11/2/6 9/3/6
f 12/1/7 1/2/7 11/3/7
f 9/1/8 11/2/8 3/3/8
f 13/4/9 19/5/9 14/6/9
f 14/4/10 19/5/10 15/6/10
f 15/4/11 19/5/11 16/6/11
f 16/4/12 19/5/12 17/6/12
f 16/4/8 17/5/8 18/6/8
f 17/4/13 19/5/13 18/6/13
f 18/4/14 19/5/14 13/6/14
f 21/1/1 22/2/1 20/3/1
f 23/1/2 24/2/2 22/3/2
f 25/1/3 26/2/3 24/3/3
f 27/1/4 28/2/4 26/3/4
f 29/1/5 27/2/5 25/3/5
f 29/1/6 30/2/6 28/3/6
f 31/1/7 20/2/7 30/3/7
f 28/1/8 30/2/8 22/3/8
f 32/4/9 38/5/9 33/6/9
f 33/4/10 38/5/10 34/6/10
f 34/4/11 38/5/11 35/6/11
f 35/4/12 38/5/12 36/6/12
f 35/4/8 36/5/8 37/6/8
f 36/4/13 38/5/13 37/6/13
f 37/4/14 38/5/14 32/6/14
f 40/1/1 41/2/1 39/3/1
f 42/1/2 43/2/2 41/3/2
f 44/1/3 45/2/3 43/3/3
f 46/1/4 47/2/4 45/3/4
f 48/1/5 46/2/5 44/3/5
f 48/1/6 49/2/6 47/3/6
f 50/1/7 39/2/7 49/3/7
f 47/1/8 49/2/8 41/3/8
f 51/4/9 57/5/9 52/6/9
f 52/4/10 57/5/10 53/6/10
f 53/4/11 57/5/11 54/6/11
f 54/4/12 57/5/12 55/6/12
f 54/4/8 55/5/8 56/6/8
f 55/4/13 57/5/13 56/6/13
f 56/4/14 57/5/14 51/6/14
f 59/1/1 60/2/1 58/3/1
f 61/1/2 62/2/2 60/3/2
f 63/1/3 64/2/3 62/3/3
f 65/1/4 66/2/4 64/3/4
f 67/1/5 65/2/5 63/3/5
f 67/1/6 68/2/6 66/3/6
f 69/1/7 58/2/7 68/3/7
f 66/1/8 68/2/8 60/3/8
f 70/4/9 76/5/9 71/6/9
f 71/4/10 76/5/10 72/6/10
f 72/4/11 76/5/11 73/6/11
f 73/4/12 76/5/12 74/6/12
f 73/4/8 74/5/8 75/6/8
f 74/4/13 76/5/13 75/6/13
f 75/4/14 76/5/14 70/6/14
f 78/1/1 79/2/1 77/3/1
f 80/1/2 81/2/2 79/3/2
f 82/1/3 83/2/3 81/3/3
f 84/1/4 85/2/4 83/3/4
f 84/1/5 82/2/5 78/3/5
f 86/1/6 87/2/6 85/3/6
f 88/1/7 77/2/7 87/3/7
f 83/1/8 85/2/8 87/3/8
f 89/4/9 95/5/9 90/6/9
f 90/4/10 95/5/10 91/6/10
f 91/4/11 95/5/11 92/6/11
f 92/4/12 95/5/12 93/6/12
f 93/4/8 94/5/8 90/6/8
f 93/4/13 95/5/13 94/6/13
f 94/4/14 95/5/14 89/6/14
f 97/7/6 98/8/6 96/9/6
f 99/7/15 102/8/15 98/9/15
f 103/7/2 100/8/2 102/9/2
f 101/7/16 96/8/16 100/9/16
f 102/7/8 96/8/8 98/9/8
f 99/7/5 101/8/5 103/9/5
f 105/7/6 106/8/6 104/9/6
f 107/7/15 110/8/15 106/9/15
f 111/7/2 108/8/2 110/9/2
f 109/7/16 104/8/16 108/9/16
f 110/7/8 104/8/8 106/9/8
f 107/7/5 109/8/5 111/9/5
f 113/7/6 114/8/6 112/9/6
f 115/7/15 118/8/15 114/9/15
f 119/7/2 116/8/2 118/9/2
f 117/7/16 112/8/16 116/9/16
f 118/7/8 112/8/8 114/9/8
f 115/7/5 117/8/5 119/9/5
f 121/7/6 122/8/6 120/9/6
f 123/7/15 126/8/15 122/9/15
f 127/7/2 124/8/2 126/9/2
f 125/7/16 120/8/16 124/9/16
f 126/7/8 120/8/8 122/9/8
f 123/7/5 125/8/5 127/9/5
f 129/7/6 130/8/6 128/9/6
f 131/7/15 134/8/15 130/9/15
f 135/7/2 132/8/2 134/9/2
f 133/7/16 128/8/16 132/9/16
f 134/7/8 128/8/8 130/9/8
f 131/7/5 133/8/5 135/9/5
f 137/7/6 138/8/6 136/9/6
f 139/7/15 142/8/15 138/9/15
f 143/7/2 140/8/2 142/9/2
f 141/7/16 136/8/16 140/9/16
f 142/7/8 136/8/8 138/9/8
f 139/7/5 141/8/5 143/9/5
f 145/7/6 146/8/6 144/9/6
f 147/7/15 150/8/15 146/9/15
f 151/7/2 148/8/2 150/9/2
f 149/7/16 144/8/16 148/9/16
f 150/7/8 144/8/8 146/9/8
f 147/7/5 149/8/5 151/9/5
f 153/7/6 154/8/6 152/9/6
f 155/7/15 158/8/15 154/9/15
f 159/7/2 156/8/2 158/9/2
f 157/7/16 152/8/16 156/9/16
f 158/7/8 152/8/8 154/9/8
f 155/7/5 157/8/5 159/9/5
f 161/7/6 162/8/6 160/9/6
f 163/7/15 166/8/15 162/9/15
f 167/7/2 164/8/2 166/9/2
f 165/7/16 160/8/16 164/9/16
f 166/7/8 160/8/8 162/9/8
f 163/7/5 165/8/5 167/9/5
f 169/7/6 170/8/6 168/9/6
f 171/7/15 174/8/15 170/9/15
f 175/7/2 172/8/2 174/9/2
f 173/7/16 168/8/16 172/9/16
f 174/7/8 168/8/8 170/9/8
f 171/7/5 173/8/5 175/9/5
f 177/7/6 178/8/6 176/9/6
f 179/7/15 182/8/15 178/9/15
f 183/7/2 180/8/2 182/9/2
f 181/7/16 176/8/16 180/9/16
f 182/7/8 176/8/8 178/9/8
f 179/7/5 181/8/5 183/9/5
f 185/7/6 186/8/6 184/9/6
f 187/7/15 190/8/15 186/9/15
f 191/7/2 188/8/2 190/9/2
f 189/7/16 184/8/16 188/9/16
f 190/7/8 184/8/8 186/9/8
f 187/7/5 189/8/5 191/9/5
f 193/7/6 194/8/6 192/9/6
f 195/7/15 198/8/15 194/9/15
f 199/7/2 196/8/2 198/9/2
f 197/7/16 192/8/16 196/9/16
f 198/7/8 192/8/8 194/9/8
f 195/7/5 197/8/5 199/9/5
f 201/7/6 202/8/6 200/9/6
f 203/7/15 206/8/15 202/9/15
f 207/7/2 204/8/2 206/9/2
f 205/7/16 200/8/16 204/9/16
f 206/7/8 200/8/8 202/9/8
f 203/7/5 205/8/5 207/9/5
f 209/7/6 210/8/6 208/9/6
f 211/7/15 214/8/15 210/9/15
f 215/7/2 212/8/2 214/9/2
f 213/7/16 208/8/16 212/9/16
f 214/7/8 208/8/8 210/9/8
f 211/7/5 213/8/5 215/9/5
f 217/7/6 218/8/6 216/9/6
f 219/7/15 222/8/15 218/9/15
f 223/7/2 220/8/2 222/9/2
f 221/7/16 216/8/16 220/9/16
f 222/7/8 216/8/8 218/9/8
f 219/7/5 221/8/5 223/9/5
f 225/7/6 226/8/6 224/9/6
f 227/7/15 230/8/15 226/9/15
f 231/7/2 228/8/2 230/9/2
f 229/7/16 224/8/16 228/9/16
f 230/7/8 224/8/8 226/9/8
f 227/7/5 229/8/5 231/9/5
f 233/7/6 234/8/6 232/9/6
f 235/7/15 238/8/15 234/9/15
f 239/7/2 236/8/2 238/9/2
f 237/7/16 232/8/16 236/9/16
f 238/7/8 232/8/8 234/9/8
f 235/7/5 237/8/5 239/9/5
f 241/7/6 242/8/6 240/9/6
f 243/7/15 246/8/15 242/9/15
f 247/7/2 244/8/2 246/9/2
f 245/7/16 240/8/16 244/9/16
f 246/7/8 240/8/8 242/9/8
f 243/7/5 245/8/5 247/9/5
f 249/7/6 250/8/6 248/9/6
f 251/7/15 254/8/15 250/9/15
f 255/7/2 252/8/2 254/9/2
f 253/7/16 248/8/16 252/9/16
f 254/7/8 248/8/8 250/9/8
f 251/7/5 253/8/5 255/9/5
f 257/7/6 258/8/6 256/9/6
f 259/7/15 262/8/15 258/9/15
f 263/7/2 260/8/2 262/9/2
f 261/7/16 256/8/16 260/9/16
f 262/7/8 256/8/8 258/9/8
f 259/7/5 261/8/5 263/9/5
f 264/4/17 265/5/17 266/6/17
f 267/4/18 268/5/18 269/6/18
f 270/4/19 271/5/19 272/6/19
f 273/4/20 274/5/20 275/6/20
f 276/4/21 277/5/21 278/6/21
f 279/4/22 280/5/22 281/6/22
f 282/4/23 283/5/23 284/6/23
f 285/4/24 286/5/24 287/6/24
f 264/4/25 271/5/25 270/6/25
f 267/4/26 266/5/26 265/6/26
f 273/4/27 269/5/27 268/6/27
f 272/4/28 275/5/28 274/6/28
f 270/4/29 283/5/29 282/6/29
f 285/4/30 274/5/30 273/6/30
f 284/4/31 287/5/31 286/6/31
f 282/4/32 277/5/32 276/6/32
f 279/4/33 286/5/33 285/6/33
f 278/4/34 281/5/34 280/6/34
f 276/4/35 265/5/35 264/6/35
f 268/4/36 280/5/36 279/6/36
f 282/4/8 264/5/8 270/6/8
f 269/4/6 271/5/6 266/6/6
f 280/4/16 265/5/16 278/6/16
f 273/4/5 279/5/5 285/6/5
f 274/4/15 283/5/15 272/6/15
f 286/4/2 277/5/2 284/6/2
f 2/1/1 4/2/1 3/3/1
f 4/1/2 6/2/2 5/3/2
f 6/1/3 8/2/3 7/3/3
f 8/1/4 10/2/4 9/3/4
f 6/1/5 4/2/5 2/3/5
f 2/1/5 12/2/5 6/3/5
f 12/1/5 10/2/5 6/3/5
f 10/1/6 12/2/6 11/3/6
f 12/1/7 2/2/7 1/3/7
f 11/1/8 1/2/8 3/3/8
f 3/1/8 5/2/8 7/3/8
f 7/1/8 9/2/8 3/3/8
f 18/4/8 13/5/8 16/6/8
f 13/4/8 14/5/8 16/6/8
f 14/4/8 15/5/8 16/6/8
f 21/1/1 23/2/1 22/3/1
f 23/1/2 25/2/2 24/3/2
f 25/1/3 27/2/3 26/3/3
f 27/1/4 29/2/4 28/3/4
f 25/1/5 23/2/5 21/3/5
f 21/1/5 31/2/5 25/3/5
f 31/1/5 29/2/5 25/3/5
f 29/1/6 31/2/6 30/3/6
f 31/1/7 21/2/7 20/3/7
f 30/1/8 20/2/8 22/3/8
f 22/1/8 24/2/8 26/3/8
f 26/1/8 28/2/8 22/3/8
f 37/4/8 32/5/8 35/6/8
f 32/4/8 33/5/8 35/6/8
f 33/4/8 34/5/8 35/6/8
f 40/1/1 42/2/1 41/3/1
f 42/1/2 44/2/2 43/3/2
f 44/1/3 46/2/3 45/3/3
f 46/1/4 48/2/4 47/3/4
f 44/1/5 42/2/5 40/3/5
f 40/1/5 50/2/5 44/3/5
f 50/1/5 48/2/5 44/3/5
f 48/1/6 50/2/6 49/3/6
f 50/1/7 40/2/7 39/3/7
f 49/1/8 39/2/8 41/3/8
f 41/1/8 43/2/8 45/3/8
f 45/1/8 47/2/8 41/3/8
f 56/4/8 51/5/8 54/6/8
f 51/4/8 52/5/8 54/6/8
f 52/4/8 53/5/8 54/6/8
f 59/1/1 61/2/1 60/3/1
f 61/1/2 63/2/2 62/3/2
f 63/1/3 65/2/3 64/3/3
f 65/1/4 67/2/4 66/3/4
f 63/1/5 61/2/5 59/3/5
f 59/1/5 69/2/5 63/3/5
f 69/1/5 67/2/5 63/3/5
f 67/1/6 69/2/6 68/3/6
f 69/1/7 59/2/7 58/3/7
f 68/1/8 58/2/8 60/3/8
f 60/1/8 62/2/8 64/3/8
f 64/1/8 66/2/8 60/3/8
f 75/4/8 70/5/8 73/6/8
f 70/4/8 71/5/8 73/6/8
f 71/4/8 72/5/8 73/6/8
f 78/1/1 80/2/1 79/3/1
f 80/1/2 82/2/2 81/3/2
f 82/1/3 84/2/3 83/3/3
f 84/1/4 86/2/4 85/3/4
f 82/1/5 80/2/5 78/3/5
f 78/1/5 88/2/5 86/3/5
f 86/1/5 84/2/5 78/3/5
f 86/1/6 88/2/6 87/3/6
f 88/1/7 78/2/7 77/3/7
f 87/1/8 77/2/8 83/3/8
f 77/1/8 79/2/8 83/3/8
f 79/1/8 81/2/8 83/3/8
f 94/4/8 89/5/8 90/6/8
f 90/4/8 91/5/8 92/6/8
f 92/4/8 93/5/8 90/6/8
f 97/7/6 99/8/6 98/9/6
f 99/7/15 103/8/15 102/9/15
f 103/7/2 101/8/2 100/9/2
f 101/7/16 97/8/16 96/9/16
f 102/7/8 100/8/8 96/9/8
f 99/7/5 97/8/5 101/9/5
f 105/7/6 107/8/6 106/9/6
f 107/7/15 111/8/15 110/9/15
f 111/7/2 109/8/2 108/9/2
f 109/7/16 105/8/16 104/9/16
f 110/7/8 108/8/8 104/9/8
f 107/7/5 105/8/5 109/9/5
f 113/7/6 115/8/6 114/9/6
f 115/7/15 119/8/15 118/9/15
f 119/7/2 117/8/2 116/9/2
f 117/7/16 113/8/16 112/9/16
f 118/7/8 116/8/8 112/9/8
f 115/7/5 113/8/5 117/9/5
f 121/7/6 123/8/6 122/9/6
f 123/7/15 127/8/15 126/9/15
f 127/7/2 125/8/2 124/9/2
f 125/7/16 121/8/16 120/9/16
f 126/7/8 124/8/8 120/9/8
f 123/7/5 121/8/5 125/9/5
f 129/7/6 131/8/6 130/9/6
f 131/7/15 135/8/15 134/9/15
f 135/7/2 133/8/2 132/9/2
f 133/7/16 129/8/16 128/9/16
f 134/7/8 132/8/8 128/9/8
f 131/7/5 129/8/5 133/9/5
f 137/7/6 139/8/6 138/9/6
f 139/7/15 143/8/15 142/9/15
f 143/7/2 141/8/2 140/9/2
f 141/7/16 137/8/16 136/9/16
f 142/7/8 140/8/8 136/9/8
f 139/7/5 137/8/5 141/9/5
f 145/7/6 147/8/6 146/9/6
f 147/7/15 151/8/15 150/9/15
f 151/7/2 149/8/2 148/9/2
f 149/7/16 145/8/16 144/9/16
f 150/7/8 148/8/8 144/9/8
f 147/7/5 145/8/5 149/9/5
f 153/7/6 155/8/6 154/9/6
f 155/7/15 159/8/15 158/9/15
f 159/7/2 157/8/2 156/9/2
f 157/7/16 153/8/16 152/9/16
f 158/7/8 156/8/8 152/9/8
f 155/7/5 153/8/5 157/9/5
f 161/7/6 163/8/6 162/9/6
f 163/7/15 167/8/15 166/9/15
f 167/7/2 165/8/2 164/9/2
f 165/7/16 161/8/16 160/9/16
f 166/7/8 164/8/8 160/9/8
f 163/7/5 161/8/5 165/9/5
f 169/7/6 171/8/6 170/9/6
f 171/7/15 175/8/15 174/9/15
f 175/7/2 173/8/2 172/9/2
f 173/7/16 169/8/16 168/9/16
f 174/7/8 172/8/8 168/9/8
f 171/7/5 169/8/5 173/9/5
f 177/7/6 179/8/6 178/9/6
f 179/7/15 183/8/15 182/9/15
f 183/7/2 181/8/2 180/9/2
f 181/7/16 177/8/16 176/9/16
f 182/7/8 180/8/8 176/9/8
f 179/7/5 177/8/5 181/9/5
f 185/7/6 187/8/6 186/9/6
f 187/7/15 191/8/15 190/9/15
f 191/7/2 189/8/2 188/9/2
f 189/7/16 185/8/16 184/9/16
f 190/7/8 188/8/8 184/9/8
f 187/7/5 185/8/5 189/9/5
f 193/7/6 195/8/6 194/9/6
f 195/7/15 199/8/15 198/9/15
f 199/7/2 197/8/2 196/9/2
f 197/7/16 193/8/16 192/9/16
f 198/7/8 196/8/8 192/9/8
f 195/7/5 193/8/5 197/9/5
f 201/7/6 203/8/6 202/9/6
f 203/7/15 207/8/15 206/9/15
f 207/7/2 205/8/2 204/9/2
f 205/7/16 201/8/16 200/9/16
f 206/7/8 204/8/8 200/9/8
f 203/7/5 201/8/5 205/9/5
f 209/7/6 211/8/6 210/9/6
f 211/7/15 215/8/15 214/9/15
f 215/7/2 213/8/2 212/9/2
f 213/7/16 209/8/16 208/9/16
f 214/7/8 212/8/8 208/9/8
f 211/7/5 209/8/5 213/9/5
f 217/7/6 219/8/6 218/9/6
f 219/7/15 223/8/15 222/9/15
f 223/7/2 221/8/2 220/9/2
f 221/7/16 217/8/16 216/9/16
f 222/7/8 220/8/8 216/9/8
f 219/7/5 217/8/5 221/9/5
f 225/7/6 227/8/6 226/9/6
f 227/7/15 231/8/15 230/9/15
f 231/7/2 229/8/2 228/9/2
f 229/7/16 225/8/16 224/9/16
f 230/7/8 228/8/8 224/9/8
f 227/7/5 225/8/5 229/9/5
f 233/7/6 235/8/6 234/9/6
f 235/7/15 239/8/15 238/9/15
f 239/7/2 237/8/2 236/9/2
f 237/7/16 233/8/16 232/9/16
f 238/7/8 236/8/8 232/9/8
f 235/7/5 233/8/5 237/9/5
f 241/7/6 243/8/6 242/9/6
f 243/7/15 247/8/15 246/9/15
f 247/7/2 245/8/2 244/9/2
f 245/7/16 241/8/16 240/9/16
f 246/7/8 244/8/8 240/9/8
f 243/7/5 241/8/5 245/9/5
f 249/7/6 251/8/6 250/9/6
f 251/7/15 255/8/15 254/9/15
f 255/7/2 253/8/2 252/9/2
f 253/7/16 249/8/16 248/9/16
f 254/7/8 252/8/8 248/9/8
f 251/7/5 249/8/5 253/9/5
f 257/7/6 259/8/6 258/9/6
f 259/7/15 263/8/15 262/9/15
f 263/7/2 261/8/2 260/9/2
f 261/7/16 257/8/16 256/9/16
f 262/7/8 260/8/8 256/9/8
f 259/7/5 257/8/5 261/9/5
f 264/4/25 266/5/25 271/6/25
f 267/4/26 269/5/26 266/6/26
f 273/4/27 275/5/27 269/6/27
f 272/4/28 271/5/28 275/6/28
f 270/4/29 272/5/29 283/6/29
f 285/4/30 287/5/30 274/6/30
f 284/4/31 283/5/31 287/6/31
f 282/4/32 284/5/32 277/6/32
f 279/4/33 281/5/33 286/6/33
f 278/4/34 277/5/34 281/6/34
f 276/4/35 278/5/35 265/6/35
f 268/4/36 267/5/36 280/6/36
f 282/4/8 276/5/8 264/6/8
f 269/4/6 275/5/6 271/6/6
f 280/4/16 267/5/16 265/6/16
f 273/4/5 268/5/5 279/6/5
f 274/4/15 287/5/15 283/6/15
f 286/4/2 281/5/2 277/6/2
