# Blender 5.0.1
# www.blender.org
mtllib ice_crystals.mtl
o ice_crystals_Glass_ice
v 0.000000 1.875000 -0.900000
v 0.000000 9.375000 -0.900000
v 0.779423 1.875000 -0.450000
v 0.779423 9.375000 -0.450000
v 0.779423 1.875000 0.450000
v 0.779423 9.375000 0.450000
v 0.000000 1.875000 0.900000
v 0.000000 9.375000 0.900000
v -0.779423 1.875000 0.450000
v -0.779423 9.375000 0.450000
v -0.779423 1.875000 -0.450000
v -0.779423 9.375000 -0.450000
v 0.000000 10.995001 0.000000
v 1.314683 2.060410 -0.994183
v 2.056324 6.625482 0.290376
v 1.907341 1.967705 -1.006899
v 2.648983 6.532777 0.277660
v 2.192658 1.782295 -0.512716
v 2.934299 6.347366 0.771844
v 1.885317 1.689590 -0.005817
v 2.626958 6.254662 1.278743
v 1.292659 1.782295 0.006899
v 2.034299 6.347366 1.291459
v 1.007342 1.967705 -0.487284
v 1.748982 6.532777 0.797276
v 2.508510 7.467213 1.073586
v -1.169860 1.682054 -1.432303
v -0.651356 6.968993 -2.856882
v -0.715272 1.778527 -0.908813
v -0.196767 7.065466 -2.333392
v -0.945411 1.971473 -0.276510
v -0.426907 7.258412 -1.701089
v -1.630140 2.067946 -0.167697
v -1.111635 7.354885 -1.592276
v -2.084728 1.971473 -0.691187
v -1.566224 7.258412 -2.115766
v -1.854589 1.778527 -1.323490
v -1.336084 7.065466 -2.748070
v -0.762711 8.373129 -2.550937
v 1.006899 2.046010 1.265077
v -0.118654 5.616842 1.914915
v 1.019956 1.960505 1.757538
v 0.613057 1.789495 1.992462
v -0.512496 5.360327 2.642300
v 0.193101 1.703990 1.734923
v -0.932452 5.274822 2.384761
v 0.180044 1.789495 1.242462
v 0.586943 1.960505 1.007538
v -0.538610 5.531337 1.657377
v -0.105597 5.531337 2.407377
v -0.945508 5.360327 1.892300
v -0.792131 6.291555 2.303747
v -1.292071 1.706427 1.057298
v -2.348116 4.487979 0.672929
v -0.962746 1.790714 0.762440
v -2.018791 4.572265 0.378071
v -0.570676 1.959286 0.905142
v -1.626721 4.740838 0.520773
v -0.507929 2.043573 1.342702
v -1.563975 4.825125 0.958333
v -0.837254 1.959286 1.637560
v -1.893299 4.740838 1.253191
v -1.229324 1.790714 1.494858
v -2.285369 4.572265 1.110489
v -2.241177 5.407570 0.711851
v 2.339847 2.075000 0.458853
v 2.565589 4.326666 1.739103
v 2.711071 1.975000 0.569273
v 2.936813 4.226665 1.849523
v 2.771224 1.775000 0.910420
v 2.996967 4.026666 2.190670
v 2.460154 1.675000 1.141147
v 2.685896 3.926666 2.421397
v 2.088929 1.775000 1.030727
v 2.314672 4.026666 2.310977
v 2.028776 1.975000 0.689580
v 2.254519 4.226665 1.969830
v 2.688256 4.750204 2.434781
vn 0.5000 -0.0000 -0.8660
vn 1.0000 -0.0000 -0.0000
vn 0.5000 -0.0000 0.8660
vn -0.5000 -0.0000 0.8660
vn -0.0000 1.0000 -0.0000
vn -1.0000 -0.0000 -0.0000
vn -0.5000 -0.0000 -0.8660
vn -0.0000 -1.0000 -0.0000
vn 0.4506 0.4336 -0.7804
vn 0.9011 0.4336 -0.0000
vn 0.4506 0.4336 0.7804
vn -0.4506 0.4336 0.7804
vn -0.9011 0.4336 -0.0000
vn -0.4506 0.4336 -0.7804
vn 0.0212 0.2676 -0.9633
vn 0.8660 -0.0000 -0.5000
vn 0.8448 -0.2676 0.4633
vn -0.0212 -0.2676 0.9633
vn 0.1545 0.9511 0.2676
vn -0.8660 -0.0000 0.5000
vn -0.8448 0.2676 -0.4633
vn -0.1545 -0.9511 -0.2676
vn 0.0861 0.6535 -0.7520
vn 0.8474 0.4123 -0.3345
vn 0.8283 0.1712 0.5335
vn 0.0479 0.1712 0.9841
vn -0.7134 0.4123 0.5666
vn -0.6943 0.6535 -0.3015
vn 0.7546 -0.2387 -0.6113
vn 0.9397 -0.0000 0.3420
vn 0.1851 0.2387 0.9533
vn -0.7546 0.2387 0.6113
vn 0.0943 0.9613 -0.2590
vn -0.9397 -0.0000 -0.3420
vn -0.1851 -0.2387 -0.9533
vn -0.0943 -0.9613 0.2590
vn 0.7208 0.2017 -0.6631
vn 0.8877 0.4168 0.1959
vn 0.2077 0.6319 0.7467
vn -0.6391 0.6319 0.4385
vn -0.8059 0.4168 -0.4205
vn -0.1259 0.2017 -0.9713
vn 0.9548 0.2962 0.0261
vn -0.4548 -0.2962 0.8399
vn -0.9548 -0.2962 -0.0261
vn -0.2962 0.9397 0.1710
vn 0.4548 0.2962 -0.8399
vn 0.2962 -0.9397 -0.1710
vn 0.7320 0.6743 0.0977
vn 0.3221 0.4074 0.8545
vn -0.5382 0.1405 0.8310
vn -0.9888 0.1405 0.0506
vn -0.5790 0.4074 -0.7063
vn 0.2814 0.6743 -0.6827
vn -0.5835 -0.3244 -0.7445
vn 0.3420 -0.0000 -0.9397
vn 0.9256 0.3244 -0.1952
vn 0.5835 0.3244 0.7445
vn -0.3520 0.9272 -0.1281
vn -0.3420 -0.0000 0.9397
vn -0.9256 -0.3244 0.1952
vn 0.3520 -0.9272 0.1281
vn -0.6785 0.1096 -0.7264
vn 0.1556 0.4020 -0.9023
vn 0.6814 0.6943 -0.2315
vn 0.3732 0.6943 0.6153
vn -0.4608 0.4020 0.7912
vn -0.9867 0.1096 0.1204
vn 0.3622 0.4330 -0.8254
vn 0.9848 -0.0000 -0.1736
vn 0.6226 -0.4330 0.6518
vn -0.3622 -0.4330 0.8254
vn 0.0868 0.8660 0.4924
vn -0.9848 -0.0000 0.1736
vn -0.6226 0.4330 -0.6518
vn -0.0868 -0.8660 -0.4924
vn 0.3640 0.7657 -0.5303
vn 0.9251 0.3755 0.0570
vn 0.5987 -0.0147 0.8008
vn -0.2887 -0.0147 0.9573
vn -0.8498 0.3755 0.3700
vn -0.5234 0.7657 -0.3739
vt 0.712500 0.500000
vt 0.675000 0.524744
vt 0.675000 0.475256
s 0
usemtl Palette
f 2/1/1 3/2/1 1/3/1
f 4/1/2 5/2/2 3/3/2
f 6/1/3 7/2/3 5/3/3
f 8/1/4 9/2/4 7/3/4
f 10/1/5 8/2/5 6/3/5
f 10/1/6 11/2/6 9/3/6
f 12/1/7 1/2/7 11/3/7
f 7/1/8 9/2/8 11/3/8
f 2/1/9 13/2/9 4/3/9
f 4/1/10 13/2/10 6/3/10
f 6/1/11 13/2/11 8/3/11
f 8/1/12 13/2/12 10/3/12
f 10/1/13 13/2/13 12/3/13
f 12/1/14 13/2/14 2/3/14
f 15/1/15 16/2/15 14/3/15
f 16/1/16 19/2/16 18/3/16
f 19/1/17 20/2/17 18/3/17
f 21/1/18 22/2/18 20/3/18
f 21/1/19 19/2/19 15/3/19
f 23/1/20 24/2/20 22/3/20
f 24/1/21 15/2/21 14/3/21
f 16/1/22 20/2/22 24/3/22
f 15/1/23 26/2/23 17/3/23
f 17/1/24 26/2/24 19/3/24
f 19/1/25 26/2/25 21/3/25
f 21/1/26 26/2/26 23/3/26
f 23/1/27 26/2/27 25/3/27
f 25/1/28 26/2/28 15/3/28
f 28/1/29 29/2/29 27/3/29
f 30/1/30 31/2/30 29/3/30
f 32/1/31 33/2/31 31/3/31
f 34/1/32 35/2/32 33/3/32
f 28/1/33 36/2/33 32/3/33
f 35/1/34 38/2/34 37/3/34
f 38/1/35 27/2/35 37/3/35
f 33/1/36 35/2/36 37/3/36
f 28/1/37 39/2/37 30/3/37
f 30/1/38 39/2/38 32/3/38
f 32/1/39 39/2/39 34/3/39
f 34/1/40 39/2/40 36/3/40
f 36/1/41 39/2/41 38/3/41
f 38/1/42 39/2/42 28/3/42
f 41/1/43 42/2/43 40/3/43
f 50/1/3 43/2/3 42/3/3
f 44/1/44 45/2/44 43/3/44
f 46/1/45 47/2/45 45/3/45
f 46/1/46 44/2/46 41/3/46
f 51/1/7 48/2/7 47/3/7
f 49/1/47 40/2/47 48/3/47
f 45/1/48 47/2/48 48/3/48
f 41/1/49 52/2/49 50/3/49
f 50/1/50 52/2/50 44/3/50
f 44/1/51 52/2/51 46/3/51
f 46/1/52 52/2/52 51/3/52
f 51/1/53 52/2/53 49/3/53
f 49/1/54 52/2/54 41/3/54
f 54/1/55 55/2/55 53/3/55
f 56/1/56 57/2/56 55/3/56
f 58/1/57 59/2/57 57/3/57
f 60/1/58 61/2/58 59/3/58
f 62/1/59 60/2/59 58/3/59
f 62/1/60 63/2/60 61/3/60
f 64/1/61 53/2/61 63/3/61
f 55/1/62 59/2/62 63/3/62
f 54/1/63 65/2/63 56/3/63
f 56/1/64 65/2/64 58/3/64
f 58/1/65 65/2/65 60/3/65
f 60/1/66 65/2/66 62/3/66
f 62/1/67 65/2/67 64/3/67
f 64/1/68 65/2/68 54/3/68
f 67/1/69 68/2/69 66/3/69
f 69/1/70 70/2/70 68/3/70
f 70/1/71 73/2/71 72/3/71
f 73/1/72 74/2/72 72/3/72
f 75/1/73 73/2/73 71/3/73
f 75/1/74 76/2/74 74/3/74
f 77/1/75 66/2/75 76/3/75
f 72/1/76 74/2/76 76/3/76
f 67/1/77 78/2/77 69/3/77
f 69/1/78 78/2/78 71/3/78
f 71/1/79 78/2/79 73/3/79
f 73/1/80 78/2/80 75/3/80
f 75/1/81 78/2/81 77/3/81
f 77/1/82 78/2/82 67/3/82
f 2/1/1 4/2/1 3/3/1
f 4/1/2 6/2/2 5/3/2
f 6/1/3 8/2/3 7/3/3
f 8/1/4 10/2/4 9/3/4
f 6/1/5 4/2/5 10/3/5
f 4/1/5 2/2/5 10/3/5
f 2/1/5 12/2/5 10/3/5
f 10/1/6 12/2/6 11/3/6
f 12/1/7 2/2/7 1/3/7
f 11/1/8 1/2/8 7/3/8
f 1/1/8 3/2/8 7/3/8
f 3/1/8 5/2/8 7/3/8
f 15/1/15 17/2/15 16/3/15
f 16/1/16 17/2/16 19/3/16
f 19/1/17 21/2/17 20/3/17
f 21/1/18 23/2/18 22/3/18
f 19/1/19 17/2/19 15/3/19
f 15/1/19 25/2/19 23/3/19
f 23/1/19 21/2/19 15/3/19
f 23/1/20 25/2/20 24/3/20
f 24/1/21 25/2/21 15/3/21
f 24/1/22 14/2/22 16/3/22
f 16/1/22 18/2/22 20/3/22
f 20/1/22 22/2/22 24/3/22
f 28/1/29 30/2/29 29/3/29
f 30/1/30 32/2/30 31/3/30
f 32/1/31 34/2/31 33/3/31
f 34/1/32 36/2/32 35/3/32
f 32/1/33 30/2/33 28/3/33
f 28/1/33 38/2/33 36/3/33
f 36/1/33 34/2/33 32/3/33
f 35/1/34 36/2/34 38/3/34
f 38/1/35 28/2/35 27/3/35
f 37/1/36 27/2/36 29/3/36
f 29/1/36 31/2/36 37/3/36
f 31/1/36 33/2/36 37/3/36
f 41/1/43 50/2/43 42/3/43
f 50/1/3 44/2/3 43/3/3
f 44/1/44 46/2/44 45/3/44
f 46/1/45 51/2/45 47/3/45
f 44/1/46 50/2/46 41/3/46
f 41/1/46 49/2/46 51/3/46
f 51/1/46 46/2/46 41/3/46
f 51/1/7 49/2/7 48/3/7
f 49/1/47 41/2/47 40/3/47
f 48/1/48 40/2/48 42/3/48
f 42/1/48 43/2/48 48/3/48
f 43/1/48 45/2/48 48/3/48
f 54/1/55 56/2/55 55/3/55
f 56/1/56 58/2/56 57/3/56
f 58/1/57 60/2/57 59/3/57
f 60/1/58 62/2/58 61/3/58
f 58/1/59 56/2/59 54/3/59
f 54/1/59 64/2/59 58/3/59
f 64/1/59 62/2/59 58/3/59
f 62/1/60 64/2/60 63/3/60
f 64/1/61 54/2/61 53/3/61
f 63/1/62 53/2/62 55/3/62
f 55/1/62 57/2/62 59/3/62
f 59/1/62 61/2/62 63/3/62
f 67/1/69 69/2/69 68/3/69
f 69/1/70 71/2/70 70/3/70
f 70/1/71 71/2/71 73/3/71
f 73/1/72 75/2/72 74/3/72
f 71/1/73 69/2/73 75/3/73
f 69/1/73 67/2/73 75/3/73
f 67/1/73 77/2/73 75/3/73
f 75/1/74 77/2/74 76/3/74
f 77/1/75 67/2/75 66/3/75
f 76/1/76 66/2/76 72/3/76
f 66/1/76 68/2/76 72/3/76
f 68/1/76 70/2/76 72/3/76
o ice_crystals_Neon_glow_cyan
v 0.000000 0.000000 -0.315000
v 0.000000 3.750000 -0.315000
v 0.272798 0.000000 -0.157500
v 0.272798 3.750000 -0.157500
v 0.272798 0.000000 0.157500
v 0.272798 3.750000 0.157500
v 0.000000 0.000000 0.315000
v 0.000000 3.750000 0.315000
v -0.272798 0.000000 0.157500
v -0.272798 3.750000 0.157500
v -0.272798 0.000000 -0.157500
v -0.272798 3.750000 -0.157500
v 1.314729 0.798626 -0.994104
v 1.685549 3.081161 -0.351824
v 1.522159 0.766179 -0.998555
v 1.892980 3.048715 -0.356275
v 1.622020 0.701285 -0.825590
v 1.992841 2.983821 -0.183311
v 1.514451 0.668839 -0.648176
v 1.885271 2.951374 -0.005896
v 1.307020 0.701285 -0.643725
v 1.677841 2.983821 -0.001445
v 1.207159 0.766179 -0.816689
v 1.577980 3.048715 -0.174410
v -1.449077 0.485734 -0.665161
v -1.189825 3.129204 -1.377451
v -1.289971 0.519500 -0.481940
v -1.030719 3.162969 -1.194229
v -1.370520 0.587031 -0.260634
v -1.111268 3.230500 -0.972923
v -1.610175 0.620796 -0.222549
v -1.350923 3.264266 -0.934839
v -1.769281 0.587031 -0.405771
v -1.510029 3.230500 -1.118060
v -1.688732 0.519500 -0.627077
v -1.429480 3.162969 -1.339366
v 1.023803 1.042145 1.255317
v 0.461026 2.827561 1.580236
v 1.028373 1.012219 1.427679
v 0.465596 2.797635 1.752598
v 0.885958 0.952365 1.509902
v 0.323182 2.737781 1.834821
v 0.738974 0.922439 1.419764
v 0.176197 2.707855 1.744683
v 0.734404 0.952365 1.247402
v 0.171627 2.737781 1.572321
v 0.876818 1.012219 1.165179
v 0.314042 2.797635 1.490098
v -0.773213 1.120612 1.246147
v -1.301236 2.511387 1.053962
v -0.657950 1.150112 1.142946
v -1.185972 2.540888 0.950762
v -0.520725 1.209112 1.192892
v -1.048748 2.599888 1.000708
v -0.498764 1.238613 1.346038
v -1.026787 2.629388 1.153854
v -0.614028 1.209112 1.449238
v -1.142050 2.599888 1.257054
v -0.751252 1.150112 1.399293
v -1.279275 2.540888 1.207108
v 2.322511 1.382084 0.360536
v 2.435382 2.507916 1.000661
v 2.452439 1.347084 0.399183
v 2.565310 2.472917 1.039308
v 2.473493 1.277084 0.518585
v 2.586364 2.402916 1.158710
v 2.364618 1.242084 0.599339
v 2.477489 2.367917 1.239464
v 2.234690 1.277084 0.560692
v 2.347561 2.402916 1.200817
v 2.213636 1.347084 0.441290
v 2.326507 2.472917 1.081415
vn 0.5000 -0.0000 -0.8660
vn 1.0000 -0.0000 -0.0000
vn 0.5000 -0.0000 0.8660
vn -0.5000 -0.0000 0.8660
vn -0.0000 1.0000 -0.0000
vn -1.0000 -0.0000 -0.0000
vn -0.5000 -0.0000 -0.8660
vn -0.0000 -1.0000 -0.0000
vn 0.0212 0.2676 -0.9633
vn 0.8660 -0.0000 -0.5000
vn 0.8448 -0.2676 0.4633
vn -0.0212 -0.2676 0.9633
vn 0.1545 0.9511 0.2676
vn -0.8660 -0.0000 0.5000
vn -0.8448 0.2676 -0.4633
vn -0.1545 -0.9511 -0.2676
vn 0.7546 -0.2387 -0.6113
vn 0.9397 -0.0000 0.3420
vn 0.1851 0.2387 0.9533
vn -0.7546 0.2387 0.6113
vn 0.0943 0.9613 -0.2590
vn -0.9397 -0.0000 -0.3420
vn -0.1851 -0.2387 -0.9533
vn -0.0943 -0.9613 0.2590
vn 0.9548 0.2962 0.0261
vn -0.4548 -0.2962 0.8399
vn -0.9548 -0.2962 -0.0261
vn -0.2962 0.9397 0.1710
vn 0.4548 0.2962 -0.8399
vn 0.2962 -0.9397 -0.1710
vn -0.5835 -0.3244 -0.7445
vn 0.3420 -0.0000 -0.9397
vn 0.9256 0.3244 -0.1952
vn 0.5835 0.3244 0.7445
vn -0.3520 0.9272 -0.1281
vn -0.3420 -0.0000 0.9397
vn -0.9255 -0.3244 0.1952
vn 0.3520 -0.9272 0.1281
vn 0.3622 0.4330 -0.8254
vn 0.9848 -0.0000 -0.1736
vn 0.6226 -0.4330 0.6518
vn -0.3622 -0.4330 0.8254
vn 0.0868 0.8660 0.4924
vn -0.9848 -0.0000 0.1736
vn -0.6226 0.4330 -0.6518
vn -0.0868 -0.8660 -0.4924
vn -0.9256 -0.3244 0.1952
vn 0.9848 -0.0000 -0.1737
vn -0.9848 -0.0000 0.1737
vt 0.337500 0.500000
vt 0.300000 0.524744
vt 0.300000 0.475256
s 0
usemtl Palette
f 80/4/83 81/5/83 79/6/83
f 82/4/84 83/5/84 81/6/84
f 84/4/85 85/5/85 83/6/85
f 86/4/86 87/5/86 85/6/86
f 80/4/87 88/5/87 84/6/87
f 88/4/88 89/5/88 87/6/88
f 90/4/89 79/5/89 89/6/89
f 81/4/90 85/5/90 89/6/90
f 91/4/91 94/5/91 93/6/91
f 94/4/92 95/5/92 93/6/92
f 96/4/93 97/5/93 95/6/93
f 98/4/94 99/5/94 97/6/94
f 100/4/95 98/5/95 96/6/95
f 100/4/96 101/5/96 99/6/96
f 102/4/97 91/5/97 101/6/97
f 99/4/98 101/5/98 93/6/98
f 103/4/99 106/5/99 105/6/99
f 106/4/100 107/5/100 105/6/100
f 108/4/101 109/5/101 107/6/101
f 109/4/102 112/5/102 111/6/102
f 112/4/103 110/5/103 108/6/103
f 112/4/104 113/5/104 111/6/104
f 114/4/105 103/5/105 113/6/105
f 109/4/106 111/5/106 113/6/106
f 116/4/107 117/5/107 115/6/107
f 118/4/85 119/5/85 117/6/85
f 120/4/108 121/5/108 119/6/108
f 121/4/109 124/5/109 123/6/109
f 116/4/110 124/5/110 120/6/110
f 124/4/89 125/5/89 123/6/89
f 125/4/111 116/5/111 115/6/111
f 117/4/112 121/5/112 125/6/112
f 128/4/113 129/5/113 127/6/113
f 130/4/114 131/5/114 129/6/114
f 132/4/115 133/5/115 131/6/115
f 134/4/116 135/5/116 133/6/116
f 128/4/117 136/5/117 132/6/117
f 136/4/118 137/5/118 135/6/118
f 137/4/119 128/5/119 127/6/119
f 133/4/120 135/5/120 137/6/120
f 140/4/121 141/5/121 139/6/121
f 142/4/122 143/5/122 141/6/122
f 144/4/123 145/5/123 143/6/123
f 145/4/124 148/5/124 147/6/124
f 148/4/125 146/5/125 144/6/125
f 148/4/126 149/5/126 147/6/126
f 150/4/127 139/5/127 149/6/127
f 145/4/128 147/5/128 149/6/128
f 80/4/83 82/5/83 81/6/83
f 82/4/84 84/5/84 83/6/84
f 84/4/85 86/5/85 85/6/85
f 86/4/86 88/5/86 87/6/86
f 84/4/87 82/5/87 80/6/87
f 80/4/87 90/5/87 88/6/87
f 88/4/87 86/5/87 84/6/87
f 88/4/88 90/5/88 89/6/88
f 90/4/89 80/5/89 79/6/89
f 89/4/90 79/5/90 81/6/90
f 81/4/90 83/5/90 85/6/90
f 85/4/90 87/5/90 89/6/90
f 91/4/91 92/5/91 94/6/91
f 94/4/92 96/5/92 95/6/92
f 96/4/93 98/5/93 97/6/93
f 98/4/94 100/5/94 99/6/94
f 96/4/95 94/5/95 92/6/95
f 92/4/95 102/5/95 96/6/95
f 102/4/95 100/5/95 96/6/95
f 100/4/96 102/5/96 101/6/96
f 102/4/97 92/5/97 91/6/97
f 101/4/98 91/5/98 93/6/98
f 93/4/98 95/5/98 97/6/98
f 97/4/98 99/5/98 93/6/98
f 103/4/99 104/5/99 106/6/99
f 106/4/100 108/5/100 107/6/100
f 108/4/101 110/5/101 109/6/101
f 109/4/102 110/5/102 112/6/102
f 108/4/103 106/5/103 112/6/103
f 106/4/103 104/5/103 112/6/103
f 104/4/103 114/5/103 112/6/103
f 112/4/104 114/5/104 113/6/104
f 114/4/105 104/5/105 103/6/105
f 113/4/106 103/5/106 109/6/106
f 103/4/106 105/5/106 109/6/106
f 105/4/106 107/5/106 109/6/106
f 116/4/107 118/5/107 117/6/107
f 118/4/85 120/5/85 119/6/85
f 120/4/108 122/5/108 121/6/108
f 121/4/109 122/5/109 124/6/109
f 120/4/110 118/5/110 116/6/110
f 116/4/110 126/5/110 124/6/110
f 124/4/110 122/5/110 120/6/110
f 124/4/89 126/5/89 125/6/89
f 125/4/111 126/5/111 116/6/111
f 125/4/112 115/5/112 117/6/112
f 117/4/112 119/5/112 121/6/112
f 121/4/112 123/5/112 125/6/112
f 128/4/113 130/5/113 129/6/113
f 130/4/114 132/5/114 131/6/114
f 132/4/115 134/5/115 133/6/115
f 134/4/116 136/5/116 135/6/116
f 132/4/117 130/5/117 128/6/117
f 128/4/117 138/5/117 136/6/117
f 136/4/117 134/5/117 132/6/117
f 136/4/118 138/5/118 137/6/118
f 137/4/129 138/5/129 128/6/129
f 137/4/120 127/5/120 129/6/120
f 129/4/120 131/5/120 137/6/120
f 131/4/120 133/5/120 137/6/120
f 140/4/121 142/5/121 141/6/121
f 142/4/130 144/5/130 143/6/130
f 144/4/123 146/5/123 145/6/123
f 145/4/124 146/5/124 148/6/124
f 144/4/125 142/5/125 148/6/125
f 142/4/125 140/5/125 148/6/125
f 140/4/125 150/5/125 148/6/125
f 148/4/131 150/5/131 149/6/131
f 150/4/127 140/5/127 139/6/127
f 149/4/128 139/5/128 145/6/128
f 139/4/128 141/5/128 145/6/128
f 141/4/128 143/5/128 145/6/128
o ice_crystals_Main
v 0.000000 0.905000 0.000000
v 2.445793 1.551753 1.503574
v -0.934191 1.551753 2.432857
v -3.023160 1.551758 0.000000
v -0.934191 1.551753 -2.432857
v 2.445793 1.551753 -1.503574
v 0.934191 2.598247 2.432857
v -2.445793 2.598247 1.503574
v -2.445793 2.598247 -1.503574
v 0.934191 2.598247 -2.432857
v 3.023160 2.598242 0.000000
v 0.000000 3.245000 0.000000
v -0.549100 1.079734 1.429987
v 1.437591 1.079735 0.883773
v 0.888497 1.459887 2.313773
v 2.875190 1.459889 0.000000
v 1.437591 1.079735 -0.883773
v -1.776966 1.079738 0.000000
v -2.326080 1.459889 1.429991
v -0.549100 1.079734 -1.429987
v -2.326080 1.459889 -1.429991
v 0.888497 1.459887 -2.313773
v 3.214576 2.075000 0.883776
v 3.214576 2.075000 -0.883776
v 0.000000 2.075000 2.860000
v 1.986715 2.075000 2.313788
v -3.214576 2.075000 0.883776
v -1.986715 2.075000 2.313788
v -1.986715 2.075000 -2.313788
v -3.214576 2.075000 -0.883776
v 1.986715 2.075000 -2.313788
v 0.000000 2.075000 -2.860000
v 2.326080 2.690111 1.429991
v -0.888497 2.690113 2.313773
v -2.875190 2.690111 0.000000
v -0.888497 2.690113 -2.313773
v 2.326080 2.690111 -1.429991
v 0.549100 3.070266 1.429987
v 1.776966 3.070262 0.000000
v -1.437591 3.070265 0.883773
v -1.437591 3.070265 -0.883773
v 0.549100 3.070266 -1.429987
vn 0.0372 -0.9901 0.1353
vn 0.3399 -0.9278 0.1537
vn -0.0975 -0.9917 0.0837
vn -0.0975 -0.9917 -0.0837
vn 0.0372 -0.9901 -0.1353
vn 0.6689 -0.7055 0.2341
vn 0.0169 -0.6502 0.7596
vn -0.6557 -0.7034 0.2744
vn -0.4039 -0.6708 -0.6220
vn 0.3741 -0.6679 -0.6433
vn 0.7176 -0.3245 0.6162
vn -0.2529 -0.2994 0.9200
vn -0.9391 -0.3436 -0.0000
vn -0.2529 -0.2994 -0.9200
vn 0.7176 -0.3245 -0.6162
vn 0.1956 0.9141 0.3552
vn -0.2259 0.9164 0.3304
vn -0.3399 0.9278 -0.1537
vn 0.0183 0.9073 -0.4200
vn 0.3520 0.9293 -0.1119
vn 0.0975 0.9917 -0.0837
vn 0.2059 0.9625 -0.1768
vn 0.1956 0.9141 -0.3552
vn -0.0372 0.9901 -0.1353
vn -0.0781 0.9556 -0.2840
vn -0.2259 0.9164 -0.3304
vn -0.1207 0.9927 -0.0000
vn -0.2556 0.9668 -0.0000
vn -0.3399 0.9278 0.1537
vn -0.0372 0.9901 0.1353
vn -0.0781 0.9556 0.2840
vn 0.0183 0.9073 0.4200
vn 0.0975 0.9917 0.0837
vn 0.2059 0.9625 0.1768
vn 0.3520 0.9293 0.1119
vn 0.6557 0.7034 -0.2744
vn 0.6738 0.4595 -0.5786
vn 0.4039 0.6708 -0.6220
vn -0.0169 0.6502 -0.7596
vn -0.2396 0.4278 -0.8715
vn -0.3741 0.6679 -0.6433
vn -0.6689 0.7055 -0.2341
vn -0.8756 0.4831 -0.0000
vn -0.6689 0.7055 0.2341
vn -0.3741 0.6679 0.6433
vn -0.2396 0.4278 0.8715
vn -0.0169 0.6502 0.7596
vn 0.4039 0.6708 0.6220
vn 0.6738 0.4595 0.5786
vn 0.6557 0.7034 0.2744
vn 0.2529 0.2994 -0.9200
vn 0.2396 -0.4278 -0.8715
vn 0.0169 -0.6502 -0.7596
vn -0.7176 0.3245 -0.6162
vn -0.6738 -0.4595 -0.5786
vn -0.6557 -0.7034 -0.2744
vn -0.7176 0.3245 0.6162
vn -0.6738 -0.4595 0.5786
vn -0.4039 -0.6708 0.6220
vn 0.2529 0.2994 0.9200
vn 0.2396 -0.4278 0.8715
vn 0.3741 -0.6679 0.6433
vn 0.9391 0.3436 -0.0000
vn 0.8756 -0.4831 -0.0000
vn 0.6689 -0.7055 -0.2341
vn 0.2259 -0.9164 -0.3304
vn 0.0781 -0.9556 -0.2840
vn -0.0183 -0.9073 -0.4200
vn -0.1956 -0.9141 -0.3552
vn -0.2059 -0.9625 -0.1768
vn -0.3520 -0.9293 -0.1119
vn -0.3520 -0.9293 0.1119
vn -0.2059 -0.9625 0.1768
vn -0.1956 -0.9141 0.3552
vn 0.3399 -0.9278 -0.1537
vn 0.2556 -0.9668 -0.0000
vn 0.1207 -0.9927 -0.0000
vn -0.0183 -0.9073 0.4200
vn 0.0781 -0.9556 0.2840
vn 0.2259 -0.9164 0.3304
vt 0.462500 0.500000
vt 0.425000 0.524744
vt 0.425000 0.475256
s 0
usemtl Palette
f 151/7/132 164/8/132 163/9/132
f 152/7/133 164/8/133 166/9/133
f 151/7/134 163/8/134 168/9/134
f 151/7/135 168/8/135 170/9/135
f 151/7/136 170/8/136 167/9/136
f 152/7/137 166/8/137 173/9/137
f 153/7/138 165/8/138 175/9/138
f 154/7/139 169/8/139 177/9/139
f 155/7/140 171/8/140 179/9/140
f 156/7/141 172/8/141 181/9/141
f 152/7/142 173/8/142 176/9/142
f 153/7/143 175/8/143 178/9/143
f 154/7/144 177/8/144 180/9/144
f 155/7/145 179/8/145 182/9/145
f 156/7/146 181/8/146 174/9/146
f 157/7/147 183/8/147 188/9/147
f 158/7/148 184/8/148 190/9/148
f 159/7/149 185/8/149 191/9/149
f 160/7/150 186/8/150 192/9/150
f 161/7/151 187/8/151 189/9/151
f 189/7/152 192/8/152 162/9/152
f 189/7/153 187/8/153 192/9/153
f 187/7/154 160/8/154 192/9/154
f 192/7/155 191/8/155 162/9/155
f 192/7/156 186/8/156 191/9/156
f 186/7/157 159/8/157 191/9/157
f 191/7/158 190/8/158 162/9/158
f 191/7/159 185/8/159 190/9/159
f 185/7/160 158/8/160 190/9/160
f 190/7/161 188/8/161 162/9/161
f 190/7/162 184/8/162 188/9/162
f 184/7/163 157/8/163 188/9/163
f 188/7/164 189/8/164 162/9/164
f 188/7/165 183/8/165 189/9/165
f 183/7/166 161/8/166 189/9/166
f 174/7/167 187/8/167 161/9/167
f 174/7/168 181/8/168 187/9/168
f 181/7/169 160/8/169 187/9/169
f 182/7/170 186/8/170 160/9/170
f 182/7/171 179/8/171 186/9/171
f 179/7/172 159/8/172 186/9/172
f 180/7/173 185/8/173 159/9/173
f 180/7/174 177/8/174 185/9/174
f 177/7/175 158/8/175 185/9/175
f 178/7/176 184/8/176 158/9/176
f 178/7/177 175/8/177 184/9/177
f 175/7/178 157/8/178 184/9/178
f 176/7/179 183/8/179 157/9/179
f 176/7/180 173/8/180 183/9/180
f 173/7/181 161/8/181 183/9/181
f 181/7/182 182/8/182 160/9/182
f 181/7/183 172/8/183 182/9/183
f 172/7/184 155/8/184 182/9/184
f 179/7/185 180/8/185 159/9/185
f 179/7/186 171/8/186 180/9/186
f 171/7/187 154/8/187 180/9/187
f 177/7/188 178/8/188 158/9/188
f 177/7/189 169/8/189 178/9/189
f 169/7/190 153/8/190 178/9/190
f 175/7/191 176/8/191 157/9/191
f 175/7/192 165/8/192 176/9/192
f 165/7/193 152/8/193 176/9/193
f 173/7/194 174/8/194 161/9/194
f 173/7/195 166/8/195 174/9/195
f 166/7/196 156/8/196 174/9/196
f 167/7/197 172/8/197 156/9/197
f 167/7/198 170/8/198 172/9/198
f 170/7/199 155/8/199 172/9/199
f 170/7/200 171/8/200 155/9/200
f 170/7/201 168/8/201 171/9/201
f 168/7/202 154/8/202 171/9/202
f 168/7/203 169/8/203 154/9/203
f 168/7/204 163/8/204 169/9/204
f 163/7/205 153/8/205 169/9/205
f 166/7/206 167/8/206 156/9/206
f 166/7/207 164/8/207 167/9/207
f 164/7/208 151/8/208 167/9/208
f 163/7/209 165/8/209 153/9/209
f 163/7/210 164/8/210 165/9/210
f 164/7/211 152/8/211 165/9/211
