# Blender 5.0.1
# www.blender.org
mtllib lamp_post.mtl
o lamp_post_Main
v -1.153345 0.000000 0.270000
v -1.153345 0.080000 0.350000
v -1.233345 0.080000 0.270000
v -1.153345 9.920000 0.350000
v -1.153345 10.000000 0.270000
v -1.233345 9.920000 0.270000
v -1.153345 0.000000 -0.270000
v -1.233345 0.080000 -0.270000
v -1.153345 0.080000 -0.350000
v -1.153345 10.000000 -0.270000
v -1.153345 9.920000 -0.350000
v -1.233345 9.920000 -0.270000
v -0.613345 0.000000 0.270000
v -0.533345 0.080000 0.270000
v -0.613345 0.080000 0.350000
v -0.613345 10.000000 0.270000
v -0.613345 9.920000 0.350000
v -0.533345 9.920000 0.270000
v -0.613345 0.000000 -0.270000
v -0.613345 0.080000 -0.350000
v -0.533345 0.080000 -0.270000
v -0.613345 10.000000 -0.270000
v -0.533345 9.920000 -0.270000
v -0.613345 9.920000 -0.350000
v -1.463345 0.000000 0.580000
v -1.463345 0.120000 0.700000
v -1.583345 0.120000 0.580000
v -1.463345 0.480000 0.700000
v -1.463345 0.600000 0.580000
v -1.583345 0.480000 0.580000
v -1.463345 0.000000 -0.580000
v -1.583345 0.120000 -0.580000
v -1.463345 0.120000 -0.700000
v -1.463345 0.600000 -0.580000
v -1.463345 0.480000 -0.700000
v -1.583345 0.480000 -0.580000
v -0.303345 0.000000 0.580000
v -0.183345 0.120000 0.580000
v -0.303345 0.120000 0.700000
v -0.303345 0.600000 0.580000
v -0.303345 0.480000 0.700000
v -0.183345 0.480000 0.580000
v -0.303345 0.000000 -0.580000
v -0.303345 0.120000 -0.700000
v -0.183345 0.120000 -0.580000
v -0.303345 0.600000 -0.580000
v -0.183345 0.480000 -0.580000
v -0.303345 0.480000 -0.700000
v -1.133345 9.174999 0.175000
v -1.133345 9.224999 0.225000
v -1.183345 9.224999 0.175000
v -1.133345 9.575000 0.225000
v -1.133345 9.625000 0.175000
v -1.183345 9.575000 0.175000
v -1.133345 9.174999 -0.175000
v -1.183345 9.224999 -0.175000
v -1.133345 9.224999 -0.225000
v -1.133345 9.625000 -0.175000
v -1.133345 9.575000 -0.225000
v -1.183345 9.575000 -0.175000
v 1.366655 9.174999 0.175000
v 1.416655 9.224999 0.175000
v 1.366655 9.224999 0.225000
v 1.366655 9.625000 0.175000
v 1.366655 9.575000 0.225000
v 1.416655 9.575000 0.175000
v 1.366655 9.174999 -0.175000
v 1.366655 9.224999 -0.225000
v 1.416655 9.224999 -0.175000
v 1.366655 9.625000 -0.175000
v 1.416655 9.575000 -0.175000
v 1.366655 9.575000 -0.225000
v -0.955097 8.140381 0.150000
v 0.176274 9.271751 0.150000
v -0.955097 8.140381 -0.150000
v 0.176274 9.271751 -0.150000
v -0.742965 7.928249 0.150000
v 0.388406 9.059620 0.150000
v -0.742965 7.928249 -0.150000
v 0.388406 9.059620 -0.150000
v 1.116655 8.650000 -0.040000
v 1.116655 9.250000 -0.040000
v 1.151296 8.650000 -0.020000
v 1.151296 9.250000 -0.020000
v 1.151296 8.650000 0.020000
v 1.151296 9.250000 0.020000
v 1.116655 8.650000 0.040000
v 1.116655 9.250000 0.040000
v 1.082014 8.650000 0.020000
v 1.082014 9.250000 0.020000
v 1.082014 8.650000 -0.020000
v 1.082014 9.250000 -0.020000
v 0.746655 7.450000 0.370000
v 0.746655 8.450000 0.370000
v 0.746655 7.450000 0.290000
v 0.746655 8.450000 0.290000
v 0.826655 7.450000 0.370000
v 0.826655 8.450000 0.370000
v 0.826655 7.450000 0.290000
v 0.826655 8.450000 0.290000
v 0.746655 7.450000 -0.290000
v 0.746655 8.450000 -0.290000
v 0.746655 7.450000 -0.370000
v 0.746655 8.450000 -0.370000
v 0.826655 7.450000 -0.290000
v 0.826655 8.450000 -0.290000
v 0.826655 7.450000 -0.370000
v 0.826655 8.450000 -0.370000
v 1.406655 7.450000 0.370000
v 1.406655 8.450000 0.370000
v 1.406655 7.450000 0.290000
v 1.406655 8.450000 0.290000
v 1.486655 7.450000 0.370000
v 1.486655 8.450000 0.370000
v 1.486655 7.450000 0.290000
v 1.486655 8.450000 0.290000
v 1.406655 7.450000 -0.290000
v 1.406655 8.450000 -0.290000
v 1.406655 7.450000 -0.370000
v 1.406655 8.450000 -0.370000
v 1.486655 7.450000 -0.290000
v 1.486655 8.450000 -0.290000
v 1.486655 7.450000 -0.370000
v 1.486655 8.450000 -0.370000
v 0.716655 7.400000 0.400000
v 0.716655 7.500000 0.400000
v 0.716655 7.400000 -0.400000
v 0.716655 7.500000 -0.400000
v 1.516655 7.400000 0.400000
v 1.516655 7.500000 0.400000
v 1.516655 7.400000 -0.400000
v 1.516655 7.500000 -0.400000
v 0.678249 8.424999 -0.438406
v 1.555061 8.424999 -0.438406
v 1.555061 8.424999 0.438406
v 0.678249 8.424999 0.438406
v 1.116655 8.875000 0.000000
v 0.649964 8.460000 -0.466690
v 1.583345 8.460000 -0.466690
v 1.583345 8.460000 0.466690
v 0.649964 8.460000 0.466690
v 1.116655 8.679999 0.000000
v -1.198345 9.990000 0.315000
v -1.198345 10.049999 0.375000
v -1.258345 10.049999 0.315000
v -1.198345 10.110001 0.375000
v -1.198345 10.170000 0.315000
v -1.258345 10.110001 0.315000
v -1.198345 9.990000 -0.315000
v -1.258345 10.049999 -0.315000
v -1.198345 10.049999 -0.375000
v -1.198345 10.170000 -0.315000
v -1.198345 10.110001 -0.375000
v -1.258345 10.110001 -0.315000
v -0.568345 9.990000 0.315000
v -0.508345 10.049999 0.315000
v -0.568345 10.049999 0.375000
v -0.568345 10.170000 0.315000
v -0.568345 10.110001 0.375000
v -0.508345 10.110001 0.315000
v -0.568345 9.990000 -0.315000
v -0.568345 10.049999 -0.375000
v -0.508345 10.049999 -0.315000
v -0.568345 10.170000 -0.315000
v -0.508345 10.110001 -0.315000
v -0.568345 10.110001 -0.375000
v -0.943345 9.620001 0.210000
v -0.943345 9.660000 0.250000
v -0.983345 9.660000 0.210000
v -0.943345 9.700001 0.250000
v -0.943345 9.740000 0.210000
v -0.983345 9.700001 0.210000
v -0.943345 9.620001 -0.210000
v -0.983345 9.660000 -0.210000
v -0.943345 9.660000 -0.250000
v -0.943345 9.740000 -0.210000
v -0.943345 9.700001 -0.250000
v -0.983345 9.700001 -0.210000
v 1.376655 9.620001 0.210000
v 1.416655 9.660000 0.210000
v 1.376655 9.660000 0.250000
v 1.376655 9.740000 0.210000
v 1.376655 9.700001 0.250000
v 1.416655 9.700001 0.210000
v 1.376655 9.620001 -0.210000
v 1.376655 9.660000 -0.250000
v 1.416655 9.660000 -0.210000
v 1.376655 9.740000 -0.210000
v 1.416655 9.700001 -0.210000
v 1.376655 9.700001 -0.250000
vn -0.5773 -0.5774 0.5774
vn -0.5773 0.5774 0.5774
vn -0.5773 -0.5774 -0.5774
vn -0.5773 0.5774 -0.5774
vn 0.5773 -0.5774 0.5773
vn 0.5773 0.5774 0.5774
vn 0.5773 -0.5774 -0.5773
vn 0.5773 0.5774 -0.5774
vn -0.7071 -0.7071 -0.0000
vn -0.7071 -0.0000 0.7071
vn -0.7071 0.7071 -0.0000
vn -0.7071 -0.0000 -0.7071
vn -0.0000 -0.7071 -0.7071
vn -0.0000 0.7071 -0.7071
vn 0.7071 -0.0000 -0.7071
vn 0.7071 -0.7071 -0.0000
vn 0.7071 0.7071 -0.0000
vn 0.7071 -0.0000 0.7071
vn -0.0000 -0.7071 0.7071
vn -0.0000 0.7071 0.7071
vn -0.0000 -1.0000 -0.0000
vn -1.0000 -0.0000 -0.0000
vn -0.0000 -0.0000 1.0000
vn -0.0000 1.0000 -0.0000
vn -0.0000 -0.0000 -1.0000
vn 1.0000 -0.0000 -0.0000
vn -0.5774 -0.5773 0.5774
vn -0.5774 0.5773 0.5774
vn -0.5774 -0.5773 -0.5774
vn -0.5774 0.5773 -0.5774
vn 0.5774 -0.5773 0.5774
vn 0.5774 0.5773 0.5774
vn 0.5774 -0.5773 -0.5774
vn 0.5774 0.5773 -0.5774
vn -0.5774 -0.5773 0.5773
vn -0.5774 0.5773 0.5773
vn -0.5774 -0.5773 -0.5773
vn -0.5774 0.5773 -0.5773
vn 0.5774 -0.5773 0.5773
vn 0.5774 0.5773 0.5773
vn 0.5774 -0.5773 -0.5773
vn 0.5774 0.5773 -0.5773
vn 0.5000 -0.0000 -0.8660
vn 0.5000 -0.0000 0.8660
vn -0.5000 -0.0000 0.8660
vn -0.5000 -0.0000 -0.8660
vn -0.0000 0.6978 -0.7163
vn 0.7163 0.6978 -0.0000
vn -0.0000 0.6978 0.7163
vn -0.7163 0.6978 -0.0000
vn -0.0000 0.9045 -0.4264
vn 0.4264 0.9045 -0.0000
vn -0.0000 0.9045 0.4264
vn -0.4264 0.9045 -0.0000
vn -0.5774 -0.5774 0.5773
vn -0.5774 0.5774 0.5773
vn -0.5774 -0.5774 -0.5773
vn -0.5774 0.5774 -0.5773
vn 0.5774 -0.5774 0.5773
vn 0.5774 0.5774 0.5773
vn 0.5774 -0.5774 -0.5773
vn 0.5774 0.5774 -0.5773
vn -0.5773 -0.5774 0.5773
vn -0.5773 0.5774 0.5773
vn -0.5773 -0.5774 -0.5773
vn -0.5773 0.5774 -0.5773
vn 0.5773 0.5774 0.5773
vn 0.5773 0.5774 -0.5773
vt 0.837500 0.357143
vt 0.800000 0.381886
vt 0.800000 0.332399
vt 0.087500 0.357143
vt 0.050000 0.381886
vt 0.050000 0.332399
vt 0.212500 0.500000
vt 0.175000 0.524744
vt 0.175000 0.475256
vt 0.462500 0.071429
vt 0.425000 0.096172
vt 0.425000 0.046685
vt 0.462500 0.500000
vt 0.425000 0.524744
vt 0.425000 0.475256
s 0
usemtl Palette
f 1/1/1 2/2/1 3/3/1
f 4/1/2 5/2/2 6/3/2
f 7/1/3 8/2/3 9/3/3
f 10/1/4 11/2/4 12/3/4
f 13/1/5 14/2/5 15/3/5
f 16/1/6 17/2/6 18/3/6
f 19/1/7 20/2/7 21/3/7
f 22/1/8 23/2/8 24/3/8
f 1/1/9 8/2/9 7/3/9
f 4/1/10 3/2/10 2/3/10
f 10/1/11 6/2/11 5/3/11
f 9/1/12 12/2/12 11/3/12
f 7/1/13 20/2/13 19/3/13
f 22/1/14 11/2/14 10/3/14
f 21/1/15 24/2/15 23/3/15
f 19/1/16 14/2/16 13/3/16
f 16/1/17 23/2/17 22/3/17
f 15/1/18 18/2/18 17/3/18
f 13/1/19 2/2/19 1/3/19
f 5/1/20 17/2/20 16/3/20
f 19/1/21 1/2/21 7/3/21
f 6/1/22 8/2/22 3/3/22
f 17/1/23 2/2/23 15/3/23
f 10/1/24 16/2/24 22/3/24
f 11/1/25 20/2/25 9/3/25
f 23/1/26 14/2/26 21/3/26
f 25/4/27 26/5/27 27/6/27
f 28/4/28 29/5/28 30/6/28
f 31/4/29 32/5/29 33/6/29
f 34/4/30 35/5/30 36/6/30
f 37/4/31 38/5/31 39/6/31
f 40/4/32 41/5/32 42/6/32
f 43/4/33 44/5/33 45/6/33
f 46/4/34 47/5/34 48/6/34
f 25/4/9 32/5/9 31/6/9
f 28/4/10 27/5/10 26/6/10
f 34/4/11 30/5/11 29/6/11
f 33/4/12 36/5/12 35/6/12
f 31/4/13 44/5/13 43/6/13
f 46/4/14 35/5/14 34/6/14
f 45/4/15 48/5/15 47/6/15
f 43/4/16 38/5/16 37/6/16
f 40/4/17 47/5/17 46/6/17
f 39/4/18 42/5/18 41/6/18
f 37/4/19 26/5/19 25/6/19
f 29/4/20 41/5/20 40/6/20
f 43/4/21 25/5/21 31/6/21
f 30/4/22 32/5/22 27/6/22
f 41/4/23 26/5/23 39/6/23
f 34/4/24 40/5/24 46/6/24
f 35/4/25 44/5/25 33/6/25
f 47/4/26 38/5/26 45/6/26
f 49/1/35 50/2/35 51/3/35
f 52/1/36 53/2/36 54/3/36
f 55/1/37 56/2/37 57/3/37
f 58/1/38 59/2/38 60/3/38
f 61/1/39 62/2/39 63/3/39
f 64/1/40 65/2/40 66/3/40
f 67/1/41 68/2/41 69/3/41
f 70/1/42 71/2/42 72/3/42
f 49/1/9 56/2/9 55/3/9
f 52/1/10 51/2/10 50/3/10
f 58/1/11 54/2/11 53/3/11
f 57/1/12 60/2/12 59/3/12
f 55/1/13 68/2/13 67/3/13
f 70/1/14 59/2/14 58/3/14
f 69/1/15 72/2/15 71/3/15
f 67/1/16 62/2/16 61/3/16
f 64/1/17 71/2/17 70/3/17
f 63/1/18 66/2/18 65/3/18
f 61/1/19 50/2/19 49/3/19
f 53/1/20 65/2/20 64/3/20
f 67/1/21 49/2/21 55/3/21
f 54/1/22 56/2/22 51/3/22
f 65/1/23 50/2/23 63/3/23
f 58/1/24 64/2/24 70/3/24
f 59/1/25 68/2/25 57/3/25
f 71/1/26 62/2/26 69/3/26
f 74/1/11 75/2/11 73/3/11
f 76/1/25 79/2/25 75/3/25
f 80/1/16 77/2/16 79/3/16
f 78/1/23 73/2/23 77/3/23
f 79/1/9 73/2/9 75/3/9
f 76/1/17 78/2/17 80/3/17
f 82/7/43 83/8/43 81/9/43
f 84/7/26 85/8/26 83/9/26
f 86/7/44 87/8/44 85/9/44
f 88/7/45 89/8/45 87/9/45
f 88/7/24 86/8/24 82/9/24
f 90/7/22 91/8/22 89/9/22
f 92/7/46 81/8/46 91/9/46
f 87/7/21 89/8/21 91/9/21
f 94/10/22 95/11/22 93/12/22
f 96/10/25 99/11/25 95/12/25
f 100/10/26 97/11/26 99/12/26
f 98/10/23 93/11/23 97/12/23
f 99/10/21 93/11/21 95/12/21
f 96/10/24 98/11/24 100/12/24
f 102/10/22 103/11/22 101/12/22
f 104/10/25 107/11/25 103/12/25
f 108/10/26 105/11/26 107/12/26
f 106/10/23 101/11/23 105/12/23
f 107/10/21 101/11/21 103/12/21
f 104/10/24 106/11/24 108/12/24
f 110/10/22 111/11/22 109/12/22
f 112/10/25 115/11/25 111/12/25
f 116/10/26 113/11/26 115/12/26
f 114/10/23 109/11/23 113/12/23
f 115/10/21 109/11/21 111/12/21
f 112/10/24 114/11/24 116/12/24
f 118/10/22 119/11/22 117/12/22
f 120/10/25 123/11/25 119/12/25
f 124/10/26 121/11/26 123/12/26
f 122/10/23 117/11/23 121/12/23
f 123/10/21 117/11/21 119/12/21
f 120/10/24 122/11/24 124/12/24
f 126/10/22 127/11/22 125/12/22
f 128/10/25 131/11/25 127/12/25
f 132/10/26 129/11/26 131/12/26
f 130/10/23 125/11/23 129/12/23
f 131/10/21 125/11/21 127/12/21
f 128/10/24 130/11/24 132/12/24
f 133/10/47 137/11/47 134/12/47
f 134/10/48 137/11/48 135/12/48
f 134/10/21 136/11/21 133/12/21
f 135/10/49 137/11/49 136/12/49
f 136/10/50 137/11/50 133/12/50
f 138/13/51 142/14/51 139/15/51
f 139/13/52 142/14/52 140/15/52
f 139/13/21 141/14/21 138/15/21
f 140/13/53 142/14/53 141/15/53
f 141/13/54 142/14/54 138/15/54
f 143/13/55 144/14/55 145/15/55
f 146/13/56 147/14/56 148/15/56
f 149/13/57 150/14/57 151/15/57
f 152/13/58 153/14/58 154/15/58
f 155/13/59 156/14/59 157/15/59
f 158/13/60 159/14/60 160/15/60
f 161/13/61 162/14/61 163/15/61
f 164/13/62 165/14/62 166/15/62
f 143/13/9 150/14/9 149/15/9
f 146/13/10 145/14/10 144/15/10
f 152/13/11 148/14/11 147/15/11
f 151/13/12 154/14/12 153/15/12
f 149/13/13 162/14/13 161/15/13
f 164/13/14 153/14/14 152/15/14
f 163/13/15 166/14/15 165/15/15
f 161/13/16 156/14/16 155/15/16
f 158/13/17 165/14/17 164/15/17
f 157/13/18 160/14/18 159/15/18
f 155/13/19 144/14/19 143/15/19
f 147/13/20 159/14/20 158/15/20
f 161/13/21 143/14/21 149/15/21
f 148/13/22 150/14/22 145/15/22
f 159/13/23 144/14/23 157/15/23
f 152/13/24 158/14/24 164/15/24
f 153/13/25 162/14/25 151/15/25
f 165/13/26 156/14/26 163/15/26
f 167/13/63 168/14/63 169/15/63
f 170/13/64 171/14/64 172/15/64
f 173/13/65 174/14/65 175/15/65
f 176/13/66 177/14/66 178/15/66
f 179/13/5 180/14/5 181/15/5
f 182/13/67 183/14/67 184/15/67
f 185/13/7 186/14/7 187/15/7
f 188/13/68 189/14/68 190/15/68
f 167/13/9 174/14/9 173/15/9
f 170/13/10 169/14/10 168/15/10
f 176/13/11 172/14/11 171/15/11
f 175/13/12 178/14/12 177/15/12
f 173/13/13 186/14/13 185/15/13
f 188/13/14 177/14/14 176/15/14
f 187/13/15 190/14/15 189/15/15
f 185/13/16 180/14/16 179/15/16
f 182/13/17 189/14/17 188/15/17
f 181/13/18 184/14/18 183/15/18
f 179/13/19 168/14/19 167/15/19
f 171/13/20 183/14/20 182/15/20
f 185/13/21 167/14/21 173/15/21
f 172/13/22 174/14/22 169/15/22
f 183/13/23 168/14/23 181/15/23
f 176/13/24 182/14/24 188/15/24
f 177/13/25 186/14/25 175/15/25
f 189/13/26 180/14/26 187/15/26
f 1/1/9 3/2/9 8/3/9
f 4/1/10 6/2/10 3/3/10
f 10/1/11 12/2/11 6/3/11
f 9/1/12 8/2/12 12/3/12
f 7/1/13 9/2/13 20/3/13
f 22/1/14 24/2/14 11/3/14
f 21/1/15 20/2/15 24/3/15
f 19/1/16 21/2/16 14/3/16
f 16/1/17 18/2/17 23/3/17
f 15/1/18 14/2/18 18/3/18
f 13/1/19 15/2/19 2/3/19
f 5/1/20 4/2/20 17/3/20
f 19/1/21 13/2/21 1/3/21
f 6/1/22 12/2/22 8/3/22
f 17/1/23 4/2/23 2/3/23
f 10/1/24 5/2/24 16/3/24
f 11/1/25 24/2/25 20/3/25
f 23/1/26 18/2/26 14/3/26
f 25/4/9 27/5/9 32/6/9
f 28/4/10 30/5/10 27/6/10
f 34/4/11 36/5/11 30/6/11
f 33/4/12 32/5/12 36/6/12
f 31/4/13 33/5/13 44/6/13
f 46/4/14 48/5/14 35/6/14
f 45/4/15 44/5/15 48/6/15
f 43/4/16 45/5/16 38/6/16
f 40/4/17 42/5/17 47/6/17
f 39/4/18 38/5/18 42/6/18
f 37/4/19 39/5/19 26/6/19
f 29/4/20 28/5/20 41/6/20
f 43/4/21 37/5/21 25/6/21
f 30/4/22 36/5/22 32/6/22
f 41/4/23 28/5/23 26/6/23
f 34/4/24 29/5/24 40/6/24
f 35/4/25 48/5/25 44/6/25
f 47/4/26 42/5/26 38/6/26
f 49/1/9 51/2/9 56/3/9
f 52/1/10 54/2/10 51/3/10
f 58/1/11 60/2/11 54/3/11
f 57/1/12 56/2/12 60/3/12
f 55/1/13 57/2/13 68/3/13
f 70/1/14 72/2/14 59/3/14
f 69/1/15 68/2/15 72/3/15
f 67/1/16 69/2/16 62/3/16
f 64/1/17 66/2/17 71/3/17
f 63/1/18 62/2/18 66/3/18
f 61/1/19 63/2/19 50/3/19
f 53/1/20 52/2/20 65/3/20
f 67/1/21 61/2/21 49/3/21
f 54/1/22 60/2/22 56/3/22
f 65/1/23 52/2/23 50/3/23
f 58/1/24 53/2/24 64/3/24
f 59/1/25 72/2/25 68/3/25
f 71/1/26 66/2/26 62/3/26
f 74/1/11 76/2/11 75/3/11
f 76/1/25 80/2/25 79/3/25
f 80/1/16 78/2/16 77/3/16
f 78/1/23 74/2/23 73/3/23
f 79/1/9 77/2/9 73/3/9
f 76/1/17 74/2/17 78/3/17
f 82/7/43 84/8/43 83/9/43
f 84/7/26 86/8/26 85/9/26
f 86/7/44 88/8/44 87/9/44
f 88/7/45 90/8/45 89/9/45
f 86/7/24 84/8/24 82/9/24
f 82/7/24 92/8/24 90/9/24
f 90/7/24 88/8/24 82/9/24
f 90/7/22 92/8/22 91/9/22
f 92/7/46 82/8/46 81/9/46
f 91/7/21 81/8/21 87/9/21
f 81/7/21 83/8/21 87/9/21
f 83/7/21 85/8/21 87/9/21
f 94/10/22 96/11/22 95/12/22
f 96/10/25 100/11/25 99/12/25
f 100/10/26 98/11/26 97/12/26
f 98/10/23 94/11/23 93/12/23
f 99/10/21 97/11/21 93/12/21
f 96/10/24 94/11/24 98/12/24
f 102/10/22 104/11/22 103/12/22
f 104/10/25 108/11/25 107/12/25
f 108/10/26 106/11/26 105/12/26
f 106/10/23 102/11/23 101/12/23
f 107/10/21 105/11/21 101/12/21
f 104/10/24 102/11/24 106/12/24
f 110/10/22 112/11/22 111/12/22
f 112/10/25 116/11/25 115/12/25
f 116/10/26 114/11/26 113/12/26
f 114/10/23 110/11/23 109/12/23
f 115/10/21 113/11/21 109/12/21
f 112/10/24 110/11/24 114/12/24
f 118/10/22 120/11/22 119/12/22
f 120/10/25 124/11/25 123/12/25
f 124/10/26 122/11/26 121/12/26
f 122/10/23 118/11/23 117/12/23
f 123/10/21 121/11/21 117/12/21
f 120/10/24 118/11/24 122/12/24
f 126/10/22 128/11/22 127/12/22
f 128/10/25 132/11/25 131/12/25
f 132/10/26 130/11/26 129/12/26
f 130/10/23 126/11/23 125/12/23
f 131/10/21 129/11/21 125/12/21
f 128/10/24 126/11/24 130/12/24
f 134/10/21 135/11/21 136/12/21
f 139/13/21 140/14/21 141/15/21
f 143/13/9 145/14/9 150/15/9
f 146/13/10 148/14/10 145/15/10
f 152/13/11 154/14/11 148/15/11
f 151/13/12 150/14/12 154/15/12
f 149/13/13 151/14/13 162/15/13
f 164/13/14 166/14/14 153/15/14
f 163/13/15 162/14/15 166/15/15
f 161/13/16 163/14/16 156/15/16
f 158/13/17 160/14/17 165/15/17
f 157/13/18 156/14/18 160/15/18
f 155/13/19 157/14/19 144/15/19
f 147/13/20 146/14/20 159/15/20
f 161/13/21 155/14/21 143/15/21
f 148/13/22 154/14/22 150/15/22
f 159/13/23 146/14/23 144/15/23
f 152/13/24 147/14/24 158/15/24
f 153/13/25 166/14/25 162/15/25
f 165/13/26 160/14/26 156/15/26
f 167/13/9 169/14/9 174/15/9
f 170/13/10 172/14/10 169/15/10
f 176/13/11 178/14/11 172/15/11
f 175/13/12 174/14/12 178/15/12
f 173/13/13 175/14/13 186/15/13
f 188/13/14 190/14/14 177/15/14
f 187/13/15 186/14/15 190/15/15
f 185/13/16 187/14/16 180/15/16
f 182/13/17 184/14/17 189/15/17
f 181/13/18 180/14/18 184/15/18
f 179/13/19 181/14/19 168/15/19
f 171/13/20 170/14/20 183/15/20
f 185/13/21 179/14/21 167/15/21
f 172/13/22 178/14/22 174/15/22
f 183/13/23 170/14/23 168/15/23
f 176/13/24 171/14/24 182/15/24
f 177/13/25 190/14/25 186/15/25
f 189/13/26 184/14/26 180/15/26
o lamp_post_Neon_window_glow
v 0.806655 7.500000 0.310000
v 0.806655 8.400000 0.310000
v 0.806655 7.500000 -0.310000
v 0.806655 8.400000 -0.310000
v 1.426655 7.500000 0.310000
v 1.426655 8.400000 0.310000
v 1.426655 7.500000 -0.310000
v 1.426655 8.400000 -0.310000
vn -1.0000 -0.0000 -0.0000
vn -0.0000 -0.0000 -1.0000
vn 1.0000 -0.0000 -0.0000
vn -0.0000 -0.0000 1.0000
vn -0.0000 -1.0000 -0.0000
vn -0.0000 1.0000 -0.0000
vt 0.212500 0.214286
vt 0.175000 0.239029
vt 0.175000 0.189542
s 0
usemtl Palette
f 192/16/69 193/17/69 191/18/69
f 194/16/70 197/17/70 193/18/70
f 198/16/71 195/17/71 197/18/71
f 196/16/72 191/17/72 195/18/72
f 197/16/73 191/17/73 193/18/73
f 194/16/74 196/17/74 198/18/74
f 192/16/69 194/17/69 193/18/69
f 194/16/70 198/17/70 197/18/70
f 198/16/71 196/17/71 195/18/71
f 196/16/72 192/17/72 191/18/72
f 197/16/73 195/17/73 191/18/73
f 194/16/74 192/17/74 196/18/74
