# Blender 5.0.1
# www.blender.org
mtllib rail_flat.mtl
o rail_flat
v -8.000000 2.400000 -0.280000
v 8.000000 2.400000 -0.280000
v -8.000000 2.260000 -0.242487
v 8.000000 2.260000 -0.242487
v -8.000000 2.157513 -0.140000
v 8.000000 2.157513 -0.140000
v -8.000000 2.120000 0.000000
v 8.000000 2.120000 0.000000
v -8.000000 2.157513 0.140000
v 8.000000 2.157513 0.140000
v -8.000000 2.260000 0.242487
v 8.000000 2.260000 0.242487
v -8.000000 2.400000 0.280000
v 8.000000 2.400000 0.280000
v -8.000000 2.540000 0.242487
v 8.000000 2.540000 0.242487
v -8.000000 2.642487 0.140000
v 8.000000 2.642488 0.140000
v -8.000000 2.680000 0.000000
v 8.000000 2.680000 0.000000
v -8.000000 2.642487 -0.140000
v 8.000000 2.642488 -0.140000
v -8.000000 2.540000 -0.242487
v 8.000000 2.540000 -0.242487
v -6.000000 0.000000 -0.180000
v -6.000000 2.400000 -0.180000
v -5.872721 0.000000 -0.127279
v -5.872721 2.400000 -0.127279
v -5.820000 0.000000 0.000000
v -5.820000 2.400000 0.000000
v -5.872721 0.000000 0.127279
v -5.872721 2.400000 0.127279
v -6.000000 0.000000 0.180000
v -6.000000 2.400000 0.180000
v -6.127279 0.000000 0.127279
v -6.127279 2.400000 0.127279
v -6.180000 0.000000 0.000000
v -6.180000 2.400000 0.000000
v -6.127279 0.000000 -0.127279
v -6.127279 2.400000 -0.127279
v -6.620000 0.000000 0.620000
v -6.620000 0.080000 0.700000
v -6.700000 0.080000 0.620000
v -6.620000 0.220000 0.700000
v -6.620000 0.300000 0.620000
v -6.700000 0.220000 0.620000
v -6.620000 0.000000 -0.620000
v -6.700000 0.080000 -0.620000
v -6.620000 0.080000 -0.700000
v -6.620000 0.300000 -0.620000
v -6.620000 0.220000 -0.700000
v -6.700000 0.220000 -0.620000
v -5.380000 0.000000 0.620000
v -5.300000 0.080000 0.620000
v -5.380000 0.080000 0.700000
v -5.380000 0.300000 0.620000
v -5.380000 0.220000 0.700000
v -5.300000 0.220000 0.620000
v -5.380000 0.000000 -0.620000
v -5.380000 0.080000 -0.700000
v -5.300000 0.080000 -0.620000
v -5.380000 0.300000 -0.620000
v -5.300000 0.220000 -0.620000
v -5.380000 0.220000 -0.700000
v 6.000000 0.000000 -0.180000
v 6.000000 2.400000 -0.180000
v 6.127279 0.000000 -0.127279
v 6.127279 2.400000 -0.127279
v 6.180000 0.000000 0.000000
v 6.180000 2.400000 0.000000
v 6.127279 0.000000 0.127279
v 6.127279 2.400000 0.127279
v 6.000000 0.000000 0.180000
v 6.000000 2.400000 0.180000
v 5.872721 0.000000 0.127279
v 5.872721 2.400000 0.127279
v 5.820000 0.000000 0.000000
v 5.820000 2.400000 0.000000
v 5.872721 0.000000 -0.127279
v 5.872721 2.400000 -0.127279
v 5.380000 0.000000 0.620000
v 5.380000 0.080000 0.700000
v 5.300000 0.080000 0.620000
v 5.380000 0.220000 0.700000
v 5.380000 0.300000 0.620000
v 5.300000 0.220000 0.620000
v 5.380000 0.000000 -0.620000
v 5.300000 0.080000 -0.620000
v 5.380000 0.080000 -0.700000
v 5.380000 0.300000 -0.620000
v 5.380000 0.220000 -0.700000
v 5.300000 0.220000 -0.620000
v 6.620000 0.000000 0.620000
v 6.700000 0.080000 0.620000
v 6.620000 0.080000 0.700000
v 6.620000 0.300000 0.620000
v 6.620000 0.220000 0.700000
v 6.700000 0.220000 0.620000
v 6.620000 0.000000 -0.620000
v 6.620000 0.080000 -0.700000
v 6.700000 0.080000 -0.620000
v 6.620000 0.300000 -0.620000
v 6.700000 0.220000 -0.620000
v 6.620000 0.220000 -0.700000
v -8.000000 2.106000 0.000000
v -7.787260 2.268517 0.154563
v -8.081258 2.268517 0.250091
v -8.262961 2.268519 0.000000
v -8.081258 2.268517 -0.250091
v -7.787260 2.268517 -0.154563
v -7.918742 2.531483 0.250091
v -8.212741 2.531483 0.154563
v -8.212741 2.531483 -0.154563
v -7.918742 2.531483 -0.250091
v -7.737039 2.531482 0.000000
v -8.000000 2.694000 0.000000
v -8.047762 2.149908 0.146999
v -7.874955 2.149908 0.090849
v -7.922717 2.245433 0.237849
v -7.749909 2.245434 0.000000
v -7.874955 2.149908 -0.090849
v -8.154565 2.149909 0.000000
v -8.202328 2.245434 0.146999
v -8.047762 2.149908 -0.146999
v -8.202328 2.245434 -0.146999
v -7.922717 2.245433 -0.237849
v -7.720389 2.400000 0.090850
v -7.720389 2.400000 -0.090850
v -8.000000 2.400000 0.294000
v -7.827191 2.400000 0.237851
v -8.279611 2.400000 0.090850
v -8.172809 2.400000 0.237851
v -8.172809 2.400000 -0.237851
v -8.279611 2.400000 -0.090850
v -7.827191 2.400000 -0.237851
v -8.000000 2.400000 -0.294000
v -7.797672 2.554567 0.146999
v -8.077284 2.554567 0.237849
v -8.250091 2.554566 0.000000
v -8.077284 2.554567 -0.237849
v -7.797672 2.554567 -0.146999
v -7.952238 2.650093 0.146999
v -7.845436 2.650092 0.000000
v -8.125045 2.650092 0.090849
v -8.125045 2.650092 -0.090849
v -7.952238 2.650093 -0.146999
v 8.000000 2.106000 0.000000
v 8.212741 2.268517 0.154563
v 7.918742 2.268517 0.250091
v 7.737039 2.268519 0.000000
v 7.918742 2.268517 -0.250091
v 8.212741 2.268517 -0.154563
v 8.081258 2.531483 0.250091
v 7.787260 2.531483 0.154563
v 7.787260 2.531483 -0.154563
v 8.081258 2.531483 -0.250091
v 8.262961 2.531482 0.000000
v 8.000000 2.694000 0.000000
v 7.952238 2.149908 0.146999
v 8.125045 2.149908 0.090849
v 8.077284 2.245433 0.237849
v 8.250091 2.245434 0.000000
v 8.125045 2.149908 -0.090849
v 7.845436 2.149909 0.000000
v 7.797672 2.245434 0.146999
v 7.952238 2.149908 -0.146999
v 7.797672 2.245434 -0.146999
v 8.077284 2.245433 -0.237849
v 8.279611 2.400000 0.090850
v 8.279611 2.400000 -0.090850
v 8.000000 2.400000 0.294000
v 8.172809 2.400000 0.237851
v 7.720389 2.400000 0.090850
v 7.827191 2.400000 0.237851
v 7.827191 2.400000 -0.237851
v 7.720389 2.400000 -0.090850
v 8.172809 2.400000 -0.237851
v 8.000000 2.400000 -0.294000
v 8.202328 2.554567 0.146999
v 7.922717 2.554567 0.237849
v 7.749909 2.554566 0.000000
v 7.922717 2.554567 -0.237849
v 8.202328 2.554567 -0.146999
v 8.047762 2.650093 0.146999
v 8.154565 2.650092 0.000000
v 7.874955 2.650092 0.090849
v 7.874955 2.650092 -0.090849
v 8.047762 2.650093 -0.146999
vn -0.0000 -0.2588 -0.9659
vn -0.0000 -0.7071 -0.7071
vn -0.0000 -0.9659 -0.2588
vn -0.0000 -0.9659 0.2588
vn -0.0000 -0.7071 0.7071
vn -0.0000 -0.2588 0.9659
vn -0.0000 0.2588 0.9659
vn -0.0000 0.7071 0.7071
vn -0.0000 0.9659 0.2588
vn -0.0000 0.9659 -0.2588
vn 1.0000 -0.0000 -0.0000
vn -0.0000 0.7071 -0.7071
vn -0.0000 0.2588 -0.9659
vn -1.0000 -0.0000 -0.0000
vn 0.3827 -0.0000 -0.9239
vn 0.9239 -0.0000 -0.3827
vn 0.9239 -0.0000 0.3827
vn 0.3827 -0.0000 0.9239
vn -0.3827 -0.0000 0.9239
vn -0.9239 -0.0000 0.3827
vn -0.0000 1.0000 -0.0000
vn -0.9239 -0.0000 -0.3827
vn -0.3827 -0.0000 -0.9239
vn -0.0000 -1.0000 -0.0000
vn -0.5773 -0.5773 0.5774
vn -0.5773 0.5773 0.5774
vn -0.5773 -0.5773 -0.5774
vn -0.5773 0.5773 -0.5774
vn 0.5774 -0.5773 0.5773
vn 0.5774 0.5773 0.5773
vn 0.5774 -0.5773 -0.5773
vn 0.5774 0.5773 -0.5773
vn -0.7071 -0.7071 -0.0000
vn -0.7071 -0.0000 0.7071
vn -0.7071 0.7071 -0.0000
vn -0.7071 -0.0000 -0.7071
vn 0.7071 -0.0000 -0.7071
vn 0.7071 -0.7071 -0.0000
vn 0.7071 0.7071 -0.0000
vn 0.7071 -0.0000 0.7071
vn -0.0000 -0.0000 1.0000
vn -0.0000 -0.0000 -1.0000
vn -0.5774 -0.5773 0.5773
vn -0.5774 0.5773 0.5773
vn -0.5774 -0.5773 -0.5773
vn -0.5774 0.5773 -0.5773
vn 0.5773 -0.5773 0.5774
vn 0.5773 0.5773 0.5774
vn 0.5773 -0.5773 -0.5774
vn 0.5773 0.5773 -0.5774
vn 0.1024 -0.9435 0.3151
vn 0.7002 -0.6617 0.2680
vn -0.2680 -0.9435 0.1947
vn -0.2680 -0.9435 -0.1947
vn 0.1024 -0.9435 -0.3151
vn 0.9050 -0.3304 0.2680
vn 0.0247 -0.3304 0.9435
vn -0.8897 -0.3304 0.3151
vn -0.5746 -0.3304 -0.7488
vn 0.5346 -0.3304 -0.7779
vn 0.8026 -0.1256 0.5831
vn -0.3066 -0.1256 0.9435
vn -0.9921 -0.1256 -0.0000
vn -0.3066 -0.1256 -0.9435
vn 0.8026 -0.1256 -0.5831
vn 0.4089 0.6617 0.6284
vn -0.4713 0.6617 0.5831
vn -0.7002 0.6617 -0.2680
vn 0.0385 0.6617 -0.7488
vn 0.7240 0.6617 -0.1947
vn 0.2680 0.9435 -0.1947
vn 0.4911 0.7947 -0.3568
vn 0.4089 0.6617 -0.6284
vn -0.1024 0.9435 -0.3151
vn -0.1876 0.7947 -0.5773
vn -0.4713 0.6617 -0.5831
vn -0.3313 0.9435 -0.0000
vn -0.6071 0.7947 -0.0000
vn -0.7002 0.6617 0.2680
vn -0.1024 0.9435 0.3151
vn -0.1876 0.7947 0.5773
vn 0.0385 0.6617 0.7488
vn 0.2680 0.9435 0.1947
vn 0.4911 0.7947 0.3568
vn 0.7240 0.6617 0.1947
vn 0.8897 0.3304 -0.3151
vn 0.7947 0.1876 -0.5773
vn 0.5746 0.3304 -0.7488
vn -0.0247 0.3304 -0.9435
vn -0.3035 0.1876 -0.9342
vn -0.5346 0.3304 -0.7779
vn -0.9050 0.3304 -0.2680
vn -0.9822 0.1876 -0.0000
vn -0.9050 0.3304 0.2680
vn -0.5346 0.3304 0.7779
vn -0.3035 0.1876 0.9342
vn -0.0247 0.3304 0.9435
vn 0.5746 0.3304 0.7488
vn 0.7947 0.1876 0.5773
vn 0.8897 0.3304 0.3151
vn 0.3066 0.1256 -0.9435
vn 0.3035 -0.1876 -0.9342
vn 0.0247 -0.3304 -0.9435
vn -0.8026 0.1256 -0.5831
vn -0.7947 -0.1876 -0.5773
vn -0.8897 -0.3304 -0.3151
vn -0.8026 0.1256 0.5831
vn -0.7947 -0.1876 0.5773
vn -0.5746 -0.3304 0.7488
vn 0.3066 0.1256 0.9435
vn 0.3035 -0.1876 0.9342
vn 0.5346 -0.3304 0.7779
vn 0.9921 0.1256 -0.0000
vn 0.9822 -0.1876 -0.0000
vn 0.9050 -0.3304 -0.2680
vn 0.4713 -0.6617 -0.5831
vn 0.1876 -0.7947 -0.5773
vn -0.0385 -0.6617 -0.7488
vn -0.4089 -0.6617 -0.6284
vn -0.4911 -0.7947 -0.3568
vn -0.7240 -0.6617 -0.1947
vn -0.7240 -0.6617 0.1947
vn -0.4911 -0.7947 0.3568
vn -0.4089 -0.6617 0.6284
vn 0.7002 -0.6617 -0.2680
vn 0.6071 -0.7947 -0.0000
vn 0.3313 -0.9435 -0.0000
vn -0.0385 -0.6617 0.7488
vn 0.1876 -0.7947 0.5773
vn 0.4713 -0.6617 0.5831
vt 0.087500 0.500000
vt 0.050000 0.524744
vt 0.050000 0.475256
vt 0.712500 0.071429
vt 0.675000 0.096172
vt 0.675000 0.046685
vt 0.212500 0.500000
vt 0.175000 0.524744
vt 0.175000 0.475256
s 0
usemtl Palette
f 2/1/1 3/2/1 1/3/1
f 4/1/2 5/2/2 3/3/2
f 6/1/3 7/2/3 5/3/3
f 8/1/4 9/2/4 7/3/4
f 10/1/5 11/2/5 9/3/5
f 12/1/6 13/2/6 11/3/6
f 14/1/7 15/2/7 13/3/7
f 16/1/8 17/2/8 15/3/8
f 18/1/9 19/2/9 17/3/9
f 20/1/10 21/2/10 19/3/10
f 22/1/11 14/2/11 6/3/11
f 22/1/12 23/2/12 21/3/12
f 24/1/13 1/2/13 23/3/13
f 7/1/14 15/2/14 23/3/14
f 26/4/15 27/5/15 25/6/15
f 28/4/16 29/5/16 27/6/16
f 30/4/17 31/5/17 29/6/17
f 32/4/18 33/5/18 31/6/18
f 34/4/19 35/5/19 33/6/19
f 36/4/20 37/5/20 35/6/20
f 38/4/21 34/5/21 30/6/21
f 38/4/22 39/5/22 37/6/22
f 40/4/23 25/5/23 39/6/23
f 37/4/24 39/5/24 31/6/24
f 41/7/25 42/8/25 43/9/25
f 44/7/26 45/8/26 46/9/26
f 47/7/27 48/8/27 49/9/27
f 50/7/28 51/8/28 52/9/28
f 53/7/29 54/8/29 55/9/29
f 56/7/30 57/8/30 58/9/30
f 59/7/31 60/8/31 61/9/31
f 62/7/32 63/8/32 64/9/32
f 41/7/33 48/8/33 47/9/33
f 44/7/34 43/8/34 42/9/34
f 50/7/35 46/8/35 45/9/35
f 49/7/36 52/8/36 51/9/36
f 47/7/2 60/8/2 59/9/2
f 62/7/12 51/8/12 50/9/12
f 61/7/37 64/8/37 63/9/37
f 59/7/38 54/8/38 53/9/38
f 56/7/39 63/8/39 62/9/39
f 55/7/40 58/8/40 57/9/40
f 53/7/5 42/8/5 41/9/5
f 45/7/8 57/8/8 56/9/8
f 59/7/24 41/8/24 47/9/24
f 46/7/14 48/8/14 43/9/14
f 57/7/41 42/8/41 55/9/41
f 50/7/21 56/8/21 62/9/21
f 51/7/42 60/8/42 49/9/42
f 63/7/11 54/8/11 61/9/11
f 66/4/15 67/5/15 65/6/15
f 68/4/16 69/5/16 67/6/16
f 70/4/17 71/5/17 69/6/17
f 72/4/18 73/5/18 71/6/18
f 74/4/19 75/5/19 73/6/19
f 76/4/20 77/5/20 75/6/20
f 78/4/21 74/5/21 70/6/21
f 78/4/22 79/5/22 77/6/22
f 80/4/23 65/5/23 79/6/23
f 77/4/24 79/5/24 71/6/24
f 81/7/43 82/8/43 83/9/43
f 84/7/44 85/8/44 86/9/44
f 87/7/45 88/8/45 89/9/45
f 90/7/46 91/8/46 92/9/46
f 93/7/47 94/8/47 95/9/47
f 96/7/48 97/8/48 98/9/48
f 99/7/49 100/8/49 101/9/49
f 102/7/50 103/8/50 104/9/50
f 81/7/33 88/8/33 87/9/33
f 84/7/34 83/8/34 82/9/34
f 90/7/35 86/8/35 85/9/35
f 89/7/36 92/8/36 91/9/36
f 87/7/2 100/8/2 99/9/2
f 102/7/12 91/8/12 90/9/12
f 101/7/37 104/8/37 103/9/37
f 99/7/38 94/8/38 93/9/38
f 96/7/39 103/8/39 102/9/39
f 95/7/40 98/8/40 97/9/40
f 93/7/5 82/8/5 81/9/5
f 85/7/8 97/8/8 96/9/8
f 99/7/24 81/8/24 87/9/24
f 86/7/14 88/8/14 83/9/14
f 97/7/41 82/8/41 95/9/41
f 90/7/21 96/8/21 102/9/21
f 91/7/42 100/8/42 89/9/42
f 103/7/11 94/8/11 101/9/11
f 105/7/51 118/8/51 117/9/51
f 106/7/52 118/8/52 120/9/52
f 105/7/53 117/8/53 122/9/53
f 105/7/54 122/8/54 124/9/54
f 105/7/55 124/8/55 121/9/55
f 106/7/56 120/8/56 127/9/56
f 107/7/57 119/8/57 129/9/57
f 108/7/58 123/8/58 131/9/58
f 109/7/59 125/8/59 133/9/59
f 110/7/60 126/8/60 135/9/60
f 106/7/61 127/8/61 130/9/61
f 107/7/62 129/8/62 132/9/62
f 108/7/63 131/8/63 134/9/63
f 109/7/64 133/8/64 136/9/64
f 110/7/65 135/8/65 128/9/65
f 111/7/66 137/8/66 142/9/66
f 112/7/67 138/8/67 144/9/67
f 113/7/68 139/8/68 145/9/68
f 114/7/69 140/8/69 146/9/69
f 115/7/70 141/8/70 143/9/70
f 143/7/71 146/8/71 116/9/71
f 143/7/72 141/8/72 146/9/72
f 141/7/73 114/8/73 146/9/73
f 146/7/74 145/8/74 116/9/74
f 146/7/75 140/8/75 145/9/75
f 140/7/76 113/8/76 145/9/76
f 145/7/77 144/8/77 116/9/77
f 145/7/78 139/8/78 144/9/78
f 139/7/79 112/8/79 144/9/79
f 144/7/80 142/8/80 116/9/80
f 144/7/81 138/8/81 142/9/81
f 138/7/82 111/8/82 142/9/82
f 142/7/83 143/8/83 116/9/83
f 142/7/84 137/8/84 143/9/84
f 137/7/85 115/8/85 143/9/85
f 128/7/86 141/8/86 115/9/86
f 128/7/87 135/8/87 141/9/87
f 135/7/88 114/8/88 141/9/88
f 136/7/89 140/8/89 114/9/89
f 136/7/90 133/8/90 140/9/90
f 133/7/91 113/8/91 140/9/91
f 134/7/92 139/8/92 113/9/92
f 134/7/93 131/8/93 139/9/93
f 131/7/94 112/8/94 139/9/94
f 132/7/95 138/8/95 112/9/95
f 132/7/96 129/8/96 138/9/96
f 129/7/97 111/8/97 138/9/97
f 130/7/98 137/8/98 111/9/98
f 130/7/99 127/8/99 137/9/99
f 127/7/100 115/8/100 137/9/100
f 135/7/101 136/8/101 114/9/101
f 135/7/102 126/8/102 136/9/102
f 126/7/103 109/8/103 136/9/103
f 133/7/104 134/8/104 113/9/104
f 133/7/105 125/8/105 134/9/105
f 125/7/106 108/8/106 134/9/106
f 131/7/107 132/8/107 112/9/107
f 131/7/108 123/8/108 132/9/108
f 123/7/109 107/8/109 132/9/109
f 129/7/110 130/8/110 111/9/110
f 129/7/111 119/8/111 130/9/111
f 119/7/112 106/8/112 130/9/112
f 127/7/113 128/8/113 115/9/113
f 127/7/114 120/8/114 128/9/114
f 120/7/115 110/8/115 128/9/115
f 121/7/116 126/8/116 110/9/116
f 121/7/117 124/8/117 126/9/117
f 124/7/118 109/8/118 126/9/118
f 124/7/119 125/8/119 109/9/119
f 124/7/120 122/8/120 125/9/120
f 122/7/121 108/8/121 125/9/121
f 122/7/122 123/8/122 108/9/122
f 122/7/123 117/8/123 123/9/123
f 117/7/124 107/8/124 123/9/124
f 120/7/125 121/8/125 110/9/125
f 120/7/126 118/8/126 121/9/126
f 118/7/127 105/8/127 121/9/127
f 117/7/128 119/8/128 107/9/128
f 117/7/129 118/8/129 119/9/129
f 118/7/130 106/8/130 119/9/130
f 147/7/51 160/8/51 159/9/51
f 148/7/52 160/8/52 162/9/52
f 147/7/53 159/8/53 164/9/53
f 147/7/54 164/8/54 166/9/54
f 147/7/55 166/8/55 163/9/55
f 148/7/56 162/8/56 169/9/56
f 149/7/57 161/8/57 171/9/57
f 150/7/58 165/8/58 173/9/58
f 151/7/59 167/8/59 175/9/59
f 152/7/60 168/8/60 177/9/60
f 148/7/61 169/8/61 172/9/61
f 149/7/62 171/8/62 174/9/62
f 150/7/63 173/8/63 176/9/63
f 151/7/64 175/8/64 178/9/64
f 152/7/65 177/8/65 170/9/65
f 153/7/66 179/8/66 184/9/66
f 154/7/67 180/8/67 186/9/67
f 155/7/68 181/8/68 187/9/68
f 156/7/69 182/8/69 188/9/69
f 157/7/70 183/8/70 185/9/70
f 185/7/71 188/8/71 158/9/71
f 185/7/72 183/8/72 188/9/72
f 183/7/73 156/8/73 188/9/73
f 188/7/74 187/8/74 158/9/74
f 188/7/75 182/8/75 187/9/75
f 182/7/76 155/8/76 187/9/76
f 187/7/77 186/8/77 158/9/77
f 187/7/78 181/8/78 186/9/78
f 181/7/79 154/8/79 186/9/79
f 186/7/80 184/8/80 158/9/80
f 186/7/81 180/8/81 184/9/81
f 180/7/82 153/8/82 184/9/82
f 184/7/83 185/8/83 158/9/83
f 184/7/84 179/8/84 185/9/84
f 179/7/85 157/8/85 185/9/85
f 170/7/86 183/8/86 157/9/86
f 170/7/87 177/8/87 183/9/87
f 177/7/88 156/8/88 183/9/88
f 178/7/89 182/8/89 156/9/89
f 178/7/90 175/8/90 182/9/90
f 175/7/91 155/8/91 182/9/91
f 176/7/92 181/8/92 155/9/92
f 176/7/93 173/8/93 181/9/93
f 173/7/94 154/8/94 181/9/94
f 174/7/95 180/8/95 154/9/95
f 174/7/96 171/8/96 180/9/96
f 171/7/97 153/8/97 180/9/97
f 172/7/98 179/8/98 153/9/98
f 172/7/99 169/8/99 179/9/99
f 169/7/100 157/8/100 179/9/100
f 177/7/101 178/8/101 156/9/101
f 177/7/102 168/8/102 178/9/102
f 168/7/103 151/8/103 178/9/103
f 175/7/104 176/8/104 155/9/104
f 175/7/105 167/8/105 176/9/105
f 167/7/106 150/8/106 176/9/106
f 173/7/107 174/8/107 154/9/107
f 173/7/108 165/8/108 174/9/108
f 165/7/109 149/8/109 174/9/109
f 171/7/110 172/8/110 153/9/110
f 171/7/111 161/8/111 172/9/111
f 161/7/112 148/8/112 172/9/112
f 169/7/113 170/8/113 157/9/113
f 169/7/114 162/8/114 170/9/114
f 162/7/115 152/8/115 170/9/115
f 163/7/116 168/8/116 152/9/116
f 163/7/117 166/8/117 168/9/117
f 166/7/118 151/8/118 168/9/118
f 166/7/119 167/8/119 151/9/119
f 166/7/120 164/8/120 167/9/120
f 164/7/121 150/8/121 167/9/121
f 164/7/122 165/8/122 150/9/122
f 164/7/123 159/8/123 165/9/123
f 159/7/124 149/8/124 165/9/124
f 162/7/125 163/8/125 152/9/125
f 162/7/126 160/8/126 163/9/126
f 160/7/127 147/8/127 163/9/127
f 159/7/128 161/8/128 149/9/128
f 159/7/129 160/8/129 161/9/129
f 160/7/130 148/8/130 161/9/130
f 2/1/1 4/2/1 3/3/1
f 4/1/2 6/2/2 5/3/2
f 6/1/3 8/2/3 7/3/3
f 8/1/4 10/2/4 9/3/4
f 10/1/5 12/2/5 11/3/5
f 12/1/6 14/2/6 13/3/6
f 14/1/7 16/2/7 15/3/7
f 16/1/8 18/2/8 17/3/8
f 18/1/9 20/2/9 19/3/9
f 20/1/10 22/2/10 21/3/10
f 6/1/11 4/2/11 22/3/11
f 4/1/11 2/2/11 22/3/11
f 2/1/11 24/2/11 22/3/11
f 22/1/11 20/2/11 14/3/11
f 20/1/11 18/2/11 14/3/11
f 18/1/11 16/2/11 14/3/11
f 14/1/11 12/2/11 6/3/11
f 12/1/11 10/2/11 6/3/11
f 10/1/11 8/2/11 6/3/11
f 22/1/12 24/2/12 23/3/12
f 24/1/13 2/2/13 1/3/13
f 23/1/14 1/2/14 3/3/14
f 3/1/14 5/2/14 7/3/14
f 7/1/14 9/2/14 11/3/14
f 11/1/14 13/2/14 7/3/14
f 13/1/14 15/2/14 7/3/14
f 15/1/14 17/2/14 19/3/14
f 19/1/14 21/2/14 23/3/14
f 23/1/14 3/2/14 7/3/14
f 15/1/14 19/2/14 23/3/14
f 26/4/15 28/5/15 27/6/15
f 28/4/16 30/5/16 29/6/16
f 30/4/17 32/5/17 31/6/17
f 32/4/18 34/5/18 33/6/18
f 34/4/19 36/5/19 35/6/19
f 36/4/20 38/5/20 37/6/20
f 30/4/21 28/5/21 26/6/21
f 26/4/21 40/5/21 38/6/21
f 38/4/21 36/5/21 34/6/21
f 34/4/21 32/5/21 30/6/21
f 30/4/21 26/5/21 38/6/21
f 38/4/22 40/5/22 39/6/22
f 40/4/23 26/5/23 25/6/23
f 39/4/24 25/5/24 27/6/24
f 27/4/24 29/5/24 39/6/24
f 29/4/24 31/5/24 39/6/24
f 31/4/24 33/5/24 35/6/24
f 35/4/24 37/5/24 31/6/24
f 41/7/33 43/8/33 48/9/33
f 44/7/34 46/8/34 43/9/34
f 50/7/35 52/8/35 46/9/35
f 49/7/36 48/8/36 52/9/36
f 47/7/2 49/8/2 60/9/2
f 62/7/12 64/8/12 51/9/12
f 61/7/37 60/8/37 64/9/37
f 59/7/38 61/8/38 54/9/38
f 56/7/39 58/8/39 63/9/39
f 55/7/40 54/8/40 58/9/40
f 53/7/5 55/8/5 42/9/5
f 45/7/8 44/8/8 57/9/8
f 59/7/24 53/8/24 41/9/24
f 46/7/14 52/8/14 48/9/14
f 57/7/41 44/8/41 42/9/41
f 50/7/21 45/8/21 56/9/21
f 51/7/42 64/8/42 60/9/42
f 63/7/11 58/8/11 54/9/11
f 66/4/15 68/5/15 67/6/15
f 68/4/16 70/5/16 69/6/16
f 70/4/17 72/5/17 71/6/17
f 72/4/18 74/5/18 73/6/18
f 74/4/19 76/5/19 75/6/19
f 76/4/20 78/5/20 77/6/20
f 70/4/21 68/5/21 66/6/21
f 66/4/21 80/5/21 78/6/21
f 78/4/21 76/5/21 74/6/21
f 74/4/21 72/5/21 70/6/21
f 70/4/21 66/5/21 78/6/21
f 78/4/22 80/5/22 79/6/22
f 80/4/23 66/5/23 65/6/23
f 79/4/24 65/5/24 67/6/24
f 67/4/24 69/5/24 79/6/24
f 69/4/24 71/5/24 79/6/24
f 71/4/24 73/5/24 75/6/24
f 75/4/24 77/5/24 71/6/24
f 81/7/33 83/8/33 88/9/33
f 84/7/34 86/8/34 83/9/34
f 90/7/35 92/8/35 86/9/35
f 89/7/36 88/8/36 92/9/36
f 87/7/2 89/8/2 100/9/2
f 102/7/12 104/8/12 91/9/12
f 101/7/37 100/8/37 104/9/37
f 99/7/38 101/8/38 94/9/38
f 96/7/39 98/8/39 103/9/39
f 95/7/40 94/8/40 98/9/40
f 93/7/5 95/8/5 82/9/5
f 85/7/8 84/8/8 97/9/8
f 99/7/24 93/8/24 81/9/24
f 86/7/14 92/8/14 88/9/14
f 97/7/41 84/8/41 82/9/41
f 90/7/21 85/8/21 96/9/21
f 91/7/42 104/8/42 100/9/42
f 103/7/11 98/8/11 94/9/11
