# Blender 5.0.1
# www.blender.org
mtllib sword.mtl
o sword
v -0.280000 1.520000 0.060000
v 0.280000 1.520000 0.060000
v 0.280000 4.820000 0.060000
v 0.000000 5.420000 0.060000
v -0.280000 4.820000 0.060000
v -0.280000 1.520000 -0.060000
v 0.280000 1.520000 -0.060000
v 0.280000 4.820000 -0.060000
v 0.000000 5.420000 -0.060000
v -0.280000 4.820000 -0.060000
v -0.060000 1.520000 0.090000
v 0.060000 1.520000 0.090000
v 0.060000 4.820000 0.090000
v 0.000000 5.270000 0.090000
v -0.060000 4.820000 0.090000
v -0.060000 1.520000 -0.090000
v 0.060000 1.520000 -0.090000
v 0.060000 4.820000 -0.090000
v 0.000000 5.270000 -0.090000
v -0.060000 4.820000 -0.090000
v -0.740000 1.295000 0.090000
v -0.740000 1.355000 0.150000
v -0.800000 1.355000 0.090000
v -0.740000 1.312574 0.132426
v -0.774641 1.320359 0.124641
v -0.782426 1.355000 0.132426
v -0.782426 1.312574 0.090000
v -0.740000 1.485000 0.150000
v -0.740000 1.545000 0.090000
v -0.800000 1.485000 0.090000
v -0.740000 1.527426 0.132426
v -0.774641 1.519641 0.124641
v -0.782426 1.527426 0.090000
v -0.782426 1.485000 0.132426
v -0.740000 1.295000 -0.090000
v -0.800000 1.355000 -0.090000
v -0.740000 1.355000 -0.150000
v -0.782426 1.312574 -0.090000
v -0.774641 1.320359 -0.124641
v -0.782426 1.355000 -0.132426
v -0.740000 1.312574 -0.132426
v -0.740000 1.545000 -0.090000
v -0.740000 1.485000 -0.150000
v -0.800000 1.485000 -0.090000
v -0.740000 1.527426 -0.132426
v -0.774641 1.519641 -0.124641
v -0.782426 1.485000 -0.132426
v -0.782426 1.527426 -0.090000
v 0.740000 1.295000 0.090000
v 0.800000 1.355000 0.090000
v 0.740000 1.355000 0.150000
v 0.782426 1.312574 0.090000
v 0.774641 1.320359 0.124641
v 0.782426 1.355000 0.132426
v 0.740000 1.312574 0.132426
v 0.740000 1.545000 0.090000
v 0.740000 1.485000 0.150000
v 0.800000 1.485000 0.090000
v 0.740000 1.527426 0.132426
v 0.774641 1.519641 0.124641
v 0.782426 1.485000 0.132426
v 0.782426 1.527426 0.090000
v 0.740000 1.295000 -0.090000
v 0.740000 1.355000 -0.150000
v 0.800000 1.355000 -0.090000
v 0.740000 1.312574 -0.132426
v 0.774641 1.320359 -0.124641
v 0.782426 1.355000 -0.132426
v 0.782426 1.312574 -0.090000
v 0.740000 1.545000 -0.090000
v 0.800000 1.485000 -0.090000
v 0.740000 1.485000 -0.150000
v 0.782426 1.527426 -0.090000
v 0.774641 1.519641 -0.124641
v 0.782426 1.485000 -0.132426
v 0.740000 1.527426 -0.132426
v 0.000000 1.260000 0.170000
v 0.115776 1.348446 0.254115
v -0.044222 1.348446 0.306102
v -0.143108 1.348446 0.170000
v -0.044222 1.348446 0.033898
v 0.115776 1.348446 0.085885
v 0.044222 1.491554 0.306102
v -0.115776 1.491554 0.254115
v -0.115776 1.491554 0.085885
v 0.044222 1.491554 0.033898
v 0.143108 1.491554 0.170000
v 0.000000 1.580000 0.170000
v 0.000000 1.260000 -0.170000
v 0.115776 1.348446 -0.085885
v -0.044222 1.348446 -0.033898
v -0.143108 1.348446 -0.170000
v -0.044222 1.348446 -0.306102
v 0.115776 1.348446 -0.254115
v 0.044222 1.491554 -0.033898
v -0.115776 1.491554 -0.085885
v -0.115776 1.491554 -0.254115
v 0.044222 1.491554 -0.306102
v 0.143108 1.491554 -0.170000
v 0.000000 1.580000 -0.170000
v -0.850000 1.250000 0.000000
v -0.726988 1.343974 0.089372
v -0.896985 1.343974 0.144609
v -1.002052 1.343974 0.000000
v -0.896985 1.343974 -0.144609
v -0.726988 1.343974 -0.089372
v -0.803015 1.496027 0.144609
v -0.973012 1.496027 0.089372
v -0.973012 1.496027 -0.089372
v -0.803015 1.496027 -0.144609
v -0.697948 1.496027 0.000000
v -0.850000 1.590000 0.000000
v 0.850000 1.250000 0.000000
v 0.973012 1.343974 0.089372
v 0.803015 1.343974 0.144609
v 0.697948 1.343974 0.000000
v 0.803015 1.343974 -0.144609
v 0.973012 1.343974 -0.089372
v 0.896985 1.496027 0.144609
v 0.726988 1.496027 0.089372
v 0.726988 1.496027 -0.089372
v 0.896985 1.496027 -0.144609
v 1.002052 1.496027 0.000000
v 0.850000 1.590000 0.000000
v 0.000000 0.290000 -0.140000
v 0.000000 1.290000 -0.140000
v 0.098995 0.290000 -0.098995
v 0.098995 1.290000 -0.098995
v 0.140000 0.290000 0.000000
v 0.140000 1.290000 0.000000
v 0.098995 0.290000 0.098995
v 0.098995 1.290000 0.098995
v 0.000000 0.290000 0.140000
v 0.000000 1.290000 0.140000
v -0.098995 0.290000 0.098995
v -0.098995 1.290000 0.098995
v -0.140000 0.290000 0.000000
v -0.140000 1.290000 0.000000
v -0.098995 0.290000 -0.098995
v -0.098995 1.290000 -0.098995
v 0.185000 0.420000 0.000000
v 0.150000 0.455000 0.000000
v 0.115000 0.420000 0.000000
v 0.150000 0.385000 0.000000
v 0.149668 0.420000 -0.108740
v 0.121353 0.455000 -0.088168
v 0.093037 0.420000 -0.067595
v 0.121353 0.385000 -0.088168
v 0.057168 0.420000 -0.175945
v 0.046353 0.455000 -0.142658
v 0.035537 0.420000 -0.109372
v 0.046353 0.385000 -0.142658
v -0.057168 0.420000 -0.175945
v -0.046353 0.455000 -0.142658
v -0.035537 0.420000 -0.109372
v -0.046353 0.385000 -0.142658
v -0.149668 0.420000 -0.108740
v -0.121353 0.455000 -0.088168
v -0.093037 0.420000 -0.067595
v -0.121353 0.385000 -0.088168
v -0.185000 0.420000 -0.000000
v -0.150000 0.455000 -0.000000
v -0.115000 0.420000 -0.000000
v -0.150000 0.385000 -0.000000
v -0.149668 0.420000 0.108740
v -0.121353 0.455000 0.088168
v -0.093037 0.420000 0.067595
v -0.121353 0.385000 0.088168
v -0.057168 0.420000 0.175945
v -0.046353 0.455000 0.142658
v -0.035537 0.420000 0.109372
v -0.046353 0.385000 0.142658
v 0.057168 0.420000 0.175945
v 0.046353 0.455000 0.142658
v 0.035537 0.420000 0.109372
v 0.046353 0.385000 0.142658
v 0.149668 0.420000 0.108740
v 0.121353 0.455000 0.088168
v 0.093037 0.420000 0.067595
v 0.121353 0.385000 0.088168
v 0.185000 0.600000 0.000000
v 0.150000 0.635000 0.000000
v 0.115000 0.600000 0.000000
v 0.150000 0.565000 0.000000
v 0.149668 0.600000 -0.108740
v 0.121353 0.635000 -0.088168
v 0.093037 0.600000 -0.067595
v 0.121353 0.565000 -0.088168
v 0.057168 0.600000 -0.175945
v 0.046353 0.635000 -0.142658
v 0.035537 0.600000 -0.109372
v 0.046353 0.565000 -0.142658
v -0.057168 0.600000 -0.175945
v -0.046353 0.635000 -0.142658
v -0.035537 0.600000 -0.109372
v -0.046353 0.565000 -0.142658
v -0.149668 0.600000 -0.108740
v -0.121353 0.635000 -0.088168
v -0.093037 0.600000 -0.067595
v -0.121353 0.565000 -0.088168
v -0.185000 0.600000 -0.000000
v -0.150000 0.635000 -0.000000
v -0.115000 0.600000 -0.000000
v -0.150000 0.565000 -0.000000
v -0.149668 0.600000 0.108740
v -0.121353 0.635000 0.088168
v -0.093037 0.600000 0.067595
v -0.121353 0.565000 0.088168
v -0.057168 0.600000 0.175945
v -0.046353 0.635000 0.142658
v -0.035537 0.600000 0.109372
v -0.046353 0.565000 0.142658
v 0.057168 0.600000 0.175945
v 0.046353 0.635000 0.142658
v 0.035537 0.600000 0.109372
v 0.046353 0.565000 0.142658
v 0.149668 0.600000 0.108740
v 0.121353 0.635000 0.088168
v 0.093037 0.600000 0.067595
v 0.121353 0.565000 0.088168
v 0.185000 0.780000 0.000000
v 0.150000 0.815000 0.000000
v 0.115000 0.780000 0.000000
v 0.150000 0.745000 0.000000
v 0.149668 0.780000 -0.108740
v 0.121353 0.815000 -0.088168
v 0.093037 0.780000 -0.067595
v 0.121353 0.745000 -0.088168
v 0.057168 0.780000 -0.175945
v 0.046353 0.815000 -0.142658
v 0.035537 0.780000 -0.109372
v 0.046353 0.745000 -0.142658
v -0.057168 0.780000 -0.175945
v -0.046353 0.815000 -0.142658
v -0.035537 0.780000 -0.109372
v -0.046353 0.745000 -0.142658
v -0.149668 0.780000 -0.108740
v -0.121353 0.815000 -0.088168
v -0.093037 0.780000 -0.067595
v -0.121353 0.745000 -0.088168
v -0.185000 0.780000 -0.000000
v -0.150000 0.815000 -0.000000
v -0.115000 0.780000 -0.000000
v -0.150000 0.745000 -0.000000
v -0.149668 0.780000 0.108740
v -0.121353 0.815000 0.088168
v -0.093037 0.780000 0.067595
v -0.121353 0.745000 0.088168
v -0.057168 0.780000 0.175945
v -0.046353 0.815000 0.142658
v -0.035537 0.780000 0.109372
v -0.046353 0.745000 0.142658
v 0.057168 0.780000 0.175945
v 0.046353 0.815000 0.142658
v 0.035537 0.780000 0.109372
v 0.046353 0.745000 0.142658
v 0.149668 0.780000 0.108740
v 0.121353 0.815000 0.088168
v 0.093037 0.780000 0.067595
v 0.121353 0.745000 0.088168
v 0.185000 0.960000 0.000000
v 0.150000 0.995000 0.000000
v 0.115000 0.960000 0.000000
v 0.150000 0.925000 0.000000
v 0.149668 0.960000 -0.108740
v 0.121353 0.995000 -0.088168
v 0.093037 0.960000 -0.067595
v 0.121353 0.925000 -0.088168
v 0.057168 0.960000 -0.175945
v 0.046353 0.995000 -0.142658
v 0.035537 0.960000 -0.109372
v 0.046353 0.925000 -0.142658
v -0.057168 0.960000 -0.175945
v -0.046353 0.995000 -0.142658
v -0.035537 0.960000 -0.109372
v -0.046353 0.925000 -0.142658
v -0.149668 0.960000 -0.108740
v -0.121353 0.995000 -0.088168
v -0.093037 0.960000 -0.067595
v -0.121353 0.925000 -0.088168
v -0.185000 0.960000 -0.000000
v -0.150000 0.995000 -0.000000
v -0.115000 0.960000 -0.000000
v -0.150000 0.925000 -0.000000
v -0.149668 0.960000 0.108740
v -0.121353 0.995000 0.088168
v -0.093037 0.960000 0.067595
v -0.121353 0.925000 0.088168
v -0.057168 0.960000 0.175945
v -0.046353 0.995000 0.142658
v -0.035537 0.960000 0.109372
v -0.046353 0.925000 0.142658
v 0.057168 0.960000 0.175945
v 0.046353 0.995000 0.142658
v 0.035537 0.960000 0.109372
v 0.046353 0.925000 0.142658
v 0.149668 0.960000 0.108740
v 0.121353 0.995000 0.088168
v 0.093037 0.960000 0.067595
v 0.121353 0.925000 0.088168
v 0.185000 1.140000 0.000000
v 0.150000 1.175000 0.000000
v 0.115000 1.140000 0.000000
v 0.150000 1.105000 0.000000
v 0.149668 1.140000 -0.108740
v 0.121353 1.175000 -0.088168
v 0.093037 1.140000 -0.067595
v 0.121353 1.105000 -0.088168
v 0.057168 1.140000 -0.175945
v 0.046353 1.175000 -0.142658
v 0.035537 1.140000 -0.109372
v 0.046353 1.105000 -0.142658
v -0.057168 1.140000 -0.175945
v -0.046353 1.175000 -0.142658
v -0.035537 1.140000 -0.109372
v -0.046353 1.105000 -0.142658
v -0.149668 1.140000 -0.108740
v -0.121353 1.175000 -0.088168
v -0.093037 1.140000 -0.067595
v -0.121353 1.105000 -0.088168
v -0.185000 1.140000 -0.000000
v -0.150000 1.175000 -0.000000
v -0.115000 1.140000 -0.000000
v -0.150000 1.105000 -0.000000
v -0.149668 1.140000 0.108740
v -0.121353 1.175000 0.088168
v -0.093037 1.140000 0.067595
v -0.121353 1.105000 0.088168
v -0.057168 1.140000 0.175945
v -0.046353 1.175000 0.142658
v -0.035537 1.140000 0.109372
v -0.046353 1.105000 0.142658
v 0.057168 1.140000 0.175945
v 0.046353 1.175000 0.142658
v 0.035537 1.140000 0.109372
v 0.046353 1.105000 0.142658
v 0.149668 1.140000 0.108740
v 0.121353 1.175000 0.088168
v 0.093037 1.140000 0.067595
v 0.121353 1.105000 0.088168
v 0.000000 0.000000 0.000000
v 0.159194 0.121612 0.115660
v -0.060805 0.121612 0.187143
v -0.196774 0.121613 0.000000
v -0.060805 0.121612 -0.187143
v 0.159194 0.121612 -0.115660
v 0.060805 0.318388 0.187143
v -0.159194 0.318388 0.115660
v -0.159194 0.318388 -0.115660
v 0.060805 0.318388 -0.187143
v 0.196774 0.318388 0.000000
v 0.000000 0.440000 0.000000
v -0.035740 0.032856 0.109999
v 0.093571 0.032856 0.067983
v 0.057831 0.104338 0.177983
v 0.187143 0.104338 0.000000
v 0.093571 0.032856 -0.067983
v -0.115661 0.032857 0.000000
v -0.151402 0.104338 0.109999
v -0.035740 0.032856 -0.109999
v -0.151402 0.104338 -0.109999
v 0.057831 0.104338 -0.177983
v 0.209233 0.220000 0.067983
v 0.209233 0.220000 -0.067983
v 0.000000 0.220000 0.220000
v 0.129313 0.220000 0.177984
v -0.209233 0.220000 0.067983
v -0.129313 0.220000 0.177984
v -0.129313 0.220000 -0.177984
v -0.209233 0.220000 -0.067983
v 0.129313 0.220000 -0.177984
v 0.000000 0.220000 -0.220000
v 0.151402 0.335662 0.109999
v -0.057831 0.335662 0.177983
v -0.187143 0.335662 0.000000
v -0.057831 0.335662 -0.177983
v 0.151402 0.335662 -0.109999
v 0.035740 0.407144 0.109999
v 0.115661 0.407143 0.000000
v -0.093571 0.407144 0.067983
v -0.093571 0.407144 -0.067983
v 0.035740 0.407144 -0.109999
vn -0.0000 -0.0000 1.0000
vn -0.0000 -0.0000 -1.0000
vn -0.0000 -1.0000 -0.0000
vn 1.0000 -0.0000 -0.0000
vn 0.9062 0.4229 -0.0000
vn -0.9062 0.4229 -0.0000
vn -1.0000 -0.0000 -0.0000
vn 0.9912 0.1322 -0.0000
vn -0.9912 0.1322 -0.0000
vn -0.3251 -0.8881 0.3251
vn -0.3251 -0.3251 0.8881
vn -0.8881 -0.3251 0.3251
vn -0.3251 0.3251 0.8881
vn -0.3251 0.8881 0.3251
vn -0.8881 0.3251 0.3251
vn -0.3251 -0.8881 -0.3251
vn -0.8881 -0.3251 -0.3251
vn -0.3251 -0.3251 -0.8881
vn -0.3251 0.8881 -0.3251
vn -0.3251 0.3251 -0.8881
vn -0.8881 0.3251 -0.3251
vn 0.3251 -0.8881 0.3251
vn 0.8881 -0.3251 0.3251
vn 0.3251 -0.3251 0.8881
vn 0.3251 0.8881 0.3251
vn 0.3251 0.3251 0.8881
vn 0.8881 0.3251 0.3251
vn 0.3251 -0.8881 -0.3251
vn 0.3251 -0.3251 -0.8881
vn 0.8881 -0.3251 -0.3251
vn 0.3251 0.8881 -0.3251
vn 0.8881 0.3251 -0.3251
vn 0.3251 0.3251 -0.8881
vn -0.3827 -0.9239 -0.0000
vn -0.9239 -0.3827 -0.0000
vn -0.3827 -0.0000 0.9239
vn -0.9239 -0.0000 0.3827
vn -0.3827 0.9239 -0.0000
vn -0.9239 0.3827 -0.0000
vn -0.3827 -0.0000 -0.9239
vn -0.9239 -0.0000 -0.3827
vn -0.0000 -0.9239 -0.3827
vn -0.0000 -0.3827 -0.9239
vn -0.0000 0.9239 -0.3827
vn -0.0000 0.3827 -0.9239
vn 0.9239 -0.0000 -0.3827
vn 0.3827 -0.0000 -0.9239
vn 0.3827 -0.9239 -0.0000
vn 0.9239 -0.3827 -0.0000
vn 0.3827 0.9239 -0.0000
vn 0.9239 0.3827 -0.0000
vn 0.3827 -0.0000 0.9239
vn 0.9239 -0.0000 0.3827
vn -0.0000 -0.9239 0.3827
vn -0.0000 -0.3827 0.9239
vn -0.0000 0.9239 0.3827
vn -0.0000 0.3827 0.9239
vn -0.0000 1.0000 -0.0000
vn 0.1876 -0.7947 0.5774
vn 0.6071 -0.7947 -0.0000
vn -0.4911 -0.7947 0.3568
vn -0.4911 -0.7947 -0.3568
vn 0.1876 -0.7947 -0.5774
vn 0.9822 -0.1876 -0.0000
vn 0.3035 -0.1876 0.9342
vn -0.7946 -0.1876 0.5774
vn -0.7946 -0.1876 -0.5774
vn 0.3035 -0.1876 -0.9342
vn 0.7946 0.1876 0.5774
vn -0.3035 0.1876 0.9342
vn -0.9822 0.1876 -0.0000
vn -0.3035 0.1876 -0.9342
vn 0.7946 0.1876 -0.5774
vn 0.4911 0.7947 0.3568
vn -0.1876 0.7947 0.5774
vn -0.6071 0.7947 -0.0000
vn -0.1876 0.7947 -0.5774
vn 0.4911 0.7947 -0.3568
vn 0.6892 0.6892 -0.2239
vn -0.6892 0.6892 0.2239
vn -0.6892 -0.6892 0.2239
vn 0.6892 -0.6892 -0.2239
vn 0.4259 0.6892 -0.5862
vn -0.4259 0.6892 0.5862
vn -0.4259 -0.6892 0.5862
vn 0.4259 -0.6892 -0.5862
vn -0.0000 0.6892 -0.7246
vn -0.0000 0.6892 0.7246
vn -0.0000 -0.6892 0.7246
vn -0.0000 -0.6892 -0.7246
vn -0.4259 0.6892 -0.5862
vn 0.4259 0.6892 0.5862
vn 0.4259 -0.6892 0.5862
vn -0.4259 -0.6892 -0.5862
vn -0.6892 0.6892 -0.2239
vn 0.6892 0.6892 0.2239
vn 0.6892 -0.6892 0.2239
vn -0.6892 -0.6892 -0.2239
vn 0.6892 -0.6891 0.2239
vn 0.1024 -0.9435 0.3151
vn 0.7002 -0.6617 0.2680
vn -0.2680 -0.9435 0.1947
vn -0.2680 -0.9435 -0.1947
vn 0.1024 -0.9435 -0.3151
vn 0.9050 -0.3304 0.2680
vn 0.0247 -0.3304 0.9435
vn -0.8897 -0.3304 0.3151
vn -0.5746 -0.3304 -0.7488
vn 0.5346 -0.3304 -0.7779
vn 0.8026 -0.1256 0.5831
vn -0.3066 -0.1256 0.9435
vn -0.9921 -0.1256 -0.0000
vn -0.3066 -0.1256 -0.9435
vn 0.8026 -0.1256 -0.5831
vn 0.4089 0.6617 0.6284
vn -0.4713 0.6617 0.5831
vn -0.7002 0.6617 -0.2680
vn 0.0385 0.6617 -0.7488
vn 0.7240 0.6617 -0.1947
vn 0.2680 0.9435 -0.1947
vn 0.4089 0.6617 -0.6284
vn -0.1024 0.9435 -0.3151
vn -0.1876 0.7947 -0.5773
vn -0.4713 0.6617 -0.5831
vn -0.3313 0.9435 -0.0000
vn -0.7002 0.6617 0.2680
vn -0.1024 0.9435 0.3151
vn -0.1876 0.7947 0.5773
vn 0.0385 0.6617 0.7488
vn 0.2680 0.9435 0.1947
vn 0.7240 0.6617 0.1947
vn 0.8897 0.3304 -0.3151
vn 0.7947 0.1876 -0.5773
vn 0.5746 0.3304 -0.7488
vn -0.0247 0.3304 -0.9435
vn -0.5346 0.3304 -0.7779
vn -0.9050 0.3304 -0.2680
vn -0.9050 0.3304 0.2680
vn -0.5346 0.3304 0.7779
vn -0.0247 0.3304 0.9435
vn 0.5746 0.3304 0.7488
vn 0.7947 0.1876 0.5773
vn 0.8897 0.3304 0.3151
vn 0.3066 0.1256 -0.9435
vn 0.0247 -0.3304 -0.9435
vn -0.8026 0.1256 -0.5831
vn -0.7947 -0.1876 -0.5773
vn -0.8897 -0.3304 -0.3151
vn -0.8026 0.1256 0.5831
vn -0.7947 -0.1876 0.5773
vn -0.5746 -0.3304 0.7488
vn 0.3066 0.1256 0.9435
vn 0.5346 -0.3304 0.7779
vn 0.9921 0.1256 -0.0000
vn 0.9050 -0.3304 -0.2680
vn 0.4713 -0.6617 -0.5831
vn 0.1876 -0.7947 -0.5773
vn -0.0385 -0.6617 -0.7488
vn -0.4089 -0.6617 -0.6284
vn -0.7240 -0.6617 -0.1947
vn -0.7240 -0.6617 0.1947
vn -0.4089 -0.6617 0.6284
vn 0.7002 -0.6617 -0.2680
vn 0.3313 -0.9435 -0.0000
vn -0.0385 -0.6617 0.7488
vn 0.1876 -0.7947 0.5773
vn 0.4713 -0.6617 0.5831
vt 0.087500 0.500000
vt 0.070225 0.690211
vt 0.042275 0.617557
vt 0.042275 0.382443
vt 0.070225 0.309789
vt 0.062500 0.700000
vt 0.037500 0.500000
vt 0.062500 0.300000
vt 0.212500 0.500000
vt 0.195225 0.690211
vt 0.167275 0.617557
vt 0.167275 0.382443
vt 0.195225 0.309789
vt 0.187500 0.700000
vt 0.162500 0.500000
vt 0.187500 0.300000
vt 0.337500 0.500000
vt 0.312500 0.700000
vt 0.287500 0.500000
vt 0.312500 0.300000
vt 0.462500 0.500000
vt 0.425000 0.673205
vt 0.425000 0.326795
vt 0.300000 0.673205
vt 0.300000 0.326795
vt 0.587500 0.500000
vt 0.562500 0.700000
vt 0.537500 0.500000
vt 0.562500 0.300000
vt 0.580178 0.641421
vt 0.544822 0.641421
vt 0.544822 0.358579
vt 0.580178 0.358579
vt 0.712500 0.500000
vt 0.687500 0.700000
vt 0.662500 0.500000
vt 0.687500 0.300000
s 0
usemtl Palette
f 1/1/1 2/2/1 3/3/1 4/4/1 5/5/1
f 10/1/2 9/2/2 8/3/2 7/4/2 6/5/2
f 1/1/3 6/6/3 7/7/3 2/8/3
f 2/1/4 7/6/4 8/7/4 3/8/4
f 3/1/5 8/6/5 9/7/5 4/8/5
f 4/1/6 9/6/6 10/7/6 5/8/6
f 5/1/7 10/6/7 6/7/7 1/8/7
f 11/9/1 12/10/1 13/11/1 14/12/1 15/13/1
f 20/9/2 19/10/2 18/11/2 17/12/2 16/13/2
f 11/9/3 16/14/3 17/15/3 12/16/3
f 12/9/4 17/14/4 18/15/4 13/16/4
f 13/9/8 18/14/8 19/15/8 14/16/8
f 14/9/9 19/14/9 20/15/9 15/16/9
f 15/9/7 20/14/7 16/15/7 11/16/7
f 21/17/10 24/18/10 25/19/10 27/20/10
f 22/17/11 26/18/11 25/19/11 24/20/11
f 23/17/12 27/18/12 25/19/12 26/20/12
f 28/17/13 31/18/13 32/19/13 34/20/13
f 29/17/14 33/18/14 32/19/14 31/20/14
f 30/17/15 34/18/15 32/19/15 33/20/15
f 35/17/16 38/18/16 39/19/16 41/20/16
f 36/17/17 40/18/17 39/19/17 38/20/17
f 37/17/18 41/18/18 39/19/18 40/20/18
f 42/17/19 45/18/19 46/19/19 48/20/19
f 43/17/20 47/18/20 46/19/20 45/20/20
f 44/17/21 48/18/21 46/19/21 47/20/21
f 49/17/22 52/18/22 53/19/22 55/20/22
f 50/17/23 54/18/23 53/19/23 52/20/23
f 51/17/24 55/18/24 53/19/24 54/20/24
f 56/17/25 59/18/25 60/19/25 62/20/25
f 57/17/26 61/18/26 60/19/26 59/20/26
f 58/17/27 62/18/27 60/19/27 61/20/27
f 63/17/28 66/18/28 67/19/28 69/20/28
f 64/17/29 68/18/29 67/19/29 66/20/29
f 65/17/30 69/18/30 67/19/30 68/20/30
f 70/17/31 73/18/31 74/19/31 76/20/31
f 71/17/32 75/18/32 74/19/32 73/20/32
f 72/17/33 76/18/33 74/19/33 75/20/33
f 35/17/34 21/18/34 27/19/34 38/20/34
f 38/17/35 27/18/35 23/19/35 36/20/35
f 22/17/36 28/18/36 34/19/36 26/20/36
f 26/17/37 34/18/37 30/19/37 23/20/37
f 29/17/38 42/18/38 48/19/38 33/20/38
f 33/17/39 48/18/39 44/19/39 30/20/39
f 43/17/40 37/18/40 40/19/40 47/20/40
f 47/17/41 40/18/41 36/19/41 44/20/41
f 63/17/42 35/18/42 41/19/42 66/20/42
f 66/17/43 41/18/43 37/19/43 64/20/43
f 42/17/44 70/18/44 76/19/44 45/20/44
f 45/17/45 76/18/45 72/19/45 43/20/45
f 71/17/46 65/18/46 68/19/46 75/20/46
f 75/17/47 68/18/47 64/19/47 72/20/47
f 49/17/48 63/18/48 69/19/48 52/20/48
f 52/17/49 69/18/49 65/19/49 50/20/49
f 70/17/50 56/18/50 62/19/50 73/20/50
f 73/17/51 62/18/51 58/19/51 71/20/51
f 57/17/52 51/18/52 54/19/52 61/20/52
f 61/17/53 54/18/53 50/19/53 58/20/53
f 21/17/54 49/18/54 55/19/54 24/20/54
f 24/17/55 55/18/55 51/19/55 22/20/55
f 56/17/56 29/18/56 31/19/56 59/20/56
f 59/17/57 31/18/57 28/19/57 57/20/57
f 35/17/3 63/18/3 49/19/3 21/20/3
f 23/17/7 30/18/7 44/19/7 36/20/7
f 51/17/1 57/18/1 28/19/1 22/20/1
f 70/17/58 42/18/58 29/19/58 56/20/58
f 37/17/2 43/18/2 72/19/2 64/20/2
f 65/17/4 71/18/4 58/19/4 50/20/4
f 77/21/59 78/22/59 79/23/59
f 78/21/60 77/22/60 82/23/60
f 77/21/61 79/22/61 80/23/61
f 77/21/62 80/22/62 81/23/62
f 77/21/63 81/22/63 82/23/63
f 78/21/64 82/22/64 87/23/64
f 79/21/65 78/22/65 83/23/65
f 80/21/66 79/22/66 84/23/66
f 81/21/67 80/22/67 85/23/67
f 82/21/68 81/22/68 86/23/68
f 78/21/69 87/22/69 83/23/69
f 79/21/70 83/22/70 84/23/70
f 80/21/71 84/22/71 85/23/71
f 81/21/72 85/22/72 86/23/72
f 82/21/73 86/22/73 87/23/73
f 83/21/74 87/22/74 88/23/74
f 84/21/75 83/22/75 88/23/75
f 85/21/76 84/22/76 88/23/76
f 86/21/77 85/22/77 88/23/77
f 87/21/78 86/22/78 88/23/78
f 89/21/59 90/22/59 91/23/59
f 90/21/60 89/22/60 94/23/60
f 89/21/61 91/22/61 92/23/61
f 89/21/62 92/22/62 93/23/62
f 89/21/63 93/22/63 94/23/63
f 90/21/64 94/22/64 99/23/64
f 91/21/65 90/22/65 95/23/65
f 92/21/66 91/22/66 96/23/66
f 93/21/67 92/22/67 97/23/67
f 94/21/68 93/22/68 98/23/68
f 90/21/69 99/22/69 95/23/69
f 91/21/70 95/22/70 96/23/70
f 92/21/71 96/22/71 97/23/71
f 93/21/72 97/22/72 98/23/72
f 94/21/73 98/22/73 99/23/73
f 95/21/74 99/22/74 100/23/74
f 96/21/75 95/22/75 100/23/75
f 97/21/76 96/22/76 100/23/76
f 98/21/77 97/22/77 100/23/77
f 99/21/78 98/22/78 100/23/78
f 101/17/59 102/24/59 103/25/59
f 102/17/60 101/24/60 106/25/60
f 101/17/61 103/24/61 104/25/61
f 101/17/62 104/24/62 105/25/62
f 101/17/63 105/24/63 106/25/63
f 102/17/64 106/24/64 111/25/64
f 103/17/65 102/24/65 107/25/65
f 104/17/66 103/24/66 108/25/66
f 105/17/67 104/24/67 109/25/67
f 106/17/68 105/24/68 110/25/68
f 102/17/69 111/24/69 107/25/69
f 103/17/70 107/24/70 108/25/70
f 104/17/71 108/24/71 109/25/71
f 105/17/72 109/24/72 110/25/72
f 106/17/73 110/24/73 111/25/73
f 107/17/74 111/24/74 112/25/74
f 108/17/75 107/24/75 112/25/75
f 109/17/76 108/24/76 112/25/76
f 110/17/77 109/24/77 112/25/77
f 111/17/78 110/24/78 112/25/78
f 113/17/59 114/24/59 115/25/59
f 114/17/60 113/24/60 118/25/60
f 113/17/61 115/24/61 116/25/61
f 113/17/62 116/24/62 117/25/62
f 113/17/63 117/24/63 118/25/63
f 114/17/64 118/24/64 123/25/64
f 115/17/65 114/24/65 119/25/65
f 116/17/66 115/24/66 120/25/66
f 117/17/67 116/24/67 121/25/67
f 118/17/68 117/24/68 122/25/68
f 114/17/69 123/24/69 119/25/69
f 115/17/70 119/24/70 120/25/70
f 116/17/71 120/24/71 121/25/71
f 117/17/72 121/24/72 122/25/72
f 118/17/73 122/24/73 123/25/73
f 119/17/74 123/24/74 124/25/74
f 120/17/75 119/24/75 124/25/75
f 121/17/76 120/24/76 124/25/76
f 122/17/77 121/24/77 124/25/77
f 123/17/78 122/24/78 124/25/78
f 125/26/47 126/27/47 128/28/47 127/29/47
f 127/26/46 128/27/46 130/28/46 129/29/46
f 129/26/53 130/27/53 132/28/53 131/29/53
f 131/26/52 132/27/52 134/28/52 133/29/52
f 133/26/36 134/27/36 136/28/36 135/29/36
f 135/26/37 136/27/37 138/28/37 137/29/37
f 128/26/58 126/30/58 140/27/58 138/31/58 136/28/58 134/32/58 132/29/58 130/33/58
f 137/26/41 138/27/41 140/28/41 139/29/41
f 139/26/40 140/27/40 126/28/40 125/29/40
f 125/26/3 127/30/3 129/27/3 131/31/3 133/28/3 135/32/3 137/29/3 139/33/3
f 141/34/79 145/35/79 146/36/79 142/37/79
f 142/34/80 146/35/80 147/36/80 143/37/80
f 143/34/81 147/35/81 148/36/81 144/37/81
f 144/34/82 148/35/82 145/36/82 141/37/82
f 145/34/83 149/35/83 150/36/83 146/37/83
f 146/34/84 150/35/84 151/36/84 147/37/84
f 147/34/85 151/35/85 152/36/85 148/37/85
f 148/34/86 152/35/86 149/36/86 145/37/86
f 149/34/87 153/35/87 154/36/87 150/37/87
f 150/34/88 154/35/88 155/36/88 151/37/88
f 151/34/89 155/35/89 156/36/89 152/37/89
f 152/34/90 156/35/90 153/36/90 149/37/90
f 153/34/91 157/35/91 158/36/91 154/37/91
f 154/34/92 158/35/92 159/36/92 155/37/92
f 155/34/93 159/35/93 160/36/93 156/37/93
f 156/34/94 160/35/94 157/36/94 153/37/94
f 157/34/95 161/35/95 162/36/95 158/37/95
f 158/34/96 162/35/96 163/36/96 159/37/96
f 159/34/97 163/35/97 164/36/97 160/37/97
f 160/34/98 164/35/98 161/36/98 157/37/98
f 161/34/80 165/35/80 166/36/80 162/37/80
f 162/34/79 166/35/79 167/36/79 163/37/79
f 163/34/82 167/35/82 168/36/82 164/37/82
f 164/34/81 168/35/81 165/36/81 161/37/81
f 165/34/84 169/35/84 170/36/84 166/37/84
f 166/34/83 170/35/83 171/36/83 167/37/83
f 167/34/86 171/35/86 172/36/86 168/37/86
f 168/34/85 172/35/85 169/36/85 165/37/85
f 169/34/88 173/35/88 174/36/88 170/37/88
f 170/34/87 174/35/87 175/36/87 171/37/87
f 171/34/90 175/35/90 176/36/90 172/37/90
f 172/34/89 176/35/89 173/36/89 169/37/89
f 173/34/92 177/35/92 178/36/92 174/37/92
f 174/34/91 178/35/91 179/36/91 175/37/91
f 175/34/94 179/35/94 180/36/94 176/37/94
f 176/34/93 180/35/93 177/36/93 173/37/93
f 177/34/96 141/35/96 142/36/96 178/37/96
f 178/34/95 142/35/95 143/36/95 179/37/95
f 179/34/98 143/35/98 144/36/98 180/37/98
f 180/34/97 144/35/97 141/36/97 177/37/97
f 181/34/79 185/35/79 186/36/79 182/37/79
f 182/34/80 186/35/80 187/36/80 183/37/80
f 183/34/81 187/35/81 188/36/81 184/37/81
f 184/34/82 188/35/82 185/36/82 181/37/82
f 185/34/83 189/35/83 190/36/83 186/37/83
f 186/34/84 190/35/84 191/36/84 187/37/84
f 187/34/85 191/35/85 192/36/85 188/37/85
f 188/34/86 192/35/86 189/36/86 185/37/86
f 189/34/87 193/35/87 194/36/87 190/37/87
f 190/34/88 194/35/88 195/36/88 191/37/88
f 191/34/89 195/35/89 196/36/89 192/37/89
f 192/34/90 196/35/90 193/36/90 189/37/90
f 193/34/91 197/35/91 198/36/91 194/37/91
f 194/34/92 198/35/92 199/36/92 195/37/92
f 195/34/93 199/35/93 200/36/93 196/37/93
f 196/34/94 200/35/94 197/36/94 193/37/94
f 197/34/95 201/35/95 202/36/95 198/37/95
f 198/34/96 202/35/96 203/36/96 199/37/96
f 199/34/97 203/35/97 204/36/97 200/37/97
f 200/34/98 204/35/98 201/36/98 197/37/98
f 201/34/80 205/35/80 206/36/80 202/37/80
f 202/34/79 206/35/79 207/36/79 203/37/79
f 203/34/82 207/35/82 208/36/82 204/37/82
f 204/34/81 208/35/81 205/36/81 201/37/81
f 205/34/84 209/35/84 210/36/84 206/37/84
f 206/34/83 210/35/83 211/36/83 207/37/83
f 207/34/86 211/35/86 212/36/86 208/37/86
f 208/34/85 212/35/85 209/36/85 205/37/85
f 209/34/88 213/35/88 214/36/88 210/37/88
f 210/34/87 214/35/87 215/36/87 211/37/87
f 211/34/90 215/35/90 216/36/90 212/37/90
f 212/34/89 216/35/89 213/36/89 209/37/89
f 213/34/92 217/35/92 218/36/92 214/37/92
f 214/34/91 218/35/91 219/36/91 215/37/91
f 215/34/94 219/35/94 220/36/94 216/37/94
f 216/34/93 220/35/93 217/36/93 213/37/93
f 217/34/96 181/35/96 182/36/96 218/37/96
f 218/34/95 182/35/95 183/36/95 219/37/95
f 219/34/98 183/35/98 184/36/98 220/37/98
f 220/34/97 184/35/97 181/36/97 217/37/97
f 221/34/79 225/35/79 226/36/79 222/37/79
f 222/34/80 226/35/80 227/36/80 223/37/80
f 223/34/81 227/35/81 228/36/81 224/37/81
f 224/34/82 228/35/82 225/36/82 221/37/82
f 225/34/83 229/35/83 230/36/83 226/37/83
f 226/34/84 230/35/84 231/36/84 227/37/84
f 227/34/85 231/35/85 232/36/85 228/37/85
f 228/34/86 232/35/86 229/36/86 225/37/86
f 229/34/87 233/35/87 234/36/87 230/37/87
f 230/34/88 234/35/88 235/36/88 231/37/88
f 231/34/89 235/35/89 236/36/89 232/37/89
f 232/34/90 236/35/90 233/36/90 229/37/90
f 233/34/91 237/35/91 238/36/91 234/37/91
f 234/34/92 238/35/92 239/36/92 235/37/92
f 235/34/93 239/35/93 240/36/93 236/37/93
f 236/34/94 240/35/94 237/36/94 233/37/94
f 237/34/95 241/35/95 242/36/95 238/37/95
f 238/34/96 242/35/96 243/36/96 239/37/96
f 239/34/97 243/35/97 244/36/97 240/37/97
f 240/34/98 244/35/98 241/36/98 237/37/98
f 241/34/80 245/35/80 246/36/80 242/37/80
f 242/34/79 246/35/79 247/36/79 243/37/79
f 243/34/82 247/35/82 248/36/82 244/37/82
f 244/34/81 248/35/81 245/36/81 241/37/81
f 245/34/84 249/35/84 250/36/84 246/37/84
f 246/34/83 250/35/83 251/36/83 247/37/83
f 247/34/86 251/35/86 252/36/86 248/37/86
f 248/34/85 252/35/85 249/36/85 245/37/85
f 249/34/88 253/35/88 254/36/88 250/37/88
f 250/34/87 254/35/87 255/36/87 251/37/87
f 251/34/90 255/35/90 256/36/90 252/37/90
f 252/34/89 256/35/89 253/36/89 249/37/89
f 253/34/92 257/35/92 258/36/92 254/37/92
f 254/34/91 258/35/91 259/36/91 255/37/91
f 255/34/94 259/35/94 260/36/94 256/37/94
f 256/34/93 260/35/93 257/36/93 253/37/93
f 257/34/96 221/35/96 222/36/96 258/37/96
f 258/34/95 222/35/95 223/36/95 259/37/95
f 259/34/98 223/35/98 224/36/98 260/37/98
f 260/34/97 224/35/97 221/36/97 257/37/97
f 261/34/79 265/35/79 266/36/79 262/37/79
f 262/34/80 266/35/80 267/36/80 263/37/80
f 263/34/81 267/35/81 268/36/81 264/37/81
f 264/34/82 268/35/82 265/36/82 261/37/82
f 265/34/83 269/35/83 270/36/83 266/37/83
f 266/34/84 270/35/84 271/36/84 267/37/84
f 267/34/85 271/35/85 272/36/85 268/37/85
f 268/34/86 272/35/86 269/36/86 265/37/86
f 269/34/87 273/35/87 274/36/87 270/37/87
f 270/34/88 274/35/88 275/36/88 271/37/88
f 271/34/89 275/35/89 276/36/89 272/37/89
f 272/34/90 276/35/90 273/36/90 269/37/90
f 273/34/91 277/35/91 278/36/91 274/37/91
f 274/34/92 278/35/92 279/36/92 275/37/92
f 275/34/93 279/35/93 280/36/93 276/37/93
f 276/34/94 280/35/94 277/36/94 273/37/94
f 277/34/95 281/35/95 282/36/95 278/37/95
f 278/34/96 282/35/96 283/36/96 279/37/96
f 279/34/99 283/35/99 284/36/99 280/37/99
f 280/34/98 284/35/98 281/36/98 277/37/98
f 281/34/80 285/35/80 286/36/80 282/37/80
f 282/34/79 286/35/79 287/36/79 283/37/79
f 283/34/82 287/35/82 288/36/82 284/37/82
f 284/34/81 288/35/81 285/36/81 281/37/81
f 285/34/84 289/35/84 290/36/84 286/37/84
f 286/34/83 290/35/83 291/36/83 287/37/83
f 287/34/86 291/35/86 292/36/86 288/37/86
f 288/34/85 292/35/85 289/36/85 285/37/85
f 289/34/88 293/35/88 294/36/88 290/37/88
f 290/34/87 294/35/87 295/36/87 291/37/87
f 291/34/90 295/35/90 296/36/90 292/37/90
f 292/34/89 296/35/89 293/36/89 289/37/89
f 293/34/92 297/35/92 298/36/92 294/37/92
f 294/34/91 298/35/91 299/36/91 295/37/91
f 295/34/94 299/35/94 300/36/94 296/37/94
f 296/34/93 300/35/93 297/36/93 293/37/93
f 297/34/96 261/35/96 262/36/96 298/37/96
f 298/34/95 262/35/95 263/36/95 299/37/95
f 299/34/98 263/35/98 264/36/98 300/37/98
f 300/34/97 264/35/97 261/36/97 297/37/97
f 301/34/79 305/35/79 306/36/79 302/37/79
f 302/34/80 306/35/80 307/36/80 303/37/80
f 303/34/81 307/35/81 308/36/81 304/37/81
f 304/34/82 308/35/82 305/36/82 301/37/82
f 305/34/83 309/35/83 310/36/83 306/37/83
f 306/34/84 310/35/84 311/36/84 307/37/84
f 307/34/85 311/35/85 312/36/85 308/37/85
f 308/34/86 312/35/86 309/36/86 305/37/86
f 309/34/87 313/35/87 314/36/87 310/37/87
f 310/34/88 314/35/88 315/36/88 311/37/88
f 311/34/89 315/35/89 316/36/89 312/37/89
f 312/34/90 316/35/90 313/36/90 309/37/90
f 313/34/91 317/35/91 318/36/91 314/37/91
f 314/34/92 318/35/92 319/36/92 315/37/92
f 315/34/93 319/35/93 320/36/93 316/37/93
f 316/34/94 320/35/94 317/36/94 313/37/94
f 317/34/95 321/35/95 322/36/95 318/37/95
f 318/34/96 322/35/96 323/36/96 319/37/96
f 319/34/97 323/35/97 324/36/97 320/37/97
f 320/34/98 324/35/98 321/36/98 317/37/98
f 321/34/80 325/35/80 326/36/80 322/37/80
f 322/34/79 326/35/79 327/36/79 323/37/79
f 323/34/82 327/35/82 328/36/82 324/37/82
f 324/34/81 328/35/81 325/36/81 321/37/81
f 325/34/84 329/35/84 330/36/84 326/37/84
f 326/34/83 330/35/83 331/36/83 327/37/83
f 327/34/86 331/35/86 332/36/86 328/37/86
f 328/34/85 332/35/85 329/36/85 325/37/85
f 329/34/88 333/35/88 334/36/88 330/37/88
f 330/34/87 334/35/87 335/36/87 331/37/87
f 331/34/90 335/35/90 336/36/90 332/37/90
f 332/34/89 336/35/89 333/36/89 329/37/89
f 333/34/92 337/35/92 338/36/92 334/37/92
f 334/34/91 338/35/91 339/36/91 335/37/91
f 335/34/94 339/35/94 340/36/94 336/37/94
f 336/34/93 340/35/93 337/36/93 333/37/93
f 337/34/96 301/35/96 302/36/96 338/37/96
f 338/34/95 302/35/95 303/36/95 339/37/95
f 339/34/98 303/35/98 304/36/98 340/37/98
f 340/34/97 304/35/97 301/36/97 337/37/97
f 341/17/100 354/24/100 353/25/100
f 342/17/101 354/24/101 356/25/101
f 341/17/102 353/24/102 358/25/102
f 341/17/103 358/24/103 360/25/103
f 341/17/104 360/24/104 357/25/104
f 342/17/105 356/24/105 363/25/105
f 343/17/106 355/24/106 365/25/106
f 344/17/107 359/24/107 367/25/107
f 345/17/108 361/24/108 369/25/108
f 346/17/109 362/24/109 371/25/109
f 342/17/110 363/24/110 366/25/110
f 343/17/111 365/24/111 368/25/111
f 344/17/112 367/24/112 370/25/112
f 345/17/113 369/24/113 372/25/113
f 346/17/114 371/24/114 364/25/114
f 347/17/115 373/24/115 378/25/115
f 348/17/116 374/24/116 380/25/116
f 349/17/117 375/24/117 381/25/117
f 350/17/118 376/24/118 382/25/118
f 351/17/119 377/24/119 379/25/119
f 379/17/120 382/24/120 352/25/120
f 379/17/78 377/24/78 382/25/78
f 377/17/121 350/24/121 382/25/121
f 382/17/122 381/24/122 352/25/122
f 382/17/123 376/24/123 381/25/123
f 376/17/124 349/24/124 381/25/124
f 381/17/125 380/24/125 352/25/125
f 381/17/76 375/24/76 380/25/76
f 375/17/126 348/24/126 380/25/126
f 380/17/127 378/24/127 352/25/127
f 380/17/128 374/24/128 378/25/128
f 374/17/129 347/24/129 378/25/129
f 378/17/130 379/24/130 352/25/130
f 378/17/74 373/24/74 379/25/74
f 373/17/131 351/24/131 379/25/131
f 364/17/132 377/24/132 351/25/132
f 364/17/133 371/24/133 377/25/133
f 371/17/134 350/24/134 377/25/134
f 372/17/135 376/24/135 350/25/135
f 372/17/72 369/24/72 376/25/72
f 369/17/136 349/24/136 376/25/136
f 370/17/137 375/24/137 349/25/137
f 370/17/71 367/24/71 375/25/71
f 367/17/138 348/24/138 375/25/138
f 368/17/139 374/24/139 348/25/139
f 368/17/70 365/24/70 374/25/70
f 365/17/140 347/24/140 374/25/140
f 366/17/141 373/24/141 347/25/141
f 366/17/142 363/24/142 373/25/142
f 363/17/143 351/24/143 373/25/143
f 371/17/144 372/24/144 350/25/144
f 371/17/68 362/24/68 372/25/68
f 362/17/145 345/24/145 372/25/145
f 369/17/146 370/24/146 349/25/146
f 369/17/147 361/24/147 370/25/147
f 361/17/148 344/24/148 370/25/148
f 367/17/149 368/24/149 348/25/149
f 367/17/150 359/24/150 368/25/150
f 359/17/151 343/24/151 368/25/151
f 365/17/152 366/24/152 347/25/152
f 365/17/65 355/24/65 366/25/65
f 355/17/153 342/24/153 366/25/153
f 363/17/154 364/24/154 351/25/154
f 363/17/64 356/24/64 364/25/64
f 356/17/155 346/24/155 364/25/155
f 357/17/156 362/24/156 346/25/156
f 357/17/157 360/24/157 362/25/157
f 360/17/158 345/24/158 362/25/158
f 360/17/159 361/24/159 345/25/159
f 360/17/62 358/24/62 361/25/62
f 358/17/160 344/24/160 361/25/160
f 358/17/161 359/24/161 344/25/161
f 358/17/61 353/24/61 359/25/61
f 353/17/162 343/24/162 359/25/162
f 356/17/163 357/24/163 346/25/163
f 356/17/60 354/24/60 357/25/60
f 354/17/164 341/24/164 357/25/164
f 353/17/165 355/24/165 343/25/165
f 353/17/166 354/24/166 355/25/166
f 354/17/167 342/24/167 355/25/167
