# Blender 5.0.1
# www.blender.org
mtllib gate_finish.mtl
o gate_finish_Main
v -13.330000 0.000000 0.680000
v -13.330000 0.120000 0.800000
v -13.450000 0.120000 0.680000
v -13.330000 13.880000 0.800000
v -13.330000 14.000000 0.680000
v -13.450000 13.880000 0.680000
v -13.330000 0.000000 -0.680000
v -13.450000 0.120000 -0.680000
v -13.330000 0.120000 -0.800000
v -13.330000 14.000000 -0.680000
v -13.330000 13.880000 -0.800000
v -13.450000 13.880000 -0.680000
v -11.969999 0.000000 0.680000
v -11.849999 0.120000 0.680000
v -11.969999 0.120000 0.800000
v -11.969999 14.000000 0.680000
v -11.969999 13.880000 0.800000
v -11.849999 13.880000 0.680000
v -11.969999 0.000000 -0.680000
v -11.969999 0.120000 -0.800000
v -11.849999 0.120000 -0.680000
v -11.969999 14.000000 -0.680000
v -11.849999 13.880000 -0.680000
v -11.969999 13.880000 -0.800000
v -13.650000 0.000000 1.000000
v -13.650000 0.100000 1.100000
v -13.750000 0.100000 1.000000
v -13.650000 0.500000 1.100000
v -13.650000 0.600000 1.000000
v -13.750000 0.500000 1.000000
v -13.650000 0.000000 -1.000000
v -13.750000 0.100000 -1.000000
v -13.650000 0.100000 -1.100000
v -13.650000 0.600000 -1.000000
v -13.650000 0.500000 -1.100000
v -13.750000 0.500000 -1.000000
v -11.650000 0.000000 1.000000
v -11.549999 0.100000 1.000000
v -11.650000 0.100000 1.100000
v -11.650000 0.600000 1.000000
v -11.650000 0.500000 1.100000
v -11.549999 0.500000 1.000000
v -11.650000 0.000000 -1.000000
v -11.650000 0.100000 -1.100000
v -11.549999 0.100000 -1.000000
v -11.650000 0.600000 -1.000000
v -11.549999 0.500000 -1.000000
v -11.650000 0.500000 -1.100000
v -13.520000 14.000000 0.870000
v -13.520000 14.080000 0.950000
v -13.599999 14.080000 0.870000
v -13.520000 14.219999 0.950000
v -13.520000 14.299999 0.870000
v -13.599999 14.219999 0.870000
v -13.520000 14.000000 -0.870000
v -13.599999 14.080000 -0.870000
v -13.520000 14.080000 -0.950000
v -13.520000 14.299999 -0.870000
v -13.520000 14.219999 -0.950000
v -13.599999 14.219999 -0.870000
v -11.780000 14.000000 0.870000
v -11.700000 14.080000 0.870000
v -11.780000 14.080000 0.950000
v -11.780000 14.299999 0.870000
v -11.780000 14.219999 0.950000
v -11.700000 14.219999 0.870000
v -11.780000 14.000000 -0.870000
v -11.780000 14.080000 -0.950000
v -11.700000 14.080000 -0.870000
v -11.780000 14.299999 -0.870000
v -11.700000 14.219999 -0.870000
v -11.780000 14.219999 -0.950000
v -12.650000 14.200001 -0.100000
v -12.650000 18.200001 -0.100000
v -12.563397 14.200001 -0.050000
v -12.563397 18.200001 -0.050000
v -12.563397 14.200001 0.050000
v -12.563397 18.200001 0.050000
v -12.650000 14.200001 0.100000
v -12.650000 18.200001 0.100000
v -12.736602 14.200001 0.050000
v -12.736602 18.200001 0.050000
v -12.736602 14.200001 -0.050000
v -12.736602 18.200001 -0.050000
v -12.650000 16.400000 0.030000
v -10.250000 17.200001 0.030000
v -12.650000 18.000000 0.030000
v -12.650000 16.400000 -0.030000
v -10.250000 17.200001 -0.030000
v -12.650000 18.000000 -0.030000
v 10.670000 0.000000 0.680000
v 10.670000 0.120000 0.800000
v 10.550001 0.120000 0.680000
v 10.670000 13.880000 0.800000
v 10.670000 14.000000 0.680000
v 10.550001 13.880000 0.680000
v 10.670000 0.000000 -0.680000
v 10.550001 0.120000 -0.680000
v 10.670000 0.120000 -0.800000
v 10.670000 14.000000 -0.680000
v 10.670000 13.880000 -0.800000
v 10.550001 13.880000 -0.680000
v 12.030001 0.000000 0.680000
v 12.150000 0.120000 0.680000
v 12.030001 0.120000 0.800000
v 12.030001 14.000000 0.680000
v 12.030001 13.880000 0.800000
v 12.150000 13.880000 0.680000
v 12.030001 0.000000 -0.680000
v 12.030001 0.120000 -0.800000
v 12.150000 0.120000 -0.680000
v 12.030001 14.000000 -0.680000
v 12.150000 13.880000 -0.680000
v 12.030001 13.880000 -0.800000
v 10.350000 0.000000 1.000000
v 10.350000 0.100000 1.100000
v 10.250000 0.100000 1.000000
v 10.350000 0.500000 1.100000
v 10.350000 0.600000 1.000000
v 10.250000 0.500000 1.000000
v 10.350000 0.000000 -1.000000
v 10.250000 0.100000 -1.000000
v 10.350000 0.100000 -1.100000
v 10.350000 0.600000 -1.000000
v 10.350000 0.500000 -1.100000
v 10.250000 0.500000 -1.000000
v 12.350000 0.000000 1.000000
v 12.450001 0.100000 1.000000
v 12.350000 0.100000 1.100000
v 12.350000 0.600000 1.000000
v 12.350000 0.500000 1.100000
v 12.450001 0.500000 1.000000
v 12.350000 0.000000 -1.000000
v 12.350000 0.100000 -1.100000
v 12.450001 0.100000 -1.000000
v 12.350000 0.600000 -1.000000
v 12.450001 0.500000 -1.000000
v 12.350000 0.500000 -1.100000
v 10.480000 14.000000 0.870000
v 10.480000 14.080000 0.950000
v 10.400000 14.080000 0.870000
v 10.480000 14.219999 0.950000
v 10.480000 14.299999 0.870000
v 10.400000 14.219999 0.870000
v 10.480000 14.000000 -0.870000
v 10.400000 14.080000 -0.870000
v 10.480000 14.080000 -0.950000
v 10.480000 14.299999 -0.870000
v 10.480000 14.219999 -0.950000
v 10.400000 14.219999 -0.870000
v 12.220001 14.000000 0.870000
v 12.300001 14.080000 0.870000
v 12.220001 14.080000 0.950000
v 12.220001 14.299999 0.870000
v 12.220001 14.219999 0.950000
v 12.300001 14.219999 0.870000
v 12.220001 14.000000 -0.870000
v 12.220001 14.080000 -0.950000
v 12.300001 14.080000 -0.870000
v 12.220001 14.299999 -0.870000
v 12.300001 14.219999 -0.870000
v 12.220001 14.219999 -0.950000
v 11.350000 14.200001 -0.100000
v 11.350000 18.200001 -0.100000
v 11.436604 14.200001 -0.050000
v 11.436604 18.200001 -0.050000
v 11.436604 14.200001 0.050000
v 11.436604 18.200001 0.050000
v 11.350000 14.200001 0.100000
v 11.350000 18.200001 0.100000
v 11.263397 14.200001 0.050000
v 11.263397 18.200001 0.050000
v 11.263397 14.200001 -0.050000
v 11.263397 18.200001 -0.050000
v 11.350000 16.400000 0.030000
v 13.750000 17.200001 0.030000
v 11.350000 18.000000 0.030000
v 11.350000 16.400000 -0.030000
v 13.750000 17.200001 -0.030000
v 11.350000 18.000000 -0.030000
vn -0.5773 -0.5774 0.5774
vn -0.5774 0.5773 0.5773
vn -0.5773 -0.5774 -0.5774
vn -0.5774 0.5773 -0.5773
vn 0.5774 -0.5774 0.5773
vn 0.5774 0.5773 0.5773
vn 0.5774 -0.5774 -0.5773
vn 0.5774 0.5773 -0.5773
vn -0.7071 -0.7071 -0.0000
vn -0.7071 -0.0000 0.7071
vn -0.7071 0.7071 -0.0000
vn -0.7071 -0.0000 -0.7071
vn -0.0000 -0.7071 -0.7071
vn -0.0000 0.7071 -0.7071
vn 0.7071 -0.0000 -0.7071
vn 0.7071 -0.7071 -0.0000
vn 0.7071 0.7071 -0.0000
vn 0.7071 -0.0000 0.7071
vn -0.0000 -0.7071 0.7071
vn -0.0000 0.7071 0.7071
vn -0.0000 -1.0000 -0.0000
vn -1.0000 -0.0000 -0.0000
vn -0.0000 -0.0000 1.0000
vn -0.0000 1.0000 -0.0000
vn -0.0000 -0.0000 -1.0000
vn 1.0000 -0.0000 -0.0000
vn -0.5773 -0.5773 0.5774
vn -0.5773 0.5773 0.5774
vn -0.5773 -0.5773 -0.5774
vn -0.5773 0.5773 -0.5774
vn 0.5774 0.5774 0.5773
vn 0.5774 0.5774 -0.5773
vn -0.5774 0.5773 0.5774
vn -0.5774 0.5773 -0.5774
vn 0.5773 -0.5774 0.5774
vn 0.5773 -0.5774 -0.5774
vn 0.5000 -0.0000 -0.8660
vn 0.5000 -0.0000 0.8660
vn -0.5000 -0.0000 0.8660
vn -0.5000 -0.0000 -0.8660
vn 0.3162 -0.9487 -0.0000
vn 0.3162 0.9487 -0.0000
vn -0.5774 -0.5773 0.5774
vn -0.5774 -0.5773 -0.5774
vt 0.212500 0.500000
vt 0.175000 0.524744
vt 0.175000 0.475256
vt 0.462500 0.071429
vt 0.425000 0.096172
vt 0.425000 0.046685
vt 0.087500 0.500000
vt 0.050000 0.524744
vt 0.050000 0.475256
vt 0.837500 0.071429
vt 0.800000 0.096172
vt 0.800000 0.046685
s 0
usemtl Palette
f 1/1/1 2/2/1 3/3/1
f 4/1/2 5/2/2 6/3/2
f 7/1/3 8/2/3 9/3/3
f 10/1/4 11/2/4 12/3/4
f 13/1/5 14/2/5 15/3/5
f 16/1/6 17/2/6 18/3/6
f 19/1/7 20/2/7 21/3/7
f 22/1/8 23/2/8 24/3/8
f 1/1/9 8/2/9 7/3/9
f 4/1/10 3/2/10 2/3/10
f 10/1/11 6/2/11 5/3/11
f 9/1/12 12/2/12 11/3/12
f 7/1/13 20/2/13 19/3/13
f 22/1/14 11/2/14 10/3/14
f 21/1/15 24/2/15 23/3/15
f 19/1/16 14/2/16 13/3/16
f 16/1/17 23/2/17 22/3/17
f 15/1/18 18/2/18 17/3/18
f 13/1/19 2/2/19 1/3/19
f 5/1/20 17/2/20 16/3/20
f 19/1/21 1/2/21 7/3/21
f 6/1/22 8/2/22 3/3/22
f 17/1/23 2/2/23 15/3/23
f 10/1/24 16/2/24 22/3/24
f 11/1/25 20/2/25 9/3/25
f 23/1/26 14/2/26 21/3/26
f 25/4/27 26/5/27 27/6/27
f 28/4/28 29/5/28 30/6/28
f 31/4/29 32/5/29 33/6/29
f 34/4/30 35/5/30 36/6/30
f 37/4/5 38/5/5 39/6/5
f 40/4/31 41/5/31 42/6/31
f 43/4/7 44/5/7 45/6/7
f 46/4/32 47/5/32 48/6/32
f 25/4/9 32/5/9 31/6/9
f 28/4/10 27/5/10 26/6/10
f 34/4/11 30/5/11 29/6/11
f 33/4/12 36/5/12 35/6/12
f 31/4/13 44/5/13 43/6/13
f 46/4/14 35/5/14 34/6/14
f 45/4/15 48/5/15 47/6/15
f 43/4/16 38/5/16 37/6/16
f 40/4/17 47/5/17 46/6/17
f 39/4/18 42/5/18 41/6/18
f 37/4/19 26/5/19 25/6/19
f 29/4/20 41/5/20 40/6/20
f 43/4/21 25/5/21 31/6/21
f 30/4/22 32/5/22 27/6/22
f 41/4/23 26/5/23 39/6/23
f 34/4/24 40/5/24 46/6/24
f 35/4/25 44/5/25 33/6/25
f 47/4/26 38/5/26 45/6/26
f 49/4/1 50/5/1 51/6/1
f 52/4/33 53/5/33 54/6/33
f 55/4/3 56/5/3 57/6/3
f 58/4/34 59/5/34 60/6/34
f 61/4/35 62/5/35 63/6/35
f 64/4/6 65/5/6 66/6/6
f 67/4/36 68/5/36 69/6/36
f 70/4/8 71/5/8 72/6/8
f 49/4/9 56/5/9 55/6/9
f 52/4/10 51/5/10 50/6/10
f 58/4/11 54/5/11 53/6/11
f 57/4/12 60/5/12 59/6/12
f 55/4/13 68/5/13 67/6/13
f 70/4/14 59/5/14 58/6/14
f 69/4/15 72/5/15 71/6/15
f 67/4/16 62/5/16 61/6/16
f 64/4/17 71/5/17 70/6/17
f 63/4/18 66/5/18 65/6/18
f 61/4/19 50/5/19 49/6/19
f 53/4/20 65/5/20 64/6/20
f 67/4/21 49/5/21 55/6/21
f 54/4/22 56/5/22 51/6/22
f 65/4/23 50/5/23 63/6/23
f 58/4/24 64/5/24 70/6/24
f 59/4/25 68/5/25 57/6/25
f 71/4/26 62/5/26 69/6/26
f 74/7/37 75/8/37 73/9/37
f 76/7/26 77/8/26 75/9/26
f 78/7/38 79/8/38 77/9/38
f 80/7/39 81/8/39 79/9/39
f 82/7/24 80/8/24 78/9/24
f 82/7/22 83/8/22 81/9/22
f 84/7/40 73/8/40 83/9/40
f 81/7/21 83/8/21 75/9/21
f 85/10/23 86/11/23 87/12/23
f 90/10/25 89/11/25 88/12/25
f 88/10/41 86/11/41 85/12/41
f 89/10/42 87/11/42 86/12/42
f 90/10/22 85/11/22 87/12/22
f 91/1/43 92/2/43 93/3/43
f 94/1/2 95/2/2 96/3/2
f 97/1/44 98/2/44 99/3/44
f 100/1/4 101/2/4 102/3/4
f 103/1/5 104/2/5 105/3/5
f 106/1/6 107/2/6 108/3/6
f 109/1/7 110/2/7 111/3/7
f 112/1/8 113/2/8 114/3/8
f 91/1/9 98/2/9 97/3/9
f 94/1/10 93/2/10 92/3/10
f 100/1/11 96/2/11 95/3/11
f 99/1/12 102/2/12 101/3/12
f 97/1/13 110/2/13 109/3/13
f 112/1/14 101/2/14 100/3/14
f 111/1/15 114/2/15 113/3/15
f 109/1/16 104/2/16 103/3/16
f 106/1/17 113/2/17 112/3/17
f 105/1/18 108/2/18 107/3/18
f 103/1/19 92/2/19 91/3/19
f 95/1/20 107/2/20 106/3/20
f 109/1/21 91/2/21 97/3/21
f 96/1/22 98/2/22 93/3/22
f 107/1/23 92/2/23 105/3/23
f 100/1/24 106/2/24 112/3/24
f 101/1/25 110/2/25 99/3/25
f 113/1/26 104/2/26 111/3/26
f 115/4/27 116/5/27 117/6/27
f 118/4/28 119/5/28 120/6/28
f 121/4/29 122/5/29 123/6/29
f 124/4/30 125/5/30 126/6/30
f 127/4/5 128/5/5 129/6/5
f 130/4/31 131/5/31 132/6/31
f 133/4/7 134/5/7 135/6/7
f 136/4/32 137/5/32 138/6/32
f 115/4/9 122/5/9 121/6/9
f 118/4/10 117/5/10 116/6/10
f 124/4/11 120/5/11 119/6/11
f 123/4/12 126/5/12 125/6/12
f 121/4/13 134/5/13 133/6/13
f 136/4/14 125/5/14 124/6/14
f 135/4/15 138/5/15 137/6/15
f 133/4/16 128/5/16 127/6/16
f 130/4/17 137/5/17 136/6/17
f 129/4/18 132/5/18 131/6/18
f 127/4/19 116/5/19 115/6/19
f 119/4/20 131/5/20 130/6/20
f 133/4/21 115/5/21 121/6/21
f 120/4/22 122/5/22 117/6/22
f 131/4/23 116/5/23 129/6/23
f 124/4/24 130/5/24 136/6/24
f 125/4/25 134/5/25 123/6/25
f 137/4/26 128/5/26 135/6/26
f 139/4/1 140/5/1 141/6/1
f 142/4/2 143/5/2 144/6/2
f 145/4/3 146/5/3 147/6/3
f 148/4/4 149/5/4 150/6/4
f 151/4/35 152/5/35 153/6/35
f 154/4/6 155/5/6 156/6/6
f 157/4/36 158/5/36 159/6/36
f 160/4/8 161/5/8 162/6/8
f 139/4/9 146/5/9 145/6/9
f 142/4/10 141/5/10 140/6/10
f 148/4/11 144/5/11 143/6/11
f 147/4/12 150/5/12 149/6/12
f 145/4/13 158/5/13 157/6/13
f 160/4/14 149/5/14 148/6/14
f 159/4/15 162/5/15 161/6/15
f 157/4/16 152/5/16 151/6/16
f 154/4/17 161/5/17 160/6/17
f 153/4/18 156/5/18 155/6/18
f 151/4/19 140/5/19 139/6/19
f 143/4/20 155/5/20 154/6/20
f 157/4/21 139/5/21 145/6/21
f 144/4/22 146/5/22 141/6/22
f 155/4/23 140/5/23 153/6/23
f 148/4/24 154/5/24 160/6/24
f 149/4/25 158/5/25 147/6/25
f 161/4/26 152/5/26 159/6/26
f 164/7/37 165/8/37 163/9/37
f 166/7/26 167/8/26 165/9/26
f 168/7/38 169/8/38 167/9/38
f 170/7/39 171/8/39 169/9/39
f 170/7/24 168/8/24 164/9/24
f 172/7/22 173/8/22 171/9/22
f 174/7/40 163/8/40 173/9/40
f 169/7/21 171/8/21 173/9/21
f 175/10/23 176/11/23 177/12/23
f 180/10/25 179/11/25 178/12/25
f 178/10/41 176/11/41 175/12/41
f 179/10/42 177/11/42 176/12/42
f 180/10/22 175/11/22 177/12/22
f 1/1/9 3/2/9 8/3/9
f 4/1/10 6/2/10 3/3/10
f 10/1/11 12/2/11 6/3/11
f 9/1/12 8/2/12 12/3/12
f 7/1/13 9/2/13 20/3/13
f 22/1/14 24/2/14 11/3/14
f 21/1/15 20/2/15 24/3/15
f 19/1/16 21/2/16 14/3/16
f 16/1/17 18/2/17 23/3/17
f 15/1/18 14/2/18 18/3/18
f 13/1/19 15/2/19 2/3/19
f 5/1/20 4/2/20 17/3/20
f 19/1/21 13/2/21 1/3/21
f 6/1/22 12/2/22 8/3/22
f 17/1/23 4/2/23 2/3/23
f 10/1/24 5/2/24 16/3/24
f 11/1/25 24/2/25 20/3/25
f 23/1/26 18/2/26 14/3/26
f 25/4/9 27/5/9 32/6/9
f 28/4/10 30/5/10 27/6/10
f 34/4/11 36/5/11 30/6/11
f 33/4/12 32/5/12 36/6/12
f 31/4/13 33/5/13 44/6/13
f 46/4/14 48/5/14 35/6/14
f 45/4/15 44/5/15 48/6/15
f 43/4/16 45/5/16 38/6/16
f 40/4/17 42/5/17 47/6/17
f 39/4/18 38/5/18 42/6/18
f 37/4/19 39/5/19 26/6/19
f 29/4/20 28/5/20 41/6/20
f 43/4/21 37/5/21 25/6/21
f 30/4/22 36/5/22 32/6/22
f 41/4/23 28/5/23 26/6/23
f 34/4/24 29/5/24 40/6/24
f 35/4/25 48/5/25 44/6/25
f 47/4/26 42/5/26 38/6/26
f 49/4/9 51/5/9 56/6/9
f 52/4/10 54/5/10 51/6/10
f 58/4/11 60/5/11 54/6/11
f 57/4/12 56/5/12 60/6/12
f 55/4/13 57/5/13 68/6/13
f 70/4/14 72/5/14 59/6/14
f 69/4/15 68/5/15 72/6/15
f 67/4/16 69/5/16 62/6/16
f 64/4/17 66/5/17 71/6/17
f 63/4/18 62/5/18 66/6/18
f 61/4/19 63/5/19 50/6/19
f 53/4/20 52/5/20 65/6/20
f 67/4/21 61/5/21 49/6/21
f 54/4/22 60/5/22 56/6/22
f 65/4/23 52/5/23 50/6/23
f 58/4/24 53/5/24 64/6/24
f 59/4/25 72/5/25 68/6/25
f 71/4/26 66/5/26 62/6/26
f 74/7/37 76/8/37 75/9/37
f 76/7/26 78/8/26 77/9/26
f 78/7/38 80/8/38 79/9/38
f 80/7/39 82/8/39 81/9/39
f 78/7/24 76/8/24 82/9/24
f 76/7/24 74/8/24 82/9/24
f 74/7/24 84/8/24 82/9/24
f 82/7/22 84/8/22 83/9/22
f 84/7/40 74/8/40 73/9/40
f 83/7/21 73/8/21 75/9/21
f 75/7/21 77/8/21 79/9/21
f 79/7/21 81/8/21 75/9/21
f 88/10/41 89/11/41 86/12/41
f 89/10/42 90/11/42 87/12/42
f 90/10/22 88/11/22 85/12/22
f 91/1/9 93/2/9 98/3/9
f 94/1/10 96/2/10 93/3/10
f 100/1/11 102/2/11 96/3/11
f 99/1/12 98/2/12 102/3/12
f 97/1/13 99/2/13 110/3/13
f 112/1/14 114/2/14 101/3/14
f 111/1/15 110/2/15 114/3/15
f 109/1/16 111/2/16 104/3/16
f 106/1/17 108/2/17 113/3/17
f 105/1/18 104/2/18 108/3/18
f 103/1/19 105/2/19 92/3/19
f 95/1/20 94/2/20 107/3/20
f 109/1/21 103/2/21 91/3/21
f 96/1/22 102/2/22 98/3/22
f 107/1/23 94/2/23 92/3/23
f 100/1/24 95/2/24 106/3/24
f 101/1/25 114/2/25 110/3/25
f 113/1/26 108/2/26 104/3/26
f 115/4/9 117/5/9 122/6/9
f 118/4/10 120/5/10 117/6/10
f 124/4/11 126/5/11 120/6/11
f 123/4/12 122/5/12 126/6/12
f 121/4/13 123/5/13 134/6/13
f 136/4/14 138/5/14 125/6/14
f 135/4/15 134/5/15 138/6/15
f 133/4/16 135/5/16 128/6/16
f 130/4/17 132/5/17 137/6/17
f 129/4/18 128/5/18 132/6/18
f 127/4/19 129/5/19 116/6/19
f 119/4/20 118/5/20 131/6/20
f 133/4/21 127/5/21 115/6/21
f 120/4/22 126/5/22 122/6/22
f 131/4/23 118/5/23 116/6/23
f 124/4/24 119/5/24 130/6/24
f 125/4/25 138/5/25 134/6/25
f 137/4/26 132/5/26 128/6/26
f 139/4/9 141/5/9 146/6/9
f 142/4/10 144/5/10 141/6/10
f 148/4/11 150/5/11 144/6/11
f 147/4/12 146/5/12 150/6/12
f 145/4/13 147/5/13 158/6/13
f 160/4/14 162/5/14 149/6/14
f 159/4/15 158/5/15 162/6/15
f 157/4/16 159/5/16 152/6/16
f 154/4/17 156/5/17 161/6/17
f 153/4/18 152/5/18 156/6/18
f 151/4/19 153/5/19 140/6/19
f 143/4/20 142/5/20 155/6/20
f 157/4/21 151/5/21 139/6/21
f 144/4/22 150/5/22 146/6/22
f 155/4/23 142/5/23 140/6/23
f 148/4/24 143/5/24 154/6/24
f 149/4/25 162/5/25 158/6/25
f 161/4/26 156/5/26 152/6/26
f 164/7/37 166/8/37 165/9/37
f 166/7/26 168/8/26 167/9/26
f 168/7/38 170/8/38 169/9/38
f 170/7/39 172/8/39 171/9/39
f 168/7/24 166/8/24 164/9/24
f 164/7/24 174/8/24 172/9/24
f 172/7/24 170/8/24 164/9/24
f 172/7/22 174/8/22 173/9/22
f 174/7/40 164/8/40 163/9/40
f 173/7/21 163/8/21 169/9/21
f 163/7/21 165/8/21 169/9/21
f 165/7/21 167/8/21 169/9/21
f 178/10/41 179/11/41 176/12/41
f 179/10/42 180/11/42 177/12/42
f 180/10/22 178/11/22 175/12/22
o gate_finish_Neon_glow_cyan
v -12.799999 2.850000 0.820000
v -12.799999 3.150000 0.820000
v -12.799999 2.850000 -0.820000
v -12.799999 3.150000 -0.820000
v -12.500000 2.850000 0.820000
v -12.500000 3.150000 0.820000
v -12.500000 2.850000 -0.820000
v -12.500000 3.150000 -0.820000
v -12.799999 5.850000 0.820000
v -12.799999 6.150000 0.820000
v -12.799999 5.850000 -0.820000
v -12.799999 6.150000 -0.820000
v -12.500000 5.850000 0.820000
v -12.500000 6.150000 0.820000
v -12.500000 5.850000 -0.820000
v -12.500000 6.150000 -0.820000
v -12.799999 8.850000 0.820000
v -12.799999 9.150000 0.820000
v -12.799999 8.850000 -0.820000
v -12.799999 9.150000 -0.820000
v -12.500000 8.850000 0.820000
v -12.500000 9.150000 0.820000
v -12.500000 8.850000 -0.820000
v -12.500000 9.150000 -0.820000
v 11.200001 2.850000 0.820000
v 11.200001 3.150000 0.820000
v 11.200001 2.850000 -0.820000
v 11.200001 3.150000 -0.820000
v 11.500000 2.850000 0.820000
v 11.500000 3.150000 0.820000
v 11.500000 2.850000 -0.820000
v 11.500000 3.150000 -0.820000
v 11.200001 5.850000 0.820000
v 11.200001 6.150000 0.820000
v 11.200001 5.850000 -0.820000
v 11.200001 6.150000 -0.820000
v 11.500000 5.850000 0.820000
v 11.500000 6.150000 0.820000
v 11.500000 5.850000 -0.820000
v 11.500000 6.150000 -0.820000
v 11.200001 8.850000 0.820000
v 11.200001 9.150000 0.820000
v 11.200001 8.850000 -0.820000
v 11.200001 9.150000 -0.820000
v 11.500000 8.850000 0.820000
v 11.500000 9.150000 0.820000
v 11.500000 8.850000 -0.820000
v 11.500000 9.150000 -0.820000
vn -1.0000 -0.0000 -0.0000
vn -0.0000 -0.0000 -1.0000
vn 1.0000 -0.0000 -0.0000
vn -0.0000 -0.0000 1.0000
vn -0.0000 -1.0000 -0.0000
vn -0.0000 1.0000 -0.0000
vt 0.337500 0.500000
vt 0.300000 0.524744
vt 0.300000 0.475256
s 0
usemtl Palette
f 182/13/45 183/14/45 181/15/45
f 184/13/46 187/14/46 183/15/46
f 188/13/47 185/14/47 187/15/47
f 186/13/48 181/14/48 185/15/48
f 187/13/49 181/14/49 183/15/49
f 184/13/50 186/14/50 188/15/50
f 190/13/45 191/14/45 189/15/45
f 192/13/46 195/14/46 191/15/46
f 196/13/47 193/14/47 195/15/47
f 194/13/48 189/14/48 193/15/48
f 195/13/49 189/14/49 191/15/49
f 192/13/50 194/14/50 196/15/50
f 198/13/45 199/14/45 197/15/45
f 200/13/46 203/14/46 199/15/46
f 204/13/47 201/14/47 203/15/47
f 202/13/48 197/14/48 201/15/48
f 203/13/49 197/14/49 199/15/49
f 200/13/50 202/14/50 204/15/50
f 206/13/45 207/14/45 205/15/45
f 208/13/46 211/14/46 207/15/46
f 212/13/47 209/14/47 211/15/47
f 210/13/48 205/14/48 209/15/48
f 211/13/49 205/14/49 207/15/49
f 208/13/50 210/14/50 212/15/50
f 214/13/45 215/14/45 213/15/45
f 216/13/46 219/14/46 215/15/46
f 220/13/47 217/14/47 219/15/47
f 218/13/48 213/14/48 217/15/48
f 219/13/49 213/14/49 215/15/49
f 216/13/50 218/14/50 220/15/50
f 222/13/45 223/14/45 221/15/45
f 224/13/46 227/14/46 223/15/46
f 228/13/47 225/14/47 227/15/47
f 226/13/48 221/14/48 225/15/48
f 227/13/49 221/14/49 223/15/49
f 224/13/50 226/14/50 228/15/50
f 182/13/45 184/14/45 183/15/45
f 184/13/46 188/14/46 187/15/46
f 188/13/47 186/14/47 185/15/47
f 186/13/48 182/14/48 181/15/48
f 187/13/49 185/14/49 181/15/49
f 184/13/50 182/14/50 186/15/50
f 190/13/45 192/14/45 191/15/45
f 192/13/46 196/14/46 195/15/46
f 196/13/47 194/14/47 193/15/47
f 194/13/48 190/14/48 189/15/48
f 195/13/49 193/14/49 189/15/49
f 192/13/50 190/14/50 194/15/50
f 198/13/45 200/14/45 199/15/45
f 200/13/46 204/14/46 203/15/46
f 204/13/47 202/14/47 201/15/47
f 202/13/48 198/14/48 197/15/48
f 203/13/49 201/14/49 197/15/49
f 200/13/50 198/14/50 202/15/50
f 206/13/45 208/14/45 207/15/45
f 208/13/46 212/14/46 211/15/46
f 212/13/47 210/14/47 209/15/47
f 210/13/48 206/14/48 205/15/48
f 211/13/49 209/14/49 205/15/49
f 208/13/50 206/14/50 210/15/50
f 214/13/45 216/14/45 215/15/45
f 216/13/46 220/14/46 219/15/46
f 220/13/47 218/14/47 217/15/47
f 218/13/48 214/14/48 213/15/48
f 219/13/49 217/14/49 213/15/49
f 216/13/50 214/14/50 218/15/50
f 222/13/45 224/14/45 223/15/45
f 224/13/46 228/14/46 227/15/46
f 228/13/47 226/14/47 225/15/47
f 226/13/48 222/14/48 221/15/48
f 227/13/49 225/14/49 221/15/49
f 224/13/50 222/14/50 226/15/50
o gate_finish_gate_finish_banner
v -11.849999 9.480000 0.200000
v -11.849999 13.400000 0.200000
v -11.849999 9.480000 -0.200000
v -11.849999 13.400000 -0.200000
v 10.550000 9.480000 0.200000
v 10.550000 13.400000 0.200000
v 10.550000 9.480000 -0.200000
v 10.550000 13.400000 -0.200000
vn -1.0000 -0.0000 -0.0000
vn -0.0000 -0.0000 -1.0000
vn 1.0000 -0.0000 -0.0000
vn -0.0000 -0.0000 1.0000
vn -0.0000 -1.0000 -0.0000
vn -0.0000 1.0000 -0.0000
vt 0.020000 0.500000
vt 1.000000 1.000000
vt 0.000000 0.000000
vt 1.000000 0.000000
vt 0.000000 0.000000
vt 0.000000 1.000000
vt 0.000000 1.000000
s 0
usemtl tex_gate_finish_banner.png
f 230/16/51 231/16/51 229/16/51
f 232/17/52 235/18/52 231/19/52
f 236/16/53 233/16/53 235/16/53
f 234/17/54 229/20/54 233/19/54
f 235/16/55 229/16/55 231/16/55
f 232/16/56 234/16/56 236/16/56
f 230/16/51 232/16/51 231/16/51
f 232/17/52 236/21/52 235/18/52
f 236/16/53 234/16/53 233/16/53
f 234/17/54 230/22/54 229/20/54
f 235/16/55 233/16/55 229/16/55
f 232/16/56 230/16/56 234/16/56
