# Blender 5.0.1
# www.blender.org
mtllib pine_leaning.mtl
o pine_leaning
v 0.093430 0.059798 -0.455291
v 0.012708 4.050266 -0.408231
v 0.450752 0.069489 -0.345813
v 0.350201 4.086586 -0.212324
v 0.523992 0.000494 0.088774
v 0.335644 4.144922 -0.001284
v 0.279725 0.059683 0.413397
v 0.188622 4.109283 0.282049
v -0.164164 0.023181 0.427040
v -0.107676 4.156137 0.247165
v -0.394803 0.060859 0.077661
v -0.219453 4.152807 0.035306
v -0.367116 0.000000 -0.293238
v -0.162601 4.123590 -0.258241
v -0.140976 3.220183 -0.155301
v -0.189251 2.659874 -3.683624
v -0.247215 3.506124 -2.763491
v -0.285269 4.594205 -2.097751
v 0.171058 5.913574 -1.273529
v -0.091350 7.223207 0.013727
v -3.140780 2.808837 -2.358173
v -2.154466 3.733627 -1.547950
v -1.430824 4.543112 -1.202810
v -0.820233 5.806960 -0.747139
v -3.719726 2.630338 1.052717
v -2.840817 3.848276 0.652449
v -1.608021 4.605842 0.647724
v -0.979463 5.738994 0.352962
v -1.237763 3.075958 3.683624
v -1.135948 3.572855 2.502365
v -0.819996 4.561200 1.944959
v -0.372830 5.710299 0.998726
v 2.100061 2.796097 3.265146
v 1.325070 3.817613 2.407713
v 0.791482 4.538784 1.597240
v 0.679409 6.009801 0.956663
v 3.719726 2.784472 0.429713
v 2.759519 3.681182 0.505007
v 2.206291 4.501801 0.379702
v 1.147624 5.735857 0.278637
v 3.035053 2.750507 -2.643970
v 2.036888 3.722961 -1.852878
v 1.266737 4.549404 -1.387228
v 0.927548 5.989489 -0.968246
v 0.113811 5.884176 -0.220521
v 3.062017 5.413638 -0.129918
v 2.504722 5.949632 -0.253256
v 1.613839 7.038663 -0.217096
v 0.953767 7.997705 -0.314246
v 0.074645 9.199617 -0.162133
v 1.648812 5.048313 -2.602923
v 1.365835 5.872942 -1.918723
v 0.863331 6.746954 -1.471224
v 0.597089 7.980554 -1.061930
v -0.857754 5.248421 -2.777807
v -0.586150 5.839046 -2.324236
v -0.319901 6.847071 -1.718559
v -0.294775 8.084714 -1.098101
v -2.516113 5.073175 -1.119714
v -1.925600 5.970475 -1.118403
v -1.351993 6.956568 -0.671546
v -0.733564 7.849574 -0.590888
v -2.446198 5.389504 1.339568
v -2.152589 6.081398 0.927689
v -1.458551 7.003541 0.626317
v -0.742058 8.028035 0.334754
v -0.423617 5.391154 2.810013
v -0.494319 6.055973 2.028416
v -0.155529 6.996219 1.430512
v -0.252633 8.107662 0.687804
v 2.047175 5.411406 2.290271
v 1.592719 6.023926 1.570890
v 0.894629 7.151588 0.861940
v 0.733500 7.965584 0.322329
v -0.075172 7.800480 -0.221292
v -2.203798 7.491166 -0.099470
v -1.717712 7.992293 -0.174314
v -1.127187 9.080041 -0.256871
v -0.484675 9.999786 -0.235676
v 0.099409 10.978730 -0.436101
v -1.535416 7.493287 1.260520
v -1.182012 8.295846 0.955506
v -0.848061 9.120638 0.411502
v -0.521107 9.859994 -0.066687
v -0.213257 7.556361 1.841649
v -0.204514 8.306927 1.334725
v -0.074891 8.992909 0.891541
v -0.120331 10.020029 0.221060
v 1.065041 7.598883 1.621945
v 0.923042 8.143529 1.341642
v 0.478237 9.131775 0.641315
v 0.458925 9.932876 0.107152
v 1.940419 7.520037 0.634988
v 1.492193 8.101920 0.470151
v 1.135696 9.032949 0.000673
v 0.716981 9.936754 -0.033388
v 2.120613 7.495400 -0.787153
v 1.577475 7.980219 -0.735078
v 1.099265 8.970406 -0.735830
v 0.717344 9.870895 -0.538868
v 1.138163 7.345727 -1.893798
v 0.807855 8.001005 -1.771939
v 0.601546 9.019800 -1.298946
v 0.285609 9.860864 -0.768820
v -0.215609 7.259547 -2.320512
v -0.155297 8.113015 -1.744361
v -0.026500 8.963307 -1.346947
v 0.028681 9.823241 -0.928744
v -1.661294 7.447163 -1.441313
v -1.213225 7.952408 -1.281541
v -0.736565 8.943840 -0.920276
v -0.389546 9.987885 -0.726255
v 0.141459 9.811122 -0.382465
v 0.592362 9.367740 -1.572109
v 0.455721 10.039413 -1.326987
v 0.329497 10.770232 -1.124081
v 0.173282 11.714787 -0.841342
v 0.017922 12.771332 -0.703021
v -0.300970 9.366661 -1.588239
v -0.156294 9.917445 -1.357054
v -0.178088 10.739158 -1.094914
v -0.120769 11.632779 -0.887643
v -1.027377 9.342145 -1.111390
v -0.792110 10.017993 -0.981110
v -0.530335 10.743661 -0.831616
v -0.181135 11.672651 -0.764591
v -1.258932 9.537807 -0.263336
v -1.036052 10.052972 -0.249801
v -0.642099 10.904000 -0.380734
v -0.340858 11.691133 -0.431529
v -0.968265 9.561481 0.611547
v -0.712717 10.148500 0.378761
v -0.445420 10.903943 0.103152
v -0.145150 11.640038 -0.269946
v -0.110938 9.613949 0.994842
v -0.116184 10.096793 0.648659
v 0.018533 10.903760 0.293156
v 0.046945 11.725899 -0.142201
v 0.853785 9.572378 0.788990
v 0.568880 10.062271 0.550134
v 0.386756 10.965997 0.125749
v 0.171226 11.772596 -0.216027
v 1.379553 9.511368 0.015677
v 0.973137 10.015714 -0.017536
v 0.681547 10.808418 -0.202889
v 0.438647 11.672974 -0.320775
v 1.319707 9.445311 -0.849247
v 1.029940 9.947826 -0.773025
v 0.700122 10.854528 -0.730453
v 0.369422 11.691214 -0.591334
vn 0.2925 0.0172 -0.9561
vn 0.9864 0.0301 -0.1615
vn 0.8024 0.0494 0.5948
vn 0.0280 0.0330 0.9991
vn -0.8323 0.0355 0.5532
vn 0.1314 0.9728 0.1906
vn -0.9953 0.0501 -0.0825
vn -0.3324 0.0044 -0.9431
vn 0.0762 -0.9847 -0.1565
vn 0.0205 -0.9875 0.1565
vn -0.2619 0.7021 -0.6622
vn -0.4383 0.4579 -0.7734
vn -0.4297 0.5806 -0.6916
vn -0.4276 0.5886 -0.6860
vn 0.1542 -0.9877 -0.0255
vn -0.5662 0.7949 -0.2180
vn -0.6685 0.7021 -0.2451
vn -0.8815 0.4616 -0.0991
vn -0.8636 0.4952 -0.0944
vn 0.1660 -0.9861 0.0104
vn -0.5479 0.5902 0.5928
vn -0.4459 0.7289 0.5195
vn -0.6196 0.5009 0.6043
vn -0.6170 0.5068 0.6021
vn -0.0913 -0.9938 -0.0634
vn -0.0770 0.9214 0.3809
vn -0.0158 0.4950 0.8687
vn 0.1791 0.5829 0.7925
vn -0.1259 0.5576 0.8205
vn -0.1037 -0.9931 -0.0552
vn 0.5627 0.7386 0.3713
vn 0.4040 0.7992 0.4451
vn 0.8399 0.2692 0.4712
vn 0.7246 0.6462 0.2393
vn -0.1176 -0.9924 0.0372
vn 0.6621 0.7249 -0.1901
vn 0.8212 0.5166 -0.2425
vn 0.7206 0.5881 -0.3673
vn 0.7688 0.6394 -0.0056
vn -0.0229 -0.9873 0.1571
vn 0.1911 0.7300 -0.6562
vn 0.2339 0.6335 -0.7375
vn 0.3238 0.3338 -0.8853
vn 0.2026 0.7068 -0.6778
vn -0.1602 -0.9591 0.2333
vn 0.6647 0.5839 -0.4661
vn 0.6695 0.5637 -0.4838
vn 0.7786 0.4971 -0.3829
vn 0.7301 0.5798 -0.3616
vn -0.0955 -0.9569 0.2742
vn 0.1417 0.6604 -0.7374
vn 0.1647 0.5229 -0.8363
vn 0.2200 0.3496 -0.9107
vn 0.1039 0.6191 -0.7784
vn 0.2460 -0.9584 0.1448
vn -0.4633 0.6639 -0.5870
vn -0.5360 0.5343 -0.6536
vn -0.7862 0.2896 -0.5459
vn -0.7368 0.5610 -0.3774
vn 0.2562 -0.9596 0.1161
vn -0.8291 0.5458 -0.1216
vn -0.8330 0.5397 -0.1217
vn -0.8114 0.5725 -0.1178
vn -0.8368 0.5362 -0.1111
vn 0.1038 -0.9844 -0.1417
vn -0.4403 0.5898 0.6769
vn -0.4503 0.5649 0.6915
vn -0.4466 0.5196 0.7284
vn -0.5246 0.6153 0.5885
vn -0.0267 -0.9859 -0.1651
vn 0.1503 0.7597 0.6326
vn 0.1954 0.4752 0.8579
vn 0.3361 0.5434 0.7693
vn 0.3632 0.5021 0.7849
vn -0.1553 -0.9857 -0.0660
vn 0.6081 0.7515 0.2557
vn 0.6641 0.6468 0.3749
vn 0.7619 0.4558 0.4601
vn 0.7877 0.5382 0.2997
vn 0.1397 -0.9879 -0.0671
vn -0.6554 0.6837 0.3210
vn -0.8376 0.4752 0.2695
vn -0.7898 0.5453 0.2808
vn -0.8021 0.5335 0.2684
vn 0.0958 -0.9892 -0.1106
vn -0.3741 0.4688 0.8002
vn -0.3428 0.6100 0.7144
vn -0.6100 0.6026 0.5146
vn -0.6233 0.5343 0.5710
vn 0.0130 -0.9931 -0.1166
vn 0.0757 0.5575 0.8267
vn 0.0719 0.5316 0.8439
vn 0.2311 0.5390 0.8100
vn 0.2392 0.5111 0.8256
vn -0.1247 -0.9917 -0.0313
vn 0.7602 0.4428 0.4753
vn 0.6815 0.6018 0.4164
vn 0.4042 0.5141 0.7565
vn 0.4003 0.5270 0.7497
vn -0.1377 -0.9905 -0.0003
vn 0.7929 0.6093 -0.0054
vn 0.9286 0.3699 0.0284
vn 0.9068 0.4181 -0.0538
vn 0.8691 0.4906 -0.0633
vn -0.0826 -0.9752 0.2052
vn 0.5246 0.6471 -0.5532
vn 0.7518 0.3627 -0.5507
vn 0.6972 0.4224 -0.5792
vn 0.4391 0.3227 -0.8385
vn -0.0174 -0.9679 0.2506
vn 0.2685 0.3053 -0.9136
vn 0.0235 0.4249 -0.9049
vn 0.3623 0.5906 -0.7211
vn 0.4656 0.3228 -0.8240
vn 0.0251 -0.9685 0.2479
vn -0.4060 0.5309 -0.7439
vn -0.4735 0.4308 -0.7683
vn -0.4783 0.4087 -0.7773
vn -0.2716 0.3915 -0.8792
vn 0.1484 -0.9846 0.0923
vn -0.6550 0.6831 -0.3231
vn -0.6873 0.5165 -0.5107
vn -0.7721 0.3546 -0.5274
vn -0.8606 0.4770 -0.1785
vn -0.0051 -0.9377 0.3475
vn -0.0213 0.3389 -0.9406
vn -0.0710 0.2554 -0.9642
vn 0.0674 0.2963 -0.9527
vn 0.1142 0.1455 -0.9828
vn 0.2089 -0.9400 0.2698
vn -0.4037 0.4422 -0.8009
vn -0.4610 0.2586 -0.8489
vn -0.5824 0.2189 -0.7829
vn -0.8581 0.1824 -0.4800
vn 0.2066 -0.9395 0.2732
vn -0.8728 0.3661 -0.3228
vn -0.8725 0.3784 -0.3091
vn -0.8715 0.3522 -0.3413
vn -0.8822 0.1841 -0.4333
vn 0.1885 -0.9814 -0.0361
vn -0.8829 0.3745 0.2832
vn -0.8251 0.4370 0.3580
vn -0.5707 0.2685 0.7761
vn -0.5328 0.3684 0.7618
vn 0.1141 -0.9862 -0.1203
vn -0.3301 0.4686 0.8194
vn -0.3419 0.4265 0.8374
vn -0.3214 0.5291 0.7853
vn -0.6226 0.3564 0.6967
vn -0.0755 -0.9850 -0.1549
vn 0.1447 0.5776 0.8034
vn 0.1504 0.3774 0.9137
vn 0.3102 0.4365 0.8445
vn 0.3225 0.4544 0.8304
vn -0.2139 -0.9745 -0.0685
vn 0.6733 0.6013 0.4302
vn 0.7703 0.3916 0.5032
vn 0.4658 0.4478 0.7632
vn 0.4654 0.4446 0.7653
vn -0.2620 -0.9607 0.0915
vn 0.7786 0.6275 0.0021
vn 0.9349 0.3529 0.0386
vn 0.9590 0.2773 0.0580
vn 0.9341 0.2812 -0.2200
vn -0.1805 -0.9421 0.2827
vn 0.6054 0.4488 -0.6573
vn 0.6890 0.2820 -0.6676
vn 0.7435 0.3848 -0.5470
vn 0.7808 0.1926 -0.5944
vn 0.4983 0.0413 -0.8660
vn 0.9973 0.0465 0.0559
vn 0.8853 0.0350 0.4638
vn -0.1098 0.0447 0.9929
vn -0.8839 0.0427 0.4657
vn 0.0926 0.9613 -0.2593
vn 0.0981 0.9345 -0.3422
vn 0.0077 0.9952 -0.0976
vn 0.0127 0.9997 -0.0224
vn -0.9802 0.0400 -0.1938
vn -0.6403 0.0383 -0.7671
vn 0.1863 -0.9672 0.1726
vn 0.0785 -0.9825 -0.1692
vn -0.0019 -1.0000 0.0003
vn -0.1853 -0.9819 0.0396
vn -0.2672 0.7803 -0.5654
vn -0.4759 0.6689 -0.5710
vn -0.5453 0.5047 -0.6692
vn -0.8228 0.5575 -0.1105
vn -0.5221 0.8492 -0.0788
vn -0.8809 0.4626 -0.1000
vn -0.4733 0.8258 0.3066
vn -0.7344 0.4960 0.4632
vn -0.6673 0.6107 0.4263
vn 0.1464 0.6988 0.7002
vn 0.1413 0.7840 0.6045
vn -0.0753 0.3933 0.9163
vn 0.6498 0.6649 0.3684
vn 0.6906 0.5392 0.4820
vn 0.5601 0.5325 0.6347
vn 0.6274 0.7645 -0.1482
vn 0.6063 0.7355 -0.3026
vn 0.9587 0.2597 -0.1164
vn 0.1930 0.7282 -0.6576
vn 0.3738 0.4936 -0.7853
vn 0.3933 0.3854 -0.8347
vn 0.6421 0.6079 -0.4671
vn 0.6095 0.6098 -0.5066
vn 0.7679 0.3448 -0.5398
vn 0.1026 0.5758 -0.8112
vn 0.2188 0.4594 -0.8608
vn 0.0881 0.4450 -0.8912
vn -0.6593 0.4348 -0.6134
vn -0.5445 0.5879 -0.5983
vn -0.6015 0.4746 -0.6426
vn -0.9251 0.3792 -0.0225
vn -0.8095 0.5806 -0.0875
vn -0.8279 0.5539 -0.0880
vn -0.4401 0.6640 0.6046
vn -0.4217 0.5899 0.6886
vn -0.5750 0.4192 0.7026
vn 0.1195 0.7919 0.5988
vn 0.2943 0.6326 0.7164
vn 0.3572 0.5642 0.7444
vn 0.6306 0.7215 0.2859
vn 0.7328 0.5881 0.3424
vn 0.7727 0.5617 0.2957
vn -0.8388 0.4723 0.2708
vn -0.7979 0.5219 0.3015
vn -0.7878 0.5400 0.2962
vn -0.3110 0.5344 0.7859
vn -0.3059 0.5568 0.7723
vn -0.4007 0.4883 0.7752
vn 0.1330 0.4807 0.8667
vn 0.1873 0.6227 0.7597
vn 0.2399 0.5426 0.8050
vn 0.6144 0.6137 0.4959
vn 0.6321 0.5280 0.5672
vn 0.6820 0.3403 0.6474
vn 0.6680 0.7407 0.0718
vn 0.8975 0.4334 -0.0812
vn 0.9114 0.4039 -0.0794
vn 0.7177 0.4591 -0.5235
vn 0.7003 0.4124 -0.5828
vn 0.3685 0.5908 -0.7177
vn 0.0410 0.5570 -0.8295
vn 0.0316 0.4193 -0.9073
vn 0.0296 0.4356 -0.8996
vn -0.3742 0.5645 -0.7357
vn -0.4117 0.4802 -0.7745
vn -0.3282 0.2769 -0.9031
vn -0.7058 0.6388 -0.3063
vn -0.8216 0.4165 -0.3893
vn -0.8060 0.5670 -0.1700
vn 0.0162 0.3834 -0.9235
vn -0.0137 0.3036 -0.9527
vn -0.0698 0.2296 -0.9708
vn -0.5252 0.3337 -0.7828
vn -0.5567 0.3555 -0.7508
vn -0.7980 0.3360 -0.5003
vn -0.8700 0.3845 -0.3086
vn -0.8720 0.3512 -0.3410
vn -0.8538 0.2993 -0.4260
vn -0.8052 0.4855 0.3404
vn -0.8400 0.4218 0.3415
vn -0.8052 0.4944 0.3274
vn -0.3712 0.5384 0.7565
vn -0.3427 0.4261 0.8373
vn -0.6241 0.3824 0.6814
vn 0.1996 0.5208 0.8301
vn 0.3039 0.4544 0.8373
vn 0.3297 0.4417 0.8344
vn 0.6914 0.5851 0.4239
vn 0.7619 0.3995 0.5098
vn 0.7773 0.2942 0.5561
vn 0.8556 0.5082 -0.0980
vn 0.9389 0.3386 0.0626
vn 0.8985 0.3890 -0.2037
vn 0.6749 0.3702 -0.6383
vn 0.6600 0.3047 -0.6867
vn 0.6568 0.3139 -0.6856
vt 0.587500 0.357143
vt 0.550000 0.381886
vt 0.550000 0.332399
vt 0.462500 0.357143
vt 0.425000 0.381886
vt 0.425000 0.332399
vt 0.462500 0.500000
vt 0.425000 0.524744
vt 0.425000 0.475256
vt 0.337500 0.357143
vt 0.300000 0.381886
vt 0.300000 0.332399
s 0
usemtl Palette
f 2/1/1 3/2/1 1/3/1
f 4/1/2 5/2/2 3/3/2
f 6/1/3 7/2/3 5/3/3
f 8/1/4 9/2/4 7/3/4
f 10/1/5 11/2/5 9/3/5
f 10/1/6 8/2/6 6/3/6
f 11/1/7 14/2/7 13/3/7
f 13/1/8 2/2/8 1/3/8
f 7/1/9 9/2/9 11/3/9
f 15/4/10 21/5/10 16/6/10
f 21/7/11 17/8/11 16/9/11
f 22/10/12 18/11/12 17/12/12
f 18/7/13 24/8/13 19/9/13
f 19/7/14 24/8/14 20/9/14
f 15/4/15 25/5/15 21/6/15
f 21/7/16 26/8/16 22/9/16
f 26/10/17 23/11/17 22/12/17
f 23/7/18 28/8/18 24/9/18
f 24/7/19 28/8/19 20/9/19
f 15/4/20 29/5/20 25/6/20
f 25/7/21 30/8/21 26/9/21
f 30/10/22 27/11/22 26/12/22
f 27/7/23 32/8/23 28/9/23
f 28/7/24 32/8/24 20/9/24
f 15/4/25 33/5/25 29/6/25
f 29/7/26 34/8/26 30/9/26
f 34/10/27 31/11/27 30/12/27
f 35/7/28 32/8/28 31/9/28
f 32/7/29 36/8/29 20/9/29
f 15/4/30 37/5/30 33/6/30
f 33/7/31 38/8/31 34/9/31
f 34/10/32 39/11/32 35/12/32
f 35/7/33 40/8/33 36/9/33
f 36/7/34 40/8/34 20/9/34
f 15/4/35 41/5/35 37/6/35
f 37/7/36 42/8/36 38/9/36
f 42/10/37 39/11/37 38/12/37
f 43/7/38 40/8/38 39/9/38
f 40/7/39 44/8/39 20/9/39
f 15/4/40 16/5/40 41/6/40
f 16/7/41 42/8/41 41/9/41
f 17/10/42 43/11/42 42/12/42
f 43/7/43 19/8/43 44/9/43
f 44/7/44 19/8/44 20/9/44
f 45/4/45 51/5/45 46/6/45
f 51/7/46 47/8/46 46/9/46
f 52/10/47 48/11/47 47/12/47
f 48/10/48 54/11/48 49/12/48
f 49/7/49 54/8/49 50/9/49
f 45/4/50 55/5/50 51/6/50
f 51/7/51 56/8/51 52/9/51
f 56/10/52 53/11/52 52/12/52
f 57/10/53 54/11/53 53/12/53
f 54/7/54 58/8/54 50/9/54
f 45/4/55 59/5/55 55/6/55
f 55/7/56 60/8/56 56/9/56
f 60/10/57 57/11/57 56/12/57
f 57/10/58 62/11/58 58/12/58
f 58/7/59 62/8/59 50/9/59
f 45/4/60 63/5/60 59/6/60
f 59/10/61 64/11/61 60/12/61
f 64/10/62 61/11/62 60/12/62
f 61/10/63 66/11/63 62/12/63
f 62/7/64 66/8/64 50/9/64
f 45/4/65 67/5/65 63/6/65
f 63/7/66 68/8/66 64/9/66
f 68/10/67 65/11/67 64/12/67
f 69/10/68 66/11/68 65/12/68
f 66/7/69 70/8/69 50/9/69
f 45/4/70 71/5/70 67/6/70
f 67/7/71 72/8/71 68/9/71
f 72/10/72 69/11/72 68/12/72
f 73/10/73 70/11/73 69/12/73
f 70/7/74 74/8/74 50/9/74
f 45/4/75 46/5/75 71/6/75
f 46/7/76 72/8/76 71/9/76
f 72/10/77 48/11/77 73/12/77
f 48/10/78 74/11/78 73/12/78
f 74/7/79 49/8/79 50/9/79
f 75/4/80 81/5/80 76/6/80
f 81/7/81 77/8/81 76/9/81
f 82/10/82 78/11/82 77/12/82
f 78/7/83 84/8/83 79/9/83
f 79/7/84 84/8/84 80/9/84
f 75/4/85 85/5/85 81/6/85
f 85/10/86 82/11/86 81/12/86
f 82/10/87 87/11/87 83/12/87
f 83/7/88 88/8/88 84/9/88
f 84/7/89 88/8/89 80/9/89
f 75/4/90 89/5/90 85/6/90
f 85/10/91 90/11/91 86/12/91
f 90/10/92 87/11/92 86/12/92
f 91/7/93 88/8/93 87/9/93
f 88/7/94 92/8/94 80/9/94
f 75/4/95 93/5/95 89/6/95
f 89/7/96 94/8/96 90/9/96
f 94/10/97 91/11/97 90/12/97
f 91/7/98 96/8/98 92/9/98
f 92/7/99 96/8/99 80/9/99
f 75/4/100 97/5/100 93/6/100
f 93/7/101 98/8/101 94/9/101
f 98/10/102 95/11/102 94/12/102
f 95/7/103 100/8/103 96/9/103
f 96/7/104 100/8/104 80/9/104
f 75/4/105 101/5/105 97/6/105
f 101/7/106 98/8/106 97/9/106
f 102/10/107 99/11/107 98/12/107
f 103/7/108 100/8/108 99/9/108
f 100/7/109 104/8/109 80/9/109
f 75/4/110 105/5/110 101/6/110
f 105/10/111 102/11/111 101/12/111
f 106/10/112 103/11/112 102/12/112
f 103/7/113 108/8/113 104/9/113
f 104/7/114 108/8/114 80/9/114
f 75/4/115 109/5/115 105/6/115
f 105/7/116 110/8/116 106/9/116
f 106/10/117 111/11/117 107/12/117
f 111/7/118 108/8/118 107/9/118
f 108/7/119 112/8/119 80/9/119
f 75/4/120 76/5/120 109/6/120
f 109/7/121 77/8/121 110/9/121
f 110/10/122 78/11/122 111/12/122
f 78/7/123 112/8/123 111/9/123
f 112/7/124 79/8/124 80/9/124
f 113/4/125 119/5/125 114/6/125
f 114/10/126 120/11/126 115/12/126
f 115/10/127 121/11/127 116/12/127
f 116/7/128 122/8/128 117/9/128
f 117/7/129 122/8/129 118/9/129
f 113/4/130 123/5/130 119/6/130
f 119/10/131 124/11/131 120/12/131
f 124/10/132 121/11/132 120/12/132
f 125/7/133 122/8/133 121/9/133
f 122/7/134 126/8/134 118/9/134
f 113/4/135 127/5/135 123/6/135
f 127/10/136 124/11/136 123/12/136
f 128/10/137 125/11/137 124/12/137
f 129/7/138 126/8/138 125/9/138
f 126/7/139 130/8/139 118/9/139
f 113/4/140 131/5/140 127/6/140
f 131/10/141 128/11/141 127/12/141
f 132/10/142 129/11/142 128/12/142
f 129/7/143 134/8/143 130/9/143
f 130/7/144 134/8/144 118/9/144
f 113/4/145 135/5/145 131/6/145
f 131/10/146 136/11/146 132/12/146
f 136/10/147 133/11/147 132/12/147
f 137/7/148 134/8/148 133/9/148
f 134/7/149 138/8/149 118/9/149
f 113/4/150 139/5/150 135/6/150
f 135/10/151 140/11/151 136/12/151
f 140/10/152 137/11/152 136/12/152
f 141/7/153 138/8/153 137/9/153
f 138/7/154 142/8/154 118/9/154
f 113/4/155 143/5/155 139/6/155
f 139/7/156 144/8/156 140/9/156
f 140/10/157 145/11/157 141/12/157
f 141/7/158 146/8/158 142/9/158
f 142/7/159 146/8/159 118/9/159
f 113/4/160 147/5/160 143/6/160
f 143/7/161 148/8/161 144/9/161
f 148/10/162 145/11/162 144/12/162
f 149/7/163 146/8/163 145/9/163
f 146/7/164 150/8/164 118/9/164
f 113/4/165 114/5/165 147/6/165
f 114/10/166 148/11/166 147/12/166
f 115/10/167 149/11/167 148/12/167
f 149/7/168 117/8/168 150/9/168
f 150/7/169 117/8/169 118/9/169
f 2/1/170 4/2/170 3/3/170
f 4/1/171 6/2/171 5/3/171
f 6/1/172 8/2/172 7/3/172
f 8/1/173 10/2/173 9/3/173
f 10/1/174 12/2/174 11/3/174
f 6/1/175 4/2/175 14/3/175
f 4/1/176 2/2/176 14/3/176
f 14/1/177 12/2/177 6/3/177
f 12/1/178 10/2/178 6/3/178
f 11/1/179 12/2/179 14/3/179
f 13/1/180 14/2/180 2/3/180
f 13/1/181 1/2/181 11/3/181
f 1/1/182 3/2/182 5/3/182
f 11/1/183 1/2/183 7/3/183
f 5/1/184 7/2/184 1/3/184
f 21/7/185 22/8/185 17/9/185
f 22/10/186 23/11/186 18/12/186
f 18/7/187 23/8/187 24/9/187
f 21/7/188 25/8/188 26/9/188
f 26/10/189 27/11/189 23/12/189
f 23/7/190 27/8/190 28/9/190
f 25/7/191 29/8/191 30/9/191
f 30/10/192 31/11/192 27/12/192
f 27/7/193 31/8/193 32/9/193
f 29/7/194 33/8/194 34/9/194
f 34/10/195 35/11/195 31/12/195
f 35/7/196 36/8/196 32/9/196
f 33/7/197 37/8/197 38/9/197
f 34/10/198 38/11/198 39/12/198
f 35/7/199 39/8/199 40/9/199
f 37/7/200 41/8/200 42/9/200
f 42/10/201 43/11/201 39/12/201
f 43/7/202 44/8/202 40/9/202
f 16/7/203 17/8/203 42/9/203
f 17/10/204 18/11/204 43/12/204
f 43/7/205 18/8/205 19/9/205
f 51/7/206 52/8/206 47/9/206
f 52/10/207 53/11/207 48/12/207
f 48/10/208 53/11/208 54/12/208
f 51/7/209 55/8/209 56/9/209
f 56/10/210 57/11/210 53/12/210
f 57/10/211 58/11/211 54/12/211
f 55/7/212 59/8/212 60/9/212
f 60/10/213 61/11/213 57/12/213
f 57/10/214 61/11/214 62/12/214
f 59/10/215 63/11/215 64/12/215
f 64/10/216 65/11/216 61/12/216
f 61/10/217 65/11/217 66/12/217
f 63/7/218 67/8/218 68/9/218
f 68/10/219 69/11/219 65/12/219
f 69/10/220 70/11/220 66/12/220
f 67/7/221 71/8/221 72/9/221
f 72/10/222 73/11/222 69/12/222
f 73/10/223 74/11/223 70/12/223
f 46/7/224 47/8/224 72/9/224
f 72/10/225 47/11/225 48/12/225
f 48/10/226 49/11/226 74/12/226
f 81/7/227 82/8/227 77/9/227
f 82/10/228 83/11/228 78/12/228
f 78/7/229 83/8/229 84/9/229
f 85/10/230 86/11/230 82/12/230
f 82/10/231 86/11/231 87/12/231
f 83/7/232 87/8/232 88/9/232
f 85/10/233 89/11/233 90/12/233
f 90/10/234 91/11/234 87/12/234
f 91/7/235 92/8/235 88/9/235
f 89/7/236 93/8/236 94/9/236
f 94/10/237 95/11/237 91/12/237
f 91/7/238 95/8/238 96/9/238
f 93/7/239 97/8/239 98/9/239
f 98/10/240 99/11/240 95/12/240
f 95/7/241 99/8/241 100/9/241
f 101/7/242 102/8/242 98/9/242
f 102/10/243 103/11/243 99/12/243
f 103/7/244 104/8/244 100/9/244
f 105/10/245 106/11/245 102/12/245
f 106/10/246 107/11/246 103/12/246
f 103/7/247 107/8/247 108/9/247
f 105/7/248 109/8/248 110/9/248
f 106/10/249 110/11/249 111/12/249
f 111/7/250 112/8/250 108/9/250
f 109/7/251 76/8/251 77/9/251
f 110/10/252 77/11/252 78/12/252
f 78/7/253 79/8/253 112/9/253
f 114/10/254 119/11/254 120/12/254
f 115/10/255 120/11/255 121/12/255
f 116/7/256 121/8/256 122/9/256
f 119/10/257 123/11/257 124/12/257
f 124/10/258 125/11/258 121/12/258
f 125/7/259 126/8/259 122/9/259
f 127/10/260 128/11/260 124/12/260
f 128/10/261 129/11/261 125/12/261
f 129/7/262 130/8/262 126/9/262
f 131/10/263 132/11/263 128/12/263
f 132/10/264 133/11/264 129/12/264
f 129/7/265 133/8/265 134/9/265
f 131/10/266 135/11/266 136/12/266
f 136/10/267 137/11/267 133/12/267
f 137/7/268 138/8/268 134/9/268
f 135/10/269 139/11/269 140/12/269
f 140/10/270 141/11/270 137/12/270
f 141/7/271 142/8/271 138/9/271
f 139/7/272 143/8/272 144/9/272
f 140/10/273 144/11/273 145/12/273
f 141/7/274 145/8/274 146/9/274
f 143/7/275 147/8/275 148/9/275
f 148/10/276 149/11/276 145/12/276
f 149/7/277 150/8/277 146/9/277
f 114/10/278 115/11/278 148/12/278
f 115/10/279 116/11/279 149/12/279
f 149/7/280 116/8/280 117/9/280
