# Blender 5.0.1
# www.blender.org
mtllib rock_flat.mtl
o rock_flat
v 0.093090 0.133772 -0.006249
v 5.173205 1.276135 2.631759
v -1.778417 1.191122 4.286878
v -6.325409 0.842118 0.041619
v -1.800534 1.249901 -4.243371
v 5.090646 1.176460 -2.591629
v 2.034550 2.806242 4.169904
v -4.992255 2.968970 2.686094
v -4.983713 2.725999 -2.582381
v 2.083109 2.831513 -4.340700
v 6.285201 2.686240 0.017284
v 0.143008 3.768346 0.018782
v -1.488488 0.657684 3.673214
v -1.036834 0.524464 2.529892
v -0.384451 0.322183 1.217991
v 1.471907 0.182603 0.709439
v 3.000770 0.607737 1.559731
v 4.330884 0.911871 2.217965
v 3.822867 1.065253 3.325443
v 1.925138 0.971021 4.006209
v -0.098356 1.198331 4.272336
v 5.877908 1.034819 -1.449202
v 6.179305 0.763242 0.029031
v 5.825492 1.107802 1.354027
v 1.546868 0.264859 -0.822331
v 3.094252 0.414082 -1.506404
v 4.407926 0.773233 -2.270429
v -5.265179 0.690892 -0.002489
v -3.590616 0.279119 -0.017479
v -1.593483 0.065589 -0.034013
v -3.212849 1.183338 3.520398
v -4.728812 1.102262 2.449423
v -5.775563 1.029744 1.149265
v -1.473587 1.011209 -3.467056
v -1.000084 0.401774 -2.547120
v -0.479979 0.000000 -1.273037
v -5.836620 0.894998 -1.338156
v -4.686292 1.165753 -2.517680
v -3.255554 1.169090 -3.540195
v -0.142348 1.179622 -4.262107
v 1.906953 0.994643 -4.202434
v 3.767748 1.236630 -3.243629
v 6.799280 2.492836 0.738944
v 6.948357 1.929758 1.599297
v 6.082030 1.534741 2.203015
v 6.234970 1.376761 -2.342860
v 6.870099 2.030976 -1.648248
v 6.689370 2.304941 -0.803007
v 1.196255 2.382685 4.535833
v 0.095248 1.914964 4.976544
v -0.989441 1.506448 4.869942
v 4.848660 1.493222 3.343740
v 4.089023 1.978999 3.964988
v 3.173682 2.413341 4.351154
v -6.064045 2.552379 2.213122
v -6.630520 2.045700 1.642219
v -6.712192 1.408855 0.750785
v -2.892287 1.579513 4.098670
v -3.994505 1.956686 4.012402
v -4.728685 2.433795 3.430479
v -4.632870 2.373810 -3.360262
v -4.008322 2.001292 -4.026772
v -2.980072 1.477487 -4.422653
v -6.869147 1.371523 -0.890180
v -6.571396 2.011730 -1.538496
v -5.743968 2.244289 -2.132792
v 3.073556 2.429380 -4.263619
v 4.066521 1.960262 -3.811326
v 4.807591 1.594967 -3.264185
v -0.945124 1.593028 -4.748845
v 0.028027 1.999138 -5.032759
v 1.255366 2.497512 -4.895472
v 5.847034 2.823425 1.186820
v 4.986900 2.974478 2.550283
v 3.413481 2.887274 3.578218
v 0.373722 2.910658 4.303853
v -1.755849 2.981560 4.058629
v -3.631920 2.962908 3.476570
v -5.642592 3.017179 1.512322
v -5.827734 2.951595 0.041945
v -5.478024 2.731026 -1.389829
v -3.626800 2.999251 -3.531964
v -1.816710 2.998771 -4.095469
v 0.349417 2.968653 -4.438683
v 3.517392 2.853304 -3.617989
v 5.045259 3.066652 -2.665855
v 5.922191 2.963732 -1.190501
v 0.640894 3.802010 1.193795
v 1.216290 3.393373 2.496969
v 1.708998 3.031228 3.487907
v 5.394158 3.247096 0.022755
v 3.734593 3.393479 0.022948
v 1.805197 3.675716 -0.054634
v -1.375705 3.697973 0.695236
v -2.896687 3.631452 1.515611
v -4.123953 3.185404 2.167208
v -1.328343 3.881778 -0.749805
v -2.884616 3.649566 -1.578154
v -4.230693 3.283410 -2.312839
v 0.581910 3.659191 -1.247258
v 1.232957 3.289800 -2.430125
v 1.786047 3.085209 -3.532285
v 2.569253 3.499253 -1.266916
v 4.640270 3.294836 -1.361793
v 3.267114 3.046778 -2.603750
v -0.841023 3.722464 -2.169664
v -0.292918 3.386895 -3.497079
v -2.419377 3.309423 -3.019586
v -3.111214 3.576601 -0.050063
v -4.549641 3.140457 -0.874275
v -4.575953 3.430413 0.752768
v -0.920636 3.636257 2.111961
v -2.495194 3.551148 3.001423
v -0.294794 3.262210 3.390773
v 2.687797 3.504615 1.354056
v 3.260135 3.155953 2.557645
v 4.500126 3.225704 1.323650
v 6.317893 2.565705 -2.196784
v 5.768666 2.037999 -2.926063
v 4.875852 2.523890 -3.546158
v -0.876760 2.571637 -4.794121
v -2.080262 2.004219 -4.778652
v -2.976686 2.562382 -4.316309
v -6.617980 2.617645 -0.823918
v -7.166242 2.113502 -0.045020
v -6.603184 2.574604 0.790325
v -3.018669 2.536813 4.182118
v -2.068988 2.039699 4.647859
v -0.882868 2.666996 5.032759
v 4.728273 2.412233 3.416033
v 5.703227 2.025589 2.936832
v 6.247816 2.558550 2.126617
v 2.254614 1.994465 -4.881808
v 3.143463 1.551675 -4.231514
v 1.078874 1.509392 -4.858660
v -5.338490 1.930107 -2.758991
v -4.529777 1.458308 -3.449135
v -5.877164 1.594869 -2.042639
v -5.617013 2.035072 3.049352
v -6.015502 1.387613 2.205393
v -4.479377 1.516857 3.348706
v 2.196341 1.982994 4.678950
v 1.009975 1.613415 4.411956
v 3.129958 1.483437 4.148523
v 7.166242 1.939302 0.010866
v 6.866140 1.351261 0.759546
v 6.868601 1.439525 -0.841040
v 2.623861 0.795353 -2.869591
v 1.023702 0.309338 -2.085173
v 0.516029 0.531294 -3.542241
v -2.966191 0.915339 -2.588044
v -2.382192 0.564696 -1.339252
v -4.445683 0.596236 -1.374214
v -4.285213 0.841071 1.277934
v -2.352231 0.606077 1.271401
v -2.958920 0.832779 2.652880
v 4.776958 0.599825 -0.834715
v 4.833545 0.737427 0.779422
v 3.191080 0.280666 -0.072274
v 0.492576 0.730999 3.424287
v 1.066195 0.262363 2.203748
v 2.611681 0.671439 2.840218
vn -0.0366 -0.9897 0.1380
vn 0.2723 -0.9261 0.2610
vn 0.0371 -0.9854 0.1661
vn 0.0388 -0.9954 0.0876
vn 0.1182 -0.9917 0.0513
vn 0.3943 -0.8633 0.3150
vn 0.0078 -0.8840 0.4675
vn -0.4800 -0.7941 0.3728
vn -0.1234 -0.9242 -0.3615
vn 0.2537 -0.7698 -0.5858
vn 0.4309 -0.7895 0.4371
vn -0.3267 -0.5727 0.7518
vn -0.7681 -0.6342 0.0879
vn -0.0557 -0.7798 -0.6236
vn 0.2617 -0.7662 -0.5869
vn 0.0657 0.9565 0.2842
vn -0.1171 0.9709 0.2090
vn -0.5275 0.8200 -0.2221
vn 0.0910 0.9592 -0.2676
vn 0.5325 0.8457 0.0342
vn 0.0525 0.9963 -0.0677
vn 0.1466 0.9879 -0.0514
vn 0.0879 0.9960 -0.0135
vn 0.0789 0.9924 -0.0947
vn 0.0749 0.9628 -0.2594
vn 0.0979 0.9952 -0.0069
vn 0.0815 0.9562 -0.2811
vn 0.0907 0.9567 -0.2765
vn 0.1067 0.9858 -0.1294
vn 0.2623 0.9587 -0.1098
vn 0.2601 0.9616 -0.0875
vn -0.0172 0.9840 -0.1775
vn -0.0177 0.9813 -0.1916
vn 0.1235 0.9799 -0.1565
vn 0.1157 0.9591 -0.2585
vn 0.1027 0.9934 -0.0500
vn 0.1753 0.9631 -0.2043
vn 0.1409 0.9837 -0.1119
vn 0.0951 0.9923 -0.0787
vn -0.0747 0.9878 -0.1365
vn 0.1807 0.9687 -0.1703
vn -0.0980 0.9545 -0.2818
vn -0.1100 0.9588 -0.2618
vn -0.1166 0.9576 -0.2636
vn 0.1303 0.9360 -0.3269
vn -0.0568 0.8975 -0.4374
vn -0.1086 0.9372 -0.3314
vn -0.1019 0.9391 -0.3283
vn -0.1241 0.9510 -0.2832
vn -0.4451 0.7979 -0.4065
vn 0.0104 0.9919 0.1265
vn -0.1597 0.9869 0.0234
vn -0.2793 0.9596 0.0334
vn -0.1210 0.9852 0.1213
vn -0.0582 0.9979 -0.0270
vn -0.2915 0.9566 0.0025
vn -0.1924 0.9656 -0.1752
vn -0.1100 0.9937 -0.0197
vn -0.2198 0.9470 0.2343
vn -0.4041 0.9147 0.0013
vn -0.2917 0.9321 -0.2148
vn -0.2645 0.9487 -0.1733
vn -0.3590 0.9333 0.0036
vn -0.2047 0.9514 0.2302
vn -0.1650 0.9775 0.1316
vn -0.0497 0.9987 -0.0076
vn -0.0172 0.9986 0.0490
vn -0.2787 0.9520 0.1268
vn -0.0674 0.9956 0.0650
vn 0.0596 0.9597 0.2746
vn -0.0204 0.9980 0.0594
vn 0.0842 0.9667 0.2416
vn 0.0646 0.9659 0.2509
vn 0.0949 0.9493 0.2997
vn -0.3454 0.8951 0.2819
vn -0.1824 0.8066 0.5622
vn 0.0366 0.8902 0.4541
vn -0.0112 0.9304 0.3664
vn 0.0952 0.9504 0.2962
vn 0.0825 0.9575 0.2765
vn 0.0533 0.9973 -0.0512
vn 0.1202 0.9612 0.2483
vn 0.1015 0.9496 0.2966
vn 0.1413 0.9895 0.0317
vn 0.1435 0.9892 0.0302
vn 0.1056 0.9674 0.2301
vn 0.1522 0.9663 0.2076
vn 0.1526 0.9876 0.0376
vn 0.0876 0.9932 0.0765
vn 0.0687 0.9673 0.2443
vn 0.1025 0.9656 0.2388
vn 0.1038 0.9817 0.1598
vn 0.2926 0.9529 0.0790
vn 0.2997 0.9281 0.2212
vn 0.5305 0.8418 0.1000
vn 0.6586 0.7521 -0.0251
vn 0.7272 0.6833 -0.0660
vn 0.7567 -0.0419 -0.6525
vn 0.6615 0.7491 -0.0362
vn 0.4187 0.8887 -0.1869
vn 0.7530 0.1124 -0.6484
vn 0.6482 0.2953 -0.7019
vn 0.4723 0.7068 -0.5267
vn 0.2250 0.8095 -0.5424
vn 0.4588 -0.3834 -0.8016
vn 0.4466 -0.3360 -0.8292
vn 0.4555 -0.2525 -0.8537
vn 0.3725 -0.1009 -0.9225
vn 0.2137 0.7427 -0.6346
vn 0.3248 0.6726 -0.6649
vn 0.0967 0.7824 -0.6153
vn -0.0329 0.3398 -0.9399
vn -0.1118 -0.3753 -0.9201
vn -0.0108 0.6853 -0.7282
vn -0.0839 0.7959 -0.5995
vn -0.1162 0.2201 -0.9685
vn -0.2042 0.4088 -0.8895
vn -0.1527 0.7384 -0.6569
vn -0.1835 0.7863 -0.5900
vn -0.1224 -0.4037 -0.9067
vn -0.3633 -0.0090 -0.9316
vn -0.3573 0.1845 -0.9156
vn -0.4750 0.4996 -0.7244
vn -0.4626 0.5541 -0.6921
vn -0.5100 0.6735 -0.5350
vn -0.6221 0.7382 -0.2610
vn -0.5685 0.6088 -0.5533
vn -0.9264 0.0535 -0.3726
vn -0.3040 0.8431 -0.4435
vn -0.1925 0.9617 -0.1952
vn -0.8559 0.3656 -0.3658
vn -0.6563 0.7541 0.0261
vn -0.4150 0.9094 0.0281
vn -0.4267 0.9043 0.0134
vn -0.8822 -0.4613 0.0949
vn -0.9194 -0.2752 0.2809
vn -0.8222 0.4950 0.2810
vn -0.7874 0.5347 0.3067
vn -0.5381 0.8146 0.2166
vn -0.4543 0.8436 0.2863
vn -0.3603 0.6923 0.6253
vn -0.3876 0.4104 0.8254
vn -0.2450 -0.5303 0.8116
vn -0.3398 0.6447 0.6847
vn -0.2027 0.7503 0.6293
vn -0.3128 0.2587 0.9139
vn -0.3737 0.1445 0.9162
vn -0.2464 0.8358 0.4907
vn -0.0041 0.9505 0.3106
vn -0.3606 -0.3743 0.8543
vn -0.1422 0.1212 0.9824
vn -0.1599 -0.2787 0.9470
vn 0.2584 0.2667 0.9285
vn 0.2557 0.6941 0.6729
vn 0.1012 0.5281 0.8431
vn 0.1908 0.8094 0.5555
vn 0.4904 0.3090 0.8149
vn 0.5284 -0.2218 0.8195
vn 0.3410 0.7506 0.5660
vn 0.3389 0.7395 0.5815
vn 0.5103 0.2782 0.8138
vn 0.5335 0.4962 0.6850
vn 0.4242 0.6963 0.5789
vn 0.3458 0.9312 0.1150
vn 0.6032 -0.4832 0.6346
vn 0.6397 -0.4442 0.6273
vn 0.7169 0.2543 0.6491
vn 0.7474 0.6078 0.2683
vn 0.3691 0.9237 0.1029
vn 0.3341 0.9424 0.0146
vn 0.2896 0.5652 -0.7724
vn 0.4962 0.2482 -0.8320
vn 0.4912 -0.2523 -0.8337
vn 0.2911 0.5572 -0.7777
vn 0.0675 0.1071 -0.9920
vn 0.4896 -0.2458 -0.8366
vn 0.2401 -0.6177 -0.7488
vn 0.0658 -0.2060 -0.9763
vn -0.0670 -0.4588 -0.8860
vn 0.2831 -0.8474 -0.4492
vn 0.3513 -0.8047 -0.4786
vn 0.2463 -0.5870 -0.7712
vn -0.0574 -0.8194 -0.5704
vn -0.0651 -0.8110 -0.5815
vn -0.0405 -0.7935 -0.6072
vn -0.6547 0.5326 -0.5364
vn -0.6880 0.1255 -0.7148
vn -0.4914 -0.3679 -0.7894
vn -0.7216 0.3062 -0.6209
vn -0.5943 0.4956 -0.6334
vn -0.6823 -0.1131 -0.7223
vn -0.7099 -0.2588 -0.6550
vn -0.6758 -0.3263 -0.6609
vn -0.6780 -0.3430 -0.6501
vn -0.2304 -0.8940 -0.3843
vn -0.2313 -0.9164 -0.3267
vn -0.4349 -0.8356 -0.3355
vn -0.4724 -0.6387 -0.6073
vn -0.5351 -0.6145 -0.5797
vn -0.4816 -0.8525 -0.2033
vn -0.5063 0.6052 0.6144
vn -0.7870 0.2392 0.5687
vn -0.8153 -0.4332 0.3842
vn -0.5264 0.5679 0.6327
vn -0.4808 0.2755 0.8324
vn -0.7862 -0.2518 0.5644
vn -0.4469 -0.5953 0.6677
vn -0.4410 -0.5655 0.6969
vn -0.2876 -0.6881 0.6661
vn -0.4388 -0.8766 0.1974
vn -0.2555 -0.9318 0.2577
vn -0.2748 -0.8419 0.4644
vn -0.2839 -0.8384 0.4653
vn -0.2754 -0.7150 0.6425
vn -0.3453 -0.6739 0.6531
vn 0.0674 0.5725 0.8171
vn 0.0999 0.5475 0.8308
vn 0.1952 -0.6980 0.6890
vn 0.0733 0.4936 0.8666
vn 0.3514 -0.0881 0.9321
vn 0.1109 -0.7908 0.6020
vn 0.0487 -0.6829 0.7289
vn 0.3341 -0.3179 0.8873
vn 0.3828 -0.4401 0.8122
vn 0.1898 -0.7283 0.6585
vn 0.0636 -0.4666 0.8822
vn 0.0836 -0.4443 0.8920
vn 0.2525 -0.7601 0.5988
vn 0.2934 -0.7296 0.6177
vn 0.3442 -0.8427 0.4139
vn 0.5145 0.8460 -0.1398
vn 0.8949 0.4284 0.1253
vn 0.6002 -0.6849 0.4131
vn 0.7362 0.6635 -0.1333
vn 0.6927 0.7163 -0.0841
vn 0.9396 -0.3179 0.1270
vn 0.8771 -0.4796 -0.0251
vn 0.9499 -0.2529 -0.1835
vn 0.8280 -0.4530 -0.3304
vn 0.3849 -0.8660 0.3192
vn 0.3887 -0.8611 0.3277
vn 0.6738 -0.7378 -0.0397
vn 0.4951 -0.8310 -0.2536
vn 0.4535 -0.8777 -0.1547
vn 0.2226 -0.9369 -0.2696
vn 0.2275 -0.8126 -0.5366
vn 0.0877 -0.9511 -0.2963
vn 0.0681 -0.9957 -0.0633
vn 0.1602 -0.8462 -0.5083
vn 0.2644 -0.9228 -0.2802
vn 0.1342 -0.9414 -0.3096
vn 0.1877 -0.9592 -0.2115
vn 0.1980 -0.9482 -0.2483
vn -0.0503 -0.7646 -0.6426
vn 0.1501 -0.9839 -0.0968
vn 0.0276 -0.9501 -0.3108
vn -0.0117 -0.9891 -0.1466
vn -0.2250 -0.8616 -0.4550
vn -0.2170 -0.8157 -0.5362
vn -0.0438 -0.9600 -0.2767
vn -0.0743 -0.9616 -0.2643
vn -0.2155 -0.8615 -0.4598
vn -0.2737 -0.9437 -0.1859
vn -0.0762 -0.9690 -0.2351
vn -0.1493 -0.9658 -0.2120
vn -0.2468 -0.9569 -0.1533
vn -0.0102 -0.9640 -0.2659
vn -0.1477 -0.8974 -0.4159
vn -0.2022 -0.8929 -0.4022
vn -0.2728 -0.9420 -0.1953
vn -0.1039 -0.9483 -0.2999
vn -0.0112 -0.9752 -0.2209
vn -0.2387 -0.9681 -0.0758
vn -0.2111 -0.9757 -0.0588
vn -0.1443 -0.9855 -0.0889
vn -0.1282 -0.9654 0.2272
vn -0.2267 -0.9320 0.2828
vn -0.0976 -0.9383 0.3318
vn -0.1413 -0.9649 0.2213
vn -0.1379 -0.9765 0.1655
vn -0.1122 -0.9322 0.3442
vn -0.1196 -0.9868 0.1094
vn -0.1660 -0.9740 0.1543
vn -0.1787 -0.9293 0.3232
vn -0.1271 -0.9404 0.3155
vn -0.1401 -0.9867 0.0825
vn -0.1518 -0.9839 0.0948
vn -0.1548 -0.9865 0.0538
vn -0.3025 -0.9112 0.2796
vn -0.2881 -0.7859 0.5471
vn 0.3496 -0.8696 -0.3487
vn 0.2476 -0.9427 -0.2237
vn 0.1811 -0.9389 0.2925
vn 0.2708 -0.9449 -0.1837
vn 0.1717 -0.9718 -0.1615
vn 0.0651 -0.9945 0.0825
vn 0.2311 -0.9701 0.0746
vn 0.1491 -0.9836 -0.1016
vn 0.0534 -0.9939 -0.0961
vn 0.2396 -0.9503 0.1989
vn 0.1403 -0.9759 0.1674
vn 0.1584 -0.9644 0.2117
vn 0.1511 -0.9657 0.2112
vn 0.0333 -0.9981 -0.0520
vn 0.0615 -0.9968 -0.0505
vn 0.0089 -0.7526 0.6584
vn 0.0538 -0.9892 0.1365
vn -0.1080 -0.9892 0.0988
vn 0.0980 -0.8412 0.5318
vn -0.0389 -0.8864 0.4613
vn -0.0661 -0.9415 0.3304
vn 0.0819 -0.9169 0.3905
vn 0.0489 -0.9601 0.2755
vn 0.1667 -0.9269 0.3363
vn -0.0653 -0.9972 0.0355
vn 0.2097 -0.9717 0.1088
vn 0.2108 -0.9711 0.1124
vn 0.1737 -0.9795 0.1015
vn 0.2161 -0.9488 0.2305
vn 0.2756 -0.9269 0.2548
vt 0.087500 0.357143
vt 0.050000 0.381886
vt 0.050000 0.332399
vt 0.462500 0.500000
vt 0.425000 0.524744
vt 0.425000 0.475256
vt 0.962500 0.500000
vt 0.925000 0.524744
vt 0.925000 0.475256
vt 0.212500 0.357143
vt 0.175000 0.381886
vt 0.175000 0.332399
s 0
usemtl Palette
f 1/1/1 16/2/1 15/3/1
f 2/1/2 18/2/2 24/3/2
f 1/1/3 15/2/3 30/3/3
f 1/1/4 30/2/4 36/3/4
f 1/1/5 36/2/5 25/3/5
f 2/1/6 24/2/6 45/3/6
f 3/1/7 21/2/7 51/3/7
f 4/1/8 33/2/8 57/3/8
f 5/1/9 39/2/9 63/3/9
f 6/1/10 42/2/10 69/3/10
f 2/1/11 45/2/11 52/3/11
f 3/1/12 51/2/12 58/3/12
f 4/1/13 57/2/13 64/3/13
f 5/1/14 63/2/14 70/3/14
f 6/1/15 69/2/15 46/3/15
f 7/4/16 75/5/16 90/6/16
f 8/4/17 78/5/17 96/6/17
f 9/4/18 81/5/18 99/6/18
f 10/4/19 84/5/19 102/6/19
f 11/4/20 87/5/20 91/6/20
f 93/4/21 100/5/21 12/6/21
f 92/4/22 103/5/22 93/6/22
f 91/4/23 104/5/23 92/6/23
f 93/4/24 103/5/24 100/6/24
f 103/4/25 101/5/25 100/6/25
f 92/4/26 104/5/26 103/6/26
f 104/4/27 105/5/27 103/6/27
f 103/4/28 105/5/28 101/6/28
f 105/4/29 102/5/29 101/6/29
f 91/4/30 87/5/30 104/6/30
f 87/4/31 86/5/31 104/6/31
f 104/4/32 86/5/32 105/6/32
f 86/4/33 85/5/33 105/6/33
f 105/4/34 85/5/34 102/6/34
f 85/4/35 10/5/35 102/6/35
f 100/4/36 97/5/36 12/6/36
f 101/4/37 106/5/37 100/6/37
f 102/4/38 107/5/38 101/6/38
f 100/4/39 106/5/39 97/6/39
f 106/4/40 98/5/40 97/6/40
f 101/4/41 107/5/41 106/6/41
f 107/4/42 108/5/42 106/6/42
f 106/4/43 108/5/43 98/6/43
f 108/4/44 99/5/44 98/6/44
f 102/4/45 84/5/45 107/6/45
f 84/4/46 83/5/46 107/6/46
f 107/4/47 83/5/47 108/6/47
f 83/4/48 82/5/48 108/6/48
f 108/4/49 82/5/49 99/6/49
f 82/4/50 9/5/50 99/6/50
f 97/4/51 94/5/51 12/6/51
f 98/4/52 109/5/52 97/6/52
f 99/4/53 110/5/53 98/6/53
f 97/4/54 109/5/54 94/6/54
f 109/4/55 95/5/55 94/6/55
f 98/4/56 110/5/56 109/6/56
f 110/4/57 111/5/57 109/6/57
f 109/4/58 111/5/58 95/6/58
f 111/4/59 96/5/59 95/6/59
f 99/4/60 81/5/60 110/6/60
f 81/4/61 80/5/61 110/6/61
f 110/4/62 80/5/62 111/6/62
f 80/4/63 79/5/63 111/6/63
f 111/4/64 79/5/64 96/6/64
f 79/4/65 8/5/65 96/6/65
f 94/4/66 88/5/66 12/6/66
f 95/4/67 112/5/67 94/6/67
f 96/4/68 113/5/68 95/6/68
f 94/4/69 112/5/69 88/6/69
f 112/4/70 89/5/70 88/6/70
f 95/4/71 113/5/71 112/6/71
f 113/4/72 114/5/72 112/6/72
f 112/4/73 114/5/73 89/6/73
f 114/4/74 90/5/74 89/6/74
f 96/4/75 78/5/75 113/6/75
f 78/4/76 77/5/76 113/6/76
f 113/4/77 77/5/77 114/6/77
f 77/4/78 76/5/78 114/6/78
f 114/4/79 76/5/79 90/6/79
f 76/4/80 7/5/80 90/6/80
f 88/4/81 93/5/81 12/6/81
f 89/4/82 115/5/82 88/6/82
f 90/4/83 116/5/83 89/6/83
f 88/4/84 115/5/84 93/6/84
f 115/4/85 92/5/85 93/6/85
f 89/4/86 116/5/86 115/6/86
f 116/4/87 117/5/87 115/6/87
f 115/4/88 117/5/88 92/6/88
f 117/4/89 91/5/89 92/6/89
f 90/4/90 75/5/90 116/6/90
f 75/4/91 74/5/91 116/6/91
f 116/4/92 74/5/92 117/6/92
f 74/4/93 73/5/93 117/6/93
f 117/4/94 73/5/94 91/6/94
f 73/4/95 11/5/95 91/6/95
f 48/4/96 87/5/96 11/6/96
f 47/4/97 118/5/97 48/6/97
f 46/7/98 119/8/98 47/9/98
f 48/4/99 118/5/99 87/6/99
f 118/4/100 86/5/100 87/6/100
f 47/10/101 119/11/101 118/12/101
f 119/10/102 120/11/102 118/12/102
f 118/4/103 120/5/103 86/6/103
f 120/4/104 85/5/104 86/6/104
f 46/1/105 69/2/105 119/3/105
f 69/1/106 68/2/106 119/3/106
f 119/1/107 68/2/107 120/3/107
f 68/1/108 67/2/108 120/3/108
f 120/4/109 67/5/109 85/6/109
f 67/4/110 10/5/110 85/6/110
f 72/4/111 84/5/111 10/6/111
f 71/10/112 121/11/112 72/12/112
f 70/1/113 122/2/113 71/3/113
f 72/4/114 121/5/114 84/6/114
f 121/4/115 83/5/115 84/6/115
f 71/10/116 122/11/116 121/12/116
f 122/10/117 123/11/117 121/12/117
f 121/4/118 123/5/118 83/6/118
f 123/4/119 82/5/119 83/6/119
f 70/1/120 63/2/120 122/3/120
f 63/7/121 62/8/121 122/9/121
f 122/10/122 62/11/122 123/12/122
f 62/7/123 61/8/123 123/9/123
f 123/7/124 61/8/124 82/9/124
f 61/4/125 9/5/125 82/6/125
f 66/4/126 81/5/126 9/6/126
f 65/7/127 124/8/127 66/9/127
f 64/7/128 125/8/128 65/9/128
f 66/4/129 124/5/129 81/6/129
f 124/4/130 80/5/130 81/6/130
f 65/10/131 125/11/131 124/12/131
f 125/4/132 126/5/132 124/6/132
f 124/4/133 126/5/133 80/6/133
f 126/4/134 79/5/134 80/6/134
f 64/1/135 57/2/135 125/3/135
f 57/1/136 56/2/136 125/3/136
f 125/7/137 56/8/137 126/9/137
f 56/7/138 55/8/138 126/9/138
f 126/4/139 55/5/139 79/6/139
f 55/4/140 8/5/140 79/6/140
f 60/4/141 78/5/141 8/6/141
f 59/10/142 127/11/142 60/12/142
f 58/1/143 128/2/143 59/3/143
f 60/4/144 127/5/144 78/6/144
f 127/4/145 77/5/145 78/6/145
f 59/10/146 128/11/146 127/12/146
f 128/10/147 129/11/147 127/12/147
f 127/4/148 129/5/148 77/6/148
f 129/4/149 76/5/149 77/6/149
f 58/1/150 51/2/150 128/3/150
f 51/10/151 50/11/151 128/12/151
f 128/1/152 50/2/152 129/3/152
f 50/10/153 49/11/153 129/12/153
f 129/4/154 49/5/154 76/6/154
f 49/7/155 7/8/155 76/9/155
f 54/4/156 75/5/156 7/6/156
f 53/10/157 130/11/157 54/12/157
f 52/1/158 131/2/158 53/3/158
f 54/4/159 130/5/159 75/6/159
f 130/4/160 74/5/160 75/6/160
f 53/10/161 131/11/161 130/12/161
f 131/7/162 132/8/162 130/9/162
f 130/4/163 132/5/163 74/6/163
f 132/4/164 73/5/164 74/6/164
f 52/1/165 45/2/165 131/3/165
f 45/1/166 44/2/166 131/3/166
f 131/10/167 44/11/167 132/12/167
f 44/7/168 43/8/168 132/9/168
f 132/4/169 43/5/169 73/6/169
f 43/4/170 11/5/170 73/6/170
f 67/7/171 72/8/171 10/9/171
f 68/10/172 133/11/172 67/12/172
f 69/1/173 134/2/173 68/3/173
f 67/7/174 133/8/174 72/9/174
f 133/10/175 71/11/175 72/12/175
f 68/1/176 134/2/176 133/3/176
f 134/1/177 135/2/177 133/3/177
f 133/1/178 135/2/178 71/3/178
f 135/1/179 70/2/179 71/3/179
f 69/1/180 42/2/180 134/3/180
f 42/1/181 41/2/181 134/3/181
f 134/1/182 41/2/182 135/3/182
f 41/1/183 40/2/183 135/3/183
f 135/1/184 40/2/184 70/3/184
f 40/1/185 5/2/185 70/3/185
f 61/7/186 66/8/186 9/9/186
f 62/10/187 136/11/187 61/12/187
f 63/1/188 137/2/188 62/3/188
f 61/10/189 136/11/189 66/12/189
f 136/7/190 65/8/190 66/9/190
f 62/1/191 137/2/191 136/3/191
f 137/1/192 138/2/192 136/3/192
f 136/1/193 138/2/193 65/3/193
f 138/1/194 64/2/194 65/3/194
f 63/1/195 39/2/195 137/3/195
f 39/1/196 38/2/196 137/3/196
f 137/1/197 38/2/197 138/3/197
f 38/1/198 37/2/198 138/3/198
f 138/1/199 37/2/199 64/3/199
f 37/1/200 4/2/200 64/3/200
f 55/7/201 60/8/201 8/9/201
f 56/10/202 139/11/202 55/12/202
f 57/1/203 140/2/203 56/3/203
f 55/7/204 139/8/204 60/9/204
f 139/10/205 59/11/205 60/12/205
f 56/1/206 140/2/206 139/3/206
f 140/1/207 141/2/207 139/3/207
f 139/1/208 141/2/208 59/3/208
f 141/1/209 58/2/209 59/3/209
f 57/1/210 33/2/210 140/3/210
f 33/1/211 32/2/211 140/3/211
f 140/1/212 32/2/212 141/3/212
f 32/1/213 31/2/213 141/3/213
f 141/1/214 31/2/214 58/3/214
f 31/1/215 3/2/215 58/3/215
f 49/7/216 54/8/216 7/9/216
f 50/7/217 142/8/217 49/9/217
f 51/1/218 143/2/218 50/3/218
f 49/7/219 142/8/219 54/9/219
f 142/7/220 53/8/220 54/9/220
f 50/1/221 143/2/221 142/3/221
f 143/1/222 144/2/222 142/3/222
f 142/1/223 144/2/223 53/3/223
f 144/1/224 52/2/224 53/3/224
f 51/1/225 21/2/225 143/3/225
f 21/1/226 20/2/226 143/3/226
f 143/1/227 20/2/227 144/3/227
f 20/1/228 19/2/228 144/3/228
f 144/1/229 19/2/229 52/3/229
f 19/1/230 2/2/230 52/3/230
f 43/4/231 48/5/231 11/6/231
f 44/10/232 145/11/232 43/12/232
f 45/1/233 146/2/233 44/3/233
f 43/4/234 145/5/234 48/6/234
f 145/4/235 47/5/235 48/6/235
f 44/1/236 146/2/236 145/3/236
f 146/1/237 147/2/237 145/3/237
f 145/1/238 147/2/238 47/3/238
f 147/1/239 46/2/239 47/3/239
f 45/1/240 24/2/240 146/3/240
f 24/1/241 23/2/241 146/3/241
f 146/1/242 23/2/242 147/3/242
f 23/1/243 22/2/243 147/3/243
f 147/1/244 22/2/244 46/3/244
f 22/1/245 6/2/245 46/3/245
f 27/1/246 42/2/246 6/3/246
f 26/1/247 148/2/247 27/3/247
f 25/1/248 149/2/248 26/3/248
f 27/1/249 148/2/249 42/3/249
f 148/1/250 41/2/250 42/3/250
f 26/1/251 149/2/251 148/3/251
f 149/1/252 150/2/252 148/3/252
f 148/1/253 150/2/253 41/3/253
f 150/1/254 40/2/254 41/3/254
f 25/1/255 36/2/255 149/3/255
f 36/1/256 35/2/256 149/3/256
f 149/1/257 35/2/257 150/3/257
f 35/1/258 34/2/258 150/3/258
f 150/1/259 34/2/259 40/3/259
f 34/1/260 5/2/260 40/3/260
f 34/1/261 39/2/261 5/3/261
f 35/1/262 151/2/262 34/3/262
f 36/1/263 152/2/263 35/3/263
f 34/1/264 151/2/264 39/3/264
f 151/1/265 38/2/265 39/3/265
f 35/1/266 152/2/266 151/3/266
f 152/1/267 153/2/267 151/3/267
f 151/1/268 153/2/268 38/3/268
f 153/1/269 37/2/269 38/3/269
f 36/1/270 30/2/270 152/3/270
f 30/1/271 29/2/271 152/3/271
f 152/1/272 29/2/272 153/3/272
f 29/1/273 28/2/273 153/3/273
f 153/1/274 28/2/274 37/3/274
f 28/1/275 4/2/275 37/3/275
f 28/1/276 33/2/276 4/3/276
f 29/1/277 154/2/277 28/3/277
f 30/1/278 155/2/278 29/3/278
f 28/1/279 154/2/279 33/3/279
f 154/1/280 32/2/280 33/3/280
f 29/1/281 155/2/281 154/3/281
f 155/1/282 156/2/282 154/3/282
f 154/1/283 156/2/283 32/3/283
f 156/1/284 31/2/284 32/3/284
f 30/1/285 15/2/285 155/3/285
f 15/1/286 14/2/286 155/3/286
f 155/1/287 14/2/287 156/3/287
f 14/1/288 13/2/288 156/3/288
f 156/1/289 13/2/289 31/3/289
f 13/1/290 3/2/290 31/3/290
f 22/1/291 27/2/291 6/3/291
f 23/1/292 157/2/292 22/3/292
f 24/1/293 158/2/293 23/3/293
f 22/1/294 157/2/294 27/3/294
f 157/1/295 26/2/295 27/3/295
f 23/1/296 158/2/296 157/3/296
f 158/1/297 159/2/297 157/3/297
f 157/1/298 159/2/298 26/3/298
f 159/1/299 25/2/299 26/3/299
f 24/1/300 18/2/300 158/3/300
f 18/1/301 17/2/301 158/3/301
f 158/1/302 17/2/302 159/3/302
f 17/1/303 16/2/303 159/3/303
f 159/1/304 16/2/304 25/3/304
f 16/1/305 1/2/305 25/3/305
f 13/1/306 21/2/306 3/3/306
f 14/1/307 160/2/307 13/3/307
f 15/1/308 161/2/308 14/3/308
f 13/1/309 160/2/309 21/3/309
f 160/1/310 20/2/310 21/3/310
f 14/1/311 161/2/311 160/3/311
f 161/1/312 162/2/312 160/3/312
f 160/1/313 162/2/313 20/3/313
f 162/1/314 19/2/314 20/3/314
f 15/1/315 16/2/315 161/3/315
f 16/1/316 17/2/316 161/3/316
f 161/1/317 17/2/317 162/3/317
f 17/1/318 18/2/318 162/3/318
f 162/1/319 18/2/319 19/3/319
f 18/1/320 2/2/320 19/3/320
