# Blender 5.0.1
# www.blender.org
mtllib grind_box.mtl
o grind_box
v -8.940000 0.000000 0.840000
v -8.940000 0.060000 0.900000
v -9.000000 0.060000 0.840000
v -8.940000 1.540000 0.900000
v -8.940000 1.600000 0.840000
v -9.000000 1.540000 0.840000
v -8.940000 0.000000 -0.840000
v -9.000000 0.060000 -0.840000
v -8.940000 0.060000 -0.900000
v -8.940000 1.600000 -0.840000
v -8.940000 1.540000 -0.900000
v -9.000000 1.540000 -0.840000
v 8.940000 0.000000 0.840000
v 9.000000 0.060000 0.840000
v 8.940000 0.060000 0.900000
v 8.940000 1.600000 0.840000
v 8.940000 1.540000 0.900000
v 9.000000 1.540000 0.840000
v 8.940000 0.000000 -0.840000
v 8.940000 0.060000 -0.900000
v 9.000000 0.060000 -0.840000
v 8.940000 1.600000 -0.840000
v 9.000000 1.540000 -0.840000
v 8.940000 1.540000 -0.900000
v -9.020000 0.570000 0.920000
v -9.020000 0.870000 0.920000
v -9.020000 0.570000 -0.920000
v -9.020000 0.870000 -0.920000
v 9.020000 0.570000 0.920000
v 9.020000 0.870000 0.920000
v 9.020000 0.570000 -0.920000
v 9.020000 0.870000 -0.920000
v -8.970000 1.600000 0.920000
v -8.970000 1.630000 0.950000
v -9.000000 1.630000 0.920000
v -8.970000 1.690000 0.950000
v -8.970000 1.720000 0.920000
v -9.000000 1.690000 0.920000
v -8.970000 1.600000 -0.920000
v -9.000000 1.630000 -0.920000
v -8.970000 1.630000 -0.950000
v -8.970000 1.720000 -0.920000
v -8.970000 1.690000 -0.950000
v -9.000000 1.690000 -0.920000
v 8.970000 1.600000 0.920000
v 9.000000 1.630000 0.920000
v 8.970000 1.630000 0.950000
v 8.970000 1.720000 0.920000
v 8.970000 1.690000 0.950000
v 9.000000 1.690000 0.920000
v 8.970000 1.600000 -0.920000
v 8.970000 1.630000 -0.950000
v 9.000000 1.630000 -0.920000
v 8.970000 1.720000 -0.920000
v 9.000000 1.690000 -0.920000
v 8.970000 1.690000 -0.950000
v -8.960000 1.500000 0.980000
v -8.960000 1.540000 1.020000
v -9.000000 1.540000 0.980000
v -8.960000 1.660000 1.020000
v -8.960000 1.700000 0.980000
v -9.000000 1.660000 0.980000
v -8.960000 1.500000 0.920000
v -9.000000 1.540000 0.920000
v -8.960000 1.540000 0.880000
v -8.960000 1.700000 0.920000
v -8.960000 1.660000 0.880000
v -9.000000 1.660000 0.920000
v 8.960000 1.500000 0.980000
v 9.000000 1.540000 0.980000
v 8.960000 1.540000 1.020000
v 8.960000 1.700000 0.980000
v 8.960000 1.660000 1.020000
v 9.000000 1.660000 0.980000
v 8.960000 1.500000 0.920000
v 8.960000 1.540000 0.880000
v 9.000000 1.540000 0.920000
v 8.960000 1.700000 0.920000
v 9.000000 1.660000 0.920000
v 8.960000 1.660000 0.880000
v -8.960000 1.500000 -0.920000
v -8.960000 1.540000 -0.880000
v -9.000000 1.540000 -0.920000
v -8.960000 1.660000 -0.880000
v -8.960000 1.700000 -0.920000
v -9.000000 1.660000 -0.920000
v -8.960000 1.500000 -0.980000
v -9.000000 1.540000 -0.980000
v -8.960000 1.540000 -1.020000
v -8.960000 1.700000 -0.980000
v -8.960000 1.660000 -1.020000
v -9.000000 1.660000 -0.980000
v 8.960000 1.500000 -0.920000
v 9.000000 1.540000 -0.920000
v 8.960000 1.540000 -0.880000
v 8.960000 1.700000 -0.920000
v 8.960000 1.660000 -0.880000
v 9.000000 1.660000 -0.920000
v 8.960000 1.500000 -0.980000
v 8.960000 1.540000 -1.020000
v 9.000000 1.540000 -0.980000
v 8.960000 1.700000 -0.980000
v 9.000000 1.660000 -0.980000
v 8.960000 1.660000 -1.020000
v -9.000000 0.000000 -0.900000
v -11.200000 0.000000 -0.900000
v -9.000000 1.600000 -0.900000
v -9.000000 0.000000 0.900000
v -11.200000 0.000000 0.900000
v -9.000000 1.600000 0.900000
v 9.000000 0.000000 0.900000
v 11.200000 0.000000 0.900000
v 9.000000 1.600000 0.900000
v 9.000000 0.000000 -0.900000
v 11.200000 0.000000 -0.900000
v 9.000000 1.600000 -0.900000
vn -0.5774 -0.5774 0.5773
vn -0.5774 0.5774 0.5773
vn -0.5774 -0.5774 -0.5773
vn -0.5774 0.5774 -0.5773
vn 0.5774 -0.5774 0.5773
vn 0.5774 0.5774 0.5773
vn 0.5774 -0.5774 -0.5773
vn 0.5774 0.5774 -0.5773
vn -0.7071 -0.7071 -0.0000
vn -0.7071 -0.0000 0.7071
vn -0.7071 0.7071 -0.0000
vn -0.7071 -0.0000 -0.7071
vn -0.0000 -0.7071 -0.7071
vn -0.0000 0.7071 -0.7071
vn 0.7071 -0.0000 -0.7071
vn 0.7071 -0.7071 -0.0000
vn 0.7071 0.7071 -0.0000
vn 0.7071 -0.0000 0.7071
vn -0.0000 -0.7071 0.7071
vn -0.0000 0.7071 0.7071
vn -0.0000 -1.0000 -0.0000
vn -1.0000 -0.0000 -0.0000
vn -0.0000 -0.0000 1.0000
vn -0.0000 1.0000 -0.0000
vn -0.0000 -0.0000 -1.0000
vn 1.0000 -0.0000 -0.0000
vn -0.5773 -0.5773 0.5774
vn -0.5773 0.5773 0.5774
vn -0.5773 -0.5773 -0.5774
vn -0.5773 0.5773 -0.5774
vn 0.5773 -0.5773 0.5774
vn 0.5773 0.5773 0.5774
vn 0.5773 -0.5773 -0.5774
vn 0.5773 0.5773 -0.5774
vn -0.5882 0.8087 -0.0000
vn 0.5882 0.8087 -0.0000
vt 0.837500 0.071429
vt 0.800000 0.096172
vt 0.800000 0.046685
vt 0.087500 0.928571
vt 0.050000 0.953315
vt 0.050000 0.903828
vt 0.087500 0.500000
vt 0.050000 0.524744
vt 0.050000 0.475256
vt 0.212500 0.500000
vt 0.175000 0.524744
vt 0.175000 0.475256
s 0
usemtl Palette
f 1/1/1 2/2/1 3/3/1
f 4/1/2 5/2/2 6/3/2
f 7/1/3 8/2/3 9/3/3
f 10/1/4 11/2/4 12/3/4
f 13/1/5 14/2/5 15/3/5
f 16/1/6 17/2/6 18/3/6
f 19/1/7 20/2/7 21/3/7
f 22/1/8 23/2/8 24/3/8
f 1/1/9 8/2/9 7/3/9
f 4/1/10 3/2/10 2/3/10
f 10/1/11 6/2/11 5/3/11
f 9/1/12 12/2/12 11/3/12
f 7/1/13 20/2/13 19/3/13
f 22/1/14 11/2/14 10/3/14
f 21/1/15 24/2/15 23/3/15
f 19/1/16 14/2/16 13/3/16
f 16/1/17 23/2/17 22/3/17
f 15/1/18 18/2/18 17/3/18
f 13/1/19 2/2/19 1/3/19
f 5/1/20 17/2/20 16/3/20
f 19/1/21 1/2/21 7/3/21
f 6/1/22 8/2/22 3/3/22
f 17/1/23 2/2/23 15/3/23
f 10/1/24 16/2/24 22/3/24
f 11/1/25 20/2/25 9/3/25
f 23/1/26 14/2/26 21/3/26
f 26/4/22 27/5/22 25/6/22
f 28/4/25 31/5/25 27/6/25
f 32/4/26 29/5/26 31/6/26
f 30/4/23 25/5/23 29/6/23
f 31/4/21 25/5/21 27/6/21
f 28/4/24 30/5/24 32/6/24
f 33/7/27 34/8/27 35/9/27
f 36/7/28 37/8/28 38/9/28
f 39/7/29 40/8/29 41/9/29
f 42/7/30 43/8/30 44/9/30
f 45/7/31 46/8/31 47/9/31
f 48/7/32 49/8/32 50/9/32
f 51/7/33 52/8/33 53/9/33
f 54/7/34 55/8/34 56/9/34
f 33/7/9 40/8/9 39/9/9
f 34/7/10 38/8/10 35/9/10
f 42/7/11 38/8/11 37/9/11
f 43/7/12 40/8/12 44/9/12
f 39/7/13 52/8/13 51/9/13
f 54/7/14 43/8/14 42/9/14
f 55/7/15 52/8/15 56/9/15
f 51/7/16 46/8/16 45/9/16
f 48/7/17 55/8/17 54/9/17
f 49/7/18 46/8/18 50/9/18
f 45/7/19 34/8/19 33/9/19
f 37/7/20 49/8/20 48/9/20
f 51/7/21 33/8/21 39/9/21
f 35/7/22 44/8/22 40/9/22
f 49/7/23 34/8/23 47/9/23
f 42/7/24 48/8/24 54/9/24
f 43/7/25 52/8/25 41/9/25
f 53/7/26 50/8/26 46/9/26
f 57/7/1 58/8/1 59/9/1
f 60/7/2 61/8/2 62/9/2
f 63/7/3 64/8/3 65/9/3
f 66/7/4 67/8/4 68/9/4
f 69/7/5 70/8/5 71/9/5
f 72/7/6 73/8/6 74/9/6
f 75/7/7 76/8/7 77/9/7
f 78/7/8 79/8/8 80/9/8
f 57/7/9 64/8/9 63/9/9
f 60/7/10 59/8/10 58/9/10
f 66/7/11 62/8/11 61/9/11
f 65/7/12 68/8/12 67/9/12
f 63/7/13 76/8/13 75/9/13
f 78/7/14 67/8/14 66/9/14
f 77/7/15 80/8/15 79/9/15
f 75/7/16 70/8/16 69/9/16
f 72/7/17 79/8/17 78/9/17
f 71/7/18 74/8/18 73/9/18
f 69/7/19 58/8/19 57/9/19
f 61/7/20 73/8/20 72/9/20
f 75/7/21 57/8/21 63/9/21
f 62/7/22 64/8/22 59/9/22
f 73/7/23 58/8/23 71/9/23
f 66/7/24 72/8/24 78/9/24
f 67/7/25 76/8/25 65/9/25
f 79/7/26 70/8/26 77/9/26
f 81/7/1 82/8/1 83/9/1
f 84/7/2 85/8/2 86/9/2
f 87/7/3 88/8/3 89/9/3
f 90/7/4 91/8/4 92/9/4
f 93/7/5 94/8/5 95/9/5
f 96/7/6 97/8/6 98/9/6
f 99/7/7 100/8/7 101/9/7
f 102/7/8 103/8/8 104/9/8
f 81/7/9 88/8/9 87/9/9
f 84/7/10 83/8/10 82/9/10
f 90/7/11 86/8/11 85/9/11
f 89/7/12 92/8/12 91/9/12
f 87/7/13 100/8/13 99/9/13
f 102/7/14 91/8/14 90/9/14
f 101/7/15 104/8/15 103/9/15
f 99/7/16 94/8/16 93/9/16
f 96/7/17 103/8/17 102/9/17
f 95/7/18 98/8/18 97/9/18
f 93/7/19 82/8/19 81/9/19
f 85/7/20 97/8/20 96/9/20
f 99/7/21 81/8/21 87/9/21
f 86/7/22 88/8/22 83/9/22
f 97/7/23 82/8/23 95/9/23
f 90/7/24 96/8/24 102/9/24
f 91/7/25 100/8/25 89/9/25
f 103/7/26 94/8/26 101/9/26
f 105/10/25 106/11/25 107/12/25
f 110/10/23 109/11/23 108/12/23
f 108/10/21 106/11/21 105/12/21
f 109/10/35 107/11/35 106/12/35
f 110/10/26 105/11/26 107/12/26
f 111/10/23 112/11/23 113/12/23
f 116/10/25 115/11/25 114/12/25
f 114/10/21 112/11/21 111/12/21
f 115/10/36 113/11/36 112/12/36
f 116/10/22 111/11/22 113/12/22
f 1/1/9 3/2/9 8/3/9
f 4/1/10 6/2/10 3/3/10
f 10/1/11 12/2/11 6/3/11
f 9/1/12 8/2/12 12/3/12
f 7/1/13 9/2/13 20/3/13
f 22/1/14 24/2/14 11/3/14
f 21/1/15 20/2/15 24/3/15
f 19/1/16 21/2/16 14/3/16
f 16/1/17 18/2/17 23/3/17
f 15/1/18 14/2/18 18/3/18
f 13/1/19 15/2/19 2/3/19
f 5/1/20 4/2/20 17/3/20
f 19/1/21 13/2/21 1/3/21
f 6/1/22 12/2/22 8/3/22
f 17/1/23 4/2/23 2/3/23
f 10/1/24 5/2/24 16/3/24
f 11/1/25 24/2/25 20/3/25
f 23/1/26 18/2/26 14/3/26
f 26/4/22 28/5/22 27/6/22
f 28/4/25 32/5/25 31/6/25
f 32/4/26 30/5/26 29/6/26
f 30/4/23 26/5/23 25/6/23
f 31/4/21 29/5/21 25/6/21
f 28/4/24 26/5/24 30/6/24
f 33/7/9 35/8/9 40/9/9
f 34/7/10 36/8/10 38/9/10
f 42/7/11 44/8/11 38/9/11
f 43/7/12 41/8/12 40/9/12
f 39/7/13 41/8/13 52/9/13
f 54/7/14 56/8/14 43/9/14
f 55/7/15 53/8/15 52/9/15
f 51/7/16 53/8/16 46/9/16
f 48/7/17 50/8/17 55/9/17
f 49/7/18 47/8/18 46/9/18
f 45/7/19 47/8/19 34/9/19
f 37/7/20 36/8/20 49/9/20
f 51/7/21 45/8/21 33/9/21
f 35/7/22 38/8/22 44/9/22
f 49/7/23 36/8/23 34/9/23
f 42/7/24 37/8/24 48/9/24
f 43/7/25 56/8/25 52/9/25
f 53/7/26 55/8/26 50/9/26
f 57/7/9 59/8/9 64/9/9
f 60/7/10 62/8/10 59/9/10
f 66/7/11 68/8/11 62/9/11
f 65/7/12 64/8/12 68/9/12
f 63/7/13 65/8/13 76/9/13
f 78/7/14 80/8/14 67/9/14
f 77/7/15 76/8/15 80/9/15
f 75/7/16 77/8/16 70/9/16
f 72/7/17 74/8/17 79/9/17
f 71/7/18 70/8/18 74/9/18
f 69/7/19 71/8/19 58/9/19
f 61/7/20 60/8/20 73/9/20
f 75/7/21 69/8/21 57/9/21
f 62/7/22 68/8/22 64/9/22
f 73/7/23 60/8/23 58/9/23
f 66/7/24 61/8/24 72/9/24
f 67/7/25 80/8/25 76/9/25
f 79/7/26 74/8/26 70/9/26
f 81/7/9 83/8/9 88/9/9
f 84/7/10 86/8/10 83/9/10
f 90/7/11 92/8/11 86/9/11
f 89/7/12 88/8/12 92/9/12
f 87/7/13 89/8/13 100/9/13
f 102/7/14 104/8/14 91/9/14
f 101/7/15 100/8/15 104/9/15
f 99/7/16 101/8/16 94/9/16
f 96/7/17 98/8/17 103/9/17
f 95/7/18 94/8/18 98/9/18
f 93/7/19 95/8/19 82/9/19
f 85/7/20 84/8/20 97/9/20
f 99/7/21 93/8/21 81/9/21
f 86/7/22 92/8/22 88/9/22
f 97/7/23 84/8/23 82/9/23
f 90/7/24 85/8/24 96/9/24
f 91/7/25 104/8/25 100/9/25
f 103/7/26 98/8/26 94/9/26
f 108/10/21 109/11/21 106/12/21
f 109/10/35 110/11/35 107/12/35
f 110/10/26 108/11/26 105/12/26
f 114/10/21 115/11/21 112/12/21
f 115/10/36 116/11/36 113/12/36
f 116/10/22 114/11/22 111/12/22
