# Blender 5.0.1
# www.blender.org
mtllib signpost.mtl
o signpost_Main
v -0.010835 0.000000 -0.609661
v -0.010835 9.000000 -0.609661
v 0.201297 0.000000 -0.521793
v 0.201297 9.000000 -0.521793
v 0.289165 0.000000 -0.309661
v 0.289165 9.000000 -0.309661
v 0.201297 0.000000 -0.097529
v 0.201297 9.000000 -0.097529
v -0.010835 0.000000 -0.009661
v -0.010835 9.000000 -0.009661
v -0.222967 0.000000 -0.097529
v -0.222967 9.000000 -0.097529
v -0.310835 0.000000 -0.309661
v -0.310835 9.000000 -0.309661
v -0.222967 0.000000 -0.521793
v -0.222967 9.000000 -0.521793
v -0.010835 8.950000 -0.649661
v 0.229581 8.950000 -0.550077
v 0.329165 8.950000 -0.309661
v 0.229581 8.950000 -0.069244
v -0.010835 8.950000 0.030339
v -0.251251 8.950000 -0.069244
v -0.350835 8.950000 -0.309661
v -0.251251 8.950000 -0.550077
v -0.010835 9.450000 -0.309661
v 0.005866 8.130000 -0.190829
v 0.005866 8.230000 -0.190829
v -0.027536 8.130000 -0.428493
v -0.027536 8.230000 -0.428493
v 4.164991 8.130000 -0.775356
v 4.164991 8.230000 -0.775356
v 4.131590 8.130000 -1.013020
v 4.131590 8.230000 -1.013020
v -4.167865 6.730000 -0.920806
v -4.167865 6.830000 -0.920806
v -4.126189 6.730000 -1.157160
v -4.126189 6.830000 -1.157160
v -0.031673 6.730000 -0.191484
v -0.031673 6.830000 -0.191484
v 0.010003 6.730000 -0.427838
v 0.010003 6.830000 -0.427838
v -0.047917 5.330000 -0.195534
v -0.047917 5.430000 -0.195534
v 0.026247 5.330000 -0.423787
v 0.026247 5.430000 -0.423787
v 3.946520 5.330000 1.102337
v 3.946520 5.430000 1.102337
v 4.020684 5.330000 0.874084
v 4.020684 5.430000 0.874084
vn 0.3827 -0.0000 -0.9239
vn 0.9239 -0.0000 -0.3827
vn 0.9239 -0.0000 0.3827
vn 0.3827 -0.0000 0.9239
vn -0.3827 -0.0000 0.9239
vn -0.9239 -0.0000 0.3827
vn -0.0000 1.0000 -0.0000
vn -0.9239 -0.0000 -0.3827
vn -0.3827 -0.0000 -0.9239
vn -0.0000 -1.0000 -0.0000
vn 0.3240 0.5320 -0.7823
vn 0.7823 0.5320 -0.3240
vn 0.7823 0.5320 0.3240
vn 0.3240 0.5320 0.7823
vn -0.3240 0.5320 0.7823
vn -0.7823 0.5320 0.3240
vn -0.7823 0.5320 -0.3240
vn -0.3240 0.5320 -0.7823
vn -0.9903 -0.0000 0.1392
vn -0.1392 -0.0000 -0.9903
vn 0.9903 -0.0000 -0.1392
vn 0.1392 -0.0000 0.9903
vn -0.9848 -0.0000 -0.1736
vn 0.1736 -0.0000 -0.9848
vn 0.9848 -0.0000 0.1736
vn -0.1736 -0.0000 0.9848
vn -0.9511 -0.0000 -0.3090
vn 0.3090 -0.0000 -0.9511
vn 0.9511 -0.0000 0.3090
vn -0.3090 -0.0000 0.9511
vn -0.9848 -0.0000 -0.1737
vt 0.837500 0.357143
vt 0.800000 0.381886
vt 0.800000 0.332399
vt 0.462500 0.500000
vt 0.425000 0.524744
vt 0.425000 0.475256
s 0
usemtl Palette
f 2/1/1 3/2/1 1/3/1
f 4/1/2 5/2/2 3/3/2
f 6/1/3 7/2/3 5/3/3
f 8/1/4 9/2/4 7/3/4
f 10/1/5 11/2/5 9/3/5
f 12/1/6 13/2/6 11/3/6
f 14/1/7 10/2/7 6/3/7
f 14/1/8 15/2/8 13/3/8
f 16/1/9 1/2/9 15/3/9
f 7/1/10 11/2/10 15/3/10
f 17/4/11 25/5/11 18/6/11
f 18/4/12 25/5/12 19/6/12
f 19/4/13 25/5/13 20/6/13
f 20/4/14 25/5/14 21/6/14
f 21/4/15 25/5/15 22/6/15
f 22/4/16 25/5/16 23/6/16
f 20/4/10 22/5/10 24/6/10
f 23/4/17 25/5/17 24/6/17
f 24/4/18 25/5/18 17/6/18
f 27/4/19 28/5/19 26/6/19
f 29/4/20 32/5/20 28/6/20
f 33/4/21 30/5/21 32/6/21
f 31/4/22 26/5/22 30/6/22
f 32/4/10 26/5/10 28/6/10
f 33/4/7 27/5/7 31/6/7
f 35/4/23 36/5/23 34/6/23
f 37/4/24 40/5/24 36/6/24
f 41/4/25 38/5/25 40/6/25
f 39/4/26 34/5/26 38/6/26
f 40/4/10 34/5/10 36/6/10
f 37/4/7 39/5/7 41/6/7
f 43/4/27 44/5/27 42/6/27
f 45/4/28 48/5/28 44/6/28
f 49/4/29 46/5/29 48/6/29
f 47/4/30 42/5/30 46/6/30
f 44/4/10 46/5/10 42/6/10
f 45/4/7 47/5/7 49/6/7
f 2/1/1 4/2/1 3/3/1
f 4/1/2 6/2/2 5/3/2
f 6/1/3 8/2/3 7/3/3
f 8/1/4 10/2/4 9/3/4
f 10/1/5 12/2/5 11/3/5
f 12/1/6 14/2/6 13/3/6
f 6/1/7 4/2/7 2/3/7
f 2/1/7 16/2/7 14/3/7
f 14/1/7 12/2/7 10/3/7
f 10/1/7 8/2/7 6/3/7
f 6/1/7 2/2/7 14/3/7
f 14/1/8 16/2/8 15/3/8
f 16/1/9 2/2/9 1/3/9
f 15/1/10 1/2/10 3/3/10
f 3/1/10 5/2/10 7/3/10
f 7/1/10 9/2/10 11/3/10
f 11/1/10 13/2/10 15/3/10
f 15/1/10 3/2/10 7/3/10
f 24/4/10 17/5/10 18/6/10
f 18/4/10 19/5/10 24/6/10
f 19/4/10 20/5/10 24/6/10
f 20/4/10 21/5/10 22/6/10
f 22/4/10 23/5/10 24/6/10
f 27/4/19 29/5/19 28/6/19
f 29/4/20 33/5/20 32/6/20
f 33/4/21 31/5/21 30/6/21
f 31/4/22 27/5/22 26/6/22
f 32/4/10 30/5/10 26/6/10
f 33/4/7 29/5/7 27/6/7
f 35/4/31 37/5/31 36/6/31
f 37/4/24 41/5/24 40/6/24
f 41/4/25 39/5/25 38/6/25
f 39/4/26 35/5/26 34/6/26
f 40/4/10 38/5/10 34/6/10
f 37/4/7 35/5/7 39/6/7
f 43/4/27 45/5/27 44/6/27
f 45/4/28 49/5/28 48/6/28
f 49/4/29 47/5/29 46/6/29
f 47/4/30 43/5/30 42/6/30
f 44/4/10 48/5/10 46/6/10
f 45/4/7 43/5/7 47/6/7
o signpost_Signs
v 0.003082 7.050000 -0.210634
v 3.766101 7.050000 -0.739492
v 4.558315 7.600000 -0.850830
v 3.766101 8.150001 -0.739492
v 0.003082 8.150001 -0.210634
v -0.024752 7.050000 -0.408688
v 3.738266 7.050000 -0.937545
v 4.530480 7.600000 -1.048884
v 3.738266 8.150001 -0.937545
v -0.024752 8.150001 -0.408688
v -0.028200 6.750000 -0.211180
v -3.770469 6.750000 -0.871043
v -4.558315 6.200000 -1.009962
v -3.770469 5.650000 -0.871043
v -0.028200 5.650000 -0.211180
v 0.006530 6.750000 -0.408141
v -3.735739 6.750000 -1.068004
v -4.523585 6.200000 -1.206923
v -3.735739 5.650000 -1.068004
v 0.006530 5.650000 -0.408141
v -0.041737 4.250000 -0.214555
v 3.572278 4.250000 0.959710
v 4.333123 4.800000 1.206923
v 3.572278 5.350000 0.959710
v -0.041737 5.350000 -0.214555
v 0.020067 4.250000 -0.404766
v 3.634082 4.250000 0.769498
v 4.394927 4.800000 1.016712
v 3.634082 5.350000 0.769498
v 0.020067 5.350000 -0.404766
vn 0.1392 -0.0000 0.9903
vn -0.1392 -0.0000 -0.9903
vn -0.0000 -1.0000 -0.0000
vn 0.5610 -0.8240 -0.0788
vn 0.5610 0.8240 -0.0788
vn -0.0000 1.0000 -0.0000
vn -0.9903 -0.0000 0.1392
vn -0.1736 -0.0000 0.9848
vn 0.1736 -0.0000 -0.9848
vn -0.5579 0.8240 -0.0984
vn -0.5579 -0.8240 -0.0984
vn 0.9848 -0.0000 0.1736
vn -0.3090 -0.0000 0.9511
vn 0.3090 -0.0000 -0.9511
vn 0.5388 -0.8240 0.1751
vn 0.5388 0.8240 0.1751
vn -0.9511 -0.0000 -0.3090
vt 0.826087 0.676667
vt 0.826087 0.990000
vt 0.000000 0.990000
vt 0.173913 0.990000
vt 0.173913 0.676667
vt 1.000000 0.676667
vt 0.020000 0.686667
vt 0.173913 0.656667
vt 0.173913 0.343333
vt 1.000000 0.343333
vt 0.826087 0.343333
vt 0.826087 0.656667
vt 0.000000 0.656667
vt 0.020000 0.353333
vt 0.826087 0.010000
vt 0.826087 0.323333
vt 0.000000 0.323333
vt 0.173913 0.323333
vt 0.173913 0.010000
vt 1.000000 0.010000
vt 0.020000 0.020000
vt 0.000000 0.676667
vt 1.000000 0.833333
vt 1.000000 0.990000
vt 0.000000 0.833333
vt 1.000000 0.656667
vt 0.000000 0.500000
vt 0.000000 0.343333
vt 1.000000 0.500000
vt 0.000000 0.010000
vt 1.000000 0.166667
vt 1.000000 0.323333
vt 0.000000 0.166667
s 0
usemtl tex_signpost_arrows.png
f 51/7/32 53/8/32 54/9/32
f 58/10/33 56/11/33 55/12/33
f 55/13/34 51/13/34 50/13/34
f 51/13/35 57/13/35 52/13/35
f 57/13/36 53/13/36 52/13/36
f 53/13/37 59/13/37 54/13/37
f 59/13/38 50/13/38 54/13/38
f 54/9/32 50/28/32 51/7/32
f 51/7/32 52/29/32 53/8/32
f 55/12/33 59/30/33 58/10/33
f 58/10/33 57/31/33 56/11/33
f 55/13/34 56/13/34 51/13/34
f 51/13/35 56/13/35 57/13/35
f 57/13/36 58/13/36 53/13/36
f 53/13/37 58/13/37 59/13/37
f 59/13/38 55/13/38 50/13/38
usemtl tex_signpost_arrows.png.001
f 61/14/39 63/15/39 64/16/39
f 68/17/40 66/18/40 65/19/40
f 65/20/37 61/20/37 60/20/37
f 66/20/41 62/20/41 61/20/41
f 67/20/42 63/20/42 62/20/42
f 63/20/34 69/20/34 64/20/34
f 69/20/43 60/20/43 64/20/43
f 64/16/39 60/32/39 61/14/39
f 61/14/39 62/33/39 63/15/39
f 65/19/40 69/34/40 68/17/40
f 68/17/40 67/35/40 66/18/40
f 65/20/37 66/20/37 61/20/37
f 66/20/41 67/20/41 62/20/41
f 67/20/42 68/20/42 63/20/42
f 63/20/34 68/20/34 69/20/34
f 69/20/43 65/20/43 60/20/43
usemtl tex_signpost_arrows.png.002
f 71/21/44 73/22/44 74/23/44
f 78/24/45 76/25/45 75/26/45
f 70/27/34 76/27/34 71/27/34
f 76/27/46 72/27/46 71/27/46
f 77/27/47 73/27/47 72/27/47
f 73/27/37 79/27/37 74/27/37
f 79/27/48 70/27/48 74/27/48
f 74/23/44 70/36/44 71/21/44
f 71/21/44 72/37/44 73/22/44
f 75/26/45 79/38/45 78/24/45
f 78/24/45 77/39/45 76/25/45
f 70/27/34 75/27/34 76/27/34
f 76/27/46 77/27/46 72/27/46
f 77/27/47 78/27/47 73/27/47
f 73/27/37 78/27/37 79/27/37
f 79/27/48 75/27/48 70/27/48
