# Blender 5.0.1
# www.blender.org
mtllib rail_kink.mtl
o rail_kink
v -12.000000 5.000000 -0.280000
v -12.000000 4.860000 -0.242487
v -12.000000 4.757513 -0.140000
v -4.000000 4.757513 -0.140000
v -12.000000 4.720000 0.000000
v -4.000000 4.720000 0.000000
v -12.000000 4.757513 0.140000
v -4.000000 4.757513 0.140000
v -12.000000 4.860000 0.242487
v -12.000000 5.000000 0.280000
v -12.000000 5.140000 0.242487
v -4.000000 5.140000 0.242487
v -12.000000 5.242487 0.140000
v -12.000000 5.280000 0.000000
v -12.000000 5.242487 -0.140000
v -12.000000 5.140000 -0.242487
v -4.000000 5.140000 -0.242487
v -4.046249 4.867859 -0.242487
v 3.953751 2.067860 -0.242487
v -4.080106 4.771125 -0.140000
v 3.919894 1.971127 -0.140000
v -4.092498 4.735719 0.000000
v 3.907502 1.935720 0.000000
v -4.080106 4.771125 0.140000
v 3.919894 1.971127 0.140000
v -4.046249 4.867859 0.242487
v 3.953751 2.067860 0.242487
v -3.953751 5.132139 0.242487
v 4.046249 2.332141 0.242487
v -3.919894 5.228872 0.140000
v 4.080106 2.428874 0.140000
v -3.907502 5.264279 0.000000
v 4.092499 2.464281 0.000000
v -3.919894 5.228872 -0.140000
v 4.080106 2.428874 -0.140000
v -3.953751 5.132139 -0.242487
v 4.046249 2.332141 -0.242487
v 12.000000 2.200000 -0.280000
v 4.000000 2.060000 -0.242487
v 12.000000 2.060000 -0.242487
v 12.000000 1.957513 -0.140000
v 4.000000 1.920000 0.000000
v 12.000000 1.920000 0.000000
v 12.000000 1.957513 0.140000
v 4.000000 2.060000 0.242487
v 12.000000 2.060000 0.242487
v 12.000000 2.200000 0.280000
v 4.000000 2.340000 0.242487
v 12.000000 2.340000 0.242487
v 12.000000 2.442487 0.140000
v 4.000000 2.480000 0.000000
v 12.000000 2.480000 0.000000
v 12.000000 2.442487 -0.140000
v 4.000000 2.340000 -0.242487
v 12.000000 2.340000 -0.242487
v -4.000000 5.280000 0.000000
v -3.930000 5.242487 -0.121244
v -3.878757 5.140000 -0.210000
v -3.860000 5.000000 -0.242487
v -3.878757 4.860000 -0.210000
v -3.930000 4.757513 -0.121244
v -3.878757 5.242487 -0.070000
v -3.790000 5.140000 -0.121244
v -3.757513 5.000000 -0.140000
v -3.790000 4.860000 -0.121244
v -3.878757 4.757513 -0.070000
v -3.860000 5.242487 0.000000
v -3.757513 5.140000 0.000000
v -3.720000 5.000000 0.000000
v -3.757513 4.860000 0.000000
v -3.860000 4.757513 0.000000
v -3.878757 5.242487 0.070000
v -3.790000 5.140000 0.121244
v -3.757513 5.000000 0.140000
v -3.790000 4.860000 0.121244
v -3.878757 4.757513 0.070000
v -3.930000 5.242487 0.121244
v -3.878757 5.140000 0.210000
v -3.860000 5.000000 0.242487
v -3.878757 4.860000 0.210000
v -3.930000 4.757513 0.121244
v -4.000000 5.242487 0.140000
v -4.000000 5.000000 0.280000
v -4.000000 4.860000 0.242487
v -4.070000 5.242487 0.121244
v -4.121243 5.140000 0.210000
v -4.140000 5.000000 0.242487
v -4.121243 4.860000 0.210000
v -4.070000 4.757513 0.121244
v -4.121243 5.242487 0.070000
v -4.210000 5.140000 0.121244
v -4.242487 5.000000 0.140000
v -4.210000 4.860000 0.121244
v -4.121243 4.757513 0.070000
v -4.140000 5.242487 0.000000
v -4.242487 5.140000 0.000000
v -4.280000 5.000000 0.000000
v -4.242487 4.860000 0.000000
v -4.140000 4.757513 0.000000
v -4.121243 5.242487 -0.070000
v -4.210000 5.140000 -0.121244
v -4.242487 5.000000 -0.140000
v -4.210000 4.860000 -0.121244
v -4.121243 4.757513 -0.070000
v -4.070000 5.242487 -0.121244
v -4.121243 5.140000 -0.210000
v -4.140000 5.000000 -0.242487
v -4.121243 4.860000 -0.210000
v -4.070000 4.757513 -0.121244
v -4.000000 5.242487 -0.140000
v -4.000000 5.000000 -0.280000
v -4.000000 4.860000 -0.242487
v 4.070000 2.442487 -0.121244
v 4.121243 2.340000 -0.210000
v 4.140000 2.200000 -0.242487
v 4.121243 2.060000 -0.210000
v 4.070000 1.957513 -0.121244
v 4.121243 2.442487 -0.070000
v 4.210000 2.340000 -0.121244
v 4.242487 2.200000 -0.140000
v 4.210000 2.060000 -0.121244
v 4.121243 1.957513 -0.070000
v 4.140000 2.442487 0.000000
v 4.242487 2.340000 0.000000
v 4.280000 2.200000 0.000000
v 4.242487 2.060000 0.000000
v 4.140000 1.957513 0.000000
v 4.121243 2.442487 0.070000
v 4.210000 2.340000 0.121244
v 4.242487 2.200000 0.140000
v 4.210000 2.060000 0.121244
v 4.121243 1.957513 0.070000
v 4.070000 2.442487 0.121244
v 4.121243 2.340000 0.210000
v 4.140000 2.200000 0.242487
v 4.121243 2.060000 0.210000
v 4.070000 1.957513 0.121244
v 4.000000 2.442487 0.140000
v 4.000000 2.200000 0.280000
v 4.000000 1.957513 0.140000
v 3.930000 2.442487 0.121244
v 3.878757 2.340000 0.210000
v 3.860000 2.200000 0.242487
v 3.878757 2.060000 0.210000
v 3.930000 1.957513 0.121244
v 3.878757 2.442487 0.070000
v 3.790000 2.340000 0.121244
v 3.757513 2.200000 0.140000
v 3.790000 2.060000 0.121244
v 3.878757 1.957513 0.070000
v 3.860000 2.442487 0.000000
v 3.757513 2.340000 0.000000
v 3.720000 2.200000 0.000000
v 3.757513 2.060000 0.000000
v 3.860000 1.957513 0.000000
v 3.878757 2.442487 -0.070000
v 3.790000 2.340000 -0.121244
v 3.757513 2.200000 -0.140000
v 3.790000 2.060000 -0.121244
v 3.878757 1.957513 -0.070000
v 3.930000 2.442487 -0.121244
v 3.878757 2.340000 -0.210000
v 3.860000 2.200000 -0.242487
v 3.878757 2.060000 -0.210000
v 3.930000 1.957513 -0.121244
v 4.000000 2.442487 -0.140000
v 4.000000 2.200000 -0.280000
v 4.000000 1.957513 -0.140000
v -10.000000 0.000000 -0.180000
v -10.000000 5.000000 -0.180000
v -9.872721 0.000000 -0.127279
v -9.872721 5.000000 -0.127279
v -9.820000 0.000000 0.000000
v -9.820000 5.000000 0.000000
v -9.872721 0.000000 0.127279
v -9.872721 5.000000 0.127279
v -10.000000 0.000000 0.180000
v -10.000000 5.000000 0.180000
v -10.127279 0.000000 0.127279
v -10.127279 5.000000 0.127279
v -10.180000 0.000000 0.000000
v -10.180000 5.000000 0.000000
v -10.127279 0.000000 -0.127279
v -10.127279 5.000000 -0.127279
v -10.620000 0.000000 0.620000
v -10.620000 0.080000 0.700000
v -10.700000 0.080000 0.620000
v -10.620000 0.220000 0.700000
v -10.620000 0.300000 0.620000
v -10.700000 0.220000 0.620000
v -10.620000 0.000000 -0.620000
v -10.700000 0.080000 -0.620000
v -10.620000 0.080000 -0.700000
v -10.620000 0.300000 -0.620000
v -10.620000 0.220000 -0.700000
v -10.700000 0.220000 -0.620000
v -9.380000 0.000000 0.620000
v -9.300000 0.080000 0.620000
v -9.380000 0.080000 0.700000
v -9.380000 0.300000 0.620000
v -9.380000 0.220000 0.700000
v -9.300000 0.220000 0.620000
v -9.380000 0.000000 -0.620000
v -9.380000 0.080000 -0.700000
v -9.300000 0.080000 -0.620000
v -9.380000 0.300000 -0.620000
v -9.300000 0.220000 -0.620000
v -9.380000 0.220000 -0.700000
v -4.000000 0.000000 -0.180000
v -4.000000 5.000000 -0.180000
v -3.872721 0.000000 -0.127279
v -3.872721 5.000000 -0.127279
v -3.820000 0.000000 0.000000
v -3.820000 5.000000 0.000000
v -3.872721 0.000000 0.127279
v -3.872721 5.000000 0.127279
v -4.000000 0.000000 0.180000
v -4.000000 5.000000 0.180000
v -4.127279 0.000000 0.127279
v -4.127279 5.000000 0.127279
v -4.180000 0.000000 0.000000
v -4.180000 5.000000 0.000000
v -4.127279 0.000000 -0.127279
v -4.127279 5.000000 -0.127279
v -4.620000 0.000000 0.620000
v -4.620000 0.080000 0.700000
v -4.700000 0.080000 0.620000
v -4.620000 0.220000 0.700000
v -4.620000 0.300000 0.620000
v -4.700000 0.220000 0.620000
v -4.620000 0.000000 -0.620000
v -4.700000 0.080000 -0.620000
v -4.620000 0.080000 -0.700000
v -4.620000 0.300000 -0.620000
v -4.620000 0.220000 -0.700000
v -4.700000 0.220000 -0.620000
v -3.380000 0.000000 0.620000
v -3.300000 0.080000 0.620000
v -3.380000 0.080000 0.700000
v -3.380000 0.300000 0.620000
v -3.380000 0.220000 0.700000
v -3.300000 0.220000 0.620000
v -3.380000 0.000000 -0.620000
v -3.380000 0.080000 -0.700000
v -3.300000 0.080000 -0.620000
v -3.380000 0.300000 -0.620000
v -3.300000 0.220000 -0.620000
v -3.380000 0.220000 -0.700000
v 4.000000 0.000000 -0.180000
v 4.000000 2.200000 -0.180000
v 4.127279 0.000000 -0.127279
v 4.127279 2.200000 -0.127279
v 4.180000 0.000000 0.000000
v 4.180000 2.200000 0.000000
v 4.127279 0.000000 0.127279
v 4.127279 2.200000 0.127279
v 4.000000 0.000000 0.180000
v 4.000000 2.200000 0.180000
v 3.872721 0.000000 0.127279
v 3.872721 2.200000 0.127279
v 3.820000 0.000000 0.000000
v 3.820000 2.200000 0.000000
v 3.872721 0.000000 -0.127279
v 3.872721 2.200000 -0.127279
v 3.380000 0.000000 0.620000
v 3.380000 0.080000 0.700000
v 3.300000 0.080000 0.620000
v 3.380000 0.220000 0.700000
v 3.380000 0.300000 0.620000
v 3.300000 0.220000 0.620000
v 3.380000 0.000000 -0.620000
v 3.300000 0.080000 -0.620000
v 3.380000 0.080000 -0.700000
v 3.380000 0.300000 -0.620000
v 3.380000 0.220000 -0.700000
v 3.300000 0.220000 -0.620000
v 4.620000 0.000000 0.620000
v 4.700000 0.080000 0.620000
v 4.620000 0.080000 0.700000
v 4.620000 0.300000 0.620000
v 4.620000 0.220000 0.700000
v 4.700000 0.220000 0.620000
v 4.620000 0.000000 -0.620000
v 4.620000 0.080000 -0.700000
v 4.700000 0.080000 -0.620000
v 4.620000 0.300000 -0.620000
v 4.700000 0.220000 -0.620000
v 4.620000 0.220000 -0.700000
v 10.000000 0.000000 -0.180000
v 10.000000 2.200000 -0.180000
v 10.127279 0.000000 -0.127279
v 10.127279 2.200000 -0.127279
v 10.180000 0.000000 0.000000
v 10.180000 2.200000 0.000000
v 10.127279 0.000000 0.127279
v 10.127279 2.200000 0.127279
v 10.000000 0.000000 0.180000
v 10.000000 2.200000 0.180000
v 9.872721 0.000000 0.127279
v 9.872721 2.200000 0.127279
v 9.820000 0.000000 0.000000
v 9.820000 2.200000 0.000000
v 9.872721 0.000000 -0.127279
v 9.872721 2.200000 -0.127279
v 9.379999 0.000000 0.620000
v 9.379999 0.080000 0.700000
v 9.299999 0.080000 0.620000
v 9.379999 0.220000 0.700000
v 9.379999 0.300000 0.620000
v 9.299999 0.220000 0.620000
v 9.379999 0.000000 -0.620000
v 9.299999 0.080000 -0.620000
v 9.379999 0.080000 -0.700000
v 9.379999 0.300000 -0.620000
v 9.379999 0.220000 -0.700000
v 9.299999 0.220000 -0.620000
v 10.620001 0.000000 0.620000
v 10.700001 0.080000 0.620000
v 10.620001 0.080000 0.700000
v 10.620001 0.300000 0.620000
v 10.620001 0.220000 0.700000
v 10.700001 0.220000 0.620000
v 10.620001 0.000000 -0.620000
v 10.620001 0.080000 -0.700000
v 10.700001 0.080000 -0.620000
v 10.620001 0.300000 -0.620000
v 10.700001 0.220000 -0.620000
v 10.620001 0.220000 -0.700000
v -12.000000 4.706000 0.000000
v -11.787260 4.868517 0.154563
v -12.081259 4.868517 0.250091
v -12.262961 4.868519 0.000000
v -12.081259 4.868517 -0.250091
v -11.787260 4.868517 -0.154563
v -11.918742 5.131483 0.250091
v -12.212740 5.131483 0.154563
v -12.212740 5.131483 -0.154563
v -11.918742 5.131483 -0.250091
v -11.737039 5.131481 0.000000
v -12.000000 5.294000 0.000000
v -12.047762 4.749907 0.146999
v -11.874955 4.749907 0.090849
v -11.922716 4.845433 0.237849
v -11.749909 4.845434 0.000000
v -11.874955 4.749907 -0.090849
v -12.154564 4.749908 0.000000
v -12.202328 4.845434 0.146999
v -12.047762 4.749907 -0.146999
v -12.202328 4.845434 -0.146999
v -11.922716 4.845433 -0.237849
v -11.720388 5.000000 0.090850
v -11.720388 5.000000 -0.090850
v -12.000000 5.000000 0.294000
v -11.827191 5.000000 0.237851
v -12.279612 5.000000 0.090850
v -12.172810 5.000000 0.237851
v -12.172810 5.000000 -0.237851
v -12.279612 5.000000 -0.090850
v -11.827191 5.000000 -0.237851
v -12.000000 5.000000 -0.294000
v -11.797672 5.154566 0.146999
v -12.077284 5.154567 0.237849
v -12.250091 5.154566 0.000000
v -12.077284 5.154567 -0.237849
v -11.797672 5.154566 -0.146999
v -11.952238 5.250093 0.146999
v -11.845435 5.250092 0.000000
v -12.125045 5.250093 0.090849
v -12.125045 5.250093 -0.090849
v -11.952238 5.250093 -0.146999
v 12.000000 1.906000 0.000000
v 12.212740 2.068517 0.154563
v 11.918741 2.068517 0.250091
v 11.737040 2.068519 0.000000
v 11.918741 2.068517 -0.250091
v 12.212740 2.068517 -0.154563
v 12.081259 2.331483 0.250091
v 11.787260 2.331483 0.154563
v 11.787260 2.331483 -0.154563
v 12.081259 2.331483 -0.250091
v 12.262960 2.331481 0.000000
v 12.000000 2.494000 0.000000
v 11.952238 1.949908 0.146999
v 12.125046 1.949908 0.090849
v 12.077284 2.045433 0.237849
v 12.250090 2.045434 0.000000
v 12.125046 1.949908 -0.090849
v 11.845436 1.949908 0.000000
v 11.797672 2.045434 0.146999
v 11.952238 1.949908 -0.146999
v 11.797672 2.045434 -0.146999
v 12.077284 2.045433 -0.237849
v 12.279612 2.200000 0.090850
v 12.279612 2.200000 -0.090850
v 12.000000 2.200000 0.294000
v 12.172810 2.200000 0.237851
v 11.720388 2.200000 0.090850
v 11.827190 2.200000 0.237851
v 11.827190 2.200000 -0.237851
v 11.720388 2.200000 -0.090850
v 12.172810 2.200000 -0.237851
v 12.000000 2.200000 -0.294000
v 12.202328 2.354567 0.146999
v 11.922716 2.354567 0.237849
v 11.749910 2.354566 0.000000
v 11.922716 2.354567 -0.237849
v 12.202328 2.354567 -0.146999
v 12.047762 2.450093 0.146999
v 12.154564 2.450092 0.000000
v 11.874954 2.450092 0.090849
v 11.874954 2.450092 -0.090849
v 12.047762 2.450093 -0.146999
vn -0.0000 -0.2588 -0.9659
vn -0.0000 -0.7071 -0.7071
vn -0.0000 -0.9659 -0.2588
vn -0.0000 -0.9659 0.2588
vn -0.0000 -0.7071 0.7071
vn -0.0000 -0.2588 0.9659
vn -0.0000 0.2588 0.9659
vn -0.0000 0.7071 0.7071
vn -0.0000 0.9659 0.2588
vn -0.0000 0.9659 -0.2588
vn -1.0000 -0.0000 -0.0000
vn -0.0000 0.7071 -0.7071
vn -0.0000 0.2588 -0.9659
vn -0.0855 -0.2443 -0.9659
vn -0.2336 -0.6674 -0.7071
vn -0.3191 -0.9117 -0.2588
vn -0.3191 -0.9117 0.2588
vn -0.2336 -0.6674 0.7071
vn -0.0855 -0.2443 0.9659
vn 0.0855 0.2443 0.9659
vn 0.2336 0.6674 0.7071
vn 0.3191 0.9117 0.2588
vn 0.3191 0.9117 -0.2588
vn 0.9439 -0.3304 -0.0000
vn 0.2336 0.6674 -0.7071
vn 0.0855 0.2443 -0.9659
vn -0.9439 0.3304 -0.0000
vn 1.0000 -0.0000 -0.0000
vn 0.1861 -0.6947 -0.6947
vn 0.2506 0.2506 -0.9351
vn 0.0692 0.9636 -0.2582
vn 0.0692 -0.9636 -0.2582
vn 0.2506 -0.2506 -0.9351
vn 0.1862 0.6947 -0.6947
vn 0.5086 -0.6947 -0.5086
vn 0.6846 0.2506 -0.6845
vn 0.1890 0.9636 -0.1890
vn 0.1890 -0.9636 -0.1890
vn 0.6845 -0.2506 -0.6846
vn 0.5086 0.6947 -0.5086
vn 0.9351 0.2506 -0.2506
vn 0.2582 0.9636 -0.0692
vn 0.2582 -0.9636 -0.0692
vn 0.9351 -0.2506 -0.2506
vn 0.6947 0.6947 -0.1862
vn 0.6947 -0.6947 -0.1862
vn 0.2582 0.9636 0.0692
vn 0.2582 -0.9636 0.0692
vn 0.9351 -0.2506 0.2506
vn 0.6947 0.6947 0.1862
vn 0.6947 -0.6947 0.1862
vn 0.9351 0.2506 0.2506
vn 0.1890 -0.9636 0.1890
vn 0.6846 -0.2506 0.6845
vn 0.5086 0.6947 0.5086
vn 0.5086 -0.6947 0.5086
vn 0.6846 0.2506 0.6846
vn 0.1890 0.9636 0.1890
vn 0.0692 -0.9636 0.2582
vn 0.2506 -0.2506 0.9351
vn 0.1862 0.6947 0.6947
vn 0.1861 -0.6947 0.6948
vn 0.2506 0.2506 0.9351
vn 0.0692 0.9636 0.2582
vn -0.0692 -0.9636 0.2582
vn -0.2506 -0.2506 0.9351
vn -0.1862 0.6947 0.6947
vn -0.1861 -0.6947 0.6947
vn -0.2506 0.2506 0.9351
vn -0.0692 0.9636 0.2582
vn -0.6846 -0.2506 0.6845
vn -0.5086 0.6947 0.5086
vn -0.5086 -0.6947 0.5086
vn -0.6846 0.2506 0.6845
vn -0.1890 0.9636 0.1890
vn -0.1890 -0.9636 0.1890
vn -0.6947 0.6947 0.1862
vn -0.6947 -0.6947 0.1862
vn -0.9351 0.2506 0.2506
vn -0.2582 0.9636 0.0692
vn -0.2582 -0.9636 0.0692
vn -0.9351 -0.2506 0.2506
vn -0.6947 -0.6948 -0.1862
vn -0.9351 0.2506 -0.2506
vn -0.2582 0.9636 -0.0692
vn -0.2582 -0.9636 -0.0692
vn -0.9351 -0.2506 -0.2506
vn -0.6947 0.6947 -0.1862
vn -0.5086 -0.6947 -0.5086
vn -0.6846 0.2506 -0.6845
vn -0.1890 0.9636 -0.1890
vn -0.1890 -0.9636 -0.1890
vn -0.6846 -0.2506 -0.6846
vn -0.5086 0.6947 -0.5086
vn -0.1861 -0.6947 -0.6947
vn -0.2506 0.2506 -0.9351
vn -0.0692 0.9636 -0.2582
vn -0.0692 -0.9636 -0.2582
vn -0.2506 -0.2506 -0.9351
vn -0.1862 0.6947 -0.6947
vn 0.1862 -0.6947 -0.6947
vn 0.6948 0.6947 -0.1862
vn 0.6948 0.6947 0.1862
vn 0.6845 -0.2506 0.6846
vn 0.6846 0.2506 0.6845
vn 0.1862 -0.6947 0.6947
vn -0.1862 -0.6947 0.6947
vn -0.6845 -0.2506 0.6846
vn -0.6947 -0.6947 -0.1862
vn -0.6845 -0.2506 -0.6846
vn -0.1862 -0.6947 -0.6947
vn 0.3827 -0.0000 -0.9239
vn 0.9239 -0.0000 -0.3827
vn 0.9239 -0.0000 0.3827
vn 0.3827 -0.0000 0.9239
vn -0.3827 -0.0000 0.9239
vn -0.9239 -0.0000 0.3827
vn -0.0000 1.0000 -0.0000
vn -0.9239 -0.0000 -0.3827
vn -0.3827 -0.0000 -0.9239
vn -0.0000 -1.0000 -0.0000
vn -0.5774 -0.5774 0.5774
vn -0.5774 0.5774 0.5774
vn -0.5774 -0.5774 -0.5774
vn -0.5774 0.5774 -0.5774
vn 0.5774 -0.5774 0.5774
vn 0.5774 0.5774 0.5774
vn 0.5774 -0.5774 -0.5774
vn 0.5774 0.5774 -0.5774
vn -0.7071 -0.7071 -0.0000
vn -0.7071 -0.0000 0.7071
vn -0.7071 0.7071 -0.0000
vn -0.7071 -0.0000 -0.7071
vn 0.7071 -0.0000 -0.7071
vn 0.7071 -0.7071 -0.0000
vn 0.7071 0.7071 -0.0000
vn 0.7071 -0.0000 0.7071
vn -0.0000 -0.0000 1.0000
vn -0.0000 -0.0000 -1.0000
vn 0.1024 -0.9435 0.3151
vn 0.7002 -0.6617 0.2680
vn -0.2680 -0.9435 0.1947
vn -0.2680 -0.9435 -0.1947
vn 0.1024 -0.9435 -0.3151
vn 0.9050 -0.3304 0.2680
vn 0.0247 -0.3304 0.9435
vn -0.8897 -0.3304 0.3151
vn -0.5746 -0.3304 -0.7488
vn 0.5346 -0.3304 -0.7779
vn 0.8026 -0.1256 0.5831
vn -0.3066 -0.1256 0.9435
vn -0.9921 -0.1256 -0.0000
vn -0.3066 -0.1256 -0.9435
vn 0.8026 -0.1256 -0.5831
vn 0.4089 0.6617 0.6284
vn -0.4713 0.6617 0.5831
vn -0.7002 0.6617 -0.2680
vn 0.0385 0.6617 -0.7488
vn 0.7240 0.6617 -0.1947
vn 0.2680 0.9435 -0.1947
vn 0.4911 0.7947 -0.3568
vn 0.4089 0.6617 -0.6284
vn -0.1024 0.9435 -0.3151
vn -0.1876 0.7947 -0.5773
vn -0.4713 0.6617 -0.5831
vn -0.3313 0.9435 -0.0000
vn -0.6071 0.7947 -0.0000
vn -0.7002 0.6617 0.2680
vn -0.1024 0.9435 0.3151
vn -0.1876 0.7947 0.5773
vn 0.0385 0.6617 0.7488
vn 0.2680 0.9435 0.1947
vn 0.4911 0.7947 0.3568
vn 0.7240 0.6617 0.1947
vn 0.8897 0.3304 -0.3151
vn 0.7947 0.1876 -0.5773
vn 0.5746 0.3304 -0.7488
vn -0.0247 0.3304 -0.9435
vn -0.3035 0.1876 -0.9342
vn -0.5346 0.3304 -0.7779
vn -0.9050 0.3304 -0.2680
vn -0.9822 0.1876 -0.0000
vn -0.9050 0.3304 0.2680
vn -0.5346 0.3304 0.7779
vn -0.3035 0.1876 0.9342
vn -0.0247 0.3304 0.9435
vn 0.5746 0.3304 0.7488
vn 0.7947 0.1876 0.5773
vn 0.8897 0.3304 0.3151
vn 0.3066 0.1256 -0.9435
vn 0.3035 -0.1876 -0.9342
vn 0.0247 -0.3304 -0.9435
vn -0.8026 0.1256 -0.5831
vn -0.7947 -0.1876 -0.5773
vn -0.8897 -0.3304 -0.3151
vn -0.8026 0.1256 0.5831
vn -0.7947 -0.1876 0.5773
vn -0.5746 -0.3304 0.7488
vn 0.3066 0.1256 0.9435
vn 0.3035 -0.1876 0.9342
vn 0.5346 -0.3304 0.7779
vn 0.9921 0.1256 -0.0000
vn 0.9822 -0.1876 -0.0000
vn 0.9050 -0.3304 -0.2680
vn 0.4713 -0.6617 -0.5831
vn 0.1876 -0.7947 -0.5773
vn -0.0385 -0.6617 -0.7488
vn -0.4089 -0.6617 -0.6284
vn -0.4911 -0.7947 -0.3568
vn -0.7240 -0.6617 -0.1947
vn -0.7240 -0.6617 0.1947
vn -0.4911 -0.7947 0.3568
vn -0.4089 -0.6617 0.6284
vn 0.7002 -0.6617 -0.2680
vn 0.6071 -0.7947 -0.0000
vn 0.3313 -0.9435 -0.0000
vn -0.0385 -0.6617 0.7488
vn 0.1876 -0.7947 0.5773
vn 0.4713 -0.6617 0.5831
vn 0.7947 0.1876 -0.5774
vn 0.7947 0.1876 0.5774
vn 0.9439 -0.3303 -0.0000
vn -0.9439 0.3303 -0.0000
vn 0.1861 0.6947 -0.6947
vn 0.6845 0.2506 -0.6846
vn 0.6846 -0.2506 -0.6845
vn 0.6845 0.2506 0.6846
vn -0.6846 -0.2506 0.6846
vn -0.6845 0.2506 0.6846
vn -0.6947 0.6947 0.1861
vn -0.6948 -0.6947 0.1862
vn -0.6947 0.6947 -0.1861
vn -0.6845 0.2506 -0.6846
vn -0.6846 -0.2506 -0.6845
vn 0.6947 0.6948 -0.1862
vt 0.087500 0.500000
vt 0.050000 0.524744
vt 0.050000 0.475256
vt 0.837500 0.071429
vt 0.800000 0.096172
vt 0.800000 0.046685
vt 0.212500 0.500000
vt 0.175000 0.524744
vt 0.175000 0.475256
s 0
usemtl Palette
f 111/1/1 2/2/1 1/3/1
f 112/1/2 3/2/2 2/3/2
f 4/1/3 5/2/3 3/3/3
f 6/1/4 7/2/4 5/3/4
f 8/1/5 9/2/5 7/3/5
f 84/1/6 10/2/6 9/3/6
f 83/1/7 11/2/7 10/3/7
f 12/1/8 13/2/8 11/3/8
f 82/1/9 14/2/9 13/3/9
f 56/1/10 15/2/10 14/3/10
f 8/1/11 82/2/11 111/3/11
f 110/1/12 16/2/12 15/3/12
f 17/1/13 1/2/13 16/3/13
f 14/1/11 16/2/11 5/3/11
f 167/1/14 18/2/14 111/3/14
f 19/1/15 20/2/15 18/3/15
f 21/1/16 22/2/16 20/3/16
f 23/1/17 24/2/17 22/3/17
f 25/1/18 26/2/18 24/3/18
f 27/1/19 83/2/19 26/3/19
f 139/1/20 28/2/20 83/3/20
f 28/1/21 31/2/21 30/3/21
f 30/1/22 33/2/22 32/3/22
f 32/1/23 35/2/23 34/3/23
f 31/1/24 139/2/24 21/3/24
f 34/1/25 37/2/25 36/3/25
f 36/1/26 167/2/26 111/3/26
f 22/1/27 28/2/27 36/3/27
f 38/1/1 39/2/1 167/3/1
f 40/1/2 168/2/2 39/3/2
f 41/1/3 42/2/3 168/3/3
f 43/1/4 140/2/4 42/3/4
f 44/1/5 45/2/5 140/3/5
f 46/1/6 139/2/6 45/3/6
f 47/1/7 48/2/7 139/3/7
f 49/1/8 138/2/8 48/3/8
f 50/1/9 51/2/9 138/3/9
f 52/1/10 166/2/10 51/3/10
f 38/1/28 53/2/28 47/3/28
f 53/1/12 54/2/12 166/3/12
f 55/1/13 167/2/13 54/3/13
f 51/1/11 54/2/11 42/3/11
f 4/1/29 60/2/29 61/3/29
f 111/1/30 58/2/30 59/3/30
f 110/1/31 56/2/31 57/3/31
f 6/1/32 4/2/32 61/3/32
f 111/1/33 60/2/33 112/3/33
f 17/1/34 57/2/34 58/3/34
f 61/1/35 65/2/35 66/3/35
f 58/1/36 64/2/36 59/3/36
f 57/1/37 56/2/37 62/3/37
f 6/1/38 61/2/38 66/3/38
f 59/1/39 65/2/39 60/3/39
f 58/1/40 62/2/40 63/3/40
f 63/1/41 69/2/41 64/3/41
f 62/1/42 56/2/42 67/3/42
f 6/1/43 66/2/43 71/3/43
f 65/1/44 69/2/44 70/3/44
f 62/1/45 68/2/45 63/3/45
f 66/1/46 70/2/46 71/3/46
f 67/1/47 56/2/47 72/3/47
f 6/1/48 71/2/48 76/3/48
f 69/1/49 75/2/49 70/3/49
f 68/1/50 72/2/50 73/3/50
f 70/1/51 76/2/51 71/3/51
f 69/1/52 73/2/52 74/3/52
f 6/1/53 76/2/53 81/3/53
f 74/1/54 80/2/54 75/3/54
f 73/1/55 77/2/55 78/3/55
f 75/1/56 81/2/56 76/3/56
f 74/1/57 78/2/57 79/3/57
f 72/1/58 56/2/58 77/3/58
f 6/1/59 81/2/59 8/3/59
f 79/1/60 84/2/60 80/3/60
f 77/1/61 12/2/61 78/3/61
f 80/1/62 8/2/62 81/3/62
f 78/1/63 83/2/63 79/3/63
f 77/1/64 56/2/64 82/3/64
f 6/1/65 8/2/65 89/3/65
f 83/1/66 88/2/66 84/3/66
f 12/1/67 85/2/67 86/3/67
f 8/1/68 88/2/68 89/3/68
f 83/1/69 86/2/69 87/3/69
f 82/1/70 56/2/70 85/3/70
f 88/1/71 92/2/71 93/3/71
f 86/1/72 90/2/72 91/3/72
f 88/1/73 94/2/73 89/3/73
f 86/1/74 92/2/74 87/3/74
f 85/1/75 56/2/75 90/3/75
f 6/1/76 89/2/76 94/3/76
f 90/1/77 96/2/77 91/3/77
f 93/1/78 99/2/78 94/3/78
f 91/1/79 97/2/79 92/3/79
f 90/1/80 56/2/80 95/3/80
f 6/1/81 94/2/81 99/3/81
f 93/1/82 97/2/82 98/3/82
f 99/1/83 103/2/83 104/3/83
f 97/1/84 101/2/84 102/3/84
f 95/1/85 56/2/85 100/3/85
f 6/1/86 99/2/86 104/3/86
f 98/1/87 102/2/87 103/3/87
f 96/1/88 100/2/88 101/3/88
f 104/1/89 108/2/89 109/3/89
f 102/1/90 106/2/90 107/3/90
f 100/1/91 56/2/91 105/3/91
f 6/1/92 104/2/92 109/3/92
f 102/1/93 108/2/93 103/3/93
f 100/1/94 106/2/94 101/3/94
f 108/1/95 4/2/95 109/3/95
f 106/1/96 111/2/96 107/3/96
f 105/1/97 56/2/97 110/3/97
f 6/1/98 109/2/98 4/3/98
f 107/1/99 112/2/99 108/3/99
f 105/1/100 17/2/100 106/3/100
f 39/1/101 117/2/101 168/3/101
f 167/1/30 114/2/30 115/3/30
f 166/1/31 51/2/31 113/3/31
f 42/1/32 168/2/32 117/3/32
f 167/1/33 116/2/33 39/3/33
f 54/1/34 113/2/34 114/3/34
f 117/1/35 121/2/35 122/3/35
f 115/1/36 119/2/36 120/3/36
f 113/1/37 51/2/37 118/3/37
f 42/1/38 117/2/38 122/3/38
f 115/1/39 121/2/39 116/3/39
f 113/1/40 119/2/40 114/3/40
f 120/1/41 124/2/41 125/3/41
f 118/1/42 51/2/42 123/3/42
f 42/1/43 122/2/43 127/3/43
f 121/1/44 125/2/44 126/3/44
f 119/1/102 123/2/102 124/3/102
f 122/1/46 126/2/46 127/3/46
f 123/1/47 51/2/47 128/3/47
f 42/1/48 127/2/48 132/3/48
f 125/1/49 131/2/49 126/3/49
f 123/1/103 129/2/103 124/3/103
f 126/1/51 132/2/51 127/3/51
f 124/1/52 130/2/52 125/3/52
f 42/1/53 132/2/53 137/3/53
f 131/1/104 135/2/104 136/3/104
f 128/1/55 134/2/55 129/3/55
f 132/1/56 136/2/56 137/3/56
f 129/1/105 135/2/105 130/3/105
f 128/1/58 51/2/58 133/3/58
f 42/1/59 137/2/59 140/3/59
f 136/1/60 139/2/60 45/3/60
f 133/1/61 48/2/61 134/3/61
f 136/1/106 140/2/106 137/3/106
f 134/1/63 139/2/63 135/3/63
f 133/1/64 51/2/64 138/3/64
f 42/1/65 140/2/65 145/3/65
f 139/1/66 144/2/66 45/3/66
f 138/1/67 142/2/67 48/3/67
f 45/1/107 145/2/107 140/3/107
f 139/1/69 142/2/69 143/3/69
f 138/1/70 51/2/70 141/3/70
f 143/1/108 149/2/108 144/3/108
f 142/1/72 146/2/72 147/3/72
f 144/1/73 150/2/73 145/3/73
f 143/1/74 147/2/74 148/3/74
f 141/1/75 51/2/75 146/3/75
f 42/1/76 145/2/76 150/3/76
f 146/1/77 152/2/77 147/3/77
f 149/1/78 155/2/78 150/3/78
f 147/1/79 153/2/79 148/3/79
f 146/1/80 51/2/80 151/3/80
f 42/1/81 150/2/81 155/3/81
f 149/1/82 153/2/82 154/3/82
f 155/1/109 159/2/109 160/3/109
f 153/1/84 157/2/84 158/3/84
f 151/1/85 51/2/85 156/3/85
f 42/1/86 155/2/86 160/3/86
f 154/1/87 158/2/87 159/3/87
f 152/1/88 156/2/88 157/3/88
f 160/1/89 164/2/89 165/3/89
f 157/1/90 163/2/90 158/3/90
f 156/1/91 51/2/91 161/3/91
f 42/1/92 160/2/92 165/3/92
f 159/1/110 163/2/110 164/3/110
f 156/1/94 162/2/94 157/3/94
f 165/1/111 39/2/111 168/3/111
f 162/1/96 167/2/96 163/3/96
f 161/1/97 51/2/97 166/3/97
f 42/1/98 165/2/98 168/3/98
f 164/1/99 167/2/99 39/3/99
f 161/1/100 54/2/100 162/3/100
f 170/4/112 171/5/112 169/6/112
f 172/4/113 173/5/113 171/6/113
f 174/4/114 175/5/114 173/6/114
f 176/4/115 177/5/115 175/6/115
f 178/4/116 179/5/116 177/6/116
f 180/4/117 181/5/117 179/6/117
f 170/4/118 182/5/118 178/6/118
f 182/4/119 183/5/119 181/6/119
f 184/4/120 169/5/120 183/6/120
f 179/4/121 181/5/121 183/6/121
f 185/7/122 186/8/122 187/9/122
f 188/7/123 189/8/123 190/9/123
f 191/7/124 192/8/124 193/9/124
f 194/7/125 195/8/125 196/9/125
f 197/7/126 198/8/126 199/9/126
f 200/7/127 201/8/127 202/9/127
f 203/7/128 204/8/128 205/9/128
f 206/7/129 207/8/129 208/9/129
f 185/7/130 192/8/130 191/9/130
f 188/7/131 187/8/131 186/9/131
f 194/7/132 190/8/132 189/9/132
f 193/7/133 196/8/133 195/9/133
f 191/7/2 204/8/2 203/9/2
f 206/7/12 195/8/12 194/9/12
f 205/7/134 208/8/134 207/9/134
f 203/7/135 198/8/135 197/9/135
f 200/7/136 207/8/136 206/9/136
f 199/7/137 202/8/137 201/9/137
f 197/7/5 186/8/5 185/9/5
f 189/7/8 201/8/8 200/9/8
f 203/7/121 185/8/121 191/9/121
f 190/7/11 192/8/11 187/9/11
f 201/7/138 186/8/138 199/9/138
f 194/7/118 200/8/118 206/9/118
f 195/7/139 204/8/139 193/9/139
f 207/7/28 198/8/28 205/9/28
f 210/4/112 211/5/112 209/6/112
f 212/4/113 213/5/113 211/6/113
f 214/4/114 215/5/114 213/6/114
f 216/4/115 217/5/115 215/6/115
f 218/4/116 219/5/116 217/6/116
f 220/4/117 221/5/117 219/6/117
f 218/4/118 216/5/118 214/6/118
f 222/4/119 223/5/119 221/6/119
f 224/4/120 209/5/120 223/6/120
f 219/4/121 221/5/121 223/6/121
f 225/7/122 226/8/122 227/9/122
f 228/7/123 229/8/123 230/9/123
f 231/7/124 232/8/124 233/9/124
f 234/7/125 235/8/125 236/9/125
f 237/7/126 238/8/126 239/9/126
f 240/7/127 241/8/127 242/9/127
f 243/7/128 244/8/128 245/9/128
f 246/7/129 247/8/129 248/9/129
f 225/7/130 232/8/130 231/9/130
f 228/7/131 227/8/131 226/9/131
f 234/7/132 230/8/132 229/9/132
f 233/7/133 236/8/133 235/9/133
f 231/7/2 244/8/2 243/9/2
f 246/7/12 235/8/12 234/9/12
f 245/7/134 248/8/134 247/9/134
f 243/7/135 238/8/135 237/9/135
f 240/7/136 247/8/136 246/9/136
f 239/7/137 242/8/137 241/9/137
f 237/7/5 226/8/5 225/9/5
f 229/7/8 241/8/8 240/9/8
f 243/7/121 225/8/121 231/9/121
f 230/7/11 232/8/11 227/9/11
f 241/7/138 226/8/138 239/9/138
f 234/7/118 240/8/118 246/9/118
f 235/7/139 244/8/139 233/9/139
f 247/7/28 238/8/28 245/9/28
f 250/4/112 251/5/112 249/6/112
f 252/4/113 253/5/113 251/6/113
f 254/4/114 255/5/114 253/6/114
f 256/4/115 257/5/115 255/6/115
f 258/4/116 259/5/116 257/6/116
f 260/4/117 261/5/117 259/6/117
f 250/4/118 262/5/118 258/6/118
f 262/4/119 263/5/119 261/6/119
f 264/4/120 249/5/120 263/6/120
f 259/4/121 261/5/121 263/6/121
f 265/7/122 266/8/122 267/9/122
f 268/7/123 269/8/123 270/9/123
f 271/7/124 272/8/124 273/9/124
f 274/7/125 275/8/125 276/9/125
f 277/7/126 278/8/126 279/9/126
f 280/7/127 281/8/127 282/9/127
f 283/7/128 284/8/128 285/9/128
f 286/7/129 287/8/129 288/9/129
f 265/7/130 272/8/130 271/9/130
f 268/7/131 267/8/131 266/9/131
f 274/7/132 270/8/132 269/9/132
f 273/7/133 276/8/133 275/9/133
f 271/7/2 284/8/2 283/9/2
f 286/7/12 275/8/12 274/9/12
f 285/7/134 288/8/134 287/9/134
f 283/7/135 278/8/135 277/9/135
f 280/7/136 287/8/136 286/9/136
f 279/7/137 282/8/137 281/9/137
f 277/7/5 266/8/5 265/9/5
f 269/7/8 281/8/8 280/9/8
f 283/7/121 265/8/121 271/9/121
f 270/7/11 272/8/11 267/9/11
f 281/7/138 266/8/138 279/9/138
f 274/7/118 280/8/118 286/9/118
f 275/7/139 284/8/139 273/9/139
f 287/7/28 278/8/28 285/9/28
f 290/4/112 291/5/112 289/6/112
f 292/4/113 293/5/113 291/6/113
f 294/4/114 295/5/114 293/6/114
f 296/4/115 297/5/115 295/6/115
f 298/4/116 299/5/116 297/6/116
f 300/4/117 301/5/117 299/6/117
f 290/4/118 302/5/118 298/6/118
f 302/4/119 303/5/119 301/6/119
f 304/4/120 289/5/120 303/6/120
f 299/4/121 301/5/121 303/6/121
f 305/7/122 306/8/122 307/9/122
f 308/7/123 309/8/123 310/9/123
f 311/7/124 312/8/124 313/9/124
f 314/7/125 315/8/125 316/9/125
f 317/7/126 318/8/126 319/9/126
f 320/7/127 321/8/127 322/9/127
f 323/7/128 324/8/128 325/9/128
f 326/7/129 327/8/129 328/9/129
f 305/7/130 312/8/130 311/9/130
f 308/7/131 307/8/131 306/9/131
f 314/7/132 310/8/132 309/9/132
f 313/7/133 316/8/133 315/9/133
f 311/7/2 324/8/2 323/9/2
f 326/7/12 315/8/12 314/9/12
f 325/7/134 328/8/134 327/9/134
f 323/7/135 318/8/135 317/9/135
f 320/7/136 327/8/136 326/9/136
f 319/7/137 322/8/137 321/9/137
f 317/7/5 306/8/5 305/9/5
f 309/7/8 321/8/8 320/9/8
f 323/7/121 305/8/121 311/9/121
f 310/7/11 312/8/11 307/9/11
f 321/7/138 306/8/138 319/9/138
f 314/7/118 320/8/118 326/9/118
f 315/7/139 324/8/139 313/9/139
f 327/7/28 318/8/28 325/9/28
f 329/7/140 342/8/140 341/9/140
f 330/7/141 342/8/141 344/9/141
f 329/7/142 341/8/142 346/9/142
f 329/7/143 346/8/143 348/9/143
f 329/7/144 348/8/144 345/9/144
f 330/7/145 344/8/145 351/9/145
f 331/7/146 343/8/146 353/9/146
f 332/7/147 347/8/147 355/9/147
f 333/7/148 349/8/148 357/9/148
f 334/7/149 350/8/149 359/9/149
f 330/7/150 351/8/150 354/9/150
f 331/7/151 353/8/151 356/9/151
f 332/7/152 355/8/152 358/9/152
f 333/7/153 357/8/153 360/9/153
f 334/7/154 359/8/154 352/9/154
f 335/7/155 361/8/155 366/9/155
f 336/7/156 362/8/156 368/9/156
f 337/7/157 363/8/157 369/9/157
f 338/7/158 364/8/158 370/9/158
f 339/7/159 365/8/159 367/9/159
f 367/7/160 370/8/160 340/9/160
f 367/7/161 365/8/161 370/9/161
f 365/7/162 338/8/162 370/9/162
f 370/7/163 369/8/163 340/9/163
f 370/7/164 364/8/164 369/9/164
f 364/7/165 337/8/165 369/9/165
f 369/7/166 368/8/166 340/9/166
f 369/7/167 363/8/167 368/9/167
f 363/7/168 336/8/168 368/9/168
f 368/7/169 366/8/169 340/9/169
f 368/7/170 362/8/170 366/9/170
f 362/7/171 335/8/171 366/9/171
f 366/7/172 367/8/172 340/9/172
f 366/7/173 361/8/173 367/9/173
f 361/7/174 339/8/174 367/9/174
f 352/7/175 365/8/175 339/9/175
f 352/7/176 359/8/176 365/9/176
f 359/7/177 338/8/177 365/9/177
f 360/7/178 364/8/178 338/9/178
f 360/7/179 357/8/179 364/9/179
f 357/7/180 337/8/180 364/9/180
f 358/7/181 363/8/181 337/9/181
f 358/7/182 355/8/182 363/9/182
f 355/7/183 336/8/183 363/9/183
f 356/7/184 362/8/184 336/9/184
f 356/7/185 353/8/185 362/9/185
f 353/7/186 335/8/186 362/9/186
f 354/7/187 361/8/187 335/9/187
f 354/7/188 351/8/188 361/9/188
f 351/7/189 339/8/189 361/9/189
f 359/7/190 360/8/190 338/9/190
f 359/7/191 350/8/191 360/9/191
f 350/7/192 333/8/192 360/9/192
f 357/7/193 358/8/193 337/9/193
f 357/7/194 349/8/194 358/9/194
f 349/7/195 332/8/195 358/9/195
f 355/7/196 356/8/196 336/9/196
f 355/7/197 347/8/197 356/9/197
f 347/7/198 331/8/198 356/9/198
f 353/7/199 354/8/199 335/9/199
f 353/7/200 343/8/200 354/9/200
f 343/7/201 330/8/201 354/9/201
f 351/7/202 352/8/202 339/9/202
f 351/7/203 344/8/203 352/9/203
f 344/7/204 334/8/204 352/9/204
f 345/7/205 350/8/205 334/9/205
f 345/7/206 348/8/206 350/9/206
f 348/7/207 333/8/207 350/9/207
f 348/7/208 349/8/208 333/9/208
f 348/7/209 346/8/209 349/9/209
f 346/7/210 332/8/210 349/9/210
f 346/7/211 347/8/211 332/9/211
f 346/7/212 341/8/212 347/9/212
f 341/7/213 331/8/213 347/9/213
f 344/7/214 345/8/214 334/9/214
f 344/7/215 342/8/215 345/9/215
f 342/7/216 329/8/216 345/9/216
f 341/7/217 343/8/217 331/9/217
f 341/7/218 342/8/218 343/9/218
f 342/7/219 330/8/219 343/9/219
f 371/7/140 384/8/140 383/9/140
f 372/7/141 384/8/141 386/9/141
f 371/7/142 383/8/142 388/9/142
f 371/7/143 388/8/143 390/9/143
f 371/7/144 390/8/144 387/9/144
f 372/7/145 386/8/145 393/9/145
f 373/7/146 385/8/146 395/9/146
f 374/7/147 389/8/147 397/9/147
f 375/7/148 391/8/148 399/9/148
f 376/7/149 392/8/149 401/9/149
f 372/7/150 393/8/150 396/9/150
f 373/7/151 395/8/151 398/9/151
f 374/7/152 397/8/152 400/9/152
f 375/7/153 399/8/153 402/9/153
f 376/7/154 401/8/154 394/9/154
f 377/7/155 403/8/155 408/9/155
f 378/7/156 404/8/156 410/9/156
f 379/7/157 405/8/157 411/9/157
f 380/7/158 406/8/158 412/9/158
f 381/7/159 407/8/159 409/9/159
f 409/7/160 412/8/160 382/9/160
f 409/7/161 407/8/161 412/9/161
f 407/7/162 380/8/162 412/9/162
f 412/7/163 411/8/163 382/9/163
f 412/7/164 406/8/164 411/9/164
f 406/7/165 379/8/165 411/9/165
f 411/7/166 410/8/166 382/9/166
f 411/7/167 405/8/167 410/9/167
f 405/7/168 378/8/168 410/9/168
f 410/7/169 408/8/169 382/9/169
f 410/7/170 404/8/170 408/9/170
f 404/7/171 377/8/171 408/9/171
f 408/7/172 409/8/172 382/9/172
f 408/7/173 403/8/173 409/9/173
f 403/7/174 381/8/174 409/9/174
f 394/7/175 407/8/175 381/9/175
f 394/7/220 401/8/220 407/9/220
f 401/7/177 380/8/177 407/9/177
f 402/7/178 406/8/178 380/9/178
f 402/7/179 399/8/179 406/9/179
f 399/7/180 379/8/180 406/9/180
f 400/7/181 405/8/181 379/9/181
f 400/7/182 397/8/182 405/9/182
f 397/7/183 378/8/183 405/9/183
f 398/7/184 404/8/184 378/9/184
f 398/7/185 395/8/185 404/9/185
f 395/7/186 377/8/186 404/9/186
f 396/7/187 403/8/187 377/9/187
f 396/7/221 393/8/221 403/9/221
f 393/7/189 381/8/189 403/9/189
f 401/7/190 402/8/190 380/9/190
f 401/7/191 392/8/191 402/9/191
f 392/7/192 375/8/192 402/9/192
f 399/7/193 400/8/193 379/9/193
f 399/7/194 391/8/194 400/9/194
f 391/7/195 374/8/195 400/9/195
f 397/7/196 398/8/196 378/9/196
f 397/7/197 389/8/197 398/9/197
f 389/7/198 373/8/198 398/9/198
f 395/7/199 396/8/199 377/9/199
f 395/7/200 385/8/200 396/9/200
f 385/7/201 372/8/201 396/9/201
f 393/7/202 394/8/202 381/9/202
f 393/7/203 386/8/203 394/9/203
f 386/7/204 376/8/204 394/9/204
f 387/7/205 392/8/205 376/9/205
f 387/7/206 390/8/206 392/9/206
f 390/7/207 375/8/207 392/9/207
f 390/7/208 391/8/208 375/9/208
f 390/7/209 388/8/209 391/9/209
f 388/7/210 374/8/210 391/9/210
f 388/7/211 389/8/211 374/9/211
f 388/7/212 383/8/212 389/9/212
f 383/7/213 373/8/213 389/9/213
f 386/7/214 387/8/214 376/9/214
f 386/7/215 384/8/215 387/9/215
f 384/7/216 371/8/216 387/9/216
f 383/7/217 385/8/217 373/9/217
f 383/7/218 384/8/218 385/9/218
f 384/7/219 372/8/219 385/9/219
f 111/1/1 112/2/1 2/3/1
f 112/1/2 4/2/2 3/3/2
f 4/1/3 6/2/3 5/3/3
f 6/1/4 8/2/4 7/3/4
f 8/1/5 84/2/5 9/3/5
f 84/1/6 83/2/6 10/3/6
f 83/1/7 12/2/7 11/3/7
f 12/1/8 82/2/8 13/3/8
f 82/1/9 56/2/9 14/3/9
f 56/1/10 110/2/10 15/3/10
f 111/1/11 112/2/11 4/3/11
f 4/1/11 6/2/11 111/3/11
f 6/1/11 8/2/11 111/3/11
f 8/1/11 84/2/11 83/3/11
f 83/1/11 12/2/11 82/3/11
f 82/1/11 56/2/11 111/3/11
f 56/1/11 110/2/11 111/3/11
f 110/1/11 17/2/11 111/3/11
f 8/1/11 83/2/11 82/3/11
f 110/1/12 17/2/12 16/3/12
f 17/1/13 111/2/13 1/3/13
f 16/1/11 1/2/11 5/3/11
f 1/1/11 2/2/11 5/3/11
f 2/1/11 3/2/11 5/3/11
f 5/1/11 7/2/11 9/3/11
f 9/1/11 10/2/11 5/3/11
f 10/1/11 11/2/11 5/3/11
f 11/1/11 13/2/11 14/3/11
f 14/1/11 15/2/11 16/3/11
f 11/1/11 14/2/11 5/3/11
f 167/1/14 19/2/14 18/3/14
f 19/1/15 21/2/15 20/3/15
f 21/1/16 23/2/16 22/3/16
f 23/1/17 25/2/17 24/3/17
f 25/1/18 27/2/18 26/3/18
f 27/1/19 139/2/19 83/3/19
f 139/1/20 29/2/20 28/3/20
f 28/1/21 29/2/21 31/3/21
f 30/1/22 31/2/22 33/3/22
f 32/1/23 33/2/23 35/3/23
f 21/1/24 19/2/24 167/3/24
f 167/1/24 37/2/24 35/3/24
f 35/1/24 33/2/24 31/3/24
f 31/1/24 29/2/24 139/3/24
f 139/1/24 27/2/24 25/3/24
f 25/1/24 23/2/24 139/3/24
f 23/1/222 21/2/222 139/3/222
f 21/1/24 167/2/24 35/3/24
f 35/1/24 31/2/24 21/3/24
f 34/1/25 35/2/25 37/3/25
f 36/1/26 37/2/26 167/3/26
f 36/1/27 111/2/27 18/3/27
f 18/1/27 20/2/27 22/3/27
f 22/1/27 24/2/27 26/3/27
f 26/1/27 83/2/27 28/3/27
f 28/1/27 30/2/27 32/3/27
f 32/1/223 34/2/223 28/3/223
f 34/1/223 36/2/223 28/3/223
f 36/1/27 18/2/27 22/3/27
f 22/1/27 26/2/27 28/3/27
f 38/1/1 40/2/1 39/3/1
f 40/1/2 41/2/2 168/3/2
f 41/1/3 43/2/3 42/3/3
f 43/1/4 44/2/4 140/3/4
f 44/1/5 46/2/5 45/3/5
f 46/1/6 47/2/6 139/3/6
f 47/1/7 49/2/7 48/3/7
f 49/1/8 50/2/8 138/3/8
f 50/1/9 52/2/9 51/3/9
f 52/1/10 53/2/10 166/3/10
f 41/1/28 40/2/28 38/3/28
f 38/1/28 55/2/28 53/3/28
f 53/1/28 52/2/28 47/3/28
f 52/1/28 50/2/28 47/3/28
f 50/1/28 49/2/28 47/3/28
f 47/1/28 46/2/28 44/3/28
f 44/1/28 43/2/28 47/3/28
f 43/1/28 41/2/28 47/3/28
f 41/1/28 38/2/28 47/3/28
f 53/1/12 55/2/12 54/3/12
f 55/1/13 38/2/13 167/3/13
f 54/1/11 167/2/11 42/3/11
f 167/1/11 39/2/11 42/3/11
f 39/1/11 168/2/11 42/3/11
f 42/1/11 140/2/11 45/3/11
f 45/1/11 139/2/11 42/3/11
f 139/1/11 48/2/11 42/3/11
f 48/1/11 138/2/11 51/3/11
f 51/1/11 166/2/11 54/3/11
f 48/1/11 51/2/11 42/3/11
f 4/1/101 112/2/101 60/3/101
f 111/1/30 17/2/30 58/3/30
f 111/1/33 59/2/33 60/3/33
f 17/1/224 110/2/224 57/3/224
f 61/1/35 60/2/35 65/3/35
f 58/1/225 63/2/225 64/3/225
f 59/1/226 64/2/226 65/3/226
f 58/1/40 57/2/40 62/3/40
f 63/1/41 68/2/41 69/3/41
f 65/1/44 64/2/44 69/3/44
f 62/1/45 67/2/45 68/3/45
f 66/1/46 65/2/46 70/3/46
f 69/1/49 74/2/49 75/3/49
f 68/1/50 67/2/50 72/3/50
f 70/1/51 75/2/51 76/3/51
f 69/1/52 68/2/52 73/3/52
f 74/1/104 79/2/104 80/3/104
f 73/1/55 72/2/55 77/3/55
f 75/1/56 80/2/56 81/3/56
f 74/1/227 73/2/227 78/3/227
f 79/1/60 83/2/60 84/3/60
f 77/1/61 82/2/61 12/3/61
f 80/1/106 84/2/106 8/3/106
f 78/1/63 12/2/63 83/3/63
f 83/1/66 87/2/66 88/3/66
f 12/1/67 82/2/67 85/3/67
f 8/1/107 84/2/107 88/3/107
f 83/1/69 12/2/69 86/3/69
f 88/1/228 87/2/228 92/3/228
f 86/1/72 85/2/72 90/3/72
f 88/1/73 93/2/73 94/3/73
f 86/1/229 91/2/229 92/3/229
f 90/1/230 95/2/230 96/3/230
f 93/1/231 98/2/231 99/3/231
f 91/1/79 96/2/79 97/3/79
f 93/1/82 92/2/82 97/3/82
f 99/1/109 98/2/109 103/3/109
f 97/1/84 96/2/84 101/3/84
f 98/1/87 97/2/87 102/3/87
f 96/1/232 95/2/232 100/3/232
f 104/1/89 103/2/89 108/3/89
f 102/1/233 101/2/233 106/3/233
f 102/1/234 107/2/234 108/3/234
f 100/1/94 105/2/94 106/3/94
f 108/1/111 112/2/111 4/3/111
f 106/1/96 17/2/96 111/3/96
f 107/1/99 111/2/99 112/3/99
f 105/1/100 110/2/100 17/3/100
f 39/1/101 116/2/101 117/3/101
f 167/1/30 54/2/30 114/3/30
f 167/1/33 115/2/33 116/3/33
f 54/1/34 166/2/34 113/3/34
f 117/1/35 116/2/35 121/3/35
f 115/1/225 114/2/225 119/3/225
f 115/1/226 120/2/226 121/3/226
f 113/1/40 118/2/40 119/3/40
f 120/1/41 119/2/41 124/3/41
f 121/1/44 120/2/44 125/3/44
f 119/1/235 118/2/235 123/3/235
f 122/1/46 121/2/46 126/3/46
f 125/1/49 130/2/49 131/3/49
f 123/1/50 128/2/50 129/3/50
f 126/1/51 131/2/51 132/3/51
f 124/1/52 129/2/52 130/3/52
f 131/1/54 130/2/54 135/3/54
f 128/1/55 133/2/55 134/3/55
f 132/1/56 131/2/56 136/3/56
f 129/1/227 134/2/227 135/3/227
f 136/1/60 135/2/60 139/3/60
f 133/1/61 138/2/61 48/3/61
f 136/1/106 45/2/106 140/3/106
f 134/1/63 48/2/63 139/3/63
f 139/1/66 143/2/66 144/3/66
f 138/1/67 141/2/67 142/3/67
f 45/1/107 144/2/107 145/3/107
f 139/1/69 48/2/69 142/3/69
f 143/1/71 148/2/71 149/3/71
f 142/1/72 141/2/72 146/3/72
f 144/1/73 149/2/73 150/3/73
f 143/1/229 142/2/229 147/3/229
f 146/1/77 151/2/77 152/3/77
f 149/1/78 154/2/78 155/3/78
f 147/1/79 152/2/79 153/3/79
f 149/1/82 148/2/82 153/3/82
f 155/1/109 154/2/109 159/3/109
f 153/1/84 152/2/84 157/3/84
f 154/1/87 153/2/87 158/3/87
f 152/1/88 151/2/88 156/3/88
f 160/1/89 159/2/89 164/3/89
f 157/1/233 162/2/233 163/3/233
f 159/1/234 158/2/234 163/3/234
f 156/1/94 161/2/94 162/3/94
f 165/1/111 164/2/111 39/3/111
f 162/1/96 54/2/96 167/3/96
f 164/1/99 163/2/99 167/3/99
f 161/1/100 166/2/100 54/3/100
f 170/4/112 172/5/112 171/6/112
f 172/4/113 174/5/113 173/6/113
f 174/4/114 176/5/114 175/6/114
f 176/4/115 178/5/115 177/6/115
f 178/4/116 180/5/116 179/6/116
f 180/4/117 182/5/117 181/6/117
f 174/4/118 172/5/118 170/6/118
f 170/4/118 184/5/118 182/6/118
f 182/4/118 180/5/118 178/6/118
f 178/4/118 176/5/118 174/6/118
f 174/4/118 170/5/118 178/6/118
f 182/4/119 184/5/119 183/6/119
f 184/4/120 170/5/120 169/6/120
f 183/4/121 169/5/121 175/6/121
f 169/4/121 171/5/121 175/6/121
f 171/4/121 173/5/121 175/6/121
f 175/4/121 177/5/121 183/6/121
f 177/4/121 179/5/121 183/6/121
f 185/7/130 187/8/130 192/9/130
f 188/7/131 190/8/131 187/9/131
f 194/7/132 196/8/132 190/9/132
f 193/7/133 192/8/133 196/9/133
f 191/7/2 193/8/2 204/9/2
f 206/7/12 208/8/12 195/9/12
f 205/7/134 204/8/134 208/9/134
f 203/7/135 205/8/135 198/9/135
f 200/7/136 202/8/136 207/9/136
f 199/7/137 198/8/137 202/9/137
f 197/7/5 199/8/5 186/9/5
f 189/7/8 188/8/8 201/9/8
f 203/7/121 197/8/121 185/9/121
f 190/7/11 196/8/11 192/9/11
f 201/7/138 188/8/138 186/9/138
f 194/7/118 189/8/118 200/9/118
f 195/7/139 208/8/139 204/9/139
f 207/7/28 202/8/28 198/9/28
f 210/4/112 212/5/112 211/6/112
f 212/4/113 214/5/113 213/6/113
f 214/4/114 216/5/114 215/6/114
f 216/4/115 218/5/115 217/6/115
f 218/4/116 220/5/116 219/6/116
f 220/4/117 222/5/117 221/6/117
f 214/4/118 212/5/118 210/6/118
f 210/4/118 224/5/118 214/6/118
f 224/4/118 222/5/118 214/6/118
f 222/4/118 220/5/118 214/6/118
f 220/4/118 218/5/118 214/6/118
f 222/4/119 224/5/119 223/6/119
f 224/4/120 210/5/120 209/6/120
f 223/4/121 209/5/121 211/6/121
f 211/4/121 213/5/121 223/6/121
f 213/4/121 215/5/121 223/6/121
f 215/4/121 217/5/121 223/6/121
f 217/4/121 219/5/121 223/6/121
f 225/7/130 227/8/130 232/9/130
f 228/7/131 230/8/131 227/9/131
f 234/7/132 236/8/132 230/9/132
f 233/7/133 232/8/133 236/9/133
f 231/7/2 233/8/2 244/9/2
f 246/7/12 248/8/12 235/9/12
f 245/7/134 244/8/134 248/9/134
f 243/7/135 245/8/135 238/9/135
f 240/7/136 242/8/136 247/9/136
f 239/7/137 238/8/137 242/9/137
f 237/7/5 239/8/5 226/9/5
f 229/7/8 228/8/8 241/9/8
f 243/7/121 237/8/121 225/9/121
f 230/7/11 236/8/11 232/9/11
f 241/7/138 228/8/138 226/9/138
f 234/7/118 229/8/118 240/9/118
f 235/7/139 248/8/139 244/9/139
f 247/7/28 242/8/28 238/9/28
f 250/4/112 252/5/112 251/6/112
f 252/4/113 254/5/113 253/6/113
f 254/4/114 256/5/114 255/6/114
f 256/4/115 258/5/115 257/6/115
f 258/4/116 260/5/116 259/6/116
f 260/4/117 262/5/117 261/6/117
f 254/4/118 252/5/118 250/6/118
f 250/4/118 264/5/118 262/6/118
f 262/4/118 260/5/118 258/6/118
f 258/4/118 256/5/118 254/6/118
f 254/4/118 250/5/118 258/6/118
f 262/4/119 264/5/119 263/6/119
f 264/4/120 250/5/120 249/6/120
f 263/4/121 249/5/121 255/6/121
f 249/4/121 251/5/121 255/6/121
f 251/4/121 253/5/121 255/6/121
f 255/4/121 257/5/121 263/6/121
f 257/4/121 259/5/121 263/6/121
f 265/7/130 267/8/130 272/9/130
f 268/7/131 270/8/131 267/9/131
f 274/7/132 276/8/132 270/9/132
f 273/7/133 272/8/133 276/9/133
f 271/7/2 273/8/2 284/9/2
f 286/7/12 288/8/12 275/9/12
f 285/7/134 284/8/134 288/9/134
f 283/7/135 285/8/135 278/9/135
f 280/7/136 282/8/136 287/9/136
f 279/7/137 278/8/137 282/9/137
f 277/7/5 279/8/5 266/9/5
f 269/7/8 268/8/8 281/9/8
f 283/7/121 277/8/121 265/9/121
f 270/7/11 276/8/11 272/9/11
f 281/7/138 268/8/138 266/9/138
f 274/7/118 269/8/118 280/9/118
f 275/7/139 288/8/139 284/9/139
f 287/7/28 282/8/28 278/9/28
f 290/4/112 292/5/112 291/6/112
f 292/4/113 294/5/113 293/6/113
f 294/4/114 296/5/114 295/6/114
f 296/4/115 298/5/115 297/6/115
f 298/4/116 300/5/116 299/6/116
f 300/4/117 302/5/117 301/6/117
f 294/4/118 292/5/118 290/6/118
f 290/4/118 304/5/118 302/6/118
f 302/4/118 300/5/118 298/6/118
f 298/4/118 296/5/118 294/6/118
f 294/4/118 290/5/118 298/6/118
f 302/4/119 304/5/119 303/6/119
f 304/4/120 290/5/120 289/6/120
f 303/4/121 289/5/121 295/6/121
f 289/4/121 291/5/121 295/6/121
f 291/4/121 293/5/121 295/6/121
f 295/4/121 297/5/121 303/6/121
f 297/4/121 299/5/121 303/6/121
f 305/7/130 307/8/130 312/9/130
f 308/7/131 310/8/131 307/9/131
f 314/7/132 316/8/132 310/9/132
f 313/7/133 312/8/133 316/9/133
f 311/7/2 313/8/2 324/9/2
f 326/7/12 328/8/12 315/9/12
f 325/7/134 324/8/134 328/9/134
f 323/7/135 325/8/135 318/9/135
f 320/7/136 322/8/136 327/9/136
f 319/7/137 318/8/137 322/9/137
f 317/7/5 319/8/5 306/9/5
f 309/7/8 308/8/8 321/9/8
f 323/7/121 317/8/121 305/9/121
f 310/7/11 316/8/11 312/9/11
f 321/7/138 308/8/138 306/9/138
f 314/7/118 309/8/118 320/9/118
f 315/7/139 328/8/139 324/9/139
f 327/7/28 322/8/28 318/9/28
