# Blender 5.0.1
# www.blender.org
mtllib slalom_blue.mtl
o slalom_blue
v -2.080000 0.000000 0.000000
v -2.080000 0.800000 0.000000
v -2.080000 1.600000 0.000000
v -2.080000 2.400000 0.000000
v -2.080000 3.200000 0.000000
v -2.080000 4.000000 0.000000
v -2.080000 4.800000 0.000000
v -2.080000 5.600000 0.000000
v -2.080000 6.400000 0.000000
v -2.200000 6.600000 0.000000
v -2.115147 0.000000 -0.084853
v -2.115147 0.800000 -0.084853
v -2.115147 1.600000 -0.084853
v -2.115147 2.400000 -0.084853
v -2.115147 3.200000 -0.084853
v -2.115147 4.000000 -0.084853
v -2.115147 4.800000 -0.084853
v -2.115147 5.600000 -0.084853
v -2.115147 6.400000 -0.084853
v -2.200000 0.000000 -0.120000
v -2.200000 0.800000 -0.120000
v -2.200000 1.600000 -0.120000
v -2.200000 2.400000 -0.120000
v -2.200000 3.200000 -0.120000
v -2.200000 4.000000 -0.120000
v -2.200000 4.800000 -0.120000
v -2.200000 5.600000 -0.120000
v -2.200000 6.400000 -0.120000
v -2.284853 0.000000 -0.084853
v -2.284853 0.800000 -0.084853
v -2.284853 1.600000 -0.084853
v -2.284853 2.400000 -0.084853
v -2.284853 3.200000 -0.084853
v -2.284853 4.000000 -0.084853
v -2.284853 4.800000 -0.084853
v -2.284853 5.600000 -0.084853
v -2.284853 6.400000 -0.084853
v -2.320000 0.000000 -0.000000
v -2.320000 0.800000 -0.000000
v -2.320000 1.600000 -0.000000
v -2.320000 2.400000 -0.000000
v -2.320000 3.200000 -0.000000
v -2.320000 4.000000 -0.000000
v -2.320000 4.800000 -0.000000
v -2.320000 5.600000 -0.000000
v -2.320000 6.400000 -0.000000
v -2.284853 0.000000 0.084853
v -2.284853 0.800000 0.084853
v -2.284853 1.600000 0.084853
v -2.284853 2.400000 0.084853
v -2.284853 3.200000 0.084853
v -2.284853 4.000000 0.084853
v -2.284853 4.800000 0.084853
v -2.284853 5.600000 0.084853
v -2.284853 6.400000 0.084853
v -2.200000 0.000000 0.120000
v -2.200000 0.800000 0.120000
v -2.200000 1.600000 0.120000
v -2.200000 2.400000 0.120000
v -2.200000 3.200000 0.120000
v -2.200000 4.000000 0.120000
v -2.200000 4.800000 0.120000
v -2.200000 5.600000 0.120000
v -2.200000 6.400000 0.120000
v -2.115147 0.000000 0.084853
v -2.115147 0.800000 0.084853
v -2.115147 1.600000 0.084853
v -2.115147 2.400000 0.084853
v -2.115147 3.200000 0.084853
v -2.115147 4.000000 0.084853
v -2.115147 4.800000 0.084853
v -2.115147 5.600000 0.084853
v -2.115147 6.400000 0.084853
v 2.320000 0.000000 0.000000
v 2.320000 0.800000 0.000000
v 2.320000 1.600000 0.000000
v 2.320000 2.400000 0.000000
v 2.320000 3.200000 0.000000
v 2.320000 4.000000 0.000000
v 2.320000 4.800000 0.000000
v 2.320000 5.600000 0.000000
v 2.320000 6.400000 0.000000
v 2.200000 6.600000 0.000000
v 2.284853 0.000000 -0.084853
v 2.284853 0.800000 -0.084853
v 2.284853 1.600000 -0.084853
v 2.284853 2.400000 -0.084853
v 2.284853 3.200000 -0.084853
v 2.284853 4.000000 -0.084853
v 2.284853 4.800000 -0.084853
v 2.284853 5.600000 -0.084853
v 2.284853 6.400000 -0.084853
v 2.200000 0.000000 -0.120000
v 2.200000 0.800000 -0.120000
v 2.200000 1.600000 -0.120000
v 2.200000 2.400000 -0.120000
v 2.200000 3.200000 -0.120000
v 2.200000 4.000000 -0.120000
v 2.200000 4.800000 -0.120000
v 2.200000 5.600000 -0.120000
v 2.200000 6.400000 -0.120000
v 2.115147 0.000000 -0.084853
v 2.115147 0.800000 -0.084853
v 2.115147 1.600000 -0.084853
v 2.115147 2.400000 -0.084853
v 2.115147 3.200000 -0.084853
v 2.115147 4.000000 -0.084853
v 2.115147 4.800000 -0.084853
v 2.115147 5.600000 -0.084853
v 2.115147 6.400000 -0.084853
v 2.080000 0.000000 -0.000000
v 2.080000 0.800000 -0.000000
v 2.080000 1.600000 -0.000000
v 2.080000 2.400000 -0.000000
v 2.080000 3.200000 -0.000000
v 2.080000 4.000000 -0.000000
v 2.080000 4.800000 -0.000000
v 2.080000 5.600000 -0.000000
v 2.080000 6.400000 -0.000000
v 2.115147 0.000000 0.084853
v 2.115147 0.800000 0.084853
v 2.115147 1.600000 0.084853
v 2.115147 2.400000 0.084853
v 2.115147 3.200000 0.084853
v 2.115147 4.000000 0.084853
v 2.115147 4.800000 0.084853
v 2.115147 5.600000 0.084853
v 2.115147 6.400000 0.084853
v 2.200000 0.000000 0.120000
v 2.200000 0.800000 0.120000
v 2.200000 1.600000 0.120000
v 2.200000 2.400000 0.120000
v 2.200000 3.200000 0.120000
v 2.200000 4.000000 0.120000
v 2.200000 4.800000 0.120000
v 2.200000 5.600000 0.120000
v 2.200000 6.400000 0.120000
v 2.284853 0.000000 0.084853
v 2.284853 0.800000 0.084853
v 2.284853 1.600000 0.084853
v 2.284853 2.400000 0.084853
v 2.284853 3.200000 0.084853
v 2.284853 4.000000 0.084853
v 2.284853 4.800000 0.084853
v 2.284853 5.600000 0.084853
v 2.284853 6.400000 0.084853
v -2.100000 4.300000 0.030000
v -2.100000 6.100000 0.030000
v -2.100000 4.300000 -0.030000
v -2.100000 6.100000 -0.030000
v 2.100000 4.300000 0.030000
v 2.100000 6.100000 0.030000
v 2.100000 4.300000 -0.030000
v 2.100000 6.100000 -0.030000
v -2.100000 4.450000 0.040000
v -2.100000 4.750000 0.040000
v -2.100000 4.450000 -0.040000
v -2.100000 4.750000 -0.040000
v 2.100000 4.450000 0.040000
v 2.100000 4.750000 0.040000
v 2.100000 4.450000 -0.040000
v 2.100000 4.750000 -0.040000
vn 0.9239 -0.0000 -0.3827
vn 0.8080 0.4848 -0.3347
vn 0.3827 -0.0000 -0.9239
vn 0.3347 0.4848 -0.8080
vn -0.3827 -0.0000 -0.9239
vn -0.3347 0.4848 -0.8080
vn -0.9239 -0.0000 -0.3827
vn -0.8080 0.4848 -0.3347
vn -0.9239 -0.0000 0.3827
vn -0.8080 0.4848 0.3347
vn -0.3827 -0.0000 0.9239
vn -0.3347 0.4848 0.8080
vn 0.3827 -0.0000 0.9239
vn 0.3347 0.4848 0.8080
vn 0.9239 -0.0000 0.3827
vn 0.8080 0.4848 0.3347
vn -0.0000 -1.0000 -0.0000
vn -1.0000 -0.0000 -0.0000
vn -0.0000 -0.0000 -1.0000
vn 1.0000 -0.0000 -0.0000
vn -0.0000 -0.0000 1.0000
vn -0.0000 1.0000 -0.0000
vt 0.837500 0.071429
vt 0.800000 0.096172
vt 0.800000 0.046685
vt 0.087500 0.928571
vt 0.050000 0.953315
vt 0.050000 0.903828
s 0
usemtl Palette
f 11/1/1 2/2/1 1/3/1
f 12/4/1 3/5/1 2/6/1
f 13/1/1 4/2/1 3/3/1
f 14/4/1 5/5/1 4/6/1
f 15/1/1 6/2/1 5/3/1
f 16/4/1 7/5/1 6/6/1
f 17/1/1 8/2/1 7/3/1
f 18/4/1 9/5/1 8/6/1
f 9/1/2 19/2/2 10/3/2
f 20/1/3 12/2/3 11/3/3
f 21/4/3 13/5/3 12/6/3
f 22/1/3 14/2/3 13/3/3
f 23/4/3 15/5/3 14/6/3
f 24/1/3 16/2/3 15/3/3
f 25/4/3 17/5/3 16/6/3
f 26/1/3 18/2/3 17/3/3
f 27/4/3 19/5/3 18/6/3
f 19/1/4 28/2/4 10/3/4
f 29/1/5 21/2/5 20/3/5
f 30/4/5 22/5/5 21/6/5
f 31/1/5 23/2/5 22/3/5
f 32/4/5 24/5/5 23/6/5
f 33/1/5 25/2/5 24/3/5
f 34/4/5 26/5/5 25/6/5
f 35/1/5 27/2/5 26/3/5
f 36/4/5 28/5/5 27/6/5
f 28/1/6 37/2/6 10/3/6
f 38/1/7 30/2/7 29/3/7
f 39/4/7 31/5/7 30/6/7
f 40/1/7 32/2/7 31/3/7
f 41/4/7 33/5/7 32/6/7
f 42/1/7 34/2/7 33/3/7
f 43/4/7 35/5/7 34/6/7
f 44/1/7 36/2/7 35/3/7
f 45/4/7 37/5/7 36/6/7
f 37/1/8 46/2/8 10/3/8
f 47/1/9 39/2/9 38/3/9
f 48/4/9 40/5/9 39/6/9
f 49/1/9 41/2/9 40/3/9
f 50/4/9 42/5/9 41/6/9
f 51/1/9 43/2/9 42/3/9
f 52/4/9 44/5/9 43/6/9
f 53/1/9 45/2/9 44/3/9
f 54/4/9 46/5/9 45/6/9
f 46/1/10 55/2/10 10/3/10
f 56/1/11 48/2/11 47/3/11
f 57/4/11 49/5/11 48/6/11
f 58/1/11 50/2/11 49/3/11
f 59/4/11 51/5/11 50/6/11
f 60/1/11 52/2/11 51/3/11
f 61/4/11 53/5/11 52/6/11
f 62/1/11 54/2/11 53/3/11
f 63/4/11 55/5/11 54/6/11
f 55/1/12 64/2/12 10/3/12
f 65/1/13 57/2/13 56/3/13
f 66/4/13 58/5/13 57/6/13
f 67/1/13 59/2/13 58/3/13
f 68/4/13 60/5/13 59/6/13
f 69/1/13 61/2/13 60/3/13
f 70/4/13 62/5/13 61/6/13
f 71/1/13 63/2/13 62/3/13
f 72/4/13 64/5/13 63/6/13
f 64/1/14 73/2/14 10/3/14
f 1/1/15 66/2/15 65/3/15
f 2/4/15 67/5/15 66/6/15
f 3/1/15 68/2/15 67/3/15
f 4/4/15 69/5/15 68/6/15
f 5/1/15 70/2/15 69/3/15
f 6/4/15 71/5/15 70/6/15
f 7/1/15 72/2/15 71/3/15
f 8/4/15 73/5/15 72/6/15
f 73/1/16 9/2/16 10/3/16
f 29/1/17 20/2/17 11/3/17
f 84/1/1 75/2/1 74/3/1
f 85/4/1 76/5/1 75/6/1
f 86/1/1 77/2/1 76/3/1
f 87/4/1 78/5/1 77/6/1
f 88/1/1 79/2/1 78/3/1
f 89/4/1 80/5/1 79/6/1
f 90/1/1 81/2/1 80/3/1
f 91/4/1 82/5/1 81/6/1
f 82/1/2 92/2/2 83/3/2
f 93/1/3 85/2/3 84/3/3
f 94/4/3 86/5/3 85/6/3
f 95/1/3 87/2/3 86/3/3
f 96/4/3 88/5/3 87/6/3
f 97/1/3 89/2/3 88/3/3
f 98/4/3 90/5/3 89/6/3
f 99/1/3 91/2/3 90/3/3
f 100/4/3 92/5/3 91/6/3
f 92/1/4 101/2/4 83/3/4
f 102/1/5 94/2/5 93/3/5
f 103/4/5 95/5/5 94/6/5
f 104/1/5 96/2/5 95/3/5
f 105/4/5 97/5/5 96/6/5
f 106/1/5 98/2/5 97/3/5
f 107/4/5 99/5/5 98/6/5
f 108/1/5 100/2/5 99/3/5
f 109/4/5 101/5/5 100/6/5
f 101/1/6 110/2/6 83/3/6
f 111/1/7 103/2/7 102/3/7
f 112/4/7 104/5/7 103/6/7
f 113/1/7 105/2/7 104/3/7
f 114/4/7 106/5/7 105/6/7
f 115/1/7 107/2/7 106/3/7
f 116/4/7 108/5/7 107/6/7
f 117/1/7 109/2/7 108/3/7
f 118/4/7 110/5/7 109/6/7
f 110/1/8 119/2/8 83/3/8
f 120/1/9 112/2/9 111/3/9
f 121/4/9 113/5/9 112/6/9
f 122/1/9 114/2/9 113/3/9
f 123/4/9 115/5/9 114/6/9
f 124/1/9 116/2/9 115/3/9
f 125/4/9 117/5/9 116/6/9
f 126/1/9 118/2/9 117/3/9
f 127/4/9 119/5/9 118/6/9
f 119/1/10 128/2/10 83/3/10
f 129/1/11 121/2/11 120/3/11
f 130/4/11 122/5/11 121/6/11
f 131/1/11 123/2/11 122/3/11
f 132/4/11 124/5/11 123/6/11
f 133/1/11 125/2/11 124/3/11
f 134/4/11 126/5/11 125/6/11
f 135/1/11 127/2/11 126/3/11
f 136/4/11 128/5/11 127/6/11
f 128/1/12 137/2/12 83/3/12
f 138/1/13 130/2/13 129/3/13
f 139/4/13 131/5/13 130/6/13
f 140/1/13 132/2/13 131/3/13
f 141/4/13 133/5/13 132/6/13
f 142/1/13 134/2/13 133/3/13
f 143/4/13 135/5/13 134/6/13
f 144/1/13 136/2/13 135/3/13
f 145/4/13 137/5/13 136/6/13
f 137/1/14 146/2/14 83/3/14
f 74/1/15 139/2/15 138/3/15
f 75/4/15 140/5/15 139/6/15
f 76/1/15 141/2/15 140/3/15
f 77/4/15 142/5/15 141/6/15
f 78/1/15 143/2/15 142/3/15
f 79/4/15 144/5/15 143/6/15
f 80/1/15 145/2/15 144/3/15
f 81/4/15 146/5/15 145/6/15
f 146/1/16 82/2/16 83/3/16
f 102/1/17 93/2/17 84/3/17
f 148/1/18 149/2/18 147/3/18
f 150/1/19 153/2/19 149/3/19
f 154/1/20 151/2/20 153/3/20
f 152/1/21 147/2/21 151/3/21
f 153/1/17 147/2/17 149/3/17
f 150/1/22 152/2/22 154/3/22
f 156/4/18 157/5/18 155/6/18
f 158/4/19 161/5/19 157/6/19
f 162/4/20 159/5/20 161/6/20
f 160/4/21 155/5/21 159/6/21
f 161/4/17 155/5/17 157/6/17
f 158/4/22 160/5/22 162/6/22
f 11/1/1 12/2/1 2/3/1
f 12/4/1 13/5/1 3/6/1
f 13/1/1 14/2/1 4/3/1
f 14/4/1 15/5/1 5/6/1
f 15/1/1 16/2/1 6/3/1
f 16/4/1 17/5/1 7/6/1
f 17/1/1 18/2/1 8/3/1
f 18/4/1 19/5/1 9/6/1
f 20/1/3 21/2/3 12/3/3
f 21/4/3 22/5/3 13/6/3
f 22/1/3 23/2/3 14/3/3
f 23/4/3 24/5/3 15/6/3
f 24/1/3 25/2/3 16/3/3
f 25/4/3 26/5/3 17/6/3
f 26/1/3 27/2/3 18/3/3
f 27/4/3 28/5/3 19/6/3
f 29/1/5 30/2/5 21/3/5
f 30/4/5 31/5/5 22/6/5
f 31/1/5 32/2/5 23/3/5
f 32/4/5 33/5/5 24/6/5
f 33/1/5 34/2/5 25/3/5
f 34/4/5 35/5/5 26/6/5
f 35/1/5 36/2/5 27/3/5
f 36/4/5 37/5/5 28/6/5
f 38/1/7 39/2/7 30/3/7
f 39/4/7 40/5/7 31/6/7
f 40/1/7 41/2/7 32/3/7
f 41/4/7 42/5/7 33/6/7
f 42/1/7 43/2/7 34/3/7
f 43/4/7 44/5/7 35/6/7
f 44/1/7 45/2/7 36/3/7
f 45/4/7 46/5/7 37/6/7
f 47/1/9 48/2/9 39/3/9
f 48/4/9 49/5/9 40/6/9
f 49/1/9 50/2/9 41/3/9
f 50/4/9 51/5/9 42/6/9
f 51/1/9 52/2/9 43/3/9
f 52/4/9 53/5/9 44/6/9
f 53/1/9 54/2/9 45/3/9
f 54/4/9 55/5/9 46/6/9
f 56/1/11 57/2/11 48/3/11
f 57/4/11 58/5/11 49/6/11
f 58/1/11 59/2/11 50/3/11
f 59/4/11 60/5/11 51/6/11
f 60/1/11 61/2/11 52/3/11
f 61/4/11 62/5/11 53/6/11
f 62/1/11 63/2/11 54/3/11
f 63/4/11 64/5/11 55/6/11
f 65/1/13 66/2/13 57/3/13
f 66/4/13 67/5/13 58/6/13
f 67/1/13 68/2/13 59/3/13
f 68/4/13 69/5/13 60/6/13
f 69/1/13 70/2/13 61/3/13
f 70/4/13 71/5/13 62/6/13
f 71/1/13 72/2/13 63/3/13
f 72/4/13 73/5/13 64/6/13
f 1/1/15 2/2/15 66/3/15
f 2/4/15 3/5/15 67/6/15
f 3/1/15 4/2/15 68/3/15
f 4/4/15 5/5/15 69/6/15
f 5/1/15 6/2/15 70/3/15
f 6/4/15 7/5/15 71/6/15
f 7/1/15 8/2/15 72/3/15
f 8/4/15 9/5/15 73/6/15
f 11/1/17 1/2/17 47/3/17
f 1/1/17 65/2/17 47/3/17
f 65/1/17 56/2/17 47/3/17
f 47/1/17 38/2/17 11/3/17
f 38/1/17 29/2/17 11/3/17
f 84/1/1 85/2/1 75/3/1
f 85/4/1 86/5/1 76/6/1
f 86/1/1 87/2/1 77/3/1
f 87/4/1 88/5/1 78/6/1
f 88/1/1 89/2/1 79/3/1
f 89/4/1 90/5/1 80/6/1
f 90/1/1 91/2/1 81/3/1
f 91/4/1 92/5/1 82/6/1
f 93/1/3 94/2/3 85/3/3
f 94/4/3 95/5/3 86/6/3
f 95/1/3 96/2/3 87/3/3
f 96/4/3 97/5/3 88/6/3
f 97/1/3 98/2/3 89/3/3
f 98/4/3 99/5/3 90/6/3
f 99/1/3 100/2/3 91/3/3
f 100/4/3 101/5/3 92/6/3
f 102/1/5 103/2/5 94/3/5
f 103/4/5 104/5/5 95/6/5
f 104/1/5 105/2/5 96/3/5
f 105/4/5 106/5/5 97/6/5
f 106/1/5 107/2/5 98/3/5
f 107/4/5 108/5/5 99/6/5
f 108/1/5 109/2/5 100/3/5
f 109/4/5 110/5/5 101/6/5
f 111/1/7 112/2/7 103/3/7
f 112/4/7 113/5/7 104/6/7
f 113/1/7 114/2/7 105/3/7
f 114/4/7 115/5/7 106/6/7
f 115/1/7 116/2/7 107/3/7
f 116/4/7 117/5/7 108/6/7
f 117/1/7 118/2/7 109/3/7
f 118/4/7 119/5/7 110/6/7
f 120/1/9 121/2/9 112/3/9
f 121/4/9 122/5/9 113/6/9
f 122/1/9 123/2/9 114/3/9
f 123/4/9 124/5/9 115/6/9
f 124/1/9 125/2/9 116/3/9
f 125/4/9 126/5/9 117/6/9
f 126/1/9 127/2/9 118/3/9
f 127/4/9 128/5/9 119/6/9
f 129/1/11 130/2/11 121/3/11
f 130/4/11 131/5/11 122/6/11
f 131/1/11 132/2/11 123/3/11
f 132/4/11 133/5/11 124/6/11
f 133/1/11 134/2/11 125/3/11
f 134/4/11 135/5/11 126/6/11
f 135/1/11 136/2/11 127/3/11
f 136/4/11 137/5/11 128/6/11
f 138/1/13 139/2/13 130/3/13
f 139/4/13 140/5/13 131/6/13
f 140/1/13 141/2/13 132/3/13
f 141/4/13 142/5/13 133/6/13
f 142/1/13 143/2/13 134/3/13
f 143/4/13 144/5/13 135/6/13
f 144/1/13 145/2/13 136/3/13
f 145/4/13 146/5/13 137/6/13
f 74/1/15 75/2/15 139/3/15
f 75/4/15 76/5/15 140/6/15
f 76/1/15 77/2/15 141/3/15
f 77/4/15 78/5/15 142/6/15
f 78/1/15 79/2/15 143/3/15
f 79/4/15 80/5/15 144/6/15
f 80/1/15 81/2/15 145/3/15
f 81/4/15 82/5/15 146/6/15
f 84/1/17 74/2/17 120/3/17
f 74/1/17 138/2/17 120/3/17
f 138/1/17 129/2/17 120/3/17
f 120/1/17 111/2/17 84/3/17
f 111/1/17 102/2/17 84/3/17
f 148/1/18 150/2/18 149/3/18
f 150/1/19 154/2/19 153/3/19
f 154/1/20 152/2/20 151/3/20
f 152/1/21 148/2/21 147/3/21
f 153/1/17 151/2/17 147/3/17
f 150/1/22 148/2/22 152/3/22
f 156/4/18 158/5/18 157/6/18
f 158/4/19 162/5/19 161/6/19
f 162/4/20 160/5/20 159/6/20
f 160/4/21 156/5/21 155/6/21
f 161/4/17 159/5/17 155/6/17
f 158/4/22 156/5/22 160/6/22
