# Blender 5.0.1
# www.blender.org
mtllib pine_tall.mtl
o pine_tall
v 0.003878 0.018166 -0.664382
v -0.004229 5.858719 -0.460717
v 0.580260 0.055076 -0.489379
v 0.354291 5.846229 -0.338304
v 0.631243 0.000000 0.129955
v 0.511739 5.899225 0.013177
v 0.342343 0.009545 0.562220
v 0.238219 5.904025 0.328181
v -0.213746 0.039145 0.572892
v -0.147804 5.836339 0.350775
v -0.606071 0.072019 0.131638
v -0.371895 5.848585 0.041305
v -0.437030 0.066792 -0.466571
v -0.286746 5.859955 -0.335473
v -0.120157 4.552839 0.102094
v -3.136502 4.252289 -3.441035
v -2.141824 5.367153 -2.794386
v -1.324419 6.699166 -2.098795
v -0.748721 7.974250 -0.862579
v -0.157762 9.485062 0.131917
v -4.591004 4.424143 -0.137598
v -3.552500 5.340268 0.187046
v -2.404602 6.688389 -0.315153
v -1.344815 8.052338 -0.242504
v -2.600463 3.966105 3.719090
v -2.290836 5.128762 3.097319
v -1.819597 6.308023 1.841154
v -0.561548 7.953795 0.874401
v 1.111367 3.923894 4.539348
v 1.063013 5.345061 3.351412
v 0.822313 6.746153 2.213764
v 0.266134 8.151086 0.980786
v 4.420781 4.200129 2.020992
v 3.487368 4.886516 1.197123
v 2.458865 6.642229 1.081528
v 1.331950 8.039724 0.256118
v 4.591004 4.146706 -2.248875
v 3.007367 5.116490 -1.766371
v 2.258609 6.279013 -1.417369
v 0.974164 7.719396 -0.795828
v 0.926748 3.906160 -4.539348
v 0.757817 5.000078 -3.437682
v 0.587747 6.459610 -2.465323
v 0.477801 8.077714 -1.366315
v 0.134345 7.651840 0.038175
v 1.252394 7.279425 -4.001341
v 1.024519 8.229005 -2.986091
v 0.537530 9.435893 -2.078799
v 0.441671 10.539925 -1.247993
v -0.120476 12.199111 0.071427
v -2.186837 6.981526 -3.415423
v -1.423019 8.292903 -2.668921
v -0.929054 9.466435 -1.869386
v -0.379389 10.783154 -1.021552
v -4.132098 7.278819 -0.277421
v -2.759270 8.033524 -0.465835
v -2.040809 9.209392 -0.296867
v -1.168183 10.609065 -0.371679
v -2.802166 7.145769 2.940008
v -2.053980 8.069908 2.103293
v -1.281383 9.339923 1.700238
v -0.661186 10.818341 0.654400
v 0.412739 7.262884 3.771536
v 0.594561 7.914452 3.118575
v 0.085898 9.536515 2.128059
v 0.395609 10.778691 0.980460
v 3.191007 7.263036 2.059669
v 2.660748 8.081036 1.379579
v 1.635049 9.237576 0.763899
v 0.865249 10.787878 0.501150
v 3.718436 7.410508 -1.408245
v 2.997120 8.207515 -1.005021
v 1.732201 9.277248 -0.739651
v 1.175370 10.884793 -0.620309
v 0.204891 10.514496 0.062363
v 2.584473 10.106133 -2.324047
v 2.382840 10.866100 -1.795975
v 1.362476 12.058783 -1.014224
v 0.716757 13.373810 -0.462467
v 0.120981 14.891190 0.024564
v 0.180367 10.160874 -3.509883
v 0.072002 10.753139 -2.811028
v 0.179255 11.883852 -1.962048
v -0.219146 13.354240 -1.046185
v -2.746739 10.046578 -2.348183
v -1.978041 10.921266 -1.809334
v -1.358361 12.209861 -1.292895
v -0.788277 13.117712 -0.739649
v -3.425390 9.853068 0.957090
v -2.619116 10.805072 0.825890
v -1.669600 12.001473 0.404620
v -0.959587 13.495389 0.343966
v -1.407371 9.891795 3.089176
v -0.939348 10.848096 2.503792
v -0.605877 12.080656 1.441060
v -0.410747 13.427278 0.685567
v 1.678467 9.952979 3.317178
v 1.288392 11.086978 2.556515
v 1.039672 12.122412 1.539327
v 0.333994 13.292819 0.720321
v 3.485131 10.057237 0.795540
v 2.630730 11.067863 0.531562
v 1.874380 12.267448 0.430236
v 1.114176 13.118260 0.273215
v 0.120283 13.111445 0.070736
v -2.175349 12.773285 -1.326343
v -1.663959 13.341817 -1.079259
v -1.069572 14.672122 -0.764957
v -0.635304 15.707983 -0.365008
v 0.059584 17.259340 0.089489
v -2.271854 12.687202 0.745240
v -1.883067 13.519204 0.708955
v -1.230852 14.526249 0.425196
v -0.453299 15.863820 0.150353
v -0.829599 12.802683 2.266364
v -0.539029 13.598520 1.731852
v -0.478271 14.619022 1.308636
v -0.107531 15.816251 0.722406
v 1.349664 12.692253 1.979961
v 1.120291 13.596272 1.497011
v 0.754586 14.592067 0.896869
v 0.506039 15.760277 0.484107
v 2.444484 12.564723 0.127902
v 1.972896 13.629066 0.209439
v 1.370348 14.707187 -0.082403
v 0.782427 15.613802 -0.111578
v 1.889795 12.577244 -1.783965
v 1.397728 13.500170 -1.639903
v 1.042650 14.411357 -1.122565
v 0.346201 15.612931 -0.507881
v -0.438733 12.807305 -2.498736
v -0.302236 13.556047 -2.135820
v -0.210137 14.626316 -1.257578
v -0.209020 15.693109 -0.724887
v 0.043842 15.728166 -0.034364
v -1.571878 15.034179 -1.084983
v -1.158937 15.808494 -0.898745
v -0.916940 16.928082 -0.483138
v -0.409800 18.002203 -0.342620
v 0.117677 19.360550 -0.119983
v -1.800279 15.043917 0.550516
v -1.388792 15.796852 0.633474
v -1.016454 16.771547 0.389565
v -0.462732 18.055826 0.150644
v -0.486802 15.086205 1.819115
v -0.374673 15.965385 1.506276
v -0.217725 16.932852 0.839313
v -0.207624 17.915997 0.476115
v 1.039990 15.167503 1.584394
v 0.907068 15.879540 1.175110
v 0.516271 16.845453 0.806720
v 0.229769 17.848242 0.438910
v 2.107080 15.030729 0.106518
v 1.499697 15.900371 0.081881
v 0.972735 16.810543 -0.052319
v 0.681531 18.037086 0.009681
v 1.429481 15.130245 -1.590339
v 1.174138 15.800364 -1.091889
v 0.789424 16.961847 -0.731278
v 0.413813 17.991270 -0.512072
v -0.131205 15.092373 -2.089737
v -0.232637 15.817037 -1.582047
v -0.218910 16.829638 -1.048596
v -0.110006 17.853294 -0.708196
vn 0.2884 0.0338 -0.9569
vn 0.9961 0.0409 -0.0784
vn 0.8314 0.0278 0.5550
vn 0.0212 0.0380 0.9991
vn -0.7456 0.0340 0.6655
vn -0.0744 0.9966 -0.0344
vn -0.9617 0.0347 -0.2720
vn -0.4063 0.0313 -0.9132
vn -0.0541 -0.9984 -0.0149
vn 0.0253 -0.9977 0.0631
vn -0.6141 0.7266 -0.3082
vn -0.6713 0.6223 -0.4028
vn -0.6421 0.6630 -0.3849
vn -0.5375 0.6002 -0.5923
vn 0.0358 -0.9901 -0.1361
vn -0.6708 0.6120 0.4189
vn -0.6677 0.6808 0.3012
vn -0.6853 0.5045 0.5251
vn -0.7123 0.4493 0.5392
vn 0.0210 -0.9891 -0.1460
vn -0.1813 0.5009 0.8463
vn -0.0981 0.7437 0.6613
vn -0.2089 0.6091 0.7651
vn -0.2222 0.4722 0.8530
vn -0.0200 -0.9907 -0.1349
vn 0.4633 0.5776 0.6721
vn 0.4801 0.6012 0.6388
vn 0.4587 0.6817 0.5699
vn 0.5011 0.5723 0.6491
vn -0.0813 -0.9966 0.0092
vn 0.5848 0.8111 0.0132
vn 0.8583 0.4935 -0.1405
vn 0.8107 0.5667 -0.1473
vn 0.6511 0.6355 -0.4150
vn -0.0186 -0.9908 0.1338
vn 0.3007 0.7706 -0.5619
vn 0.4901 0.5246 -0.6961
vn 0.4490 0.6602 -0.6021
vn 0.7443 0.6146 -0.2616
vn -0.0501 -0.9907 0.1267
vn -0.0682 0.7027 -0.7082
vn -0.1162 0.5413 -0.8328
vn -0.0889 0.5555 -0.8268
vn -0.3453 0.6065 -0.7162
vn 0.1060 -0.9871 0.1203
vn -0.0706 0.7206 -0.6898
vn -0.0904 0.5749 -0.8132
vn -0.1018 0.5925 -0.7991
vn -0.0352 0.6147 -0.7880
vn 0.0759 -0.9872 0.1406
vn -0.7053 0.6132 -0.3556
vn -0.7090 0.5758 -0.4071
vn -0.5843 0.5975 -0.5491
vn -0.5984 0.5553 -0.5776
vn 0.0926 -0.9925 -0.0793
vn -0.4663 0.8770 0.1156
vn -0.8455 0.4842 0.2252
vn -0.8045 0.5172 0.2920
vn -0.8302 0.4588 0.3166
vn 0.0641 -0.9921 -0.1081
vn -0.1936 0.7400 0.6442
vn -0.2969 0.4482 0.8432
vn -0.3127 0.6325 0.7087
vn -0.2465 0.4573 0.8545
vn -0.0609 -0.9932 -0.0989
vn 0.4284 0.5772 0.6952
vn 0.6115 0.5431 0.5754
vn 0.6425 0.4274 0.6360
vn 0.5770 0.5786 0.5765
vn -0.0895 -0.9944 -0.0559
vn 0.7716 0.6197 0.1437
vn 0.7041 0.6969 0.1363
vn 0.8888 0.4531 0.0694
vn 0.7525 0.6049 0.2604
vn -0.0338 -0.9960 0.0825
vn 0.5048 0.7073 -0.4950
vn 0.5004 0.7134 -0.4905
vn 0.5580 0.2520 -0.7907
vn 0.2903 0.6539 -0.6986
vn -0.0713 -0.9926 0.0987
vn 0.2981 0.5968 -0.7450
vn 0.3731 0.7104 -0.5968
vn 0.4431 0.5231 -0.7280
vn 0.4708 0.4318 -0.7693
vn 0.0775 -0.9922 0.0977
vn -0.2838 0.7094 -0.6452
vn -0.3154 0.5887 -0.7443
vn -0.2727 0.4543 -0.8481
vn -0.5614 0.5531 -0.6156
vn 0.1740 -0.9845 -0.0219
vn -0.6997 0.7007 -0.1393
vn -0.8794 0.4646 -0.1042
vn -0.8211 0.5650 -0.0812
vn -0.7847 0.5363 -0.3110
vn 0.1485 -0.9813 -0.1228
vn -0.5962 0.5813 0.5538
vn -0.5635 0.6338 0.5299
vn -0.6682 0.3444 0.6595
vn -0.4139 0.4952 0.7638
vn 0.0331 -0.9823 -0.1845
vn -0.0725 0.5463 0.8345
vn -0.0888 0.6641 0.7424
vn 0.0465 0.4836 0.8740
vn 0.0299 0.4023 0.9150
vn -0.1107 -0.9866 -0.1201
vn 0.6617 0.5612 0.4973
vn 0.6729 0.5943 0.4404
vn 0.4736 0.6785 0.5615
vn 0.5216 0.3980 0.7547
vn -0.1437 -0.9893 0.0260
vn 0.7738 0.6186 -0.1360
vn 0.8043 0.4772 -0.3540
vn 0.7308 0.5895 -0.3441
vn 0.8478 0.4317 -0.3080
vn 0.1654 -0.9857 -0.0333
vn -0.7420 0.6704 -0.0067
vn -0.9044 0.4208 -0.0710
vn -0.9094 0.4095 -0.0730
vn -0.9129 0.3450 0.2181
vn 0.1545 -0.9854 -0.0717
vn -0.6926 0.3511 0.6301
vn -0.5329 0.5308 0.6590
vn -0.7150 0.5132 0.4748
vn -0.8000 0.3163 0.5099
vn -0.0721 -0.9829 -0.1694
vn 0.1372 0.5173 0.8448
vn 0.3037 0.3495 0.8864
vn 0.3045 0.3412 0.8893
vn 0.3674 0.3376 0.8667
vn -0.2269 -0.9716 -0.0672
vn 0.7375 0.4542 0.4999
vn 0.6949 0.5408 0.4739
vn 0.8896 0.3083 0.3369
vn 0.8804 0.3472 0.3231
vn -0.2300 -0.9713 0.0604
vn 0.8644 0.4057 -0.2971
vn 0.8491 0.3734 -0.3737
vn 0.7797 0.4932 -0.3859
vn 0.6270 0.3598 -0.6909
vn -0.1418 -0.9790 0.1467
vn 0.3069 0.3044 -0.9018
vn 0.2505 0.5500 -0.7967
vn 0.1801 0.5287 -0.8295
vn 0.3840 0.3733 -0.8445
vn 0.0860 -0.9914 0.0986
vn -0.5935 0.4361 -0.6765
vn -0.5635 0.5525 -0.6142
vn -0.4392 0.4017 -0.8036
vn -0.5652 0.4548 -0.6883
vn 0.3629 -0.9301 0.0562
vn -0.8630 0.4899 -0.1234
vn -0.9696 0.2350 -0.0684
vn -0.8877 0.4378 -0.1428
vn -0.9152 0.3782 -0.1393
vn 0.2676 -0.9316 -0.2460
vn -0.6696 0.2906 0.6836
vn -0.6338 0.4068 0.6579
vn -0.6321 0.3964 0.6658
vn -0.6213 0.4143 0.6650
vn -0.0000 -0.9449 -0.3273
vn 0.1275 0.3180 0.9395
vn 0.1026 0.5533 0.8267
vn 0.1321 0.3423 0.9303
vn 0.1334 0.3522 0.9264
vn -0.3089 -0.9413 -0.1359
vn 0.8011 0.4036 0.4420
vn 0.7870 0.4706 0.3990
vn 0.8202 0.3884 0.4200
vn 0.5788 0.3201 0.7500
vn -0.3239 -0.9432 0.0740
vn 0.7937 0.5468 -0.2667
vn 0.8493 0.4513 -0.2740
vn 0.9501 0.2359 -0.2040
vn 0.8343 0.3108 -0.4554
vn -0.0730 -0.9510 0.3004
vn 0.2214 0.6349 -0.7402
vn 0.2371 0.3588 -0.9028
vn 0.2667 0.2928 -0.9182
vn 0.2581 0.3171 -0.9126
vn 0.2263 -0.9358 0.2702
vn -0.5263 0.4373 -0.7293
vn -0.5475 0.3958 -0.7373
vn -0.5707 0.3131 -0.7591
vn -0.6438 0.3606 -0.6749
vn 0.3241 0.0373 -0.9453
vn 0.9120 0.0104 -0.4101
vn 0.7548 0.0393 0.6548
vn 0.0513 0.0405 0.9979
vn -0.8084 0.0420 0.5871
vn -0.1019 0.9894 -0.1035
vn 0.0605 0.9953 -0.0758
vn 0.0197 0.9992 0.0346
vn -0.1618 0.9745 0.1557
vn -0.9752 0.0303 -0.2195
vn -0.4050 0.0312 -0.9138
vn -0.0886 -0.9950 0.0472
vn 0.0925 -0.9911 -0.0958
vn -0.0534 -0.9985 -0.0136
vn -0.0709 -0.9974 -0.0113
vn -0.5877 0.7623 -0.2712
vn -0.7722 0.5231 -0.3606
vn -0.5942 0.4954 -0.6336
vn -0.8191 0.4245 0.3859
vn -0.6863 0.6408 0.3441
vn -0.6641 0.6844 0.3009
vn -0.0990 0.6362 0.7651
vn -0.2081 0.5947 0.7765
vn -0.2391 0.5853 0.7748
vn 0.4047 0.8738 0.2695
vn 0.6459 0.4203 0.6374
vn 0.4397 0.6924 0.5720
vn 0.5183 0.8550 -0.0176
vn 0.8247 0.5583 -0.0903
vn 0.5847 0.6990 -0.4117
vn 0.4165 0.6763 -0.6076
vn 0.4931 0.5214 -0.6964
vn 0.8033 0.3710 -0.4659
vn -0.1611 0.5988 -0.7846
vn -0.1003 0.5082 -0.8554
vn -0.3114 0.7302 -0.6082
vn -0.1859 0.5656 -0.8034
vn -0.1022 0.5891 -0.8016
vn -0.0626 0.5587 -0.8270
vn -0.4855 0.7894 -0.3758
vn -0.7564 0.5193 -0.3977
vn -0.7621 0.4503 -0.4652
vn -0.6054 0.7446 0.2810
vn -0.7853 0.5609 0.2620
vn -0.8040 0.5291 0.2712
vn -0.2109 0.7207 0.6604
vn -0.3255 0.4163 0.8489
vn -0.1892 0.6914 0.6973
vn 0.4081 0.7254 0.5543
vn 0.4318 0.6913 0.5793
vn 0.6419 0.4267 0.6371
vn 0.7685 0.6240 0.1415
vn 0.6521 0.7556 0.0621
vn 0.9138 0.2959 0.2783
vn 0.5129 0.6814 -0.5222
vn 0.6233 0.6148 -0.4832
vn 0.6836 0.4758 -0.5535
vn 0.3067 0.7490 -0.5872
vn 0.3128 0.5511 -0.7735
vn 0.4685 0.5551 -0.6873
vn -0.2808 0.6701 -0.6871
vn -0.2679 0.4666 -0.8429
vn -0.5502 0.6584 -0.5135
vn -0.7657 0.6319 -0.1202
vn -0.8001 0.5754 -0.1693
vn -0.8718 0.4031 -0.2783
vn -0.5657 0.6139 0.5506
vn -0.5611 0.6224 0.5458
vn -0.4160 0.4900 0.7660
vn -0.0775 0.5369 0.8401
vn -0.0605 0.6921 0.7193
vn -0.0637 0.5461 0.8353
vn 0.6377 0.6479 0.4166
vn 0.6734 0.4726 0.5686
vn 0.5859 0.6198 0.5220
vn 0.8799 0.4055 -0.2477
vn 0.7072 0.6939 -0.1355
vn 0.8175 0.5121 -0.2637
vn -0.8981 0.4131 -0.1510
vn -0.8486 0.5061 -0.1542
vn -0.8431 0.5190 0.1408
vn -0.5064 0.6005 0.6188
vn -0.7427 0.2938 0.6018
vn -0.6925 0.4787 0.5397
vn 0.1227 0.4917 0.8621
vn 0.1183 0.5441 0.8307
vn 0.3649 0.3782 0.8507
vn 0.8227 0.3290 0.4637
vn 0.6931 0.5219 0.4972
vn 0.7159 0.4805 0.5066
vn 0.8404 0.4856 -0.2406
vn 0.8243 0.4860 -0.2903
vn 0.5326 0.6092 -0.5875
vn 0.2706 0.3795 -0.8847
vn 0.1879 0.6133 -0.7671
vn 0.3827 0.4124 -0.8267
vn -0.4308 0.6566 -0.6191
vn -0.4425 0.3887 -0.8082
vn -0.5517 0.4915 -0.6738
vn -0.8646 0.4864 -0.1260
vn -0.9362 0.3231 -0.1380
vn -0.9201 0.3902 -0.0349
vn -0.6470 0.3275 0.6885
vn -0.4919 0.5468 0.6775
vn -0.5133 0.3020 0.8033
vn 0.2464 0.5171 0.8197
vn 0.2526 0.4323 0.8656
vn 0.0846 0.3643 0.9274
vn 0.7172 0.5142 0.4703
vn 0.7572 0.5003 0.4200
vn 0.6575 0.1185 0.7441
vn 0.8025 0.5214 -0.2899
vn 0.9189 0.3567 -0.1686
vn 0.8053 0.3891 -0.4474
vn 0.2748 0.5772 -0.7690
vn 0.2999 0.4415 -0.8457
vn 0.2544 0.2807 -0.9255
vn -0.5313 0.4552 -0.7145
vn -0.5448 0.3928 -0.7409
vn -0.6302 0.3857 -0.6739
vt 0.587500 0.357143
vt 0.550000 0.381886
vt 0.550000 0.332399
vt 0.462500 0.357143
vt 0.425000 0.381886
vt 0.425000 0.332399
vt 0.462500 0.500000
vt 0.425000 0.524744
vt 0.425000 0.475256
vt 0.337500 0.357143
vt 0.300000 0.381886
vt 0.300000 0.332399
s 0
usemtl Palette
f 2/1/1 3/2/1 1/3/1
f 4/1/2 5/2/2 3/3/2
f 6/1/3 7/2/3 5/3/3
f 7/1/4 10/2/4 9/3/4
f 10/1/5 11/2/5 9/3/5
f 2/1/6 12/2/6 8/3/6
f 12/1/7 13/2/7 11/3/7
f 13/1/8 2/2/8 1/3/8
f 5/1/9 9/2/9 13/3/9
f 15/4/10 21/5/10 16/6/10
f 21/7/11 17/8/11 16/9/11
f 17/10/12 23/11/12 18/12/12
f 23/10/13 19/11/13 18/12/13
f 19/7/14 24/8/14 20/9/14
f 15/4/15 25/5/15 21/6/15
f 25/7/16 22/8/16 21/9/16
f 22/10/17 27/11/17 23/12/17
f 23/10/18 28/11/18 24/12/18
f 24/7/19 28/8/19 20/9/19
f 15/4/20 29/5/20 25/6/20
f 29/7/21 26/8/21 25/9/21
f 30/10/22 27/11/22 26/12/22
f 31/10/23 28/11/23 27/12/23
f 28/7/24 32/8/24 20/9/24
f 15/4/25 33/5/25 29/6/25
f 33/7/26 30/8/26 29/9/26
f 30/10/27 35/11/27 31/12/27
f 31/10/28 36/11/28 32/12/28
f 32/7/29 36/8/29 20/9/29
f 15/4/30 37/5/30 33/6/30
f 37/7/31 34/8/31 33/9/31
f 34/10/32 39/11/32 35/12/32
f 39/10/33 36/11/33 35/12/33
f 36/7/34 40/8/34 20/9/34
f 15/4/35 41/5/35 37/6/35
f 41/7/36 38/8/36 37/9/36
f 42/10/37 39/11/37 38/12/37
f 43/10/38 40/11/38 39/12/38
f 40/7/39 44/8/39 20/9/39
f 15/4/40 16/5/40 41/6/40
f 41/7/41 17/8/41 42/9/41
f 17/10/42 43/11/42 42/12/42
f 18/10/43 44/11/43 43/12/43
f 44/7/44 19/8/44 20/9/44
f 45/4/45 51/5/45 46/6/45
f 46/7/46 52/8/46 47/9/46
f 52/10/47 48/11/47 47/12/47
f 53/10/48 49/11/48 48/12/48
f 49/7/49 54/8/49 50/9/49
f 45/4/50 55/5/50 51/6/50
f 51/7/51 56/8/51 52/9/51
f 52/10/52 57/11/52 53/12/52
f 53/10/53 58/11/53 54/12/53
f 54/7/54 58/8/54 50/9/54
f 45/4/55 59/5/55 55/6/55
f 55/7/56 60/8/56 56/9/56
f 60/10/57 57/11/57 56/12/57
f 57/10/58 62/11/58 58/12/58
f 58/7/59 62/8/59 50/9/59
f 45/4/60 63/5/60 59/6/60
f 63/7/61 60/8/61 59/9/61
f 64/10/62 61/11/62 60/12/62
f 65/10/63 62/11/63 61/12/63
f 62/7/64 66/8/64 50/9/64
f 45/4/65 67/5/65 63/6/65
f 67/7/66 64/8/66 63/9/66
f 64/10/67 69/11/67 65/12/67
f 69/10/68 66/11/68 65/12/68
f 66/7/69 70/8/69 50/9/69
f 45/4/70 71/5/70 67/6/70
f 71/7/71 68/8/71 67/9/71
f 72/10/72 69/11/72 68/12/72
f 73/10/73 70/11/73 69/12/73
f 70/7/74 74/8/74 50/9/74
f 45/4/75 46/5/75 71/6/75
f 71/7/76 47/8/76 72/9/76
f 47/10/77 73/11/77 72/12/77
f 73/10/78 49/11/78 74/12/78
f 74/7/79 49/8/79 50/9/79
f 75/4/80 81/5/80 76/6/80
f 76/7/81 82/8/81 77/9/81
f 77/10/82 83/11/82 78/12/82
f 78/10/83 84/11/83 79/12/83
f 79/7/84 84/8/84 80/9/84
f 75/4/85 85/5/85 81/6/85
f 85/7/86 82/8/86 81/9/86
f 86/10/87 83/11/87 82/12/87
f 87/10/88 84/11/88 83/12/88
f 84/7/89 88/8/89 80/9/89
f 75/4/90 89/5/90 85/6/90
f 85/7/91 90/8/91 86/9/91
f 86/10/92 91/11/92 87/12/92
f 91/10/93 88/11/93 87/12/93
f 88/7/94 92/8/94 80/9/94
f 75/4/95 93/5/95 89/6/95
f 93/7/96 90/8/96 89/9/96
f 90/10/97 95/11/97 91/12/97
f 95/10/98 92/11/98 91/12/98
f 92/7/99 96/8/99 80/9/99
f 75/4/100 97/5/100 93/6/100
f 97/7/101 94/8/101 93/9/101
f 98/10/102 95/11/102 94/12/102
f 95/10/103 100/11/103 96/12/103
f 96/7/104 100/8/104 80/9/104
f 75/4/105 101/5/105 97/6/105
f 101/7/106 98/8/106 97/9/106
f 102/10/107 99/11/107 98/12/107
f 99/10/108 104/11/108 100/12/108
f 100/7/109 104/8/109 80/9/109
f 75/4/110 76/5/110 101/6/110
f 101/7/111 77/8/111 102/9/111
f 102/10/112 78/11/112 103/12/112
f 78/10/113 104/11/113 103/12/113
f 104/7/114 79/8/114 80/9/114
f 105/4/115 111/5/115 106/6/115
f 111/7/116 107/8/116 106/9/116
f 107/10/117 113/11/117 108/12/117
f 113/10/118 109/11/118 108/12/118
f 109/7/119 114/8/119 110/9/119
f 105/4/120 115/5/120 111/6/120
f 115/10/121 112/11/121 111/12/121
f 116/10/122 113/11/122 112/12/122
f 113/10/123 118/11/123 114/12/123
f 114/7/124 118/8/124 110/9/124
f 105/4/125 119/5/125 115/6/125
f 119/7/126 116/8/126 115/9/126
f 116/10/127 121/11/127 117/12/127
f 121/10/128 118/11/128 117/12/128
f 118/7/129 122/8/129 110/9/129
f 105/4/130 123/5/130 119/6/130
f 119/10/131 124/11/131 120/12/131
f 124/10/132 121/11/132 120/12/132
f 121/10/133 126/11/133 122/12/133
f 122/7/134 126/8/134 110/9/134
f 105/4/135 127/5/135 123/6/135
f 123/10/136 128/11/136 124/12/136
f 124/10/137 129/11/137 125/12/137
f 129/10/138 126/11/138 125/12/138
f 126/7/139 130/8/139 110/9/139
f 105/4/140 131/5/140 127/6/140
f 131/10/141 128/11/141 127/12/141
f 132/10/142 129/11/142 128/12/142
f 133/10/143 130/11/143 129/12/143
f 130/7/144 134/8/144 110/9/144
f 105/4/145 106/5/145 131/6/145
f 131/7/146 107/8/146 132/9/146
f 107/10/147 133/11/147 132/12/147
f 108/10/148 134/11/148 133/12/148
f 134/7/149 109/8/149 110/9/149
f 135/4/150 141/5/150 136/6/150
f 141/10/151 137/11/151 136/12/151
f 137/10/152 143/11/152 138/12/152
f 138/10/153 144/11/153 139/12/153
f 139/7/154 144/8/154 140/9/154
f 135/4/155 145/5/155 141/6/155
f 145/10/156 142/11/156 141/12/156
f 146/10/157 143/11/157 142/12/157
f 143/10/158 148/11/158 144/12/158
f 144/7/159 148/8/159 140/9/159
f 135/4/160 149/5/160 145/6/160
f 149/10/161 146/11/161 145/12/161
f 146/10/162 151/11/162 147/12/162
f 147/10/163 152/11/163 148/12/163
f 148/7/164 152/8/164 140/9/164
f 135/4/165 153/5/165 149/6/165
f 149/10/166 154/11/166 150/12/166
f 150/10/167 155/11/167 151/12/167
f 155/10/168 152/11/168 151/12/168
f 152/7/169 156/8/169 140/9/169
f 135/4/170 157/5/170 153/6/170
f 153/7/171 158/8/171 154/9/171
f 158/10/172 155/11/172 154/12/172
f 159/10/173 156/11/173 155/12/173
f 156/7/174 160/8/174 140/9/174
f 135/4/175 161/5/175 157/6/175
f 161/7/176 158/8/176 157/9/176
f 158/10/177 163/11/177 159/12/177
f 159/10/178 164/11/178 160/12/178
f 160/7/179 164/8/179 140/9/179
f 135/4/180 136/5/180 161/6/180
f 136/10/181 162/11/181 161/12/181
f 137/10/182 163/11/182 162/12/182
f 138/10/183 164/11/183 163/12/183
f 164/7/184 139/8/184 140/9/184
f 2/1/185 4/2/185 3/3/185
f 4/1/186 6/2/186 5/3/186
f 6/1/187 8/2/187 7/3/187
f 7/1/188 8/2/188 10/3/188
f 10/1/189 12/2/189 11/3/189
f 6/1/190 4/2/190 8/3/190
f 4/1/191 2/2/191 8/3/191
f 2/1/192 14/2/192 12/3/192
f 12/1/193 10/2/193 8/3/193
f 12/1/194 14/2/194 13/3/194
f 13/1/195 14/2/195 2/3/195
f 13/1/196 1/2/196 5/3/196
f 1/1/197 3/2/197 5/3/197
f 5/1/198 7/2/198 9/3/198
f 13/1/199 9/2/199 11/3/199
f 21/7/200 22/8/200 17/9/200
f 17/10/201 22/11/201 23/12/201
f 23/10/202 24/11/202 19/12/202
f 25/7/203 26/8/203 22/9/203
f 22/10/204 26/11/204 27/12/204
f 23/10/205 27/11/205 28/12/205
f 29/7/206 30/8/206 26/9/206
f 30/10/207 31/11/207 27/12/207
f 31/10/208 32/11/208 28/12/208
f 33/7/209 34/8/209 30/9/209
f 30/10/210 34/11/210 35/12/210
f 31/10/211 35/11/211 36/12/211
f 37/7/212 38/8/212 34/9/212
f 34/10/213 38/11/213 39/12/213
f 39/10/214 40/11/214 36/12/214
f 41/7/215 42/8/215 38/9/215
f 42/10/216 43/11/216 39/12/216
f 43/10/217 44/11/217 40/12/217
f 41/7/218 16/8/218 17/9/218
f 17/10/219 18/11/219 43/12/219
f 18/10/220 19/11/220 44/12/220
f 46/7/221 51/8/221 52/9/221
f 52/10/222 53/11/222 48/12/222
f 53/10/223 54/11/223 49/12/223
f 51/7/224 55/8/224 56/9/224
f 52/10/225 56/11/225 57/12/225
f 53/10/226 57/11/226 58/12/226
f 55/7/227 59/8/227 60/9/227
f 60/10/228 61/11/228 57/12/228
f 57/10/229 61/11/229 62/12/229
f 63/7/230 64/8/230 60/9/230
f 64/10/231 65/11/231 61/12/231
f 65/10/232 66/11/232 62/12/232
f 67/7/233 68/8/233 64/9/233
f 64/10/234 68/11/234 69/12/234
f 69/10/235 70/11/235 66/12/235
f 71/7/236 72/8/236 68/9/236
f 72/10/237 73/11/237 69/12/237
f 73/10/238 74/11/238 70/12/238
f 71/7/239 46/8/239 47/9/239
f 47/10/240 48/11/240 73/12/240
f 73/10/241 48/11/241 49/12/241
f 76/7/242 81/8/242 82/9/242
f 77/10/243 82/11/243 83/12/243
f 78/10/244 83/11/244 84/12/244
f 85/7/245 86/8/245 82/9/245
f 86/10/246 87/11/246 83/12/246
f 87/10/247 88/11/247 84/12/247
f 85/7/248 89/8/248 90/9/248
f 86/10/249 90/11/249 91/12/249
f 91/10/250 92/11/250 88/12/250
f 93/7/251 94/8/251 90/9/251
f 90/10/252 94/11/252 95/12/252
f 95/10/253 96/11/253 92/12/253
f 97/7/254 98/8/254 94/9/254
f 98/10/255 99/11/255 95/12/255
f 95/10/256 99/11/256 100/12/256
f 101/7/257 102/8/257 98/9/257
f 102/10/258 103/11/258 99/12/258
f 99/10/259 103/11/259 104/12/259
f 101/7/260 76/8/260 77/9/260
f 102/10/261 77/11/261 78/12/261
f 78/10/262 79/11/262 104/12/262
f 111/7/263 112/8/263 107/9/263
f 107/10/264 112/11/264 113/12/264
f 113/10/265 114/11/265 109/12/265
f 115/10/266 116/11/266 112/12/266
f 116/10/267 117/11/267 113/12/267
f 113/10/268 117/11/268 118/12/268
f 119/7/269 120/8/269 116/9/269
f 116/10/270 120/11/270 121/12/270
f 121/10/271 122/11/271 118/12/271
f 119/10/272 123/11/272 124/12/272
f 124/10/273 125/11/273 121/12/273
f 121/10/274 125/11/274 126/12/274
f 123/10/275 127/11/275 128/12/275
f 124/10/276 128/11/276 129/12/276
f 129/10/277 130/11/277 126/12/277
f 131/10/278 132/11/278 128/12/278
f 132/10/279 133/11/279 129/12/279
f 133/10/280 134/11/280 130/12/280
f 131/7/281 106/8/281 107/9/281
f 107/10/282 108/11/282 133/12/282
f 108/10/283 109/11/283 134/12/283
f 141/10/284 142/11/284 137/12/284
f 137/10/285 142/11/285 143/12/285
f 138/10/286 143/11/286 144/12/286
f 145/10/287 146/11/287 142/12/287
f 146/10/288 147/11/288 143/12/288
f 143/10/289 147/11/289 148/12/289
f 149/10/290 150/11/290 146/12/290
f 146/10/291 150/11/291 151/12/291
f 147/10/292 151/11/292 152/12/292
f 149/10/293 153/11/293 154/12/293
f 150/10/294 154/11/294 155/12/294
f 155/10/295 156/11/295 152/12/295
f 153/7/296 157/8/296 158/9/296
f 158/10/297 159/11/297 155/12/297
f 159/10/298 160/11/298 156/12/298
f 161/7/299 162/8/299 158/9/299
f 158/10/300 162/11/300 163/12/300
f 159/10/301 163/11/301 164/12/301
f 136/10/302 137/11/302 162/12/302
f 137/10/303 138/11/303 163/12/303
f 138/10/304 139/11/304 164/12/304
