# Blender 5.0.1
# www.blender.org
mtllib kicker_small.mtl
o kicker_small
v -7.875000 0.000000 4.000000
v -7.017857 0.017857 4.000000
v -6.160714 0.071429 4.000000
v -5.303572 0.160714 4.000000
v -4.446428 0.285714 4.000000
v -3.589286 0.446429 4.000000
v -2.732143 0.642857 4.000000
v -1.875000 0.875000 4.000000
v -1.017857 1.142857 4.000000
v -0.160714 1.446429 4.000000
v 0.696428 1.785714 4.000000
v 1.553572 2.160714 4.000000
v 2.410714 2.571429 4.000000
v 3.267858 3.017857 4.000000
v 4.125000 3.500000 4.000000
v 4.725000 3.500000 4.000000
v 7.875000 0.000000 4.000000
v -7.875000 0.000000 -4.000000
v -7.017857 0.017857 -4.000000
v -6.160714 0.071429 -4.000000
v -5.303572 0.160714 -4.000000
v -4.446428 0.285714 -4.000000
v -3.589286 0.446429 -4.000000
v -2.732143 0.642857 -4.000000
v -1.875000 0.875000 -4.000000
v -1.017857 1.142857 -4.000000
v -0.160714 1.446429 -4.000000
v 0.696428 1.785714 -4.000000
v 1.553572 2.160714 -4.000000
v 2.410714 2.571429 -4.000000
v 3.267858 3.017857 -4.000000
v 4.125000 3.500000 -4.000000
v 4.725000 3.500000 -4.000000
v 7.875000 0.000000 -4.000000
v 4.175000 3.480000 4.010000
v 4.175000 3.560000 4.010000
v 4.175000 3.480000 -4.010000
v 4.175000 3.560000 -4.010000
v 4.675000 3.480000 4.010000
v 4.675000 3.560000 4.010000
v 4.675000 3.480000 -4.010000
v 4.675000 3.560000 -4.010000
v -7.375000 0.015556 4.010000
v -7.375000 0.075556 4.010000
v -7.375000 0.015556 -4.010000
v -7.375000 0.075556 -4.010000
v -6.775000 0.015556 4.010000
v -6.775000 0.075556 4.010000
v -6.775000 0.015556 -4.010000
v -6.775000 0.075556 -4.010000
v 4.125000 0.000000 4.480000
v 4.125000 5.000000 4.480000
v 4.228923 0.000000 4.540000
v 4.228923 5.000000 4.540000
v 4.228923 0.000000 4.660000
v 4.228923 5.000000 4.660000
v 4.125000 0.000000 4.720000
v 4.125000 5.000000 4.720000
v 4.021077 0.000000 4.660000
v 4.021077 5.000000 4.660000
v 4.021077 0.000000 4.540000
v 4.021077 5.000000 4.540000
v 4.125000 4.000000 4.460000
v 4.125000 5.200000 4.460000
v 4.246243 4.000000 4.530000
v 4.246243 5.200000 4.530000
v 4.246243 4.000000 4.670000
v 4.246243 5.200000 4.670000
v 4.125000 4.000000 4.740000
v 4.125000 5.200000 4.740000
v 4.003757 4.000000 4.670000
v 4.003757 5.200000 4.670000
v 4.003757 4.000000 4.530000
v 4.003757 5.200000 4.530000
v 4.125000 0.000000 -4.720000
v 4.125000 5.000000 -4.720000
v 4.228923 0.000000 -4.660000
v 4.228923 5.000000 -4.660000
v 4.228923 0.000000 -4.540000
v 4.228923 5.000000 -4.540000
v 4.125000 0.000000 -4.480000
v 4.125000 5.000000 -4.480000
v 4.021077 0.000000 -4.540000
v 4.021077 5.000000 -4.540000
v 4.021077 0.000000 -4.660000
v 4.021077 5.000000 -4.660000
v 4.125000 4.000000 -4.740000
v 4.125000 5.200000 -4.740000
v 4.246243 4.000000 -4.670000
v 4.246243 5.200000 -4.670000
v 4.246243 4.000000 -4.530000
v 4.246243 5.200000 -4.530000
v 4.125000 4.000000 -4.460000
v 4.125000 5.200000 -4.460000
v 4.003757 4.000000 -4.530000
v 4.003757 5.200000 -4.530000
v 4.003757 4.000000 -4.670000
v 4.003757 5.200000 -4.670000
vn -0.0000 -0.0000 1.0000
vn -0.0000 -0.0000 -1.0000
vn -0.0208 0.9998 -0.0000
vn -0.0624 0.9981 -0.0000
vn -0.1036 0.9946 -0.0000
vn -0.1443 0.9895 -0.0000
vn -0.1843 0.9829 -0.0000
vn -0.2234 0.9747 -0.0000
vn -0.2614 0.9652 -0.0000
vn -0.2983 0.9545 -0.0000
vn -0.3338 0.9426 -0.0000
vn -0.3680 0.9298 -0.0000
vn -0.4008 0.9162 -0.0000
vn -0.4321 0.9018 -0.0000
vn -0.4619 0.8869 -0.0000
vn -0.4903 0.8716 -0.0000
vn -0.0000 1.0000 -0.0000
vn 0.7433 0.6690 -0.0000
vn -0.0000 -1.0000 -0.0000
vn -1.0000 -0.0000 -0.0000
vn 1.0000 -0.0000 -0.0000
vn 0.5000 -0.0000 -0.8660
vn 0.5000 -0.0000 0.8660
vn -0.5000 -0.0000 0.8660
vn -0.5000 -0.0000 -0.8660
vt 0.587500 0.500000
vt 0.550000 0.524744
vt 0.550000 0.475256
vt 0.462500 0.500000
vt 0.425000 0.524744
vt 0.425000 0.475256
vt 0.837500 0.071429
vt 0.800000 0.096172
vt 0.800000 0.046685
vt 0.587500 0.357143
vt 0.550000 0.381886
vt 0.550000 0.332399
s 0
usemtl Palette
f 17/1/1 9/2/1 8/3/1
f 34/1/2 25/2/2 26/3/2
f 2/4/3 18/5/3 1/6/3
f 3/4/4 19/5/4 2/6/4
f 4/4/5 20/5/5 3/6/5
f 5/4/6 21/5/6 4/6/6
f 6/4/7 22/5/7 5/6/7
f 7/4/8 23/5/8 6/6/8
f 8/4/9 24/5/9 7/6/9
f 9/4/10 25/5/10 8/6/10
f 10/4/11 26/5/11 9/6/11
f 11/4/12 27/5/12 10/6/12
f 12/4/13 28/5/13 11/6/13
f 13/4/14 29/5/14 12/6/14
f 14/4/15 30/5/15 13/6/15
f 15/4/16 31/5/16 14/6/16
f 16/4/17 32/5/17 15/6/17
f 17/4/18 33/5/18 16/6/18
f 1/4/19 34/5/19 17/6/19
f 36/7/20 37/8/20 35/9/20
f 38/7/2 41/8/2 37/9/2
f 42/7/21 39/8/21 41/9/21
f 40/7/1 35/8/1 39/9/1
f 41/7/19 35/8/19 37/9/19
f 38/7/17 40/8/17 42/9/17
f 44/7/20 45/8/20 43/9/20
f 46/7/2 49/8/2 45/9/2
f 50/7/21 47/8/21 49/9/21
f 48/7/1 43/8/1 47/9/1
f 49/7/19 43/8/19 45/9/19
f 46/7/17 48/8/17 50/9/17
f 52/10/22 53/11/22 51/12/22
f 54/10/21 55/11/21 53/12/21
f 56/10/23 57/11/23 55/12/23
f 58/10/24 59/11/24 57/12/24
f 60/10/17 58/11/17 56/12/17
f 60/10/20 61/11/20 59/12/20
f 62/10/25 51/11/25 61/12/25
f 59/10/19 61/11/19 53/12/19
f 64/7/22 65/8/22 63/9/22
f 66/7/21 67/8/21 65/9/21
f 68/7/23 69/8/23 67/9/23
f 70/7/24 71/8/24 69/9/24
f 70/7/17 68/8/17 64/9/17
f 72/7/20 73/8/20 71/9/20
f 74/7/25 63/8/25 73/9/25
f 69/7/19 71/8/19 73/9/19
f 76/10/22 77/11/22 75/12/22
f 78/10/21 79/11/21 77/12/21
f 80/10/23 81/11/23 79/12/23
f 82/10/24 83/11/24 81/12/24
f 84/10/17 82/11/17 80/12/17
f 84/10/20 85/11/20 83/12/20
f 86/10/25 75/11/25 85/12/25
f 83/10/19 85/11/19 77/12/19
f 88/7/22 89/8/22 87/9/22
f 90/7/21 91/8/21 89/9/21
f 92/7/23 93/8/23 91/9/23
f 94/7/24 95/8/24 93/9/24
f 94/7/17 92/8/17 88/9/17
f 96/7/20 97/8/20 95/9/20
f 98/7/25 87/8/25 97/9/25
f 93/7/19 95/8/19 97/9/19
f 2/1/1 1/2/1 17/3/1
f 17/1/1 16/2/1 14/3/1
f 16/1/1 15/2/1 14/3/1
f 3/1/1 2/2/1 17/3/1
f 4/1/1 3/2/1 17/3/1
f 17/1/1 14/2/1 13/3/1
f 17/1/1 13/2/1 12/3/1
f 5/1/1 4/2/1 17/3/1
f 6/1/1 5/2/1 17/3/1
f 17/1/1 12/2/1 11/3/1
f 17/1/1 11/2/1 10/3/1
f 7/1/1 6/2/1 17/3/1
f 8/1/1 7/2/1 17/3/1
f 17/1/1 10/2/1 9/3/1
f 34/1/2 18/2/2 19/3/2
f 34/1/2 19/2/2 20/3/2
f 32/1/2 33/2/2 31/3/2
f 33/1/2 34/2/2 31/3/2
f 34/1/2 20/2/2 21/3/2
f 34/1/2 21/2/2 22/3/2
f 30/1/2 31/2/2 34/3/2
f 29/1/2 30/2/2 34/3/2
f 34/1/2 22/2/2 23/3/2
f 34/1/2 23/2/2 24/3/2
f 28/1/2 29/2/2 34/3/2
f 27/1/2 28/2/2 34/3/2
f 34/1/2 24/2/2 25/3/2
f 26/1/2 27/2/2 34/3/2
f 2/4/3 19/5/3 18/6/3
f 3/4/4 20/5/4 19/6/4
f 4/4/5 21/5/5 20/6/5
f 5/4/6 22/5/6 21/6/6
f 6/4/7 23/5/7 22/6/7
f 7/4/8 24/5/8 23/6/8
f 8/4/9 25/5/9 24/6/9
f 9/4/10 26/5/10 25/6/10
f 10/4/11 27/5/11 26/6/11
f 11/4/12 28/5/12 27/6/12
f 12/4/13 29/5/13 28/6/13
f 13/4/14 30/5/14 29/6/14
f 14/4/15 31/5/15 30/6/15
f 15/4/16 32/5/16 31/6/16
f 16/4/17 33/5/17 32/6/17
f 17/4/18 34/5/18 33/6/18
f 1/4/19 18/5/19 34/6/19
f 36/7/20 38/8/20 37/9/20
f 38/7/2 42/8/2 41/9/2
f 42/7/21 40/8/21 39/9/21
f 40/7/1 36/8/1 35/9/1
f 41/7/19 39/8/19 35/9/19
f 38/7/17 36/8/17 40/9/17
f 44/7/20 46/8/20 45/9/20
f 46/7/2 50/8/2 49/9/2
f 50/7/21 48/8/21 47/9/21
f 48/7/1 44/8/1 43/9/1
f 49/7/19 47/8/19 43/9/19
f 46/7/17 44/8/17 48/9/17
f 52/10/22 54/11/22 53/12/22
f 54/10/21 56/11/21 55/12/21
f 56/10/23 58/11/23 57/12/23
f 58/10/24 60/11/24 59/12/24
f 56/10/17 54/11/17 60/12/17
f 54/10/17 52/11/17 60/12/17
f 52/10/17 62/11/17 60/12/17
f 60/10/20 62/11/20 61/12/20
f 62/10/25 52/11/25 51/12/25
f 61/10/19 51/11/19 53/12/19
f 53/10/19 55/11/19 57/12/19
f 57/10/19 59/11/19 53/12/19
f 64/7/22 66/8/22 65/9/22
f 66/7/21 68/8/21 67/9/21
f 68/7/23 70/8/23 69/9/23
f 70/7/24 72/8/24 71/9/24
f 68/7/17 66/8/17 64/9/17
f 64/7/17 74/8/17 72/9/17
f 72/7/17 70/8/17 64/9/17
f 72/7/20 74/8/20 73/9/20
f 74/7/25 64/8/25 63/9/25
f 73/7/19 63/8/19 69/9/19
f 63/7/19 65/8/19 69/9/19
f 65/7/19 67/8/19 69/9/19
f 76/10/22 78/11/22 77/12/22
f 78/10/21 80/11/21 79/12/21
f 80/10/23 82/11/23 81/12/23
f 82/10/24 84/11/24 83/12/24
f 80/10/17 78/11/17 84/12/17
f 78/10/17 76/11/17 84/12/17
f 76/10/17 86/11/17 84/12/17
f 84/10/20 86/11/20 85/12/20
f 86/10/25 76/11/25 75/12/25
f 85/10/19 75/11/19 77/12/19
f 77/10/19 79/11/19 81/12/19
f 81/10/19 83/11/19 77/12/19
f 88/7/22 90/8/22 89/9/22
f 90/7/21 92/8/21 91/9/21
f 92/7/23 94/8/23 93/9/23
f 94/7/24 96/8/24 95/9/24
f 92/7/17 90/8/17 88/9/17
f 88/7/17 98/8/17 96/9/17
f 96/7/17 94/8/17 88/9/17
f 96/7/20 98/8/20 97/9/20
f 98/7/25 88/8/25 87/9/25
f 97/7/19 87/8/19 93/9/19
f 87/7/19 89/8/19 93/9/19
f 89/7/19 91/8/19 93/9/19
