# Blender 5.0.1
# www.blender.org
mtllib bench.mtl
o bench
v -2.960000 1.515987 0.984572
v -2.960000 1.555987 1.024572
v -3.000000 1.555987 0.984572
v -2.960000 1.655987 1.024572
v -2.960000 1.695987 0.984572
v -3.000000 1.655987 0.984572
v -2.960000 1.515987 0.644572
v -3.000000 1.555987 0.644572
v -2.960000 1.555987 0.604572
v -2.960000 1.695987 0.644572
v -2.960000 1.655987 0.604572
v -3.000000 1.655987 0.644572
v 2.960000 1.515987 0.984572
v 3.000000 1.555987 0.984572
v 2.960000 1.555987 1.024572
v 2.960000 1.695987 0.984572
v 2.960000 1.655987 1.024572
v 3.000000 1.655987 0.984572
v 2.960000 1.515987 0.644572
v 2.960000 1.555987 0.604572
v 3.000000 1.555987 0.644572
v 2.960000 1.695987 0.644572
v 3.000000 1.655987 0.644572
v 2.960000 1.655987 0.604572
v -2.960000 1.515987 0.524572
v -2.960000 1.555987 0.564572
v -3.000000 1.555987 0.524572
v -2.960000 1.655987 0.564572
v -2.960000 1.695987 0.524572
v -3.000000 1.655987 0.524572
v -2.960000 1.515987 0.184572
v -3.000000 1.555987 0.184572
v -2.960000 1.555987 0.144572
v -2.960000 1.695987 0.184572
v -2.960000 1.655987 0.144572
v -3.000000 1.655987 0.184572
v 2.960000 1.515987 0.524572
v 3.000000 1.555987 0.524572
v 2.960000 1.555987 0.564572
v 2.960000 1.695987 0.524572
v 2.960000 1.655987 0.564572
v 3.000000 1.655987 0.524572
v 2.960000 1.515987 0.184572
v 2.960000 1.555987 0.144572
v 3.000000 1.555987 0.184572
v 2.960000 1.695987 0.184572
v 3.000000 1.655987 0.184572
v 2.960000 1.655987 0.144572
v -2.960000 1.515987 0.064572
v -2.960000 1.555987 0.104572
v -3.000000 1.555987 0.064572
v -2.960000 1.655987 0.104572
v -2.960000 1.695987 0.064572
v -3.000000 1.655987 0.064572
v -2.960000 1.515987 -0.275428
v -3.000000 1.555987 -0.275428
v -2.960000 1.555987 -0.315428
v -2.960000 1.695987 -0.275428
v -2.960000 1.655987 -0.315428
v -3.000000 1.655987 -0.275428
v 2.960000 1.515987 0.064572
v 3.000000 1.555987 0.064572
v 2.960000 1.555987 0.104572
v 2.960000 1.695987 0.064572
v 2.960000 1.655987 0.104572
v 3.000000 1.655987 0.064572
v 2.960000 1.515987 -0.275428
v 2.960000 1.555987 -0.315428
v 3.000000 1.555987 -0.275428
v 2.960000 1.695987 -0.275428
v 3.000000 1.655987 -0.275428
v 2.960000 1.655987 -0.315428
v -2.960000 1.515987 -0.395428
v -2.960000 1.555987 -0.355428
v -3.000000 1.555987 -0.395428
v -2.960000 1.655987 -0.355428
v -2.960000 1.695987 -0.395428
v -3.000000 1.655987 -0.395428
v -2.960000 1.515987 -0.735428
v -3.000000 1.555987 -0.735428
v -2.960000 1.555987 -0.775428
v -2.960000 1.695987 -0.735428
v -2.960000 1.655987 -0.775428
v -3.000000 1.655987 -0.735428
v 2.960000 1.515987 -0.395428
v 3.000000 1.555987 -0.395428
v 2.960000 1.555987 -0.355428
v 2.960000 1.695987 -0.395428
v 2.960000 1.655987 -0.355428
v 3.000000 1.655987 -0.395428
v 2.960000 1.515987 -0.735428
v 2.960000 1.555987 -0.775428
v 3.000000 1.555987 -0.735428
v 2.960000 1.695987 -0.735428
v 3.000000 1.655987 -0.735428
v 2.960000 1.655987 -0.775428
v -2.960000 1.914235 -0.771154
v -2.960000 1.960573 -0.738708
v -3.000000 1.953627 -0.778100
v -2.960000 2.275711 -0.794275
v -2.960000 2.308158 -0.840613
v -3.000000 2.268765 -0.833667
v -2.960000 1.903816 -0.830243
v -3.000000 1.943208 -0.837188
v -2.960000 1.936262 -0.876581
v -2.960000 2.297739 -0.899702
v -2.960000 2.251400 -0.932148
v -3.000000 2.258347 -0.892756
v 2.960000 1.914235 -0.771154
v 3.000000 1.953627 -0.778100
v 2.960000 1.960573 -0.738708
v 2.960000 2.308158 -0.840613
v 2.960000 2.275711 -0.794275
v 3.000000 2.268765 -0.833667
v 2.960000 1.903816 -0.830243
v 2.960000 1.936262 -0.876581
v 3.000000 1.943208 -0.837188
v 2.960000 2.297739 -0.899702
v 3.000000 2.258347 -0.892756
v 2.960000 2.251400 -0.932148
v -2.960000 2.414235 -0.771154
v -2.960000 2.460573 -0.738708
v -3.000000 2.453627 -0.778100
v -2.960000 2.775711 -0.794275
v -2.960000 2.808158 -0.840613
v -3.000000 2.768765 -0.833667
v -2.960000 2.403816 -0.830243
v -3.000000 2.443208 -0.837188
v -2.960000 2.436262 -0.876581
v -2.960000 2.797739 -0.899702
v -2.960000 2.751400 -0.932148
v -3.000000 2.758347 -0.892756
v 2.960000 2.414235 -0.771154
v 3.000000 2.453627 -0.778100
v 2.960000 2.460573 -0.738708
v 2.960000 2.808158 -0.840613
v 2.960000 2.775711 -0.794275
v 3.000000 2.768765 -0.833667
v 2.960000 2.403816 -0.830243
v 2.960000 2.436262 -0.876581
v 3.000000 2.443208 -0.837188
v 2.960000 2.797739 -0.899702
v 3.000000 2.758347 -0.892756
v 2.960000 2.751400 -0.932148
v -2.960000 2.914235 -0.771154
v -2.960000 2.960573 -0.738708
v -3.000000 2.953627 -0.778100
v -2.960000 3.275711 -0.794275
v -2.960000 3.308158 -0.840613
v -3.000000 3.268765 -0.833667
v -2.960000 2.903816 -0.830243
v -3.000000 2.943208 -0.837188
v -2.960000 2.936262 -0.876581
v -2.960000 3.297739 -0.899702
v -2.960000 3.251400 -0.932148
v -3.000000 3.258347 -0.892756
v 2.960000 2.914235 -0.771154
v 3.000000 2.953627 -0.778100
v 2.960000 2.960573 -0.738708
v 2.960000 3.308158 -0.840613
v 2.960000 3.275711 -0.794275
v 3.000000 3.268765 -0.833667
v 2.960000 2.903816 -0.830243
v 2.960000 2.936262 -0.876581
v 3.000000 2.943208 -0.837188
v 2.960000 3.297739 -0.899702
v 3.000000 3.258347 -0.892756
v 2.960000 3.251400 -0.932148
v -2.500000 0.000000 0.724771
v -2.500000 1.500000 0.624771
v -2.422058 0.002993 0.769672
v -2.422058 1.502993 0.669672
v -2.422058 0.008980 0.859472
v -2.422058 1.508980 0.759472
v -2.500000 0.011974 0.904373
v -2.500000 1.511974 0.804373
v -2.577942 0.008980 0.859472
v -2.577942 1.508980 0.759472
v -2.577942 0.002993 0.769672
v -2.577942 1.502993 0.669672
v -2.500000 1.415987 0.714572
v -2.500000 1.415987 -0.685428
v -2.422057 1.460987 0.714572
v -2.422057 1.460987 -0.685428
v -2.422057 1.550987 0.714572
v -2.422057 1.550987 -0.685428
v -2.500000 1.595987 0.714572
v -2.500000 1.595987 -0.685428
v -2.577942 1.550987 0.714572
v -2.577942 1.550987 -0.685428
v -2.577942 1.460987 0.714572
v -2.577942 1.460987 -0.685428
v -2.500000 1.500000 -0.595628
v -2.500000 0.000000 -0.695627
v -2.422057 1.502994 -0.640528
v -2.422057 0.002993 -0.740528
v -2.422057 1.508980 -0.730329
v -2.422057 0.008980 -0.830328
v -2.500000 1.511974 -0.775229
v -2.500000 0.011973 -0.875229
v -2.577942 1.508980 -0.730329
v -2.577942 0.008980 -0.830328
v -2.577942 1.502994 -0.640528
v -2.577942 0.002993 -0.740528
v -2.500000 1.569627 0.650932
v -2.500000 1.505987 0.624572
v -2.500000 1.442347 0.650932
v -2.444886 1.569627 0.682752
v -2.422057 1.505987 0.669572
v -2.444886 1.442347 0.682752
v -2.444886 1.569627 0.746392
v -2.422057 1.505987 0.759572
v -2.444886 1.442347 0.746392
v -2.500000 1.569627 0.778212
v -2.500000 1.505987 0.804572
v -2.500000 1.442347 0.778212
v -2.555113 1.569627 0.746392
v -2.577942 1.505987 0.759572
v -2.555113 1.442347 0.746392
v -2.555113 1.569627 0.682752
v -2.577942 1.505987 0.669572
v -2.555113 1.442347 0.682752
v -2.500000 1.569627 -0.749068
v -2.500000 1.505987 -0.775428
v -2.500000 1.442347 -0.749068
v -2.444886 1.569626 -0.717248
v -2.422057 1.505987 -0.730428
v -2.444886 1.442347 -0.717248
v -2.444886 1.569626 -0.653608
v -2.422057 1.505987 -0.640428
v -2.444886 1.442347 -0.653608
v -2.500000 1.569626 -0.621789
v -2.500000 1.505987 -0.595428
v -2.500000 1.442347 -0.621789
v -2.555113 1.569626 -0.653608
v -2.577942 1.505987 -0.640428
v -2.555113 1.442347 -0.653608
v -2.555113 1.569626 -0.717248
v -2.577942 1.505987 -0.730428
v -2.555113 1.442347 -0.717248
v -2.500000 1.493606 -0.774572
v -2.500000 3.293606 -1.024572
v -2.422058 1.499796 -0.730000
v -2.422058 3.299796 -0.980000
v -2.422058 1.512177 -0.640856
v -2.422058 3.312177 -0.890856
v -2.500000 1.518368 -0.596284
v -2.500000 3.318368 -0.846284
v -2.577942 1.512177 -0.640856
v -2.577942 3.312177 -0.890856
v -2.577942 1.499796 -0.730000
v -2.577942 3.299796 -0.980000
v 2.500000 0.000000 0.724771
v 2.500000 1.500000 0.624771
v 2.577942 0.002993 0.769672
v 2.577942 1.502993 0.669672
v 2.577942 0.008980 0.859472
v 2.577942 1.508980 0.759472
v 2.500000 0.011974 0.904373
v 2.500000 1.511974 0.804373
v 2.422058 0.008980 0.859472
v 2.422058 1.508980 0.759472
v 2.422058 0.002993 0.769672
v 2.422058 1.502993 0.669672
v 2.500000 1.415987 -0.685428
v 2.577942 1.460987 0.714572
v 2.577942 1.460987 -0.685428
v 2.577942 1.550987 0.714572
v 2.577942 1.550987 -0.685428
v 2.500000 1.595987 0.714572
v 2.500000 1.595987 -0.685428
v 2.422057 1.550987 0.714572
v 2.422057 1.550987 -0.685428
v 2.422057 1.460987 0.714572
v 2.422057 1.460987 -0.685428
v 2.500000 1.500000 -0.595628
v 2.500000 0.000000 -0.695627
v 2.577942 1.502994 -0.640528
v 2.577942 0.002993 -0.740528
v 2.577942 1.508980 -0.730329
v 2.577942 0.008980 -0.830328
v 2.500000 1.511974 -0.775229
v 2.500000 0.011973 -0.875229
v 2.422057 1.508980 -0.730329
v 2.422057 0.008980 -0.830328
v 2.422057 1.502994 -0.640528
v 2.422057 0.002993 -0.740528
v 2.500000 1.569627 0.650932
v 2.500000 1.505987 0.624572
v 2.500000 1.442347 0.650932
v 2.500000 1.415987 0.714572
v 2.555113 1.569627 0.682752
v 2.577942 1.505987 0.669572
v 2.555113 1.442347 0.682752
v 2.555113 1.569627 0.746392
v 2.577942 1.505987 0.759572
v 2.555113 1.442347 0.746392
v 2.500000 1.569627 0.778212
v 2.500000 1.505987 0.804572
v 2.500000 1.442347 0.778212
v 2.444886 1.569627 0.746392
v 2.422057 1.505987 0.759572
v 2.444886 1.442347 0.746392
v 2.444886 1.569627 0.682752
v 2.422057 1.505987 0.669572
v 2.444886 1.442347 0.682752
v 2.500000 1.569627 -0.749068
v 2.500000 1.505987 -0.775428
v 2.500000 1.442347 -0.749068
v 2.555113 1.569626 -0.717248
v 2.577942 1.505987 -0.730428
v 2.555113 1.442347 -0.717248
v 2.555113 1.569626 -0.653608
v 2.577942 1.505987 -0.640428
v 2.555113 1.442347 -0.653608
v 2.500000 1.569626 -0.621789
v 2.500000 1.505987 -0.595428
v 2.500000 1.442347 -0.621789
v 2.444886 1.569626 -0.653608
v 2.422057 1.505987 -0.640428
v 2.444886 1.442347 -0.653608
v 2.444886 1.569626 -0.717248
v 2.422057 1.505987 -0.730428
v 2.444886 1.442347 -0.717248
v 2.500000 1.493606 -0.774572
v 2.500000 3.293606 -1.024572
v 2.577942 1.499796 -0.730000
v 2.577942 3.299796 -0.980000
v 2.577942 1.512177 -0.640856
v 2.577942 3.312177 -0.890856
v 2.500000 1.518368 -0.596284
v 2.500000 3.318368 -0.846284
v 2.422058 1.512177 -0.640856
v 2.422058 3.312177 -0.890856
v 2.422058 1.499796 -0.730000
v 2.422058 3.299796 -0.980000
v -2.450000 1.685987 0.764572
v -2.450000 1.735987 0.814572
v -2.500000 1.735987 0.764572
v -2.450000 1.755987 0.814572
v -2.450000 1.805987 0.764572
v -2.500000 1.755987 0.764572
v -2.450000 1.685987 -0.535428
v -2.500000 1.735987 -0.535428
v -2.450000 1.735987 -0.585428
v -2.450000 1.805987 -0.535428
v -2.450000 1.755987 -0.585428
v -2.500000 1.755987 -0.535428
v 2.850000 1.685987 0.764572
v 2.900000 1.735987 0.764572
v 2.850000 1.735987 0.814572
v 2.850000 1.805987 0.764572
v 2.850000 1.755987 0.814572
v 2.900000 1.755987 0.764572
v 2.850000 1.685987 -0.535428
v 2.850000 1.735987 -0.585428
v 2.900000 1.735987 -0.535428
v 2.850000 1.805987 -0.535428
v 2.900000 1.755987 -0.535428
v 2.850000 1.755987 -0.585428
vn -0.5773 -0.5773 0.5774
vn -0.5774 0.5773 0.5774
vn -0.5773 -0.5773 -0.5774
vn -0.5773 0.5773 -0.5774
vn 0.5773 -0.5773 0.5774
vn 0.5774 0.5773 0.5774
vn 0.5773 -0.5773 -0.5774
vn 0.5773 0.5773 -0.5774
vn -0.7071 -0.7071 -0.0000
vn -0.7071 -0.0000 0.7071
vn -0.7071 0.7071 -0.0000
vn -0.7071 -0.0000 -0.7071
vn -0.0000 -0.7071 -0.7071
vn -0.0000 0.7071 -0.7071
vn 0.7071 -0.0000 -0.7071
vn 0.7071 -0.7071 -0.0000
vn 0.7071 0.7071 -0.0000
vn 0.7071 -0.0000 0.7071
vn -0.0000 -0.7071 0.7071
vn -0.0000 0.7071 0.7071
vn -0.0000 -1.0000 -0.0000
vn -1.0000 -0.0000 -0.0000
vn -0.0000 -0.0000 1.0000
vn -0.0000 1.0000 -0.0000
vn -0.0000 -0.0000 -1.0000
vn 1.0000 -0.0000 -0.0000
vn -0.5773 0.5773 0.5774
vn 0.5773 0.5773 0.5774
vn -0.5774 0.5773 -0.5774
vn 0.5774 0.5773 -0.5774
vn -0.5773 -0.4683 0.6688
vn -0.5774 0.6688 0.4683
vn -0.5774 -0.6688 -0.4683
vn -0.5773 0.4683 -0.6688
vn 0.5773 -0.4683 0.6688
vn 0.5774 0.6688 0.4683
vn 0.5774 -0.6688 -0.4683
vn 0.5773 0.4683 -0.6688
vn -0.7071 -0.6964 0.1228
vn -0.7071 0.1228 0.6964
vn -0.7071 0.6964 -0.1228
vn -0.7071 -0.1228 -0.6964
vn -0.0000 -0.8192 -0.5736
vn -0.0000 0.5736 -0.8192
vn 0.7071 -0.1228 -0.6964
vn 0.7071 -0.6964 0.1228
vn 0.7071 0.6964 -0.1228
vn 0.7071 0.1228 0.6964
vn -0.0000 -0.5736 0.8192
vn -0.0000 0.8192 0.5736
vn -0.0000 -0.9848 0.1736
vn -0.0000 0.1736 0.9848
vn -0.0000 0.9848 -0.1736
vn -0.0000 -0.1736 -0.9848
vn -0.5773 -0.6688 -0.4683
vn 0.5773 -0.6688 -0.4683
vn -0.5774 0.4683 -0.6688
vn 0.5774 0.4683 -0.6688
vn 0.5000 -0.0576 -0.8641
vn 0.5000 0.0576 0.8641
vn -0.5000 0.0576 0.8641
vn -0.0000 0.9978 -0.0665
vn -0.5000 -0.0576 -0.8641
vn -0.0000 -0.9978 0.0665
vn 0.5000 -0.8660 -0.0000
vn 0.5000 0.8660 -0.0000
vn -0.5000 0.8660 -0.0000
vn -0.5000 -0.8660 -0.0000
vn 0.5000 -0.0576 0.8641
vn 0.5000 0.0576 -0.8641
vn -0.5000 0.0576 -0.8641
vn -0.0000 -0.9978 -0.0665
vn -0.5000 -0.0576 0.8641
vn -0.0000 0.9978 0.0665
vn 0.4706 -0.3377 -0.8152
vn 0.2157 0.9021 -0.3737
vn 0.2157 -0.9021 -0.3737
vn 0.4706 0.3377 -0.8152
vn 0.4315 0.9021 -0.0000
vn 0.4315 -0.9021 -0.0000
vn 0.9413 0.3377 -0.0000
vn 0.9413 -0.3377 -0.0000
vn 0.4706 -0.3377 0.8152
vn 0.2157 0.9021 0.3737
vn 0.2157 -0.9021 0.3737
vn 0.4706 0.3377 0.8152
vn -0.4706 -0.3377 0.8152
vn -0.2157 0.9021 0.3737
vn -0.2157 -0.9021 0.3737
vn -0.4706 0.3377 0.8152
vn -0.9413 -0.3377 -0.0000
vn -0.4315 0.9021 -0.0000
vn -0.4315 -0.9021 -0.0000
vn -0.9413 0.3377 -0.0000
vn -0.4706 -0.3377 -0.8152
vn -0.2157 0.9021 -0.3737
vn -0.2157 -0.9021 -0.3737
vn -0.4706 0.3377 -0.8152
vn 0.4706 0.3376 -0.8152
vn 0.4706 0.3376 0.8152
vn -0.4706 0.3376 0.8152
vn 0.5000 -0.1191 -0.8578
vn 0.5000 0.1191 0.8578
vn -0.5000 0.1191 0.8578
vn -0.0000 0.9905 -0.1376
vn -0.5000 -0.1191 -0.8578
vn -0.0000 -0.9905 0.1376
vn -0.5774 -0.5774 0.5773
vn -0.5774 0.5774 0.5773
vn -0.5774 -0.5774 -0.5773
vn -0.5774 0.5774 -0.5773
vn 0.5774 -0.5774 0.5774
vn 0.5774 0.5774 0.5774
vn 0.5773 -0.5774 -0.5774
vn 0.5773 0.5774 -0.5774
vn 0.4706 -0.3376 -0.8152
vn 0.4706 -0.3376 0.8152
vn -0.4706 -0.3376 0.8152
vt 0.712500 0.357143
vt 0.675000 0.381886
vt 0.675000 0.332399
vt 0.462500 0.071429
vt 0.425000 0.096172
vt 0.425000 0.046685
vt 0.462500 0.500000
vt 0.425000 0.524744
vt 0.425000 0.475256
s 0
usemtl Palette
f 1/1/1 2/2/1 3/3/1
f 4/1/2 5/2/2 6/3/2
f 7/1/3 8/2/3 9/3/3
f 10/1/4 11/2/4 12/3/4
f 13/1/5 14/2/5 15/3/5
f 16/1/6 17/2/6 18/3/6
f 19/1/7 20/2/7 21/3/7
f 22/1/8 23/2/8 24/3/8
f 1/1/9 8/2/9 7/3/9
f 4/1/10 3/2/10 2/3/10
f 10/1/11 6/2/11 5/3/11
f 9/1/12 12/2/12 11/3/12
f 7/1/13 20/2/13 19/3/13
f 22/1/14 11/2/14 10/3/14
f 21/1/15 24/2/15 23/3/15
f 19/1/16 14/2/16 13/3/16
f 16/1/17 23/2/17 22/3/17
f 15/1/18 18/2/18 17/3/18
f 13/1/19 2/2/19 1/3/19
f 5/1/20 17/2/20 16/3/20
f 19/1/21 1/2/21 7/3/21
f 6/1/22 8/2/22 3/3/22
f 17/1/23 2/2/23 15/3/23
f 10/1/24 16/2/24 22/3/24
f 11/1/25 20/2/25 9/3/25
f 23/1/26 14/2/26 21/3/26
f 25/1/1 26/2/1 27/3/1
f 28/1/27 29/2/27 30/3/27
f 31/1/3 32/2/3 33/3/3
f 34/1/4 35/2/4 36/3/4
f 37/1/5 38/2/5 39/3/5
f 40/1/28 41/2/28 42/3/28
f 43/1/7 44/2/7 45/3/7
f 46/1/8 47/2/8 48/3/8
f 25/1/9 32/2/9 31/3/9
f 28/1/10 27/2/10 26/3/10
f 34/1/11 30/2/11 29/3/11
f 33/1/12 36/2/12 35/3/12
f 31/1/13 44/2/13 43/3/13
f 46/1/14 35/2/14 34/3/14
f 45/1/15 48/2/15 47/3/15
f 43/1/16 38/2/16 37/3/16
f 40/1/17 47/2/17 46/3/17
f 39/1/18 42/2/18 41/3/18
f 37/1/19 26/2/19 25/3/19
f 29/1/20 41/2/20 40/3/20
f 43/1/21 25/2/21 31/3/21
f 30/1/22 32/2/22 27/3/22
f 41/1/23 26/2/23 39/3/23
f 34/1/24 40/2/24 46/3/24
f 35/1/25 44/2/25 33/3/25
f 47/1/26 38/2/26 45/3/26
f 49/1/1 50/2/1 51/3/1
f 52/1/27 53/2/27 54/3/27
f 55/1/3 56/2/3 57/3/3
f 58/1/29 59/2/29 60/3/29
f 61/1/5 62/2/5 63/3/5
f 64/1/28 65/2/28 66/3/28
f 67/1/7 68/2/7 69/3/7
f 70/1/30 71/2/30 72/3/30
f 49/1/9 56/2/9 55/3/9
f 52/1/10 51/2/10 50/3/10
f 58/1/11 54/2/11 53/3/11
f 57/1/12 60/2/12 59/3/12
f 55/1/13 68/2/13 67/3/13
f 70/1/14 59/2/14 58/3/14
f 69/1/15 72/2/15 71/3/15
f 67/1/16 62/2/16 61/3/16
f 64/1/17 71/2/17 70/3/17
f 63/1/18 66/2/18 65/3/18
f 61/1/19 50/2/19 49/3/19
f 53/1/20 65/2/20 64/3/20
f 67/1/21 49/2/21 55/3/21
f 54/1/22 56/2/22 51/3/22
f 65/1/23 50/2/23 63/3/23
f 58/1/24 64/2/24 70/3/24
f 59/1/25 68/2/25 57/3/25
f 71/1/26 62/2/26 69/3/26
f 73/1/1 74/2/1 75/3/1
f 76/1/2 77/2/2 78/3/2
f 79/1/3 80/2/3 81/3/3
f 82/1/29 83/2/29 84/3/29
f 85/1/5 86/2/5 87/3/5
f 88/1/6 89/2/6 90/3/6
f 91/1/7 92/2/7 93/3/7
f 94/1/30 95/2/30 96/3/30
f 73/1/9 80/2/9 79/3/9
f 76/1/10 75/2/10 74/3/10
f 82/1/11 78/2/11 77/3/11
f 81/1/12 84/2/12 83/3/12
f 79/1/13 92/2/13 91/3/13
f 94/1/14 83/2/14 82/3/14
f 93/1/15 96/2/15 95/3/15
f 91/1/16 86/2/16 85/3/16
f 88/1/17 95/2/17 94/3/17
f 87/1/18 90/2/18 89/3/18
f 85/1/19 74/2/19 73/3/19
f 77/1/20 89/2/20 88/3/20
f 91/1/21 73/2/21 79/3/21
f 78/1/22 80/2/22 75/3/22
f 89/1/23 74/2/23 87/3/23
f 82/1/24 88/2/24 94/3/24
f 83/1/25 92/2/25 81/3/25
f 95/1/26 86/2/26 93/3/26
f 97/1/31 98/2/31 99/3/31
f 100/1/32 101/2/32 102/3/32
f 103/1/33 104/2/33 105/3/33
f 106/1/34 107/2/34 108/3/34
f 109/1/35 110/2/35 111/3/35
f 112/1/36 113/2/36 114/3/36
f 115/1/37 116/2/37 117/3/37
f 118/1/38 119/2/38 120/3/38
f 97/1/39 104/2/39 103/3/39
f 100/1/40 99/2/40 98/3/40
f 106/1/41 102/2/41 101/3/41
f 105/1/42 108/2/42 107/3/42
f 103/1/43 116/2/43 115/3/43
f 118/1/44 107/2/44 106/3/44
f 119/1/45 116/2/45 120/3/45
f 109/1/46 117/2/46 110/3/46
f 118/1/47 114/2/47 119/3/47
f 111/1/48 114/2/48 113/3/48
f 109/1/49 98/2/49 97/3/49
f 101/1/50 113/2/50 112/3/50
f 115/1/51 97/2/51 103/3/51
f 102/1/22 104/2/22 99/3/22
f 113/1/52 98/2/52 111/3/52
f 106/1/53 112/2/53 118/3/53
f 107/1/54 116/2/54 105/3/54
f 119/1/26 110/2/26 117/3/26
f 121/1/31 122/2/31 123/3/31
f 124/1/32 125/2/32 126/3/32
f 127/1/55 128/2/55 129/3/55
f 130/1/34 131/2/34 132/3/34
f 133/1/35 134/2/35 135/3/35
f 136/1/36 137/2/36 138/3/36
f 139/1/56 140/2/56 141/3/56
f 142/1/38 143/2/38 144/3/38
f 121/1/39 128/2/39 127/3/39
f 124/1/40 123/2/40 122/3/40
f 130/1/41 126/2/41 125/3/41
f 129/1/42 132/2/42 131/3/42
f 127/1/43 140/2/43 139/3/43
f 142/1/44 131/2/44 130/3/44
f 143/1/45 140/2/45 144/3/45
f 133/1/46 141/2/46 134/3/46
f 142/1/47 138/2/47 143/3/47
f 137/1/48 134/2/48 138/3/48
f 133/1/49 122/2/49 121/3/49
f 125/1/50 137/2/50 136/3/50
f 139/1/51 121/2/51 127/3/51
f 126/1/22 128/2/22 123/3/22
f 137/1/52 122/2/52 135/3/52
f 130/1/53 136/2/53 142/3/53
f 131/1/54 140/2/54 129/3/54
f 143/1/26 134/2/26 141/3/26
f 145/1/31 146/2/31 147/3/31
f 148/1/32 149/2/32 150/3/32
f 151/1/55 152/2/55 153/3/55
f 154/1/57 155/2/57 156/3/57
f 157/1/35 158/2/35 159/3/35
f 160/1/36 161/2/36 162/3/36
f 163/1/56 164/2/56 165/3/56
f 166/1/58 167/2/58 168/3/58
f 151/1/39 147/2/39 152/3/39
f 148/1/40 147/2/40 146/3/40
f 154/1/41 150/2/41 149/3/41
f 155/1/42 152/2/42 156/3/42
f 151/1/43 164/2/43 163/3/43
f 166/1/44 155/2/44 154/3/44
f 165/1/45 168/2/45 167/3/45
f 163/1/46 158/2/46 157/3/46
f 166/1/47 162/2/47 167/3/47
f 161/1/48 158/2/48 162/3/48
f 157/1/49 146/2/49 145/3/49
f 149/1/50 161/2/50 160/3/50
f 163/1/51 145/2/51 151/3/51
f 150/1/22 152/2/22 147/3/22
f 161/1/52 146/2/52 159/3/52
f 154/1/53 160/2/53 166/3/53
f 155/1/54 164/2/54 153/3/54
f 167/1/26 158/2/26 165/3/26
f 170/4/59 171/5/59 169/6/59
f 172/4/26 173/5/26 171/6/26
f 174/4/60 175/5/60 173/6/60
f 176/4/61 177/5/61 175/6/61
f 176/4/62 174/5/62 170/6/62
f 178/4/22 179/5/22 177/6/22
f 180/4/63 169/5/63 179/6/63
f 175/4/64 177/5/64 179/6/64
f 182/4/65 183/5/65 181/6/65
f 183/4/26 186/5/26 185/6/26
f 186/4/66 187/5/66 185/6/66
f 188/4/67 189/5/67 187/6/67
f 188/4/25 186/5/25 182/6/25
f 190/4/22 191/5/22 189/6/22
f 192/4/68 181/5/68 191/6/68
f 187/4/23 189/5/23 191/6/23
f 193/4/69 196/5/69 195/6/69
f 196/4/26 197/5/26 195/6/26
f 198/4/70 199/5/70 197/6/70
f 199/4/71 202/5/71 201/6/71
f 202/4/72 200/5/72 198/6/72
f 202/4/22 203/5/22 201/6/22
f 204/4/73 193/5/73 203/6/73
f 199/4/74 201/5/74 203/6/74
f 206/4/75 210/5/75 207/6/75
f 205/4/76 187/5/76 208/6/76
f 181/4/77 207/5/77 210/6/77
f 206/4/78 208/5/78 209/6/78
f 208/4/79 187/5/79 211/6/79
f 181/4/80 210/5/80 213/6/80
f 209/4/81 211/5/81 212/6/81
f 209/4/82 213/5/82 210/6/82
f 212/4/83 216/5/83 213/6/83
f 211/4/84 187/5/84 214/6/84
f 181/4/85 213/5/85 216/6/85
f 212/4/86 214/5/86 215/6/86
f 215/4/87 219/5/87 216/6/87
f 214/4/88 187/5/88 217/6/88
f 181/4/89 216/5/89 219/6/89
f 215/4/90 217/5/90 218/6/90
f 218/4/91 222/5/91 219/6/91
f 217/4/92 187/5/92 220/6/92
f 181/4/93 219/5/93 222/6/93
f 217/4/94 221/5/94 218/6/94
f 222/4/95 206/5/95 207/6/95
f 220/4/96 187/5/96 205/6/96
f 181/4/97 222/5/97 207/6/97
f 220/4/98 206/5/98 221/6/98
f 224/4/75 228/5/75 225/6/75
f 223/4/76 188/5/76 226/6/76
f 182/4/77 225/5/77 228/6/77
f 224/4/99 226/5/99 227/6/99
f 227/4/82 231/5/82 228/6/82
f 226/4/79 188/5/79 229/6/79
f 182/4/80 228/5/80 231/6/80
f 226/4/81 230/5/81 227/6/81
f 231/4/83 233/5/83 234/6/83
f 229/4/84 188/5/84 232/6/84
f 182/4/85 231/5/85 234/6/85
f 229/4/100 233/5/100 230/6/100
f 233/4/87 237/5/87 234/6/87
f 232/4/88 188/5/88 235/6/88
f 182/4/89 234/5/89 237/6/89
f 233/4/101 235/5/101 236/6/101
f 236/4/94 238/5/94 239/6/94
f 236/4/91 240/5/91 237/6/91
f 235/4/92 188/5/92 238/6/92
f 182/4/93 237/5/93 240/6/93
f 182/4/97 240/5/97 225/6/97
f 238/4/98 224/5/98 239/6/98
f 239/4/95 225/5/95 240/6/95
f 238/4/96 188/5/96 223/6/96
f 242/4/102 243/5/102 241/6/102
f 244/4/26 245/5/26 243/6/26
f 246/4/103 247/5/103 245/6/103
f 247/4/104 250/5/104 249/6/104
f 248/4/105 246/5/105 242/6/105
f 250/4/22 251/5/22 249/6/22
f 252/4/106 241/5/106 251/6/106
f 247/4/107 249/5/107 251/6/107
f 254/4/59 255/5/59 253/6/59
f 256/4/26 257/5/26 255/6/26
f 258/4/60 259/5/60 257/6/60
f 260/4/61 261/5/61 259/6/61
f 260/4/62 258/5/62 254/6/62
f 262/4/22 263/5/22 261/6/22
f 264/4/63 253/5/63 263/6/63
f 259/4/64 261/5/64 263/6/64
f 265/4/65 266/5/65 291/6/65
f 266/4/26 269/5/26 268/6/26
f 269/4/66 270/5/66 268/6/66
f 271/4/67 272/5/67 270/6/67
f 271/4/25 269/5/25 265/6/25
f 273/4/22 274/5/22 272/6/22
f 275/4/68 291/5/68 274/6/68
f 270/4/23 272/5/23 274/6/23
f 277/4/69 278/5/69 276/6/69
f 279/4/26 280/5/26 278/6/26
f 281/4/70 282/5/70 280/6/70
f 283/4/71 284/5/71 282/6/71
f 285/4/72 283/5/72 281/6/72
f 285/4/22 286/5/22 284/6/22
f 287/4/73 276/5/73 286/6/73
f 282/4/74 284/5/74 286/6/74
f 289/4/75 294/5/75 290/6/75
f 288/4/76 270/5/76 292/6/76
f 291/4/77 290/5/77 294/6/77
f 289/4/78 292/5/78 293/6/78
f 293/4/82 297/5/82 294/6/82
f 292/4/79 270/5/79 295/6/79
f 291/4/80 294/5/80 297/6/80
f 293/4/81 295/5/81 296/6/81
f 297/4/83 299/5/83 300/6/83
f 295/4/84 270/5/84 298/6/84
f 291/4/85 297/5/85 300/6/85
f 295/4/86 299/5/86 296/6/86
f 300/4/87 302/5/87 303/6/87
f 298/4/88 270/5/88 301/6/88
f 291/4/89 300/5/89 303/6/89
f 298/4/90 302/5/90 299/6/90
f 302/4/91 306/5/91 303/6/91
f 301/4/92 270/5/92 304/6/92
f 291/4/93 303/5/93 306/6/93
f 301/4/94 305/5/94 302/6/94
f 306/4/95 289/5/95 290/6/95
f 304/4/96 270/5/96 288/6/96
f 291/4/97 306/5/97 290/6/97
f 304/4/98 289/5/98 305/6/98
f 308/4/75 312/5/75 309/6/75
f 307/4/76 271/5/76 310/6/76
f 265/4/77 309/5/77 312/6/77
f 308/4/99 310/5/99 311/6/99
f 311/4/82 315/5/82 312/6/82
f 310/4/79 271/5/79 313/6/79
f 265/4/80 312/5/80 315/6/80
f 310/4/81 314/5/81 311/6/81
f 315/4/83 317/5/83 318/6/83
f 313/4/84 271/5/84 316/6/84
f 265/4/85 315/5/85 318/6/85
f 313/4/100 317/5/100 314/6/100
f 317/4/87 321/5/87 318/6/87
f 316/4/88 271/5/88 319/6/88
f 265/4/89 318/5/89 321/6/89
f 317/4/101 319/5/101 320/6/101
f 320/4/94 322/5/94 323/6/94
f 320/4/91 324/5/91 321/6/91
f 319/4/92 271/5/92 322/6/92
f 265/4/93 321/5/93 324/6/93
f 265/4/97 324/5/97 309/6/97
f 322/4/98 308/5/98 323/6/98
f 324/4/95 308/5/95 309/6/95
f 322/4/96 271/5/96 307/6/96
f 325/4/102 328/5/102 327/6/102
f 328/4/26 329/5/26 327/6/26
f 330/4/103 331/5/103 329/6/103
f 332/4/104 333/5/104 331/6/104
f 332/4/105 330/5/105 326/6/105
f 334/4/22 335/5/22 333/6/22
f 335/4/106 326/5/106 325/6/106
f 331/4/107 333/5/107 335/6/107
f 337/7/108 338/8/108 339/9/108
f 340/7/109 341/8/109 342/9/109
f 343/7/110 344/8/110 345/9/110
f 346/7/111 347/8/111 348/9/111
f 349/7/112 350/8/112 351/9/112
f 352/7/113 353/8/113 354/9/113
f 355/7/114 356/8/114 357/9/114
f 358/7/115 359/8/115 360/9/115
f 337/7/9 344/8/9 343/9/9
f 340/7/10 339/8/10 338/9/10
f 346/7/11 342/8/11 341/9/11
f 345/7/12 348/8/12 347/9/12
f 343/7/13 356/8/13 355/9/13
f 358/7/14 347/8/14 346/9/14
f 357/7/15 360/8/15 359/9/15
f 355/7/16 350/8/16 349/9/16
f 352/7/17 359/8/17 358/9/17
f 351/7/18 354/8/18 353/9/18
f 349/7/19 338/8/19 337/9/19
f 341/7/20 353/8/20 352/9/20
f 355/7/21 337/8/21 343/9/21
f 342/7/22 344/8/22 339/9/22
f 353/7/23 338/8/23 351/9/23
f 346/7/24 352/8/24 358/9/24
f 347/7/25 356/8/25 345/9/25
f 359/7/26 350/8/26 357/9/26
f 1/1/9 3/2/9 8/3/9
f 4/1/10 6/2/10 3/3/10
f 10/1/11 12/2/11 6/3/11
f 9/1/12 8/2/12 12/3/12
f 7/1/13 9/2/13 20/3/13
f 22/1/14 24/2/14 11/3/14
f 21/1/15 20/2/15 24/3/15
f 19/1/16 21/2/16 14/3/16
f 16/1/17 18/2/17 23/3/17
f 15/1/18 14/2/18 18/3/18
f 13/1/19 15/2/19 2/3/19
f 5/1/20 4/2/20 17/3/20
f 19/1/21 13/2/21 1/3/21
f 6/1/22 12/2/22 8/3/22
f 17/1/23 4/2/23 2/3/23
f 10/1/24 5/2/24 16/3/24
f 11/1/25 24/2/25 20/3/25
f 23/1/26 18/2/26 14/3/26
f 25/1/9 27/2/9 32/3/9
f 28/1/10 30/2/10 27/3/10
f 34/1/11 36/2/11 30/3/11
f 33/1/12 32/2/12 36/3/12
f 31/1/13 33/2/13 44/3/13
f 46/1/14 48/2/14 35/3/14
f 45/1/15 44/2/15 48/3/15
f 43/1/16 45/2/16 38/3/16
f 40/1/17 42/2/17 47/3/17
f 39/1/18 38/2/18 42/3/18
f 37/1/19 39/2/19 26/3/19
f 29/1/20 28/2/20 41/3/20
f 43/1/21 37/2/21 25/3/21
f 30/1/22 36/2/22 32/3/22
f 41/1/23 28/2/23 26/3/23
f 34/1/24 29/2/24 40/3/24
f 35/1/25 48/2/25 44/3/25
f 47/1/26 42/2/26 38/3/26
f 49/1/9 51/2/9 56/3/9
f 52/1/10 54/2/10 51/3/10
f 58/1/11 60/2/11 54/3/11
f 57/1/12 56/2/12 60/3/12
f 55/1/13 57/2/13 68/3/13
f 70/1/14 72/2/14 59/3/14
f 69/1/15 68/2/15 72/3/15
f 67/1/16 69/2/16 62/3/16
f 64/1/17 66/2/17 71/3/17
f 63/1/18 62/2/18 66/3/18
f 61/1/19 63/2/19 50/3/19
f 53/1/20 52/2/20 65/3/20
f 67/1/21 61/2/21 49/3/21
f 54/1/22 60/2/22 56/3/22
f 65/1/23 52/2/23 50/3/23
f 58/1/24 53/2/24 64/3/24
f 59/1/25 72/2/25 68/3/25
f 71/1/26 66/2/26 62/3/26
f 73/1/9 75/2/9 80/3/9
f 76/1/10 78/2/10 75/3/10
f 82/1/11 84/2/11 78/3/11
f 81/1/12 80/2/12 84/3/12
f 79/1/13 81/2/13 92/3/13
f 94/1/14 96/2/14 83/3/14
f 93/1/15 92/2/15 96/3/15
f 91/1/16 93/2/16 86/3/16
f 88/1/17 90/2/17 95/3/17
f 87/1/18 86/2/18 90/3/18
f 85/1/19 87/2/19 74/3/19
f 77/1/20 76/2/20 89/3/20
f 91/1/21 85/2/21 73/3/21
f 78/1/22 84/2/22 80/3/22
f 89/1/23 76/2/23 74/3/23
f 82/1/24 77/2/24 88/3/24
f 83/1/25 96/2/25 92/3/25
f 95/1/26 90/2/26 86/3/26
f 97/1/39 99/2/39 104/3/39
f 100/1/40 102/2/40 99/3/40
f 106/1/41 108/2/41 102/3/41
f 105/1/42 104/2/42 108/3/42
f 103/1/43 105/2/43 116/3/43
f 118/1/44 120/2/44 107/3/44
f 119/1/45 117/2/45 116/3/45
f 109/1/46 115/2/46 117/3/46
f 118/1/47 112/2/47 114/3/47
f 111/1/48 110/2/48 114/3/48
f 109/1/49 111/2/49 98/3/49
f 101/1/50 100/2/50 113/3/50
f 115/1/51 109/2/51 97/3/51
f 102/1/22 108/2/22 104/3/22
f 113/1/52 100/2/52 98/3/52
f 106/1/53 101/2/53 112/3/53
f 107/1/54 120/2/54 116/3/54
f 119/1/26 114/2/26 110/3/26
f 121/1/39 123/2/39 128/3/39
f 124/1/40 126/2/40 123/3/40
f 130/1/41 132/2/41 126/3/41
f 129/1/42 128/2/42 132/3/42
f 127/1/43 129/2/43 140/3/43
f 142/1/44 144/2/44 131/3/44
f 143/1/45 141/2/45 140/3/45
f 133/1/46 139/2/46 141/3/46
f 142/1/47 136/2/47 138/3/47
f 137/1/48 135/2/48 134/3/48
f 133/1/49 135/2/49 122/3/49
f 125/1/50 124/2/50 137/3/50
f 139/1/51 133/2/51 121/3/51
f 126/1/22 132/2/22 128/3/22
f 137/1/52 124/2/52 122/3/52
f 130/1/53 125/2/53 136/3/53
f 131/1/54 144/2/54 140/3/54
f 143/1/26 138/2/26 134/3/26
f 151/1/39 145/2/39 147/3/39
f 148/1/40 150/2/40 147/3/40
f 154/1/41 156/2/41 150/3/41
f 155/1/42 153/2/42 152/3/42
f 151/1/43 153/2/43 164/3/43
f 166/1/44 168/2/44 155/3/44
f 165/1/45 164/2/45 168/3/45
f 163/1/46 165/2/46 158/3/46
f 166/1/47 160/2/47 162/3/47
f 161/1/48 159/2/48 158/3/48
f 157/1/49 159/2/49 146/3/49
f 149/1/50 148/2/50 161/3/50
f 163/1/51 157/2/51 145/3/51
f 150/1/22 156/2/22 152/3/22
f 161/1/52 148/2/52 146/3/52
f 154/1/53 149/2/53 160/3/53
f 155/1/54 168/2/54 164/3/54
f 167/1/26 162/2/26 158/3/26
f 170/4/59 172/5/59 171/6/59
f 172/4/26 174/5/26 173/6/26
f 174/4/60 176/5/60 175/6/60
f 176/4/61 178/5/61 177/6/61
f 174/4/62 172/5/62 170/6/62
f 170/4/62 180/5/62 178/6/62
f 178/4/62 176/5/62 170/6/62
f 178/4/22 180/5/22 179/6/22
f 180/4/63 170/5/63 169/6/63
f 179/4/64 169/5/64 175/6/64
f 169/4/64 171/5/64 175/6/64
f 171/4/64 173/5/64 175/6/64
f 182/4/65 184/5/65 183/6/65
f 183/4/26 184/5/26 186/6/26
f 186/4/66 188/5/66 187/6/66
f 188/4/67 190/5/67 189/6/67
f 186/4/25 184/5/25 182/6/25
f 182/4/25 192/5/25 190/6/25
f 190/4/25 188/5/25 182/6/25
f 190/4/22 192/5/22 191/6/22
f 192/4/68 182/5/68 181/6/68
f 191/4/23 181/5/23 187/6/23
f 181/4/23 183/5/23 187/6/23
f 183/4/23 185/5/23 187/6/23
f 193/4/69 194/5/69 196/6/69
f 196/4/26 198/5/26 197/6/26
f 198/4/70 200/5/70 199/6/70
f 199/4/71 200/5/71 202/6/71
f 198/4/72 196/5/72 202/6/72
f 196/4/72 194/5/72 202/6/72
f 194/4/72 204/5/72 202/6/72
f 202/4/22 204/5/22 203/6/22
f 204/4/73 194/5/73 193/6/73
f 203/4/74 193/5/74 199/6/74
f 193/4/74 195/5/74 199/6/74
f 195/4/74 197/5/74 199/6/74
f 206/4/75 209/5/75 210/6/75
f 206/4/78 205/5/78 208/6/78
f 209/4/81 208/5/81 211/6/81
f 209/4/82 212/5/82 213/6/82
f 212/4/83 215/5/83 216/6/83
f 212/4/86 211/5/86 214/6/86
f 215/4/87 218/5/87 219/6/87
f 215/4/90 214/5/90 217/6/90
f 218/4/91 221/5/91 222/6/91
f 217/4/94 220/5/94 221/6/94
f 222/4/95 221/5/95 206/6/95
f 220/4/98 205/5/98 206/6/98
f 224/4/116 227/5/116 228/6/116
f 224/4/78 223/5/78 226/6/78
f 227/4/82 230/5/82 231/6/82
f 226/4/81 229/5/81 230/6/81
f 231/4/117 230/5/117 233/6/117
f 229/4/86 232/5/86 233/6/86
f 233/4/118 236/5/118 237/6/118
f 233/4/90 232/5/90 235/6/90
f 236/4/94 235/5/94 238/6/94
f 236/4/91 239/5/91 240/6/91
f 238/4/98 223/5/98 224/6/98
f 239/4/95 224/5/95 225/6/95
f 242/4/102 244/5/102 243/6/102
f 244/4/26 246/5/26 245/6/26
f 246/4/103 248/5/103 247/6/103
f 247/4/104 248/5/104 250/6/104
f 246/4/105 244/5/105 242/6/105
f 242/4/105 252/5/105 250/6/105
f 250/4/105 248/5/105 242/6/105
f 250/4/22 252/5/22 251/6/22
f 252/4/106 242/5/106 241/6/106
f 251/4/107 241/5/107 247/6/107
f 241/4/107 243/5/107 247/6/107
f 243/4/107 245/5/107 247/6/107
f 254/4/59 256/5/59 255/6/59
f 256/4/26 258/5/26 257/6/26
f 258/4/60 260/5/60 259/6/60
f 260/4/61 262/5/61 261/6/61
f 258/4/62 256/5/62 254/6/62
f 254/4/62 264/5/62 262/6/62
f 262/4/62 260/5/62 254/6/62
f 262/4/22 264/5/22 263/6/22
f 264/4/63 254/5/63 253/6/63
f 263/4/64 253/5/64 259/6/64
f 253/4/64 255/5/64 259/6/64
f 255/4/64 257/5/64 259/6/64
f 265/4/65 267/5/65 266/6/65
f 266/4/26 267/5/26 269/6/26
f 269/4/66 271/5/66 270/6/66
f 271/4/67 273/5/67 272/6/67
f 269/4/25 267/5/25 265/6/25
f 265/4/25 275/5/25 273/6/25
f 273/4/25 271/5/25 265/6/25
f 273/4/22 275/5/22 274/6/22
f 275/4/68 265/5/68 291/6/68
f 274/4/23 291/5/23 270/6/23
f 291/4/23 266/5/23 270/6/23
f 266/4/23 268/5/23 270/6/23
f 277/4/69 279/5/69 278/6/69
f 279/4/26 281/5/26 280/6/26
f 281/4/70 283/5/70 282/6/70
f 283/4/71 285/5/71 284/6/71
f 281/4/72 279/5/72 285/6/72
f 279/4/72 277/5/72 285/6/72
f 277/4/72 287/5/72 285/6/72
f 285/4/22 287/5/22 286/6/22
f 287/4/73 277/5/73 276/6/73
f 286/4/74 276/5/74 282/6/74
f 276/4/74 278/5/74 282/6/74
f 278/4/74 280/5/74 282/6/74
f 289/4/75 293/5/75 294/6/75
f 289/4/78 288/5/78 292/6/78
f 293/4/82 296/5/82 297/6/82
f 293/4/81 292/5/81 295/6/81
f 297/4/83 296/5/83 299/6/83
f 295/4/86 298/5/86 299/6/86
f 300/4/87 299/5/87 302/6/87
f 298/4/90 301/5/90 302/6/90
f 302/4/91 305/5/91 306/6/91
f 301/4/94 304/5/94 305/6/94
f 306/4/95 305/5/95 289/6/95
f 304/4/98 288/5/98 289/6/98
f 308/4/116 311/5/116 312/6/116
f 308/4/78 307/5/78 310/6/78
f 311/4/82 314/5/82 315/6/82
f 310/4/81 313/5/81 314/6/81
f 315/4/117 314/5/117 317/6/117
f 313/4/86 316/5/86 317/6/86
f 317/4/118 320/5/118 321/6/118
f 317/4/90 316/5/90 319/6/90
f 320/4/94 319/5/94 322/6/94
f 320/4/91 323/5/91 324/6/91
f 322/4/98 307/5/98 308/6/98
f 324/4/95 323/5/95 308/6/95
f 325/4/102 326/5/102 328/6/102
f 328/4/26 330/5/26 329/6/26
f 330/4/103 332/5/103 331/6/103
f 332/4/104 334/5/104 333/6/104
f 330/4/105 328/5/105 326/6/105
f 326/4/105 336/5/105 334/6/105
f 334/4/105 332/5/105 326/6/105
f 334/4/22 336/5/22 335/6/22
f 335/4/106 336/5/106 326/6/106
f 335/4/107 325/5/107 331/6/107
f 325/4/107 327/5/107 331/6/107
f 327/4/107 329/5/107 331/6/107
f 337/7/9 339/8/9 344/9/9
f 340/7/10 342/8/10 339/9/10
f 346/7/11 348/8/11 342/9/11
f 345/7/12 344/8/12 348/9/12
f 343/7/13 345/8/13 356/9/13
f 358/7/14 360/8/14 347/9/14
f 357/7/15 356/8/15 360/9/15
f 355/7/16 357/8/16 350/9/16
f 352/7/17 354/8/17 359/9/17
f 351/7/18 350/8/18 354/9/18
f 349/7/19 351/8/19 338/9/19
f 341/7/20 340/8/20 353/9/20
f 355/7/21 349/8/21 337/9/21
f 342/7/22 348/8/22 344/9/22
f 353/7/23 340/8/23 338/9/23
f 346/7/24 341/8/24 352/9/24
f 347/7/25 360/8/25 356/9/25
f 359/7/26 354/8/26 350/9/26
